<?xml version="1.0" encoding="UTF-8" standalone="no"?>
<svg
   xmlns:dc="http://purl.org/dc/elements/1.1/"
   xmlns:cc="http://creativecommons.org/ns#"
   xmlns:rdf="http://www.w3.org/1999/02/22-rdf-syntax-ns#"
   xmlns:svg="http://www.w3.org/2000/svg"
   xmlns="http://www.w3.org/2000/svg"
   xmlns:sodipodi="http://sodipodi.sourceforge.net/DTD/sodipodi-0.dtd"
   xmlns:inkscape="http://www.inkscape.org/namespaces/inkscape"
   version="1.1"
   width="22.109995cm"
   height="6.1099892cm"
   viewBox="0 0 87047.285 24055.098"
   id="svg828"
   sodipodi:docname="02_EncoderBoard-4.5mm-Black-UnderLayer.svg"
   inkscape:version="0.92.4 (5da689c313, 2019-01-14)">
  <metadata
     id="metadata834">
    <rdf:RDF>
      <cc:Work
         rdf:about="">
        <dc:format>image/svg+xml</dc:format>
        <dc:type
           rdf:resource="http://purl.org/dc/dcmitype/StillImage" />
        <dc:title>SVG Picture created as EncoderBoard-Cmts_User.svg date 2019/07/27 16:14:19 </dc:title>
      </cc:Work>
    </rdf:RDF>
  </metadata>
  <defs
     id="defs832" />
  <sodipodi:namedview
     pagecolor="#ffffff"
     bordercolor="#666666"
     borderopacity="1"
     objecttolerance="10"
     gridtolerance="10"
     guidetolerance="10"
     inkscape:pageopacity="0"
     inkscape:pageshadow="2"
     inkscape:window-width="2560"
     inkscape:window-height="1537"
     id="namedview830"
     showgrid="true"
     inkscape:document-units="mm"
     inkscape:zoom="1.4142136"
     inkscape:cx="517.45439"
     inkscape:cy="280.99376"
     inkscape:window-x="2552"
     inkscape:window-y="-8"
     inkscape:window-maximized="1"
     inkscape:current-layer="svg828"
     inkscape:snap-nodes="true"
     inkscape:snap-global="true"
     inkscape:snap-grids="false"
     fit-margin-top="0"
     fit-margin-left="0"
     fit-margin-right="0"
     fit-margin-bottom="0">
    <inkscape:grid
       type="xygrid"
       id="grid836"
       units="mm"
       spacingx="39.370111"
       spacingy="39.370111"
       originx="19.68505"
       originy="19.611385" />
  </sodipodi:namedview>
  <title
     id="title2">SVG Picture created as EncoderBoard-Cmts_User.svg date 2019/07/27 16:14:19 </title>
  <desc
     id="desc4">Picture generated by PCBNEW </desc>
  <path
     style="opacity:1;fill:#323232;fill-opacity:1;stroke:#000000;stroke-width:39.37010574;stroke-linejoin:bevel;stroke-miterlimit:4;stroke-dasharray:none;stroke-dashoffset:0;stroke-opacity:1"
     d="m 216.62531,19.685052 c -109.05594,0 -196.940258,87.883408 -196.940258,196.940778 V 23838.674 c 0,109.06 87.884318,196.737 196.940258,196.737 H 86830.871 c 109.057,0 196.737,-87.677 196.737,-196.737 V 216.62583 c 0,-109.05737 -87.68,-196.940778 -196.737,-196.940778 z M 23129.648,924.63369 h 4448.856 l -0.833,6653.44801 197.754,0.2084 -0.625,3936.7709 -3149.213,0.208 V 7578.2953 h -2952.68 v -4409.59 l 1455.893,-0.625 z m 29251.936,0 5905.766,0.625 V 7578.7067 h 196.941 v 3976.4443 l -3149.62,-0.625 V 7578.6921 H 52381.99 Z m -44605.952,0.625 h 4448.857 l -0.834,6653.44801 h 197.551 l -0.625,3936.9743 -3149.0095,0.208 V 7578.6921 H 6318.9251 V 3169.3053 l 1455.6897,-0.625 z m 30708.643,0 h 4448.856 l -0.833,6653.44801 h 197.55 l -0.625,3936.9743 -3149.01,0.208 V 7578.7119 h -2952.68 V 3169.3251 l 1455.893,-0.625 z m 7912.4,274.86171 h 1535.442 l -0.625,944.4184 1378.582,0.4167 v 3897.7083 h 905.56 v 3700.7686 h 2047.12 v 1811.1186 h -2047.12 v 1732.178 h -905.56 l -0.625,4684.859 -2912.803,0.208 v -3779.503 h -866.089 V 6042.669 h 866.089 z m -30707.625,40.0802 h 1535.443 l -0.834,944.4174 1378.786,0.4167 V 6082.743 h 905.356 v 3700.7676 h 2047.323 v 1811.1184 h -2047.323 v 1732.179 h -905.356 l -0.834,4684.859 -2912.6,0.208 v -3779.503 h -866.292 V 6082.7482 h 866.292 z m 57164.556,38.4521 h 13780.121 v 787.9642 h -512.086 v 5197.1479 h 512.086 v 786.9475 H 72853.606 Z m -13660.697,40.2834 h 3700.768 v 2126.059 h -3700.768 z m -39488.15,826.8236 a 629.92045,629.92045 0 0 1 629.884,629.8828 629.92045,629.92045 0 0 1 -629.884,629.8838 629.92045,629.92045 0 0 1 -629.883,-629.8838 629.92045,629.92045 0 0 1 629.883,-629.8828 z m 15748.1,0 a 629.92047,629.92047 0 0 1 629.884,629.8828 629.92047,629.92047 0 0 1 -629.884,629.8838 629.92047,629.92047 0 0 1 -630.086,-629.8838 629.92047,629.92047 0 0 1 630.086,-629.8828 z m 29921.289,0 a 629.92049,629.92049 0 0 1 629.884,629.8828 629.92049,629.92049 0 0 1 -629.884,629.8838 629.92049,629.92049 0 0 1 -630.086,-629.8838 629.92049,629.92049 0 0 1 630.086,-629.8828 z m -1851.401,1928.9161 h 2914.025 v 1377.9709 h 747.883 v 1338.0948 h -747.883 v 3582.9705 h 826.823 v 1337.892 H 63522.747 V 7893.6476 h -787.15 V 6515.6767 h 787.15 z m 14488.944,6102.0952 h 4644.982 v 4251.916 h 3504.031 v 1181.031 h -2203.981 v 511.883 h -1300.05 v 1299.032 h -4644.982 z m -8819.994,1771.242 4449.67,0.209 v 6653.448 h 196.94 v 4055.179 h -3149.62 V 18601.65 h -2952.68 v -4409.387 h 1456.707 z m -15354.017,0.625 4449.67,0.209 v 6653.651 h 196.941 v 4055.145 h -3149.62 v -4055.18 H 52381.99 v -4409.386 h 1456.708 z m -47518.7549,0.209 h 5905.5639 v 6653.651 h 196.736 v 4054.976 H 9271.6048 V 18602.463 H 6318.9251 Z m 15354.2199,0 h 5905.563 v 6653.651 h 196.94 l -1.042,4054.161 -3148.603,0.834 V 18602.517 H 21673.12 Z m 15354.423,0 h 5905.563 v 6653.651 h 196.736 l -0.833,4054.161 -3148.807,0.834 v -4054.976 h -2952.679 z m 37322.214,510.865 h 1535.849 v 905.966 h 1377.972 v 3582.97 h -2913.821 z m 9921.883,3859.256 a 629.92051,629.92051 0 0 1 629.883,629.883 629.92051,629.92051 0 0 1 -629.883,630.087 629.92051,629.92051 0 0 1 -629.884,-630.087 629.92051,629.92051 0 0 1 629.884,-629.883 z m -5511.886,2164.715 h 3818.973 v 3622.032 h -2914.024 v -2362.062 h -904.949 z M 7106.4827,20649.585 a 629.92043,629.92043 0 0 1 629.8833,630.086 629.92043,629.92043 0 0 1 -629.8833,629.884 629.92043,629.92043 0 0 1 -630.0868,-629.884 629.92043,629.92043 0 0 1 630.0868,-630.086 z"
     id="rect1082"
     inkscape:connector-curvature="0" />
  <g
     style="fill:#000000;fill-opacity:1;stroke:#000000;stroke-linecap:round;stroke-linejoin:round;stroke-opacity:1"
     id="g6"
     transform="translate(19.685052,-58644.506)" />
  <g
     style="fill:#000000;fill-opacity:0;stroke:#000000;stroke-width:-0.0003937;stroke-linecap:round;stroke-linejoin:round;stroke-opacity:1"
     id="g8"
     transform="translate(19.685052,-58644.506)" />
</svg>
