<?xml version="1.0" standalone="no"?>
 <!DOCTYPE svg PUBLIC "-//W3C//DTD SVG 1.1//EN" 
 "http://www.w3.org/Graphics/SVG/1.1/DTD/svg11.dtd"> 
<svg xmlns="http://www.w3.org/2000/svg" version="1.1" 
    width="41.2699cm" height="14.0462cm" viewBox="0 0 162480 55300 ">
<title>SVG Picture created as EncoderBoard-Cmts_User.svg date 2019/07/26 19:14:24 </title>
  <desc>Picture generated by PCBNEW </desc>
<g style="fill:#000000; fill-opacity:1;stroke:#000000; stroke-opacity:1;
stroke-linecap:round; stroke-linejoin:round; "
 transform="translate(0 0) scale(1 1)">
</g>
<g style="fill:#000000; fill-opacity:0.0; 
stroke:#000000; stroke-width:-0.000393701; stroke-opacity:1; 
stroke-linecap:round; stroke-linejoin:round;">
</g>
<g style="fill:#000000; fill-opacity:0.0; 
stroke:#000000; stroke-width:70.8661; stroke-opacity:1; 
stroke-linecap:round; stroke-linejoin:round;">
<path d="M232.284 31252.4 A196.85 196.85 0.0 0 0 35.4335 31449.2 " />
<path d="M35.4335 55071.3 A196.85 196.85 0.0 0 0 232.284 55268.1 " />
<path d="M86846.5 55268.1 A196.85 196.85 0.0 0 0 87043.3 55071.3 " />
<path d="M87043.3 31449.2 A196.85 196.85 0.0 0 0 86846.5 31252.4 " />
<path d="M35 55071
L35 31449
" />
<path d="M86846 55268
L232 55268
" />
<path d="M87043 31449
L87043 55071
" />
<path d="M232 31252
L86846 31252
" />
<path d="M74366 43693
L74366 48181
" />
<path d="M75901 43693
L74366 43693
" />
<path d="M75901 44598
L75901 43693
" />
<path d="M77279 44598
L75901 44598
" />
<path d="M77279 48181
L77279 44598
" />
<path d="M74366 48181
L77279 48181
" />
<path d="M79681 50976
L79681 53338
" />
<path d="M78775 50976
L79681 50976
" />
<path d="M78775 49716
L78775 50976
" />
<path d="M82594 49716
L78775 49716
" />
<path d="M82594 53338
L82594 49716
" />
<path d="M79681 53338
L82594 53338
" />
<path d="M82673 47354
L83972 47354
" />
<path d="M82673 48653
L82673 47354
" />
<path d="M78027 48653
L82673 48653
" />
<path d="M78027 41409
L78027 48653
" />
<path d="M82673 41409
L78027 41409
" />
<path d="M82673 45661
L82673 41409
" />
<path d="M86177 45661
L82673 45661
" />
<path d="M86177 46842
L86177 45661
" />
<path d="M83972 46842
L86177 46842
" />
<path d="M83972 47354
L83972 46842
" />
<path d="M86649 39283
L86649 38496
" />
<path d="M86649 33299
L86649 32512
" />
<path d="M86137 33299
L86649 33299
" />
<path d="M86137 38496
L86137 33299
" />
<path d="M86649 38496
L86137 38496
" />
<path d="M67751 45425
L69208 45425
" />
<path d="M69208 45425
L69208 43181
" />
<path d="M67279 41606
L67279 42945
" />
<path d="M66452 41606
L67279 41606
" />
<path d="M66452 38024
L66452 41606
" />
<path d="M67200 38024
L66452 38024
" />
<path d="M67200 36685
L67200 38024
" />
<path d="M66452 36685
L67200 36685
" />
<path d="M66452 35307
L66452 36685
" />
<path d="M63539 35307
L66452 35307
" />
<path d="M63539 37748
L63539 35307
" />
<path d="M62751 37748
L63539 37748
" />
<path d="M62751 39126
L62751 37748
" />
<path d="M63539 39126
L62751 39126
" />
<path d="M63539 42945
L63539 39126
" />
<path d="M67279 42945
L63539 42945
" />
<path d="M59208 34677
L59208 32551
" />
<path d="M62909 34677
L59208 34677
" />
<path d="M62909 32551
L62909 34677
" />
<path d="M59208 32551
L62909 32551
" />
<path d="M19523 44559
L19523 42827
" />
<path d="M14838 37315
L14838 45464
" />
<path d="M19523 37315
L18618 37315
" />
<path d="M15704 37315
L14838 37315
" />
<path d="M18618 37315
L18618 33417
" />
<path d="M18618 33417
L17240 33417
" />
<path d="M14838 45464
L15704 45464
" />
<path d="M19523 42827
L21570 42827
" />
<path d="M15704 32472
L15704 37315
" />
<path d="M15704 49244
L18618 49244
" />
<path d="M17240 32472
L15704 32472
" />
<path d="M18618 49244
L18618 44559
" />
<path d="M21570 42827
L21570 41016
" />
<path d="M19523 41016
L19523 37315
" />
<path d="M21570 41016
L19523 41016
" />
<path d="M17240 33417
L17240 32472
" />
<path d="M18618 44559
L19523 44559
" />
<path d="M15704 45464
L15704 49244
" />
<path d="M6334 34401
L7791 34401
" />
<path d="M7791 34401
L7791 32157
" />
<path d="M21688 34401
L23145 34401
" />
<path d="M23145 34401
L23145 32157
" />
<path d="M37043 34401
L38500 34401
" />
<path d="M38500 34401
L38500 32157
" />
<path d="M53854 45425
L53854 43181
" />
<path d="M52397 45425
L53854 45425
" />
<path d="M47948 32433
L46413 32433
" />
<path d="M47948 33378
L47948 32433
" />
<path d="M49326 33378
L47948 33378
" />
<path d="M49326 37275
L49326 33378
" />
<path d="M50232 37275
L49326 37275
" />
<path d="M50232 40976
L50232 37275
" />
<path d="M52279 40976
L50232 40976
" />
<path d="M52279 42787
L52279 40976
" />
<path d="M50232 42787
L52279 42787
" />
<path d="M50232 44520
L50232 42787
" />
<path d="M49326 44520
L50232 44520
" />
<path d="M49326 49205
L49326 44520
" />
<path d="M46413 49205
L49326 49205
" />
<path d="M46413 45425
L46413 49205
" />
<path d="M45547 45425
L46413 45425
" />
<path d="M45547 37275
L45547 45425
" />
<path d="M46413 37275
L45547 37275
" />
<path d="M46413 32433
L46413 37275
" />
<circle cx="7122.05" cy="52512.2" r="629.921" /> 
<circle cx="19720.5" cy="34008.3" r="629.921" /> 
<circle cx="35468.5" cy="34008.3" r="629.921" /> 
<circle cx="65389.8" cy="34008.3" r="629.921" /> 
<circle cx="84287.4" cy="48181.5" r="629.921" /> 
<path d="M72870 32512
L72870 39283
" />
<path d="M86649 32512
L72870 32512
" />
<path d="M72870 39283
L86649 39283
" />
<path d="M55350 38811
L55350 42787
" />
<path d="M58500 38811
L58303 38811
" />
<path d="M55350 42787
L58500 42787
" />
<path d="M58500 42787
L58500 38811
" />
<path d="M52397 38811
L52397 32157
" />
<path d="M55350 38811
L52397 38811
" />
<path d="M58303 32157
L58303 38811
" />
<path d="M52397 32157
L58303 32157
" />
<path d="M39996 38811
L39996 42748
" />
<path d="M43145 38811
L42948 38811
" />
<path d="M39996 42748
L43145 42748
" />
<path d="M43145 42748
L43145 38811
" />
<path d="M37043 38811
L37043 34401
" />
<path d="M39996 38811
L37043 38811
" />
<path d="M42948 32157
L42948 38811
" />
<path d="M38500 32157
L42948 32157
" />
<path d="M24641 38811
L24641 42748
" />
<path d="M27791 38811
L27594 38811
" />
<path d="M24641 42748
L27791 42748
" />
<path d="M27791 42748
L27791 38811
" />
<path d="M21688 38811
L21688 34401
" />
<path d="M24641 38811
L21688 38811
" />
<path d="M27594 32157
L27594 38811
" />
<path d="M23145 32157
L27594 32157
" />
<path d="M9287 38811
L9287 42748
" />
<path d="M12437 38811
L12240 38811
" />
<path d="M9287 42748
L12437 42748
" />
<path d="M12437 42748
L12437 38811
" />
<path d="M6334 38811
L6334 34401
" />
<path d="M9287 38811
L6334 38811
" />
<path d="M12240 32157
L12240 38811
" />
<path d="M7791 32157
L12240 32157
" />
<path d="M9287 49835
L9287 53890
" />
<path d="M12437 49835
L12240 49835
" />
<path d="M9287 53890
L12437 53890
" />
<path d="M12437 53890
L12437 49835
" />
<path d="M6334 49835
L6334 43181
" />
<path d="M9287 49835
L6334 49835
" />
<path d="M12240 43181
L12240 49835
" />
<path d="M6334 43181
L12240 43181
" />
<path d="M24641 49835
L24641 53890
" />
<path d="M27791 49835
L27594 49835
" />
<path d="M24641 53890
L27791 53890
" />
<path d="M27791 53890
L27791 49835
" />
<path d="M21688 49835
L21688 43181
" />
<path d="M24641 49835
L21688 49835
" />
<path d="M27594 43181
L27594 49835
" />
<path d="M21688 43181
L27594 43181
" />
<path d="M39996 49835
L39996 53890
" />
<path d="M43145 49835
L42948 49835
" />
<path d="M39996 53890
L43145 53890
" />
<path d="M43145 53890
L43145 49835
" />
<path d="M37043 49835
L37043 43181
" />
<path d="M39996 49835
L37043 49835
" />
<path d="M42948 43181
L42948 49835
" />
<path d="M37043 43181
L42948 43181
" />
<path d="M55350 49835
L55350 53890
" />
<path d="M58500 49835
L58303 49835
" />
<path d="M55350 53890
L58500 53890
" />
<path d="M58500 53890
L58500 49835
" />
<path d="M52397 49835
L52397 45425
" />
<path d="M55350 49835
L52397 49835
" />
<path d="M58303 43181
L58303 49835
" />
<path d="M53854 43181
L58303 43181
" />
<path d="M73854 49835
L73657 49835
" />
<path d="M73854 53890
L73854 49835
" />
<path d="M70704 53890
L73854 53890
" />
<path d="M70704 49835
L70704 53890
" />
<path d="M67751 49835
L67751 45425
" />
<path d="M70704 49835
L67751 49835
" />
<path d="M73657 43181
L73657 49835
" />
<path d="M69208 43181
L73657 43181
" />
</g>
<g style="fill:#000000; fill-opacity:0.0; 
stroke:#000000; stroke-width:59.0551; stroke-opacity:1; 
stroke-linecap:round; stroke-linejoin:round;">
<circle cx="19720.5" cy="34008.3" r="1259.84" /> 
<circle cx="65389.8" cy="34008.3" r="1259.84" /> 
<circle cx="84287.4" cy="48181.5" r="1259.84" /> 
<circle cx="35468.5" cy="34008.3" r="1259.84" /> 
<circle cx="7122.05" cy="52512.2" r="1259.84" /> 
<g >
</g>
<g >
</g>
<g >
</g>
<g >
</g>
<g >
</g>
<g >
</g>
<g >
</g>
<g >
</g>
<g >
</g>
<g >
</g>
<g >
</g>
<g >
</g>
<g >
</g>
<g >
</g>
<g >
</g>
<g >
</g>
<g >
</g>
<g >
</g>
<g >
</g>
<g >
</g>
<g >
</g>
<g >
</g>
<g >
</g>
<g >
</g>
<g >
</g>
<g >
</g>
<g >
</g>
<g >
</g>
<g >
</g>
<g >
</g>
<g >
</g>
<g >
</g>
<g >
</g>
<g >
</g>
<g >
</g>
<g >
</g>
<g >
</g>
<g >
</g>
<g >
</g>
<g >
</g>
<g >
</g>
<g >
</g>
<g >
</g>
<g >
</g>
<g >
</g>
<g >
</g>
<g >
</g>
<g >
</g>
<g >
</g>
<g >
</g>
<g >
</g>
<g >
</g>
<g >
</g>
<g >
</g>
<g >
</g>
<g >
</g>
<g >
</g>
<g >
</g>
<g >
</g>
<g >
</g>
<g >
</g>
<g >
</g>
<g >
</g>
<g >
</g>
<g >
</g>
<g >
</g>
<g >
</g>
<g >
</g>
<g >
</g>
<g >
</g>
<g >
</g>
<g >
</g>
<g >
</g>
<g >
</g>
<g >
</g>
<g >
</g>
<g >
</g>
<g >
</g>
<g >
</g>
<g >
</g>
<g >
</g>
<g >
</g>
<g >
</g>
<g >
</g>
<g >
</g>
<g >
</g>
<g >
</g>
<g >
</g>
<g >
</g>
<g >
</g>
<g >
</g>
<g >
</g>
<g >
</g>
<g >
</g>
<g >
</g>
<g >
</g>
<g >
</g>
<g >
</g>
<g >
</g>
<g >
</g>
<g >
</g>
<g >
</g>
<g >
</g>
<g >
</g>
<g >
</g>
<g >
</g>
<g >
</g>
<g >
</g>
<g >
</g>
<g >
</g>
<g >
</g>
<g >
</g>
<g >
</g>
<g >
</g>
<g >
</g>
<g >
</g>
<g >
</g>
<g >
</g>
<g >
</g>
<g >
</g>
<g >
</g>
<g >
</g>
<g >
</g>
<g >
</g>
<g >
</g>
<g >
</g>
<g >
</g>
<g >
</g>
<g >
</g>
<g >
</g>
<g >
</g>
<g >
</g>
<g >
</g>
<g >
</g>
<g >
</g>
<g >
</g>
<g >
</g>
<g >
</g>
<g >
</g>
<g >
</g>
<g >
</g>
<g >
</g>
<g >
</g>
<g >
</g>
<g >
</g>
<g >
</g>
<g >
</g>
<g >
</g>
<g >
</g>
<g >
</g>
<g >
</g>
<g >
</g>
<g >
</g>
<g >
</g>
<g >
</g>
<g >
</g>
<g >
</g>
<g >
</g>
<g >
</g>
<g >
</g>
<g >
</g>
<g >
</g>
<g >
</g>
<g >
</g>
<g >
</g>
<g >
</g>
<g >
</g>
<g >
</g>
<g >
</g>
<g >
</g>
<g >
</g>
<g >
</g>
<g >
</g>
<g >
</g>
<g >
</g>
<g >
</g>
<g >
</g>
<g >
</g>
<g >
</g>
<g >
</g>
<g >
</g>
<g >
</g>
<g >
</g>
<g >
</g>
<g >
</g>
<g >
</g>
<g >
</g>
<g >
</g>
<g >
</g>
<g >
</g>
<g >
</g>
<g >
</g>
<g >
</g>
<g >
</g>
<g >
</g>
<g >
</g>
<g >
</g>
<g >
</g>
<g >
</g>
<g >
</g>
<g >
</g>
<g >
</g>
<g >
</g>
<g >
</g>
<g >
</g>
<g >
</g>
<g >
</g>
<g >
</g>
<g >
</g>
<g >
</g>
<g >
</g>
<g >
</g>
<g >
</g>
<g >
</g>
<g >
</g>
<g >
</g>
<g >
</g>
<g >
</g>
<g >
</g>
<g >
</g>
<g >
</g>
<g >
</g>
<g >
</g>
</g> 
</svg>
