<?xml version="1.0" standalone="no"?>
 <!DOCTYPE svg PUBLIC "-//W3C//DTD SVG 1.1//EN" 
 "http://www.w3.org/Graphics/SVG/1.1/DTD/svg11.dtd"> 
<svg xmlns="http://www.w3.org/2000/svg" version="1.1" 
    width="41.2699cm" height="14.0462cm" viewBox="0 0 162480 55300 ">
<title>SVG Picture created as EncoderBoard-Eco1_User.svg date 2019/07/26 15:07:44 </title>
  <desc>Picture generated by PCBNEW </desc>
<g style="fill:#000000; fill-opacity:1;stroke:#000000; stroke-opacity:1;
stroke-linecap:round; stroke-linejoin:round; "
 transform="translate(0 0) scale(1 1)">
</g>
<g style="fill:#000000; fill-opacity:0.0; 
stroke:#000000; stroke-width:-0.000393701; stroke-opacity:1; 
stroke-linecap:round; stroke-linejoin:round;">
</g>
<g style="fill:#000000; fill-opacity:0.0; 
stroke:#000000; stroke-width:70.8661; stroke-opacity:1; 
stroke-linecap:round; stroke-linejoin:round;">
<path d="M21925 32197
L21925 38338
" />
<path d="M5389 42394
L6807 42394
" />
<path d="M5389 42551
L5389 42394
" />
<path d="M67161 38102
L67161 43457
" />
<path d="M67161 43457
L67988 43457
" />
<path d="M52633 38338
L52358 38338
" />
<path d="M52358 38338
L52358 43457
" />
<path d="M52358 43457
L52633 43457
" />
<path d="M37279 38338
L37003 38338
" />
<path d="M37003 38338
L37003 43457
" />
<path d="M37003 43457
L37279 43457
" />
<path d="M21925 38338
L21649 38338
" />
<path d="M21649 38338
L21649 43457
" />
<path d="M21649 43457
L21925 43457
" />
<path d="M67988 49362
L67712 49362
" />
<path d="M67712 49362
L67712 54480
" />
<path d="M67712 54480
L81098 54480
" />
<path d="M52633 49362
L52358 49362
" />
<path d="M52358 49362
L52358 54480
" />
<path d="M52358 54480
L65744 54480
" />
<path d="M21925 49362
L21649 49362
" />
<path d="M21649 49362
L21649 54480
" />
<path d="M21649 54480
L35035 54480
" />
<path d="M37003 49362
L37003 54480
" />
<path d="M37279 49362
L37003 49362
" />
<circle cx="84287.4" cy="48181.5" r="629.921" /> 
<circle cx="65389.8" cy="34008.3" r="629.921" /> 
<circle cx="35468.5" cy="34008.3" r="629.921" /> 
<circle cx="19720.5" cy="34008.3" r="629.921" /> 
<path d="M81649 45425
L81649 40031
" />
<path d="M86137 45425
L81649 45425
" />
<path d="M86137 40031
L86137 45425
" />
<path d="M81649 40031
L86137 40031
" />
<path d="M72673 32275
L72673 37275
" />
<path d="M87043 32275
L72673 32275
" />
<path d="M86846 39480
L86846 32275
" />
<path d="M75429 39480
L87043 39480
" />
<path d="M67673 36527
L69602 36527
" />
<path d="M67673 32551
L67673 36527
" />
<path d="M70192 32551
L67673 32551
" />
<path d="M70192 32984
L70192 32551
" />
<path d="M71688 32984
L70192 32984
" />
<path d="M71688 33614
L71688 32984
" />
<path d="M72200 33614
L71688 33614
" />
<path d="M72200 36527
L72200 33614
" />
<path d="M70192 36527
L72200 36527
" />
<path d="M70192 37039
L70192 36527
" />
<path d="M69602 37039
L70192 37039
" />
<path d="M69602 36527
L69602 37039
" />
<path d="M66885 38102
L66885 37354
" />
<path d="M67161 38102
L66885 38102
" />
<path d="M80429 44047
L73421 44047
" />
<path d="M80429 43260
L80429 44047
" />
<path d="M81059 43260
L80429 43260
" />
<path d="M81059 40504
L81059 43260
" />
<path d="M75429 40504
L81059 40504
" />
<path d="M75429 39480
L75429 40504
" />
<path d="M71885 37275
L72673 37275
" />
<path d="M71885 37354
L71885 37275
" />
<path d="M66885 37354
L71885 37354
" />
<path d="M66531 45740
L66531 48968
" />
<path d="M65901 43653
L65901 45740
" />
<path d="M63460 45504
L63263 45504
" />
<path d="M63460 48968
L63460 45504
" />
<path d="M65901 45740
L66531 45740
" />
<path d="M63263 45504
L63263 43653
" />
<path d="M66531 48968
L63460 48968
" />
<path d="M63263 43653
L65901 43653
" />
<path d="M35822 45740
L35822 49008
" />
<path d="M35192 45740
L35822 45740
" />
<path d="M35192 43693
L35192 45740
" />
<path d="M32594 43693
L35192 43693
" />
<path d="M32594 45504
L32594 43693
" />
<path d="M32791 45504
L32594 45504
" />
<path d="M32791 49008
L32791 45504
" />
<path d="M35822 49008
L32791 49008
" />
<path d="M62830 35701
L62830 37039
" />
<path d="M62043 35701
L62830 35701
" />
<path d="M59287 35071
L62043 35071
" />
<path d="M59287 37275
L59287 35071
" />
<path d="M62043 37275
L59287 37275
" />
<path d="M62043 35071
L62043 35701
" />
<path d="M62830 37039
L62043 37039
" />
<path d="M62043 37039
L62043 37275
" />
<path d="M47476 35701
L47476 37039
" />
<path d="M46688 35701
L47476 35701
" />
<path d="M43933 35071
L46688 35071
" />
<path d="M43933 37275
L43933 35071
" />
<path d="M46688 37275
L43933 37275
" />
<path d="M46688 35071
L46688 35701
" />
<path d="M47476 37039
L46688 37039
" />
<path d="M46688 37039
L46688 37275
" />
<path d="M32122 35701
L32122 37039
" />
<path d="M31334 35701
L32122 35701
" />
<path d="M28578 35071
L31334 35071
" />
<path d="M28578 37275
L28578 35071
" />
<path d="M31334 37275
L28578 37275
" />
<path d="M31334 35071
L31334 35701
" />
<path d="M32122 37039
L31334 37039
" />
<path d="M31334 37039
L31334 37275
" />
<path d="M15980 37039
L15980 37275
" />
<path d="M16767 37039
L15980 37039
" />
<path d="M16767 35701
L16767 37039
" />
<path d="M15980 35701
L16767 35701
" />
<path d="M15980 37275
L13224 37275
" />
<path d="M15980 35071
L15980 35701
" />
<path d="M13224 35071
L15980 35071
" />
<path d="M13224 37275
L13224 35071
" />
<path d="M77397 48299
L74641 48299
" />
<path d="M77397 46094
L77397 48299
" />
<path d="M74641 46094
L77397 46094
" />
<path d="M74641 46331
L74641 46094
" />
<path d="M73893 46331
L74641 46331
" />
<path d="M74641 47669
L73893 47669
" />
<path d="M73893 47669
L73893 46331
" />
<path d="M74641 48299
L74641 47669
" />
<path d="M62043 48299
L59287 48299
" />
<path d="M62043 46094
L62043 48299
" />
<path d="M59287 46094
L62043 46094
" />
<path d="M59287 46331
L59287 46094
" />
<path d="M58539 46331
L59287 46331
" />
<path d="M59287 47669
L58539 47669
" />
<path d="M58539 47669
L58539 46331
" />
<path d="M59287 48299
L59287 47669
" />
<path d="M46688 48299
L43933 48299
" />
<path d="M46688 46094
L46688 48299
" />
<path d="M43933 46094
L46688 46094
" />
<path d="M43933 46331
L43933 46094
" />
<path d="M43185 46331
L43933 46331
" />
<path d="M43933 47669
L43185 47669
" />
<path d="M43185 47669
L43185 46331
" />
<path d="M43933 48299
L43933 47669
" />
<path d="M31334 48299
L28578 48299
" />
<path d="M31334 46094
L31334 48299
" />
<path d="M28578 46094
L31334 46094
" />
<path d="M28578 46331
L28578 46094
" />
<path d="M27830 46331
L28578 46331
" />
<path d="M28578 47669
L27830 47669
" />
<path d="M27830 47669
L27830 46331
" />
<path d="M28578 48299
L28578 47669
" />
<path d="M12476 47669
L12476 46331
" />
<path d="M13224 47669
L12476 47669
" />
<path d="M13224 48299
L13224 47669
" />
<path d="M15980 48299
L13224 48299
" />
<path d="M15980 46094
L15980 48299
" />
<path d="M13224 46094
L15980 46094
" />
<path d="M13224 46331
L13224 46094
" />
<path d="M12476 46331
L13224 46331
" />
<path d="M6570 38850
L9484 38850
" />
<path d="M12003 43457
L19681 43457
" />
<path d="M12003 38338
L12003 32197
" />
<path d="M9484 38850
L9484 43220
" />
<path d="M19681 38338
L12003 38338
" />
<path d="M6570 32197
L6570 38850
" />
<path d="M12003 32197
L6570 32197
" />
<path d="M19681 43457
L19681 38338
" />
<path d="M27358 43457
L35035 43457
" />
<path d="M27358 38338
L27358 32197
" />
<path d="M35035 38338
L27358 38338
" />
<path d="M27358 32197
L21925 32197
" />
<path d="M35035 43457
L35035 38338
" />
<path d="M42712 43457
L50389 43457
" />
<path d="M42712 38338
L42712 32197
" />
<path d="M50389 38338
L42712 38338
" />
<path d="M37279 32197
L37279 38338
" />
<path d="M42712 32197
L37279 32197
" />
<path d="M50389 43457
L50389 38338
" />
<path d="M58066 43457
L65744 43457
" />
<path d="M58066 38338
L58066 32197
" />
<path d="M65744 38338
L58066 38338
" />
<path d="M52633 32197
L52633 38338
" />
<path d="M58066 32197
L52633 32197
" />
<path d="M65744 43457
L65744 38338
" />
<path d="M73421 49362
L73421 44047
" />
<path d="M81098 49362
L73421 49362
" />
<path d="M67988 43457
L67988 49362
" />
<path d="M81098 54480
L81098 49362
" />
<path d="M58066 49362
L58066 43457
" />
<path d="M65744 49362
L58066 49362
" />
<path d="M52633 43457
L52633 49362
" />
<path d="M65744 54480
L65744 49362
" />
<path d="M37003 54480
L50389 54480
" />
<path d="M42712 49362
L42712 43457
" />
<path d="M50389 49362
L42712 49362
" />
<path d="M37279 43457
L37279 49362
" />
<path d="M50389 54480
L50389 49362
" />
<path d="M27358 49362
L27358 43457
" />
<path d="M35035 49362
L27358 49362
" />
<path d="M21925 43457
L21925 49362
" />
<path d="M35035 54480
L35035 49362
" />
<path d="M9484 49874
L9484 54480
" />
<path d="M6570 49874
L9484 49874
" />
<path d="M6570 43220
L6570 49874
" />
<path d="M9484 43220
L6570 43220
" />
<path d="M12003 49362
L12003 43457
" />
<path d="M19681 49362
L12003 49362
" />
<path d="M19681 54480
L19681 49362
" />
<path d="M9484 54480
L19681 54480
" />
<circle cx="7122.05" cy="52512.2" r="629.921" /> 
<path d="M940 54520
L940 43575
" />
<path d="M5468 54520
L940 54520
" />
<path d="M5468 49638
L5468 54520
" />
<path d="M6098 49638
L5468 49638
" />
<path d="M6098 46882
L6098 49638
" />
<path d="M5429 46882
L6098 46882
" />
<path d="M5429 43575
L5429 46882
" />
<path d="M940 43575
L5429 43575
" />
<path d="M5468 39716
L5468 38063
" />
<path d="M6807 39716
L5468 39716
" />
<path d="M6807 42394
L6807 39716
" />
<path d="M940 42551
L5389 42551
" />
<path d="M940 38063
L940 42551
" />
<path d="M5468 38063
L940 38063
" />
<path d="M6098 37197
L6098 32197
" />
<path d="M4799 37197
L6098 37197
" />
<path d="M4799 37709
L4799 37197
" />
<path d="M3539 37709
L4799 37709
" />
<path d="M3539 37039
L3539 37709
" />
<path d="M940 37039
L3539 37039
" />
<path d="M940 32197
L940 37039
" />
<path d="M6098 32197
L940 32197
" />
<path d="M87043.3 31449.2 A196.85 196.85 0.0 0 0 86846.5 31252.4 " />
<path d="M86846.5 55268.1 A196.85 196.85 0.0 0 0 87043.3 55071.3 " />
<path d="M35.4335 55071.3 A196.85 196.85 0.0 0 0 232.284 55268.1 " />
<path d="M232.284 31252.4 A196.85 196.85 0.0 0 0 35.4335 31449.2 " />
<path d="M35 55071
L35 31449
" />
<path d="M86846 55268
L232 55268
" />
<path d="M87043 31449
L87043 55071
" />
<path d="M232 31252
L86846 31252
" />
<g >
</g>
<g >
</g>
<g >
</g>
<g >
</g>
<g >
</g>
<g >
</g>
<g >
</g>
<g >
</g>
<g >
</g>
<g >
</g>
<g >
</g>
<g >
</g>
<g >
</g>
<g >
</g>
<g >
</g>
<g >
</g>
<g >
</g>
<g >
</g>
<g >
</g>
<g >
</g>
<g >
</g>
<g >
</g>
<g >
</g>
<g >
</g>
<g >
</g>
<g >
</g>
<g >
</g>
<g >
</g>
<g >
</g>
<g >
</g>
<g >
</g>
<g >
</g>
<g >
</g>
<g >
</g>
<g >
</g>
<g >
</g>
<g >
</g>
<g >
</g>
<g >
</g>
<g >
</g>
<g >
</g>
<g >
</g>
<g >
</g>
<g >
</g>
<g >
</g>
<g >
</g>
<g >
</g>
<g >
</g>
<g >
</g>
<g >
</g>
<g >
</g>
<g >
</g>
<g >
</g>
<g >
</g>
<g >
</g>
<g >
</g>
<g >
</g>
<g >
</g>
<g >
</g>
<g >
</g>
<g >
</g>
<g >
</g>
<g >
</g>
<g >
</g>
<g >
</g>
<g >
</g>
<g >
</g>
<g >
</g>
<g >
</g>
<g >
</g>
<g >
</g>
<g >
</g>
<g >
</g>
<g >
</g>
<g >
</g>
<g >
</g>
<g >
</g>
<g >
</g>
<g >
</g>
<g >
</g>
<g >
</g>
<g >
</g>
<g >
</g>
<g >
</g>
<g >
</g>
<g >
</g>
<g >
</g>
<g >
</g>
<g >
</g>
<g >
</g>
<g >
</g>
<g >
</g>
<g >
</g>
<g >
</g>
<g >
</g>
<g >
</g>
<g >
</g>
<g >
</g>
<g >
</g>
<g >
</g>
<g >
</g>
<g >
</g>
<g >
</g>
<g >
</g>
<g >
</g>
<g >
</g>
<g >
</g>
<g >
</g>
<g >
</g>
<g >
</g>
<g >
</g>
<g >
</g>
<g >
</g>
<g >
</g>
<g >
</g>
<g >
</g>
<g >
</g>
<g >
</g>
<g >
</g>
<g >
</g>
<g >
</g>
<g >
</g>
<g >
</g>
<g >
</g>
<g >
</g>
<g >
</g>
<g >
</g>
<g >
</g>
<g >
</g>
<g >
</g>
<g >
</g>
<g >
</g>
<g >
</g>
<g >
</g>
<g >
</g>
<g >
</g>
<g >
</g>
<g >
</g>
<g >
</g>
<g >
</g>
<g >
</g>
<g >
</g>
<g >
</g>
<g >
</g>
<g >
</g>
<g >
</g>
<g >
</g>
<g >
</g>
<g >
</g>
<g >
</g>
<g >
</g>
<g >
</g>
<g >
</g>
<g >
</g>
<g >
</g>
<g >
</g>
<g >
</g>
<g >
</g>
<g >
</g>
<g >
</g>
<g >
</g>
<g >
</g>
<g >
</g>
<g >
</g>
<g >
</g>
<g >
</g>
<g >
</g>
<g >
</g>
<g >
</g>
<g >
</g>
<g >
</g>
<g >
</g>
<g >
</g>
<g >
</g>
<g >
</g>
<g >
</g>
<g >
</g>
<g >
</g>
<g >
</g>
<g >
</g>
<g >
</g>
<g >
</g>
<g >
</g>
<g >
</g>
<g >
</g>
<g >
</g>
<g >
</g>
<g >
</g>
<g >
</g>
<g >
</g>
<g >
</g>
<g >
</g>
<g >
</g>
<g >
</g>
<g >
</g>
<g >
</g>
<g >
</g>
<g >
</g>
<g >
</g>
<g >
</g>
<g >
</g>
<g >
</g>
<g >
</g>
<g >
</g>
<g >
</g>
<g >
</g>
<g >
</g>
<g >
</g>
<g >
</g>
<g >
</g>
<g >
</g>
<g >
</g>
<g >
</g>
<g >
</g>
<g >
</g>
<g >
</g>
<g >
</g>
<g >
</g>
<g >
</g>
<g >
</g>
<g >
</g>
<g >
</g>
<g >
</g>
</g> 
</svg>
