<?xml version="1.0" standalone="no"?>
 <!DOCTYPE svg PUBLIC "-//W3C//DTD SVG 1.1//EN" 
 "http://www.w3.org/Graphics/SVG/1.1/DTD/svg11.dtd"> 
<svg xmlns="http://www.w3.org/2000/svg" version="1.1" 
    width="41.2699cm" height="14.0462cm" viewBox="0 0 162480 55300 ">
<title>SVG Picture created as EncoderBoard-Eco2_User.svg date 2019/07/26 15:07:44 </title>
  <desc>Picture generated by PCBNEW </desc>
<g style="fill:#000000; fill-opacity:1;stroke:#000000; stroke-opacity:1;
stroke-linecap:round; stroke-linejoin:round; "
 transform="translate(0 0) scale(1 1)">
</g>
<g style="fill:#000000; fill-opacity:0.0; 
stroke:#000000; stroke-width:-0.000393701; stroke-opacity:1; 
stroke-linecap:round; stroke-linejoin:round;">
</g>
<g style="fill:#000000; fill-opacity:0.0; 
stroke:#000000; stroke-width:70.8661; stroke-opacity:1; 
stroke-linecap:round; stroke-linejoin:round;">
<path d="M73185 49087
L68224 49087
" />
<path d="M68224 49087
L68224 43732
" />
<path d="M68224 43732
L73185 43732
" />
<path d="M73185 43732
L73185 49087
" />
<path d="M57830 49087
L52870 49087
" />
<path d="M52870 49087
L52870 43732
" />
<path d="M52870 43732
L57830 43732
" />
<path d="M57830 43732
L57830 49087
" />
<path d="M42476 49087
L37515 49087
" />
<path d="M37515 49087
L37515 43732
" />
<path d="M37515 43732
L42476 43732
" />
<path d="M42476 43732
L42476 49087
" />
<path d="M27122 49087
L22161 49087
" />
<path d="M22161 49087
L22161 43732
" />
<path d="M22161 43732
L27122 43732
" />
<path d="M27122 43732
L27122 49087
" />
<path d="M57830 38063
L52870 38063
" />
<path d="M52870 38063
L52870 32709
" />
<path d="M52870 32709
L57830 32709
" />
<path d="M57830 32709
L57830 38063
" />
<path d="M42476 38063
L37515 38063
" />
<path d="M37515 38063
L37515 32709
" />
<path d="M37515 32709
L42476 32709
" />
<path d="M42476 32709
L42476 38063
" />
<path d="M27122 38063
L22161 38063
" />
<path d="M22161 38063
L22161 32709
" />
<path d="M22161 32709
L27122 32709
" />
<path d="M27122 32709
L27122 38063
" />
<path d="M11767 38063
L6807 38063
" />
<path d="M6807 38063
L6807 32709
" />
<path d="M6807 32709
L11767 32709
" />
<path d="M11767 32709
L11767 38063
" />
<path d="M6807 43732
L11767 43732
" />
<path d="M6807 49087
L6807 43732
" />
<path d="M11767 49087
L6807 49087
" />
<path d="M11767 43732
L11767 49087
" />
<path d="M70901 38338
L9484 38338
" />
<path d="M70901 43457
L70901 38338
" />
<path d="M9484 43457
L70901 43457
" />
<path d="M9484 38338
L9484 43457
" />
<path d="M9484 54480
L86255 54480
" />
<path d="M9484 49362
L9484 54480
" />
<path d="M86255 49362
L9484 49362
" />
<path d="M86255 54480
L86255 49362
" />
<circle cx="69917.3" cy="34795.7" r="2125.98" /> 
<circle cx="83893.7" cy="42276" r="2125.98" /> 
<circle cx="79956.7" cy="41882.3" r="926.661" /> 
<circle cx="77594.5" cy="41882.3" r="926.661" /> 
<circle cx="75232.3" cy="41882.3" r="926.661" /> 
<path d="M87043 39480
L87043 32275
" />
<path d="M72673 39480
L87043 39480
" />
<path d="M72673 32275
L72673 39480
" />
<path d="M87043 32275
L72673 32275
" />
<path d="M1137 53378
L1137 49283
" />
<path d="M5232 53378
L1137 53378
" />
<path d="M5232 49283
L5232 53378
" />
<path d="M1137 49283
L5232 49283
" />
<path d="M1137 47866
L1137 43772
" />
<path d="M5232 47866
L1137 47866
" />
<path d="M5232 43772
L5232 47866
" />
<path d="M1137 43772
L5232 43772
" />
<path d="M1137 42354
L1137 38260
" />
<path d="M5232 42354
L1137 42354
" />
<path d="M5232 38260
L5232 42354
" />
<path d="M1137 38260
L5232 38260
" />
<path d="M1137 36842
L1137 32748
" />
<path d="M5232 36842
L1137 36842
" />
<path d="M5232 32748
L5232 36842
" />
<path d="M1137 32748
L5232 32748
" />
<path d="M232.284 31252.4 A196.85 196.85 0.0 0 0 35.4335 31449.2 " />
<path d="M87043.3 31449.2 A196.85 196.85 0.0 0 0 86846.5 31252.4 " />
<path d="M86846.5 55268.1 A196.85 196.85 0.0 0 0 87043.3 55071.3 " />
<path d="M35.4335 55071.3 A196.85 196.85 0.0 0 0 232.284 55268.1 " />
<path d="M35 31449
L35 55071
" />
<path d="M86846 31252
L232 31252
" />
<path d="M87043 55071
L87043 31449
" />
<path d="M232 55268
L86846 55268
" />
<circle cx="7122.05" cy="52512.2" r="629.921" /> 
<circle cx="84287.4" cy="48181.5" r="629.921" /> 
<circle cx="65389.8" cy="34008.3" r="629.921" /> 
<circle cx="35468.5" cy="34008.3" r="629.921" /> 
<circle cx="19720.5" cy="34008.3" r="629.921" /> 
<circle cx="14602.4" cy="36173.6" r="926.661" /> 
<circle cx="29956.7" cy="36173.6" r="926.661" /> 
<circle cx="45311" cy="36173.6" r="926.661" /> 
<circle cx="60665.4" cy="36173.6" r="926.661" /> 
<circle cx="76019.7" cy="47197.2" r="926.661" /> 
<circle cx="60665.4" cy="47197.2" r="926.661" /> 
<circle cx="45311" cy="47197.2" r="926.661" /> 
<circle cx="29956.7" cy="47197.2" r="926.661" /> 
<circle cx="14602.4" cy="47197.2" r="926.661" /> 
<g >
</g>
<g >
</g>
<g >
</g>
<g >
</g>
<g >
</g>
<g >
</g>
<g >
</g>
<g >
</g>
<g >
</g>
<g >
</g>
<g >
</g>
<g >
</g>
<g >
</g>
<g >
</g>
<g >
</g>
<g >
</g>
<g >
</g>
<g >
</g>
<g >
</g>
<g >
</g>
<g >
</g>
<g >
</g>
<g >
</g>
<g >
</g>
<g >
</g>
<g >
</g>
<g >
</g>
<g >
</g>
<g >
</g>
<g >
</g>
<g >
</g>
<g >
</g>
<g >
</g>
<g >
</g>
<g >
</g>
<g >
</g>
<g >
</g>
<g >
</g>
<g >
</g>
<g >
</g>
<g >
</g>
<g >
</g>
<g >
</g>
<g >
</g>
<g >
</g>
<g >
</g>
<g >
</g>
<g >
</g>
<g >
</g>
<g >
</g>
<g >
</g>
<g >
</g>
<g >
</g>
<g >
</g>
<g >
</g>
<g >
</g>
<g >
</g>
<g >
</g>
<g >
</g>
<g >
</g>
<g >
</g>
<g >
</g>
<g >
</g>
<g >
</g>
<g >
</g>
<g >
</g>
<g >
</g>
<g >
</g>
<g >
</g>
<g >
</g>
<g >
</g>
<g >
</g>
<g >
</g>
<g >
</g>
<g >
</g>
<g >
</g>
<g >
</g>
<g >
</g>
<g >
</g>
<g >
</g>
<g >
</g>
<g >
</g>
<g >
</g>
<g >
</g>
<g >
</g>
<g >
</g>
<g >
</g>
<g >
</g>
<g >
</g>
<g >
</g>
<g >
</g>
<g >
</g>
<g >
</g>
<g >
</g>
<g >
</g>
<g >
</g>
<g >
</g>
<g >
</g>
<g >
</g>
<g >
</g>
<g >
</g>
<g >
</g>
<g >
</g>
<g >
</g>
<g >
</g>
<g >
</g>
<g >
</g>
<g >
</g>
<g >
</g>
<g >
</g>
<g >
</g>
<g >
</g>
<g >
</g>
<g >
</g>
<g >
</g>
<g >
</g>
<g >
</g>
<g >
</g>
<g >
</g>
<g >
</g>
<g >
</g>
<g >
</g>
<g >
</g>
<g >
</g>
<g >
</g>
<g >
</g>
<g >
</g>
<g >
</g>
<g >
</g>
<g >
</g>
<g >
</g>
<g >
</g>
<g >
</g>
<g >
</g>
<g >
</g>
<g >
</g>
<g >
</g>
<g >
</g>
<g >
</g>
<g >
</g>
<g >
</g>
<g >
</g>
<g >
</g>
<g >
</g>
<g >
</g>
<g >
</g>
<g >
</g>
<g >
</g>
<g >
</g>
<g >
</g>
<g >
</g>
<g >
</g>
<g >
</g>
<g >
</g>
<g >
</g>
<g >
</g>
<g >
</g>
<g >
</g>
<g >
</g>
<g >
</g>
<g >
</g>
<g >
</g>
<g >
</g>
<g >
</g>
<g >
</g>
<g >
</g>
<g >
</g>
<g >
</g>
<g >
</g>
<g >
</g>
<g >
</g>
<g >
</g>
<g >
</g>
<g >
</g>
<g >
</g>
<g >
</g>
<g >
</g>
<g >
</g>
<g >
</g>
<g >
</g>
<g >
</g>
<g >
</g>
<g >
</g>
<g >
</g>
<g >
</g>
<g >
</g>
<g >
</g>
<g >
</g>
<g >
</g>
<g >
</g>
<g >
</g>
<g >
</g>
<g >
</g>
<g >
</g>
<g >
</g>
<g >
</g>
<g >
</g>
<g >
</g>
<g >
</g>
<g >
</g>
<g >
</g>
<g >
</g>
<g >
</g>
<g >
</g>
<g >
</g>
<g >
</g>
<g >
</g>
<g >
</g>
<g >
</g>
<g >
</g>
<g >
</g>
<g >
</g>
<g >
</g>
<g >
</g>
<g >
</g>
<g >
</g>
<g >
</g>
<g >
</g>
<g >
</g>
<g >
</g>
<g >
</g>
<g >
</g>
<g >
</g>
</g> 
</svg>
