<?xml version="1.0" standalone="no"?>
 <!DOCTYPE svg PUBLIC "-//W3C//DTD SVG 1.1//EN" 
 "http://www.w3.org/Graphics/SVG/1.1/DTD/svg11.dtd"> 
<svg xmlns="http://www.w3.org/2000/svg" version="1.1" 
    width="41.2699cm" height="14.0462cm" viewBox="0 0 162480 55300 ">
<title>SVG Picture created as EncoderBoard-Eco2_User.svg date 2019/07/26 19:14:24 </title>
  <desc>Picture generated by PCBNEW </desc>
<g style="fill:#000000; fill-opacity:1;stroke:#000000; stroke-opacity:1;
stroke-linecap:round; stroke-linejoin:round; "
 transform="translate(0 0) scale(1 1)">
</g>
<g style="fill:#000000; fill-opacity:0.0; 
stroke:#000000; stroke-width:-0.000393701; stroke-opacity:1; 
stroke-linecap:round; stroke-linejoin:round;">
</g>
<g style="fill:#000000; fill-opacity:0.0; 
stroke:#000000; stroke-width:70.8661; stroke-opacity:1; 
stroke-linecap:round; stroke-linejoin:round;">
<path d="M5192 53338
L1177 53338
" />
<path d="M1177 49323
L5192 49323
" />
<path d="M1177 53338
L1177 49323
" />
<path d="M5192 49323
L5192 53338
" />
<path d="M5192 47827
L1177 47827
" />
<path d="M1177 43811
L5192 43811
" />
<path d="M1177 47827
L1177 43811
" />
<path d="M5192 43811
L5192 47827
" />
<path d="M5192 42315
L1177 42315
" />
<path d="M1177 38299
L5192 38299
" />
<path d="M1177 42315
L1177 38299
" />
<path d="M5192 38299
L5192 42315
" />
<path d="M73224 49087
L68185 49087
" />
<path d="M68185 43732
L73224 43732
" />
<path d="M73224 43732
L73224 49087
" />
<path d="M68185 49087
L68185 43732
" />
<path d="M57870 49087
L52830 49087
" />
<path d="M52830 43732
L57870 43732
" />
<path d="M57870 43732
L57870 49087
" />
<path d="M52830 49087
L52830 43732
" />
<path d="M42515 49087
L37476 49087
" />
<path d="M37476 43732
L42515 43732
" />
<path d="M42515 43732
L42515 49087
" />
<path d="M37476 49087
L37476 43732
" />
<path d="M11807 49087
L6767 49087
" />
<path d="M6767 43732
L11807 43732
" />
<path d="M11807 43732
L11807 49087
" />
<path d="M6767 49087
L6767 43732
" />
<path d="M57870 38063
L52830 38063
" />
<path d="M52830 32709
L57870 32709
" />
<path d="M57870 32709
L57870 38063
" />
<path d="M52830 38063
L52830 32709
" />
<path d="M42515 38063
L37476 38063
" />
<path d="M37476 32709
L42515 32709
" />
<path d="M42515 32709
L42515 38063
" />
<path d="M37476 38063
L37476 32709
" />
<path d="M27161 38063
L22122 38063
" />
<path d="M22122 32709
L27161 32709
" />
<path d="M27161 32709
L27161 38063
" />
<path d="M22122 38063
L22122 32709
" />
<path d="M11807 38063
L6767 38063
" />
<path d="M6767 32709
L11807 32709
" />
<path d="M11807 32709
L11807 38063
" />
<path d="M6767 38063
L6767 32709
" />
<path d="M55704 43299
L55704 38496
" />
<path d="M70704 43299
L55704 43299
" />
<path d="M70704 38496
L70704 43299
" />
<path d="M55704 38496
L70704 38496
" />
<path d="M40350 43299
L40350 38496
" />
<path d="M55350 43299
L40350 43299
" />
<path d="M55350 38496
L55350 43299
" />
<path d="M40350 38496
L55350 38496
" />
<path d="M24996 43299
L24996 38496
" />
<path d="M39996 43299
L24996 43299
" />
<path d="M39996 38496
L39996 43299
" />
<path d="M24996 38496
L39996 38496
" />
<path d="M9641 43299
L9641 38496
" />
<path d="M24641 43299
L9641 43299
" />
<path d="M24641 38496
L24641 43299
" />
<path d="M9641 38496
L24641 38496
" />
<path d="M71059 54323
L71059 49520
" />
<path d="M86059 54323
L71059 54323
" />
<path d="M86059 49520
L86059 54323
" />
<path d="M71059 49520
L86059 49520
" />
<path d="M55704 54323
L55704 49520
" />
<path d="M70704 54323
L55704 54323
" />
<path d="M70704 49520
L70704 54323
" />
<path d="M55704 49520
L70704 49520
" />
<path d="M40350 54323
L40350 49520
" />
<path d="M55350 54323
L40350 54323
" />
<path d="M55350 49520
L55350 54323
" />
<path d="M40350 49520
L55350 49520
" />
<path d="M24996 54323
L24996 49520
" />
<path d="M39996 54323
L24996 54323
" />
<path d="M39996 49520
L39996 54323
" />
<path d="M24996 49520
L39996 49520
" />
<path d="M9641 54323
L9641 49520
" />
<path d="M24641 54323
L9641 54323
" />
<path d="M24641 49520
L24641 54323
" />
<path d="M9641 49520
L24641 49520
" />
<path d="M27161 49087
L22122 49087
" />
<path d="M22122 49087
L22122 43732
" />
<path d="M22122 43732
L27161 43732
" />
<path d="M27161 43732
L27161 49087
" />
<circle cx="69917.3" cy="34795.7" r="2007.87" /> 
<circle cx="83893.7" cy="42276" r="2007.87" /> 
<circle cx="79956.7" cy="41882.3" r="926.661" /> 
<circle cx="77594.5" cy="41882.3" r="926.661" /> 
<circle cx="75232.3" cy="41882.3" r="926.661" /> 
<path d="M87043 39480
L87043 32275
" />
<path d="M72673 39480
L87043 39480
" />
<path d="M72673 32275
L72673 39480
" />
<path d="M87043 32275
L72673 32275
" />
<path d="M1177 36803
L1177 32787
" />
<path d="M5192 36803
L1177 36803
" />
<path d="M5192 32787
L5192 36803
" />
<path d="M1177 32787
L5192 32787
" />
<path d="M232.284 31252.4 A196.85 196.85 0.0 0 0 35.4335 31449.2 " />
<path d="M87043.3 31449.2 A196.85 196.85 0.0 0 0 86846.5 31252.4 " />
<path d="M86846.5 55268.1 A196.85 196.85 0.0 0 0 87043.3 55071.3 " />
<path d="M35.4335 55071.3 A196.85 196.85 0.0 0 0 232.284 55268.1 " />
<path d="M35 31449
L35 55071
" />
<path d="M86846 31252
L232 31252
" />
<path d="M87043 55071
L87043 31449
" />
<path d="M232 55268
L86846 55268
" />
<circle cx="7122.05" cy="52512.2" r="629.921" /> 
<circle cx="84287.4" cy="48181.5" r="629.921" /> 
<circle cx="65389.8" cy="34008.3" r="629.921" /> 
<circle cx="35468.5" cy="34008.3" r="629.921" /> 
<circle cx="19720.5" cy="34008.3" r="629.921" /> 
<circle cx="14602.4" cy="36173.6" r="926.661" /> 
<circle cx="29956.7" cy="36173.6" r="926.661" /> 
<circle cx="45311" cy="36173.6" r="926.661" /> 
<circle cx="60665.4" cy="36173.6" r="926.661" /> 
<circle cx="76019.7" cy="47197.2" r="926.661" /> 
<circle cx="60665.4" cy="47197.2" r="926.661" /> 
<circle cx="45311" cy="47197.2" r="926.661" /> 
<circle cx="29956.7" cy="47197.2" r="926.661" /> 
<circle cx="14602.4" cy="47197.2" r="926.661" /> 
<g >
</g>
<g >
</g>
<g >
</g>
<g >
</g>
<g >
</g>
<g >
</g>
<g >
</g>
<g >
</g>
<g >
</g>
<g >
</g>
<g >
</g>
<g >
</g>
<g >
</g>
<g >
</g>
<g >
</g>
<g >
</g>
<g >
</g>
<g >
</g>
<g >
</g>
<g >
</g>
<g >
</g>
<g >
</g>
<g >
</g>
<g >
</g>
<g >
</g>
<g >
</g>
<g >
</g>
<g >
</g>
<g >
</g>
<g >
</g>
<g >
</g>
<g >
</g>
<g >
</g>
<g >
</g>
<g >
</g>
<g >
</g>
<g >
</g>
<g >
</g>
<g >
</g>
<g >
</g>
<g >
</g>
<g >
</g>
<g >
</g>
<g >
</g>
<g >
</g>
<g >
</g>
<g >
</g>
<g >
</g>
<g >
</g>
<g >
</g>
<g >
</g>
<g >
</g>
<g >
</g>
<g >
</g>
<g >
</g>
<g >
</g>
<g >
</g>
<g >
</g>
<g >
</g>
<g >
</g>
<g >
</g>
<g >
</g>
<g >
</g>
<g >
</g>
<g >
</g>
<g >
</g>
<g >
</g>
<g >
</g>
<g >
</g>
<g >
</g>
<g >
</g>
<g >
</g>
<g >
</g>
<g >
</g>
<g >
</g>
<g >
</g>
<g >
</g>
<g >
</g>
<g >
</g>
<g >
</g>
<g >
</g>
<g >
</g>
<g >
</g>
<g >
</g>
<g >
</g>
<g >
</g>
<g >
</g>
<g >
</g>
<g >
</g>
<g >
</g>
<g >
</g>
<g >
</g>
<g >
</g>
<g >
</g>
<g >
</g>
<g >
</g>
<g >
</g>
<g >
</g>
<g >
</g>
<g >
</g>
<g >
</g>
<g >
</g>
<g >
</g>
<g >
</g>
<g >
</g>
<g >
</g>
<g >
</g>
<g >
</g>
<g >
</g>
<g >
</g>
<g >
</g>
<g >
</g>
<g >
</g>
<g >
</g>
<g >
</g>
<g >
</g>
<g >
</g>
<g >
</g>
<g >
</g>
<g >
</g>
<g >
</g>
<g >
</g>
<g >
</g>
<g >
</g>
<g >
</g>
<g >
</g>
<g >
</g>
<g >
</g>
<g >
</g>
<g >
</g>
<g >
</g>
<g >
</g>
<g >
</g>
<g >
</g>
<g >
</g>
<g >
</g>
<g >
</g>
<g >
</g>
<g >
</g>
<g >
</g>
<g >
</g>
<g >
</g>
<g >
</g>
<g >
</g>
<g >
</g>
<g >
</g>
<g >
</g>
<g >
</g>
<g >
</g>
<g >
</g>
<g >
</g>
<g >
</g>
<g >
</g>
<g >
</g>
<g >
</g>
<g >
</g>
<g >
</g>
<g >
</g>
<g >
</g>
<g >
</g>
<g >
</g>
<g >
</g>
<g >
</g>
<g >
</g>
<g >
</g>
<g >
</g>
<g >
</g>
<g >
</g>
<g >
</g>
<g >
</g>
<g >
</g>
<g >
</g>
<g >
</g>
<g >
</g>
<g >
</g>
<g >
</g>
<g >
</g>
<g >
</g>
<g >
</g>
<g >
</g>
<g >
</g>
<g >
</g>
<g >
</g>
<g >
</g>
<g >
</g>
<g >
</g>
<g >
</g>
<g >
</g>
<g >
</g>
<g >
</g>
<g >
</g>
<g >
</g>
<g >
</g>
<g >
</g>
<g >
</g>
<g >
</g>
<g >
</g>
<g >
</g>
<g >
</g>
<g >
</g>
<g >
</g>
<g >
</g>
<g >
</g>
<g >
</g>
<g >
</g>
<g >
</g>
<g >
</g>
<g >
</g>
<g >
</g>
<g >
</g>
<g >
</g>
<g >
</g>
<g >
</g>
<g >
</g>
<g >
</g>
<g >
</g>
<g >
</g>
<g >
</g>
<g >
</g>
<g >
</g>
<g >
</g>
<g >
</g>
<g >
</g>
</g> 
</svg>
