<?xml version="1.0" standalone="no"?>
 <!DOCTYPE svg PUBLIC "-//W3C//DTD SVG 1.1//EN" 
 "http://www.w3.org/Graphics/SVG/1.1/DTD/svg11.dtd"> 
<svg xmlns="http://www.w3.org/2000/svg" version="1.1" 
    width="41.2699cm" height="14.0462cm" viewBox="0 0 162480 55300 ">
<title>SVG Picture created as EncoderBoard-Margin.svg date 2019/07/26 15:07:45 </title>
  <desc>Picture generated by PCBNEW </desc>
<g style="fill:#000000; fill-opacity:1;stroke:#000000; stroke-opacity:1;
stroke-linecap:round; stroke-linejoin:round; "
 transform="translate(0 0) scale(1 1)">
</g>
<g style="fill:#000000; fill-opacity:0.0; 
stroke:#000000; stroke-width:-0.000393701; stroke-opacity:1; 
stroke-linecap:round; stroke-linejoin:round;">
</g>
<g style="fill:#000000; fill-opacity:0.0; 
stroke:#000000; stroke-width:70.8661; stroke-opacity:1; 
stroke-linecap:round; stroke-linejoin:round;">
<path d="M86846.5 55268.1 A196.85 196.85 0.0 0 0 87043.3 55071.3 " />
<path d="M87043.3 31449.2 A196.85 196.85 0.0 0 0 86846.5 31252.4 " />
<path d="M232.284 31252.4 A196.85 196.85 0.0 0 0 35.4335 31449.2 " />
<path d="M35.4335 55071.3 A196.85 196.85 0.0 0 0 232.284 55268.1 " />
<path d="M35 55071
L35 31449
" />
<path d="M86846 55268
L232 55268
" />
<path d="M87043 31449
L87043 55071
" />
<path d="M232 31252
L86846 31252
" />
<circle cx="7122.05" cy="52512.2" r="629.921" /> 
<circle cx="19720.5" cy="34008.3" r="629.921" /> 
<circle cx="35468.5" cy="34008.3" r="629.921" /> 
<circle cx="65389.8" cy="34008.3" r="629.921" /> 
<circle cx="84287.4" cy="48181.5" r="629.921" /> 
<circle cx="74248" cy="35898" r="393.701" /> 
<path d="M5232 49283
L5232 53378
" />
<path d="M5232 53378
L1137 53378
" />
<path d="M1137 49283
L5232 49283
" />
<path d="M1137 53378
L1137 49283
" />
<path d="M5232 43772
L5232 47866
" />
<path d="M5232 47866
L1137 47866
" />
<path d="M1137 43772
L5232 43772
" />
<path d="M1137 47866
L1137 43772
" />
<path d="M5232 38260
L5232 42354
" />
<path d="M5232 42354
L1137 42354
" />
<path d="M1137 38260
L5232 38260
" />
<path d="M1137 42354
L1137 38260
" />
<path d="M1137 36842
L1137 32748
" />
<path d="M5232 36842
L1137 36842
" />
<path d="M5232 32748
L5232 36842
" />
<path d="M1137 32748
L5232 32748
" />
<circle cx="69917.3" cy="34795.7" r="2125.98" /> 
<circle cx="83893.7" cy="42276" r="2125.98" /> 
<circle cx="55350.4" cy="35386.2" r="1417.32" /> 
<circle cx="39996.1" cy="35386.2" r="1417.32" /> 
<circle cx="24641.7" cy="35386.2" r="1417.32" /> 
<circle cx="9287.4" cy="35386.2" r="1417.32" /> 
<circle cx="70704.7" cy="46409.8" r="1417.32" /> 
<circle cx="55350.4" cy="46409.8" r="1417.32" /> 
<circle cx="39996.1" cy="46409.8" r="1417.32" /> 
<circle cx="24641.7" cy="46409.8" r="1417.32" /> 
<circle cx="9287.4" cy="46409.8" r="1417.32" /> 
<g >
</g>
<g >
</g>
<g >
</g>
<g >
</g>
<g >
</g>
<g >
</g>
<g >
</g>
<g >
</g>
<g >
</g>
<g >
</g>
<g >
</g>
<g >
</g>
<g >
</g>
<g >
</g>
<g >
</g>
<g >
</g>
<g >
</g>
<g >
</g>
<g >
</g>
<g >
</g>
<g >
</g>
<g >
</g>
<g >
</g>
<g >
</g>
<g >
</g>
<g >
</g>
<g >
</g>
<g >
</g>
<g >
</g>
<g >
</g>
<g >
</g>
<g >
</g>
<g >
</g>
<g >
</g>
<g >
</g>
<g >
</g>
<g >
</g>
<g >
</g>
<g >
</g>
<g >
</g>
<g >
</g>
<g >
</g>
<g >
</g>
<g >
</g>
<g >
</g>
<g >
</g>
<g >
</g>
<g >
</g>
<g >
</g>
<g >
</g>
<g >
</g>
<g >
</g>
<g >
</g>
<g >
</g>
<g >
</g>
<g >
</g>
<g >
</g>
<g >
</g>
<g >
</g>
<g >
</g>
<g >
</g>
<g >
</g>
<g >
</g>
<g >
</g>
<g >
</g>
<g >
</g>
<g >
</g>
<g >
</g>
<g >
</g>
<g >
</g>
<g >
</g>
<g >
</g>
<g >
</g>
<g >
</g>
<g >
</g>
<g >
</g>
<g >
</g>
<g >
</g>
<g >
</g>
<g >
</g>
<g >
</g>
<g >
</g>
<g >
</g>
<g >
</g>
<g >
</g>
<g >
</g>
<g >
</g>
<g >
</g>
<g >
</g>
<g >
</g>
<g >
</g>
<g >
</g>
<g >
</g>
<g >
</g>
<g >
</g>
<g >
</g>
<g >
</g>
<g >
</g>
<g >
</g>
<g >
</g>
<g >
</g>
<g >
</g>
<g >
</g>
<g >
</g>
<g >
</g>
<g >
</g>
<g >
</g>
<g >
</g>
<g >
</g>
<g >
</g>
<g >
</g>
<g >
</g>
<g >
</g>
<g >
</g>
<g >
</g>
<g >
</g>
<g >
</g>
<g >
</g>
<g >
</g>
<g >
</g>
<g >
</g>
<g >
</g>
<g >
</g>
<g >
</g>
<g >
</g>
<g >
</g>
<g >
</g>
<g >
</g>
<g >
</g>
<g >
</g>
<g >
</g>
<g >
</g>
<g >
</g>
<g >
</g>
<g >
</g>
<g >
</g>
<g >
</g>
<g >
</g>
<g >
</g>
<g >
</g>
<g >
</g>
<g >
</g>
<g >
</g>
<g >
</g>
<g >
</g>
<g >
</g>
<g >
</g>
<g >
</g>
<g >
</g>
<g >
</g>
<g >
</g>
<g >
</g>
<g >
</g>
<g >
</g>
<g >
</g>
<g >
</g>
<g >
</g>
<g >
</g>
<g >
</g>
<g >
</g>
<g >
</g>
<g >
</g>
<g >
</g>
<g >
</g>
<g >
</g>
<g >
</g>
<g >
</g>
<g >
</g>
<g >
</g>
<g >
</g>
<g >
</g>
<g >
</g>
<g >
</g>
<g >
</g>
<g >
</g>
<g >
</g>
<g >
</g>
<g >
</g>
<g >
</g>
<g >
</g>
<g >
</g>
<g >
</g>
<g >
</g>
<g >
</g>
<g >
</g>
<g >
</g>
<g >
</g>
<g >
</g>
<g >
</g>
<g >
</g>
<g >
</g>
<g >
</g>
<g >
</g>
<g >
</g>
<g >
</g>
<g >
</g>
<g >
</g>
<g >
</g>
<g >
</g>
<g >
</g>
<g >
</g>
<g >
</g>
<g >
</g>
<g >
</g>
<g >
</g>
<g >
</g>
<g >
</g>
<g >
</g>
<g >
</g>
<g >
</g>
<g >
</g>
<g >
</g>
<g >
</g>
<g >
</g>
<g >
</g>
<g >
</g>
<g >
</g>
<g >
</g>
<g >
</g>
<g >
</g>
<g >
</g>
<g >
</g>
<g >
</g>
</g> 
</svg>
