<?xml version="1.0" standalone="no"?>
 <!DOCTYPE svg PUBLIC "-//W3C//DTD SVG 1.1//EN" 
 "http://www.w3.org/Graphics/SVG/1.1/DTD/svg11.dtd"> 
<svg xmlns="http://www.w3.org/2000/svg" version="1.1" 
    width="29.7002cm" height="21.0007cm" viewBox="0 0 116930 82680 ">
<title>SVG Picture created as EncoderBoard-Eco1_User.svg date 2019/07/27 16:14:19 </title>
  <desc>Picture generated by PCBNEW </desc>
<g style="fill:#000000; fill-opacity:1;stroke:#000000; stroke-opacity:1;
stroke-linecap:round; stroke-linejoin:round; "
 transform="translate(0 0) scale(1 1)">
</g>
<g style="fill:#000000; fill-opacity:0.0; 
stroke:#000000; stroke-width:-0.000393701; stroke-opacity:1; 
stroke-linecap:round; stroke-linejoin:round;">
</g>
<g style="fill:#000000; fill-opacity:0.0; 
stroke:#000000; stroke-width:70.8661; stroke-opacity:1; 
stroke-linecap:round; stroke-linejoin:round;">
<path d="M102716 37795
L102716 42913
" />
<path d="M105905 37795
L102716 37795
" />
<path d="M105905 42913
L105905 37795
" />
<path d="M102716 42913
L105905 42913
" />
</g>
<g style="fill:#000000; fill-opacity:0.0; 
stroke:#000000; stroke-width:39.3701; stroke-opacity:1; 
stroke-linecap:round; stroke-linejoin:round;">
</g>
<g style="fill:#000000; fill-opacity:1.0; 
stroke:#000000; stroke-width:39.3701; stroke-opacity:1; 
stroke-linecap:round; stroke-linejoin:round;">
<path style="fill:#000000; fill-opacity:1.0; 
stroke:#000000; stroke-width:39.3701; stroke-opacity:1; 
stroke-linecap:round; stroke-linejoin:round;fill-rule:evenodd;"
d="M 102716,42913
100748,42913
100748,37795
102716,37795
Z" /> 
<path style="fill:#000000; fill-opacity:1.0; 
stroke:#000000; stroke-width:39.3701; stroke-opacity:1; 
stroke-linecap:round; stroke-linejoin:round;fill-rule:evenodd;"
d="M 87362,31889
85393,31889
85393,26771
87362,26771
Z" /> 
<path style="fill:#000000; fill-opacity:1.0; 
stroke:#000000; stroke-width:39.3701; stroke-opacity:1; 
stroke-linecap:round; stroke-linejoin:round;fill-rule:evenodd;"
d="M 72007,31889
70039,31889
70039,26771
72007,26771
Z" /> 
<path style="fill:#000000; fill-opacity:1.0; 
stroke:#000000; stroke-width:39.3701; stroke-opacity:1; 
stroke-linecap:round; stroke-linejoin:round;fill-rule:evenodd;"
d="M 56653,31889
54685,31889
54685,26771
56653,26771
Z" /> 
<path style="fill:#000000; fill-opacity:1.0; 
stroke:#000000; stroke-width:39.3701; stroke-opacity:1; 
stroke-linecap:round; stroke-linejoin:round;fill-rule:evenodd;"
d="M 41299,31889
39330,31889
39330,26771
41299,26771
Z" /> 
<path style="fill:#000000; fill-opacity:1.0; 
stroke:#000000; stroke-width:39.3701; stroke-opacity:1; 
stroke-linecap:round; stroke-linejoin:round;fill-rule:evenodd;"
d="M 87362,42913
85393,42913
85393,37795
87362,37795
Z" /> 
<path style="fill:#000000; fill-opacity:1.0; 
stroke:#000000; stroke-width:39.3701; stroke-opacity:1; 
stroke-linecap:round; stroke-linejoin:round;fill-rule:evenodd;"
d="M 72007,42913
70039,42913
70039,37795
72007,37795
Z" /> 
<path style="fill:#000000; fill-opacity:1.0; 
stroke:#000000; stroke-width:39.3701; stroke-opacity:1; 
stroke-linecap:round; stroke-linejoin:round;fill-rule:evenodd;"
d="M 56653,42913
54685,42913
54685,37795
56653,37795
Z" /> 
<path style="fill:#000000; fill-opacity:1.0; 
stroke:#000000; stroke-width:39.3701; stroke-opacity:1; 
stroke-linecap:round; stroke-linejoin:round;fill-rule:evenodd;"
d="M 41299,42913
39330,42913
39330,37795
41299,37795
Z" /> 
</g>
<g style="fill:#000000; fill-opacity:1.0; 
stroke:#000000; stroke-width:70.8661; stroke-opacity:1; 
stroke-linecap:round; stroke-linejoin:round;">
</g>
<g style="fill:#000000; fill-opacity:0.0; 
stroke:#000000; stroke-width:70.8661; stroke-opacity:1; 
stroke-linecap:round; stroke-linejoin:round;">
<path d="M41574 20629
L41574 26771
" />
<path d="M25039 30826
L26456 30826
" />
<path d="M25039 30984
L25039 30826
" />
<path d="M87401 26771
L87401 31889
" />
<path d="M87401 31889
L87637 31889
" />
<path d="M72283 26771
L72007 26771
" />
<path d="M72007 26771
L72007 31889
" />
<path d="M72007 31889
L72283 31889
" />
<path d="M56929 26771
L56653 26771
" />
<path d="M56653 26771
L56653 31889
" />
<path d="M56653 31889
L56929 31889
" />
<path d="M41574 26771
L41299 26771
" />
<path d="M41299 26771
L41299 31889
" />
<path d="M41299 31889
L41574 31889
" />
<path d="M87637 37795
L87362 37795
" />
<path d="M87362 37795
L87362 42913
" />
<path d="M87362 42913
L100748 42913
" />
<path d="M72283 37795
L72007 37795
" />
<path d="M72007 37795
L72007 42913
" />
<path d="M72007 42913
L85393 42913
" />
<path d="M41574 37795
L41299 37795
" />
<path d="M41299 37795
L41299 42913
" />
<path d="M41299 42913
L54685 42913
" />
<path d="M56653 37795
L56653 42913
" />
<path d="M56929 37795
L56653 37795
" />
<circle cx="103937" cy="36614.2" r="629.921" /> 
<circle cx="85039.4" cy="22440.9" r="629.921" /> 
<circle cx="55118.1" cy="22440.9" r="629.921" /> 
<circle cx="39370.1" cy="22440.9" r="629.921" /> 
<path d="M101299 33858
L101299 28464
" />
<path d="M105787 33858
L101299 33858
" />
<path d="M105787 28464
L105787 33858
" />
<path d="M101299 28464
L105787 28464
" />
<path d="M92322 20708
L92322 25708
" />
<path d="M106692 20708
L92322 20708
" />
<path d="M106692 20708
L106692 19881
" />
<path d="M95078 27913
L106692 27913
" />
<path d="M87322 24960
L89251 24960
" />
<path d="M87322 20984
L87322 24960
" />
<path d="M89842 20984
L87322 20984
" />
<path d="M89842 21417
L89842 20984
" />
<path d="M91338 21417
L89842 21417
" />
<path d="M91338 22047
L91338 21417
" />
<path d="M91850 22047
L91338 22047
" />
<path d="M91850 24960
L91850 22047
" />
<path d="M89842 24960
L91850 24960
" />
<path d="M89842 25472
L89842 24960
" />
<path d="M89251 25472
L89842 25472
" />
<path d="M89251 24960
L89251 25472
" />
<path d="M86535 26771
L86535 25787
" />
<path d="M87401 26771
L86535 26771
" />
<path d="M100078 32480
L93070 32480
" />
<path d="M100078 31692
L100078 32480
" />
<path d="M100708 31692
L100078 31692
" />
<path d="M100708 28937
L100708 31692
" />
<path d="M95078 28937
L100708 28937
" />
<path d="M95078 27913
L95078 28937
" />
<path d="M91535 25708
L92322 25708
" />
<path d="M91535 25787
L91535 25708
" />
<path d="M86535 25787
L91535 25787
" />
<path d="M86181 34173
L86181 37401
" />
<path d="M85551 32086
L85551 34173
" />
<path d="M83110 33937
L82913 33937
" />
<path d="M83110 37401
L83110 33937
" />
<path d="M85551 34173
L86181 34173
" />
<path d="M82913 33937
L82913 32086
" />
<path d="M86181 37401
L83110 37401
" />
<path d="M82913 32086
L85551 32086
" />
<path d="M55472 34173
L55472 37440
" />
<path d="M54842 34173
L55472 34173
" />
<path d="M54842 32125
L54842 34173
" />
<path d="M52244 32125
L54842 32125
" />
<path d="M52244 33937
L52244 32125
" />
<path d="M52440 33937
L52244 33937
" />
<path d="M52440 37440
L52440 33937
" />
<path d="M55472 37440
L52440 37440
" />
<path d="M82480 24133
L82480 25472
" />
<path d="M81692 24133
L82480 24133
" />
<path d="M78937 23503
L81692 23503
" />
<path d="M78937 25708
L78937 23503
" />
<path d="M81692 25708
L78937 25708
" />
<path d="M81692 23503
L81692 24133
" />
<path d="M82480 25472
L81692 25472
" />
<path d="M81692 25472
L81692 25708
" />
<path d="M67125 24133
L67125 25472
" />
<path d="M66338 24133
L67125 24133
" />
<path d="M63582 23503
L66338 23503
" />
<path d="M63582 25708
L63582 23503
" />
<path d="M66338 25708
L63582 25708
" />
<path d="M66338 23503
L66338 24133
" />
<path d="M67125 25472
L66338 25472
" />
<path d="M66338 25472
L66338 25708
" />
<path d="M51771 24133
L51771 25472
" />
<path d="M50984 24133
L51771 24133
" />
<path d="M48228 23503
L50984 23503
" />
<path d="M48228 25708
L48228 23503
" />
<path d="M50984 25708
L48228 25708
" />
<path d="M50984 23503
L50984 24133
" />
<path d="M51771 25472
L50984 25472
" />
<path d="M50984 25472
L50984 25708
" />
<path d="M35629 25472
L35629 25708
" />
<path d="M36417 25472
L35629 25472
" />
<path d="M36417 24133
L36417 25472
" />
<path d="M35629 24133
L36417 24133
" />
<path d="M35629 25708
L32874 25708
" />
<path d="M35629 23503
L35629 24133
" />
<path d="M32874 23503
L35629 23503
" />
<path d="M32874 25708
L32874 23503
" />
<path d="M97047 36732
L94291 36732
" />
<path d="M97047 34527
L97047 36732
" />
<path d="M94291 34527
L97047 34527
" />
<path d="M94291 34763
L94291 34527
" />
<path d="M93543 34763
L94291 34763
" />
<path d="M94291 36102
L93543 36102
" />
<path d="M93543 36102
L93543 34763
" />
<path d="M94291 36732
L94291 36102
" />
<path d="M81692 36732
L78937 36732
" />
<path d="M81692 34527
L81692 36732
" />
<path d="M78937 34527
L81692 34527
" />
<path d="M78937 34763
L78937 34527
" />
<path d="M78188 34763
L78937 34763
" />
<path d="M78937 36102
L78188 36102
" />
<path d="M78188 36102
L78188 34763
" />
<path d="M78937 36732
L78937 36102
" />
<path d="M66338 36732
L63582 36732
" />
<path d="M66338 34527
L66338 36732
" />
<path d="M63582 34527
L66338 34527
" />
<path d="M63582 34763
L63582 34527
" />
<path d="M62834 34763
L63582 34763
" />
<path d="M63582 36102
L62834 36102
" />
<path d="M62834 36102
L62834 34763
" />
<path d="M63582 36732
L63582 36102
" />
<path d="M50984 36732
L48228 36732
" />
<path d="M50984 34527
L50984 36732
" />
<path d="M48228 34527
L50984 34527
" />
<path d="M48228 34763
L48228 34527
" />
<path d="M47480 34763
L48228 34763
" />
<path d="M48228 36102
L47480 36102
" />
<path d="M47480 36102
L47480 34763
" />
<path d="M48228 36732
L48228 36102
" />
<path d="M32125 36102
L32125 34763
" />
<path d="M32874 36102
L32125 36102
" />
<path d="M32874 36732
L32874 36102
" />
<path d="M35629 36732
L32874 36732
" />
<path d="M35629 34527
L35629 36732
" />
<path d="M32874 34527
L35629 34527
" />
<path d="M32874 34763
L32874 34527
" />
<path d="M32125 34763
L32874 34763
" />
<path d="M26220 27283
L29133 27283
" />
<path d="M31653 31889
L39330 31889
" />
<path d="M31653 26771
L31653 20629
" />
<path d="M29133 27283
L29133 31653
" />
<path d="M39330 26771
L31653 26771
" />
<path d="M26220 20629
L26220 27283
" />
<path d="M31653 20629
L26220 20629
" />
<path d="M39330 31889
L39330 26771
" />
<path d="M47007 31889
L54685 31889
" />
<path d="M47007 26771
L47007 20629
" />
<path d="M54685 26771
L47007 26771
" />
<path d="M47007 20629
L41574 20629
" />
<path d="M54685 31889
L54685 26771
" />
<path d="M62362 31889
L70039 31889
" />
<path d="M62362 26771
L62362 20629
" />
<path d="M70039 26771
L62362 26771
" />
<path d="M56929 20629
L56929 26771
" />
<path d="M62362 20629
L56929 20629
" />
<path d="M70039 31889
L70039 26771
" />
<path d="M77716 31889
L85393 31889
" />
<path d="M77716 26771
L77716 20629
" />
<path d="M85393 26771
L77716 26771
" />
<path d="M72283 20629
L72283 26771
" />
<path d="M77716 20629
L72283 20629
" />
<path d="M85393 31889
L85393 26771
" />
<path d="M93070 37795
L93070 32480
" />
<path d="M100748 37795
L93070 37795
" />
<path d="M87637 31889
L87637 37795
" />
<path d="M100748 42913
L100748 37795
" />
<path d="M77716 37795
L77716 31889
" />
<path d="M85393 37795
L77716 37795
" />
<path d="M72283 31889
L72283 37795
" />
<path d="M85393 42913
L85393 37795
" />
<path d="M56653 42913
L70039 42913
" />
<path d="M62362 37795
L62362 31889
" />
<path d="M70039 37795
L62362 37795
" />
<path d="M56929 31889
L56929 37795
" />
<path d="M70039 42913
L70039 37795
" />
<path d="M47007 37795
L47007 31889
" />
<path d="M54685 37795
L47007 37795
" />
<path d="M41574 31889
L41574 37795
" />
<path d="M54685 42913
L54685 37795
" />
<path d="M29133 38307
L29133 42913
" />
<path d="M26220 38307
L29133 38307
" />
<path d="M26220 31653
L26220 38307
" />
<path d="M29133 31653
L26220 31653
" />
<path d="M31653 37795
L31653 31889
" />
<path d="M39330 37795
L31653 37795
" />
<path d="M39330 42913
L39330 37795
" />
<path d="M29133 42913
L39330 42913
" />
<circle cx="26771.7" cy="40944.9" r="629.921" /> 
<path d="M20590 42952
L20590 32007
" />
<path d="M25118 42952
L20590 42952
" />
<path d="M25118 38070
L25118 42952
" />
<path d="M25748 38070
L25118 38070
" />
<path d="M25748 35314
L25748 38070
" />
<path d="M25078 35314
L25748 35314
" />
<path d="M25078 32007
L25078 35314
" />
<path d="M20590 32007
L25078 32007
" />
<path d="M25118 28149
L25118 26496
" />
<path d="M26456 28149
L25118 28149
" />
<path d="M26456 30826
L26456 28149
" />
<path d="M20590 30984
L25039 30984
" />
<path d="M20590 26496
L20590 30984
" />
<path d="M25118 26496
L20590 26496
" />
<path d="M25748 25629
L25748 20629
" />
<path d="M24448 25629
L25748 25629
" />
<path d="M24448 26141
L24448 25629
" />
<path d="M23188 26141
L24448 26141
" />
<path d="M23188 25472
L23188 26141
" />
<path d="M20590 25472
L23188 25472
" />
<path d="M20590 20629
L20590 25472
" />
<path d="M25748 20629
L20590 20629
" />
<path d="M106693 19881.9 A196.85 196.85 0.0 0 0 106496 19685 " />
<path d="M106496 43700.8 A196.85 196.85 0.0 0 0 106693 43503.9 " />
<path d="M19685 43503.9 A196.85 196.85 0.0 0 0 19881.9 43700.8 " />
<path d="M19881.9 19685 A196.85 196.85 0.0 0 0 19685 19881.9 " />
<path d="M19685 43503
L19685 19881
" />
<path d="M106496 43700
L19881 43700
" />
<path d="M106692 27913
L106692 43503
" />
<path d="M19881 19685
L106496 19685
" />
<g >
</g>
<g >
</g>
<g >
</g>
<g >
</g>
<g >
</g>
<g >
</g>
<g >
</g>
<g >
</g>
<g >
</g>
<g >
</g>
<g >
</g>
<g >
</g>
<g >
</g>
<g >
</g>
<g >
</g>
<g >
</g>
<g >
</g>
<g >
</g>
<g >
</g>
<g >
</g>
<g >
</g>
<g >
</g>
<g >
</g>
<g >
</g>
<g >
</g>
<g >
</g>
<g >
</g>
<g >
</g>
<g >
</g>
<g >
</g>
<g >
</g>
<g >
</g>
<g >
</g>
<g >
</g>
<g >
</g>
<g >
</g>
<g >
</g>
<g >
</g>
<g >
</g>
<g >
</g>
<g >
</g>
<g >
</g>
<g >
</g>
<g >
</g>
<g >
</g>
<g >
</g>
<g >
</g>
<g >
</g>
<g >
</g>
<g >
</g>
<g >
</g>
<g >
</g>
<g >
</g>
<g >
</g>
<g >
</g>
<g >
</g>
<g >
</g>
<g >
</g>
<g >
</g>
<g >
</g>
<g >
</g>
<g >
</g>
<g >
</g>
<g >
</g>
<g >
</g>
<g >
</g>
<g >
</g>
<g >
</g>
<g >
</g>
<g >
</g>
<g >
</g>
<g >
</g>
<g >
</g>
<g >
</g>
<g >
</g>
<g >
</g>
<g >
</g>
<g >
</g>
<g >
</g>
<g >
</g>
<g >
</g>
<g >
</g>
<g >
</g>
<g >
</g>
<g >
</g>
<g >
</g>
<g >
</g>
<g >
</g>
<g >
</g>
<g >
</g>
<g >
</g>
<g >
</g>
<g >
</g>
<g >
</g>
<g >
</g>
<g >
</g>
<g >
</g>
<g >
</g>
<g >
</g>
<g >
</g>
<g >
</g>
<g >
</g>
<g >
</g>
<g >
</g>
<g >
</g>
<g >
</g>
<g >
</g>
<g >
</g>
<g >
</g>
<g >
</g>
<g >
</g>
<g >
</g>
<g >
</g>
<g >
</g>
<g >
</g>
<g >
</g>
<g >
</g>
<g >
</g>
<g >
</g>
<g >
</g>
<g >
</g>
<g >
</g>
<g >
</g>
<g >
</g>
<g >
</g>
<g >
</g>
<g >
</g>
<g >
</g>
<g >
</g>
<g >
</g>
<g >
</g>
<g >
</g>
<g >
</g>
<g >
</g>
<g >
</g>
<g >
</g>
<g >
</g>
<g >
</g>
<g >
</g>
<g >
</g>
<g >
</g>
<g >
</g>
<g >
</g>
<g >
</g>
<g >
</g>
<g >
</g>
<g >
</g>
<g >
</g>
<g >
</g>
<g >
</g>
<g >
</g>
<g >
</g>
<g >
</g>
<g >
</g>
<g >
</g>
<g >
</g>
<g >
</g>
<g >
</g>
<g >
</g>
<g >
</g>
<g >
</g>
<g >
</g>
<g >
</g>
<g >
</g>
<g >
</g>
<g >
</g>
<g >
</g>
<g >
</g>
<g >
</g>
<g >
</g>
<g >
</g>
<g >
</g>
<g >
</g>
<g >
</g>
<g >
</g>
<g >
</g>
<g >
</g>
<g >
</g>
<g >
</g>
<g >
</g>
<g >
</g>
<g >
</g>
<g >
</g>
<g >
</g>
<g >
</g>
<g >
</g>
<g >
</g>
<g >
</g>
<g >
</g>
<g >
</g>
<g >
</g>
<g >
</g>
<g >
</g>
<g >
</g>
<g >
</g>
<g >
</g>
<g >
</g>
<g >
</g>
<g >
</g>
<g >
</g>
<g >
</g>
<g >
</g>
<g >
</g>
<g >
</g>
<g >
</g>
<g >
</g>
<g >
</g>
<g >
</g>
<g >
</g>
<g >
</g>
<g >
</g>
<g >
</g>
<g >
</g>
<g >
</g>
<g >
</g>
<g >
</g>
<g >
</g>
<g >
</g>
<g >
</g>
<g >
</g>
<g >
</g>
<g >
</g>
<g >
</g>
</g> 
</svg>
