<?xml version="1.0" standalone="no"?>
 <!DOCTYPE svg PUBLIC "-//W3C//DTD SVG 1.1//EN" 
 "http://www.w3.org/Graphics/SVG/1.1/DTD/svg11.dtd"> 
<svg xmlns="http://www.w3.org/2000/svg" version="1.1" 
    width="29.7002cm" height="21.0007cm" viewBox="0 0 116930 82680 ">
<title>SVG Picture created as EncoderBoard-Eco2_User.svg date 2019/07/27 16:14:19 </title>
  <desc>Picture generated by PCBNEW </desc>
<g style="fill:#000000; fill-opacity:1;stroke:#000000; stroke-opacity:1;
stroke-linecap:round; stroke-linejoin:round; "
 transform="translate(0 0) scale(1 1)">
</g>
<g style="fill:#000000; fill-opacity:0.0; 
stroke:#000000; stroke-width:-0.000393701; stroke-opacity:1; 
stroke-linecap:round; stroke-linejoin:round;">
</g>
<g style="fill:#000000; fill-opacity:0.0; 
stroke:#000000; stroke-width:70.8661; stroke-opacity:1; 
stroke-linecap:round; stroke-linejoin:round;">
<circle cx="94094.5" cy="24330.7" r="474.078" /> 
<path d="M24842 41771
L20826 41771
" />
<path d="M20826 37755
L24842 37755
" />
<path d="M20826 41771
L20826 37755
" />
<path d="M24842 37755
L24842 41771
" />
<path d="M24842 36259
L20826 36259
" />
<path d="M20826 32244
L24842 32244
" />
<path d="M20826 36259
L20826 32244
" />
<path d="M24842 32244
L24842 36259
" />
<path d="M24842 30748
L20826 30748
" />
<path d="M20826 26732
L24842 26732
" />
<path d="M20826 30748
L20826 26732
" />
<path d="M24842 26732
L24842 30748
" />
<path d="M92874 37519
L87834 37519
" />
<path d="M87834 32165
L92874 32165
" />
<path d="M92874 32165
L92874 37519
" />
<path d="M87834 37519
L87834 32165
" />
<path d="M77519 37519
L72480 37519
" />
<path d="M72480 32165
L77519 32165
" />
<path d="M77519 32165
L77519 37519
" />
<path d="M72480 37519
L72480 32165
" />
<path d="M62165 37519
L57125 37519
" />
<path d="M57125 32165
L62165 32165
" />
<path d="M62165 32165
L62165 37519
" />
<path d="M57125 37519
L57125 32165
" />
<path d="M31456 37519
L26417 37519
" />
<path d="M26417 32165
L31456 32165
" />
<path d="M31456 32165
L31456 37519
" />
<path d="M26417 37519
L26417 32165
" />
<path d="M77519 26496
L72480 26496
" />
<path d="M72480 21141
L77519 21141
" />
<path d="M77519 21141
L77519 26496
" />
<path d="M72480 26496
L72480 21141
" />
<path d="M62165 26496
L57125 26496
" />
<path d="M57125 21141
L62165 21141
" />
<path d="M62165 21141
L62165 26496
" />
<path d="M57125 26496
L57125 21141
" />
<path d="M46811 26496
L41771 26496
" />
<path d="M41771 21141
L46811 21141
" />
<path d="M46811 21141
L46811 26496
" />
<path d="M41771 26496
L41771 21141
" />
<path d="M31456 26496
L26417 26496
" />
<path d="M26417 21141
L31456 21141
" />
<path d="M31456 21141
L31456 26496
" />
<path d="M26417 26496
L26417 21141
" />
<path d="M75354 31732
L75354 26929
" />
<path d="M90354 31732
L75354 31732
" />
<path d="M90354 26929
L90354 31732
" />
<path d="M75354 26929
L90354 26929
" />
<path d="M60000 31732
L60000 26929
" />
<path d="M75000 31732
L60000 31732
" />
<path d="M75000 26929
L75000 31732
" />
<path d="M60000 26929
L75000 26929
" />
<path d="M44645 31732
L44645 26929
" />
<path d="M59645 31732
L44645 31732
" />
<path d="M59645 26929
L59645 31732
" />
<path d="M44645 26929
L59645 26929
" />
<path d="M29291 31732
L29291 26929
" />
<path d="M44291 31732
L29291 31732
" />
<path d="M44291 26929
L44291 31732
" />
<path d="M29291 26929
L44291 26929
" />
<path d="M90708 42755
L90708 37952
" />
<path d="M105708 42755
L90708 42755
" />
<path d="M105708 37952
L105708 42755
" />
<path d="M90708 37952
L105708 37952
" />
<path d="M75354 42755
L75354 37952
" />
<path d="M90354 42755
L75354 42755
" />
<path d="M90354 37952
L90354 42755
" />
<path d="M75354 37952
L90354 37952
" />
<path d="M60000 42755
L60000 37952
" />
<path d="M75000 42755
L60000 42755
" />
<path d="M75000 37952
L75000 42755
" />
<path d="M60000 37952
L75000 37952
" />
<path d="M44645 42755
L44645 37952
" />
<path d="M59645 42755
L44645 42755
" />
<path d="M59645 37952
L59645 42755
" />
<path d="M44645 37952
L59645 37952
" />
<path d="M29291 42755
L29291 37952
" />
<path d="M44291 42755
L29291 42755
" />
<path d="M44291 37952
L44291 42755
" />
<path d="M29291 37952
L44291 37952
" />
<path d="M46811 37519
L41771 37519
" />
<path d="M41771 37519
L41771 32165
" />
<path d="M41771 32165
L46811 32165
" />
<path d="M46811 32165
L46811 37519
" />
<circle cx="89566.9" cy="23228.3" r="2007.87" /> 
<circle cx="103543" cy="30708.7" r="2007.87" /> 
<circle cx="99606.3" cy="30315" r="926.661" /> 
<circle cx="97244.1" cy="30315" r="926.661" /> 
<circle cx="94881.9" cy="30315" r="926.661" /> 
<path d="M106692 27913
L106692 20708
" />
<path d="M20826 25236
L20826 21220
" />
<path d="M24842 25236
L20826 25236
" />
<path d="M24842 21220
L24842 25236
" />
<path d="M20826 21220
L24842 21220
" />
<path d="M19881.9 19685 A196.85 196.85 0.0 0 0 19685 19881.9 " />
<path d="M106693 19881.9 A196.85 196.85 0.0 0 0 106496 19685 " />
<path d="M106496 43700.8 A196.85 196.85 0.0 0 0 106693 43503.9 " />
<path d="M19685 43503.9 A196.85 196.85 0.0 0 0 19881.9 43700.8 " />
<path d="M19685 19881
L19685 43503
" />
<path d="M106496 19685
L19881 19685
" />
<path d="M106692 43503
L106692 19881
" />
<path d="M19881 43700
L106496 43700
" />
<circle cx="26771.7" cy="40944.9" r="629.921" /> 
<circle cx="103937" cy="36614.2" r="629.921" /> 
<circle cx="85039.4" cy="22440.9" r="629.921" /> 
<circle cx="55118.1" cy="22440.9" r="629.921" /> 
<circle cx="39370.1" cy="22440.9" r="629.921" /> 
<circle cx="34252" cy="24606.3" r="926.661" /> 
<circle cx="49606.3" cy="24606.3" r="926.661" /> 
<circle cx="64960.6" cy="24606.3" r="926.661" /> 
<circle cx="80315" cy="24606.3" r="926.661" /> 
<circle cx="95669.3" cy="35629.9" r="926.661" /> 
<circle cx="80315" cy="35629.9" r="926.661" /> 
<circle cx="64960.6" cy="35629.9" r="926.661" /> 
<circle cx="49606.3" cy="35629.9" r="926.661" /> 
<circle cx="34252" cy="35629.9" r="926.661" /> 
<g >
</g>
<g >
</g>
<g >
</g>
<g >
</g>
<g >
</g>
<g >
</g>
<g >
</g>
<g >
</g>
<g >
</g>
<g >
</g>
<g >
</g>
<g >
</g>
<g >
</g>
<g >
</g>
<g >
</g>
<g >
</g>
<g >
</g>
<g >
</g>
<g >
</g>
<g >
</g>
<g >
</g>
<g >
</g>
<g >
</g>
<g >
</g>
<g >
</g>
<g >
</g>
<g >
</g>
<g >
</g>
<g >
</g>
<g >
</g>
<g >
</g>
<g >
</g>
<g >
</g>
<g >
</g>
<g >
</g>
<g >
</g>
<g >
</g>
<g >
</g>
<g >
</g>
<g >
</g>
<g >
</g>
<g >
</g>
<g >
</g>
<g >
</g>
<g >
</g>
<g >
</g>
<g >
</g>
<g >
</g>
<g >
</g>
<g >
</g>
<g >
</g>
<g >
</g>
<g >
</g>
<g >
</g>
<g >
</g>
<g >
</g>
<g >
</g>
<g >
</g>
<g >
</g>
<g >
</g>
<g >
</g>
<g >
</g>
<g >
</g>
<g >
</g>
<g >
</g>
<g >
</g>
<g >
</g>
<g >
</g>
<g >
</g>
<g >
</g>
<g >
</g>
<g >
</g>
<g >
</g>
<g >
</g>
<g >
</g>
<g >
</g>
<g >
</g>
<g >
</g>
<g >
</g>
<g >
</g>
<g >
</g>
<g >
</g>
<g >
</g>
<g >
</g>
<g >
</g>
<g >
</g>
<g >
</g>
<g >
</g>
<g >
</g>
<g >
</g>
<g >
</g>
<g >
</g>
<g >
</g>
<g >
</g>
<g >
</g>
<g >
</g>
<g >
</g>
<g >
</g>
<g >
</g>
<g >
</g>
<g >
</g>
<g >
</g>
<g >
</g>
<g >
</g>
<g >
</g>
<g >
</g>
<g >
</g>
<g >
</g>
<g >
</g>
<g >
</g>
<g >
</g>
<g >
</g>
<g >
</g>
<g >
</g>
<g >
</g>
<g >
</g>
<g >
</g>
<g >
</g>
<g >
</g>
<g >
</g>
<g >
</g>
<g >
</g>
<g >
</g>
<g >
</g>
<g >
</g>
<g >
</g>
<g >
</g>
<g >
</g>
<g >
</g>
<g >
</g>
<g >
</g>
<g >
</g>
<g >
</g>
<g >
</g>
<g >
</g>
<g >
</g>
<g >
</g>
<g >
</g>
<g >
</g>
<g >
</g>
<g >
</g>
<g >
</g>
<g >
</g>
<g >
</g>
<g >
</g>
<g >
</g>
<g >
</g>
<g >
</g>
<g >
</g>
<g >
</g>
<g >
</g>
<g >
</g>
<g >
</g>
<g >
</g>
<g >
</g>
<g >
</g>
<g >
</g>
<g >
</g>
<g >
</g>
<g >
</g>
<g >
</g>
<g >
</g>
<g >
</g>
<g >
</g>
<g >
</g>
<g >
</g>
<g >
</g>
<g >
</g>
<g >
</g>
<g >
</g>
<g >
</g>
<g >
</g>
<g >
</g>
<g >
</g>
<g >
</g>
<g >
</g>
<g >
</g>
<g >
</g>
<g >
</g>
<g >
</g>
<g >
</g>
<g >
</g>
<g >
</g>
<g >
</g>
<g >
</g>
<g >
</g>
<g >
</g>
<g >
</g>
<g >
</g>
<g >
</g>
<g >
</g>
<g >
</g>
<g >
</g>
<g >
</g>
<g >
</g>
<g >
</g>
<g >
</g>
<g >
</g>
<g >
</g>
<g >
</g>
<g >
</g>
<g >
</g>
<g >
</g>
<g >
</g>
<g >
</g>
<g >
</g>
<g >
</g>
<g >
</g>
<g >
</g>
<g >
</g>
<g >
</g>
<g >
</g>
<g >
</g>
<g >
</g>
<g >
</g>
<g >
</g>
<g >
</g>
<g >
</g>
<g >
</g>
<g >
</g>
<g >
</g>
<g >
</g>
<g >
</g>
</g> 
</svg>
