<?xml version="1.0" standalone="no"?>
 <!DOCTYPE svg PUBLIC "-//W3C//DTD SVG 1.1//EN" 
 "http://www.w3.org/Graphics/SVG/1.1/DTD/svg11.dtd"> 
<svg xmlns="http://www.w3.org/2000/svg" version="1.1" 
    width="41.2699cm" height="14.0462cm" viewBox="0 0 162480 55300 ">
<title>SVG Picture created as EncoderBoard-brd.svg date 2019/07/27 16:01:21 </title>
  <desc>Picture generated by PCBNEW </desc>
<g style="fill:#000000; fill-opacity:1;stroke:#000000; stroke-opacity:1;
stroke-linecap:round; stroke-linejoin:round; "
 transform="translate(0 0) scale(1 1)">
</g>
<g style="fill:#000000; fill-opacity:0.0; 
stroke:#000000; stroke-width:-0.000393701; stroke-opacity:1; 
stroke-linecap:round; stroke-linejoin:round;">
</g>
<g style="fill:#C2C2C2; fill-opacity:0.0; 
stroke:#C2C2C2; stroke-width:-0.000393701; stroke-opacity:1; 
stroke-linecap:round; stroke-linejoin:round;">
</g>
<g style="fill:#C2C2C2; fill-opacity:0.0; 
stroke:#C2C2C2; stroke-width:70.8661; stroke-opacity:1; 
stroke-linecap:round; stroke-linejoin:round;">
<path d="M86846.5 55268.1 A196.85 196.85 0.0 0 0 87043.3 55071.3 " />
<path d="M87043.3 31449.2 A196.85 196.85 0.0 0 0 86846.5 31252.4 " />
<path d="M232.284 31252.4 A196.85 196.85 0.0 0 0 35.4335 31449.2 " />
<path d="M35.4335 55071.3 A196.85 196.85 0.0 0 0 232.284 55268.1 " />
<circle cx="7122.05" cy="52512.2" r="629.921" /> 
<circle cx="19720.5" cy="34008.3" r="629.921" /> 
<circle cx="35468.5" cy="34008.3" r="629.921" /> 
<circle cx="65389.8" cy="34008.3" r="629.921" /> 
<circle cx="84287.4" cy="48181.5" r="629.921" /> 
<path d="M35 55071
L35 31449
" />
<path d="M86846 55268
L232 55268
" />
<path d="M87043 31449
L87043 55071
" />
<path d="M232 31252
L86846 31252
" />
<g >
</g>
<g >
</g>
<g >
</g>
<g >
</g>
<g >
</g>
<g >
</g>
<g >
</g>
<g >
</g>
<g >
</g>
<g >
</g>
<g >
</g>
<g >
</g>
<g >
</g>
<g >
</g>
<g >
</g>
<g >
</g>
<g >
</g>
<g >
</g>
<g >
</g>
<g >
</g>
<g >
</g>
<g >
</g>
<g >
</g>
<g >
</g>
<g >
</g>
<g >
</g>
<g >
</g>
<g >
</g>
<g >
</g>
<g >
</g>
<g >
</g>
<g >
</g>
<g >
</g>
<g >
</g>
<g >
</g>
<g >
</g>
<g >
</g>
<g >
</g>
<g >
</g>
<g >
</g>
<g >
</g>
<g >
</g>
<g >
</g>
<g >
</g>
<g >
</g>
<g >
</g>
<g >
</g>
<g >
</g>
<g >
</g>
<g >
</g>
<g >
</g>
<g >
</g>
<g >
</g>
<g >
</g>
<g >
</g>
<g >
</g>
<g >
</g>
<g >
</g>
<g >
</g>
<g >
</g>
<g >
</g>
<g >
</g>
<g >
</g>
<g >
</g>
<g >
</g>
<g >
</g>
<g >
</g>
<g >
</g>
<g >
</g>
<g >
</g>
<g >
</g>
<g >
</g>
<g >
</g>
<g >
</g>
<g >
</g>
<g >
</g>
<g >
</g>
<g >
</g>
<g >
</g>
<g >
</g>
<g >
</g>
<g >
</g>
<g >
</g>
<g >
</g>
<g >
</g>
<g >
</g>
<g >
</g>
<g >
</g>
<g >
</g>
<g >
</g>
<g >
</g>
<g >
</g>
<g >
</g>
<g >
</g>
<g >
</g>
<g >
</g>
<g >
</g>
<g >
</g>
<g >
</g>
<g >
</g>
<g >
</g>
<g >
</g>
<g >
</g>
<g >
</g>
<g >
</g>
<g >
</g>
<g >
</g>
<g >
</g>
<g >
</g>
<g >
</g>
<g >
</g>
<g >
</g>
<g >
</g>
<g >
</g>
<g >
</g>
<g >
</g>
<g >
</g>
<g >
</g>
<g >
</g>
<g >
</g>
<g >
</g>
<g >
</g>
<g >
</g>
<g >
</g>
<g >
</g>
<g >
</g>
<g >
</g>
<g >
</g>
<g >
</g>
<g >
</g>
<g >
</g>
<g >
</g>
<g >
</g>
<g >
</g>
<g >
</g>
<g >
</g>
<g >
</g>
<g >
</g>
<g >
</g>
<g >
</g>
<g >
</g>
<g >
</g>
<g >
</g>
<g >
</g>
<g >
</g>
<g >
</g>
<g >
</g>
<g >
</g>
<g >
</g>
<g >
</g>
<g >
</g>
<g >
</g>
<g >
</g>
<g >
</g>
<g >
</g>
<g >
</g>
<g >
</g>
<g >
</g>
<g >
</g>
<g >
</g>
<g >
</g>
<g >
</g>
<g >
</g>
<g >
</g>
<g >
</g>
<g >
</g>
<g >
</g>
<g >
</g>
<g >
</g>
<g >
</g>
<g >
</g>
<g >
</g>
<g >
</g>
<g >
</g>
<g >
</g>
<g >
</g>
<g >
</g>
<g >
</g>
<g >
</g>
<g >
</g>
<g >
</g>
<g >
</g>
<g >
</g>
<g >
</g>
<g >
</g>
<g >
</g>
<g >
</g>
<g >
</g>
<g >
</g>
<g >
</g>
<g >
</g>
<g >
</g>
<g >
</g>
<g >
</g>
<g >
</g>
<g >
</g>
<g >
</g>
<g >
</g>
<g >
</g>
<g >
</g>
<g >
</g>
<g >
</g>
<g >
</g>
<g >
</g>
<g >
</g>
<g >
</g>
<g >
</g>
<g >
</g>
<g >
</g>
<g >
</g>
<g >
</g>
<g >
</g>
<g >
</g>
<g >
</g>
<g >
</g>
<g >
</g>
<g >
</g>
<g >
</g>
<g >
</g>
<g >
</g>
<g >
</g>
<g >
</g>
<g >
</g>
</g>
<g style="fill:#000000; fill-opacity:0.0; 
stroke:#000000; stroke-width:70.8661; stroke-opacity:1; 
stroke-linecap:round; stroke-linejoin:round;">
</g>
<g style="fill:#96FFBE; fill-opacity:0.0; 
stroke:#96FFBE; stroke-width:70.8661; stroke-opacity:1; 
stroke-linecap:round; stroke-linejoin:round;">
<path d="M232.284 31252.4 A196.85 196.85 0.0 0 0 35.4335 31449.2 " />
<path d="M35.4335 55071.3 A196.85 196.85 0.0 0 0 232.284 55268.1 " />
<path d="M86846.5 55268.1 A196.85 196.85 0.0 0 0 87043.3 55071.3 " />
<path d="M87043.3 31449.2 A196.85 196.85 0.0 0 0 86846.5 31252.4 " />
<path d="M35 55071
L35 31449
" />
<path d="M86846 55268
L232 55268
" />
<path d="M87043 31449
L87043 55071
" />
<path d="M232 31252
L86846 31252
" />
<path d="M74366 43693
L74366 48181
" />
<path d="M75901 43693
L74366 43693
" />
<path d="M75901 44598
L75901 43693
" />
<path d="M77279 44598
L75901 44598
" />
<path d="M77279 48181
L77279 44598
" />
<path d="M74366 48181
L77279 48181
" />
<path d="M79681 50976
L79681 53338
" />
<path d="M78775 50976
L79681 50976
" />
<path d="M78775 49716
L78775 50976
" />
<path d="M82594 49716
L78775 49716
" />
<path d="M82594 53338
L82594 49716
" />
<path d="M79681 53338
L82594 53338
" />
<path d="M82673 47354
L83972 47354
" />
<path d="M82673 48653
L82673 47354
" />
<path d="M78027 48653
L82673 48653
" />
<path d="M78027 41409
L78027 48653
" />
<path d="M82673 41409
L78027 41409
" />
<path d="M82673 45661
L82673 41409
" />
<path d="M86177 45661
L82673 45661
" />
<path d="M86177 46842
L86177 45661
" />
<path d="M83972 46842
L86177 46842
" />
<path d="M83972 47354
L83972 46842
" />
<path d="M86649 39283
L86649 38496
" />
<path d="M86649 33299
L86649 32512
" />
<path d="M86137 33299
L86649 33299
" />
<path d="M86137 38496
L86137 33299
" />
<path d="M86649 38496
L86137 38496
" />
<path d="M67751 45425
L69208 45425
" />
<path d="M69208 45425
L69208 43181
" />
<path d="M67279 41606
L67279 42945
" />
<path d="M66452 41606
L67279 41606
" />
<path d="M66452 38024
L66452 41606
" />
<path d="M67200 38024
L66452 38024
" />
<path d="M67200 36685
L67200 38024
" />
<path d="M66452 36685
L67200 36685
" />
<path d="M66452 35307
L66452 36685
" />
<path d="M63539 35307
L66452 35307
" />
<path d="M63539 37748
L63539 35307
" />
<path d="M62751 37748
L63539 37748
" />
<path d="M62751 39126
L62751 37748
" />
<path d="M63539 39126
L62751 39126
" />
<path d="M63539 42945
L63539 39126
" />
<path d="M67279 42945
L63539 42945
" />
<path d="M59208 34677
L59208 32551
" />
<path d="M62909 34677
L59208 34677
" />
<path d="M62909 32551
L62909 34677
" />
<path d="M59208 32551
L62909 32551
" />
<path d="M19523 44559
L19523 42827
" />
<path d="M14838 37315
L14838 45464
" />
<path d="M19523 37315
L18618 37315
" />
<path d="M15704 37315
L14838 37315
" />
<path d="M18618 37315
L18618 33417
" />
<path d="M18618 33417
L17240 33417
" />
<path d="M14838 45464
L15704 45464
" />
<path d="M19523 42827
L21570 42827
" />
<path d="M15704 32472
L15704 37315
" />
<path d="M15704 49244
L18618 49244
" />
<path d="M17240 32472
L15704 32472
" />
<path d="M18618 49244
L18618 44559
" />
<path d="M21570 42827
L21570 41016
" />
<path d="M19523 41016
L19523 37315
" />
<path d="M21570 41016
L19523 41016
" />
<path d="M17240 33417
L17240 32472
" />
<path d="M18618 44559
L19523 44559
" />
<path d="M15704 45464
L15704 49244
" />
<path d="M6334 34401
L7791 34401
" />
<path d="M7791 34401
L7791 32157
" />
<path d="M21688 34401
L23145 34401
" />
<path d="M23145 34401
L23145 32157
" />
<path d="M37043 34401
L38500 34401
" />
<path d="M38500 34401
L38500 32157
" />
<path d="M53854 45425
L53854 43181
" />
<path d="M52397 45425
L53854 45425
" />
<path d="M47948 32433
L46413 32433
" />
<path d="M47948 33378
L47948 32433
" />
<path d="M49326 33378
L47948 33378
" />
<path d="M49326 37275
L49326 33378
" />
<path d="M50232 37275
L49326 37275
" />
<path d="M50232 40976
L50232 37275
" />
<path d="M52279 40976
L50232 40976
" />
<path d="M52279 42787
L52279 40976
" />
<path d="M50232 42787
L52279 42787
" />
<path d="M50232 44520
L50232 42787
" />
<path d="M49326 44520
L50232 44520
" />
<path d="M49326 49205
L49326 44520
" />
<path d="M46413 49205
L49326 49205
" />
<path d="M46413 45425
L46413 49205
" />
<path d="M45547 45425
L46413 45425
" />
<path d="M45547 37275
L45547 45425
" />
<path d="M46413 37275
L45547 37275
" />
<path d="M46413 32433
L46413 37275
" />
<circle cx="7122.05" cy="52512.2" r="629.921" /> 
<circle cx="19720.5" cy="34008.3" r="629.921" /> 
<circle cx="35468.5" cy="34008.3" r="629.921" /> 
<circle cx="65389.8" cy="34008.3" r="629.921" /> 
<circle cx="84287.4" cy="48181.5" r="629.921" /> 
<path d="M72870 32512
L72870 39283
" />
<path d="M86649 32512
L72870 32512
" />
<path d="M72870 39283
L86649 39283
" />
<path d="M55350 38811
L55350 42787
" />
<path d="M58500 38811
L58303 38811
" />
<path d="M55350 42787
L58500 42787
" />
<path d="M58500 42787
L58500 38811
" />
<path d="M52397 38811
L52397 32157
" />
<path d="M55350 38811
L52397 38811
" />
<path d="M58303 32157
L58303 38811
" />
<path d="M52397 32157
L58303 32157
" />
<path d="M39996 38811
L39996 42748
" />
<path d="M43145 38811
L42948 38811
" />
<path d="M39996 42748
L43145 42748
" />
<path d="M43145 42748
L43145 38811
" />
<path d="M37043 38811
L37043 34401
" />
<path d="M39996 38811
L37043 38811
" />
<path d="M42948 32157
L42948 38811
" />
<path d="M38500 32157
L42948 32157
" />
<path d="M24641 38811
L24641 42748
" />
<path d="M27791 38811
L27594 38811
" />
<path d="M24641 42748
L27791 42748
" />
<path d="M27791 42748
L27791 38811
" />
<path d="M21688 38811
L21688 34401
" />
<path d="M24641 38811
L21688 38811
" />
<path d="M27594 32157
L27594 38811
" />
<path d="M23145 32157
L27594 32157
" />
<path d="M9287 38811
L9287 42748
" />
<path d="M12437 38811
L12240 38811
" />
<path d="M9287 42748
L12437 42748
" />
<path d="M12437 42748
L12437 38811
" />
<path d="M6334 38811
L6334 34401
" />
<path d="M9287 38811
L6334 38811
" />
<path d="M12240 32157
L12240 38811
" />
<path d="M7791 32157
L12240 32157
" />
<path d="M9287 49835
L9287 53890
" />
<path d="M12437 49835
L12240 49835
" />
<path d="M9287 53890
L12437 53890
" />
<path d="M12437 53890
L12437 49835
" />
<path d="M6334 49835
L6334 43181
" />
<path d="M9287 49835
L6334 49835
" />
<path d="M12240 43181
L12240 49835
" />
<path d="M6334 43181
L12240 43181
" />
<path d="M24641 49835
L24641 53890
" />
<path d="M27791 49835
L27594 49835
" />
<path d="M24641 53890
L27791 53890
" />
<path d="M27791 53890
L27791 49835
" />
<path d="M21688 49835
L21688 43181
" />
<path d="M24641 49835
L21688 49835
" />
<path d="M27594 43181
L27594 49835
" />
<path d="M21688 43181
L27594 43181
" />
<path d="M39996 49835
L39996 53890
" />
<path d="M43145 49835
L42948 49835
" />
<path d="M39996 53890
L43145 53890
" />
<path d="M43145 53890
L43145 49835
" />
<path d="M37043 49835
L37043 43181
" />
<path d="M39996 49835
L37043 49835
" />
<path d="M42948 43181
L42948 49835
" />
<path d="M37043 43181
L42948 43181
" />
<path d="M55350 49835
L55350 53890
" />
<path d="M58500 49835
L58303 49835
" />
<path d="M55350 53890
L58500 53890
" />
<path d="M58500 53890
L58500 49835
" />
<path d="M52397 49835
L52397 45425
" />
<path d="M55350 49835
L52397 49835
" />
<path d="M58303 43181
L58303 49835
" />
<path d="M53854 43181
L58303 43181
" />
<path d="M73854 49835
L73657 49835
" />
<path d="M73854 53890
L73854 49835
" />
<path d="M70704 53890
L73854 53890
" />
<path d="M70704 49835
L70704 53890
" />
<path d="M67751 49835
L67751 45425
" />
<path d="M70704 49835
L67751 49835
" />
<path d="M73657 43181
L73657 49835
" />
<path d="M69208 43181
L73657 43181
" />
</g>
<g style="fill:#96FFBE; fill-opacity:0.0; 
stroke:#96FFBE; stroke-width:59.0551; stroke-opacity:1; 
stroke-linecap:round; stroke-linejoin:round;">
<circle cx="19720.5" cy="34008.3" r="1259.84" /> 
<circle cx="65389.8" cy="34008.3" r="1259.84" /> 
<circle cx="84287.4" cy="48181.5" r="1259.84" /> 
<circle cx="35468.5" cy="34008.3" r="1259.84" /> 
<circle cx="7122.05" cy="52512.2" r="1259.84" /> 
<g >
</g>
<g >
</g>
<g >
</g>
<g >
</g>
<g >
</g>
<g >
</g>
<g >
</g>
<g >
</g>
<g >
</g>
<g >
</g>
<g >
</g>
<g >
</g>
<g >
</g>
<g >
</g>
<g >
</g>
<g >
</g>
<g >
</g>
<g >
</g>
<g >
</g>
<g >
</g>
<g >
</g>
<g >
</g>
<g >
</g>
<g >
</g>
<g >
</g>
<g >
</g>
<g >
</g>
<g >
</g>
<g >
</g>
<g >
</g>
<g >
</g>
<g >
</g>
<g >
</g>
<g >
</g>
<g >
</g>
<g >
</g>
<g >
</g>
<g >
</g>
<g >
</g>
<g >
</g>
<g >
</g>
<g >
</g>
<g >
</g>
<g >
</g>
<g >
</g>
<g >
</g>
<g >
</g>
<g >
</g>
<g >
</g>
<g >
</g>
<g >
</g>
<g >
</g>
<g >
</g>
<g >
</g>
<g >
</g>
<g >
</g>
<g >
</g>
<g >
</g>
<g >
</g>
<g >
</g>
<g >
</g>
<g >
</g>
<g >
</g>
<g >
</g>
<g >
</g>
<g >
</g>
<g >
</g>
<g >
</g>
<g >
</g>
<g >
</g>
<g >
</g>
<g >
</g>
<g >
</g>
<g >
</g>
<g >
</g>
<g >
</g>
<g >
</g>
<g >
</g>
<g >
</g>
<g >
</g>
<g >
</g>
<g >
</g>
<g >
</g>
<g >
</g>
<g >
</g>
<g >
</g>
<g >
</g>
<g >
</g>
<g >
</g>
<g >
</g>
<g >
</g>
<g >
</g>
<g >
</g>
<g >
</g>
<g >
</g>
<g >
</g>
<g >
</g>
<g >
</g>
<g >
</g>
<g >
</g>
<g >
</g>
<g >
</g>
<g >
</g>
<g >
</g>
<g >
</g>
<g >
</g>
<g >
</g>
<g >
</g>
<g >
</g>
<g >
</g>
<g >
</g>
<g >
</g>
<g >
</g>
<g >
</g>
<g >
</g>
<g >
</g>
<g >
</g>
<g >
</g>
<g >
</g>
<g >
</g>
<g >
</g>
<g >
</g>
<g >
</g>
<g >
</g>
<g >
</g>
<g >
</g>
<g >
</g>
<g >
</g>
<g >
</g>
<g >
</g>
<g >
</g>
<g >
</g>
<g >
</g>
<g >
</g>
<g >
</g>
<g >
</g>
<g >
</g>
<g >
</g>
<g >
</g>
<g >
</g>
<g >
</g>
<g >
</g>
<g >
</g>
<g >
</g>
<g >
</g>
<g >
</g>
<g >
</g>
<g >
</g>
<g >
</g>
<g >
</g>
<g >
</g>
<g >
</g>
<g >
</g>
<g >
</g>
<g >
</g>
<g >
</g>
<g >
</g>
<g >
</g>
<g >
</g>
<g >
</g>
<g >
</g>
<g >
</g>
<g >
</g>
<g >
</g>
<g >
</g>
<g >
</g>
<g >
</g>
<g >
</g>
<g >
</g>
<g >
</g>
<g >
</g>
<g >
</g>
<g >
</g>
<g >
</g>
<g >
</g>
<g >
</g>
<g >
</g>
<g >
</g>
<g >
</g>
<g >
</g>
<g >
</g>
<g >
</g>
<g >
</g>
<g >
</g>
<g >
</g>
<g >
</g>
<g >
</g>
<g >
</g>
<g >
</g>
<g >
</g>
<g >
</g>
<g >
</g>
<g >
</g>
<g >
</g>
<g >
</g>
<g >
</g>
<g >
</g>
<g >
</g>
<g >
</g>
<g >
</g>
<g >
</g>
<g >
</g>
<g >
</g>
<g >
</g>
<g >
</g>
<g >
</g>
<g >
</g>
<g >
</g>
<g >
</g>
<g >
</g>
<g >
</g>
<g >
</g>
<g >
</g>
<g >
</g>
<g >
</g>
<g >
</g>
<g >
</g>
<g >
</g>
<g >
</g>
<g >
</g>
<g >
</g>
<g >
</g>
<g >
</g>
</g>
<g style="fill:#000000; fill-opacity:0.0; 
stroke:#000000; stroke-width:59.0551; stroke-opacity:1; 
stroke-linecap:round; stroke-linejoin:round;">
</g>
<g style="fill:#008400; fill-opacity:0.0; 
stroke:#008400; stroke-width:59.0551; stroke-opacity:1; 
stroke-linecap:round; stroke-linejoin:round;">
</g>
<g style="fill:#008400; fill-opacity:0.0; 
stroke:#008400; stroke-width:70.8661; stroke-opacity:1; 
stroke-linecap:round; stroke-linejoin:round;">
<path d="M83066 49362
L83066 54480
" />
<path d="M86255 49362
L83066 49362
" />
<path d="M86255 54480
L86255 49362
" />
<path d="M83066 54480
L86255 54480
" />
</g>
<g style="fill:#008400; fill-opacity:0.0; 
stroke:#008400; stroke-width:39.3701; stroke-opacity:1; 
stroke-linecap:round; stroke-linejoin:round;">
</g>
<g style="fill:#008400; fill-opacity:1.0; 
stroke:#008400; stroke-width:39.3701; stroke-opacity:1; 
stroke-linecap:round; stroke-linejoin:round;">
<path style="fill:#008400; fill-opacity:1.0; 
stroke:#008400; stroke-width:39.3701; stroke-opacity:1; 
stroke-linecap:round; stroke-linejoin:round;fill-rule:evenodd;"
d="M 83066,54480
81098,54480
81098,49362
83066,49362
Z" /> 
<path style="fill:#008400; fill-opacity:1.0; 
stroke:#008400; stroke-width:39.3701; stroke-opacity:1; 
stroke-linecap:round; stroke-linejoin:round;fill-rule:evenodd;"
d="M 67712,43457
65744,43457
65744,38338
67712,38338
Z" /> 
<path style="fill:#008400; fill-opacity:1.0; 
stroke:#008400; stroke-width:39.3701; stroke-opacity:1; 
stroke-linecap:round; stroke-linejoin:round;fill-rule:evenodd;"
d="M 52358,43457
50389,43457
50389,38338
52358,38338
Z" /> 
<path style="fill:#008400; fill-opacity:1.0; 
stroke:#008400; stroke-width:39.3701; stroke-opacity:1; 
stroke-linecap:round; stroke-linejoin:round;fill-rule:evenodd;"
d="M 37003,43457
35035,43457
35035,38338
37003,38338
Z" /> 
<path style="fill:#008400; fill-opacity:1.0; 
stroke:#008400; stroke-width:39.3701; stroke-opacity:1; 
stroke-linecap:round; stroke-linejoin:round;fill-rule:evenodd;"
d="M 21649,43457
19681,43457
19681,38338
21649,38338
Z" /> 
<path style="fill:#008400; fill-opacity:1.0; 
stroke:#008400; stroke-width:39.3701; stroke-opacity:1; 
stroke-linecap:round; stroke-linejoin:round;fill-rule:evenodd;"
d="M 67712,54480
65744,54480
65744,49362
67712,49362
Z" /> 
<path style="fill:#008400; fill-opacity:1.0; 
stroke:#008400; stroke-width:39.3701; stroke-opacity:1; 
stroke-linecap:round; stroke-linejoin:round;fill-rule:evenodd;"
d="M 52358,54480
50389,54480
50389,49362
52358,49362
Z" /> 
<path style="fill:#008400; fill-opacity:1.0; 
stroke:#008400; stroke-width:39.3701; stroke-opacity:1; 
stroke-linecap:round; stroke-linejoin:round;fill-rule:evenodd;"
d="M 37003,54480
35035,54480
35035,49362
37003,49362
Z" /> 
<path style="fill:#008400; fill-opacity:1.0; 
stroke:#008400; stroke-width:39.3701; stroke-opacity:1; 
stroke-linecap:round; stroke-linejoin:round;fill-rule:evenodd;"
d="M 21649,54480
19681,54480
19681,49362
21649,49362
Z" /> 
</g>
<g style="fill:#008400; fill-opacity:1.0; 
stroke:#008400; stroke-width:70.8661; stroke-opacity:1; 
stroke-linecap:round; stroke-linejoin:round;">
</g>
<g style="fill:#008400; fill-opacity:0.0; 
stroke:#008400; stroke-width:70.8661; stroke-opacity:1; 
stroke-linecap:round; stroke-linejoin:round;">
<path d="M21925 32197
L21925 38338
" />
<path d="M5389 42394
L6807 42394
" />
<path d="M5389 42551
L5389 42394
" />
<path d="M67751 38338
L67751 43457
" />
<path d="M67751 43457
L67988 43457
" />
<path d="M52633 38338
L52358 38338
" />
<path d="M52358 38338
L52358 43457
" />
<path d="M52358 43457
L52633 43457
" />
<path d="M37279 38338
L37003 38338
" />
<path d="M37003 38338
L37003 43457
" />
<path d="M37003 43457
L37279 43457
" />
<path d="M21925 38338
L21649 38338
" />
<path d="M21649 38338
L21649 43457
" />
<path d="M21649 43457
L21925 43457
" />
<path d="M67988 49362
L67712 49362
" />
<path d="M67712 49362
L67712 54480
" />
<path d="M67712 54480
L81098 54480
" />
<path d="M52633 49362
L52358 49362
" />
<path d="M52358 49362
L52358 54480
" />
<path d="M52358 54480
L65744 54480
" />
<path d="M21925 49362
L21649 49362
" />
<path d="M21649 49362
L21649 54480
" />
<path d="M21649 54480
L35035 54480
" />
<path d="M37003 49362
L37003 54480
" />
<path d="M37279 49362
L37003 49362
" />
<circle cx="84287.4" cy="48181.5" r="629.921" /> 
<circle cx="65389.8" cy="34008.3" r="629.921" /> 
<circle cx="35468.5" cy="34008.3" r="629.921" /> 
<circle cx="19720.5" cy="34008.3" r="629.921" /> 
<path d="M81649 45425
L81649 40031
" />
<path d="M86137 45425
L81649 45425
" />
<path d="M86137 40031
L86137 45425
" />
<path d="M81649 40031
L86137 40031
" />
<path d="M72673 32275
L72673 37275
" />
<path d="M87043 32275
L72673 32275
" />
<path d="M87043 32275
L87043 31449
" />
<path d="M75429 39480
L87043 39480
" />
<path d="M67673 36527
L69602 36527
" />
<path d="M67673 32551
L67673 36527
" />
<path d="M70192 32551
L67673 32551
" />
<path d="M70192 32984
L70192 32551
" />
<path d="M71688 32984
L70192 32984
" />
<path d="M71688 33614
L71688 32984
" />
<path d="M72200 33614
L71688 33614
" />
<path d="M72200 36527
L72200 33614
" />
<path d="M70192 36527
L72200 36527
" />
<path d="M70192 37039
L70192 36527
" />
<path d="M69602 37039
L70192 37039
" />
<path d="M69602 36527
L69602 37039
" />
<path d="M66885 38338
L66885 37354
" />
<path d="M67751 38338
L66885 38338
" />
<path d="M80429 44047
L73421 44047
" />
<path d="M80429 43260
L80429 44047
" />
<path d="M81059 43260
L80429 43260
" />
<path d="M81059 40504
L81059 43260
" />
<path d="M75429 40504
L81059 40504
" />
<path d="M75429 39480
L75429 40504
" />
<path d="M71885 37275
L72673 37275
" />
<path d="M71885 37354
L71885 37275
" />
<path d="M66885 37354
L71885 37354
" />
<path d="M66531 45740
L66531 48968
" />
<path d="M65901 43653
L65901 45740
" />
<path d="M63460 45504
L63263 45504
" />
<path d="M63460 48968
L63460 45504
" />
<path d="M65901 45740
L66531 45740
" />
<path d="M63263 45504
L63263 43653
" />
<path d="M66531 48968
L63460 48968
" />
<path d="M63263 43653
L65901 43653
" />
<path d="M35822 45740
L35822 49008
" />
<path d="M35192 45740
L35822 45740
" />
<path d="M35192 43693
L35192 45740
" />
<path d="M32594 43693
L35192 43693
" />
<path d="M32594 45504
L32594 43693
" />
<path d="M32791 45504
L32594 45504
" />
<path d="M32791 49008
L32791 45504
" />
<path d="M35822 49008
L32791 49008
" />
<path d="M62830 35701
L62830 37039
" />
<path d="M62043 35701
L62830 35701
" />
<path d="M59287 35071
L62043 35071
" />
<path d="M59287 37275
L59287 35071
" />
<path d="M62043 37275
L59287 37275
" />
<path d="M62043 35071
L62043 35701
" />
<path d="M62830 37039
L62043 37039
" />
<path d="M62043 37039
L62043 37275
" />
<path d="M47476 35701
L47476 37039
" />
<path d="M46688 35701
L47476 35701
" />
<path d="M43933 35071
L46688 35071
" />
<path d="M43933 37275
L43933 35071
" />
<path d="M46688 37275
L43933 37275
" />
<path d="M46688 35071
L46688 35701
" />
<path d="M47476 37039
L46688 37039
" />
<path d="M46688 37039
L46688 37275
" />
<path d="M32122 35701
L32122 37039
" />
<path d="M31334 35701
L32122 35701
" />
<path d="M28578 35071
L31334 35071
" />
<path d="M28578 37275
L28578 35071
" />
<path d="M31334 37275
L28578 37275
" />
<path d="M31334 35071
L31334 35701
" />
<path d="M32122 37039
L31334 37039
" />
<path d="M31334 37039
L31334 37275
" />
<path d="M15980 37039
L15980 37275
" />
<path d="M16767 37039
L15980 37039
" />
<path d="M16767 35701
L16767 37039
" />
<path d="M15980 35701
L16767 35701
" />
<path d="M15980 37275
L13224 37275
" />
<path d="M15980 35071
L15980 35701
" />
<path d="M13224 35071
L15980 35071
" />
<path d="M13224 37275
L13224 35071
" />
<path d="M77397 48299
L74641 48299
" />
<path d="M77397 46094
L77397 48299
" />
<path d="M74641 46094
L77397 46094
" />
<path d="M74641 46331
L74641 46094
" />
<path d="M73893 46331
L74641 46331
" />
<path d="M74641 47669
L73893 47669
" />
<path d="M73893 47669
L73893 46331
" />
<path d="M74641 48299
L74641 47669
" />
<path d="M62043 48299
L59287 48299
" />
<path d="M62043 46094
L62043 48299
" />
<path d="M59287 46094
L62043 46094
" />
<path d="M59287 46331
L59287 46094
" />
<path d="M58539 46331
L59287 46331
" />
<path d="M59287 47669
L58539 47669
" />
<path d="M58539 47669
L58539 46331
" />
<path d="M59287 48299
L59287 47669
" />
<path d="M46688 48299
L43933 48299
" />
<path d="M46688 46094
L46688 48299
" />
<path d="M43933 46094
L46688 46094
" />
<path d="M43933 46331
L43933 46094
" />
<path d="M43185 46331
L43933 46331
" />
<path d="M43933 47669
L43185 47669
" />
<path d="M43185 47669
L43185 46331
" />
<path d="M43933 48299
L43933 47669
" />
<path d="M31334 48299
L28578 48299
" />
<path d="M31334 46094
L31334 48299
" />
<path d="M28578 46094
L31334 46094
" />
<path d="M28578 46331
L28578 46094
" />
<path d="M27830 46331
L28578 46331
" />
<path d="M28578 47669
L27830 47669
" />
<path d="M27830 47669
L27830 46331
" />
<path d="M28578 48299
L28578 47669
" />
<path d="M12476 47669
L12476 46331
" />
<path d="M13224 47669
L12476 47669
" />
<path d="M13224 48299
L13224 47669
" />
<path d="M15980 48299
L13224 48299
" />
<path d="M15980 46094
L15980 48299
" />
<path d="M13224 46094
L15980 46094
" />
<path d="M13224 46331
L13224 46094
" />
<path d="M12476 46331
L13224 46331
" />
<path d="M6570 38850
L9484 38850
" />
<path d="M12003 43457
L19681 43457
" />
<path d="M12003 38338
L12003 32197
" />
<path d="M9484 38850
L9484 43220
" />
<path d="M19681 38338
L12003 38338
" />
<path d="M6570 32197
L6570 38850
" />
<path d="M12003 32197
L6570 32197
" />
<path d="M19681 43457
L19681 38338
" />
<path d="M27358 43457
L35035 43457
" />
<path d="M27358 38338
L27358 32197
" />
<path d="M35035 38338
L27358 38338
" />
<path d="M27358 32197
L21925 32197
" />
<path d="M35035 43457
L35035 38338
" />
<path d="M42712 43457
L50389 43457
" />
<path d="M42712 38338
L42712 32197
" />
<path d="M50389 38338
L42712 38338
" />
<path d="M37279 32197
L37279 38338
" />
<path d="M42712 32197
L37279 32197
" />
<path d="M50389 43457
L50389 38338
" />
<path d="M58066 43457
L65744 43457
" />
<path d="M58066 38338
L58066 32197
" />
<path d="M65744 38338
L58066 38338
" />
<path d="M52633 32197
L52633 38338
" />
<path d="M58066 32197
L52633 32197
" />
<path d="M65744 43457
L65744 38338
" />
<path d="M73421 49362
L73421 44047
" />
<path d="M81098 49362
L73421 49362
" />
<path d="M67988 43457
L67988 49362
" />
<path d="M81098 54480
L81098 49362
" />
<path d="M58066 49362
L58066 43457
" />
<path d="M65744 49362
L58066 49362
" />
<path d="M52633 43457
L52633 49362
" />
<path d="M65744 54480
L65744 49362
" />
<path d="M37003 54480
L50389 54480
" />
<path d="M42712 49362
L42712 43457
" />
<path d="M50389 49362
L42712 49362
" />
<path d="M37279 43457
L37279 49362
" />
<path d="M50389 54480
L50389 49362
" />
<path d="M27358 49362
L27358 43457
" />
<path d="M35035 49362
L27358 49362
" />
<path d="M21925 43457
L21925 49362
" />
<path d="M35035 54480
L35035 49362
" />
<path d="M9484 49874
L9484 54480
" />
<path d="M6570 49874
L9484 49874
" />
<path d="M6570 43220
L6570 49874
" />
<path d="M9484 43220
L6570 43220
" />
<path d="M12003 49362
L12003 43457
" />
<path d="M19681 49362
L12003 49362
" />
<path d="M19681 54480
L19681 49362
" />
<path d="M9484 54480
L19681 54480
" />
<circle cx="7122.05" cy="52512.2" r="629.921" /> 
<path d="M940 54520
L940 43575
" />
<path d="M5468 54520
L940 54520
" />
<path d="M5468 49638
L5468 54520
" />
<path d="M6098 49638
L5468 49638
" />
<path d="M6098 46882
L6098 49638
" />
<path d="M5429 46882
L6098 46882
" />
<path d="M5429 43575
L5429 46882
" />
<path d="M940 43575
L5429 43575
" />
<path d="M5468 39716
L5468 38063
" />
<path d="M6807 39716
L5468 39716
" />
<path d="M6807 42394
L6807 39716
" />
<path d="M940 42551
L5389 42551
" />
<path d="M940 38063
L940 42551
" />
<path d="M5468 38063
L940 38063
" />
<path d="M6098 37197
L6098 32197
" />
<path d="M4799 37197
L6098 37197
" />
<path d="M4799 37709
L4799 37197
" />
<path d="M3539 37709
L4799 37709
" />
<path d="M3539 37039
L3539 37709
" />
<path d="M940 37039
L3539 37039
" />
<path d="M940 32197
L940 37039
" />
<path d="M6098 32197
L940 32197
" />
<path d="M87043.3 31449.2 A196.85 196.85 0.0 0 0 86846.5 31252.4 " />
<path d="M86846.5 55268.1 A196.85 196.85 0.0 0 0 87043.3 55071.3 " />
<path d="M35.4335 55071.3 A196.85 196.85 0.0 0 0 232.284 55268.1 " />
<path d="M232.284 31252.4 A196.85 196.85 0.0 0 0 35.4335 31449.2 " />
<path d="M35 55071
L35 31449
" />
<path d="M86846 55268
L232 55268
" />
<path d="M87043 39480
L87043 55071
" />
<path d="M232 31252
L86846 31252
" />
<g >
</g>
<g >
</g>
<g >
</g>
<g >
</g>
<g >
</g>
<g >
</g>
<g >
</g>
<g >
</g>
<g >
</g>
<g >
</g>
<g >
</g>
<g >
</g>
<g >
</g>
<g >
</g>
<g >
</g>
<g >
</g>
<g >
</g>
<g >
</g>
<g >
</g>
<g >
</g>
<g >
</g>
<g >
</g>
<g >
</g>
<g >
</g>
<g >
</g>
<g >
</g>
<g >
</g>
<g >
</g>
<g >
</g>
<g >
</g>
<g >
</g>
<g >
</g>
<g >
</g>
<g >
</g>
<g >
</g>
<g >
</g>
<g >
</g>
<g >
</g>
<g >
</g>
<g >
</g>
<g >
</g>
<g >
</g>
<g >
</g>
<g >
</g>
<g >
</g>
<g >
</g>
<g >
</g>
<g >
</g>
<g >
</g>
<g >
</g>
<g >
</g>
<g >
</g>
<g >
</g>
<g >
</g>
<g >
</g>
<g >
</g>
<g >
</g>
<g >
</g>
<g >
</g>
<g >
</g>
<g >
</g>
<g >
</g>
<g >
</g>
<g >
</g>
<g >
</g>
<g >
</g>
<g >
</g>
<g >
</g>
<g >
</g>
<g >
</g>
<g >
</g>
<g >
</g>
<g >
</g>
<g >
</g>
<g >
</g>
<g >
</g>
<g >
</g>
<g >
</g>
<g >
</g>
<g >
</g>
<g >
</g>
<g >
</g>
<g >
</g>
<g >
</g>
<g >
</g>
<g >
</g>
<g >
</g>
<g >
</g>
<g >
</g>
<g >
</g>
<g >
</g>
<g >
</g>
<g >
</g>
<g >
</g>
<g >
</g>
<g >
</g>
<g >
</g>
<g >
</g>
<g >
</g>
<g >
</g>
<g >
</g>
<g >
</g>
<g >
</g>
<g >
</g>
<g >
</g>
<g >
</g>
<g >
</g>
<g >
</g>
<g >
</g>
<g >
</g>
<g >
</g>
<g >
</g>
<g >
</g>
<g >
</g>
<g >
</g>
<g >
</g>
<g >
</g>
<g >
</g>
<g >
</g>
<g >
</g>
<g >
</g>
<g >
</g>
<g >
</g>
<g >
</g>
<g >
</g>
<g >
</g>
<g >
</g>
<g >
</g>
<g >
</g>
<g >
</g>
<g >
</g>
<g >
</g>
<g >
</g>
<g >
</g>
<g >
</g>
<g >
</g>
<g >
</g>
<g >
</g>
<g >
</g>
<g >
</g>
<g >
</g>
<g >
</g>
<g >
</g>
<g >
</g>
<g >
</g>
<g >
</g>
<g >
</g>
<g >
</g>
<g >
</g>
<g >
</g>
<g >
</g>
<g >
</g>
<g >
</g>
<g >
</g>
<g >
</g>
<g >
</g>
<g >
</g>
<g >
</g>
<g >
</g>
<g >
</g>
<g >
</g>
<g >
</g>
<g >
</g>
<g >
</g>
<g >
</g>
<g >
</g>
<g >
</g>
<g >
</g>
<g >
</g>
<g >
</g>
<g >
</g>
<g >
</g>
<g >
</g>
<g >
</g>
<g >
</g>
<g >
</g>
<g >
</g>
<g >
</g>
<g >
</g>
<g >
</g>
<g >
</g>
<g >
</g>
<g >
</g>
<g >
</g>
<g >
</g>
<g >
</g>
<g >
</g>
<g >
</g>
<g >
</g>
<g >
</g>
<g >
</g>
<g >
</g>
<g >
</g>
<g >
</g>
<g >
</g>
<g >
</g>
<g >
</g>
<g >
</g>
<g >
</g>
<g >
</g>
<g >
</g>
<g >
</g>
<g >
</g>
<g >
</g>
<g >
</g>
<g >
</g>
<g >
</g>
<g >
</g>
<g >
</g>
<g >
</g>
<g >
</g>
<g >
</g>
<g >
</g>
<g >
</g>
<g >
</g>
<g >
</g>
<g >
</g>
<g >
</g>
<g >
</g>
<g >
</g>
<g >
</g>
<g >
</g>
<g >
</g>
</g>
<g style="fill:#000000; fill-opacity:0.0; 
stroke:#000000; stroke-width:70.8661; stroke-opacity:1; 
stroke-linecap:round; stroke-linejoin:round;">
</g>
<g style="fill:#0F95AB; fill-opacity:0.0; 
stroke:#0F95AB; stroke-width:70.8661; stroke-opacity:1; 
stroke-linecap:round; stroke-linejoin:round;">
<circle cx="74444.9" cy="35898" r="474.078" /> 
<path d="M5192 53338
L1177 53338
" />
<path d="M1177 49323
L5192 49323
" />
<path d="M1177 53338
L1177 49323
" />
<path d="M5192 49323
L5192 53338
" />
<path d="M5192 47827
L1177 47827
" />
<path d="M1177 43811
L5192 43811
" />
<path d="M1177 47827
L1177 43811
" />
<path d="M5192 43811
L5192 47827
" />
<path d="M5192 42315
L1177 42315
" />
<path d="M1177 38299
L5192 38299
" />
<path d="M1177 42315
L1177 38299
" />
<path d="M5192 38299
L5192 42315
" />
<path d="M73224 49087
L68185 49087
" />
<path d="M68185 43732
L73224 43732
" />
<path d="M73224 43732
L73224 49087
" />
<path d="M68185 49087
L68185 43732
" />
<path d="M57870 49087
L52830 49087
" />
<path d="M52830 43732
L57870 43732
" />
<path d="M57870 43732
L57870 49087
" />
<path d="M52830 49087
L52830 43732
" />
<path d="M42515 49087
L37476 49087
" />
<path d="M37476 43732
L42515 43732
" />
<path d="M42515 43732
L42515 49087
" />
<path d="M37476 49087
L37476 43732
" />
<path d="M11807 49087
L6767 49087
" />
<path d="M6767 43732
L11807 43732
" />
<path d="M11807 43732
L11807 49087
" />
<path d="M6767 49087
L6767 43732
" />
<path d="M57870 38063
L52830 38063
" />
<path d="M52830 32709
L57870 32709
" />
<path d="M57870 32709
L57870 38063
" />
<path d="M52830 38063
L52830 32709
" />
<path d="M42515 38063
L37476 38063
" />
<path d="M37476 32709
L42515 32709
" />
<path d="M42515 32709
L42515 38063
" />
<path d="M37476 38063
L37476 32709
" />
<path d="M27161 38063
L22122 38063
" />
<path d="M22122 32709
L27161 32709
" />
<path d="M27161 32709
L27161 38063
" />
<path d="M22122 38063
L22122 32709
" />
<path d="M11807 38063
L6767 38063
" />
<path d="M6767 32709
L11807 32709
" />
<path d="M11807 32709
L11807 38063
" />
<path d="M6767 38063
L6767 32709
" />
<path d="M55704 43299
L55704 38496
" />
<path d="M70704 43299
L55704 43299
" />
<path d="M70704 38496
L70704 43299
" />
<path d="M55704 38496
L70704 38496
" />
<path d="M40350 43299
L40350 38496
" />
<path d="M55350 43299
L40350 43299
" />
<path d="M55350 38496
L55350 43299
" />
<path d="M40350 38496
L55350 38496
" />
<path d="M24996 43299
L24996 38496
" />
<path d="M39996 43299
L24996 43299
" />
<path d="M39996 38496
L39996 43299
" />
<path d="M24996 38496
L39996 38496
" />
<path d="M9641 43299
L9641 38496
" />
<path d="M24641 43299
L9641 43299
" />
<path d="M24641 38496
L24641 43299
" />
<path d="M9641 38496
L24641 38496
" />
<path d="M71059 54323
L71059 49520
" />
<path d="M86059 54323
L71059 54323
" />
<path d="M86059 49520
L86059 54323
" />
<path d="M71059 49520
L86059 49520
" />
<path d="M55704 54323
L55704 49520
" />
<path d="M70704 54323
L55704 54323
" />
<path d="M70704 49520
L70704 54323
" />
<path d="M55704 49520
L70704 49520
" />
<path d="M40350 54323
L40350 49520
" />
<path d="M55350 54323
L40350 54323
" />
<path d="M55350 49520
L55350 54323
" />
<path d="M40350 49520
L55350 49520
" />
<path d="M24996 54323
L24996 49520
" />
<path d="M39996 54323
L24996 54323
" />
<path d="M39996 49520
L39996 54323
" />
<path d="M24996 49520
L39996 49520
" />
<path d="M9641 54323
L9641 49520
" />
<path d="M24641 54323
L9641 54323
" />
<path d="M24641 49520
L24641 54323
" />
<path d="M9641 49520
L24641 49520
" />
<path d="M27161 49087
L22122 49087
" />
<path d="M22122 49087
L22122 43732
" />
<path d="M22122 43732
L27161 43732
" />
<path d="M27161 43732
L27161 49087
" />
<circle cx="69917.3" cy="34795.7" r="2007.87" /> 
<circle cx="83893.7" cy="42276" r="2007.87" /> 
<circle cx="79956.7" cy="41882.3" r="926.661" /> 
<circle cx="77594.5" cy="41882.3" r="926.661" /> 
<circle cx="75232.3" cy="41882.3" r="926.661" /> 
<path d="M87043 39480
L87043 32275
" />
<path d="M1177 36803
L1177 32787
" />
<path d="M5192 36803
L1177 36803
" />
<path d="M5192 32787
L5192 36803
" />
<path d="M1177 32787
L5192 32787
" />
<path d="M232.284 31252.4 A196.85 196.85 0.0 0 0 35.4335 31449.2 " />
<path d="M87043.3 31449.2 A196.85 196.85 0.0 0 0 86846.5 31252.4 " />
<path d="M86846.5 55268.1 A196.85 196.85 0.0 0 0 87043.3 55071.3 " />
<path d="M35.4335 55071.3 A196.85 196.85 0.0 0 0 232.284 55268.1 " />
<path d="M35 31449
L35 55071
" />
<path d="M86846 31252
L232 31252
" />
<path d="M87043 55071
L87043 31449
" />
<path d="M232 55268
L86846 55268
" />
<circle cx="7122.05" cy="52512.2" r="629.921" /> 
<circle cx="84287.4" cy="48181.5" r="629.921" /> 
<circle cx="65389.8" cy="34008.3" r="629.921" /> 
<circle cx="35468.5" cy="34008.3" r="629.921" /> 
<circle cx="19720.5" cy="34008.3" r="629.921" /> 
<circle cx="14602.4" cy="36173.6" r="926.661" /> 
<circle cx="29956.7" cy="36173.6" r="926.661" /> 
<circle cx="45311" cy="36173.6" r="926.661" /> 
<circle cx="60665.4" cy="36173.6" r="926.661" /> 
<circle cx="76019.7" cy="47197.2" r="926.661" /> 
<circle cx="60665.4" cy="47197.2" r="926.661" /> 
<circle cx="45311" cy="47197.2" r="926.661" /> 
<circle cx="29956.7" cy="47197.2" r="926.661" /> 
<circle cx="14602.4" cy="47197.2" r="926.661" /> 
<g >
</g>
<g >
</g>
<g >
</g>
<g >
</g>
<g >
</g>
<g >
</g>
<g >
</g>
<g >
</g>
<g >
</g>
<g >
</g>
<g >
</g>
<g >
</g>
<g >
</g>
<g >
</g>
<g >
</g>
<g >
</g>
<g >
</g>
<g >
</g>
<g >
</g>
<g >
</g>
<g >
</g>
<g >
</g>
<g >
</g>
<g >
</g>
<g >
</g>
<g >
</g>
<g >
</g>
<g >
</g>
<g >
</g>
<g >
</g>
<g >
</g>
<g >
</g>
<g >
</g>
<g >
</g>
<g >
</g>
<g >
</g>
<g >
</g>
<g >
</g>
<g >
</g>
<g >
</g>
<g >
</g>
<g >
</g>
<g >
</g>
<g >
</g>
<g >
</g>
<g >
</g>
<g >
</g>
<g >
</g>
<g >
</g>
<g >
</g>
<g >
</g>
<g >
</g>
<g >
</g>
<g >
</g>
<g >
</g>
<g >
</g>
<g >
</g>
<g >
</g>
<g >
</g>
<g >
</g>
<g >
</g>
<g >
</g>
<g >
</g>
<g >
</g>
<g >
</g>
<g >
</g>
<g >
</g>
<g >
</g>
<g >
</g>
<g >
</g>
<g >
</g>
<g >
</g>
<g >
</g>
<g >
</g>
<g >
</g>
<g >
</g>
<g >
</g>
<g >
</g>
<g >
</g>
<g >
</g>
<g >
</g>
<g >
</g>
<g >
</g>
<g >
</g>
<g >
</g>
<g >
</g>
<g >
</g>
<g >
</g>
<g >
</g>
<g >
</g>
<g >
</g>
<g >
</g>
<g >
</g>
<g >
</g>
<g >
</g>
<g >
</g>
<g >
</g>
<g >
</g>
<g >
</g>
<g >
</g>
<g >
</g>
<g >
</g>
<g >
</g>
<g >
</g>
<g >
</g>
<g >
</g>
<g >
</g>
<g >
</g>
<g >
</g>
<g >
</g>
<g >
</g>
<g >
</g>
<g >
</g>
<g >
</g>
<g >
</g>
<g >
</g>
<g >
</g>
<g >
</g>
<g >
</g>
<g >
</g>
<g >
</g>
<g >
</g>
<g >
</g>
<g >
</g>
<g >
</g>
<g >
</g>
<g >
</g>
<g >
</g>
<g >
</g>
<g >
</g>
<g >
</g>
<g >
</g>
<g >
</g>
<g >
</g>
<g >
</g>
<g >
</g>
<g >
</g>
<g >
</g>
<g >
</g>
<g >
</g>
<g >
</g>
<g >
</g>
<g >
</g>
<g >
</g>
<g >
</g>
<g >
</g>
<g >
</g>
<g >
</g>
<g >
</g>
<g >
</g>
<g >
</g>
<g >
</g>
<g >
</g>
<g >
</g>
<g >
</g>
<g >
</g>
<g >
</g>
<g >
</g>
<g >
</g>
<g >
</g>
<g >
</g>
<g >
</g>
<g >
</g>
<g >
</g>
<g >
</g>
<g >
</g>
<g >
</g>
<g >
</g>
<g >
</g>
<g >
</g>
<g >
</g>
<g >
</g>
<g >
</g>
<g >
</g>
<g >
</g>
<g >
</g>
<g >
</g>
<g >
</g>
<g >
</g>
<g >
</g>
<g >
</g>
<g >
</g>
<g >
</g>
<g >
</g>
<g >
</g>
<g >
</g>
<g >
</g>
<g >
</g>
<g >
</g>
<g >
</g>
<g >
</g>
<g >
</g>
<g >
</g>
<g >
</g>
<g >
</g>
<g >
</g>
<g >
</g>
<g >
</g>
<g >
</g>
<g >
</g>
<g >
</g>
<g >
</g>
<g >
</g>
<g >
</g>
<g >
</g>
<g >
</g>
<g >
</g>
<g >
</g>
<g >
</g>
<g >
</g>
<g >
</g>
<g >
</g>
<g >
</g>
<g >
</g>
<g >
</g>
<g >
</g>
<g >
</g>
<g >
</g>
<g >
</g>
<g >
</g>
<g >
</g>
<g >
</g>
<g >
</g>
</g>
<g style="fill:#000000; fill-opacity:0.0; 
stroke:#000000; stroke-width:70.8661; stroke-opacity:1; 
stroke-linecap:round; stroke-linejoin:round;">
</g>
<g style="fill:#C200C2; fill-opacity:0.0; 
stroke:#C200C2; stroke-width:70.8661; stroke-opacity:1; 
stroke-linecap:round; stroke-linejoin:round;">
<path d="M1177 49323
L5192 49323
" />
<path d="M1177 53338
L1177 49323
" />
<path d="M5192 53338
L1177 53338
" />
<path d="M5192 49323
L5192 53338
" />
<path d="M1177 43811
L5192 43811
" />
<path d="M1177 47827
L1177 43811
" />
<path d="M5192 47827
L1177 47827
" />
<path d="M5192 43811
L5192 47827
" />
<path d="M1177 38299
L5192 38299
" />
<path d="M1177 42315
L1177 38299
" />
<path d="M5192 42315
L1177 42315
" />
<path d="M5192 38299
L5192 42315
" />
<path d="M86846.5 55268.1 A196.85 196.85 0.0 0 0 87043.3 55071.3 " />
<path d="M87043.3 31449.2 A196.85 196.85 0.0 0 0 86846.5 31252.4 " />
<path d="M232.284 31252.4 A196.85 196.85 0.0 0 0 35.4335 31449.2 " />
<path d="M35.4335 55071.3 A196.85 196.85 0.0 0 0 232.284 55268.1 " />
<path d="M35 55071
L35 31449
" />
<path d="M86846 55268
L232 55268
" />
<path d="M87043 31449
L87043 55071
" />
<path d="M232 31252
L86846 31252
" />
<circle cx="7122.05" cy="52512.2" r="629.921" /> 
<circle cx="19720.5" cy="34008.3" r="629.921" /> 
<circle cx="35468.5" cy="34008.3" r="629.921" /> 
<circle cx="65389.8" cy="34008.3" r="629.921" /> 
<circle cx="84287.4" cy="48181.5" r="629.921" /> 
<circle cx="74444.9" cy="35898" r="472.441" /> 
<path d="M1177 36803
L1177 32787
" />
<path d="M5192 36803
L1177 36803
" />
<path d="M5192 32787
L5192 36803
" />
<path d="M1177 32787
L5192 32787
" />
<circle cx="69917.3" cy="34795.7" r="2007.87" /> 
<circle cx="83893.7" cy="42276" r="2007.87" /> 
<circle cx="55350.4" cy="35386.2" r="1417.32" /> 
<circle cx="39996.1" cy="35386.2" r="1417.32" /> 
<circle cx="24641.7" cy="35386.2" r="1417.32" /> 
<circle cx="9287.4" cy="35386.2" r="1417.32" /> 
<circle cx="70704.7" cy="46409.8" r="1417.32" /> 
<circle cx="55350.4" cy="46409.8" r="1417.32" /> 
<circle cx="39996.1" cy="46409.8" r="1417.32" /> 
<circle cx="24641.7" cy="46409.8" r="1417.32" /> 
<circle cx="9287.4" cy="46409.8" r="1417.32" /> 
<g >
</g>
<g >
</g>
<g >
</g>
<g >
</g>
<g >
</g>
<g >
</g>
<g >
</g>
<g >
</g>
<g >
</g>
<g >
</g>
<g >
</g>
<g >
</g>
<g >
</g>
<g >
</g>
<g >
</g>
<g >
</g>
<g >
</g>
<g >
</g>
<g >
</g>
<g >
</g>
<g >
</g>
<g >
</g>
<g >
</g>
<g >
</g>
<g >
</g>
<g >
</g>
<g >
</g>
<g >
</g>
<g >
</g>
<g >
</g>
<g >
</g>
<g >
</g>
<g >
</g>
<g >
</g>
<g >
</g>
<g >
</g>
<g >
</g>
<g >
</g>
<g >
</g>
<g >
</g>
<g >
</g>
<g >
</g>
<g >
</g>
<g >
</g>
<g >
</g>
<g >
</g>
<g >
</g>
<g >
</g>
<g >
</g>
<g >
</g>
<g >
</g>
<g >
</g>
<g >
</g>
<g >
</g>
<g >
</g>
<g >
</g>
<g >
</g>
<g >
</g>
<g >
</g>
<g >
</g>
<g >
</g>
<g >
</g>
<g >
</g>
<g >
</g>
<g >
</g>
<g >
</g>
<g >
</g>
<g >
</g>
<g >
</g>
<g >
</g>
<g >
</g>
<g >
</g>
<g >
</g>
<g >
</g>
<g >
</g>
<g >
</g>
<g >
</g>
<g >
</g>
<g >
</g>
<g >
</g>
<g >
</g>
<g >
</g>
<g >
</g>
<g >
</g>
<g >
</g>
<g >
</g>
<g >
</g>
<g >
</g>
<g >
</g>
<g >
</g>
<g >
</g>
<g >
</g>
<g >
</g>
<g >
</g>
<g >
</g>
<g >
</g>
<g >
</g>
<g >
</g>
<g >
</g>
<g >
</g>
<g >
</g>
<g >
</g>
<g >
</g>
<g >
</g>
<g >
</g>
<g >
</g>
<g >
</g>
<g >
</g>
<g >
</g>
<g >
</g>
<g >
</g>
<g >
</g>
<g >
</g>
<g >
</g>
<g >
</g>
<g >
</g>
<g >
</g>
<g >
</g>
<g >
</g>
<g >
</g>
<g >
</g>
<g >
</g>
<g >
</g>
<g >
</g>
<g >
</g>
<g >
</g>
<g >
</g>
<g >
</g>
<g >
</g>
<g >
</g>
<g >
</g>
<g >
</g>
<g >
</g>
<g >
</g>
<g >
</g>
<g >
</g>
<g >
</g>
<g >
</g>
<g >
</g>
<g >
</g>
<g >
</g>
<g >
</g>
<g >
</g>
<g >
</g>
<g >
</g>
<g >
</g>
<g >
</g>
<g >
</g>
<g >
</g>
<g >
</g>
<g >
</g>
<g >
</g>
<g >
</g>
<g >
</g>
<g >
</g>
<g >
</g>
<g >
</g>
<g >
</g>
<g >
</g>
<g >
</g>
<g >
</g>
<g >
</g>
<g >
</g>
<g >
</g>
<g >
</g>
<g >
</g>
<g >
</g>
<g >
</g>
<g >
</g>
<g >
</g>
<g >
</g>
<g >
</g>
<g >
</g>
<g >
</g>
<g >
</g>
<g >
</g>
<g >
</g>
<g >
</g>
<g >
</g>
<g >
</g>
<g >
</g>
<g >
</g>
<g >
</g>
<g >
</g>
<g >
</g>
<g >
</g>
<g >
</g>
<g >
</g>
<g >
</g>
<g >
</g>
<g >
</g>
<g >
</g>
<g >
</g>
<g >
</g>
<g >
</g>
<g >
</g>
<g >
</g>
<g >
</g>
<g >
</g>
<g >
</g>
<g >
</g>
<g >
</g>
<g >
</g>
<g >
</g>
<g >
</g>
<g >
</g>
<g >
</g>
<g >
</g>
<g >
</g>
<g >
</g>
<g >
</g>
<g >
</g>
<g >
</g>
<g >
</g>
<g >
</g>
<g >
</g>
<g >
</g>
<g >
</g>
<g >
</g>
<g >
</g>
<g >
</g>
<g >
</g>
<g >
</g>
</g> 
</svg>
