<?xml version="1.0" standalone="no"?>
 <!DOCTYPE svg PUBLIC "-//W3C//DTD SVG 1.1//EN" 
 "http://www.w3.org/Graphics/SVG/1.1/DTD/svg11.dtd"> 
<svg xmlns="http://www.w3.org/2000/svg" version="1.1" 
    width="29.7002cm" height="21.0007cm" viewBox="0 0 116930 82680 ">
<title>SVG Picture created as EncoderBoard-Margin.svg date 2019/07/27 16:14:19 </title>
  <desc>Picture generated by PCBNEW </desc>
<g style="fill:#000000; fill-opacity:1;stroke:#000000; stroke-opacity:1;
stroke-linecap:round; stroke-linejoin:round; "
 transform="translate(0 0) scale(1 1)">
</g>
<g style="fill:#000000; fill-opacity:0.0; 
stroke:#000000; stroke-width:-0.000393701; stroke-opacity:1; 
stroke-linecap:round; stroke-linejoin:round;">
</g>
<g style="fill:#000000; fill-opacity:0.0; 
stroke:#000000; stroke-width:70.8661; stroke-opacity:1; 
stroke-linecap:round; stroke-linejoin:round;">
<path d="M20826 37755
L24842 37755
" />
<path d="M20826 41771
L20826 37755
" />
<path d="M24842 41771
L20826 41771
" />
<path d="M24842 37755
L24842 41771
" />
<path d="M20826 32244
L24842 32244
" />
<path d="M20826 36259
L20826 32244
" />
<path d="M24842 36259
L20826 36259
" />
<path d="M24842 32244
L24842 36259
" />
<path d="M20826 26732
L24842 26732
" />
<path d="M20826 30748
L20826 26732
" />
<path d="M24842 30748
L20826 30748
" />
<path d="M24842 26732
L24842 30748
" />
<path d="M106496 43700.8 A196.85 196.85 0.0 0 0 106693 43503.9 " />
<path d="M106693 19881.9 A196.85 196.85 0.0 0 0 106496 19685 " />
<path d="M19881.9 19685 A196.85 196.85 0.0 0 0 19685 19881.9 " />
<path d="M19685 43503.9 A196.85 196.85 0.0 0 0 19881.9 43700.8 " />
<path d="M19685 43503
L19685 19881
" />
<path d="M106496 43700
L19881 43700
" />
<path d="M106692 19881
L106692 43503
" />
<path d="M19881 19685
L106496 19685
" />
<circle cx="26771.7" cy="40944.9" r="629.921" /> 
<circle cx="39370.1" cy="22440.9" r="629.921" /> 
<circle cx="55118.1" cy="22440.9" r="629.921" /> 
<circle cx="85039.4" cy="22440.9" r="629.921" /> 
<circle cx="103937" cy="36614.2" r="629.921" /> 
<circle cx="94094.5" cy="24330.7" r="472.441" /> 
<path d="M20826 25236
L20826 21220
" />
<path d="M24842 25236
L20826 25236
" />
<path d="M24842 21220
L24842 25236
" />
<path d="M20826 21220
L24842 21220
" />
<circle cx="89566.9" cy="23228.3" r="2007.87" /> 
<circle cx="103543" cy="30708.7" r="2007.87" /> 
<circle cx="75000" cy="23818.9" r="1417.32" /> 
<circle cx="59645.7" cy="23818.9" r="1417.32" /> 
<circle cx="44291.3" cy="23818.9" r="1417.32" /> 
<circle cx="28937" cy="23818.9" r="1417.32" /> 
<circle cx="90354.3" cy="34842.5" r="1417.32" /> 
<circle cx="75000" cy="34842.5" r="1417.32" /> 
<circle cx="59645.7" cy="34842.5" r="1417.32" /> 
<circle cx="44291.3" cy="34842.5" r="1417.32" /> 
<circle cx="28937" cy="34842.5" r="1417.32" /> 
<g >
</g>
<g >
</g>
<g >
</g>
<g >
</g>
<g >
</g>
<g >
</g>
<g >
</g>
<g >
</g>
<g >
</g>
<g >
</g>
<g >
</g>
<g >
</g>
<g >
</g>
<g >
</g>
<g >
</g>
<g >
</g>
<g >
</g>
<g >
</g>
<g >
</g>
<g >
</g>
<g >
</g>
<g >
</g>
<g >
</g>
<g >
</g>
<g >
</g>
<g >
</g>
<g >
</g>
<g >
</g>
<g >
</g>
<g >
</g>
<g >
</g>
<g >
</g>
<g >
</g>
<g >
</g>
<g >
</g>
<g >
</g>
<g >
</g>
<g >
</g>
<g >
</g>
<g >
</g>
<g >
</g>
<g >
</g>
<g >
</g>
<g >
</g>
<g >
</g>
<g >
</g>
<g >
</g>
<g >
</g>
<g >
</g>
<g >
</g>
<g >
</g>
<g >
</g>
<g >
</g>
<g >
</g>
<g >
</g>
<g >
</g>
<g >
</g>
<g >
</g>
<g >
</g>
<g >
</g>
<g >
</g>
<g >
</g>
<g >
</g>
<g >
</g>
<g >
</g>
<g >
</g>
<g >
</g>
<g >
</g>
<g >
</g>
<g >
</g>
<g >
</g>
<g >
</g>
<g >
</g>
<g >
</g>
<g >
</g>
<g >
</g>
<g >
</g>
<g >
</g>
<g >
</g>
<g >
</g>
<g >
</g>
<g >
</g>
<g >
</g>
<g >
</g>
<g >
</g>
<g >
</g>
<g >
</g>
<g >
</g>
<g >
</g>
<g >
</g>
<g >
</g>
<g >
</g>
<g >
</g>
<g >
</g>
<g >
</g>
<g >
</g>
<g >
</g>
<g >
</g>
<g >
</g>
<g >
</g>
<g >
</g>
<g >
</g>
<g >
</g>
<g >
</g>
<g >
</g>
<g >
</g>
<g >
</g>
<g >
</g>
<g >
</g>
<g >
</g>
<g >
</g>
<g >
</g>
<g >
</g>
<g >
</g>
<g >
</g>
<g >
</g>
<g >
</g>
<g >
</g>
<g >
</g>
<g >
</g>
<g >
</g>
<g >
</g>
<g >
</g>
<g >
</g>
<g >
</g>
<g >
</g>
<g >
</g>
<g >
</g>
<g >
</g>
<g >
</g>
<g >
</g>
<g >
</g>
<g >
</g>
<g >
</g>
<g >
</g>
<g >
</g>
<g >
</g>
<g >
</g>
<g >
</g>
<g >
</g>
<g >
</g>
<g >
</g>
<g >
</g>
<g >
</g>
<g >
</g>
<g >
</g>
<g >
</g>
<g >
</g>
<g >
</g>
<g >
</g>
<g >
</g>
<g >
</g>
<g >
</g>
<g >
</g>
<g >
</g>
<g >
</g>
<g >
</g>
<g >
</g>
<g >
</g>
<g >
</g>
<g >
</g>
<g >
</g>
<g >
</g>
<g >
</g>
<g >
</g>
<g >
</g>
<g >
</g>
<g >
</g>
<g >
</g>
<g >
</g>
<g >
</g>
<g >
</g>
<g >
</g>
<g >
</g>
<g >
</g>
<g >
</g>
<g >
</g>
<g >
</g>
<g >
</g>
<g >
</g>
<g >
</g>
<g >
</g>
<g >
</g>
<g >
</g>
<g >
</g>
<g >
</g>
<g >
</g>
<g >
</g>
<g >
</g>
<g >
</g>
<g >
</g>
<g >
</g>
<g >
</g>
<g >
</g>
<g >
</g>
<g >
</g>
<g >
</g>
<g >
</g>
<g >
</g>
<g >
</g>
<g >
</g>
<g >
</g>
<g >
</g>
<g >
</g>
<g >
</g>
<g >
</g>
<g >
</g>
<g >
</g>
<g >
</g>
<g >
</g>
<g >
</g>
<g >
</g>
<g >
</g>
<g >
</g>
<g >
</g>
<g >
</g>
<g >
</g>
<g >
</g>
<g >
</g>
<g >
</g>
<g >
</g>
<g >
</g>
<g >
</g>
</g> 
</svg>
