G04 #@! TF.GenerationSoftware,KiCad,Pcbnew,(5.1.6)-1*
G04 #@! TF.CreationDate,2020-09-10T04:38:29+10:00*
G04 #@! TF.ProjectId,EncoderBoard,456e636f-6465-4724-926f-6172642e6b69,C*
G04 #@! TF.SameCoordinates,Original*
G04 #@! TF.FileFunction,Paste,Bot*
G04 #@! TF.FilePolarity,Positive*
%FSLAX46Y46*%
G04 Gerber Fmt 4.6, Leading zero omitted, Abs format (unit mm)*
G04 Created by KiCad (PCBNEW (5.1.6)-1) date 2020-09-10 04:38:29*
%MOMM*%
%LPD*%
G01*
G04 APERTURE LIST*
%ADD10R,1.950000X0.600000*%
%ADD11O,1.950000X0.600000*%
%ADD12R,2.000000X0.600000*%
%ADD13O,2.000000X0.600000*%
%ADD14O,1.600000X0.300000*%
%ADD15R,1.600000X0.300000*%
G04 APERTURE END LIST*
D10*
X193975000Y-38595000D03*
D11*
X193975000Y-39865000D03*
X193975000Y-41135000D03*
X193975000Y-42405000D03*
X189025000Y-42405000D03*
X189025000Y-41135000D03*
X189025000Y-39865000D03*
X189025000Y-38595000D03*
G36*
G01*
X229425000Y-62775000D02*
X231575000Y-62775000D01*
G75*
G02*
X231825000Y-63025000I0J-250000D01*
G01*
X231825000Y-63775000D01*
G75*
G02*
X231575000Y-64025000I-250000J0D01*
G01*
X229425000Y-64025000D01*
G75*
G02*
X229175000Y-63775000I0J250000D01*
G01*
X229175000Y-63025000D01*
G75*
G02*
X229425000Y-62775000I250000J0D01*
G01*
G37*
G36*
G01*
X229425000Y-59975000D02*
X231575000Y-59975000D01*
G75*
G02*
X231825000Y-60225000I0J-250000D01*
G01*
X231825000Y-60975000D01*
G75*
G02*
X231575000Y-61225000I-250000J0D01*
G01*
X229425000Y-61225000D01*
G75*
G02*
X229175000Y-60975000I0J250000D01*
G01*
X229175000Y-60225000D01*
G75*
G02*
X229425000Y-59975000I250000J0D01*
G01*
G37*
G36*
G01*
X76043750Y-46950000D02*
X76956250Y-46950000D01*
G75*
G02*
X77200000Y-47193750I0J-243750D01*
G01*
X77200000Y-47681250D01*
G75*
G02*
X76956250Y-47925000I-243750J0D01*
G01*
X76043750Y-47925000D01*
G75*
G02*
X75800000Y-47681250I0J243750D01*
G01*
X75800000Y-47193750D01*
G75*
G02*
X76043750Y-46950000I243750J0D01*
G01*
G37*
G36*
G01*
X76043750Y-45075000D02*
X76956250Y-45075000D01*
G75*
G02*
X77200000Y-45318750I0J-243750D01*
G01*
X77200000Y-45806250D01*
G75*
G02*
X76956250Y-46050000I-243750J0D01*
G01*
X76043750Y-46050000D01*
G75*
G02*
X75800000Y-45806250I0J243750D01*
G01*
X75800000Y-45318750D01*
G75*
G02*
X76043750Y-45075000I243750J0D01*
G01*
G37*
G36*
G01*
X78425000Y-47775000D02*
X80575000Y-47775000D01*
G75*
G02*
X80825000Y-48025000I0J-250000D01*
G01*
X80825000Y-48775000D01*
G75*
G02*
X80575000Y-49025000I-250000J0D01*
G01*
X78425000Y-49025000D01*
G75*
G02*
X78175000Y-48775000I0J250000D01*
G01*
X78175000Y-48025000D01*
G75*
G02*
X78425000Y-47775000I250000J0D01*
G01*
G37*
G36*
G01*
X78425000Y-44975000D02*
X80575000Y-44975000D01*
G75*
G02*
X80825000Y-45225000I0J-250000D01*
G01*
X80825000Y-45975000D01*
G75*
G02*
X80575000Y-46225000I-250000J0D01*
G01*
X78425000Y-46225000D01*
G75*
G02*
X78175000Y-45975000I0J250000D01*
G01*
X78175000Y-45225000D01*
G75*
G02*
X78425000Y-44975000I250000J0D01*
G01*
G37*
G36*
G01*
X156543750Y-46450000D02*
X157456250Y-46450000D01*
G75*
G02*
X157700000Y-46693750I0J-243750D01*
G01*
X157700000Y-47181250D01*
G75*
G02*
X157456250Y-47425000I-243750J0D01*
G01*
X156543750Y-47425000D01*
G75*
G02*
X156300000Y-47181250I0J243750D01*
G01*
X156300000Y-46693750D01*
G75*
G02*
X156543750Y-46450000I243750J0D01*
G01*
G37*
G36*
G01*
X156543750Y-44575000D02*
X157456250Y-44575000D01*
G75*
G02*
X157700000Y-44818750I0J-243750D01*
G01*
X157700000Y-45306250D01*
G75*
G02*
X157456250Y-45550000I-243750J0D01*
G01*
X156543750Y-45550000D01*
G75*
G02*
X156300000Y-45306250I0J243750D01*
G01*
X156300000Y-44818750D01*
G75*
G02*
X156543750Y-44575000I243750J0D01*
G01*
G37*
G36*
G01*
X158925000Y-46775000D02*
X161075000Y-46775000D01*
G75*
G02*
X161325000Y-47025000I0J-250000D01*
G01*
X161325000Y-47775000D01*
G75*
G02*
X161075000Y-48025000I-250000J0D01*
G01*
X158925000Y-48025000D01*
G75*
G02*
X158675000Y-47775000I0J250000D01*
G01*
X158675000Y-47025000D01*
G75*
G02*
X158925000Y-46775000I250000J0D01*
G01*
G37*
G36*
G01*
X158925000Y-43975000D02*
X161075000Y-43975000D01*
G75*
G02*
X161325000Y-44225000I0J-250000D01*
G01*
X161325000Y-44975000D01*
G75*
G02*
X161075000Y-45225000I-250000J0D01*
G01*
X158925000Y-45225000D01*
G75*
G02*
X158675000Y-44975000I0J250000D01*
G01*
X158675000Y-44225000D01*
G75*
G02*
X158925000Y-43975000I250000J0D01*
G01*
G37*
G36*
G01*
X227043750Y-61950000D02*
X227956250Y-61950000D01*
G75*
G02*
X228200000Y-62193750I0J-243750D01*
G01*
X228200000Y-62681250D01*
G75*
G02*
X227956250Y-62925000I-243750J0D01*
G01*
X227043750Y-62925000D01*
G75*
G02*
X226800000Y-62681250I0J243750D01*
G01*
X226800000Y-62193750D01*
G75*
G02*
X227043750Y-61950000I243750J0D01*
G01*
G37*
G36*
G01*
X227043750Y-60075000D02*
X227956250Y-60075000D01*
G75*
G02*
X228200000Y-60318750I0J-243750D01*
G01*
X228200000Y-60806250D01*
G75*
G02*
X227956250Y-61050000I-243750J0D01*
G01*
X227043750Y-61050000D01*
G75*
G02*
X226800000Y-60806250I0J243750D01*
G01*
X226800000Y-60318750D01*
G75*
G02*
X227043750Y-60075000I243750J0D01*
G01*
G37*
G36*
G01*
X205450000Y-36956250D02*
X205450000Y-36043750D01*
G75*
G02*
X205693750Y-35800000I243750J0D01*
G01*
X206181250Y-35800000D01*
G75*
G02*
X206425000Y-36043750I0J-243750D01*
G01*
X206425000Y-36956250D01*
G75*
G02*
X206181250Y-37200000I-243750J0D01*
G01*
X205693750Y-37200000D01*
G75*
G02*
X205450000Y-36956250I0J243750D01*
G01*
G37*
G36*
G01*
X203575000Y-36956250D02*
X203575000Y-36043750D01*
G75*
G02*
X203818750Y-35800000I243750J0D01*
G01*
X204306250Y-35800000D01*
G75*
G02*
X204550000Y-36043750I0J-243750D01*
G01*
X204550000Y-36956250D01*
G75*
G02*
X204306250Y-37200000I-243750J0D01*
G01*
X203818750Y-37200000D01*
G75*
G02*
X203575000Y-36956250I0J243750D01*
G01*
G37*
G36*
G01*
X53543750Y-34450000D02*
X54456250Y-34450000D01*
G75*
G02*
X54700000Y-34693750I0J-243750D01*
G01*
X54700000Y-35181250D01*
G75*
G02*
X54456250Y-35425000I-243750J0D01*
G01*
X53543750Y-35425000D01*
G75*
G02*
X53300000Y-35181250I0J243750D01*
G01*
X53300000Y-34693750D01*
G75*
G02*
X53543750Y-34450000I243750J0D01*
G01*
G37*
G36*
G01*
X53543750Y-32575000D02*
X54456250Y-32575000D01*
G75*
G02*
X54700000Y-32818750I0J-243750D01*
G01*
X54700000Y-33306250D01*
G75*
G02*
X54456250Y-33550000I-243750J0D01*
G01*
X53543750Y-33550000D01*
G75*
G02*
X53300000Y-33306250I0J243750D01*
G01*
X53300000Y-32818750D01*
G75*
G02*
X53543750Y-32575000I243750J0D01*
G01*
G37*
G36*
G01*
X55543750Y-34450000D02*
X56456250Y-34450000D01*
G75*
G02*
X56700000Y-34693750I0J-243750D01*
G01*
X56700000Y-35181250D01*
G75*
G02*
X56456250Y-35425000I-243750J0D01*
G01*
X55543750Y-35425000D01*
G75*
G02*
X55300000Y-35181250I0J243750D01*
G01*
X55300000Y-34693750D01*
G75*
G02*
X55543750Y-34450000I243750J0D01*
G01*
G37*
G36*
G01*
X55543750Y-32575000D02*
X56456250Y-32575000D01*
G75*
G02*
X56700000Y-32818750I0J-243750D01*
G01*
X56700000Y-33306250D01*
G75*
G02*
X56456250Y-33550000I-243750J0D01*
G01*
X55543750Y-33550000D01*
G75*
G02*
X55300000Y-33306250I0J243750D01*
G01*
X55300000Y-32818750D01*
G75*
G02*
X55543750Y-32575000I243750J0D01*
G01*
G37*
G36*
G01*
X224550000Y-25543750D02*
X224550000Y-26456250D01*
G75*
G02*
X224306250Y-26700000I-243750J0D01*
G01*
X223818750Y-26700000D01*
G75*
G02*
X223575000Y-26456250I0J243750D01*
G01*
X223575000Y-25543750D01*
G75*
G02*
X223818750Y-25300000I243750J0D01*
G01*
X224306250Y-25300000D01*
G75*
G02*
X224550000Y-25543750I0J-243750D01*
G01*
G37*
G36*
G01*
X226425000Y-25543750D02*
X226425000Y-26456250D01*
G75*
G02*
X226181250Y-26700000I-243750J0D01*
G01*
X225693750Y-26700000D01*
G75*
G02*
X225450000Y-26456250I0J243750D01*
G01*
X225450000Y-25543750D01*
G75*
G02*
X225693750Y-25300000I243750J0D01*
G01*
X226181250Y-25300000D01*
G75*
G02*
X226425000Y-25543750I0J-243750D01*
G01*
G37*
G36*
G01*
X232550000Y-25543750D02*
X232550000Y-26456250D01*
G75*
G02*
X232306250Y-26700000I-243750J0D01*
G01*
X231818750Y-26700000D01*
G75*
G02*
X231575000Y-26456250I0J243750D01*
G01*
X231575000Y-25543750D01*
G75*
G02*
X231818750Y-25300000I243750J0D01*
G01*
X232306250Y-25300000D01*
G75*
G02*
X232550000Y-25543750I0J-243750D01*
G01*
G37*
G36*
G01*
X234425000Y-25543750D02*
X234425000Y-26456250D01*
G75*
G02*
X234181250Y-26700000I-243750J0D01*
G01*
X233693750Y-26700000D01*
G75*
G02*
X233450000Y-26456250I0J243750D01*
G01*
X233450000Y-25543750D01*
G75*
G02*
X233693750Y-25300000I243750J0D01*
G01*
X234181250Y-25300000D01*
G75*
G02*
X234425000Y-25543750I0J-243750D01*
G01*
G37*
G36*
G01*
X240550000Y-25543750D02*
X240550000Y-26456250D01*
G75*
G02*
X240306250Y-26700000I-243750J0D01*
G01*
X239818750Y-26700000D01*
G75*
G02*
X239575000Y-26456250I0J243750D01*
G01*
X239575000Y-25543750D01*
G75*
G02*
X239818750Y-25300000I243750J0D01*
G01*
X240306250Y-25300000D01*
G75*
G02*
X240550000Y-25543750I0J-243750D01*
G01*
G37*
G36*
G01*
X242425000Y-25543750D02*
X242425000Y-26456250D01*
G75*
G02*
X242181250Y-26700000I-243750J0D01*
G01*
X241693750Y-26700000D01*
G75*
G02*
X241450000Y-26456250I0J243750D01*
G01*
X241450000Y-25543750D01*
G75*
G02*
X241693750Y-25300000I243750J0D01*
G01*
X242181250Y-25300000D01*
G75*
G02*
X242425000Y-25543750I0J-243750D01*
G01*
G37*
G36*
G01*
X60550000Y-42543750D02*
X60550000Y-43456250D01*
G75*
G02*
X60306250Y-43700000I-243750J0D01*
G01*
X59818750Y-43700000D01*
G75*
G02*
X59575000Y-43456250I0J243750D01*
G01*
X59575000Y-42543750D01*
G75*
G02*
X59818750Y-42300000I243750J0D01*
G01*
X60306250Y-42300000D01*
G75*
G02*
X60550000Y-42543750I0J-243750D01*
G01*
G37*
G36*
G01*
X62425000Y-42543750D02*
X62425000Y-43456250D01*
G75*
G02*
X62181250Y-43700000I-243750J0D01*
G01*
X61693750Y-43700000D01*
G75*
G02*
X61450000Y-43456250I0J243750D01*
G01*
X61450000Y-42543750D01*
G75*
G02*
X61693750Y-42300000I243750J0D01*
G01*
X62181250Y-42300000D01*
G75*
G02*
X62425000Y-42543750I0J-243750D01*
G01*
G37*
G36*
G01*
X60550000Y-39543750D02*
X60550000Y-40456250D01*
G75*
G02*
X60306250Y-40700000I-243750J0D01*
G01*
X59818750Y-40700000D01*
G75*
G02*
X59575000Y-40456250I0J243750D01*
G01*
X59575000Y-39543750D01*
G75*
G02*
X59818750Y-39300000I243750J0D01*
G01*
X60306250Y-39300000D01*
G75*
G02*
X60550000Y-39543750I0J-243750D01*
G01*
G37*
G36*
G01*
X62425000Y-39543750D02*
X62425000Y-40456250D01*
G75*
G02*
X62181250Y-40700000I-243750J0D01*
G01*
X61693750Y-40700000D01*
G75*
G02*
X61450000Y-40456250I0J243750D01*
G01*
X61450000Y-39543750D01*
G75*
G02*
X61693750Y-39300000I243750J0D01*
G01*
X62181250Y-39300000D01*
G75*
G02*
X62425000Y-39543750I0J-243750D01*
G01*
G37*
G36*
G01*
X99550000Y-42543750D02*
X99550000Y-43456250D01*
G75*
G02*
X99306250Y-43700000I-243750J0D01*
G01*
X98818750Y-43700000D01*
G75*
G02*
X98575000Y-43456250I0J243750D01*
G01*
X98575000Y-42543750D01*
G75*
G02*
X98818750Y-42300000I243750J0D01*
G01*
X99306250Y-42300000D01*
G75*
G02*
X99550000Y-42543750I0J-243750D01*
G01*
G37*
G36*
G01*
X101425000Y-42543750D02*
X101425000Y-43456250D01*
G75*
G02*
X101181250Y-43700000I-243750J0D01*
G01*
X100693750Y-43700000D01*
G75*
G02*
X100450000Y-43456250I0J243750D01*
G01*
X100450000Y-42543750D01*
G75*
G02*
X100693750Y-42300000I243750J0D01*
G01*
X101181250Y-42300000D01*
G75*
G02*
X101425000Y-42543750I0J-243750D01*
G01*
G37*
G36*
G01*
X99550000Y-39543750D02*
X99550000Y-40456250D01*
G75*
G02*
X99306250Y-40700000I-243750J0D01*
G01*
X98818750Y-40700000D01*
G75*
G02*
X98575000Y-40456250I0J243750D01*
G01*
X98575000Y-39543750D01*
G75*
G02*
X98818750Y-39300000I243750J0D01*
G01*
X99306250Y-39300000D01*
G75*
G02*
X99550000Y-39543750I0J-243750D01*
G01*
G37*
G36*
G01*
X101425000Y-39543750D02*
X101425000Y-40456250D01*
G75*
G02*
X101181250Y-40700000I-243750J0D01*
G01*
X100693750Y-40700000D01*
G75*
G02*
X100450000Y-40456250I0J243750D01*
G01*
X100450000Y-39543750D01*
G75*
G02*
X100693750Y-39300000I243750J0D01*
G01*
X101181250Y-39300000D01*
G75*
G02*
X101425000Y-39543750I0J-243750D01*
G01*
G37*
G36*
G01*
X138550000Y-42543750D02*
X138550000Y-43456250D01*
G75*
G02*
X138306250Y-43700000I-243750J0D01*
G01*
X137818750Y-43700000D01*
G75*
G02*
X137575000Y-43456250I0J243750D01*
G01*
X137575000Y-42543750D01*
G75*
G02*
X137818750Y-42300000I243750J0D01*
G01*
X138306250Y-42300000D01*
G75*
G02*
X138550000Y-42543750I0J-243750D01*
G01*
G37*
G36*
G01*
X140425000Y-42543750D02*
X140425000Y-43456250D01*
G75*
G02*
X140181250Y-43700000I-243750J0D01*
G01*
X139693750Y-43700000D01*
G75*
G02*
X139450000Y-43456250I0J243750D01*
G01*
X139450000Y-42543750D01*
G75*
G02*
X139693750Y-42300000I243750J0D01*
G01*
X140181250Y-42300000D01*
G75*
G02*
X140425000Y-42543750I0J-243750D01*
G01*
G37*
G36*
G01*
X138550000Y-39543750D02*
X138550000Y-40456250D01*
G75*
G02*
X138306250Y-40700000I-243750J0D01*
G01*
X137818750Y-40700000D01*
G75*
G02*
X137575000Y-40456250I0J243750D01*
G01*
X137575000Y-39543750D01*
G75*
G02*
X137818750Y-39300000I243750J0D01*
G01*
X138306250Y-39300000D01*
G75*
G02*
X138550000Y-39543750I0J-243750D01*
G01*
G37*
G36*
G01*
X140425000Y-39543750D02*
X140425000Y-40456250D01*
G75*
G02*
X140181250Y-40700000I-243750J0D01*
G01*
X139693750Y-40700000D01*
G75*
G02*
X139450000Y-40456250I0J243750D01*
G01*
X139450000Y-39543750D01*
G75*
G02*
X139693750Y-39300000I243750J0D01*
G01*
X140181250Y-39300000D01*
G75*
G02*
X140425000Y-39543750I0J-243750D01*
G01*
G37*
G36*
G01*
X177550000Y-42543750D02*
X177550000Y-43456250D01*
G75*
G02*
X177306250Y-43700000I-243750J0D01*
G01*
X176818750Y-43700000D01*
G75*
G02*
X176575000Y-43456250I0J243750D01*
G01*
X176575000Y-42543750D01*
G75*
G02*
X176818750Y-42300000I243750J0D01*
G01*
X177306250Y-42300000D01*
G75*
G02*
X177550000Y-42543750I0J-243750D01*
G01*
G37*
G36*
G01*
X179425000Y-42543750D02*
X179425000Y-43456250D01*
G75*
G02*
X179181250Y-43700000I-243750J0D01*
G01*
X178693750Y-43700000D01*
G75*
G02*
X178450000Y-43456250I0J243750D01*
G01*
X178450000Y-42543750D01*
G75*
G02*
X178693750Y-42300000I243750J0D01*
G01*
X179181250Y-42300000D01*
G75*
G02*
X179425000Y-42543750I0J-243750D01*
G01*
G37*
G36*
G01*
X177550000Y-39543750D02*
X177550000Y-40456250D01*
G75*
G02*
X177306250Y-40700000I-243750J0D01*
G01*
X176818750Y-40700000D01*
G75*
G02*
X176575000Y-40456250I0J243750D01*
G01*
X176575000Y-39543750D01*
G75*
G02*
X176818750Y-39300000I243750J0D01*
G01*
X177306250Y-39300000D01*
G75*
G02*
X177550000Y-39543750I0J-243750D01*
G01*
G37*
G36*
G01*
X179425000Y-39543750D02*
X179425000Y-40456250D01*
G75*
G02*
X179181250Y-40700000I-243750J0D01*
G01*
X178693750Y-40700000D01*
G75*
G02*
X178450000Y-40456250I0J243750D01*
G01*
X178450000Y-39543750D01*
G75*
G02*
X178693750Y-39300000I243750J0D01*
G01*
X179181250Y-39300000D01*
G75*
G02*
X179425000Y-39543750I0J-243750D01*
G01*
G37*
G36*
G01*
X48550000Y-75043750D02*
X48550000Y-75956250D01*
G75*
G02*
X48306250Y-76200000I-243750J0D01*
G01*
X47818750Y-76200000D01*
G75*
G02*
X47575000Y-75956250I0J243750D01*
G01*
X47575000Y-75043750D01*
G75*
G02*
X47818750Y-74800000I243750J0D01*
G01*
X48306250Y-74800000D01*
G75*
G02*
X48550000Y-75043750I0J-243750D01*
G01*
G37*
G36*
G01*
X50425000Y-75043750D02*
X50425000Y-75956250D01*
G75*
G02*
X50181250Y-76200000I-243750J0D01*
G01*
X49693750Y-76200000D01*
G75*
G02*
X49450000Y-75956250I0J243750D01*
G01*
X49450000Y-75043750D01*
G75*
G02*
X49693750Y-74800000I243750J0D01*
G01*
X50181250Y-74800000D01*
G75*
G02*
X50425000Y-75043750I0J-243750D01*
G01*
G37*
G36*
G01*
X48550000Y-72043750D02*
X48550000Y-72956250D01*
G75*
G02*
X48306250Y-73200000I-243750J0D01*
G01*
X47818750Y-73200000D01*
G75*
G02*
X47575000Y-72956250I0J243750D01*
G01*
X47575000Y-72043750D01*
G75*
G02*
X47818750Y-71800000I243750J0D01*
G01*
X48306250Y-71800000D01*
G75*
G02*
X48550000Y-72043750I0J-243750D01*
G01*
G37*
G36*
G01*
X50425000Y-72043750D02*
X50425000Y-72956250D01*
G75*
G02*
X50181250Y-73200000I-243750J0D01*
G01*
X49693750Y-73200000D01*
G75*
G02*
X49450000Y-72956250I0J243750D01*
G01*
X49450000Y-72043750D01*
G75*
G02*
X49693750Y-71800000I243750J0D01*
G01*
X50181250Y-71800000D01*
G75*
G02*
X50425000Y-72043750I0J-243750D01*
G01*
G37*
G36*
G01*
X87550000Y-75043750D02*
X87550000Y-75956250D01*
G75*
G02*
X87306250Y-76200000I-243750J0D01*
G01*
X86818750Y-76200000D01*
G75*
G02*
X86575000Y-75956250I0J243750D01*
G01*
X86575000Y-75043750D01*
G75*
G02*
X86818750Y-74800000I243750J0D01*
G01*
X87306250Y-74800000D01*
G75*
G02*
X87550000Y-75043750I0J-243750D01*
G01*
G37*
G36*
G01*
X89425000Y-75043750D02*
X89425000Y-75956250D01*
G75*
G02*
X89181250Y-76200000I-243750J0D01*
G01*
X88693750Y-76200000D01*
G75*
G02*
X88450000Y-75956250I0J243750D01*
G01*
X88450000Y-75043750D01*
G75*
G02*
X88693750Y-74800000I243750J0D01*
G01*
X89181250Y-74800000D01*
G75*
G02*
X89425000Y-75043750I0J-243750D01*
G01*
G37*
G36*
G01*
X87550000Y-72043750D02*
X87550000Y-72956250D01*
G75*
G02*
X87306250Y-73200000I-243750J0D01*
G01*
X86818750Y-73200000D01*
G75*
G02*
X86575000Y-72956250I0J243750D01*
G01*
X86575000Y-72043750D01*
G75*
G02*
X86818750Y-71800000I243750J0D01*
G01*
X87306250Y-71800000D01*
G75*
G02*
X87550000Y-72043750I0J-243750D01*
G01*
G37*
G36*
G01*
X89425000Y-72043750D02*
X89425000Y-72956250D01*
G75*
G02*
X89181250Y-73200000I-243750J0D01*
G01*
X88693750Y-73200000D01*
G75*
G02*
X88450000Y-72956250I0J243750D01*
G01*
X88450000Y-72043750D01*
G75*
G02*
X88693750Y-71800000I243750J0D01*
G01*
X89181250Y-71800000D01*
G75*
G02*
X89425000Y-72043750I0J-243750D01*
G01*
G37*
G36*
G01*
X126550000Y-75043750D02*
X126550000Y-75956250D01*
G75*
G02*
X126306250Y-76200000I-243750J0D01*
G01*
X125818750Y-76200000D01*
G75*
G02*
X125575000Y-75956250I0J243750D01*
G01*
X125575000Y-75043750D01*
G75*
G02*
X125818750Y-74800000I243750J0D01*
G01*
X126306250Y-74800000D01*
G75*
G02*
X126550000Y-75043750I0J-243750D01*
G01*
G37*
G36*
G01*
X128425000Y-75043750D02*
X128425000Y-75956250D01*
G75*
G02*
X128181250Y-76200000I-243750J0D01*
G01*
X127693750Y-76200000D01*
G75*
G02*
X127450000Y-75956250I0J243750D01*
G01*
X127450000Y-75043750D01*
G75*
G02*
X127693750Y-74800000I243750J0D01*
G01*
X128181250Y-74800000D01*
G75*
G02*
X128425000Y-75043750I0J-243750D01*
G01*
G37*
G36*
G01*
X126550000Y-72043750D02*
X126550000Y-72956250D01*
G75*
G02*
X126306250Y-73200000I-243750J0D01*
G01*
X125818750Y-73200000D01*
G75*
G02*
X125575000Y-72956250I0J243750D01*
G01*
X125575000Y-72043750D01*
G75*
G02*
X125818750Y-71800000I243750J0D01*
G01*
X126306250Y-71800000D01*
G75*
G02*
X126550000Y-72043750I0J-243750D01*
G01*
G37*
G36*
G01*
X128425000Y-72043750D02*
X128425000Y-72956250D01*
G75*
G02*
X128181250Y-73200000I-243750J0D01*
G01*
X127693750Y-73200000D01*
G75*
G02*
X127450000Y-72956250I0J243750D01*
G01*
X127450000Y-72043750D01*
G75*
G02*
X127693750Y-71800000I243750J0D01*
G01*
X128181250Y-71800000D01*
G75*
G02*
X128425000Y-72043750I0J-243750D01*
G01*
G37*
G36*
G01*
X165550000Y-75043750D02*
X165550000Y-75956250D01*
G75*
G02*
X165306250Y-76200000I-243750J0D01*
G01*
X164818750Y-76200000D01*
G75*
G02*
X164575000Y-75956250I0J243750D01*
G01*
X164575000Y-75043750D01*
G75*
G02*
X164818750Y-74800000I243750J0D01*
G01*
X165306250Y-74800000D01*
G75*
G02*
X165550000Y-75043750I0J-243750D01*
G01*
G37*
G36*
G01*
X167425000Y-75043750D02*
X167425000Y-75956250D01*
G75*
G02*
X167181250Y-76200000I-243750J0D01*
G01*
X166693750Y-76200000D01*
G75*
G02*
X166450000Y-75956250I0J243750D01*
G01*
X166450000Y-75043750D01*
G75*
G02*
X166693750Y-74800000I243750J0D01*
G01*
X167181250Y-74800000D01*
G75*
G02*
X167425000Y-75043750I0J-243750D01*
G01*
G37*
G36*
G01*
X165550000Y-72043750D02*
X165550000Y-72956250D01*
G75*
G02*
X165306250Y-73200000I-243750J0D01*
G01*
X164818750Y-73200000D01*
G75*
G02*
X164575000Y-72956250I0J243750D01*
G01*
X164575000Y-72043750D01*
G75*
G02*
X164818750Y-71800000I243750J0D01*
G01*
X165306250Y-71800000D01*
G75*
G02*
X165550000Y-72043750I0J-243750D01*
G01*
G37*
G36*
G01*
X167425000Y-72043750D02*
X167425000Y-72956250D01*
G75*
G02*
X167181250Y-73200000I-243750J0D01*
G01*
X166693750Y-73200000D01*
G75*
G02*
X166450000Y-72956250I0J243750D01*
G01*
X166450000Y-72043750D01*
G75*
G02*
X166693750Y-71800000I243750J0D01*
G01*
X167181250Y-71800000D01*
G75*
G02*
X167425000Y-72043750I0J-243750D01*
G01*
G37*
G36*
G01*
X204550000Y-75043750D02*
X204550000Y-75956250D01*
G75*
G02*
X204306250Y-76200000I-243750J0D01*
G01*
X203818750Y-76200000D01*
G75*
G02*
X203575000Y-75956250I0J243750D01*
G01*
X203575000Y-75043750D01*
G75*
G02*
X203818750Y-74800000I243750J0D01*
G01*
X204306250Y-74800000D01*
G75*
G02*
X204550000Y-75043750I0J-243750D01*
G01*
G37*
G36*
G01*
X206425000Y-75043750D02*
X206425000Y-75956250D01*
G75*
G02*
X206181250Y-76200000I-243750J0D01*
G01*
X205693750Y-76200000D01*
G75*
G02*
X205450000Y-75956250I0J243750D01*
G01*
X205450000Y-75043750D01*
G75*
G02*
X205693750Y-74800000I243750J0D01*
G01*
X206181250Y-74800000D01*
G75*
G02*
X206425000Y-75043750I0J-243750D01*
G01*
G37*
G36*
G01*
X204550000Y-72043750D02*
X204550000Y-72956250D01*
G75*
G02*
X204306250Y-73200000I-243750J0D01*
G01*
X203818750Y-73200000D01*
G75*
G02*
X203575000Y-72956250I0J243750D01*
G01*
X203575000Y-72043750D01*
G75*
G02*
X203818750Y-71800000I243750J0D01*
G01*
X204306250Y-71800000D01*
G75*
G02*
X204550000Y-72043750I0J-243750D01*
G01*
G37*
G36*
G01*
X206425000Y-72043750D02*
X206425000Y-72956250D01*
G75*
G02*
X206181250Y-73200000I-243750J0D01*
G01*
X205693750Y-73200000D01*
G75*
G02*
X205450000Y-72956250I0J243750D01*
G01*
X205450000Y-72043750D01*
G75*
G02*
X205693750Y-71800000I243750J0D01*
G01*
X206181250Y-71800000D01*
G75*
G02*
X206425000Y-72043750I0J-243750D01*
G01*
G37*
G36*
G01*
X49543750Y-34450000D02*
X50456250Y-34450000D01*
G75*
G02*
X50700000Y-34693750I0J-243750D01*
G01*
X50700000Y-35181250D01*
G75*
G02*
X50456250Y-35425000I-243750J0D01*
G01*
X49543750Y-35425000D01*
G75*
G02*
X49300000Y-35181250I0J243750D01*
G01*
X49300000Y-34693750D01*
G75*
G02*
X49543750Y-34450000I243750J0D01*
G01*
G37*
G36*
G01*
X49543750Y-32575000D02*
X50456250Y-32575000D01*
G75*
G02*
X50700000Y-32818750I0J-243750D01*
G01*
X50700000Y-33306250D01*
G75*
G02*
X50456250Y-33550000I-243750J0D01*
G01*
X49543750Y-33550000D01*
G75*
G02*
X49300000Y-33306250I0J243750D01*
G01*
X49300000Y-32818750D01*
G75*
G02*
X49543750Y-32575000I243750J0D01*
G01*
G37*
G36*
G01*
X59543750Y-34450000D02*
X60456250Y-34450000D01*
G75*
G02*
X60700000Y-34693750I0J-243750D01*
G01*
X60700000Y-35181250D01*
G75*
G02*
X60456250Y-35425000I-243750J0D01*
G01*
X59543750Y-35425000D01*
G75*
G02*
X59300000Y-35181250I0J243750D01*
G01*
X59300000Y-34693750D01*
G75*
G02*
X59543750Y-34450000I243750J0D01*
G01*
G37*
G36*
G01*
X59543750Y-32575000D02*
X60456250Y-32575000D01*
G75*
G02*
X60700000Y-32818750I0J-243750D01*
G01*
X60700000Y-33306250D01*
G75*
G02*
X60456250Y-33550000I-243750J0D01*
G01*
X59543750Y-33550000D01*
G75*
G02*
X59300000Y-33306250I0J243750D01*
G01*
X59300000Y-32818750D01*
G75*
G02*
X59543750Y-32575000I243750J0D01*
G01*
G37*
G36*
G01*
X242950000Y-60456250D02*
X242950000Y-59543750D01*
G75*
G02*
X243193750Y-59300000I243750J0D01*
G01*
X243681250Y-59300000D01*
G75*
G02*
X243925000Y-59543750I0J-243750D01*
G01*
X243925000Y-60456250D01*
G75*
G02*
X243681250Y-60700000I-243750J0D01*
G01*
X243193750Y-60700000D01*
G75*
G02*
X242950000Y-60456250I0J243750D01*
G01*
G37*
G36*
G01*
X241075000Y-60456250D02*
X241075000Y-59543750D01*
G75*
G02*
X241318750Y-59300000I243750J0D01*
G01*
X241806250Y-59300000D01*
G75*
G02*
X242050000Y-59543750I0J-243750D01*
G01*
X242050000Y-60456250D01*
G75*
G02*
X241806250Y-60700000I-243750J0D01*
G01*
X241318750Y-60700000D01*
G75*
G02*
X241075000Y-60456250I0J243750D01*
G01*
G37*
G36*
G01*
X52456250Y-33550000D02*
X51543750Y-33550000D01*
G75*
G02*
X51300000Y-33306250I0J243750D01*
G01*
X51300000Y-32818750D01*
G75*
G02*
X51543750Y-32575000I243750J0D01*
G01*
X52456250Y-32575000D01*
G75*
G02*
X52700000Y-32818750I0J-243750D01*
G01*
X52700000Y-33306250D01*
G75*
G02*
X52456250Y-33550000I-243750J0D01*
G01*
G37*
G36*
G01*
X52456250Y-35425000D02*
X51543750Y-35425000D01*
G75*
G02*
X51300000Y-35181250I0J243750D01*
G01*
X51300000Y-34693750D01*
G75*
G02*
X51543750Y-34450000I243750J0D01*
G01*
X52456250Y-34450000D01*
G75*
G02*
X52700000Y-34693750I0J-243750D01*
G01*
X52700000Y-35181250D01*
G75*
G02*
X52456250Y-35425000I-243750J0D01*
G01*
G37*
G36*
G01*
X58456250Y-33550000D02*
X57543750Y-33550000D01*
G75*
G02*
X57300000Y-33306250I0J243750D01*
G01*
X57300000Y-32818750D01*
G75*
G02*
X57543750Y-32575000I243750J0D01*
G01*
X58456250Y-32575000D01*
G75*
G02*
X58700000Y-32818750I0J-243750D01*
G01*
X58700000Y-33306250D01*
G75*
G02*
X58456250Y-33550000I-243750J0D01*
G01*
G37*
G36*
G01*
X58456250Y-35425000D02*
X57543750Y-35425000D01*
G75*
G02*
X57300000Y-35181250I0J243750D01*
G01*
X57300000Y-34693750D01*
G75*
G02*
X57543750Y-34450000I243750J0D01*
G01*
X58456250Y-34450000D01*
G75*
G02*
X58700000Y-34693750I0J-243750D01*
G01*
X58700000Y-35181250D01*
G75*
G02*
X58456250Y-35425000I-243750J0D01*
G01*
G37*
G36*
G01*
X203575000Y-32956250D02*
X203575000Y-32043750D01*
G75*
G02*
X203818750Y-31800000I243750J0D01*
G01*
X204306250Y-31800000D01*
G75*
G02*
X204550000Y-32043750I0J-243750D01*
G01*
X204550000Y-32956250D01*
G75*
G02*
X204306250Y-33200000I-243750J0D01*
G01*
X203818750Y-33200000D01*
G75*
G02*
X203575000Y-32956250I0J243750D01*
G01*
G37*
G36*
G01*
X205450000Y-32956250D02*
X205450000Y-32043750D01*
G75*
G02*
X205693750Y-31800000I243750J0D01*
G01*
X206181250Y-31800000D01*
G75*
G02*
X206425000Y-32043750I0J-243750D01*
G01*
X206425000Y-32956250D01*
G75*
G02*
X206181250Y-33200000I-243750J0D01*
G01*
X205693750Y-33200000D01*
G75*
G02*
X205450000Y-32956250I0J243750D01*
G01*
G37*
G36*
G01*
X28950000Y-37956250D02*
X28950000Y-37043750D01*
G75*
G02*
X29193750Y-36800000I243750J0D01*
G01*
X29681250Y-36800000D01*
G75*
G02*
X29925000Y-37043750I0J-243750D01*
G01*
X29925000Y-37956250D01*
G75*
G02*
X29681250Y-38200000I-243750J0D01*
G01*
X29193750Y-38200000D01*
G75*
G02*
X28950000Y-37956250I0J243750D01*
G01*
G37*
G36*
G01*
X27075000Y-37956250D02*
X27075000Y-37043750D01*
G75*
G02*
X27318750Y-36800000I243750J0D01*
G01*
X27806250Y-36800000D01*
G75*
G02*
X28050000Y-37043750I0J-243750D01*
G01*
X28050000Y-37956250D01*
G75*
G02*
X27806250Y-38200000I-243750J0D01*
G01*
X27318750Y-38200000D01*
G75*
G02*
X27075000Y-37956250I0J243750D01*
G01*
G37*
G36*
G01*
X28950000Y-50956250D02*
X28950000Y-50043750D01*
G75*
G02*
X29193750Y-49800000I243750J0D01*
G01*
X29681250Y-49800000D01*
G75*
G02*
X29925000Y-50043750I0J-243750D01*
G01*
X29925000Y-50956250D01*
G75*
G02*
X29681250Y-51200000I-243750J0D01*
G01*
X29193750Y-51200000D01*
G75*
G02*
X28950000Y-50956250I0J243750D01*
G01*
G37*
G36*
G01*
X27075000Y-50956250D02*
X27075000Y-50043750D01*
G75*
G02*
X27318750Y-49800000I243750J0D01*
G01*
X27806250Y-49800000D01*
G75*
G02*
X28050000Y-50043750I0J-243750D01*
G01*
X28050000Y-50956250D01*
G75*
G02*
X27806250Y-51200000I-243750J0D01*
G01*
X27318750Y-51200000D01*
G75*
G02*
X27075000Y-50956250I0J243750D01*
G01*
G37*
G36*
G01*
X28950000Y-63956250D02*
X28950000Y-63043750D01*
G75*
G02*
X29193750Y-62800000I243750J0D01*
G01*
X29681250Y-62800000D01*
G75*
G02*
X29925000Y-63043750I0J-243750D01*
G01*
X29925000Y-63956250D01*
G75*
G02*
X29681250Y-64200000I-243750J0D01*
G01*
X29193750Y-64200000D01*
G75*
G02*
X28950000Y-63956250I0J243750D01*
G01*
G37*
G36*
G01*
X27075000Y-63956250D02*
X27075000Y-63043750D01*
G75*
G02*
X27318750Y-62800000I243750J0D01*
G01*
X27806250Y-62800000D01*
G75*
G02*
X28050000Y-63043750I0J-243750D01*
G01*
X28050000Y-63956250D01*
G75*
G02*
X27806250Y-64200000I-243750J0D01*
G01*
X27318750Y-64200000D01*
G75*
G02*
X27075000Y-63956250I0J243750D01*
G01*
G37*
G36*
G01*
X28950000Y-76956250D02*
X28950000Y-76043750D01*
G75*
G02*
X29193750Y-75800000I243750J0D01*
G01*
X29681250Y-75800000D01*
G75*
G02*
X29925000Y-76043750I0J-243750D01*
G01*
X29925000Y-76956250D01*
G75*
G02*
X29681250Y-77200000I-243750J0D01*
G01*
X29193750Y-77200000D01*
G75*
G02*
X28950000Y-76956250I0J243750D01*
G01*
G37*
G36*
G01*
X27075000Y-76956250D02*
X27075000Y-76043750D01*
G75*
G02*
X27318750Y-75800000I243750J0D01*
G01*
X27806250Y-75800000D01*
G75*
G02*
X28050000Y-76043750I0J-243750D01*
G01*
X28050000Y-76956250D01*
G75*
G02*
X27806250Y-77200000I-243750J0D01*
G01*
X27318750Y-77200000D01*
G75*
G02*
X27075000Y-76956250I0J243750D01*
G01*
G37*
D12*
X74200000Y-35245000D03*
D13*
X74200000Y-36515000D03*
X74200000Y-37785000D03*
X74200000Y-39055000D03*
X74200000Y-40325000D03*
X74200000Y-41595000D03*
X74200000Y-42865000D03*
X74200000Y-44135000D03*
X74200000Y-45405000D03*
X74200000Y-46675000D03*
X74200000Y-47945000D03*
X74200000Y-49215000D03*
X74200000Y-50485000D03*
X74200000Y-51755000D03*
X64800000Y-51755000D03*
X64800000Y-50485000D03*
X64800000Y-49215000D03*
X64800000Y-47945000D03*
X64800000Y-46675000D03*
X64800000Y-45405000D03*
X64800000Y-44135000D03*
X64800000Y-42865000D03*
X64800000Y-41595000D03*
X64800000Y-40325000D03*
X64800000Y-39055000D03*
X64800000Y-37785000D03*
X64800000Y-36515000D03*
X64800000Y-35245000D03*
D12*
X154700000Y-35245000D03*
D13*
X154700000Y-36515000D03*
X154700000Y-37785000D03*
X154700000Y-39055000D03*
X154700000Y-40325000D03*
X154700000Y-41595000D03*
X154700000Y-42865000D03*
X154700000Y-44135000D03*
X154700000Y-45405000D03*
X154700000Y-46675000D03*
X154700000Y-47945000D03*
X154700000Y-49215000D03*
X154700000Y-50485000D03*
X154700000Y-51755000D03*
X145300000Y-51755000D03*
X145300000Y-50485000D03*
X145300000Y-49215000D03*
X145300000Y-47945000D03*
X145300000Y-46675000D03*
X145300000Y-45405000D03*
X145300000Y-44135000D03*
X145300000Y-42865000D03*
X145300000Y-41595000D03*
X145300000Y-40325000D03*
X145300000Y-39055000D03*
X145300000Y-37785000D03*
X145300000Y-36515000D03*
X145300000Y-35245000D03*
D12*
X225200000Y-50245000D03*
D13*
X225200000Y-51515000D03*
X225200000Y-52785000D03*
X225200000Y-54055000D03*
X225200000Y-55325000D03*
X225200000Y-56595000D03*
X225200000Y-57865000D03*
X225200000Y-59135000D03*
X225200000Y-60405000D03*
X225200000Y-61675000D03*
X225200000Y-62945000D03*
X225200000Y-64215000D03*
X225200000Y-65485000D03*
X225200000Y-66755000D03*
X215800000Y-66755000D03*
X215800000Y-65485000D03*
X215800000Y-64215000D03*
X215800000Y-62945000D03*
X215800000Y-61675000D03*
X215800000Y-60405000D03*
X215800000Y-59135000D03*
X215800000Y-57865000D03*
X215800000Y-56595000D03*
X215800000Y-55325000D03*
X215800000Y-54055000D03*
X215800000Y-52785000D03*
X215800000Y-51515000D03*
X215800000Y-50245000D03*
D10*
X193975000Y-24595000D03*
D11*
X193975000Y-25865000D03*
X193975000Y-27135000D03*
X193975000Y-28405000D03*
X189025000Y-28405000D03*
X189025000Y-27135000D03*
X189025000Y-25865000D03*
X189025000Y-24595000D03*
G36*
G01*
X52956250Y-25550000D02*
X52043750Y-25550000D01*
G75*
G02*
X51800000Y-25306250I0J243750D01*
G01*
X51800000Y-24818750D01*
G75*
G02*
X52043750Y-24575000I243750J0D01*
G01*
X52956250Y-24575000D01*
G75*
G02*
X53200000Y-24818750I0J-243750D01*
G01*
X53200000Y-25306250D01*
G75*
G02*
X52956250Y-25550000I-243750J0D01*
G01*
G37*
G36*
G01*
X52956250Y-27425000D02*
X52043750Y-27425000D01*
G75*
G02*
X51800000Y-27181250I0J243750D01*
G01*
X51800000Y-26693750D01*
G75*
G02*
X52043750Y-26450000I243750J0D01*
G01*
X52956250Y-26450000D01*
G75*
G02*
X53200000Y-26693750I0J-243750D01*
G01*
X53200000Y-27181250D01*
G75*
G02*
X52956250Y-27425000I-243750J0D01*
G01*
G37*
G36*
G01*
X79956250Y-58050000D02*
X79043750Y-58050000D01*
G75*
G02*
X78800000Y-57806250I0J243750D01*
G01*
X78800000Y-57318750D01*
G75*
G02*
X79043750Y-57075000I243750J0D01*
G01*
X79956250Y-57075000D01*
G75*
G02*
X80200000Y-57318750I0J-243750D01*
G01*
X80200000Y-57806250D01*
G75*
G02*
X79956250Y-58050000I-243750J0D01*
G01*
G37*
G36*
G01*
X79956250Y-59925000D02*
X79043750Y-59925000D01*
G75*
G02*
X78800000Y-59681250I0J243750D01*
G01*
X78800000Y-59193750D01*
G75*
G02*
X79043750Y-58950000I243750J0D01*
G01*
X79956250Y-58950000D01*
G75*
G02*
X80200000Y-59193750I0J-243750D01*
G01*
X80200000Y-59681250D01*
G75*
G02*
X79956250Y-59925000I-243750J0D01*
G01*
G37*
G36*
G01*
X80543750Y-66950000D02*
X81456250Y-66950000D01*
G75*
G02*
X81700000Y-67193750I0J-243750D01*
G01*
X81700000Y-67681250D01*
G75*
G02*
X81456250Y-67925000I-243750J0D01*
G01*
X80543750Y-67925000D01*
G75*
G02*
X80300000Y-67681250I0J243750D01*
G01*
X80300000Y-67193750D01*
G75*
G02*
X80543750Y-66950000I243750J0D01*
G01*
G37*
G36*
G01*
X80543750Y-65075000D02*
X81456250Y-65075000D01*
G75*
G02*
X81700000Y-65318750I0J-243750D01*
G01*
X81700000Y-65806250D01*
G75*
G02*
X81456250Y-66050000I-243750J0D01*
G01*
X80543750Y-66050000D01*
G75*
G02*
X80300000Y-65806250I0J243750D01*
G01*
X80300000Y-65318750D01*
G75*
G02*
X80543750Y-65075000I243750J0D01*
G01*
G37*
G36*
G01*
X82543750Y-66950000D02*
X83456250Y-66950000D01*
G75*
G02*
X83700000Y-67193750I0J-243750D01*
G01*
X83700000Y-67681250D01*
G75*
G02*
X83456250Y-67925000I-243750J0D01*
G01*
X82543750Y-67925000D01*
G75*
G02*
X82300000Y-67681250I0J243750D01*
G01*
X82300000Y-67193750D01*
G75*
G02*
X82543750Y-66950000I243750J0D01*
G01*
G37*
G36*
G01*
X82543750Y-65075000D02*
X83456250Y-65075000D01*
G75*
G02*
X83700000Y-65318750I0J-243750D01*
G01*
X83700000Y-65806250D01*
G75*
G02*
X83456250Y-66050000I-243750J0D01*
G01*
X82543750Y-66050000D01*
G75*
G02*
X82300000Y-65806250I0J243750D01*
G01*
X82300000Y-65318750D01*
G75*
G02*
X82543750Y-65075000I243750J0D01*
G01*
G37*
G36*
G01*
X245550000Y-59543750D02*
X245550000Y-60456250D01*
G75*
G02*
X245306250Y-60700000I-243750J0D01*
G01*
X244818750Y-60700000D01*
G75*
G02*
X244575000Y-60456250I0J243750D01*
G01*
X244575000Y-59543750D01*
G75*
G02*
X244818750Y-59300000I243750J0D01*
G01*
X245306250Y-59300000D01*
G75*
G02*
X245550000Y-59543750I0J-243750D01*
G01*
G37*
G36*
G01*
X247425000Y-59543750D02*
X247425000Y-60456250D01*
G75*
G02*
X247181250Y-60700000I-243750J0D01*
G01*
X246693750Y-60700000D01*
G75*
G02*
X246450000Y-60456250I0J243750D01*
G01*
X246450000Y-59543750D01*
G75*
G02*
X246693750Y-59300000I243750J0D01*
G01*
X247181250Y-59300000D01*
G75*
G02*
X247425000Y-59543750I0J-243750D01*
G01*
G37*
G36*
G01*
X91956250Y-25550000D02*
X91043750Y-25550000D01*
G75*
G02*
X90800000Y-25306250I0J243750D01*
G01*
X90800000Y-24818750D01*
G75*
G02*
X91043750Y-24575000I243750J0D01*
G01*
X91956250Y-24575000D01*
G75*
G02*
X92200000Y-24818750I0J-243750D01*
G01*
X92200000Y-25306250D01*
G75*
G02*
X91956250Y-25550000I-243750J0D01*
G01*
G37*
G36*
G01*
X91956250Y-27425000D02*
X91043750Y-27425000D01*
G75*
G02*
X90800000Y-27181250I0J243750D01*
G01*
X90800000Y-26693750D01*
G75*
G02*
X91043750Y-26450000I243750J0D01*
G01*
X91956250Y-26450000D01*
G75*
G02*
X92200000Y-26693750I0J-243750D01*
G01*
X92200000Y-27181250D01*
G75*
G02*
X91956250Y-27425000I-243750J0D01*
G01*
G37*
G36*
G01*
X118956250Y-58050000D02*
X118043750Y-58050000D01*
G75*
G02*
X117800000Y-57806250I0J243750D01*
G01*
X117800000Y-57318750D01*
G75*
G02*
X118043750Y-57075000I243750J0D01*
G01*
X118956250Y-57075000D01*
G75*
G02*
X119200000Y-57318750I0J-243750D01*
G01*
X119200000Y-57806250D01*
G75*
G02*
X118956250Y-58050000I-243750J0D01*
G01*
G37*
G36*
G01*
X118956250Y-59925000D02*
X118043750Y-59925000D01*
G75*
G02*
X117800000Y-59681250I0J243750D01*
G01*
X117800000Y-59193750D01*
G75*
G02*
X118043750Y-58950000I243750J0D01*
G01*
X118956250Y-58950000D01*
G75*
G02*
X119200000Y-59193750I0J-243750D01*
G01*
X119200000Y-59681250D01*
G75*
G02*
X118956250Y-59925000I-243750J0D01*
G01*
G37*
G36*
G01*
X92543750Y-34450000D02*
X93456250Y-34450000D01*
G75*
G02*
X93700000Y-34693750I0J-243750D01*
G01*
X93700000Y-35181250D01*
G75*
G02*
X93456250Y-35425000I-243750J0D01*
G01*
X92543750Y-35425000D01*
G75*
G02*
X92300000Y-35181250I0J243750D01*
G01*
X92300000Y-34693750D01*
G75*
G02*
X92543750Y-34450000I243750J0D01*
G01*
G37*
G36*
G01*
X92543750Y-32575000D02*
X93456250Y-32575000D01*
G75*
G02*
X93700000Y-32818750I0J-243750D01*
G01*
X93700000Y-33306250D01*
G75*
G02*
X93456250Y-33550000I-243750J0D01*
G01*
X92543750Y-33550000D01*
G75*
G02*
X92300000Y-33306250I0J243750D01*
G01*
X92300000Y-32818750D01*
G75*
G02*
X92543750Y-32575000I243750J0D01*
G01*
G37*
G36*
G01*
X94543750Y-34450000D02*
X95456250Y-34450000D01*
G75*
G02*
X95700000Y-34693750I0J-243750D01*
G01*
X95700000Y-35181250D01*
G75*
G02*
X95456250Y-35425000I-243750J0D01*
G01*
X94543750Y-35425000D01*
G75*
G02*
X94300000Y-35181250I0J243750D01*
G01*
X94300000Y-34693750D01*
G75*
G02*
X94543750Y-34450000I243750J0D01*
G01*
G37*
G36*
G01*
X94543750Y-32575000D02*
X95456250Y-32575000D01*
G75*
G02*
X95700000Y-32818750I0J-243750D01*
G01*
X95700000Y-33306250D01*
G75*
G02*
X95456250Y-33550000I-243750J0D01*
G01*
X94543750Y-33550000D01*
G75*
G02*
X94300000Y-33306250I0J243750D01*
G01*
X94300000Y-32818750D01*
G75*
G02*
X94543750Y-32575000I243750J0D01*
G01*
G37*
G36*
G01*
X119543750Y-66950000D02*
X120456250Y-66950000D01*
G75*
G02*
X120700000Y-67193750I0J-243750D01*
G01*
X120700000Y-67681250D01*
G75*
G02*
X120456250Y-67925000I-243750J0D01*
G01*
X119543750Y-67925000D01*
G75*
G02*
X119300000Y-67681250I0J243750D01*
G01*
X119300000Y-67193750D01*
G75*
G02*
X119543750Y-66950000I243750J0D01*
G01*
G37*
G36*
G01*
X119543750Y-65075000D02*
X120456250Y-65075000D01*
G75*
G02*
X120700000Y-65318750I0J-243750D01*
G01*
X120700000Y-65806250D01*
G75*
G02*
X120456250Y-66050000I-243750J0D01*
G01*
X119543750Y-66050000D01*
G75*
G02*
X119300000Y-65806250I0J243750D01*
G01*
X119300000Y-65318750D01*
G75*
G02*
X119543750Y-65075000I243750J0D01*
G01*
G37*
G36*
G01*
X121543750Y-66950000D02*
X122456250Y-66950000D01*
G75*
G02*
X122700000Y-67193750I0J-243750D01*
G01*
X122700000Y-67681250D01*
G75*
G02*
X122456250Y-67925000I-243750J0D01*
G01*
X121543750Y-67925000D01*
G75*
G02*
X121300000Y-67681250I0J243750D01*
G01*
X121300000Y-67193750D01*
G75*
G02*
X121543750Y-66950000I243750J0D01*
G01*
G37*
G36*
G01*
X121543750Y-65075000D02*
X122456250Y-65075000D01*
G75*
G02*
X122700000Y-65318750I0J-243750D01*
G01*
X122700000Y-65806250D01*
G75*
G02*
X122456250Y-66050000I-243750J0D01*
G01*
X121543750Y-66050000D01*
G75*
G02*
X121300000Y-65806250I0J243750D01*
G01*
X121300000Y-65318750D01*
G75*
G02*
X121543750Y-65075000I243750J0D01*
G01*
G37*
G36*
G01*
X209925000Y-32043750D02*
X209925000Y-32956250D01*
G75*
G02*
X209681250Y-33200000I-243750J0D01*
G01*
X209193750Y-33200000D01*
G75*
G02*
X208950000Y-32956250I0J243750D01*
G01*
X208950000Y-32043750D01*
G75*
G02*
X209193750Y-31800000I243750J0D01*
G01*
X209681250Y-31800000D01*
G75*
G02*
X209925000Y-32043750I0J-243750D01*
G01*
G37*
G36*
G01*
X208050000Y-32043750D02*
X208050000Y-32956250D01*
G75*
G02*
X207806250Y-33200000I-243750J0D01*
G01*
X207318750Y-33200000D01*
G75*
G02*
X207075000Y-32956250I0J243750D01*
G01*
X207075000Y-32043750D01*
G75*
G02*
X207318750Y-31800000I243750J0D01*
G01*
X207806250Y-31800000D01*
G75*
G02*
X208050000Y-32043750I0J-243750D01*
G01*
G37*
G36*
G01*
X130956250Y-25550000D02*
X130043750Y-25550000D01*
G75*
G02*
X129800000Y-25306250I0J243750D01*
G01*
X129800000Y-24818750D01*
G75*
G02*
X130043750Y-24575000I243750J0D01*
G01*
X130956250Y-24575000D01*
G75*
G02*
X131200000Y-24818750I0J-243750D01*
G01*
X131200000Y-25306250D01*
G75*
G02*
X130956250Y-25550000I-243750J0D01*
G01*
G37*
G36*
G01*
X130956250Y-27425000D02*
X130043750Y-27425000D01*
G75*
G02*
X129800000Y-27181250I0J243750D01*
G01*
X129800000Y-26693750D01*
G75*
G02*
X130043750Y-26450000I243750J0D01*
G01*
X130956250Y-26450000D01*
G75*
G02*
X131200000Y-26693750I0J-243750D01*
G01*
X131200000Y-27181250D01*
G75*
G02*
X130956250Y-27425000I-243750J0D01*
G01*
G37*
G36*
G01*
X157956250Y-58050000D02*
X157043750Y-58050000D01*
G75*
G02*
X156800000Y-57806250I0J243750D01*
G01*
X156800000Y-57318750D01*
G75*
G02*
X157043750Y-57075000I243750J0D01*
G01*
X157956250Y-57075000D01*
G75*
G02*
X158200000Y-57318750I0J-243750D01*
G01*
X158200000Y-57806250D01*
G75*
G02*
X157956250Y-58050000I-243750J0D01*
G01*
G37*
G36*
G01*
X157956250Y-59925000D02*
X157043750Y-59925000D01*
G75*
G02*
X156800000Y-59681250I0J243750D01*
G01*
X156800000Y-59193750D01*
G75*
G02*
X157043750Y-58950000I243750J0D01*
G01*
X157956250Y-58950000D01*
G75*
G02*
X158200000Y-59193750I0J-243750D01*
G01*
X158200000Y-59681250D01*
G75*
G02*
X157956250Y-59925000I-243750J0D01*
G01*
G37*
G36*
G01*
X31550000Y-37043750D02*
X31550000Y-37956250D01*
G75*
G02*
X31306250Y-38200000I-243750J0D01*
G01*
X30818750Y-38200000D01*
G75*
G02*
X30575000Y-37956250I0J243750D01*
G01*
X30575000Y-37043750D01*
G75*
G02*
X30818750Y-36800000I243750J0D01*
G01*
X31306250Y-36800000D01*
G75*
G02*
X31550000Y-37043750I0J-243750D01*
G01*
G37*
G36*
G01*
X33425000Y-37043750D02*
X33425000Y-37956250D01*
G75*
G02*
X33181250Y-38200000I-243750J0D01*
G01*
X32693750Y-38200000D01*
G75*
G02*
X32450000Y-37956250I0J243750D01*
G01*
X32450000Y-37043750D01*
G75*
G02*
X32693750Y-36800000I243750J0D01*
G01*
X33181250Y-36800000D01*
G75*
G02*
X33425000Y-37043750I0J-243750D01*
G01*
G37*
G36*
G01*
X131543750Y-34950000D02*
X132456250Y-34950000D01*
G75*
G02*
X132700000Y-35193750I0J-243750D01*
G01*
X132700000Y-35681250D01*
G75*
G02*
X132456250Y-35925000I-243750J0D01*
G01*
X131543750Y-35925000D01*
G75*
G02*
X131300000Y-35681250I0J243750D01*
G01*
X131300000Y-35193750D01*
G75*
G02*
X131543750Y-34950000I243750J0D01*
G01*
G37*
G36*
G01*
X131543750Y-33075000D02*
X132456250Y-33075000D01*
G75*
G02*
X132700000Y-33318750I0J-243750D01*
G01*
X132700000Y-33806250D01*
G75*
G02*
X132456250Y-34050000I-243750J0D01*
G01*
X131543750Y-34050000D01*
G75*
G02*
X131300000Y-33806250I0J243750D01*
G01*
X131300000Y-33318750D01*
G75*
G02*
X131543750Y-33075000I243750J0D01*
G01*
G37*
G36*
G01*
X133543750Y-34950000D02*
X134456250Y-34950000D01*
G75*
G02*
X134700000Y-35193750I0J-243750D01*
G01*
X134700000Y-35681250D01*
G75*
G02*
X134456250Y-35925000I-243750J0D01*
G01*
X133543750Y-35925000D01*
G75*
G02*
X133300000Y-35681250I0J243750D01*
G01*
X133300000Y-35193750D01*
G75*
G02*
X133543750Y-34950000I243750J0D01*
G01*
G37*
G36*
G01*
X133543750Y-33075000D02*
X134456250Y-33075000D01*
G75*
G02*
X134700000Y-33318750I0J-243750D01*
G01*
X134700000Y-33806250D01*
G75*
G02*
X134456250Y-34050000I-243750J0D01*
G01*
X133543750Y-34050000D01*
G75*
G02*
X133300000Y-33806250I0J243750D01*
G01*
X133300000Y-33318750D01*
G75*
G02*
X133543750Y-33075000I243750J0D01*
G01*
G37*
G36*
G01*
X158543750Y-66950000D02*
X159456250Y-66950000D01*
G75*
G02*
X159700000Y-67193750I0J-243750D01*
G01*
X159700000Y-67681250D01*
G75*
G02*
X159456250Y-67925000I-243750J0D01*
G01*
X158543750Y-67925000D01*
G75*
G02*
X158300000Y-67681250I0J243750D01*
G01*
X158300000Y-67193750D01*
G75*
G02*
X158543750Y-66950000I243750J0D01*
G01*
G37*
G36*
G01*
X158543750Y-65075000D02*
X159456250Y-65075000D01*
G75*
G02*
X159700000Y-65318750I0J-243750D01*
G01*
X159700000Y-65806250D01*
G75*
G02*
X159456250Y-66050000I-243750J0D01*
G01*
X158543750Y-66050000D01*
G75*
G02*
X158300000Y-65806250I0J243750D01*
G01*
X158300000Y-65318750D01*
G75*
G02*
X158543750Y-65075000I243750J0D01*
G01*
G37*
G36*
G01*
X160543750Y-66950000D02*
X161456250Y-66950000D01*
G75*
G02*
X161700000Y-67193750I0J-243750D01*
G01*
X161700000Y-67681250D01*
G75*
G02*
X161456250Y-67925000I-243750J0D01*
G01*
X160543750Y-67925000D01*
G75*
G02*
X160300000Y-67681250I0J243750D01*
G01*
X160300000Y-67193750D01*
G75*
G02*
X160543750Y-66950000I243750J0D01*
G01*
G37*
G36*
G01*
X160543750Y-65075000D02*
X161456250Y-65075000D01*
G75*
G02*
X161700000Y-65318750I0J-243750D01*
G01*
X161700000Y-65806250D01*
G75*
G02*
X161456250Y-66050000I-243750J0D01*
G01*
X160543750Y-66050000D01*
G75*
G02*
X160300000Y-65806250I0J243750D01*
G01*
X160300000Y-65318750D01*
G75*
G02*
X160543750Y-65075000I243750J0D01*
G01*
G37*
G36*
G01*
X31550000Y-50043750D02*
X31550000Y-50956250D01*
G75*
G02*
X31306250Y-51200000I-243750J0D01*
G01*
X30818750Y-51200000D01*
G75*
G02*
X30575000Y-50956250I0J243750D01*
G01*
X30575000Y-50043750D01*
G75*
G02*
X30818750Y-49800000I243750J0D01*
G01*
X31306250Y-49800000D01*
G75*
G02*
X31550000Y-50043750I0J-243750D01*
G01*
G37*
G36*
G01*
X33425000Y-50043750D02*
X33425000Y-50956250D01*
G75*
G02*
X33181250Y-51200000I-243750J0D01*
G01*
X32693750Y-51200000D01*
G75*
G02*
X32450000Y-50956250I0J243750D01*
G01*
X32450000Y-50043750D01*
G75*
G02*
X32693750Y-49800000I243750J0D01*
G01*
X33181250Y-49800000D01*
G75*
G02*
X33425000Y-50043750I0J-243750D01*
G01*
G37*
G36*
G01*
X169956250Y-25550000D02*
X169043750Y-25550000D01*
G75*
G02*
X168800000Y-25306250I0J243750D01*
G01*
X168800000Y-24818750D01*
G75*
G02*
X169043750Y-24575000I243750J0D01*
G01*
X169956250Y-24575000D01*
G75*
G02*
X170200000Y-24818750I0J-243750D01*
G01*
X170200000Y-25306250D01*
G75*
G02*
X169956250Y-25550000I-243750J0D01*
G01*
G37*
G36*
G01*
X169956250Y-27425000D02*
X169043750Y-27425000D01*
G75*
G02*
X168800000Y-27181250I0J243750D01*
G01*
X168800000Y-26693750D01*
G75*
G02*
X169043750Y-26450000I243750J0D01*
G01*
X169956250Y-26450000D01*
G75*
G02*
X170200000Y-26693750I0J-243750D01*
G01*
X170200000Y-27181250D01*
G75*
G02*
X169956250Y-27425000I-243750J0D01*
G01*
G37*
G36*
G01*
X196956250Y-58050000D02*
X196043750Y-58050000D01*
G75*
G02*
X195800000Y-57806250I0J243750D01*
G01*
X195800000Y-57318750D01*
G75*
G02*
X196043750Y-57075000I243750J0D01*
G01*
X196956250Y-57075000D01*
G75*
G02*
X197200000Y-57318750I0J-243750D01*
G01*
X197200000Y-57806250D01*
G75*
G02*
X196956250Y-58050000I-243750J0D01*
G01*
G37*
G36*
G01*
X196956250Y-59925000D02*
X196043750Y-59925000D01*
G75*
G02*
X195800000Y-59681250I0J243750D01*
G01*
X195800000Y-59193750D01*
G75*
G02*
X196043750Y-58950000I243750J0D01*
G01*
X196956250Y-58950000D01*
G75*
G02*
X197200000Y-59193750I0J-243750D01*
G01*
X197200000Y-59681250D01*
G75*
G02*
X196956250Y-59925000I-243750J0D01*
G01*
G37*
G36*
G01*
X170543750Y-34450000D02*
X171456250Y-34450000D01*
G75*
G02*
X171700000Y-34693750I0J-243750D01*
G01*
X171700000Y-35181250D01*
G75*
G02*
X171456250Y-35425000I-243750J0D01*
G01*
X170543750Y-35425000D01*
G75*
G02*
X170300000Y-35181250I0J243750D01*
G01*
X170300000Y-34693750D01*
G75*
G02*
X170543750Y-34450000I243750J0D01*
G01*
G37*
G36*
G01*
X170543750Y-32575000D02*
X171456250Y-32575000D01*
G75*
G02*
X171700000Y-32818750I0J-243750D01*
G01*
X171700000Y-33306250D01*
G75*
G02*
X171456250Y-33550000I-243750J0D01*
G01*
X170543750Y-33550000D01*
G75*
G02*
X170300000Y-33306250I0J243750D01*
G01*
X170300000Y-32818750D01*
G75*
G02*
X170543750Y-32575000I243750J0D01*
G01*
G37*
G36*
G01*
X172543750Y-34450000D02*
X173456250Y-34450000D01*
G75*
G02*
X173700000Y-34693750I0J-243750D01*
G01*
X173700000Y-35181250D01*
G75*
G02*
X173456250Y-35425000I-243750J0D01*
G01*
X172543750Y-35425000D01*
G75*
G02*
X172300000Y-35181250I0J243750D01*
G01*
X172300000Y-34693750D01*
G75*
G02*
X172543750Y-34450000I243750J0D01*
G01*
G37*
G36*
G01*
X172543750Y-32575000D02*
X173456250Y-32575000D01*
G75*
G02*
X173700000Y-32818750I0J-243750D01*
G01*
X173700000Y-33306250D01*
G75*
G02*
X173456250Y-33550000I-243750J0D01*
G01*
X172543750Y-33550000D01*
G75*
G02*
X172300000Y-33306250I0J243750D01*
G01*
X172300000Y-32818750D01*
G75*
G02*
X172543750Y-32575000I243750J0D01*
G01*
G37*
G36*
G01*
X197543750Y-66950000D02*
X198456250Y-66950000D01*
G75*
G02*
X198700000Y-67193750I0J-243750D01*
G01*
X198700000Y-67681250D01*
G75*
G02*
X198456250Y-67925000I-243750J0D01*
G01*
X197543750Y-67925000D01*
G75*
G02*
X197300000Y-67681250I0J243750D01*
G01*
X197300000Y-67193750D01*
G75*
G02*
X197543750Y-66950000I243750J0D01*
G01*
G37*
G36*
G01*
X197543750Y-65075000D02*
X198456250Y-65075000D01*
G75*
G02*
X198700000Y-65318750I0J-243750D01*
G01*
X198700000Y-65806250D01*
G75*
G02*
X198456250Y-66050000I-243750J0D01*
G01*
X197543750Y-66050000D01*
G75*
G02*
X197300000Y-65806250I0J243750D01*
G01*
X197300000Y-65318750D01*
G75*
G02*
X197543750Y-65075000I243750J0D01*
G01*
G37*
G36*
G01*
X199543750Y-66950000D02*
X200456250Y-66950000D01*
G75*
G02*
X200700000Y-67193750I0J-243750D01*
G01*
X200700000Y-67681250D01*
G75*
G02*
X200456250Y-67925000I-243750J0D01*
G01*
X199543750Y-67925000D01*
G75*
G02*
X199300000Y-67681250I0J243750D01*
G01*
X199300000Y-67193750D01*
G75*
G02*
X199543750Y-66950000I243750J0D01*
G01*
G37*
G36*
G01*
X199543750Y-65075000D02*
X200456250Y-65075000D01*
G75*
G02*
X200700000Y-65318750I0J-243750D01*
G01*
X200700000Y-65806250D01*
G75*
G02*
X200456250Y-66050000I-243750J0D01*
G01*
X199543750Y-66050000D01*
G75*
G02*
X199300000Y-65806250I0J243750D01*
G01*
X199300000Y-65318750D01*
G75*
G02*
X199543750Y-65075000I243750J0D01*
G01*
G37*
G36*
G01*
X31550000Y-63043750D02*
X31550000Y-63956250D01*
G75*
G02*
X31306250Y-64200000I-243750J0D01*
G01*
X30818750Y-64200000D01*
G75*
G02*
X30575000Y-63956250I0J243750D01*
G01*
X30575000Y-63043750D01*
G75*
G02*
X30818750Y-62800000I243750J0D01*
G01*
X31306250Y-62800000D01*
G75*
G02*
X31550000Y-63043750I0J-243750D01*
G01*
G37*
G36*
G01*
X33425000Y-63043750D02*
X33425000Y-63956250D01*
G75*
G02*
X33181250Y-64200000I-243750J0D01*
G01*
X32693750Y-64200000D01*
G75*
G02*
X32450000Y-63956250I0J243750D01*
G01*
X32450000Y-63043750D01*
G75*
G02*
X32693750Y-62800000I243750J0D01*
G01*
X33181250Y-62800000D01*
G75*
G02*
X33425000Y-63043750I0J-243750D01*
G01*
G37*
G36*
G01*
X40956250Y-58050000D02*
X40043750Y-58050000D01*
G75*
G02*
X39800000Y-57806250I0J243750D01*
G01*
X39800000Y-57318750D01*
G75*
G02*
X40043750Y-57075000I243750J0D01*
G01*
X40956250Y-57075000D01*
G75*
G02*
X41200000Y-57318750I0J-243750D01*
G01*
X41200000Y-57806250D01*
G75*
G02*
X40956250Y-58050000I-243750J0D01*
G01*
G37*
G36*
G01*
X40956250Y-59925000D02*
X40043750Y-59925000D01*
G75*
G02*
X39800000Y-59681250I0J243750D01*
G01*
X39800000Y-59193750D01*
G75*
G02*
X40043750Y-58950000I243750J0D01*
G01*
X40956250Y-58950000D01*
G75*
G02*
X41200000Y-59193750I0J-243750D01*
G01*
X41200000Y-59681250D01*
G75*
G02*
X40956250Y-59925000I-243750J0D01*
G01*
G37*
G36*
G01*
X31550000Y-76043750D02*
X31550000Y-76956250D01*
G75*
G02*
X31306250Y-77200000I-243750J0D01*
G01*
X30818750Y-77200000D01*
G75*
G02*
X30575000Y-76956250I0J243750D01*
G01*
X30575000Y-76043750D01*
G75*
G02*
X30818750Y-75800000I243750J0D01*
G01*
X31306250Y-75800000D01*
G75*
G02*
X31550000Y-76043750I0J-243750D01*
G01*
G37*
G36*
G01*
X33425000Y-76043750D02*
X33425000Y-76956250D01*
G75*
G02*
X33181250Y-77200000I-243750J0D01*
G01*
X32693750Y-77200000D01*
G75*
G02*
X32450000Y-76956250I0J243750D01*
G01*
X32450000Y-76043750D01*
G75*
G02*
X32693750Y-75800000I243750J0D01*
G01*
X33181250Y-75800000D01*
G75*
G02*
X33425000Y-76043750I0J-243750D01*
G01*
G37*
G36*
G01*
X41543750Y-66950000D02*
X42456250Y-66950000D01*
G75*
G02*
X42700000Y-67193750I0J-243750D01*
G01*
X42700000Y-67681250D01*
G75*
G02*
X42456250Y-67925000I-243750J0D01*
G01*
X41543750Y-67925000D01*
G75*
G02*
X41300000Y-67681250I0J243750D01*
G01*
X41300000Y-67193750D01*
G75*
G02*
X41543750Y-66950000I243750J0D01*
G01*
G37*
G36*
G01*
X41543750Y-65075000D02*
X42456250Y-65075000D01*
G75*
G02*
X42700000Y-65318750I0J-243750D01*
G01*
X42700000Y-65806250D01*
G75*
G02*
X42456250Y-66050000I-243750J0D01*
G01*
X41543750Y-66050000D01*
G75*
G02*
X41300000Y-65806250I0J243750D01*
G01*
X41300000Y-65318750D01*
G75*
G02*
X41543750Y-65075000I243750J0D01*
G01*
G37*
G36*
G01*
X43543750Y-66950000D02*
X44456250Y-66950000D01*
G75*
G02*
X44700000Y-67193750I0J-243750D01*
G01*
X44700000Y-67681250D01*
G75*
G02*
X44456250Y-67925000I-243750J0D01*
G01*
X43543750Y-67925000D01*
G75*
G02*
X43300000Y-67681250I0J243750D01*
G01*
X43300000Y-67193750D01*
G75*
G02*
X43543750Y-66950000I243750J0D01*
G01*
G37*
G36*
G01*
X43543750Y-65075000D02*
X44456250Y-65075000D01*
G75*
G02*
X44700000Y-65318750I0J-243750D01*
G01*
X44700000Y-65806250D01*
G75*
G02*
X44456250Y-66050000I-243750J0D01*
G01*
X43543750Y-66050000D01*
G75*
G02*
X43300000Y-65806250I0J243750D01*
G01*
X43300000Y-65318750D01*
G75*
G02*
X43543750Y-65075000I243750J0D01*
G01*
G37*
G36*
G01*
X69950000Y-23956250D02*
X69950000Y-23043750D01*
G75*
G02*
X70193750Y-22800000I243750J0D01*
G01*
X70681250Y-22800000D01*
G75*
G02*
X70925000Y-23043750I0J-243750D01*
G01*
X70925000Y-23956250D01*
G75*
G02*
X70681250Y-24200000I-243750J0D01*
G01*
X70193750Y-24200000D01*
G75*
G02*
X69950000Y-23956250I0J243750D01*
G01*
G37*
G36*
G01*
X68075000Y-23956250D02*
X68075000Y-23043750D01*
G75*
G02*
X68318750Y-22800000I243750J0D01*
G01*
X68806250Y-22800000D01*
G75*
G02*
X69050000Y-23043750I0J-243750D01*
G01*
X69050000Y-23956250D01*
G75*
G02*
X68806250Y-24200000I-243750J0D01*
G01*
X68318750Y-24200000D01*
G75*
G02*
X68075000Y-23956250I0J243750D01*
G01*
G37*
G36*
G01*
X149450000Y-23956250D02*
X149450000Y-23043750D01*
G75*
G02*
X149693750Y-22800000I243750J0D01*
G01*
X150181250Y-22800000D01*
G75*
G02*
X150425000Y-23043750I0J-243750D01*
G01*
X150425000Y-23956250D01*
G75*
G02*
X150181250Y-24200000I-243750J0D01*
G01*
X149693750Y-24200000D01*
G75*
G02*
X149450000Y-23956250I0J243750D01*
G01*
G37*
G36*
G01*
X147575000Y-23956250D02*
X147575000Y-23043750D01*
G75*
G02*
X147818750Y-22800000I243750J0D01*
G01*
X148306250Y-22800000D01*
G75*
G02*
X148550000Y-23043750I0J-243750D01*
G01*
X148550000Y-23956250D01*
G75*
G02*
X148306250Y-24200000I-243750J0D01*
G01*
X147818750Y-24200000D01*
G75*
G02*
X147575000Y-23956250I0J243750D01*
G01*
G37*
G36*
G01*
X65550000Y-53543750D02*
X65550000Y-54456250D01*
G75*
G02*
X65306250Y-54700000I-243750J0D01*
G01*
X64818750Y-54700000D01*
G75*
G02*
X64575000Y-54456250I0J243750D01*
G01*
X64575000Y-53543750D01*
G75*
G02*
X64818750Y-53300000I243750J0D01*
G01*
X65306250Y-53300000D01*
G75*
G02*
X65550000Y-53543750I0J-243750D01*
G01*
G37*
G36*
G01*
X67425000Y-53543750D02*
X67425000Y-54456250D01*
G75*
G02*
X67181250Y-54700000I-243750J0D01*
G01*
X66693750Y-54700000D01*
G75*
G02*
X66450000Y-54456250I0J243750D01*
G01*
X66450000Y-53543750D01*
G75*
G02*
X66693750Y-53300000I243750J0D01*
G01*
X67181250Y-53300000D01*
G75*
G02*
X67425000Y-53543750I0J-243750D01*
G01*
G37*
G36*
G01*
X144550000Y-53543750D02*
X144550000Y-54456250D01*
G75*
G02*
X144306250Y-54700000I-243750J0D01*
G01*
X143818750Y-54700000D01*
G75*
G02*
X143575000Y-54456250I0J243750D01*
G01*
X143575000Y-53543750D01*
G75*
G02*
X143818750Y-53300000I243750J0D01*
G01*
X144306250Y-53300000D01*
G75*
G02*
X144550000Y-53543750I0J-243750D01*
G01*
G37*
G36*
G01*
X146425000Y-53543750D02*
X146425000Y-54456250D01*
G75*
G02*
X146181250Y-54700000I-243750J0D01*
G01*
X145693750Y-54700000D01*
G75*
G02*
X145450000Y-54456250I0J243750D01*
G01*
X145450000Y-53543750D01*
G75*
G02*
X145693750Y-53300000I243750J0D01*
G01*
X146181250Y-53300000D01*
G75*
G02*
X146425000Y-53543750I0J-243750D01*
G01*
G37*
G36*
G01*
X208950000Y-53456250D02*
X208950000Y-52543750D01*
G75*
G02*
X209193750Y-52300000I243750J0D01*
G01*
X209681250Y-52300000D01*
G75*
G02*
X209925000Y-52543750I0J-243750D01*
G01*
X209925000Y-53456250D01*
G75*
G02*
X209681250Y-53700000I-243750J0D01*
G01*
X209193750Y-53700000D01*
G75*
G02*
X208950000Y-53456250I0J243750D01*
G01*
G37*
G36*
G01*
X207075000Y-53456250D02*
X207075000Y-52543750D01*
G75*
G02*
X207318750Y-52300000I243750J0D01*
G01*
X207806250Y-52300000D01*
G75*
G02*
X208050000Y-52543750I0J-243750D01*
G01*
X208050000Y-53456250D01*
G75*
G02*
X207806250Y-53700000I-243750J0D01*
G01*
X207318750Y-53700000D01*
G75*
G02*
X207075000Y-53456250I0J243750D01*
G01*
G37*
G36*
G01*
X209450000Y-70956250D02*
X209450000Y-70043750D01*
G75*
G02*
X209693750Y-69800000I243750J0D01*
G01*
X210181250Y-69800000D01*
G75*
G02*
X210425000Y-70043750I0J-243750D01*
G01*
X210425000Y-70956250D01*
G75*
G02*
X210181250Y-71200000I-243750J0D01*
G01*
X209693750Y-71200000D01*
G75*
G02*
X209450000Y-70956250I0J243750D01*
G01*
G37*
G36*
G01*
X207575000Y-70956250D02*
X207575000Y-70043750D01*
G75*
G02*
X207818750Y-69800000I243750J0D01*
G01*
X208306250Y-69800000D01*
G75*
G02*
X208550000Y-70043750I0J-243750D01*
G01*
X208550000Y-70956250D01*
G75*
G02*
X208306250Y-71200000I-243750J0D01*
G01*
X207818750Y-71200000D01*
G75*
G02*
X207575000Y-70956250I0J243750D01*
G01*
G37*
G36*
G01*
X79456250Y-66050000D02*
X78543750Y-66050000D01*
G75*
G02*
X78300000Y-65806250I0J243750D01*
G01*
X78300000Y-65318750D01*
G75*
G02*
X78543750Y-65075000I243750J0D01*
G01*
X79456250Y-65075000D01*
G75*
G02*
X79700000Y-65318750I0J-243750D01*
G01*
X79700000Y-65806250D01*
G75*
G02*
X79456250Y-66050000I-243750J0D01*
G01*
G37*
G36*
G01*
X79456250Y-67925000D02*
X78543750Y-67925000D01*
G75*
G02*
X78300000Y-67681250I0J243750D01*
G01*
X78300000Y-67193750D01*
G75*
G02*
X78543750Y-66950000I243750J0D01*
G01*
X79456250Y-66950000D01*
G75*
G02*
X79700000Y-67193750I0J-243750D01*
G01*
X79700000Y-67681250D01*
G75*
G02*
X79456250Y-67925000I-243750J0D01*
G01*
G37*
G36*
G01*
X76543750Y-66950000D02*
X77456250Y-66950000D01*
G75*
G02*
X77700000Y-67193750I0J-243750D01*
G01*
X77700000Y-67681250D01*
G75*
G02*
X77456250Y-67925000I-243750J0D01*
G01*
X76543750Y-67925000D01*
G75*
G02*
X76300000Y-67681250I0J243750D01*
G01*
X76300000Y-67193750D01*
G75*
G02*
X76543750Y-66950000I243750J0D01*
G01*
G37*
G36*
G01*
X76543750Y-65075000D02*
X77456250Y-65075000D01*
G75*
G02*
X77700000Y-65318750I0J-243750D01*
G01*
X77700000Y-65806250D01*
G75*
G02*
X77456250Y-66050000I-243750J0D01*
G01*
X76543750Y-66050000D01*
G75*
G02*
X76300000Y-65806250I0J243750D01*
G01*
X76300000Y-65318750D01*
G75*
G02*
X76543750Y-65075000I243750J0D01*
G01*
G37*
G36*
G01*
X86543750Y-66950000D02*
X87456250Y-66950000D01*
G75*
G02*
X87700000Y-67193750I0J-243750D01*
G01*
X87700000Y-67681250D01*
G75*
G02*
X87456250Y-67925000I-243750J0D01*
G01*
X86543750Y-67925000D01*
G75*
G02*
X86300000Y-67681250I0J243750D01*
G01*
X86300000Y-67193750D01*
G75*
G02*
X86543750Y-66950000I243750J0D01*
G01*
G37*
G36*
G01*
X86543750Y-65075000D02*
X87456250Y-65075000D01*
G75*
G02*
X87700000Y-65318750I0J-243750D01*
G01*
X87700000Y-65806250D01*
G75*
G02*
X87456250Y-66050000I-243750J0D01*
G01*
X86543750Y-66050000D01*
G75*
G02*
X86300000Y-65806250I0J243750D01*
G01*
X86300000Y-65318750D01*
G75*
G02*
X86543750Y-65075000I243750J0D01*
G01*
G37*
G36*
G01*
X57956250Y-25550000D02*
X57043750Y-25550000D01*
G75*
G02*
X56800000Y-25306250I0J243750D01*
G01*
X56800000Y-24818750D01*
G75*
G02*
X57043750Y-24575000I243750J0D01*
G01*
X57956250Y-24575000D01*
G75*
G02*
X58200000Y-24818750I0J-243750D01*
G01*
X58200000Y-25306250D01*
G75*
G02*
X57956250Y-25550000I-243750J0D01*
G01*
G37*
G36*
G01*
X57956250Y-27425000D02*
X57043750Y-27425000D01*
G75*
G02*
X56800000Y-27181250I0J243750D01*
G01*
X56800000Y-26693750D01*
G75*
G02*
X57043750Y-26450000I243750J0D01*
G01*
X57956250Y-26450000D01*
G75*
G02*
X58200000Y-26693750I0J-243750D01*
G01*
X58200000Y-27181250D01*
G75*
G02*
X57956250Y-27425000I-243750J0D01*
G01*
G37*
G36*
G01*
X84956250Y-58050000D02*
X84043750Y-58050000D01*
G75*
G02*
X83800000Y-57806250I0J243750D01*
G01*
X83800000Y-57318750D01*
G75*
G02*
X84043750Y-57075000I243750J0D01*
G01*
X84956250Y-57075000D01*
G75*
G02*
X85200000Y-57318750I0J-243750D01*
G01*
X85200000Y-57806250D01*
G75*
G02*
X84956250Y-58050000I-243750J0D01*
G01*
G37*
G36*
G01*
X84956250Y-59925000D02*
X84043750Y-59925000D01*
G75*
G02*
X83800000Y-59681250I0J243750D01*
G01*
X83800000Y-59193750D01*
G75*
G02*
X84043750Y-58950000I243750J0D01*
G01*
X84956250Y-58950000D01*
G75*
G02*
X85200000Y-59193750I0J-243750D01*
G01*
X85200000Y-59681250D01*
G75*
G02*
X84956250Y-59925000I-243750J0D01*
G01*
G37*
G36*
G01*
X55456250Y-25550000D02*
X54543750Y-25550000D01*
G75*
G02*
X54300000Y-25306250I0J243750D01*
G01*
X54300000Y-24818750D01*
G75*
G02*
X54543750Y-24575000I243750J0D01*
G01*
X55456250Y-24575000D01*
G75*
G02*
X55700000Y-24818750I0J-243750D01*
G01*
X55700000Y-25306250D01*
G75*
G02*
X55456250Y-25550000I-243750J0D01*
G01*
G37*
G36*
G01*
X55456250Y-27425000D02*
X54543750Y-27425000D01*
G75*
G02*
X54300000Y-27181250I0J243750D01*
G01*
X54300000Y-26693750D01*
G75*
G02*
X54543750Y-26450000I243750J0D01*
G01*
X55456250Y-26450000D01*
G75*
G02*
X55700000Y-26693750I0J-243750D01*
G01*
X55700000Y-27181250D01*
G75*
G02*
X55456250Y-27425000I-243750J0D01*
G01*
G37*
G36*
G01*
X82456250Y-58050000D02*
X81543750Y-58050000D01*
G75*
G02*
X81300000Y-57806250I0J243750D01*
G01*
X81300000Y-57318750D01*
G75*
G02*
X81543750Y-57075000I243750J0D01*
G01*
X82456250Y-57075000D01*
G75*
G02*
X82700000Y-57318750I0J-243750D01*
G01*
X82700000Y-57806250D01*
G75*
G02*
X82456250Y-58050000I-243750J0D01*
G01*
G37*
G36*
G01*
X82456250Y-59925000D02*
X81543750Y-59925000D01*
G75*
G02*
X81300000Y-59681250I0J243750D01*
G01*
X81300000Y-59193750D01*
G75*
G02*
X81543750Y-58950000I243750J0D01*
G01*
X82456250Y-58950000D01*
G75*
G02*
X82700000Y-59193750I0J-243750D01*
G01*
X82700000Y-59681250D01*
G75*
G02*
X82456250Y-59925000I-243750J0D01*
G01*
G37*
G36*
G01*
X85456250Y-66050000D02*
X84543750Y-66050000D01*
G75*
G02*
X84300000Y-65806250I0J243750D01*
G01*
X84300000Y-65318750D01*
G75*
G02*
X84543750Y-65075000I243750J0D01*
G01*
X85456250Y-65075000D01*
G75*
G02*
X85700000Y-65318750I0J-243750D01*
G01*
X85700000Y-65806250D01*
G75*
G02*
X85456250Y-66050000I-243750J0D01*
G01*
G37*
G36*
G01*
X85456250Y-67925000D02*
X84543750Y-67925000D01*
G75*
G02*
X84300000Y-67681250I0J243750D01*
G01*
X84300000Y-67193750D01*
G75*
G02*
X84543750Y-66950000I243750J0D01*
G01*
X85456250Y-66950000D01*
G75*
G02*
X85700000Y-67193750I0J-243750D01*
G01*
X85700000Y-67681250D01*
G75*
G02*
X85456250Y-67925000I-243750J0D01*
G01*
G37*
G36*
G01*
X245550000Y-55043750D02*
X245550000Y-55956250D01*
G75*
G02*
X245306250Y-56200000I-243750J0D01*
G01*
X244818750Y-56200000D01*
G75*
G02*
X244575000Y-55956250I0J243750D01*
G01*
X244575000Y-55043750D01*
G75*
G02*
X244818750Y-54800000I243750J0D01*
G01*
X245306250Y-54800000D01*
G75*
G02*
X245550000Y-55043750I0J-243750D01*
G01*
G37*
G36*
G01*
X247425000Y-55043750D02*
X247425000Y-55956250D01*
G75*
G02*
X247181250Y-56200000I-243750J0D01*
G01*
X246693750Y-56200000D01*
G75*
G02*
X246450000Y-55956250I0J243750D01*
G01*
X246450000Y-55043750D01*
G75*
G02*
X246693750Y-54800000I243750J0D01*
G01*
X247181250Y-54800000D01*
G75*
G02*
X247425000Y-55043750I0J-243750D01*
G01*
G37*
G36*
G01*
X91456250Y-33550000D02*
X90543750Y-33550000D01*
G75*
G02*
X90300000Y-33306250I0J243750D01*
G01*
X90300000Y-32818750D01*
G75*
G02*
X90543750Y-32575000I243750J0D01*
G01*
X91456250Y-32575000D01*
G75*
G02*
X91700000Y-32818750I0J-243750D01*
G01*
X91700000Y-33306250D01*
G75*
G02*
X91456250Y-33550000I-243750J0D01*
G01*
G37*
G36*
G01*
X91456250Y-35425000D02*
X90543750Y-35425000D01*
G75*
G02*
X90300000Y-35181250I0J243750D01*
G01*
X90300000Y-34693750D01*
G75*
G02*
X90543750Y-34450000I243750J0D01*
G01*
X91456250Y-34450000D01*
G75*
G02*
X91700000Y-34693750I0J-243750D01*
G01*
X91700000Y-35181250D01*
G75*
G02*
X91456250Y-35425000I-243750J0D01*
G01*
G37*
G36*
G01*
X88543750Y-34450000D02*
X89456250Y-34450000D01*
G75*
G02*
X89700000Y-34693750I0J-243750D01*
G01*
X89700000Y-35181250D01*
G75*
G02*
X89456250Y-35425000I-243750J0D01*
G01*
X88543750Y-35425000D01*
G75*
G02*
X88300000Y-35181250I0J243750D01*
G01*
X88300000Y-34693750D01*
G75*
G02*
X88543750Y-34450000I243750J0D01*
G01*
G37*
G36*
G01*
X88543750Y-32575000D02*
X89456250Y-32575000D01*
G75*
G02*
X89700000Y-32818750I0J-243750D01*
G01*
X89700000Y-33306250D01*
G75*
G02*
X89456250Y-33550000I-243750J0D01*
G01*
X88543750Y-33550000D01*
G75*
G02*
X88300000Y-33306250I0J243750D01*
G01*
X88300000Y-32818750D01*
G75*
G02*
X88543750Y-32575000I243750J0D01*
G01*
G37*
G36*
G01*
X98543750Y-34450000D02*
X99456250Y-34450000D01*
G75*
G02*
X99700000Y-34693750I0J-243750D01*
G01*
X99700000Y-35181250D01*
G75*
G02*
X99456250Y-35425000I-243750J0D01*
G01*
X98543750Y-35425000D01*
G75*
G02*
X98300000Y-35181250I0J243750D01*
G01*
X98300000Y-34693750D01*
G75*
G02*
X98543750Y-34450000I243750J0D01*
G01*
G37*
G36*
G01*
X98543750Y-32575000D02*
X99456250Y-32575000D01*
G75*
G02*
X99700000Y-32818750I0J-243750D01*
G01*
X99700000Y-33306250D01*
G75*
G02*
X99456250Y-33550000I-243750J0D01*
G01*
X98543750Y-33550000D01*
G75*
G02*
X98300000Y-33306250I0J243750D01*
G01*
X98300000Y-32818750D01*
G75*
G02*
X98543750Y-32575000I243750J0D01*
G01*
G37*
G36*
G01*
X118456250Y-66050000D02*
X117543750Y-66050000D01*
G75*
G02*
X117300000Y-65806250I0J243750D01*
G01*
X117300000Y-65318750D01*
G75*
G02*
X117543750Y-65075000I243750J0D01*
G01*
X118456250Y-65075000D01*
G75*
G02*
X118700000Y-65318750I0J-243750D01*
G01*
X118700000Y-65806250D01*
G75*
G02*
X118456250Y-66050000I-243750J0D01*
G01*
G37*
G36*
G01*
X118456250Y-67925000D02*
X117543750Y-67925000D01*
G75*
G02*
X117300000Y-67681250I0J243750D01*
G01*
X117300000Y-67193750D01*
G75*
G02*
X117543750Y-66950000I243750J0D01*
G01*
X118456250Y-66950000D01*
G75*
G02*
X118700000Y-67193750I0J-243750D01*
G01*
X118700000Y-67681250D01*
G75*
G02*
X118456250Y-67925000I-243750J0D01*
G01*
G37*
G36*
G01*
X115543750Y-66950000D02*
X116456250Y-66950000D01*
G75*
G02*
X116700000Y-67193750I0J-243750D01*
G01*
X116700000Y-67681250D01*
G75*
G02*
X116456250Y-67925000I-243750J0D01*
G01*
X115543750Y-67925000D01*
G75*
G02*
X115300000Y-67681250I0J243750D01*
G01*
X115300000Y-67193750D01*
G75*
G02*
X115543750Y-66950000I243750J0D01*
G01*
G37*
G36*
G01*
X115543750Y-65075000D02*
X116456250Y-65075000D01*
G75*
G02*
X116700000Y-65318750I0J-243750D01*
G01*
X116700000Y-65806250D01*
G75*
G02*
X116456250Y-66050000I-243750J0D01*
G01*
X115543750Y-66050000D01*
G75*
G02*
X115300000Y-65806250I0J243750D01*
G01*
X115300000Y-65318750D01*
G75*
G02*
X115543750Y-65075000I243750J0D01*
G01*
G37*
G36*
G01*
X125543750Y-66950000D02*
X126456250Y-66950000D01*
G75*
G02*
X126700000Y-67193750I0J-243750D01*
G01*
X126700000Y-67681250D01*
G75*
G02*
X126456250Y-67925000I-243750J0D01*
G01*
X125543750Y-67925000D01*
G75*
G02*
X125300000Y-67681250I0J243750D01*
G01*
X125300000Y-67193750D01*
G75*
G02*
X125543750Y-66950000I243750J0D01*
G01*
G37*
G36*
G01*
X125543750Y-65075000D02*
X126456250Y-65075000D01*
G75*
G02*
X126700000Y-65318750I0J-243750D01*
G01*
X126700000Y-65806250D01*
G75*
G02*
X126456250Y-66050000I-243750J0D01*
G01*
X125543750Y-66050000D01*
G75*
G02*
X125300000Y-65806250I0J243750D01*
G01*
X125300000Y-65318750D01*
G75*
G02*
X125543750Y-65075000I243750J0D01*
G01*
G37*
G36*
G01*
X96956250Y-25550000D02*
X96043750Y-25550000D01*
G75*
G02*
X95800000Y-25306250I0J243750D01*
G01*
X95800000Y-24818750D01*
G75*
G02*
X96043750Y-24575000I243750J0D01*
G01*
X96956250Y-24575000D01*
G75*
G02*
X97200000Y-24818750I0J-243750D01*
G01*
X97200000Y-25306250D01*
G75*
G02*
X96956250Y-25550000I-243750J0D01*
G01*
G37*
G36*
G01*
X96956250Y-27425000D02*
X96043750Y-27425000D01*
G75*
G02*
X95800000Y-27181250I0J243750D01*
G01*
X95800000Y-26693750D01*
G75*
G02*
X96043750Y-26450000I243750J0D01*
G01*
X96956250Y-26450000D01*
G75*
G02*
X97200000Y-26693750I0J-243750D01*
G01*
X97200000Y-27181250D01*
G75*
G02*
X96956250Y-27425000I-243750J0D01*
G01*
G37*
G36*
G01*
X123956250Y-58050000D02*
X123043750Y-58050000D01*
G75*
G02*
X122800000Y-57806250I0J243750D01*
G01*
X122800000Y-57318750D01*
G75*
G02*
X123043750Y-57075000I243750J0D01*
G01*
X123956250Y-57075000D01*
G75*
G02*
X124200000Y-57318750I0J-243750D01*
G01*
X124200000Y-57806250D01*
G75*
G02*
X123956250Y-58050000I-243750J0D01*
G01*
G37*
G36*
G01*
X123956250Y-59925000D02*
X123043750Y-59925000D01*
G75*
G02*
X122800000Y-59681250I0J243750D01*
G01*
X122800000Y-59193750D01*
G75*
G02*
X123043750Y-58950000I243750J0D01*
G01*
X123956250Y-58950000D01*
G75*
G02*
X124200000Y-59193750I0J-243750D01*
G01*
X124200000Y-59681250D01*
G75*
G02*
X123956250Y-59925000I-243750J0D01*
G01*
G37*
G36*
G01*
X94456250Y-25550000D02*
X93543750Y-25550000D01*
G75*
G02*
X93300000Y-25306250I0J243750D01*
G01*
X93300000Y-24818750D01*
G75*
G02*
X93543750Y-24575000I243750J0D01*
G01*
X94456250Y-24575000D01*
G75*
G02*
X94700000Y-24818750I0J-243750D01*
G01*
X94700000Y-25306250D01*
G75*
G02*
X94456250Y-25550000I-243750J0D01*
G01*
G37*
G36*
G01*
X94456250Y-27425000D02*
X93543750Y-27425000D01*
G75*
G02*
X93300000Y-27181250I0J243750D01*
G01*
X93300000Y-26693750D01*
G75*
G02*
X93543750Y-26450000I243750J0D01*
G01*
X94456250Y-26450000D01*
G75*
G02*
X94700000Y-26693750I0J-243750D01*
G01*
X94700000Y-27181250D01*
G75*
G02*
X94456250Y-27425000I-243750J0D01*
G01*
G37*
G36*
G01*
X121456250Y-58050000D02*
X120543750Y-58050000D01*
G75*
G02*
X120300000Y-57806250I0J243750D01*
G01*
X120300000Y-57318750D01*
G75*
G02*
X120543750Y-57075000I243750J0D01*
G01*
X121456250Y-57075000D01*
G75*
G02*
X121700000Y-57318750I0J-243750D01*
G01*
X121700000Y-57806250D01*
G75*
G02*
X121456250Y-58050000I-243750J0D01*
G01*
G37*
G36*
G01*
X121456250Y-59925000D02*
X120543750Y-59925000D01*
G75*
G02*
X120300000Y-59681250I0J243750D01*
G01*
X120300000Y-59193750D01*
G75*
G02*
X120543750Y-58950000I243750J0D01*
G01*
X121456250Y-58950000D01*
G75*
G02*
X121700000Y-59193750I0J-243750D01*
G01*
X121700000Y-59681250D01*
G75*
G02*
X121456250Y-59925000I-243750J0D01*
G01*
G37*
G36*
G01*
X97456250Y-33550000D02*
X96543750Y-33550000D01*
G75*
G02*
X96300000Y-33306250I0J243750D01*
G01*
X96300000Y-32818750D01*
G75*
G02*
X96543750Y-32575000I243750J0D01*
G01*
X97456250Y-32575000D01*
G75*
G02*
X97700000Y-32818750I0J-243750D01*
G01*
X97700000Y-33306250D01*
G75*
G02*
X97456250Y-33550000I-243750J0D01*
G01*
G37*
G36*
G01*
X97456250Y-35425000D02*
X96543750Y-35425000D01*
G75*
G02*
X96300000Y-35181250I0J243750D01*
G01*
X96300000Y-34693750D01*
G75*
G02*
X96543750Y-34450000I243750J0D01*
G01*
X97456250Y-34450000D01*
G75*
G02*
X97700000Y-34693750I0J-243750D01*
G01*
X97700000Y-35181250D01*
G75*
G02*
X97456250Y-35425000I-243750J0D01*
G01*
G37*
G36*
G01*
X124456250Y-66050000D02*
X123543750Y-66050000D01*
G75*
G02*
X123300000Y-65806250I0J243750D01*
G01*
X123300000Y-65318750D01*
G75*
G02*
X123543750Y-65075000I243750J0D01*
G01*
X124456250Y-65075000D01*
G75*
G02*
X124700000Y-65318750I0J-243750D01*
G01*
X124700000Y-65806250D01*
G75*
G02*
X124456250Y-66050000I-243750J0D01*
G01*
G37*
G36*
G01*
X124456250Y-67925000D02*
X123543750Y-67925000D01*
G75*
G02*
X123300000Y-67681250I0J243750D01*
G01*
X123300000Y-67193750D01*
G75*
G02*
X123543750Y-66950000I243750J0D01*
G01*
X124456250Y-66950000D01*
G75*
G02*
X124700000Y-67193750I0J-243750D01*
G01*
X124700000Y-67681250D01*
G75*
G02*
X124456250Y-67925000I-243750J0D01*
G01*
G37*
G36*
G01*
X208050000Y-27543750D02*
X208050000Y-28456250D01*
G75*
G02*
X207806250Y-28700000I-243750J0D01*
G01*
X207318750Y-28700000D01*
G75*
G02*
X207075000Y-28456250I0J243750D01*
G01*
X207075000Y-27543750D01*
G75*
G02*
X207318750Y-27300000I243750J0D01*
G01*
X207806250Y-27300000D01*
G75*
G02*
X208050000Y-27543750I0J-243750D01*
G01*
G37*
G36*
G01*
X209925000Y-27543750D02*
X209925000Y-28456250D01*
G75*
G02*
X209681250Y-28700000I-243750J0D01*
G01*
X209193750Y-28700000D01*
G75*
G02*
X208950000Y-28456250I0J243750D01*
G01*
X208950000Y-27543750D01*
G75*
G02*
X209193750Y-27300000I243750J0D01*
G01*
X209681250Y-27300000D01*
G75*
G02*
X209925000Y-27543750I0J-243750D01*
G01*
G37*
G36*
G01*
X130456250Y-34050000D02*
X129543750Y-34050000D01*
G75*
G02*
X129300000Y-33806250I0J243750D01*
G01*
X129300000Y-33318750D01*
G75*
G02*
X129543750Y-33075000I243750J0D01*
G01*
X130456250Y-33075000D01*
G75*
G02*
X130700000Y-33318750I0J-243750D01*
G01*
X130700000Y-33806250D01*
G75*
G02*
X130456250Y-34050000I-243750J0D01*
G01*
G37*
G36*
G01*
X130456250Y-35925000D02*
X129543750Y-35925000D01*
G75*
G02*
X129300000Y-35681250I0J243750D01*
G01*
X129300000Y-35193750D01*
G75*
G02*
X129543750Y-34950000I243750J0D01*
G01*
X130456250Y-34950000D01*
G75*
G02*
X130700000Y-35193750I0J-243750D01*
G01*
X130700000Y-35681250D01*
G75*
G02*
X130456250Y-35925000I-243750J0D01*
G01*
G37*
G36*
G01*
X127543750Y-34950000D02*
X128456250Y-34950000D01*
G75*
G02*
X128700000Y-35193750I0J-243750D01*
G01*
X128700000Y-35681250D01*
G75*
G02*
X128456250Y-35925000I-243750J0D01*
G01*
X127543750Y-35925000D01*
G75*
G02*
X127300000Y-35681250I0J243750D01*
G01*
X127300000Y-35193750D01*
G75*
G02*
X127543750Y-34950000I243750J0D01*
G01*
G37*
G36*
G01*
X127543750Y-33075000D02*
X128456250Y-33075000D01*
G75*
G02*
X128700000Y-33318750I0J-243750D01*
G01*
X128700000Y-33806250D01*
G75*
G02*
X128456250Y-34050000I-243750J0D01*
G01*
X127543750Y-34050000D01*
G75*
G02*
X127300000Y-33806250I0J243750D01*
G01*
X127300000Y-33318750D01*
G75*
G02*
X127543750Y-33075000I243750J0D01*
G01*
G37*
G36*
G01*
X137543750Y-34950000D02*
X138456250Y-34950000D01*
G75*
G02*
X138700000Y-35193750I0J-243750D01*
G01*
X138700000Y-35681250D01*
G75*
G02*
X138456250Y-35925000I-243750J0D01*
G01*
X137543750Y-35925000D01*
G75*
G02*
X137300000Y-35681250I0J243750D01*
G01*
X137300000Y-35193750D01*
G75*
G02*
X137543750Y-34950000I243750J0D01*
G01*
G37*
G36*
G01*
X137543750Y-33075000D02*
X138456250Y-33075000D01*
G75*
G02*
X138700000Y-33318750I0J-243750D01*
G01*
X138700000Y-33806250D01*
G75*
G02*
X138456250Y-34050000I-243750J0D01*
G01*
X137543750Y-34050000D01*
G75*
G02*
X137300000Y-33806250I0J243750D01*
G01*
X137300000Y-33318750D01*
G75*
G02*
X137543750Y-33075000I243750J0D01*
G01*
G37*
G36*
G01*
X157456250Y-66050000D02*
X156543750Y-66050000D01*
G75*
G02*
X156300000Y-65806250I0J243750D01*
G01*
X156300000Y-65318750D01*
G75*
G02*
X156543750Y-65075000I243750J0D01*
G01*
X157456250Y-65075000D01*
G75*
G02*
X157700000Y-65318750I0J-243750D01*
G01*
X157700000Y-65806250D01*
G75*
G02*
X157456250Y-66050000I-243750J0D01*
G01*
G37*
G36*
G01*
X157456250Y-67925000D02*
X156543750Y-67925000D01*
G75*
G02*
X156300000Y-67681250I0J243750D01*
G01*
X156300000Y-67193750D01*
G75*
G02*
X156543750Y-66950000I243750J0D01*
G01*
X157456250Y-66950000D01*
G75*
G02*
X157700000Y-67193750I0J-243750D01*
G01*
X157700000Y-67681250D01*
G75*
G02*
X157456250Y-67925000I-243750J0D01*
G01*
G37*
G36*
G01*
X154543750Y-66950000D02*
X155456250Y-66950000D01*
G75*
G02*
X155700000Y-67193750I0J-243750D01*
G01*
X155700000Y-67681250D01*
G75*
G02*
X155456250Y-67925000I-243750J0D01*
G01*
X154543750Y-67925000D01*
G75*
G02*
X154300000Y-67681250I0J243750D01*
G01*
X154300000Y-67193750D01*
G75*
G02*
X154543750Y-66950000I243750J0D01*
G01*
G37*
G36*
G01*
X154543750Y-65075000D02*
X155456250Y-65075000D01*
G75*
G02*
X155700000Y-65318750I0J-243750D01*
G01*
X155700000Y-65806250D01*
G75*
G02*
X155456250Y-66050000I-243750J0D01*
G01*
X154543750Y-66050000D01*
G75*
G02*
X154300000Y-65806250I0J243750D01*
G01*
X154300000Y-65318750D01*
G75*
G02*
X154543750Y-65075000I243750J0D01*
G01*
G37*
G36*
G01*
X164543750Y-66950000D02*
X165456250Y-66950000D01*
G75*
G02*
X165700000Y-67193750I0J-243750D01*
G01*
X165700000Y-67681250D01*
G75*
G02*
X165456250Y-67925000I-243750J0D01*
G01*
X164543750Y-67925000D01*
G75*
G02*
X164300000Y-67681250I0J243750D01*
G01*
X164300000Y-67193750D01*
G75*
G02*
X164543750Y-66950000I243750J0D01*
G01*
G37*
G36*
G01*
X164543750Y-65075000D02*
X165456250Y-65075000D01*
G75*
G02*
X165700000Y-65318750I0J-243750D01*
G01*
X165700000Y-65806250D01*
G75*
G02*
X165456250Y-66050000I-243750J0D01*
G01*
X164543750Y-66050000D01*
G75*
G02*
X164300000Y-65806250I0J243750D01*
G01*
X164300000Y-65318750D01*
G75*
G02*
X164543750Y-65075000I243750J0D01*
G01*
G37*
G36*
G01*
X135956250Y-25550000D02*
X135043750Y-25550000D01*
G75*
G02*
X134800000Y-25306250I0J243750D01*
G01*
X134800000Y-24818750D01*
G75*
G02*
X135043750Y-24575000I243750J0D01*
G01*
X135956250Y-24575000D01*
G75*
G02*
X136200000Y-24818750I0J-243750D01*
G01*
X136200000Y-25306250D01*
G75*
G02*
X135956250Y-25550000I-243750J0D01*
G01*
G37*
G36*
G01*
X135956250Y-27425000D02*
X135043750Y-27425000D01*
G75*
G02*
X134800000Y-27181250I0J243750D01*
G01*
X134800000Y-26693750D01*
G75*
G02*
X135043750Y-26450000I243750J0D01*
G01*
X135956250Y-26450000D01*
G75*
G02*
X136200000Y-26693750I0J-243750D01*
G01*
X136200000Y-27181250D01*
G75*
G02*
X135956250Y-27425000I-243750J0D01*
G01*
G37*
G36*
G01*
X162956250Y-58050000D02*
X162043750Y-58050000D01*
G75*
G02*
X161800000Y-57806250I0J243750D01*
G01*
X161800000Y-57318750D01*
G75*
G02*
X162043750Y-57075000I243750J0D01*
G01*
X162956250Y-57075000D01*
G75*
G02*
X163200000Y-57318750I0J-243750D01*
G01*
X163200000Y-57806250D01*
G75*
G02*
X162956250Y-58050000I-243750J0D01*
G01*
G37*
G36*
G01*
X162956250Y-59925000D02*
X162043750Y-59925000D01*
G75*
G02*
X161800000Y-59681250I0J243750D01*
G01*
X161800000Y-59193750D01*
G75*
G02*
X162043750Y-58950000I243750J0D01*
G01*
X162956250Y-58950000D01*
G75*
G02*
X163200000Y-59193750I0J-243750D01*
G01*
X163200000Y-59681250D01*
G75*
G02*
X162956250Y-59925000I-243750J0D01*
G01*
G37*
G36*
G01*
X133456250Y-25550000D02*
X132543750Y-25550000D01*
G75*
G02*
X132300000Y-25306250I0J243750D01*
G01*
X132300000Y-24818750D01*
G75*
G02*
X132543750Y-24575000I243750J0D01*
G01*
X133456250Y-24575000D01*
G75*
G02*
X133700000Y-24818750I0J-243750D01*
G01*
X133700000Y-25306250D01*
G75*
G02*
X133456250Y-25550000I-243750J0D01*
G01*
G37*
G36*
G01*
X133456250Y-27425000D02*
X132543750Y-27425000D01*
G75*
G02*
X132300000Y-27181250I0J243750D01*
G01*
X132300000Y-26693750D01*
G75*
G02*
X132543750Y-26450000I243750J0D01*
G01*
X133456250Y-26450000D01*
G75*
G02*
X133700000Y-26693750I0J-243750D01*
G01*
X133700000Y-27181250D01*
G75*
G02*
X133456250Y-27425000I-243750J0D01*
G01*
G37*
G36*
G01*
X160456250Y-58050000D02*
X159543750Y-58050000D01*
G75*
G02*
X159300000Y-57806250I0J243750D01*
G01*
X159300000Y-57318750D01*
G75*
G02*
X159543750Y-57075000I243750J0D01*
G01*
X160456250Y-57075000D01*
G75*
G02*
X160700000Y-57318750I0J-243750D01*
G01*
X160700000Y-57806250D01*
G75*
G02*
X160456250Y-58050000I-243750J0D01*
G01*
G37*
G36*
G01*
X160456250Y-59925000D02*
X159543750Y-59925000D01*
G75*
G02*
X159300000Y-59681250I0J243750D01*
G01*
X159300000Y-59193750D01*
G75*
G02*
X159543750Y-58950000I243750J0D01*
G01*
X160456250Y-58950000D01*
G75*
G02*
X160700000Y-59193750I0J-243750D01*
G01*
X160700000Y-59681250D01*
G75*
G02*
X160456250Y-59925000I-243750J0D01*
G01*
G37*
G36*
G01*
X31550000Y-32543750D02*
X31550000Y-33456250D01*
G75*
G02*
X31306250Y-33700000I-243750J0D01*
G01*
X30818750Y-33700000D01*
G75*
G02*
X30575000Y-33456250I0J243750D01*
G01*
X30575000Y-32543750D01*
G75*
G02*
X30818750Y-32300000I243750J0D01*
G01*
X31306250Y-32300000D01*
G75*
G02*
X31550000Y-32543750I0J-243750D01*
G01*
G37*
G36*
G01*
X33425000Y-32543750D02*
X33425000Y-33456250D01*
G75*
G02*
X33181250Y-33700000I-243750J0D01*
G01*
X32693750Y-33700000D01*
G75*
G02*
X32450000Y-33456250I0J243750D01*
G01*
X32450000Y-32543750D01*
G75*
G02*
X32693750Y-32300000I243750J0D01*
G01*
X33181250Y-32300000D01*
G75*
G02*
X33425000Y-32543750I0J-243750D01*
G01*
G37*
G36*
G01*
X136456250Y-34050000D02*
X135543750Y-34050000D01*
G75*
G02*
X135300000Y-33806250I0J243750D01*
G01*
X135300000Y-33318750D01*
G75*
G02*
X135543750Y-33075000I243750J0D01*
G01*
X136456250Y-33075000D01*
G75*
G02*
X136700000Y-33318750I0J-243750D01*
G01*
X136700000Y-33806250D01*
G75*
G02*
X136456250Y-34050000I-243750J0D01*
G01*
G37*
G36*
G01*
X136456250Y-35925000D02*
X135543750Y-35925000D01*
G75*
G02*
X135300000Y-35681250I0J243750D01*
G01*
X135300000Y-35193750D01*
G75*
G02*
X135543750Y-34950000I243750J0D01*
G01*
X136456250Y-34950000D01*
G75*
G02*
X136700000Y-35193750I0J-243750D01*
G01*
X136700000Y-35681250D01*
G75*
G02*
X136456250Y-35925000I-243750J0D01*
G01*
G37*
G36*
G01*
X163456250Y-66050000D02*
X162543750Y-66050000D01*
G75*
G02*
X162300000Y-65806250I0J243750D01*
G01*
X162300000Y-65318750D01*
G75*
G02*
X162543750Y-65075000I243750J0D01*
G01*
X163456250Y-65075000D01*
G75*
G02*
X163700000Y-65318750I0J-243750D01*
G01*
X163700000Y-65806250D01*
G75*
G02*
X163456250Y-66050000I-243750J0D01*
G01*
G37*
G36*
G01*
X163456250Y-67925000D02*
X162543750Y-67925000D01*
G75*
G02*
X162300000Y-67681250I0J243750D01*
G01*
X162300000Y-67193750D01*
G75*
G02*
X162543750Y-66950000I243750J0D01*
G01*
X163456250Y-66950000D01*
G75*
G02*
X163700000Y-67193750I0J-243750D01*
G01*
X163700000Y-67681250D01*
G75*
G02*
X163456250Y-67925000I-243750J0D01*
G01*
G37*
G36*
G01*
X31550000Y-45543750D02*
X31550000Y-46456250D01*
G75*
G02*
X31306250Y-46700000I-243750J0D01*
G01*
X30818750Y-46700000D01*
G75*
G02*
X30575000Y-46456250I0J243750D01*
G01*
X30575000Y-45543750D01*
G75*
G02*
X30818750Y-45300000I243750J0D01*
G01*
X31306250Y-45300000D01*
G75*
G02*
X31550000Y-45543750I0J-243750D01*
G01*
G37*
G36*
G01*
X33425000Y-45543750D02*
X33425000Y-46456250D01*
G75*
G02*
X33181250Y-46700000I-243750J0D01*
G01*
X32693750Y-46700000D01*
G75*
G02*
X32450000Y-46456250I0J243750D01*
G01*
X32450000Y-45543750D01*
G75*
G02*
X32693750Y-45300000I243750J0D01*
G01*
X33181250Y-45300000D01*
G75*
G02*
X33425000Y-45543750I0J-243750D01*
G01*
G37*
G36*
G01*
X169456250Y-33550000D02*
X168543750Y-33550000D01*
G75*
G02*
X168300000Y-33306250I0J243750D01*
G01*
X168300000Y-32818750D01*
G75*
G02*
X168543750Y-32575000I243750J0D01*
G01*
X169456250Y-32575000D01*
G75*
G02*
X169700000Y-32818750I0J-243750D01*
G01*
X169700000Y-33306250D01*
G75*
G02*
X169456250Y-33550000I-243750J0D01*
G01*
G37*
G36*
G01*
X169456250Y-35425000D02*
X168543750Y-35425000D01*
G75*
G02*
X168300000Y-35181250I0J243750D01*
G01*
X168300000Y-34693750D01*
G75*
G02*
X168543750Y-34450000I243750J0D01*
G01*
X169456250Y-34450000D01*
G75*
G02*
X169700000Y-34693750I0J-243750D01*
G01*
X169700000Y-35181250D01*
G75*
G02*
X169456250Y-35425000I-243750J0D01*
G01*
G37*
G36*
G01*
X166543750Y-34450000D02*
X167456250Y-34450000D01*
G75*
G02*
X167700000Y-34693750I0J-243750D01*
G01*
X167700000Y-35181250D01*
G75*
G02*
X167456250Y-35425000I-243750J0D01*
G01*
X166543750Y-35425000D01*
G75*
G02*
X166300000Y-35181250I0J243750D01*
G01*
X166300000Y-34693750D01*
G75*
G02*
X166543750Y-34450000I243750J0D01*
G01*
G37*
G36*
G01*
X166543750Y-32575000D02*
X167456250Y-32575000D01*
G75*
G02*
X167700000Y-32818750I0J-243750D01*
G01*
X167700000Y-33306250D01*
G75*
G02*
X167456250Y-33550000I-243750J0D01*
G01*
X166543750Y-33550000D01*
G75*
G02*
X166300000Y-33306250I0J243750D01*
G01*
X166300000Y-32818750D01*
G75*
G02*
X166543750Y-32575000I243750J0D01*
G01*
G37*
G36*
G01*
X176543750Y-34450000D02*
X177456250Y-34450000D01*
G75*
G02*
X177700000Y-34693750I0J-243750D01*
G01*
X177700000Y-35181250D01*
G75*
G02*
X177456250Y-35425000I-243750J0D01*
G01*
X176543750Y-35425000D01*
G75*
G02*
X176300000Y-35181250I0J243750D01*
G01*
X176300000Y-34693750D01*
G75*
G02*
X176543750Y-34450000I243750J0D01*
G01*
G37*
G36*
G01*
X176543750Y-32575000D02*
X177456250Y-32575000D01*
G75*
G02*
X177700000Y-32818750I0J-243750D01*
G01*
X177700000Y-33306250D01*
G75*
G02*
X177456250Y-33550000I-243750J0D01*
G01*
X176543750Y-33550000D01*
G75*
G02*
X176300000Y-33306250I0J243750D01*
G01*
X176300000Y-32818750D01*
G75*
G02*
X176543750Y-32575000I243750J0D01*
G01*
G37*
G36*
G01*
X174956250Y-25550000D02*
X174043750Y-25550000D01*
G75*
G02*
X173800000Y-25306250I0J243750D01*
G01*
X173800000Y-24818750D01*
G75*
G02*
X174043750Y-24575000I243750J0D01*
G01*
X174956250Y-24575000D01*
G75*
G02*
X175200000Y-24818750I0J-243750D01*
G01*
X175200000Y-25306250D01*
G75*
G02*
X174956250Y-25550000I-243750J0D01*
G01*
G37*
G36*
G01*
X174956250Y-27425000D02*
X174043750Y-27425000D01*
G75*
G02*
X173800000Y-27181250I0J243750D01*
G01*
X173800000Y-26693750D01*
G75*
G02*
X174043750Y-26450000I243750J0D01*
G01*
X174956250Y-26450000D01*
G75*
G02*
X175200000Y-26693750I0J-243750D01*
G01*
X175200000Y-27181250D01*
G75*
G02*
X174956250Y-27425000I-243750J0D01*
G01*
G37*
G36*
G01*
X196456250Y-66050000D02*
X195543750Y-66050000D01*
G75*
G02*
X195300000Y-65806250I0J243750D01*
G01*
X195300000Y-65318750D01*
G75*
G02*
X195543750Y-65075000I243750J0D01*
G01*
X196456250Y-65075000D01*
G75*
G02*
X196700000Y-65318750I0J-243750D01*
G01*
X196700000Y-65806250D01*
G75*
G02*
X196456250Y-66050000I-243750J0D01*
G01*
G37*
G36*
G01*
X196456250Y-67925000D02*
X195543750Y-67925000D01*
G75*
G02*
X195300000Y-67681250I0J243750D01*
G01*
X195300000Y-67193750D01*
G75*
G02*
X195543750Y-66950000I243750J0D01*
G01*
X196456250Y-66950000D01*
G75*
G02*
X196700000Y-67193750I0J-243750D01*
G01*
X196700000Y-67681250D01*
G75*
G02*
X196456250Y-67925000I-243750J0D01*
G01*
G37*
G36*
G01*
X193543750Y-66950000D02*
X194456250Y-66950000D01*
G75*
G02*
X194700000Y-67193750I0J-243750D01*
G01*
X194700000Y-67681250D01*
G75*
G02*
X194456250Y-67925000I-243750J0D01*
G01*
X193543750Y-67925000D01*
G75*
G02*
X193300000Y-67681250I0J243750D01*
G01*
X193300000Y-67193750D01*
G75*
G02*
X193543750Y-66950000I243750J0D01*
G01*
G37*
G36*
G01*
X193543750Y-65075000D02*
X194456250Y-65075000D01*
G75*
G02*
X194700000Y-65318750I0J-243750D01*
G01*
X194700000Y-65806250D01*
G75*
G02*
X194456250Y-66050000I-243750J0D01*
G01*
X193543750Y-66050000D01*
G75*
G02*
X193300000Y-65806250I0J243750D01*
G01*
X193300000Y-65318750D01*
G75*
G02*
X193543750Y-65075000I243750J0D01*
G01*
G37*
G36*
G01*
X203543750Y-66950000D02*
X204456250Y-66950000D01*
G75*
G02*
X204700000Y-67193750I0J-243750D01*
G01*
X204700000Y-67681250D01*
G75*
G02*
X204456250Y-67925000I-243750J0D01*
G01*
X203543750Y-67925000D01*
G75*
G02*
X203300000Y-67681250I0J243750D01*
G01*
X203300000Y-67193750D01*
G75*
G02*
X203543750Y-66950000I243750J0D01*
G01*
G37*
G36*
G01*
X203543750Y-65075000D02*
X204456250Y-65075000D01*
G75*
G02*
X204700000Y-65318750I0J-243750D01*
G01*
X204700000Y-65806250D01*
G75*
G02*
X204456250Y-66050000I-243750J0D01*
G01*
X203543750Y-66050000D01*
G75*
G02*
X203300000Y-65806250I0J243750D01*
G01*
X203300000Y-65318750D01*
G75*
G02*
X203543750Y-65075000I243750J0D01*
G01*
G37*
G36*
G01*
X201956250Y-58050000D02*
X201043750Y-58050000D01*
G75*
G02*
X200800000Y-57806250I0J243750D01*
G01*
X200800000Y-57318750D01*
G75*
G02*
X201043750Y-57075000I243750J0D01*
G01*
X201956250Y-57075000D01*
G75*
G02*
X202200000Y-57318750I0J-243750D01*
G01*
X202200000Y-57806250D01*
G75*
G02*
X201956250Y-58050000I-243750J0D01*
G01*
G37*
G36*
G01*
X201956250Y-59925000D02*
X201043750Y-59925000D01*
G75*
G02*
X200800000Y-59681250I0J243750D01*
G01*
X200800000Y-59193750D01*
G75*
G02*
X201043750Y-58950000I243750J0D01*
G01*
X201956250Y-58950000D01*
G75*
G02*
X202200000Y-59193750I0J-243750D01*
G01*
X202200000Y-59681250D01*
G75*
G02*
X201956250Y-59925000I-243750J0D01*
G01*
G37*
G36*
G01*
X172456250Y-25550000D02*
X171543750Y-25550000D01*
G75*
G02*
X171300000Y-25306250I0J243750D01*
G01*
X171300000Y-24818750D01*
G75*
G02*
X171543750Y-24575000I243750J0D01*
G01*
X172456250Y-24575000D01*
G75*
G02*
X172700000Y-24818750I0J-243750D01*
G01*
X172700000Y-25306250D01*
G75*
G02*
X172456250Y-25550000I-243750J0D01*
G01*
G37*
G36*
G01*
X172456250Y-27425000D02*
X171543750Y-27425000D01*
G75*
G02*
X171300000Y-27181250I0J243750D01*
G01*
X171300000Y-26693750D01*
G75*
G02*
X171543750Y-26450000I243750J0D01*
G01*
X172456250Y-26450000D01*
G75*
G02*
X172700000Y-26693750I0J-243750D01*
G01*
X172700000Y-27181250D01*
G75*
G02*
X172456250Y-27425000I-243750J0D01*
G01*
G37*
G36*
G01*
X199456250Y-58050000D02*
X198543750Y-58050000D01*
G75*
G02*
X198300000Y-57806250I0J243750D01*
G01*
X198300000Y-57318750D01*
G75*
G02*
X198543750Y-57075000I243750J0D01*
G01*
X199456250Y-57075000D01*
G75*
G02*
X199700000Y-57318750I0J-243750D01*
G01*
X199700000Y-57806250D01*
G75*
G02*
X199456250Y-58050000I-243750J0D01*
G01*
G37*
G36*
G01*
X199456250Y-59925000D02*
X198543750Y-59925000D01*
G75*
G02*
X198300000Y-59681250I0J243750D01*
G01*
X198300000Y-59193750D01*
G75*
G02*
X198543750Y-58950000I243750J0D01*
G01*
X199456250Y-58950000D01*
G75*
G02*
X199700000Y-59193750I0J-243750D01*
G01*
X199700000Y-59681250D01*
G75*
G02*
X199456250Y-59925000I-243750J0D01*
G01*
G37*
G36*
G01*
X175456250Y-33550000D02*
X174543750Y-33550000D01*
G75*
G02*
X174300000Y-33306250I0J243750D01*
G01*
X174300000Y-32818750D01*
G75*
G02*
X174543750Y-32575000I243750J0D01*
G01*
X175456250Y-32575000D01*
G75*
G02*
X175700000Y-32818750I0J-243750D01*
G01*
X175700000Y-33306250D01*
G75*
G02*
X175456250Y-33550000I-243750J0D01*
G01*
G37*
G36*
G01*
X175456250Y-35425000D02*
X174543750Y-35425000D01*
G75*
G02*
X174300000Y-35181250I0J243750D01*
G01*
X174300000Y-34693750D01*
G75*
G02*
X174543750Y-34450000I243750J0D01*
G01*
X175456250Y-34450000D01*
G75*
G02*
X175700000Y-34693750I0J-243750D01*
G01*
X175700000Y-35181250D01*
G75*
G02*
X175456250Y-35425000I-243750J0D01*
G01*
G37*
G36*
G01*
X202456250Y-66050000D02*
X201543750Y-66050000D01*
G75*
G02*
X201300000Y-65806250I0J243750D01*
G01*
X201300000Y-65318750D01*
G75*
G02*
X201543750Y-65075000I243750J0D01*
G01*
X202456250Y-65075000D01*
G75*
G02*
X202700000Y-65318750I0J-243750D01*
G01*
X202700000Y-65806250D01*
G75*
G02*
X202456250Y-66050000I-243750J0D01*
G01*
G37*
G36*
G01*
X202456250Y-67925000D02*
X201543750Y-67925000D01*
G75*
G02*
X201300000Y-67681250I0J243750D01*
G01*
X201300000Y-67193750D01*
G75*
G02*
X201543750Y-66950000I243750J0D01*
G01*
X202456250Y-66950000D01*
G75*
G02*
X202700000Y-67193750I0J-243750D01*
G01*
X202700000Y-67681250D01*
G75*
G02*
X202456250Y-67925000I-243750J0D01*
G01*
G37*
G36*
G01*
X31550000Y-58543750D02*
X31550000Y-59456250D01*
G75*
G02*
X31306250Y-59700000I-243750J0D01*
G01*
X30818750Y-59700000D01*
G75*
G02*
X30575000Y-59456250I0J243750D01*
G01*
X30575000Y-58543750D01*
G75*
G02*
X30818750Y-58300000I243750J0D01*
G01*
X31306250Y-58300000D01*
G75*
G02*
X31550000Y-58543750I0J-243750D01*
G01*
G37*
G36*
G01*
X33425000Y-58543750D02*
X33425000Y-59456250D01*
G75*
G02*
X33181250Y-59700000I-243750J0D01*
G01*
X32693750Y-59700000D01*
G75*
G02*
X32450000Y-59456250I0J243750D01*
G01*
X32450000Y-58543750D01*
G75*
G02*
X32693750Y-58300000I243750J0D01*
G01*
X33181250Y-58300000D01*
G75*
G02*
X33425000Y-58543750I0J-243750D01*
G01*
G37*
G36*
G01*
X40456250Y-66050000D02*
X39543750Y-66050000D01*
G75*
G02*
X39300000Y-65806250I0J243750D01*
G01*
X39300000Y-65318750D01*
G75*
G02*
X39543750Y-65075000I243750J0D01*
G01*
X40456250Y-65075000D01*
G75*
G02*
X40700000Y-65318750I0J-243750D01*
G01*
X40700000Y-65806250D01*
G75*
G02*
X40456250Y-66050000I-243750J0D01*
G01*
G37*
G36*
G01*
X40456250Y-67925000D02*
X39543750Y-67925000D01*
G75*
G02*
X39300000Y-67681250I0J243750D01*
G01*
X39300000Y-67193750D01*
G75*
G02*
X39543750Y-66950000I243750J0D01*
G01*
X40456250Y-66950000D01*
G75*
G02*
X40700000Y-67193750I0J-243750D01*
G01*
X40700000Y-67681250D01*
G75*
G02*
X40456250Y-67925000I-243750J0D01*
G01*
G37*
G36*
G01*
X37543750Y-66950000D02*
X38456250Y-66950000D01*
G75*
G02*
X38700000Y-67193750I0J-243750D01*
G01*
X38700000Y-67681250D01*
G75*
G02*
X38456250Y-67925000I-243750J0D01*
G01*
X37543750Y-67925000D01*
G75*
G02*
X37300000Y-67681250I0J243750D01*
G01*
X37300000Y-67193750D01*
G75*
G02*
X37543750Y-66950000I243750J0D01*
G01*
G37*
G36*
G01*
X37543750Y-65075000D02*
X38456250Y-65075000D01*
G75*
G02*
X38700000Y-65318750I0J-243750D01*
G01*
X38700000Y-65806250D01*
G75*
G02*
X38456250Y-66050000I-243750J0D01*
G01*
X37543750Y-66050000D01*
G75*
G02*
X37300000Y-65806250I0J243750D01*
G01*
X37300000Y-65318750D01*
G75*
G02*
X37543750Y-65075000I243750J0D01*
G01*
G37*
G36*
G01*
X47543750Y-66950000D02*
X48456250Y-66950000D01*
G75*
G02*
X48700000Y-67193750I0J-243750D01*
G01*
X48700000Y-67681250D01*
G75*
G02*
X48456250Y-67925000I-243750J0D01*
G01*
X47543750Y-67925000D01*
G75*
G02*
X47300000Y-67681250I0J243750D01*
G01*
X47300000Y-67193750D01*
G75*
G02*
X47543750Y-66950000I243750J0D01*
G01*
G37*
G36*
G01*
X47543750Y-65075000D02*
X48456250Y-65075000D01*
G75*
G02*
X48700000Y-65318750I0J-243750D01*
G01*
X48700000Y-65806250D01*
G75*
G02*
X48456250Y-66050000I-243750J0D01*
G01*
X47543750Y-66050000D01*
G75*
G02*
X47300000Y-65806250I0J243750D01*
G01*
X47300000Y-65318750D01*
G75*
G02*
X47543750Y-65075000I243750J0D01*
G01*
G37*
G36*
G01*
X45956250Y-58050000D02*
X45043750Y-58050000D01*
G75*
G02*
X44800000Y-57806250I0J243750D01*
G01*
X44800000Y-57318750D01*
G75*
G02*
X45043750Y-57075000I243750J0D01*
G01*
X45956250Y-57075000D01*
G75*
G02*
X46200000Y-57318750I0J-243750D01*
G01*
X46200000Y-57806250D01*
G75*
G02*
X45956250Y-58050000I-243750J0D01*
G01*
G37*
G36*
G01*
X45956250Y-59925000D02*
X45043750Y-59925000D01*
G75*
G02*
X44800000Y-59681250I0J243750D01*
G01*
X44800000Y-59193750D01*
G75*
G02*
X45043750Y-58950000I243750J0D01*
G01*
X45956250Y-58950000D01*
G75*
G02*
X46200000Y-59193750I0J-243750D01*
G01*
X46200000Y-59681250D01*
G75*
G02*
X45956250Y-59925000I-243750J0D01*
G01*
G37*
G36*
G01*
X43456250Y-58050000D02*
X42543750Y-58050000D01*
G75*
G02*
X42300000Y-57806250I0J243750D01*
G01*
X42300000Y-57318750D01*
G75*
G02*
X42543750Y-57075000I243750J0D01*
G01*
X43456250Y-57075000D01*
G75*
G02*
X43700000Y-57318750I0J-243750D01*
G01*
X43700000Y-57806250D01*
G75*
G02*
X43456250Y-58050000I-243750J0D01*
G01*
G37*
G36*
G01*
X43456250Y-59925000D02*
X42543750Y-59925000D01*
G75*
G02*
X42300000Y-59681250I0J243750D01*
G01*
X42300000Y-59193750D01*
G75*
G02*
X42543750Y-58950000I243750J0D01*
G01*
X43456250Y-58950000D01*
G75*
G02*
X43700000Y-59193750I0J-243750D01*
G01*
X43700000Y-59681250D01*
G75*
G02*
X43456250Y-59925000I-243750J0D01*
G01*
G37*
G36*
G01*
X31550000Y-71543750D02*
X31550000Y-72456250D01*
G75*
G02*
X31306250Y-72700000I-243750J0D01*
G01*
X30818750Y-72700000D01*
G75*
G02*
X30575000Y-72456250I0J243750D01*
G01*
X30575000Y-71543750D01*
G75*
G02*
X30818750Y-71300000I243750J0D01*
G01*
X31306250Y-71300000D01*
G75*
G02*
X31550000Y-71543750I0J-243750D01*
G01*
G37*
G36*
G01*
X33425000Y-71543750D02*
X33425000Y-72456250D01*
G75*
G02*
X33181250Y-72700000I-243750J0D01*
G01*
X32693750Y-72700000D01*
G75*
G02*
X32450000Y-72456250I0J243750D01*
G01*
X32450000Y-71543750D01*
G75*
G02*
X32693750Y-71300000I243750J0D01*
G01*
X33181250Y-71300000D01*
G75*
G02*
X33425000Y-71543750I0J-243750D01*
G01*
G37*
G36*
G01*
X46456250Y-66050000D02*
X45543750Y-66050000D01*
G75*
G02*
X45300000Y-65806250I0J243750D01*
G01*
X45300000Y-65318750D01*
G75*
G02*
X45543750Y-65075000I243750J0D01*
G01*
X46456250Y-65075000D01*
G75*
G02*
X46700000Y-65318750I0J-243750D01*
G01*
X46700000Y-65806250D01*
G75*
G02*
X46456250Y-66050000I-243750J0D01*
G01*
G37*
G36*
G01*
X46456250Y-67925000D02*
X45543750Y-67925000D01*
G75*
G02*
X45300000Y-67681250I0J243750D01*
G01*
X45300000Y-67193750D01*
G75*
G02*
X45543750Y-66950000I243750J0D01*
G01*
X46456250Y-66950000D01*
G75*
G02*
X46700000Y-67193750I0J-243750D01*
G01*
X46700000Y-67681250D01*
G75*
G02*
X46456250Y-67925000I-243750J0D01*
G01*
G37*
D14*
X204200000Y-38075000D03*
X204200000Y-38725000D03*
X204200000Y-39375000D03*
X204200000Y-40025000D03*
X204200000Y-40675000D03*
X204200000Y-41325000D03*
X204200000Y-41975000D03*
X204200000Y-42625000D03*
X204200000Y-43275000D03*
X204200000Y-43925000D03*
X209800000Y-43925000D03*
X209800000Y-43275000D03*
X209800000Y-42625000D03*
X209800000Y-41975000D03*
X209800000Y-41325000D03*
X209800000Y-40675000D03*
X209800000Y-40025000D03*
X209800000Y-39375000D03*
X209800000Y-38725000D03*
D15*
X209800000Y-38075000D03*
D11*
X67025000Y-25690000D03*
X67025000Y-26960000D03*
X67025000Y-28230000D03*
X67025000Y-29500000D03*
X67025000Y-30770000D03*
X67025000Y-32040000D03*
X67025000Y-33310000D03*
X71975000Y-33310000D03*
X71975000Y-32040000D03*
X71975000Y-30770000D03*
X71975000Y-29500000D03*
X71975000Y-28230000D03*
X71975000Y-26960000D03*
D10*
X71975000Y-25690000D03*
D11*
X147525000Y-25690000D03*
X147525000Y-26960000D03*
X147525000Y-28230000D03*
X147525000Y-29500000D03*
X147525000Y-30770000D03*
X147525000Y-32040000D03*
X147525000Y-33310000D03*
X152475000Y-33310000D03*
X152475000Y-32040000D03*
X152475000Y-30770000D03*
X152475000Y-29500000D03*
X152475000Y-28230000D03*
X152475000Y-26960000D03*
D10*
X152475000Y-25690000D03*
D11*
X67025000Y-56190000D03*
X67025000Y-57460000D03*
X67025000Y-58730000D03*
X67025000Y-60000000D03*
X67025000Y-61270000D03*
X67025000Y-62540000D03*
X67025000Y-63810000D03*
X71975000Y-63810000D03*
X71975000Y-62540000D03*
X71975000Y-61270000D03*
X71975000Y-60000000D03*
X71975000Y-58730000D03*
X71975000Y-57460000D03*
D10*
X71975000Y-56190000D03*
D11*
X146025000Y-56190000D03*
X146025000Y-57460000D03*
X146025000Y-58730000D03*
X146025000Y-60000000D03*
X146025000Y-61270000D03*
X146025000Y-62540000D03*
X146025000Y-63810000D03*
X150975000Y-63810000D03*
X150975000Y-62540000D03*
X150975000Y-61270000D03*
X150975000Y-60000000D03*
X150975000Y-58730000D03*
X150975000Y-57460000D03*
D10*
X150975000Y-56190000D03*
D11*
X208025000Y-55190000D03*
X208025000Y-56460000D03*
X208025000Y-57730000D03*
X208025000Y-59000000D03*
X208025000Y-60270000D03*
X208025000Y-61540000D03*
X208025000Y-62810000D03*
X212975000Y-62810000D03*
X212975000Y-61540000D03*
X212975000Y-60270000D03*
X212975000Y-59000000D03*
X212975000Y-57730000D03*
X212975000Y-56460000D03*
D10*
X212975000Y-55190000D03*
D11*
X208025000Y-72690000D03*
X208025000Y-73960000D03*
X208025000Y-75230000D03*
X208025000Y-76500000D03*
X208025000Y-77770000D03*
X208025000Y-79040000D03*
X208025000Y-80310000D03*
X212975000Y-80310000D03*
X212975000Y-79040000D03*
X212975000Y-77770000D03*
X212975000Y-76500000D03*
X212975000Y-75230000D03*
X212975000Y-73960000D03*
D10*
X212975000Y-72690000D03*
X193975000Y-31595000D03*
D11*
X193975000Y-32865000D03*
X193975000Y-34135000D03*
X193975000Y-35405000D03*
X189025000Y-35405000D03*
X189025000Y-34135000D03*
X189025000Y-32865000D03*
X189025000Y-31595000D03*
D10*
X193975000Y-45595000D03*
D11*
X193975000Y-46865000D03*
X193975000Y-48135000D03*
X193975000Y-49405000D03*
X189025000Y-49405000D03*
X189025000Y-48135000D03*
X189025000Y-46865000D03*
X189025000Y-45595000D03*
G36*
G01*
X59543750Y-46950000D02*
X60456250Y-46950000D01*
G75*
G02*
X60700000Y-47193750I0J-243750D01*
G01*
X60700000Y-47681250D01*
G75*
G02*
X60456250Y-47925000I-243750J0D01*
G01*
X59543750Y-47925000D01*
G75*
G02*
X59300000Y-47681250I0J243750D01*
G01*
X59300000Y-47193750D01*
G75*
G02*
X59543750Y-46950000I243750J0D01*
G01*
G37*
G36*
G01*
X59543750Y-45075000D02*
X60456250Y-45075000D01*
G75*
G02*
X60700000Y-45318750I0J-243750D01*
G01*
X60700000Y-45806250D01*
G75*
G02*
X60456250Y-46050000I-243750J0D01*
G01*
X59543750Y-46050000D01*
G75*
G02*
X59300000Y-45806250I0J243750D01*
G01*
X59300000Y-45318750D01*
G75*
G02*
X59543750Y-45075000I243750J0D01*
G01*
G37*
G36*
G01*
X98543750Y-46950000D02*
X99456250Y-46950000D01*
G75*
G02*
X99700000Y-47193750I0J-243750D01*
G01*
X99700000Y-47681250D01*
G75*
G02*
X99456250Y-47925000I-243750J0D01*
G01*
X98543750Y-47925000D01*
G75*
G02*
X98300000Y-47681250I0J243750D01*
G01*
X98300000Y-47193750D01*
G75*
G02*
X98543750Y-46950000I243750J0D01*
G01*
G37*
G36*
G01*
X98543750Y-45075000D02*
X99456250Y-45075000D01*
G75*
G02*
X99700000Y-45318750I0J-243750D01*
G01*
X99700000Y-45806250D01*
G75*
G02*
X99456250Y-46050000I-243750J0D01*
G01*
X98543750Y-46050000D01*
G75*
G02*
X98300000Y-45806250I0J243750D01*
G01*
X98300000Y-45318750D01*
G75*
G02*
X98543750Y-45075000I243750J0D01*
G01*
G37*
G36*
G01*
X137543750Y-46950000D02*
X138456250Y-46950000D01*
G75*
G02*
X138700000Y-47193750I0J-243750D01*
G01*
X138700000Y-47681250D01*
G75*
G02*
X138456250Y-47925000I-243750J0D01*
G01*
X137543750Y-47925000D01*
G75*
G02*
X137300000Y-47681250I0J243750D01*
G01*
X137300000Y-47193750D01*
G75*
G02*
X137543750Y-46950000I243750J0D01*
G01*
G37*
G36*
G01*
X137543750Y-45075000D02*
X138456250Y-45075000D01*
G75*
G02*
X138700000Y-45318750I0J-243750D01*
G01*
X138700000Y-45806250D01*
G75*
G02*
X138456250Y-46050000I-243750J0D01*
G01*
X137543750Y-46050000D01*
G75*
G02*
X137300000Y-45806250I0J243750D01*
G01*
X137300000Y-45318750D01*
G75*
G02*
X137543750Y-45075000I243750J0D01*
G01*
G37*
G36*
G01*
X176543750Y-46950000D02*
X177456250Y-46950000D01*
G75*
G02*
X177700000Y-47193750I0J-243750D01*
G01*
X177700000Y-47681250D01*
G75*
G02*
X177456250Y-47925000I-243750J0D01*
G01*
X176543750Y-47925000D01*
G75*
G02*
X176300000Y-47681250I0J243750D01*
G01*
X176300000Y-47193750D01*
G75*
G02*
X176543750Y-46950000I243750J0D01*
G01*
G37*
G36*
G01*
X176543750Y-45075000D02*
X177456250Y-45075000D01*
G75*
G02*
X177700000Y-45318750I0J-243750D01*
G01*
X177700000Y-45806250D01*
G75*
G02*
X177456250Y-46050000I-243750J0D01*
G01*
X176543750Y-46050000D01*
G75*
G02*
X176300000Y-45806250I0J243750D01*
G01*
X176300000Y-45318750D01*
G75*
G02*
X176543750Y-45075000I243750J0D01*
G01*
G37*
G36*
G01*
X47543750Y-79450000D02*
X48456250Y-79450000D01*
G75*
G02*
X48700000Y-79693750I0J-243750D01*
G01*
X48700000Y-80181250D01*
G75*
G02*
X48456250Y-80425000I-243750J0D01*
G01*
X47543750Y-80425000D01*
G75*
G02*
X47300000Y-80181250I0J243750D01*
G01*
X47300000Y-79693750D01*
G75*
G02*
X47543750Y-79450000I243750J0D01*
G01*
G37*
G36*
G01*
X47543750Y-77575000D02*
X48456250Y-77575000D01*
G75*
G02*
X48700000Y-77818750I0J-243750D01*
G01*
X48700000Y-78306250D01*
G75*
G02*
X48456250Y-78550000I-243750J0D01*
G01*
X47543750Y-78550000D01*
G75*
G02*
X47300000Y-78306250I0J243750D01*
G01*
X47300000Y-77818750D01*
G75*
G02*
X47543750Y-77575000I243750J0D01*
G01*
G37*
G36*
G01*
X86543750Y-79450000D02*
X87456250Y-79450000D01*
G75*
G02*
X87700000Y-79693750I0J-243750D01*
G01*
X87700000Y-80181250D01*
G75*
G02*
X87456250Y-80425000I-243750J0D01*
G01*
X86543750Y-80425000D01*
G75*
G02*
X86300000Y-80181250I0J243750D01*
G01*
X86300000Y-79693750D01*
G75*
G02*
X86543750Y-79450000I243750J0D01*
G01*
G37*
G36*
G01*
X86543750Y-77575000D02*
X87456250Y-77575000D01*
G75*
G02*
X87700000Y-77818750I0J-243750D01*
G01*
X87700000Y-78306250D01*
G75*
G02*
X87456250Y-78550000I-243750J0D01*
G01*
X86543750Y-78550000D01*
G75*
G02*
X86300000Y-78306250I0J243750D01*
G01*
X86300000Y-77818750D01*
G75*
G02*
X86543750Y-77575000I243750J0D01*
G01*
G37*
G36*
G01*
X125543750Y-79450000D02*
X126456250Y-79450000D01*
G75*
G02*
X126700000Y-79693750I0J-243750D01*
G01*
X126700000Y-80181250D01*
G75*
G02*
X126456250Y-80425000I-243750J0D01*
G01*
X125543750Y-80425000D01*
G75*
G02*
X125300000Y-80181250I0J243750D01*
G01*
X125300000Y-79693750D01*
G75*
G02*
X125543750Y-79450000I243750J0D01*
G01*
G37*
G36*
G01*
X125543750Y-77575000D02*
X126456250Y-77575000D01*
G75*
G02*
X126700000Y-77818750I0J-243750D01*
G01*
X126700000Y-78306250D01*
G75*
G02*
X126456250Y-78550000I-243750J0D01*
G01*
X125543750Y-78550000D01*
G75*
G02*
X125300000Y-78306250I0J243750D01*
G01*
X125300000Y-77818750D01*
G75*
G02*
X125543750Y-77575000I243750J0D01*
G01*
G37*
G36*
G01*
X164543750Y-79450000D02*
X165456250Y-79450000D01*
G75*
G02*
X165700000Y-79693750I0J-243750D01*
G01*
X165700000Y-80181250D01*
G75*
G02*
X165456250Y-80425000I-243750J0D01*
G01*
X164543750Y-80425000D01*
G75*
G02*
X164300000Y-80181250I0J243750D01*
G01*
X164300000Y-79693750D01*
G75*
G02*
X164543750Y-79450000I243750J0D01*
G01*
G37*
G36*
G01*
X164543750Y-77575000D02*
X165456250Y-77575000D01*
G75*
G02*
X165700000Y-77818750I0J-243750D01*
G01*
X165700000Y-78306250D01*
G75*
G02*
X165456250Y-78550000I-243750J0D01*
G01*
X164543750Y-78550000D01*
G75*
G02*
X164300000Y-78306250I0J243750D01*
G01*
X164300000Y-77818750D01*
G75*
G02*
X164543750Y-77575000I243750J0D01*
G01*
G37*
G36*
G01*
X203543750Y-79450000D02*
X204456250Y-79450000D01*
G75*
G02*
X204700000Y-79693750I0J-243750D01*
G01*
X204700000Y-80181250D01*
G75*
G02*
X204456250Y-80425000I-243750J0D01*
G01*
X203543750Y-80425000D01*
G75*
G02*
X203300000Y-80181250I0J243750D01*
G01*
X203300000Y-79693750D01*
G75*
G02*
X203543750Y-79450000I243750J0D01*
G01*
G37*
G36*
G01*
X203543750Y-77575000D02*
X204456250Y-77575000D01*
G75*
G02*
X204700000Y-77818750I0J-243750D01*
G01*
X204700000Y-78306250D01*
G75*
G02*
X204456250Y-78550000I-243750J0D01*
G01*
X203543750Y-78550000D01*
G75*
G02*
X203300000Y-78306250I0J243750D01*
G01*
X203300000Y-77818750D01*
G75*
G02*
X203543750Y-77575000I243750J0D01*
G01*
G37*
G36*
G01*
X186043750Y-24075000D02*
X186956250Y-24075000D01*
G75*
G02*
X187200000Y-24318750I0J-243750D01*
G01*
X187200000Y-24806250D01*
G75*
G02*
X186956250Y-25050000I-243750J0D01*
G01*
X186043750Y-25050000D01*
G75*
G02*
X185800000Y-24806250I0J243750D01*
G01*
X185800000Y-24318750D01*
G75*
G02*
X186043750Y-24075000I243750J0D01*
G01*
G37*
G36*
G01*
X186043750Y-25950000D02*
X186956250Y-25950000D01*
G75*
G02*
X187200000Y-26193750I0J-243750D01*
G01*
X187200000Y-26681250D01*
G75*
G02*
X186956250Y-26925000I-243750J0D01*
G01*
X186043750Y-26925000D01*
G75*
G02*
X185800000Y-26681250I0J243750D01*
G01*
X185800000Y-26193750D01*
G75*
G02*
X186043750Y-25950000I243750J0D01*
G01*
G37*
G36*
G01*
X186043750Y-32950000D02*
X186956250Y-32950000D01*
G75*
G02*
X187200000Y-33193750I0J-243750D01*
G01*
X187200000Y-33681250D01*
G75*
G02*
X186956250Y-33925000I-243750J0D01*
G01*
X186043750Y-33925000D01*
G75*
G02*
X185800000Y-33681250I0J243750D01*
G01*
X185800000Y-33193750D01*
G75*
G02*
X186043750Y-32950000I243750J0D01*
G01*
G37*
G36*
G01*
X186043750Y-31075000D02*
X186956250Y-31075000D01*
G75*
G02*
X187200000Y-31318750I0J-243750D01*
G01*
X187200000Y-31806250D01*
G75*
G02*
X186956250Y-32050000I-243750J0D01*
G01*
X186043750Y-32050000D01*
G75*
G02*
X185800000Y-31806250I0J243750D01*
G01*
X185800000Y-31318750D01*
G75*
G02*
X186043750Y-31075000I243750J0D01*
G01*
G37*
G36*
G01*
X186043750Y-39950000D02*
X186956250Y-39950000D01*
G75*
G02*
X187200000Y-40193750I0J-243750D01*
G01*
X187200000Y-40681250D01*
G75*
G02*
X186956250Y-40925000I-243750J0D01*
G01*
X186043750Y-40925000D01*
G75*
G02*
X185800000Y-40681250I0J243750D01*
G01*
X185800000Y-40193750D01*
G75*
G02*
X186043750Y-39950000I243750J0D01*
G01*
G37*
G36*
G01*
X186043750Y-38075000D02*
X186956250Y-38075000D01*
G75*
G02*
X187200000Y-38318750I0J-243750D01*
G01*
X187200000Y-38806250D01*
G75*
G02*
X186956250Y-39050000I-243750J0D01*
G01*
X186043750Y-39050000D01*
G75*
G02*
X185800000Y-38806250I0J243750D01*
G01*
X185800000Y-38318750D01*
G75*
G02*
X186043750Y-38075000I243750J0D01*
G01*
G37*
G36*
G01*
X186043750Y-45075000D02*
X186956250Y-45075000D01*
G75*
G02*
X187200000Y-45318750I0J-243750D01*
G01*
X187200000Y-45806250D01*
G75*
G02*
X186956250Y-46050000I-243750J0D01*
G01*
X186043750Y-46050000D01*
G75*
G02*
X185800000Y-45806250I0J243750D01*
G01*
X185800000Y-45318750D01*
G75*
G02*
X186043750Y-45075000I243750J0D01*
G01*
G37*
G36*
G01*
X186043750Y-46950000D02*
X186956250Y-46950000D01*
G75*
G02*
X187200000Y-47193750I0J-243750D01*
G01*
X187200000Y-47681250D01*
G75*
G02*
X186956250Y-47925000I-243750J0D01*
G01*
X186043750Y-47925000D01*
G75*
G02*
X185800000Y-47681250I0J243750D01*
G01*
X185800000Y-47193750D01*
G75*
G02*
X186043750Y-46950000I243750J0D01*
G01*
G37*
G36*
G01*
X242950000Y-55956250D02*
X242950000Y-55043750D01*
G75*
G02*
X243193750Y-54800000I243750J0D01*
G01*
X243681250Y-54800000D01*
G75*
G02*
X243925000Y-55043750I0J-243750D01*
G01*
X243925000Y-55956250D01*
G75*
G02*
X243681250Y-56200000I-243750J0D01*
G01*
X243193750Y-56200000D01*
G75*
G02*
X242950000Y-55956250I0J243750D01*
G01*
G37*
G36*
G01*
X241075000Y-55956250D02*
X241075000Y-55043750D01*
G75*
G02*
X241318750Y-54800000I243750J0D01*
G01*
X241806250Y-54800000D01*
G75*
G02*
X242050000Y-55043750I0J-243750D01*
G01*
X242050000Y-55956250D01*
G75*
G02*
X241806250Y-56200000I-243750J0D01*
G01*
X241318750Y-56200000D01*
G75*
G02*
X241075000Y-55956250I0J243750D01*
G01*
G37*
G36*
G01*
X205450000Y-28456250D02*
X205450000Y-27543750D01*
G75*
G02*
X205693750Y-27300000I243750J0D01*
G01*
X206181250Y-27300000D01*
G75*
G02*
X206425000Y-27543750I0J-243750D01*
G01*
X206425000Y-28456250D01*
G75*
G02*
X206181250Y-28700000I-243750J0D01*
G01*
X205693750Y-28700000D01*
G75*
G02*
X205450000Y-28456250I0J243750D01*
G01*
G37*
G36*
G01*
X203575000Y-28456250D02*
X203575000Y-27543750D01*
G75*
G02*
X203818750Y-27300000I243750J0D01*
G01*
X204306250Y-27300000D01*
G75*
G02*
X204550000Y-27543750I0J-243750D01*
G01*
X204550000Y-28456250D01*
G75*
G02*
X204306250Y-28700000I-243750J0D01*
G01*
X203818750Y-28700000D01*
G75*
G02*
X203575000Y-28456250I0J243750D01*
G01*
G37*
G36*
G01*
X28950000Y-33456250D02*
X28950000Y-32543750D01*
G75*
G02*
X29193750Y-32300000I243750J0D01*
G01*
X29681250Y-32300000D01*
G75*
G02*
X29925000Y-32543750I0J-243750D01*
G01*
X29925000Y-33456250D01*
G75*
G02*
X29681250Y-33700000I-243750J0D01*
G01*
X29193750Y-33700000D01*
G75*
G02*
X28950000Y-33456250I0J243750D01*
G01*
G37*
G36*
G01*
X27075000Y-33456250D02*
X27075000Y-32543750D01*
G75*
G02*
X27318750Y-32300000I243750J0D01*
G01*
X27806250Y-32300000D01*
G75*
G02*
X28050000Y-32543750I0J-243750D01*
G01*
X28050000Y-33456250D01*
G75*
G02*
X27806250Y-33700000I-243750J0D01*
G01*
X27318750Y-33700000D01*
G75*
G02*
X27075000Y-33456250I0J243750D01*
G01*
G37*
G36*
G01*
X27075000Y-46456250D02*
X27075000Y-45543750D01*
G75*
G02*
X27318750Y-45300000I243750J0D01*
G01*
X27806250Y-45300000D01*
G75*
G02*
X28050000Y-45543750I0J-243750D01*
G01*
X28050000Y-46456250D01*
G75*
G02*
X27806250Y-46700000I-243750J0D01*
G01*
X27318750Y-46700000D01*
G75*
G02*
X27075000Y-46456250I0J243750D01*
G01*
G37*
G36*
G01*
X28950000Y-46456250D02*
X28950000Y-45543750D01*
G75*
G02*
X29193750Y-45300000I243750J0D01*
G01*
X29681250Y-45300000D01*
G75*
G02*
X29925000Y-45543750I0J-243750D01*
G01*
X29925000Y-46456250D01*
G75*
G02*
X29681250Y-46700000I-243750J0D01*
G01*
X29193750Y-46700000D01*
G75*
G02*
X28950000Y-46456250I0J243750D01*
G01*
G37*
G36*
G01*
X28950000Y-59456250D02*
X28950000Y-58543750D01*
G75*
G02*
X29193750Y-58300000I243750J0D01*
G01*
X29681250Y-58300000D01*
G75*
G02*
X29925000Y-58543750I0J-243750D01*
G01*
X29925000Y-59456250D01*
G75*
G02*
X29681250Y-59700000I-243750J0D01*
G01*
X29193750Y-59700000D01*
G75*
G02*
X28950000Y-59456250I0J243750D01*
G01*
G37*
G36*
G01*
X27075000Y-59456250D02*
X27075000Y-58543750D01*
G75*
G02*
X27318750Y-58300000I243750J0D01*
G01*
X27806250Y-58300000D01*
G75*
G02*
X28050000Y-58543750I0J-243750D01*
G01*
X28050000Y-59456250D01*
G75*
G02*
X27806250Y-59700000I-243750J0D01*
G01*
X27318750Y-59700000D01*
G75*
G02*
X27075000Y-59456250I0J243750D01*
G01*
G37*
G36*
G01*
X27075000Y-72456250D02*
X27075000Y-71543750D01*
G75*
G02*
X27318750Y-71300000I243750J0D01*
G01*
X27806250Y-71300000D01*
G75*
G02*
X28050000Y-71543750I0J-243750D01*
G01*
X28050000Y-72456250D01*
G75*
G02*
X27806250Y-72700000I-243750J0D01*
G01*
X27318750Y-72700000D01*
G75*
G02*
X27075000Y-72456250I0J243750D01*
G01*
G37*
G36*
G01*
X28950000Y-72456250D02*
X28950000Y-71543750D01*
G75*
G02*
X29193750Y-71300000I243750J0D01*
G01*
X29681250Y-71300000D01*
G75*
G02*
X29925000Y-71543750I0J-243750D01*
G01*
X29925000Y-72456250D01*
G75*
G02*
X29681250Y-72700000I-243750J0D01*
G01*
X29193750Y-72700000D01*
G75*
G02*
X28950000Y-72456250I0J243750D01*
G01*
G37*
G36*
G01*
X204550000Y-34043750D02*
X204550000Y-34956250D01*
G75*
G02*
X204306250Y-35200000I-243750J0D01*
G01*
X203818750Y-35200000D01*
G75*
G02*
X203575000Y-34956250I0J243750D01*
G01*
X203575000Y-34043750D01*
G75*
G02*
X203818750Y-33800000I243750J0D01*
G01*
X204306250Y-33800000D01*
G75*
G02*
X204550000Y-34043750I0J-243750D01*
G01*
G37*
G36*
G01*
X206425000Y-34043750D02*
X206425000Y-34956250D01*
G75*
G02*
X206181250Y-35200000I-243750J0D01*
G01*
X205693750Y-35200000D01*
G75*
G02*
X205450000Y-34956250I0J243750D01*
G01*
X205450000Y-34043750D01*
G75*
G02*
X205693750Y-33800000I243750J0D01*
G01*
X206181250Y-33800000D01*
G75*
G02*
X206425000Y-34043750I0J-243750D01*
G01*
G37*
G36*
G01*
X209925000Y-34043750D02*
X209925000Y-34956250D01*
G75*
G02*
X209681250Y-35200000I-243750J0D01*
G01*
X209193750Y-35200000D01*
G75*
G02*
X208950000Y-34956250I0J243750D01*
G01*
X208950000Y-34043750D01*
G75*
G02*
X209193750Y-33800000I243750J0D01*
G01*
X209681250Y-33800000D01*
G75*
G02*
X209925000Y-34043750I0J-243750D01*
G01*
G37*
G36*
G01*
X208050000Y-34043750D02*
X208050000Y-34956250D01*
G75*
G02*
X207806250Y-35200000I-243750J0D01*
G01*
X207318750Y-35200000D01*
G75*
G02*
X207075000Y-34956250I0J243750D01*
G01*
X207075000Y-34043750D01*
G75*
G02*
X207318750Y-33800000I243750J0D01*
G01*
X207806250Y-33800000D01*
G75*
G02*
X208050000Y-34043750I0J-243750D01*
G01*
G37*
M02*
