G04 #@! TF.GenerationSoftware,KiCad,Pcbnew,(5.1.2)-1*
G04 #@! TF.CreationDate,2020-06-02T21:17:14+10:00*
G04 #@! TF.ProjectId,EncoderBoard,456e636f-6465-4724-926f-6172642e6b69,A*
G04 #@! TF.SameCoordinates,Original*
G04 #@! TF.FileFunction,Legend,Bot*
G04 #@! TF.FilePolarity,Positive*
%FSLAX46Y46*%
G04 Gerber Fmt 4.6, Leading zero omitted, Abs format (unit mm)*
G04 Created by KiCad (PCBNEW (5.1.2)-1) date 2020-06-02 21:17:14*
%MOMM*%
%LPD*%
G04 APERTURE LIST*
%ADD10C,0.300000*%
%ADD11C,0.100000*%
%ADD12C,0.120000*%
%ADD13C,0.400000*%
%ADD14C,0.150000*%
%ADD15C,0.180000*%
G04 APERTURE END LIST*
D10*
X99409285Y-101342857D02*
X98909285Y-101342857D01*
X98695000Y-102128571D02*
X99409285Y-102128571D01*
X99409285Y-100628571D01*
X98695000Y-100628571D01*
X98052142Y-101128571D02*
X98052142Y-102128571D01*
X98052142Y-101271428D02*
X97980714Y-101200000D01*
X97837857Y-101128571D01*
X97623571Y-101128571D01*
X97480714Y-101200000D01*
X97409285Y-101342857D01*
X97409285Y-102128571D01*
X96052142Y-102057142D02*
X96195000Y-102128571D01*
X96480714Y-102128571D01*
X96623571Y-102057142D01*
X96695000Y-101985714D01*
X96766428Y-101842857D01*
X96766428Y-101414285D01*
X96695000Y-101271428D01*
X96623571Y-101200000D01*
X96480714Y-101128571D01*
X96195000Y-101128571D01*
X96052142Y-101200000D01*
X95195000Y-102128571D02*
X95337857Y-102057142D01*
X95409285Y-101985714D01*
X95480714Y-101842857D01*
X95480714Y-101414285D01*
X95409285Y-101271428D01*
X95337857Y-101200000D01*
X95195000Y-101128571D01*
X94980714Y-101128571D01*
X94837857Y-101200000D01*
X94766428Y-101271428D01*
X94695000Y-101414285D01*
X94695000Y-101842857D01*
X94766428Y-101985714D01*
X94837857Y-102057142D01*
X94980714Y-102128571D01*
X95195000Y-102128571D01*
X93409285Y-102128571D02*
X93409285Y-100628571D01*
X93409285Y-102057142D02*
X93552142Y-102128571D01*
X93837857Y-102128571D01*
X93980714Y-102057142D01*
X94052142Y-101985714D01*
X94123571Y-101842857D01*
X94123571Y-101414285D01*
X94052142Y-101271428D01*
X93980714Y-101200000D01*
X93837857Y-101128571D01*
X93552142Y-101128571D01*
X93409285Y-101200000D01*
X92123571Y-102057142D02*
X92266428Y-102128571D01*
X92552142Y-102128571D01*
X92695000Y-102057142D01*
X92766428Y-101914285D01*
X92766428Y-101342857D01*
X92695000Y-101200000D01*
X92552142Y-101128571D01*
X92266428Y-101128571D01*
X92123571Y-101200000D01*
X92052142Y-101342857D01*
X92052142Y-101485714D01*
X92766428Y-101628571D01*
X91409285Y-102128571D02*
X91409285Y-101128571D01*
X91409285Y-101414285D02*
X91337857Y-101271428D01*
X91266428Y-101200000D01*
X91123571Y-101128571D01*
X90980714Y-101128571D01*
X88837857Y-101342857D02*
X88623571Y-101414285D01*
X88552142Y-101485714D01*
X88480714Y-101628571D01*
X88480714Y-101842857D01*
X88552142Y-101985714D01*
X88623571Y-102057142D01*
X88766428Y-102128571D01*
X89337857Y-102128571D01*
X89337857Y-100628571D01*
X88837857Y-100628571D01*
X88695000Y-100700000D01*
X88623571Y-100771428D01*
X88552142Y-100914285D01*
X88552142Y-101057142D01*
X88623571Y-101200000D01*
X88695000Y-101271428D01*
X88837857Y-101342857D01*
X89337857Y-101342857D01*
X87623571Y-102128571D02*
X87766428Y-102057142D01*
X87837857Y-101985714D01*
X87909285Y-101842857D01*
X87909285Y-101414285D01*
X87837857Y-101271428D01*
X87766428Y-101200000D01*
X87623571Y-101128571D01*
X87409285Y-101128571D01*
X87266428Y-101200000D01*
X87195000Y-101271428D01*
X87123571Y-101414285D01*
X87123571Y-101842857D01*
X87195000Y-101985714D01*
X87266428Y-102057142D01*
X87409285Y-102128571D01*
X87623571Y-102128571D01*
X85837857Y-102128571D02*
X85837857Y-101342857D01*
X85909285Y-101200000D01*
X86052142Y-101128571D01*
X86337857Y-101128571D01*
X86480714Y-101200000D01*
X85837857Y-102057142D02*
X85980714Y-102128571D01*
X86337857Y-102128571D01*
X86480714Y-102057142D01*
X86552142Y-101914285D01*
X86552142Y-101771428D01*
X86480714Y-101628571D01*
X86337857Y-101557142D01*
X85980714Y-101557142D01*
X85837857Y-101485714D01*
X85123571Y-102128571D02*
X85123571Y-101128571D01*
X85123571Y-101414285D02*
X85052142Y-101271428D01*
X84980714Y-101200000D01*
X84837857Y-101128571D01*
X84695000Y-101128571D01*
X83552142Y-102128571D02*
X83552142Y-100628571D01*
X83552142Y-102057142D02*
X83695000Y-102128571D01*
X83980714Y-102128571D01*
X84123571Y-102057142D01*
X84195000Y-101985714D01*
X84266428Y-101842857D01*
X84266428Y-101414285D01*
X84195000Y-101271428D01*
X84123571Y-101200000D01*
X83980714Y-101128571D01*
X83695000Y-101128571D01*
X83552142Y-101200000D01*
X96980714Y-103892857D02*
X96766428Y-103964285D01*
X96695000Y-104035714D01*
X96623571Y-104178571D01*
X96623571Y-104392857D01*
X96695000Y-104535714D01*
X96766428Y-104607142D01*
X96909285Y-104678571D01*
X97480714Y-104678571D01*
X97480714Y-103178571D01*
X96980714Y-103178571D01*
X96837857Y-103250000D01*
X96766428Y-103321428D01*
X96695000Y-103464285D01*
X96695000Y-103607142D01*
X96766428Y-103750000D01*
X96837857Y-103821428D01*
X96980714Y-103892857D01*
X97480714Y-103892857D01*
X95766428Y-104678571D02*
X95909285Y-104607142D01*
X95980714Y-104464285D01*
X95980714Y-103178571D01*
X94552142Y-104678571D02*
X94552142Y-103892857D01*
X94623571Y-103750000D01*
X94766428Y-103678571D01*
X95052142Y-103678571D01*
X95195000Y-103750000D01*
X94552142Y-104607142D02*
X94695000Y-104678571D01*
X95052142Y-104678571D01*
X95195000Y-104607142D01*
X95266428Y-104464285D01*
X95266428Y-104321428D01*
X95195000Y-104178571D01*
X95052142Y-104107142D01*
X94695000Y-104107142D01*
X94552142Y-104035714D01*
X93837857Y-104678571D02*
X93837857Y-103178571D01*
X93695000Y-104107142D02*
X93266428Y-104678571D01*
X93266428Y-103678571D02*
X93837857Y-104250000D01*
X92052142Y-104607142D02*
X92195000Y-104678571D01*
X92480714Y-104678571D01*
X92623571Y-104607142D01*
X92695000Y-104464285D01*
X92695000Y-103892857D01*
X92623571Y-103750000D01*
X92480714Y-103678571D01*
X92195000Y-103678571D01*
X92052142Y-103750000D01*
X91980714Y-103892857D01*
X91980714Y-104035714D01*
X92695000Y-104178571D01*
X89409285Y-103250000D02*
X89552142Y-103178571D01*
X89766428Y-103178571D01*
X89980714Y-103250000D01*
X90123571Y-103392857D01*
X90195000Y-103535714D01*
X90266428Y-103821428D01*
X90266428Y-104035714D01*
X90195000Y-104321428D01*
X90123571Y-104464285D01*
X89980714Y-104607142D01*
X89766428Y-104678571D01*
X89623571Y-104678571D01*
X89409285Y-104607142D01*
X89337857Y-104535714D01*
X89337857Y-104035714D01*
X89623571Y-104035714D01*
X88052142Y-104678571D02*
X88052142Y-103892857D01*
X88123571Y-103750000D01*
X88266428Y-103678571D01*
X88552142Y-103678571D01*
X88695000Y-103750000D01*
X88052142Y-104607142D02*
X88195000Y-104678571D01*
X88552142Y-104678571D01*
X88695000Y-104607142D01*
X88766428Y-104464285D01*
X88766428Y-104321428D01*
X88695000Y-104178571D01*
X88552142Y-104107142D01*
X88195000Y-104107142D01*
X88052142Y-104035714D01*
X87337857Y-104678571D02*
X87337857Y-103678571D01*
X87337857Y-103964285D02*
X87266428Y-103821428D01*
X87195000Y-103750000D01*
X87052142Y-103678571D01*
X86909285Y-103678571D01*
X86409285Y-103678571D02*
X86409285Y-104678571D01*
X86409285Y-103821428D02*
X86337857Y-103750000D01*
X86195000Y-103678571D01*
X85980714Y-103678571D01*
X85837857Y-103750000D01*
X85766428Y-103892857D01*
X85766428Y-104678571D01*
X84480714Y-104607142D02*
X84623571Y-104678571D01*
X84909285Y-104678571D01*
X85052142Y-104607142D01*
X85123571Y-104464285D01*
X85123571Y-103892857D01*
X85052142Y-103750000D01*
X84909285Y-103678571D01*
X84623571Y-103678571D01*
X84480714Y-103750000D01*
X84409285Y-103892857D01*
X84409285Y-104035714D01*
X85123571Y-104178571D01*
X83766428Y-104678571D02*
X83766428Y-103678571D01*
X83766428Y-103964285D02*
X83695000Y-103821428D01*
X83623571Y-103750000D01*
X83480714Y-103678571D01*
X83337857Y-103678571D01*
X104123571Y-107228571D02*
X104623571Y-106514285D01*
X104980714Y-107228571D02*
X104980714Y-105728571D01*
X104409285Y-105728571D01*
X104266428Y-105800000D01*
X104195000Y-105871428D01*
X104123571Y-106014285D01*
X104123571Y-106228571D01*
X104195000Y-106371428D01*
X104266428Y-106442857D01*
X104409285Y-106514285D01*
X104980714Y-106514285D01*
X102909285Y-107157142D02*
X103052142Y-107228571D01*
X103337857Y-107228571D01*
X103480714Y-107157142D01*
X103552142Y-107014285D01*
X103552142Y-106442857D01*
X103480714Y-106300000D01*
X103337857Y-106228571D01*
X103052142Y-106228571D01*
X102909285Y-106300000D01*
X102837857Y-106442857D01*
X102837857Y-106585714D01*
X103552142Y-106728571D01*
X102337857Y-106228571D02*
X101980714Y-107228571D01*
X101623571Y-106228571D01*
X99409285Y-106442857D02*
X99195000Y-106514285D01*
X99123571Y-106585714D01*
X99052142Y-106728571D01*
X99052142Y-106942857D01*
X99123571Y-107085714D01*
X99195000Y-107157142D01*
X99337857Y-107228571D01*
X99909285Y-107228571D01*
X99909285Y-105728571D01*
X99409285Y-105728571D01*
X99266428Y-105800000D01*
X99195000Y-105871428D01*
X99123571Y-106014285D01*
X99123571Y-106157142D01*
X99195000Y-106300000D01*
X99266428Y-106371428D01*
X99409285Y-106442857D01*
X99909285Y-106442857D01*
X96195000Y-105871428D02*
X96123571Y-105800000D01*
X95980714Y-105728571D01*
X95623571Y-105728571D01*
X95480714Y-105800000D01*
X95409285Y-105871428D01*
X95337857Y-106014285D01*
X95337857Y-106157142D01*
X95409285Y-106371428D01*
X96266428Y-107228571D01*
X95337857Y-107228571D01*
X93123571Y-105728571D02*
X93123571Y-106800000D01*
X93195000Y-107014285D01*
X93337857Y-107157142D01*
X93552142Y-107228571D01*
X93695000Y-107228571D01*
X91766428Y-106228571D02*
X91766428Y-107228571D01*
X92409285Y-106228571D02*
X92409285Y-107014285D01*
X92337857Y-107157142D01*
X92195000Y-107228571D01*
X91980714Y-107228571D01*
X91837857Y-107157142D01*
X91766428Y-107085714D01*
X91052142Y-106228571D02*
X91052142Y-107228571D01*
X91052142Y-106371428D02*
X90980714Y-106300000D01*
X90837857Y-106228571D01*
X90623571Y-106228571D01*
X90480714Y-106300000D01*
X90409285Y-106442857D01*
X90409285Y-107228571D01*
X88623571Y-105871428D02*
X88552142Y-105800000D01*
X88409285Y-105728571D01*
X88052142Y-105728571D01*
X87909285Y-105800000D01*
X87837857Y-105871428D01*
X87766428Y-106014285D01*
X87766428Y-106157142D01*
X87837857Y-106371428D01*
X88695000Y-107228571D01*
X87766428Y-107228571D01*
X86837857Y-105728571D02*
X86695000Y-105728571D01*
X86552142Y-105800000D01*
X86480714Y-105871428D01*
X86409285Y-106014285D01*
X86337857Y-106300000D01*
X86337857Y-106657142D01*
X86409285Y-106942857D01*
X86480714Y-107085714D01*
X86552142Y-107157142D01*
X86695000Y-107228571D01*
X86837857Y-107228571D01*
X86980714Y-107157142D01*
X87052142Y-107085714D01*
X87123571Y-106942857D01*
X87195000Y-106657142D01*
X87195000Y-106300000D01*
X87123571Y-106014285D01*
X87052142Y-105871428D01*
X86980714Y-105800000D01*
X86837857Y-105728571D01*
X85766428Y-105871428D02*
X85695000Y-105800000D01*
X85552142Y-105728571D01*
X85195000Y-105728571D01*
X85052142Y-105800000D01*
X84980714Y-105871428D01*
X84909285Y-106014285D01*
X84909285Y-106157142D01*
X84980714Y-106371428D01*
X85837857Y-107228571D01*
X84909285Y-107228571D01*
X83980714Y-105728571D02*
X83837857Y-105728571D01*
X83695000Y-105800000D01*
X83623571Y-105871428D01*
X83552142Y-106014285D01*
X83480714Y-106300000D01*
X83480714Y-106657142D01*
X83552142Y-106942857D01*
X83623571Y-107085714D01*
X83695000Y-107157142D01*
X83837857Y-107228571D01*
X83980714Y-107228571D01*
X84123571Y-107157142D01*
X84195000Y-107085714D01*
X84266428Y-106942857D01*
X84337857Y-106657142D01*
X84337857Y-106300000D01*
X84266428Y-106014285D01*
X84195000Y-105871428D01*
X84123571Y-105800000D01*
X83980714Y-105728571D01*
D11*
G36*
X266662000Y-88481000D02*
G01*
X266852500Y-88481000D01*
X266852500Y-87719000D01*
X266662000Y-87719000D01*
X266662000Y-88481000D01*
G37*
X266662000Y-88481000D02*
X266852500Y-88481000D01*
X266852500Y-87719000D01*
X266662000Y-87719000D01*
X266662000Y-88481000D01*
G36*
X266217500Y-88481000D02*
G01*
X266408000Y-88481000D01*
X266408000Y-87719000D01*
X266217500Y-87719000D01*
X266217500Y-88481000D01*
G37*
X266217500Y-88481000D02*
X266408000Y-88481000D01*
X266408000Y-87719000D01*
X266217500Y-87719000D01*
X266217500Y-88481000D01*
D12*
X265932936Y-86740000D02*
X267137064Y-86740000D01*
X265932936Y-89460000D02*
X267137064Y-89460000D01*
D11*
G36*
X100154000Y-77162000D02*
G01*
X100154000Y-77352500D01*
X100916000Y-77352500D01*
X100916000Y-77162000D01*
X100154000Y-77162000D01*
G37*
X100154000Y-77162000D02*
X100154000Y-77352500D01*
X100916000Y-77352500D01*
X100916000Y-77162000D01*
X100154000Y-77162000D01*
G36*
X100154000Y-76717500D02*
G01*
X100154000Y-76908000D01*
X100916000Y-76908000D01*
X100916000Y-76717500D01*
X100154000Y-76717500D01*
G37*
X100154000Y-76717500D02*
X100154000Y-76908000D01*
X100916000Y-76908000D01*
X100916000Y-76717500D01*
X100154000Y-76717500D01*
D12*
X101245000Y-76776422D02*
X101245000Y-77293578D01*
X99825000Y-76776422D02*
X99825000Y-77293578D01*
D11*
G36*
X102694000Y-77162000D02*
G01*
X102694000Y-77352500D01*
X103456000Y-77352500D01*
X103456000Y-77162000D01*
X102694000Y-77162000D01*
G37*
X102694000Y-77162000D02*
X102694000Y-77352500D01*
X103456000Y-77352500D01*
X103456000Y-77162000D01*
X102694000Y-77162000D01*
G36*
X102694000Y-76717500D02*
G01*
X102694000Y-76908000D01*
X103456000Y-76908000D01*
X103456000Y-76717500D01*
X102694000Y-76717500D01*
G37*
X102694000Y-76717500D02*
X102694000Y-76908000D01*
X103456000Y-76908000D01*
X103456000Y-76717500D01*
X102694000Y-76717500D01*
D12*
X104435000Y-76432936D02*
X104435000Y-77637064D01*
X101715000Y-76432936D02*
X101715000Y-77637064D01*
D11*
G36*
X178184000Y-77162000D02*
G01*
X178184000Y-77352500D01*
X178946000Y-77352500D01*
X178946000Y-77162000D01*
X178184000Y-77162000D01*
G37*
X178184000Y-77162000D02*
X178184000Y-77352500D01*
X178946000Y-77352500D01*
X178946000Y-77162000D01*
X178184000Y-77162000D01*
G36*
X178184000Y-76717500D02*
G01*
X178184000Y-76908000D01*
X178946000Y-76908000D01*
X178946000Y-76717500D01*
X178184000Y-76717500D01*
G37*
X178184000Y-76717500D02*
X178184000Y-76908000D01*
X178946000Y-76908000D01*
X178946000Y-76717500D01*
X178184000Y-76717500D01*
D12*
X179275000Y-76776422D02*
X179275000Y-77293578D01*
X177855000Y-76776422D02*
X177855000Y-77293578D01*
D11*
G36*
X180724000Y-77162000D02*
G01*
X180724000Y-77352500D01*
X181486000Y-77352500D01*
X181486000Y-77162000D01*
X180724000Y-77162000D01*
G37*
X180724000Y-77162000D02*
X180724000Y-77352500D01*
X181486000Y-77352500D01*
X181486000Y-77162000D01*
X180724000Y-77162000D01*
G36*
X180724000Y-76717500D02*
G01*
X180724000Y-76908000D01*
X181486000Y-76908000D01*
X181486000Y-76717500D01*
X180724000Y-76717500D01*
G37*
X180724000Y-76717500D02*
X180724000Y-76908000D01*
X181486000Y-76908000D01*
X181486000Y-76717500D01*
X180724000Y-76717500D01*
D12*
X182465000Y-76432936D02*
X182465000Y-77637064D01*
X179745000Y-76432936D02*
X179745000Y-77637064D01*
D11*
G36*
X261963000Y-89497000D02*
G01*
X261963000Y-89687500D01*
X262725000Y-89687500D01*
X262725000Y-89497000D01*
X261963000Y-89497000D01*
G37*
X261963000Y-89497000D02*
X261963000Y-89687500D01*
X262725000Y-89687500D01*
X262725000Y-89497000D01*
X261963000Y-89497000D01*
G36*
X261963000Y-89052500D02*
G01*
X261963000Y-89243000D01*
X262725000Y-89243000D01*
X262725000Y-89052500D01*
X261963000Y-89052500D01*
G37*
X261963000Y-89052500D02*
X261963000Y-89243000D01*
X262725000Y-89243000D01*
X262725000Y-89052500D01*
X261963000Y-89052500D01*
D12*
X263054000Y-89111422D02*
X263054000Y-89628578D01*
X261634000Y-89111422D02*
X261634000Y-89628578D01*
D11*
G36*
X72119000Y-64627000D02*
G01*
X72119000Y-64817500D01*
X72881000Y-64817500D01*
X72881000Y-64627000D01*
X72119000Y-64627000D01*
G37*
X72119000Y-64627000D02*
X72119000Y-64817500D01*
X72881000Y-64817500D01*
X72881000Y-64627000D01*
X72119000Y-64627000D01*
G36*
X72119000Y-64182500D02*
G01*
X72119000Y-64373000D01*
X72881000Y-64373000D01*
X72881000Y-64182500D01*
X72119000Y-64182500D01*
G37*
X72119000Y-64182500D02*
X72119000Y-64373000D01*
X72881000Y-64373000D01*
X72881000Y-64182500D01*
X72119000Y-64182500D01*
D12*
X73210000Y-64241422D02*
X73210000Y-64758578D01*
X71790000Y-64241422D02*
X71790000Y-64758578D01*
D11*
G36*
X74619000Y-64627000D02*
G01*
X74619000Y-64817500D01*
X75381000Y-64817500D01*
X75381000Y-64627000D01*
X74619000Y-64627000D01*
G37*
X74619000Y-64627000D02*
X74619000Y-64817500D01*
X75381000Y-64817500D01*
X75381000Y-64627000D01*
X74619000Y-64627000D01*
G36*
X74619000Y-64182500D02*
G01*
X74619000Y-64373000D01*
X75381000Y-64373000D01*
X75381000Y-64182500D01*
X74619000Y-64182500D01*
G37*
X74619000Y-64182500D02*
X74619000Y-64373000D01*
X75381000Y-64373000D01*
X75381000Y-64182500D01*
X74619000Y-64182500D01*
D12*
X75710000Y-64241422D02*
X75710000Y-64758578D01*
X74290000Y-64241422D02*
X74290000Y-64758578D01*
D13*
X79700000Y-73500000D02*
G75*
G03X79700000Y-73500000I-200000J0D01*
G01*
D12*
X79758578Y-74210000D02*
X79241422Y-74210000D01*
X79758578Y-72790000D02*
X79241422Y-72790000D01*
D13*
X79700000Y-70500000D02*
G75*
G03X79700000Y-70500000I-200000J0D01*
G01*
D12*
X79758578Y-71210000D02*
X79241422Y-71210000D01*
X79758578Y-69790000D02*
X79241422Y-69790000D01*
D13*
X118700000Y-73500000D02*
G75*
G03X118700000Y-73500000I-200000J0D01*
G01*
D12*
X118758578Y-74210000D02*
X118241422Y-74210000D01*
X118758578Y-72790000D02*
X118241422Y-72790000D01*
D13*
X118700000Y-70500000D02*
G75*
G03X118700000Y-70500000I-200000J0D01*
G01*
D12*
X118758578Y-71210000D02*
X118241422Y-71210000D01*
X118758578Y-69790000D02*
X118241422Y-69790000D01*
D13*
X157700000Y-73500000D02*
G75*
G03X157700000Y-73500000I-200000J0D01*
G01*
D12*
X157758578Y-74210000D02*
X157241422Y-74210000D01*
X157758578Y-72790000D02*
X157241422Y-72790000D01*
D13*
X157700000Y-70500000D02*
G75*
G03X157700000Y-70500000I-200000J0D01*
G01*
D12*
X157758578Y-71210000D02*
X157241422Y-71210000D01*
X157758578Y-69790000D02*
X157241422Y-69790000D01*
D13*
X196700000Y-73500000D02*
G75*
G03X196700000Y-73500000I-200000J0D01*
G01*
D12*
X196758578Y-74210000D02*
X196241422Y-74210000D01*
X196758578Y-72790000D02*
X196241422Y-72790000D01*
D13*
X196700000Y-70500000D02*
G75*
G03X196700000Y-70500000I-200000J0D01*
G01*
D12*
X196758578Y-71210000D02*
X196241422Y-71210000D01*
X196758578Y-69790000D02*
X196241422Y-69790000D01*
D13*
X79700000Y-101500000D02*
G75*
G03X79700000Y-101500000I-200000J0D01*
G01*
D12*
X79758578Y-102210000D02*
X79241422Y-102210000D01*
X79758578Y-100790000D02*
X79241422Y-100790000D01*
D13*
X79700000Y-98500000D02*
G75*
G03X79700000Y-98500000I-200000J0D01*
G01*
D12*
X79758578Y-99210000D02*
X79241422Y-99210000D01*
X79758578Y-97790000D02*
X79241422Y-97790000D01*
D13*
X118700000Y-101500000D02*
G75*
G03X118700000Y-101500000I-200000J0D01*
G01*
D12*
X118758578Y-102210000D02*
X118241422Y-102210000D01*
X118758578Y-100790000D02*
X118241422Y-100790000D01*
D13*
X118700000Y-98500000D02*
G75*
G03X118700000Y-98500000I-200000J0D01*
G01*
D12*
X118758578Y-99210000D02*
X118241422Y-99210000D01*
X118758578Y-97790000D02*
X118241422Y-97790000D01*
D13*
X157700000Y-101500000D02*
G75*
G03X157700000Y-101500000I-200000J0D01*
G01*
D12*
X157758578Y-102210000D02*
X157241422Y-102210000D01*
X157758578Y-100790000D02*
X157241422Y-100790000D01*
D13*
X157700000Y-98500000D02*
G75*
G03X157700000Y-98500000I-200000J0D01*
G01*
D12*
X157758578Y-99210000D02*
X157241422Y-99210000D01*
X157758578Y-97790000D02*
X157241422Y-97790000D01*
D13*
X196700000Y-101500000D02*
G75*
G03X196700000Y-101500000I-200000J0D01*
G01*
D12*
X196758578Y-102210000D02*
X196241422Y-102210000D01*
X196758578Y-100790000D02*
X196241422Y-100790000D01*
D13*
X196700000Y-98500000D02*
G75*
G03X196700000Y-98500000I-200000J0D01*
G01*
D12*
X196758578Y-99210000D02*
X196241422Y-99210000D01*
X196758578Y-97790000D02*
X196241422Y-97790000D01*
D13*
X235700000Y-101500000D02*
G75*
G03X235700000Y-101500000I-200000J0D01*
G01*
D12*
X235758578Y-102210000D02*
X235241422Y-102210000D01*
X235758578Y-100790000D02*
X235241422Y-100790000D01*
D13*
X235700000Y-98500000D02*
G75*
G03X235700000Y-98500000I-200000J0D01*
G01*
D12*
X235758578Y-99210000D02*
X235241422Y-99210000D01*
X235758578Y-97790000D02*
X235241422Y-97790000D01*
D13*
X68700000Y-64500000D02*
G75*
G03X68700000Y-64500000I-200000J0D01*
G01*
D12*
X69210000Y-64241422D02*
X69210000Y-64758578D01*
X67790000Y-64241422D02*
X67790000Y-64758578D01*
D13*
X79200000Y-64500000D02*
G75*
G03X79200000Y-64500000I-200000J0D01*
G01*
D12*
X79710000Y-64241422D02*
X79710000Y-64758578D01*
X78290000Y-64241422D02*
X78290000Y-64758578D01*
D13*
X70700000Y-64500000D02*
G75*
G03X70700000Y-64500000I-200000J0D01*
G01*
D12*
X69790000Y-64758578D02*
X69790000Y-64241422D01*
X71210000Y-64758578D02*
X71210000Y-64241422D01*
D13*
X77200000Y-64500000D02*
G75*
G03X77200000Y-64500000I-200000J0D01*
G01*
D12*
X76290000Y-64758578D02*
X76290000Y-64241422D01*
X77710000Y-64758578D02*
X77710000Y-64241422D01*
D14*
X96852000Y-66367000D02*
G75*
G03X96852000Y-66367000I-508000J0D01*
G01*
D12*
X93550000Y-83555000D02*
X89690000Y-83555000D01*
X89690000Y-83555000D02*
X89690000Y-83310000D01*
X93550000Y-83555000D02*
X97410000Y-83555000D01*
X97410000Y-83555000D02*
X97410000Y-83310000D01*
X93550000Y-65435000D02*
X89690000Y-65435000D01*
X89690000Y-65435000D02*
X89690000Y-65680000D01*
X93550000Y-65435000D02*
X97410000Y-65435000D01*
X97410000Y-65435000D02*
X97410000Y-65680000D01*
X97410000Y-65680000D02*
X99225000Y-65680000D01*
D14*
X174882000Y-66367000D02*
G75*
G03X174882000Y-66367000I-508000J0D01*
G01*
D12*
X171580000Y-83555000D02*
X167720000Y-83555000D01*
X167720000Y-83555000D02*
X167720000Y-83310000D01*
X171580000Y-83555000D02*
X175440000Y-83555000D01*
X175440000Y-83555000D02*
X175440000Y-83310000D01*
X171580000Y-65435000D02*
X167720000Y-65435000D01*
X167720000Y-65435000D02*
X167720000Y-65680000D01*
X171580000Y-65435000D02*
X175440000Y-65435000D01*
X175440000Y-65435000D02*
X175440000Y-65680000D01*
X175440000Y-65680000D02*
X177255000Y-65680000D01*
D14*
X257302000Y-76872000D02*
G75*
G03X257302000Y-76872000I-508000J0D01*
G01*
D12*
X254000000Y-94060000D02*
X250140000Y-94060000D01*
X250140000Y-94060000D02*
X250140000Y-93815000D01*
X254000000Y-94060000D02*
X257860000Y-94060000D01*
X257860000Y-94060000D02*
X257860000Y-93815000D01*
X254000000Y-75940000D02*
X250140000Y-75940000D01*
X250140000Y-75940000D02*
X250140000Y-76185000D01*
X254000000Y-75940000D02*
X257860000Y-75940000D01*
X257860000Y-75940000D02*
X257860000Y-76185000D01*
X257860000Y-76185000D02*
X259675000Y-76185000D01*
D14*
X205270000Y-54222000D02*
G75*
G03X205270000Y-54222000I-508000J0D01*
G01*
D12*
X204000000Y-58560000D02*
X202050000Y-58560000D01*
X204000000Y-58560000D02*
X205950000Y-58560000D01*
X204000000Y-53440000D02*
X202050000Y-53440000D01*
X204000000Y-53440000D02*
X207450000Y-53440000D01*
D11*
G36*
X71381000Y-56373000D02*
G01*
X71381000Y-56182500D01*
X70619000Y-56182500D01*
X70619000Y-56373000D01*
X71381000Y-56373000D01*
G37*
X71381000Y-56373000D02*
X71381000Y-56182500D01*
X70619000Y-56182500D01*
X70619000Y-56373000D01*
X71381000Y-56373000D01*
G36*
X71381000Y-56817500D02*
G01*
X71381000Y-56627000D01*
X70619000Y-56627000D01*
X70619000Y-56817500D01*
X71381000Y-56817500D01*
G37*
X71381000Y-56817500D02*
X71381000Y-56627000D01*
X70619000Y-56627000D01*
X70619000Y-56817500D01*
X71381000Y-56817500D01*
D12*
X70290000Y-56758578D02*
X70290000Y-56241422D01*
X71710000Y-56758578D02*
X71710000Y-56241422D01*
D11*
G36*
X110381000Y-84373000D02*
G01*
X110381000Y-84182500D01*
X109619000Y-84182500D01*
X109619000Y-84373000D01*
X110381000Y-84373000D01*
G37*
X110381000Y-84373000D02*
X110381000Y-84182500D01*
X109619000Y-84182500D01*
X109619000Y-84373000D01*
X110381000Y-84373000D01*
G36*
X110381000Y-84817500D02*
G01*
X110381000Y-84627000D01*
X109619000Y-84627000D01*
X109619000Y-84817500D01*
X110381000Y-84817500D01*
G37*
X110381000Y-84817500D02*
X110381000Y-84627000D01*
X109619000Y-84627000D01*
X109619000Y-84817500D01*
X110381000Y-84817500D01*
D12*
X109290000Y-84758578D02*
X109290000Y-84241422D01*
X110710000Y-84758578D02*
X110710000Y-84241422D01*
D11*
G36*
X111119000Y-92627000D02*
G01*
X111119000Y-92817500D01*
X111881000Y-92817500D01*
X111881000Y-92627000D01*
X111119000Y-92627000D01*
G37*
X111119000Y-92627000D02*
X111119000Y-92817500D01*
X111881000Y-92817500D01*
X111881000Y-92627000D01*
X111119000Y-92627000D01*
G36*
X111119000Y-92182500D02*
G01*
X111119000Y-92373000D01*
X111881000Y-92373000D01*
X111881000Y-92182500D01*
X111119000Y-92182500D01*
G37*
X111119000Y-92182500D02*
X111119000Y-92373000D01*
X111881000Y-92373000D01*
X111881000Y-92182500D01*
X111119000Y-92182500D01*
D12*
X112210000Y-92241422D02*
X112210000Y-92758578D01*
X110790000Y-92241422D02*
X110790000Y-92758578D01*
D11*
G36*
X113119000Y-92627000D02*
G01*
X113119000Y-92817500D01*
X113881000Y-92817500D01*
X113881000Y-92627000D01*
X113119000Y-92627000D01*
G37*
X113119000Y-92627000D02*
X113119000Y-92817500D01*
X113881000Y-92817500D01*
X113881000Y-92627000D01*
X113119000Y-92627000D01*
G36*
X113119000Y-92182500D02*
G01*
X113119000Y-92373000D01*
X113881000Y-92373000D01*
X113881000Y-92182500D01*
X113119000Y-92182500D01*
G37*
X113119000Y-92182500D02*
X113119000Y-92373000D01*
X113881000Y-92373000D01*
X113881000Y-92182500D01*
X113119000Y-92182500D01*
D12*
X114210000Y-92241422D02*
X114210000Y-92758578D01*
X112790000Y-92241422D02*
X112790000Y-92758578D01*
D11*
G36*
X110381000Y-56373000D02*
G01*
X110381000Y-56182500D01*
X109619000Y-56182500D01*
X109619000Y-56373000D01*
X110381000Y-56373000D01*
G37*
X110381000Y-56373000D02*
X110381000Y-56182500D01*
X109619000Y-56182500D01*
X109619000Y-56373000D01*
X110381000Y-56373000D01*
G36*
X110381000Y-56817500D02*
G01*
X110381000Y-56627000D01*
X109619000Y-56627000D01*
X109619000Y-56817500D01*
X110381000Y-56817500D01*
G37*
X110381000Y-56817500D02*
X110381000Y-56627000D01*
X109619000Y-56627000D01*
X109619000Y-56817500D01*
X110381000Y-56817500D01*
D12*
X109290000Y-56758578D02*
X109290000Y-56241422D01*
X110710000Y-56758578D02*
X110710000Y-56241422D01*
D11*
G36*
X149381000Y-84373000D02*
G01*
X149381000Y-84182500D01*
X148619000Y-84182500D01*
X148619000Y-84373000D01*
X149381000Y-84373000D01*
G37*
X149381000Y-84373000D02*
X149381000Y-84182500D01*
X148619000Y-84182500D01*
X148619000Y-84373000D01*
X149381000Y-84373000D01*
G36*
X149381000Y-84817500D02*
G01*
X149381000Y-84627000D01*
X148619000Y-84627000D01*
X148619000Y-84817500D01*
X149381000Y-84817500D01*
G37*
X149381000Y-84817500D02*
X149381000Y-84627000D01*
X148619000Y-84627000D01*
X148619000Y-84817500D01*
X149381000Y-84817500D01*
D12*
X148290000Y-84758578D02*
X148290000Y-84241422D01*
X149710000Y-84758578D02*
X149710000Y-84241422D01*
D11*
G36*
X111119000Y-64627000D02*
G01*
X111119000Y-64817500D01*
X111881000Y-64817500D01*
X111881000Y-64627000D01*
X111119000Y-64627000D01*
G37*
X111119000Y-64627000D02*
X111119000Y-64817500D01*
X111881000Y-64817500D01*
X111881000Y-64627000D01*
X111119000Y-64627000D01*
G36*
X111119000Y-64182500D02*
G01*
X111119000Y-64373000D01*
X111881000Y-64373000D01*
X111881000Y-64182500D01*
X111119000Y-64182500D01*
G37*
X111119000Y-64182500D02*
X111119000Y-64373000D01*
X111881000Y-64373000D01*
X111881000Y-64182500D01*
X111119000Y-64182500D01*
D12*
X112210000Y-64241422D02*
X112210000Y-64758578D01*
X110790000Y-64241422D02*
X110790000Y-64758578D01*
D11*
G36*
X113119000Y-64627000D02*
G01*
X113119000Y-64817500D01*
X113881000Y-64817500D01*
X113881000Y-64627000D01*
X113119000Y-64627000D01*
G37*
X113119000Y-64627000D02*
X113119000Y-64817500D01*
X113881000Y-64817500D01*
X113881000Y-64627000D01*
X113119000Y-64627000D01*
G36*
X113119000Y-64182500D02*
G01*
X113119000Y-64373000D01*
X113881000Y-64373000D01*
X113881000Y-64182500D01*
X113119000Y-64182500D01*
G37*
X113119000Y-64182500D02*
X113119000Y-64373000D01*
X113881000Y-64373000D01*
X113881000Y-64182500D01*
X113119000Y-64182500D01*
D12*
X114210000Y-64241422D02*
X114210000Y-64758578D01*
X112790000Y-64241422D02*
X112790000Y-64758578D01*
D11*
G36*
X150119000Y-92627000D02*
G01*
X150119000Y-92817500D01*
X150881000Y-92817500D01*
X150881000Y-92627000D01*
X150119000Y-92627000D01*
G37*
X150119000Y-92627000D02*
X150119000Y-92817500D01*
X150881000Y-92817500D01*
X150881000Y-92627000D01*
X150119000Y-92627000D01*
G36*
X150119000Y-92182500D02*
G01*
X150119000Y-92373000D01*
X150881000Y-92373000D01*
X150881000Y-92182500D01*
X150119000Y-92182500D01*
G37*
X150119000Y-92182500D02*
X150119000Y-92373000D01*
X150881000Y-92373000D01*
X150881000Y-92182500D01*
X150119000Y-92182500D01*
D12*
X151210000Y-92241422D02*
X151210000Y-92758578D01*
X149790000Y-92241422D02*
X149790000Y-92758578D01*
D11*
G36*
X152119000Y-92627000D02*
G01*
X152119000Y-92817500D01*
X152881000Y-92817500D01*
X152881000Y-92627000D01*
X152119000Y-92627000D01*
G37*
X152119000Y-92627000D02*
X152119000Y-92817500D01*
X152881000Y-92817500D01*
X152881000Y-92627000D01*
X152119000Y-92627000D01*
G36*
X152119000Y-92182500D02*
G01*
X152119000Y-92373000D01*
X152881000Y-92373000D01*
X152881000Y-92182500D01*
X152119000Y-92182500D01*
G37*
X152119000Y-92182500D02*
X152119000Y-92373000D01*
X152881000Y-92373000D01*
X152881000Y-92182500D01*
X152119000Y-92182500D01*
D12*
X153210000Y-92241422D02*
X153210000Y-92758578D01*
X151790000Y-92241422D02*
X151790000Y-92758578D01*
D11*
G36*
X149381000Y-56373000D02*
G01*
X149381000Y-56182500D01*
X148619000Y-56182500D01*
X148619000Y-56373000D01*
X149381000Y-56373000D01*
G37*
X149381000Y-56373000D02*
X149381000Y-56182500D01*
X148619000Y-56182500D01*
X148619000Y-56373000D01*
X149381000Y-56373000D01*
G36*
X149381000Y-56817500D02*
G01*
X149381000Y-56627000D01*
X148619000Y-56627000D01*
X148619000Y-56817500D01*
X149381000Y-56817500D01*
G37*
X149381000Y-56817500D02*
X149381000Y-56627000D01*
X148619000Y-56627000D01*
X148619000Y-56817500D01*
X149381000Y-56817500D01*
D12*
X148290000Y-56758578D02*
X148290000Y-56241422D01*
X149710000Y-56758578D02*
X149710000Y-56241422D01*
D11*
G36*
X188381000Y-84373000D02*
G01*
X188381000Y-84182500D01*
X187619000Y-84182500D01*
X187619000Y-84373000D01*
X188381000Y-84373000D01*
G37*
X188381000Y-84373000D02*
X188381000Y-84182500D01*
X187619000Y-84182500D01*
X187619000Y-84373000D01*
X188381000Y-84373000D01*
G36*
X188381000Y-84817500D02*
G01*
X188381000Y-84627000D01*
X187619000Y-84627000D01*
X187619000Y-84817500D01*
X188381000Y-84817500D01*
G37*
X188381000Y-84817500D02*
X188381000Y-84627000D01*
X187619000Y-84627000D01*
X187619000Y-84817500D01*
X188381000Y-84817500D01*
D12*
X187290000Y-84758578D02*
X187290000Y-84241422D01*
X188710000Y-84758578D02*
X188710000Y-84241422D01*
D11*
G36*
X150119000Y-65127000D02*
G01*
X150119000Y-65317500D01*
X150881000Y-65317500D01*
X150881000Y-65127000D01*
X150119000Y-65127000D01*
G37*
X150119000Y-65127000D02*
X150119000Y-65317500D01*
X150881000Y-65317500D01*
X150881000Y-65127000D01*
X150119000Y-65127000D01*
G36*
X150119000Y-64682500D02*
G01*
X150119000Y-64873000D01*
X150881000Y-64873000D01*
X150881000Y-64682500D01*
X150119000Y-64682500D01*
G37*
X150119000Y-64682500D02*
X150119000Y-64873000D01*
X150881000Y-64873000D01*
X150881000Y-64682500D01*
X150119000Y-64682500D01*
D12*
X151210000Y-64741422D02*
X151210000Y-65258578D01*
X149790000Y-64741422D02*
X149790000Y-65258578D01*
D11*
G36*
X152119000Y-65127000D02*
G01*
X152119000Y-65317500D01*
X152881000Y-65317500D01*
X152881000Y-65127000D01*
X152119000Y-65127000D01*
G37*
X152119000Y-65127000D02*
X152119000Y-65317500D01*
X152881000Y-65317500D01*
X152881000Y-65127000D01*
X152119000Y-65127000D01*
G36*
X152119000Y-64682500D02*
G01*
X152119000Y-64873000D01*
X152881000Y-64873000D01*
X152881000Y-64682500D01*
X152119000Y-64682500D01*
G37*
X152119000Y-64682500D02*
X152119000Y-64873000D01*
X152881000Y-64873000D01*
X152881000Y-64682500D01*
X152119000Y-64682500D01*
D12*
X153210000Y-64741422D02*
X153210000Y-65258578D01*
X151790000Y-64741422D02*
X151790000Y-65258578D01*
D11*
G36*
X189119000Y-92627000D02*
G01*
X189119000Y-92817500D01*
X189881000Y-92817500D01*
X189881000Y-92627000D01*
X189119000Y-92627000D01*
G37*
X189119000Y-92627000D02*
X189119000Y-92817500D01*
X189881000Y-92817500D01*
X189881000Y-92627000D01*
X189119000Y-92627000D01*
G36*
X189119000Y-92182500D02*
G01*
X189119000Y-92373000D01*
X189881000Y-92373000D01*
X189881000Y-92182500D01*
X189119000Y-92182500D01*
G37*
X189119000Y-92182500D02*
X189119000Y-92373000D01*
X189881000Y-92373000D01*
X189881000Y-92182500D01*
X189119000Y-92182500D01*
D12*
X190210000Y-92241422D02*
X190210000Y-92758578D01*
X188790000Y-92241422D02*
X188790000Y-92758578D01*
D11*
G36*
X191119000Y-92627000D02*
G01*
X191119000Y-92817500D01*
X191881000Y-92817500D01*
X191881000Y-92627000D01*
X191119000Y-92627000D01*
G37*
X191119000Y-92627000D02*
X191119000Y-92817500D01*
X191881000Y-92817500D01*
X191881000Y-92627000D01*
X191119000Y-92627000D01*
G36*
X191119000Y-92182500D02*
G01*
X191119000Y-92373000D01*
X191881000Y-92373000D01*
X191881000Y-92182500D01*
X191119000Y-92182500D01*
G37*
X191119000Y-92182500D02*
X191119000Y-92373000D01*
X191881000Y-92373000D01*
X191881000Y-92182500D01*
X191119000Y-92182500D01*
D12*
X192210000Y-92241422D02*
X192210000Y-92758578D01*
X190790000Y-92241422D02*
X190790000Y-92758578D01*
D11*
G36*
X188381000Y-56373000D02*
G01*
X188381000Y-56182500D01*
X187619000Y-56182500D01*
X187619000Y-56373000D01*
X188381000Y-56373000D01*
G37*
X188381000Y-56373000D02*
X188381000Y-56182500D01*
X187619000Y-56182500D01*
X187619000Y-56373000D01*
X188381000Y-56373000D01*
G36*
X188381000Y-56817500D02*
G01*
X188381000Y-56627000D01*
X187619000Y-56627000D01*
X187619000Y-56817500D01*
X188381000Y-56817500D01*
G37*
X188381000Y-56817500D02*
X188381000Y-56627000D01*
X187619000Y-56627000D01*
X187619000Y-56817500D01*
X188381000Y-56817500D01*
D12*
X187290000Y-56758578D02*
X187290000Y-56241422D01*
X188710000Y-56758578D02*
X188710000Y-56241422D01*
D11*
G36*
X227381000Y-84873000D02*
G01*
X227381000Y-84682500D01*
X226619000Y-84682500D01*
X226619000Y-84873000D01*
X227381000Y-84873000D01*
G37*
X227381000Y-84873000D02*
X227381000Y-84682500D01*
X226619000Y-84682500D01*
X226619000Y-84873000D01*
X227381000Y-84873000D01*
G36*
X227381000Y-85317500D02*
G01*
X227381000Y-85127000D01*
X226619000Y-85127000D01*
X226619000Y-85317500D01*
X227381000Y-85317500D01*
G37*
X227381000Y-85317500D02*
X227381000Y-85127000D01*
X226619000Y-85127000D01*
X226619000Y-85317500D01*
X227381000Y-85317500D01*
D12*
X226290000Y-85258578D02*
X226290000Y-84741422D01*
X227710000Y-85258578D02*
X227710000Y-84741422D01*
D11*
G36*
X189119000Y-64627000D02*
G01*
X189119000Y-64817500D01*
X189881000Y-64817500D01*
X189881000Y-64627000D01*
X189119000Y-64627000D01*
G37*
X189119000Y-64627000D02*
X189119000Y-64817500D01*
X189881000Y-64817500D01*
X189881000Y-64627000D01*
X189119000Y-64627000D01*
G36*
X189119000Y-64182500D02*
G01*
X189119000Y-64373000D01*
X189881000Y-64373000D01*
X189881000Y-64182500D01*
X189119000Y-64182500D01*
G37*
X189119000Y-64182500D02*
X189119000Y-64373000D01*
X189881000Y-64373000D01*
X189881000Y-64182500D01*
X189119000Y-64182500D01*
D12*
X190210000Y-64241422D02*
X190210000Y-64758578D01*
X188790000Y-64241422D02*
X188790000Y-64758578D01*
D11*
G36*
X191119000Y-64627000D02*
G01*
X191119000Y-64817500D01*
X191881000Y-64817500D01*
X191881000Y-64627000D01*
X191119000Y-64627000D01*
G37*
X191119000Y-64627000D02*
X191119000Y-64817500D01*
X191881000Y-64817500D01*
X191881000Y-64627000D01*
X191119000Y-64627000D01*
G36*
X191119000Y-64182500D02*
G01*
X191119000Y-64373000D01*
X191881000Y-64373000D01*
X191881000Y-64182500D01*
X191119000Y-64182500D01*
G37*
X191119000Y-64182500D02*
X191119000Y-64373000D01*
X191881000Y-64373000D01*
X191881000Y-64182500D01*
X191119000Y-64182500D01*
D12*
X192210000Y-64241422D02*
X192210000Y-64758578D01*
X190790000Y-64241422D02*
X190790000Y-64758578D01*
D11*
G36*
X228119000Y-92627000D02*
G01*
X228119000Y-92817500D01*
X228881000Y-92817500D01*
X228881000Y-92627000D01*
X228119000Y-92627000D01*
G37*
X228119000Y-92627000D02*
X228119000Y-92817500D01*
X228881000Y-92817500D01*
X228881000Y-92627000D01*
X228119000Y-92627000D01*
G36*
X228119000Y-92182500D02*
G01*
X228119000Y-92373000D01*
X228881000Y-92373000D01*
X228881000Y-92182500D01*
X228119000Y-92182500D01*
G37*
X228119000Y-92182500D02*
X228119000Y-92373000D01*
X228881000Y-92373000D01*
X228881000Y-92182500D01*
X228119000Y-92182500D01*
D12*
X229210000Y-92241422D02*
X229210000Y-92758578D01*
X227790000Y-92241422D02*
X227790000Y-92758578D01*
D11*
G36*
X230119000Y-92627000D02*
G01*
X230119000Y-92817500D01*
X230881000Y-92817500D01*
X230881000Y-92627000D01*
X230119000Y-92627000D01*
G37*
X230119000Y-92627000D02*
X230119000Y-92817500D01*
X230881000Y-92817500D01*
X230881000Y-92627000D01*
X230119000Y-92627000D01*
G36*
X230119000Y-92182500D02*
G01*
X230119000Y-92373000D01*
X230881000Y-92373000D01*
X230881000Y-92182500D01*
X230119000Y-92182500D01*
G37*
X230119000Y-92182500D02*
X230119000Y-92373000D01*
X230881000Y-92373000D01*
X230881000Y-92182500D01*
X230119000Y-92182500D01*
D12*
X231210000Y-92241422D02*
X231210000Y-92758578D01*
X229790000Y-92241422D02*
X229790000Y-92758578D01*
D11*
G36*
X71381000Y-84373000D02*
G01*
X71381000Y-84182500D01*
X70619000Y-84182500D01*
X70619000Y-84373000D01*
X71381000Y-84373000D01*
G37*
X71381000Y-84373000D02*
X71381000Y-84182500D01*
X70619000Y-84182500D01*
X70619000Y-84373000D01*
X71381000Y-84373000D01*
G36*
X71381000Y-84817500D02*
G01*
X71381000Y-84627000D01*
X70619000Y-84627000D01*
X70619000Y-84817500D01*
X71381000Y-84817500D01*
G37*
X71381000Y-84817500D02*
X71381000Y-84627000D01*
X70619000Y-84627000D01*
X70619000Y-84817500D01*
X71381000Y-84817500D01*
D12*
X70290000Y-84758578D02*
X70290000Y-84241422D01*
X71710000Y-84758578D02*
X71710000Y-84241422D01*
D11*
G36*
X72119000Y-92627000D02*
G01*
X72119000Y-92817500D01*
X72881000Y-92817500D01*
X72881000Y-92627000D01*
X72119000Y-92627000D01*
G37*
X72119000Y-92627000D02*
X72119000Y-92817500D01*
X72881000Y-92817500D01*
X72881000Y-92627000D01*
X72119000Y-92627000D01*
G36*
X72119000Y-92182500D02*
G01*
X72119000Y-92373000D01*
X72881000Y-92373000D01*
X72881000Y-92182500D01*
X72119000Y-92182500D01*
G37*
X72119000Y-92182500D02*
X72119000Y-92373000D01*
X72881000Y-92373000D01*
X72881000Y-92182500D01*
X72119000Y-92182500D01*
D12*
X73210000Y-92241422D02*
X73210000Y-92758578D01*
X71790000Y-92241422D02*
X71790000Y-92758578D01*
D11*
G36*
X74119000Y-92627000D02*
G01*
X74119000Y-92817500D01*
X74881000Y-92817500D01*
X74881000Y-92627000D01*
X74119000Y-92627000D01*
G37*
X74119000Y-92627000D02*
X74119000Y-92817500D01*
X74881000Y-92817500D01*
X74881000Y-92627000D01*
X74119000Y-92627000D01*
G36*
X74119000Y-92182500D02*
G01*
X74119000Y-92373000D01*
X74881000Y-92373000D01*
X74881000Y-92182500D01*
X74119000Y-92182500D01*
G37*
X74119000Y-92182500D02*
X74119000Y-92373000D01*
X74881000Y-92373000D01*
X74881000Y-92182500D01*
X74119000Y-92182500D01*
D12*
X75210000Y-92241422D02*
X75210000Y-92758578D01*
X73790000Y-92241422D02*
X73790000Y-92758578D01*
D11*
G36*
X91873000Y-53619000D02*
G01*
X91682500Y-53619000D01*
X91682500Y-54381000D01*
X91873000Y-54381000D01*
X91873000Y-53619000D01*
G37*
X91873000Y-53619000D02*
X91682500Y-53619000D01*
X91682500Y-54381000D01*
X91873000Y-54381000D01*
X91873000Y-53619000D01*
G36*
X92317500Y-53619000D02*
G01*
X92127000Y-53619000D01*
X92127000Y-54381000D01*
X92317500Y-54381000D01*
X92317500Y-53619000D01*
G37*
X92317500Y-53619000D02*
X92127000Y-53619000D01*
X92127000Y-54381000D01*
X92317500Y-54381000D01*
X92317500Y-53619000D01*
D12*
X92258578Y-54710000D02*
X91741422Y-54710000D01*
X92258578Y-53290000D02*
X91741422Y-53290000D01*
D11*
G36*
X170127000Y-54381000D02*
G01*
X170317500Y-54381000D01*
X170317500Y-53619000D01*
X170127000Y-53619000D01*
X170127000Y-54381000D01*
G37*
X170127000Y-54381000D02*
X170317500Y-54381000D01*
X170317500Y-53619000D01*
X170127000Y-53619000D01*
X170127000Y-54381000D01*
G36*
X169682500Y-54381000D02*
G01*
X169873000Y-54381000D01*
X169873000Y-53619000D01*
X169682500Y-53619000D01*
X169682500Y-54381000D01*
G37*
X169682500Y-54381000D02*
X169873000Y-54381000D01*
X169873000Y-53619000D01*
X169682500Y-53619000D01*
X169682500Y-54381000D01*
D12*
X169741422Y-53290000D02*
X170258578Y-53290000D01*
X169741422Y-54710000D02*
X170258578Y-54710000D01*
D11*
G36*
X89873000Y-84619000D02*
G01*
X89682500Y-84619000D01*
X89682500Y-85381000D01*
X89873000Y-85381000D01*
X89873000Y-84619000D01*
G37*
X89873000Y-84619000D02*
X89682500Y-84619000D01*
X89682500Y-85381000D01*
X89873000Y-85381000D01*
X89873000Y-84619000D01*
G36*
X90317500Y-84619000D02*
G01*
X90127000Y-84619000D01*
X90127000Y-85381000D01*
X90317500Y-85381000D01*
X90317500Y-84619000D01*
G37*
X90317500Y-84619000D02*
X90127000Y-84619000D01*
X90127000Y-85381000D01*
X90317500Y-85381000D01*
X90317500Y-84619000D01*
D12*
X90258578Y-85710000D02*
X89741422Y-85710000D01*
X90258578Y-84290000D02*
X89741422Y-84290000D01*
D11*
G36*
X167873000Y-84619000D02*
G01*
X167682500Y-84619000D01*
X167682500Y-85381000D01*
X167873000Y-85381000D01*
X167873000Y-84619000D01*
G37*
X167873000Y-84619000D02*
X167682500Y-84619000D01*
X167682500Y-85381000D01*
X167873000Y-85381000D01*
X167873000Y-84619000D01*
G36*
X168317500Y-84619000D02*
G01*
X168127000Y-84619000D01*
X168127000Y-85381000D01*
X168317500Y-85381000D01*
X168317500Y-84619000D01*
G37*
X168317500Y-84619000D02*
X168127000Y-84619000D01*
X168127000Y-85381000D01*
X168317500Y-85381000D01*
X168317500Y-84619000D01*
D12*
X168258578Y-85710000D02*
X167741422Y-85710000D01*
X168258578Y-84290000D02*
X167741422Y-84290000D01*
D11*
G36*
X241127000Y-82881000D02*
G01*
X241317500Y-82881000D01*
X241317500Y-82119000D01*
X241127000Y-82119000D01*
X241127000Y-82881000D01*
G37*
X241127000Y-82881000D02*
X241317500Y-82881000D01*
X241317500Y-82119000D01*
X241127000Y-82119000D01*
X241127000Y-82881000D01*
G36*
X240682500Y-82881000D02*
G01*
X240873000Y-82881000D01*
X240873000Y-82119000D01*
X240682500Y-82119000D01*
X240682500Y-82881000D01*
G37*
X240682500Y-82881000D02*
X240873000Y-82881000D01*
X240873000Y-82119000D01*
X240682500Y-82119000D01*
X240682500Y-82881000D01*
D12*
X240741422Y-81790000D02*
X241258578Y-81790000D01*
X240741422Y-83210000D02*
X241258578Y-83210000D01*
D11*
G36*
X250619000Y-98627000D02*
G01*
X250619000Y-98817500D01*
X251381000Y-98817500D01*
X251381000Y-98627000D01*
X250619000Y-98627000D01*
G37*
X250619000Y-98627000D02*
X250619000Y-98817500D01*
X251381000Y-98817500D01*
X251381000Y-98627000D01*
X250619000Y-98627000D01*
G36*
X250619000Y-98182500D02*
G01*
X250619000Y-98373000D01*
X251381000Y-98373000D01*
X251381000Y-98182500D01*
X250619000Y-98182500D01*
G37*
X250619000Y-98182500D02*
X250619000Y-98373000D01*
X251381000Y-98373000D01*
X251381000Y-98182500D01*
X250619000Y-98182500D01*
D12*
X251710000Y-98241422D02*
X251710000Y-98758578D01*
X250290000Y-98241422D02*
X250290000Y-98758578D01*
D13*
X109700000Y-92500000D02*
G75*
G03X109700000Y-92500000I-200000J0D01*
G01*
D12*
X108790000Y-92758578D02*
X108790000Y-92241422D01*
X110210000Y-92758578D02*
X110210000Y-92241422D01*
D13*
X107700000Y-92500000D02*
G75*
G03X107700000Y-92500000I-200000J0D01*
G01*
D12*
X108210000Y-92241422D02*
X108210000Y-92758578D01*
X106790000Y-92241422D02*
X106790000Y-92758578D01*
D13*
X117700000Y-92500000D02*
G75*
G03X117700000Y-92500000I-200000J0D01*
G01*
D12*
X118210000Y-92241422D02*
X118210000Y-92758578D01*
X116790000Y-92241422D02*
X116790000Y-92758578D01*
D13*
X76200000Y-56500000D02*
G75*
G03X76200000Y-56500000I-200000J0D01*
G01*
D12*
X75290000Y-56758578D02*
X75290000Y-56241422D01*
X76710000Y-56758578D02*
X76710000Y-56241422D01*
D13*
X115200000Y-84500000D02*
G75*
G03X115200000Y-84500000I-200000J0D01*
G01*
D12*
X114290000Y-84758578D02*
X114290000Y-84241422D01*
X115710000Y-84758578D02*
X115710000Y-84241422D01*
D13*
X73700000Y-56500000D02*
G75*
G03X73700000Y-56500000I-200000J0D01*
G01*
D12*
X72790000Y-56758578D02*
X72790000Y-56241422D01*
X74210000Y-56758578D02*
X74210000Y-56241422D01*
D13*
X112700000Y-84500000D02*
G75*
G03X112700000Y-84500000I-200000J0D01*
G01*
D12*
X111790000Y-84758578D02*
X111790000Y-84241422D01*
X113210000Y-84758578D02*
X113210000Y-84241422D01*
D13*
X115700000Y-92500000D02*
G75*
G03X115700000Y-92500000I-200000J0D01*
G01*
D12*
X114790000Y-92758578D02*
X114790000Y-92241422D01*
X116210000Y-92758578D02*
X116210000Y-92241422D01*
D13*
X109700000Y-64500000D02*
G75*
G03X109700000Y-64500000I-200000J0D01*
G01*
D12*
X108790000Y-64758578D02*
X108790000Y-64241422D01*
X110210000Y-64758578D02*
X110210000Y-64241422D01*
D13*
X107700000Y-64500000D02*
G75*
G03X107700000Y-64500000I-200000J0D01*
G01*
D12*
X108210000Y-64241422D02*
X108210000Y-64758578D01*
X106790000Y-64241422D02*
X106790000Y-64758578D01*
D13*
X117700000Y-64500000D02*
G75*
G03X117700000Y-64500000I-200000J0D01*
G01*
D12*
X118210000Y-64241422D02*
X118210000Y-64758578D01*
X116790000Y-64241422D02*
X116790000Y-64758578D01*
D13*
X148700000Y-92500000D02*
G75*
G03X148700000Y-92500000I-200000J0D01*
G01*
D12*
X147790000Y-92758578D02*
X147790000Y-92241422D01*
X149210000Y-92758578D02*
X149210000Y-92241422D01*
D13*
X146700000Y-92500000D02*
G75*
G03X146700000Y-92500000I-200000J0D01*
G01*
D12*
X147210000Y-92241422D02*
X147210000Y-92758578D01*
X145790000Y-92241422D02*
X145790000Y-92758578D01*
D13*
X156700000Y-92500000D02*
G75*
G03X156700000Y-92500000I-200000J0D01*
G01*
D12*
X157210000Y-92241422D02*
X157210000Y-92758578D01*
X155790000Y-92241422D02*
X155790000Y-92758578D01*
D13*
X115200000Y-56500000D02*
G75*
G03X115200000Y-56500000I-200000J0D01*
G01*
D12*
X114290000Y-56758578D02*
X114290000Y-56241422D01*
X115710000Y-56758578D02*
X115710000Y-56241422D01*
D13*
X154200000Y-84500000D02*
G75*
G03X154200000Y-84500000I-200000J0D01*
G01*
D12*
X153290000Y-84758578D02*
X153290000Y-84241422D01*
X154710000Y-84758578D02*
X154710000Y-84241422D01*
D13*
X112700000Y-56500000D02*
G75*
G03X112700000Y-56500000I-200000J0D01*
G01*
D12*
X111790000Y-56758578D02*
X111790000Y-56241422D01*
X113210000Y-56758578D02*
X113210000Y-56241422D01*
D13*
X151700000Y-84500000D02*
G75*
G03X151700000Y-84500000I-200000J0D01*
G01*
D12*
X150790000Y-84758578D02*
X150790000Y-84241422D01*
X152210000Y-84758578D02*
X152210000Y-84241422D01*
D13*
X115700000Y-64500000D02*
G75*
G03X115700000Y-64500000I-200000J0D01*
G01*
D12*
X114790000Y-64758578D02*
X114790000Y-64241422D01*
X116210000Y-64758578D02*
X116210000Y-64241422D01*
D13*
X154700000Y-92500000D02*
G75*
G03X154700000Y-92500000I-200000J0D01*
G01*
D12*
X153790000Y-92758578D02*
X153790000Y-92241422D01*
X155210000Y-92758578D02*
X155210000Y-92241422D01*
D13*
X148700000Y-65000000D02*
G75*
G03X148700000Y-65000000I-200000J0D01*
G01*
D12*
X147790000Y-65258578D02*
X147790000Y-64741422D01*
X149210000Y-65258578D02*
X149210000Y-64741422D01*
D13*
X146700000Y-65000000D02*
G75*
G03X146700000Y-65000000I-200000J0D01*
G01*
D12*
X147210000Y-64741422D02*
X147210000Y-65258578D01*
X145790000Y-64741422D02*
X145790000Y-65258578D01*
D13*
X156700000Y-65000000D02*
G75*
G03X156700000Y-65000000I-200000J0D01*
G01*
D12*
X157210000Y-64741422D02*
X157210000Y-65258578D01*
X155790000Y-64741422D02*
X155790000Y-65258578D01*
D13*
X187700000Y-92500000D02*
G75*
G03X187700000Y-92500000I-200000J0D01*
G01*
D12*
X186790000Y-92758578D02*
X186790000Y-92241422D01*
X188210000Y-92758578D02*
X188210000Y-92241422D01*
D13*
X185700000Y-92500000D02*
G75*
G03X185700000Y-92500000I-200000J0D01*
G01*
D12*
X186210000Y-92241422D02*
X186210000Y-92758578D01*
X184790000Y-92241422D02*
X184790000Y-92758578D01*
D13*
X195700000Y-92500000D02*
G75*
G03X195700000Y-92500000I-200000J0D01*
G01*
D12*
X196210000Y-92241422D02*
X196210000Y-92758578D01*
X194790000Y-92241422D02*
X194790000Y-92758578D01*
D13*
X154200000Y-56500000D02*
G75*
G03X154200000Y-56500000I-200000J0D01*
G01*
D12*
X153290000Y-56758578D02*
X153290000Y-56241422D01*
X154710000Y-56758578D02*
X154710000Y-56241422D01*
D13*
X193200000Y-84500000D02*
G75*
G03X193200000Y-84500000I-200000J0D01*
G01*
D12*
X192290000Y-84758578D02*
X192290000Y-84241422D01*
X193710000Y-84758578D02*
X193710000Y-84241422D01*
D13*
X151700000Y-56500000D02*
G75*
G03X151700000Y-56500000I-200000J0D01*
G01*
D12*
X150790000Y-56758578D02*
X150790000Y-56241422D01*
X152210000Y-56758578D02*
X152210000Y-56241422D01*
D13*
X190700000Y-84500000D02*
G75*
G03X190700000Y-84500000I-200000J0D01*
G01*
D12*
X189790000Y-84758578D02*
X189790000Y-84241422D01*
X191210000Y-84758578D02*
X191210000Y-84241422D01*
D13*
X154700000Y-65000000D02*
G75*
G03X154700000Y-65000000I-200000J0D01*
G01*
D12*
X153790000Y-65258578D02*
X153790000Y-64741422D01*
X155210000Y-65258578D02*
X155210000Y-64741422D01*
D13*
X193700000Y-92500000D02*
G75*
G03X193700000Y-92500000I-200000J0D01*
G01*
D12*
X192790000Y-92758578D02*
X192790000Y-92241422D01*
X194210000Y-92758578D02*
X194210000Y-92241422D01*
D13*
X187700000Y-64500000D02*
G75*
G03X187700000Y-64500000I-200000J0D01*
G01*
D12*
X186790000Y-64758578D02*
X186790000Y-64241422D01*
X188210000Y-64758578D02*
X188210000Y-64241422D01*
D13*
X185700000Y-64500000D02*
G75*
G03X185700000Y-64500000I-200000J0D01*
G01*
D12*
X186210000Y-64241422D02*
X186210000Y-64758578D01*
X184790000Y-64241422D02*
X184790000Y-64758578D01*
D13*
X195700000Y-64500000D02*
G75*
G03X195700000Y-64500000I-200000J0D01*
G01*
D12*
X196210000Y-64241422D02*
X196210000Y-64758578D01*
X194790000Y-64241422D02*
X194790000Y-64758578D01*
D13*
X193200000Y-56500000D02*
G75*
G03X193200000Y-56500000I-200000J0D01*
G01*
D12*
X192290000Y-56758578D02*
X192290000Y-56241422D01*
X193710000Y-56758578D02*
X193710000Y-56241422D01*
D13*
X226700000Y-92500000D02*
G75*
G03X226700000Y-92500000I-200000J0D01*
G01*
D12*
X225790000Y-92758578D02*
X225790000Y-92241422D01*
X227210000Y-92758578D02*
X227210000Y-92241422D01*
D13*
X224700000Y-92500000D02*
G75*
G03X224700000Y-92500000I-200000J0D01*
G01*
D12*
X225210000Y-92241422D02*
X225210000Y-92758578D01*
X223790000Y-92241422D02*
X223790000Y-92758578D01*
D13*
X234700000Y-92500000D02*
G75*
G03X234700000Y-92500000I-200000J0D01*
G01*
D12*
X235210000Y-92241422D02*
X235210000Y-92758578D01*
X233790000Y-92241422D02*
X233790000Y-92758578D01*
D13*
X232200000Y-85000000D02*
G75*
G03X232200000Y-85000000I-200000J0D01*
G01*
D12*
X231290000Y-85258578D02*
X231290000Y-84741422D01*
X232710000Y-85258578D02*
X232710000Y-84741422D01*
D13*
X190700000Y-56500000D02*
G75*
G03X190700000Y-56500000I-200000J0D01*
G01*
D12*
X189790000Y-56758578D02*
X189790000Y-56241422D01*
X191210000Y-56758578D02*
X191210000Y-56241422D01*
D13*
X229700000Y-85000000D02*
G75*
G03X229700000Y-85000000I-200000J0D01*
G01*
D12*
X228790000Y-85258578D02*
X228790000Y-84741422D01*
X230210000Y-85258578D02*
X230210000Y-84741422D01*
D13*
X193700000Y-64500000D02*
G75*
G03X193700000Y-64500000I-200000J0D01*
G01*
D12*
X192790000Y-64758578D02*
X192790000Y-64241422D01*
X194210000Y-64758578D02*
X194210000Y-64241422D01*
D13*
X232700000Y-92500000D02*
G75*
G03X232700000Y-92500000I-200000J0D01*
G01*
D12*
X231790000Y-92758578D02*
X231790000Y-92241422D01*
X233210000Y-92758578D02*
X233210000Y-92241422D01*
D13*
X70700000Y-92500000D02*
G75*
G03X70700000Y-92500000I-200000J0D01*
G01*
D12*
X69790000Y-92758578D02*
X69790000Y-92241422D01*
X71210000Y-92758578D02*
X71210000Y-92241422D01*
D13*
X68700000Y-92500000D02*
G75*
G03X68700000Y-92500000I-200000J0D01*
G01*
D12*
X69210000Y-92241422D02*
X69210000Y-92758578D01*
X67790000Y-92241422D02*
X67790000Y-92758578D01*
D13*
X78700000Y-92500000D02*
G75*
G03X78700000Y-92500000I-200000J0D01*
G01*
D12*
X79210000Y-92241422D02*
X79210000Y-92758578D01*
X77790000Y-92241422D02*
X77790000Y-92758578D01*
D13*
X76200000Y-84500000D02*
G75*
G03X76200000Y-84500000I-200000J0D01*
G01*
D12*
X75290000Y-84758578D02*
X75290000Y-84241422D01*
X76710000Y-84758578D02*
X76710000Y-84241422D01*
D13*
X73700000Y-84500000D02*
G75*
G03X73700000Y-84500000I-200000J0D01*
G01*
D12*
X72790000Y-84758578D02*
X72790000Y-84241422D01*
X74210000Y-84758578D02*
X74210000Y-84241422D01*
D13*
X76700000Y-92500000D02*
G75*
G03X76700000Y-92500000I-200000J0D01*
G01*
D12*
X75790000Y-92758578D02*
X75790000Y-92241422D01*
X77210000Y-92758578D02*
X77210000Y-92241422D01*
D14*
X94770000Y-56444000D02*
G75*
G03X94770000Y-56444000I-508000J0D01*
G01*
D12*
X93500000Y-55565000D02*
X96950000Y-55565000D01*
X93500000Y-55565000D02*
X91550000Y-55565000D01*
X93500000Y-64435000D02*
X95450000Y-64435000D01*
X93500000Y-64435000D02*
X91550000Y-64435000D01*
D14*
X172770000Y-56444000D02*
G75*
G03X172770000Y-56444000I-508000J0D01*
G01*
D12*
X171500000Y-55565000D02*
X174950000Y-55565000D01*
X171500000Y-55565000D02*
X169550000Y-55565000D01*
X171500000Y-64435000D02*
X173450000Y-64435000D01*
X171500000Y-64435000D02*
X169550000Y-64435000D01*
D14*
X94770000Y-87444000D02*
G75*
G03X94770000Y-87444000I-508000J0D01*
G01*
D12*
X93500000Y-86565000D02*
X96950000Y-86565000D01*
X93500000Y-86565000D02*
X91550000Y-86565000D01*
X93500000Y-95435000D02*
X95450000Y-95435000D01*
X93500000Y-95435000D02*
X91550000Y-95435000D01*
D14*
X172770000Y-87444000D02*
G75*
G03X172770000Y-87444000I-508000J0D01*
G01*
D12*
X171500000Y-86565000D02*
X174950000Y-86565000D01*
X171500000Y-86565000D02*
X169550000Y-86565000D01*
X171500000Y-95435000D02*
X173450000Y-95435000D01*
X171500000Y-95435000D02*
X169550000Y-95435000D01*
D14*
X243770000Y-84944000D02*
G75*
G03X243770000Y-84944000I-508000J0D01*
G01*
D12*
X242500000Y-84065000D02*
X245950000Y-84065000D01*
X242500000Y-84065000D02*
X240550000Y-84065000D01*
X242500000Y-92935000D02*
X244450000Y-92935000D01*
X242500000Y-92935000D02*
X240550000Y-92935000D01*
D14*
X257270000Y-97944000D02*
G75*
G03X257270000Y-97944000I-508000J0D01*
G01*
D12*
X256000000Y-97065000D02*
X259450000Y-97065000D01*
X256000000Y-97065000D02*
X254050000Y-97065000D01*
X256000000Y-105935000D02*
X257950000Y-105935000D01*
X256000000Y-105935000D02*
X254050000Y-105935000D01*
D14*
X216270000Y-61222000D02*
G75*
G03X216270000Y-61222000I-508000J0D01*
G01*
D12*
X215000000Y-65560000D02*
X213050000Y-65560000D01*
X215000000Y-65560000D02*
X216950000Y-65560000D01*
X215000000Y-60440000D02*
X213050000Y-60440000D01*
X215000000Y-60440000D02*
X218450000Y-60440000D01*
D14*
X216270000Y-68222000D02*
G75*
G03X216270000Y-68222000I-508000J0D01*
G01*
D12*
X215000000Y-72560000D02*
X213050000Y-72560000D01*
X215000000Y-72560000D02*
X216950000Y-72560000D01*
X215000000Y-67440000D02*
X213050000Y-67440000D01*
X215000000Y-67440000D02*
X218450000Y-67440000D01*
D14*
X216270000Y-75222000D02*
G75*
G03X216270000Y-75222000I-508000J0D01*
G01*
D12*
X215000000Y-79560000D02*
X213050000Y-79560000D01*
X215000000Y-79560000D02*
X216950000Y-79560000D01*
X215000000Y-74440000D02*
X213050000Y-74440000D01*
X215000000Y-74440000D02*
X218450000Y-74440000D01*
D11*
G36*
X78119000Y-77127000D02*
G01*
X78119000Y-77317500D01*
X78881000Y-77317500D01*
X78881000Y-77127000D01*
X78119000Y-77127000D01*
G37*
X78119000Y-77127000D02*
X78119000Y-77317500D01*
X78881000Y-77317500D01*
X78881000Y-77127000D01*
X78119000Y-77127000D01*
G36*
X78119000Y-76682500D02*
G01*
X78119000Y-76873000D01*
X78881000Y-76873000D01*
X78881000Y-76682500D01*
X78119000Y-76682500D01*
G37*
X78119000Y-76682500D02*
X78119000Y-76873000D01*
X78881000Y-76873000D01*
X78881000Y-76682500D01*
X78119000Y-76682500D01*
D12*
X79210000Y-76741422D02*
X79210000Y-77258578D01*
X77790000Y-76741422D02*
X77790000Y-77258578D01*
D11*
G36*
X117119000Y-77127000D02*
G01*
X117119000Y-77317500D01*
X117881000Y-77317500D01*
X117881000Y-77127000D01*
X117119000Y-77127000D01*
G37*
X117119000Y-77127000D02*
X117119000Y-77317500D01*
X117881000Y-77317500D01*
X117881000Y-77127000D01*
X117119000Y-77127000D01*
G36*
X117119000Y-76682500D02*
G01*
X117119000Y-76873000D01*
X117881000Y-76873000D01*
X117881000Y-76682500D01*
X117119000Y-76682500D01*
G37*
X117119000Y-76682500D02*
X117119000Y-76873000D01*
X117881000Y-76873000D01*
X117881000Y-76682500D01*
X117119000Y-76682500D01*
D12*
X118210000Y-76741422D02*
X118210000Y-77258578D01*
X116790000Y-76741422D02*
X116790000Y-77258578D01*
D11*
G36*
X156119000Y-77127000D02*
G01*
X156119000Y-77317500D01*
X156881000Y-77317500D01*
X156881000Y-77127000D01*
X156119000Y-77127000D01*
G37*
X156119000Y-77127000D02*
X156119000Y-77317500D01*
X156881000Y-77317500D01*
X156881000Y-77127000D01*
X156119000Y-77127000D01*
G36*
X156119000Y-76682500D02*
G01*
X156119000Y-76873000D01*
X156881000Y-76873000D01*
X156881000Y-76682500D01*
X156119000Y-76682500D01*
G37*
X156119000Y-76682500D02*
X156119000Y-76873000D01*
X156881000Y-76873000D01*
X156881000Y-76682500D01*
X156119000Y-76682500D01*
D12*
X157210000Y-76741422D02*
X157210000Y-77258578D01*
X155790000Y-76741422D02*
X155790000Y-77258578D01*
D11*
G36*
X195119000Y-77127000D02*
G01*
X195119000Y-77317500D01*
X195881000Y-77317500D01*
X195881000Y-77127000D01*
X195119000Y-77127000D01*
G37*
X195119000Y-77127000D02*
X195119000Y-77317500D01*
X195881000Y-77317500D01*
X195881000Y-77127000D01*
X195119000Y-77127000D01*
G36*
X195119000Y-76682500D02*
G01*
X195119000Y-76873000D01*
X195881000Y-76873000D01*
X195881000Y-76682500D01*
X195119000Y-76682500D01*
G37*
X195119000Y-76682500D02*
X195119000Y-76873000D01*
X195881000Y-76873000D01*
X195881000Y-76682500D01*
X195119000Y-76682500D01*
D12*
X196210000Y-76741422D02*
X196210000Y-77258578D01*
X194790000Y-76741422D02*
X194790000Y-77258578D01*
D11*
G36*
X78119000Y-105127000D02*
G01*
X78119000Y-105317500D01*
X78881000Y-105317500D01*
X78881000Y-105127000D01*
X78119000Y-105127000D01*
G37*
X78119000Y-105127000D02*
X78119000Y-105317500D01*
X78881000Y-105317500D01*
X78881000Y-105127000D01*
X78119000Y-105127000D01*
G36*
X78119000Y-104682500D02*
G01*
X78119000Y-104873000D01*
X78881000Y-104873000D01*
X78881000Y-104682500D01*
X78119000Y-104682500D01*
G37*
X78119000Y-104682500D02*
X78119000Y-104873000D01*
X78881000Y-104873000D01*
X78881000Y-104682500D01*
X78119000Y-104682500D01*
D12*
X79210000Y-104741422D02*
X79210000Y-105258578D01*
X77790000Y-104741422D02*
X77790000Y-105258578D01*
D11*
G36*
X117119000Y-105127000D02*
G01*
X117119000Y-105317500D01*
X117881000Y-105317500D01*
X117881000Y-105127000D01*
X117119000Y-105127000D01*
G37*
X117119000Y-105127000D02*
X117119000Y-105317500D01*
X117881000Y-105317500D01*
X117881000Y-105127000D01*
X117119000Y-105127000D01*
G36*
X117119000Y-104682500D02*
G01*
X117119000Y-104873000D01*
X117881000Y-104873000D01*
X117881000Y-104682500D01*
X117119000Y-104682500D01*
G37*
X117119000Y-104682500D02*
X117119000Y-104873000D01*
X117881000Y-104873000D01*
X117881000Y-104682500D01*
X117119000Y-104682500D01*
D12*
X118210000Y-104741422D02*
X118210000Y-105258578D01*
X116790000Y-104741422D02*
X116790000Y-105258578D01*
D11*
G36*
X156119000Y-105127000D02*
G01*
X156119000Y-105317500D01*
X156881000Y-105317500D01*
X156881000Y-105127000D01*
X156119000Y-105127000D01*
G37*
X156119000Y-105127000D02*
X156119000Y-105317500D01*
X156881000Y-105317500D01*
X156881000Y-105127000D01*
X156119000Y-105127000D01*
G36*
X156119000Y-104682500D02*
G01*
X156119000Y-104873000D01*
X156881000Y-104873000D01*
X156881000Y-104682500D01*
X156119000Y-104682500D01*
G37*
X156119000Y-104682500D02*
X156119000Y-104873000D01*
X156881000Y-104873000D01*
X156881000Y-104682500D01*
X156119000Y-104682500D01*
D12*
X157210000Y-104741422D02*
X157210000Y-105258578D01*
X155790000Y-104741422D02*
X155790000Y-105258578D01*
D11*
G36*
X195119000Y-105127000D02*
G01*
X195119000Y-105317500D01*
X195881000Y-105317500D01*
X195881000Y-105127000D01*
X195119000Y-105127000D01*
G37*
X195119000Y-105127000D02*
X195119000Y-105317500D01*
X195881000Y-105317500D01*
X195881000Y-105127000D01*
X195119000Y-105127000D01*
G36*
X195119000Y-104682500D02*
G01*
X195119000Y-104873000D01*
X195881000Y-104873000D01*
X195881000Y-104682500D01*
X195119000Y-104682500D01*
G37*
X195119000Y-104682500D02*
X195119000Y-104873000D01*
X195881000Y-104873000D01*
X195881000Y-104682500D01*
X195119000Y-104682500D01*
D12*
X196210000Y-104741422D02*
X196210000Y-105258578D01*
X194790000Y-104741422D02*
X194790000Y-105258578D01*
D11*
G36*
X234119000Y-105127000D02*
G01*
X234119000Y-105317500D01*
X234881000Y-105317500D01*
X234881000Y-105127000D01*
X234119000Y-105127000D01*
G37*
X234119000Y-105127000D02*
X234119000Y-105317500D01*
X234881000Y-105317500D01*
X234881000Y-105127000D01*
X234119000Y-105127000D01*
G36*
X234119000Y-104682500D02*
G01*
X234119000Y-104873000D01*
X234881000Y-104873000D01*
X234881000Y-104682500D01*
X234119000Y-104682500D01*
G37*
X234119000Y-104682500D02*
X234119000Y-104873000D01*
X234881000Y-104873000D01*
X234881000Y-104682500D01*
X234119000Y-104682500D01*
D12*
X235210000Y-104741422D02*
X235210000Y-105258578D01*
X233790000Y-104741422D02*
X233790000Y-105258578D01*
X208078000Y-54859422D02*
X208078000Y-55376578D01*
X209498000Y-54859422D02*
X209498000Y-55376578D01*
D11*
G36*
X208407000Y-54800500D02*
G01*
X208407000Y-54991000D01*
X209169000Y-54991000D01*
X209169000Y-54800500D01*
X208407000Y-54800500D01*
G37*
X208407000Y-54800500D02*
X208407000Y-54991000D01*
X209169000Y-54991000D01*
X209169000Y-54800500D01*
X208407000Y-54800500D01*
G36*
X208407000Y-55245000D02*
G01*
X208407000Y-55435500D01*
X209169000Y-55435500D01*
X209169000Y-55245000D01*
X208407000Y-55245000D01*
G37*
X208407000Y-55245000D02*
X208407000Y-55435500D01*
X209169000Y-55435500D01*
X209169000Y-55245000D01*
X208407000Y-55245000D01*
G36*
X219329000Y-65659000D02*
G01*
X219329000Y-65849500D01*
X220091000Y-65849500D01*
X220091000Y-65659000D01*
X219329000Y-65659000D01*
G37*
X219329000Y-65659000D02*
X219329000Y-65849500D01*
X220091000Y-65849500D01*
X220091000Y-65659000D01*
X219329000Y-65659000D01*
G36*
X219329000Y-65214500D02*
G01*
X219329000Y-65405000D01*
X220091000Y-65405000D01*
X220091000Y-65214500D01*
X219329000Y-65214500D01*
G37*
X219329000Y-65214500D02*
X219329000Y-65405000D01*
X220091000Y-65405000D01*
X220091000Y-65214500D01*
X219329000Y-65214500D01*
D12*
X220420000Y-65273422D02*
X220420000Y-65790578D01*
X219000000Y-65273422D02*
X219000000Y-65790578D01*
D11*
G36*
X210631000Y-68123000D02*
G01*
X210631000Y-67932500D01*
X209869000Y-67932500D01*
X209869000Y-68123000D01*
X210631000Y-68123000D01*
G37*
X210631000Y-68123000D02*
X210631000Y-67932500D01*
X209869000Y-67932500D01*
X209869000Y-68123000D01*
X210631000Y-68123000D01*
G36*
X210631000Y-68567500D02*
G01*
X210631000Y-68377000D01*
X209869000Y-68377000D01*
X209869000Y-68567500D01*
X210631000Y-68567500D01*
G37*
X210631000Y-68567500D02*
X210631000Y-68377000D01*
X209869000Y-68377000D01*
X209869000Y-68567500D01*
X210631000Y-68567500D01*
D12*
X209540000Y-68508578D02*
X209540000Y-67991422D01*
X210960000Y-68508578D02*
X210960000Y-67991422D01*
X219127000Y-77719422D02*
X219127000Y-78236578D01*
X220547000Y-77719422D02*
X220547000Y-78236578D01*
D11*
G36*
X219456000Y-77660500D02*
G01*
X219456000Y-77851000D01*
X220218000Y-77851000D01*
X220218000Y-77660500D01*
X219456000Y-77660500D01*
G37*
X219456000Y-77660500D02*
X219456000Y-77851000D01*
X220218000Y-77851000D01*
X220218000Y-77660500D01*
X219456000Y-77660500D01*
G36*
X219456000Y-78105000D02*
G01*
X219456000Y-78295500D01*
X220218000Y-78295500D01*
X220218000Y-78105000D01*
X219456000Y-78105000D01*
G37*
X219456000Y-78105000D02*
X219456000Y-78295500D01*
X220218000Y-78295500D01*
X220218000Y-78105000D01*
X219456000Y-78105000D01*
D14*
X266701666Y-85857142D02*
X266749285Y-85904761D01*
X266892142Y-85952380D01*
X266987380Y-85952380D01*
X267130238Y-85904761D01*
X267225476Y-85809523D01*
X267273095Y-85714285D01*
X267320714Y-85523809D01*
X267320714Y-85380952D01*
X267273095Y-85190476D01*
X267225476Y-85095238D01*
X267130238Y-85000000D01*
X266987380Y-84952380D01*
X266892142Y-84952380D01*
X266749285Y-85000000D01*
X266701666Y-85047619D01*
X265844523Y-84952380D02*
X266035000Y-84952380D01*
X266130238Y-85000000D01*
X266177857Y-85047619D01*
X266273095Y-85190476D01*
X266320714Y-85380952D01*
X266320714Y-85761904D01*
X266273095Y-85857142D01*
X266225476Y-85904761D01*
X266130238Y-85952380D01*
X265939761Y-85952380D01*
X265844523Y-85904761D01*
X265796904Y-85857142D01*
X265749285Y-85761904D01*
X265749285Y-85523809D01*
X265796904Y-85428571D01*
X265844523Y-85380952D01*
X265939761Y-85333333D01*
X266130238Y-85333333D01*
X266225476Y-85380952D01*
X266273095Y-85428571D01*
X266320714Y-85523809D01*
X100857142Y-74333333D02*
X100904761Y-74285714D01*
X100952380Y-74142857D01*
X100952380Y-74047619D01*
X100904761Y-73904761D01*
X100809523Y-73809523D01*
X100714285Y-73761904D01*
X100523809Y-73714285D01*
X100380952Y-73714285D01*
X100190476Y-73761904D01*
X100095238Y-73809523D01*
X100000000Y-73904761D01*
X99952380Y-74047619D01*
X99952380Y-74142857D01*
X100000000Y-74285714D01*
X100047619Y-74333333D01*
X100952380Y-75285714D02*
X100952380Y-74714285D01*
X100952380Y-75000000D02*
X99952380Y-75000000D01*
X100095238Y-74904761D01*
X100190476Y-74809523D01*
X100238095Y-74714285D01*
X103357142Y-73583333D02*
X103404761Y-73535714D01*
X103452380Y-73392857D01*
X103452380Y-73297619D01*
X103404761Y-73154761D01*
X103309523Y-73059523D01*
X103214285Y-73011904D01*
X103023809Y-72964285D01*
X102880952Y-72964285D01*
X102690476Y-73011904D01*
X102595238Y-73059523D01*
X102500000Y-73154761D01*
X102452380Y-73297619D01*
X102452380Y-73392857D01*
X102500000Y-73535714D01*
X102547619Y-73583333D01*
X102547619Y-73964285D02*
X102500000Y-74011904D01*
X102452380Y-74107142D01*
X102452380Y-74345238D01*
X102500000Y-74440476D01*
X102547619Y-74488095D01*
X102642857Y-74535714D01*
X102738095Y-74535714D01*
X102880952Y-74488095D01*
X103452380Y-73916666D01*
X103452380Y-74535714D01*
X178857142Y-79583333D02*
X178904761Y-79535714D01*
X178952380Y-79392857D01*
X178952380Y-79297619D01*
X178904761Y-79154761D01*
X178809523Y-79059523D01*
X178714285Y-79011904D01*
X178523809Y-78964285D01*
X178380952Y-78964285D01*
X178190476Y-79011904D01*
X178095238Y-79059523D01*
X178000000Y-79154761D01*
X177952380Y-79297619D01*
X177952380Y-79392857D01*
X178000000Y-79535714D01*
X178047619Y-79583333D01*
X177952380Y-79916666D02*
X177952380Y-80535714D01*
X178333333Y-80202380D01*
X178333333Y-80345238D01*
X178380952Y-80440476D01*
X178428571Y-80488095D01*
X178523809Y-80535714D01*
X178761904Y-80535714D01*
X178857142Y-80488095D01*
X178904761Y-80440476D01*
X178952380Y-80345238D01*
X178952380Y-80059523D01*
X178904761Y-79964285D01*
X178857142Y-79916666D01*
X181357142Y-80083333D02*
X181404761Y-80035714D01*
X181452380Y-79892857D01*
X181452380Y-79797619D01*
X181404761Y-79654761D01*
X181309523Y-79559523D01*
X181214285Y-79511904D01*
X181023809Y-79464285D01*
X180880952Y-79464285D01*
X180690476Y-79511904D01*
X180595238Y-79559523D01*
X180500000Y-79654761D01*
X180452380Y-79797619D01*
X180452380Y-79892857D01*
X180500000Y-80035714D01*
X180547619Y-80083333D01*
X180785714Y-80940476D02*
X181452380Y-80940476D01*
X180404761Y-80702380D02*
X181119047Y-80464285D01*
X181119047Y-81083333D01*
X261051142Y-89203333D02*
X261098761Y-89155714D01*
X261146380Y-89012857D01*
X261146380Y-88917619D01*
X261098761Y-88774761D01*
X261003523Y-88679523D01*
X260908285Y-88631904D01*
X260717809Y-88584285D01*
X260574952Y-88584285D01*
X260384476Y-88631904D01*
X260289238Y-88679523D01*
X260194000Y-88774761D01*
X260146380Y-88917619D01*
X260146380Y-89012857D01*
X260194000Y-89155714D01*
X260241619Y-89203333D01*
X260146380Y-90108095D02*
X260146380Y-89631904D01*
X260622571Y-89584285D01*
X260574952Y-89631904D01*
X260527333Y-89727142D01*
X260527333Y-89965238D01*
X260574952Y-90060476D01*
X260622571Y-90108095D01*
X260717809Y-90155714D01*
X260955904Y-90155714D01*
X261051142Y-90108095D01*
X261098761Y-90060476D01*
X261146380Y-89965238D01*
X261146380Y-89727142D01*
X261098761Y-89631904D01*
X261051142Y-89584285D01*
X72857142Y-60857142D02*
X72904761Y-60809523D01*
X72952380Y-60666666D01*
X72952380Y-60571428D01*
X72904761Y-60428571D01*
X72809523Y-60333333D01*
X72714285Y-60285714D01*
X72523809Y-60238095D01*
X72380952Y-60238095D01*
X72190476Y-60285714D01*
X72095238Y-60333333D01*
X72000000Y-60428571D01*
X71952380Y-60571428D01*
X71952380Y-60666666D01*
X72000000Y-60809523D01*
X72047619Y-60857142D01*
X72952380Y-61809523D02*
X72952380Y-61238095D01*
X72952380Y-61523809D02*
X71952380Y-61523809D01*
X72095238Y-61428571D01*
X72190476Y-61333333D01*
X72238095Y-61238095D01*
X72047619Y-62190476D02*
X72000000Y-62238095D01*
X71952380Y-62333333D01*
X71952380Y-62571428D01*
X72000000Y-62666666D01*
X72047619Y-62714285D01*
X72142857Y-62761904D01*
X72238095Y-62761904D01*
X72380952Y-62714285D01*
X72952380Y-62142857D01*
X72952380Y-62761904D01*
X75357142Y-60857142D02*
X75404761Y-60809523D01*
X75452380Y-60666666D01*
X75452380Y-60571428D01*
X75404761Y-60428571D01*
X75309523Y-60333333D01*
X75214285Y-60285714D01*
X75023809Y-60238095D01*
X74880952Y-60238095D01*
X74690476Y-60285714D01*
X74595238Y-60333333D01*
X74500000Y-60428571D01*
X74452380Y-60571428D01*
X74452380Y-60666666D01*
X74500000Y-60809523D01*
X74547619Y-60857142D01*
X75452380Y-61809523D02*
X75452380Y-61238095D01*
X75452380Y-61523809D02*
X74452380Y-61523809D01*
X74595238Y-61428571D01*
X74690476Y-61333333D01*
X74738095Y-61238095D01*
X74452380Y-62142857D02*
X74452380Y-62761904D01*
X74833333Y-62428571D01*
X74833333Y-62571428D01*
X74880952Y-62666666D01*
X74928571Y-62714285D01*
X75023809Y-62761904D01*
X75261904Y-62761904D01*
X75357142Y-62714285D01*
X75404761Y-62666666D01*
X75452380Y-62571428D01*
X75452380Y-62285714D01*
X75404761Y-62190476D01*
X75357142Y-62142857D01*
X82166666Y-73952380D02*
X82500000Y-73476190D01*
X82738095Y-73952380D02*
X82738095Y-72952380D01*
X82357142Y-72952380D01*
X82261904Y-73000000D01*
X82214285Y-73047619D01*
X82166666Y-73142857D01*
X82166666Y-73285714D01*
X82214285Y-73380952D01*
X82261904Y-73428571D01*
X82357142Y-73476190D01*
X82738095Y-73476190D01*
X81214285Y-73952380D02*
X81785714Y-73952380D01*
X81500000Y-73952380D02*
X81500000Y-72952380D01*
X81595238Y-73095238D01*
X81690476Y-73190476D01*
X81785714Y-73238095D01*
X82166666Y-70952380D02*
X82500000Y-70476190D01*
X82738095Y-70952380D02*
X82738095Y-69952380D01*
X82357142Y-69952380D01*
X82261904Y-70000000D01*
X82214285Y-70047619D01*
X82166666Y-70142857D01*
X82166666Y-70285714D01*
X82214285Y-70380952D01*
X82261904Y-70428571D01*
X82357142Y-70476190D01*
X82738095Y-70476190D01*
X81785714Y-70047619D02*
X81738095Y-70000000D01*
X81642857Y-69952380D01*
X81404761Y-69952380D01*
X81309523Y-70000000D01*
X81261904Y-70047619D01*
X81214285Y-70142857D01*
X81214285Y-70238095D01*
X81261904Y-70380952D01*
X81833333Y-70952380D01*
X81214285Y-70952380D01*
X121166666Y-73952380D02*
X121500000Y-73476190D01*
X121738095Y-73952380D02*
X121738095Y-72952380D01*
X121357142Y-72952380D01*
X121261904Y-73000000D01*
X121214285Y-73047619D01*
X121166666Y-73142857D01*
X121166666Y-73285714D01*
X121214285Y-73380952D01*
X121261904Y-73428571D01*
X121357142Y-73476190D01*
X121738095Y-73476190D01*
X120833333Y-72952380D02*
X120214285Y-72952380D01*
X120547619Y-73333333D01*
X120404761Y-73333333D01*
X120309523Y-73380952D01*
X120261904Y-73428571D01*
X120214285Y-73523809D01*
X120214285Y-73761904D01*
X120261904Y-73857142D01*
X120309523Y-73904761D01*
X120404761Y-73952380D01*
X120690476Y-73952380D01*
X120785714Y-73904761D01*
X120833333Y-73857142D01*
X121166666Y-70952380D02*
X121500000Y-70476190D01*
X121738095Y-70952380D02*
X121738095Y-69952380D01*
X121357142Y-69952380D01*
X121261904Y-70000000D01*
X121214285Y-70047619D01*
X121166666Y-70142857D01*
X121166666Y-70285714D01*
X121214285Y-70380952D01*
X121261904Y-70428571D01*
X121357142Y-70476190D01*
X121738095Y-70476190D01*
X120309523Y-70285714D02*
X120309523Y-70952380D01*
X120547619Y-69904761D02*
X120785714Y-70619047D01*
X120166666Y-70619047D01*
X160416666Y-73952380D02*
X160750000Y-73476190D01*
X160988095Y-73952380D02*
X160988095Y-72952380D01*
X160607142Y-72952380D01*
X160511904Y-73000000D01*
X160464285Y-73047619D01*
X160416666Y-73142857D01*
X160416666Y-73285714D01*
X160464285Y-73380952D01*
X160511904Y-73428571D01*
X160607142Y-73476190D01*
X160988095Y-73476190D01*
X159511904Y-72952380D02*
X159988095Y-72952380D01*
X160035714Y-73428571D01*
X159988095Y-73380952D01*
X159892857Y-73333333D01*
X159654761Y-73333333D01*
X159559523Y-73380952D01*
X159511904Y-73428571D01*
X159464285Y-73523809D01*
X159464285Y-73761904D01*
X159511904Y-73857142D01*
X159559523Y-73904761D01*
X159654761Y-73952380D01*
X159892857Y-73952380D01*
X159988095Y-73904761D01*
X160035714Y-73857142D01*
X160416666Y-70952380D02*
X160750000Y-70476190D01*
X160988095Y-70952380D02*
X160988095Y-69952380D01*
X160607142Y-69952380D01*
X160511904Y-70000000D01*
X160464285Y-70047619D01*
X160416666Y-70142857D01*
X160416666Y-70285714D01*
X160464285Y-70380952D01*
X160511904Y-70428571D01*
X160607142Y-70476190D01*
X160988095Y-70476190D01*
X159559523Y-69952380D02*
X159750000Y-69952380D01*
X159845238Y-70000000D01*
X159892857Y-70047619D01*
X159988095Y-70190476D01*
X160035714Y-70380952D01*
X160035714Y-70761904D01*
X159988095Y-70857142D01*
X159940476Y-70904761D01*
X159845238Y-70952380D01*
X159654761Y-70952380D01*
X159559523Y-70904761D01*
X159511904Y-70857142D01*
X159464285Y-70761904D01*
X159464285Y-70523809D01*
X159511904Y-70428571D01*
X159559523Y-70380952D01*
X159654761Y-70333333D01*
X159845238Y-70333333D01*
X159940476Y-70380952D01*
X159988095Y-70428571D01*
X160035714Y-70523809D01*
X199166666Y-73952380D02*
X199500000Y-73476190D01*
X199738095Y-73952380D02*
X199738095Y-72952380D01*
X199357142Y-72952380D01*
X199261904Y-73000000D01*
X199214285Y-73047619D01*
X199166666Y-73142857D01*
X199166666Y-73285714D01*
X199214285Y-73380952D01*
X199261904Y-73428571D01*
X199357142Y-73476190D01*
X199738095Y-73476190D01*
X198833333Y-72952380D02*
X198166666Y-72952380D01*
X198595238Y-73952380D01*
X199166666Y-70952380D02*
X199500000Y-70476190D01*
X199738095Y-70952380D02*
X199738095Y-69952380D01*
X199357142Y-69952380D01*
X199261904Y-70000000D01*
X199214285Y-70047619D01*
X199166666Y-70142857D01*
X199166666Y-70285714D01*
X199214285Y-70380952D01*
X199261904Y-70428571D01*
X199357142Y-70476190D01*
X199738095Y-70476190D01*
X198595238Y-70380952D02*
X198690476Y-70333333D01*
X198738095Y-70285714D01*
X198785714Y-70190476D01*
X198785714Y-70142857D01*
X198738095Y-70047619D01*
X198690476Y-70000000D01*
X198595238Y-69952380D01*
X198404761Y-69952380D01*
X198309523Y-70000000D01*
X198261904Y-70047619D01*
X198214285Y-70142857D01*
X198214285Y-70190476D01*
X198261904Y-70285714D01*
X198309523Y-70333333D01*
X198404761Y-70380952D01*
X198595238Y-70380952D01*
X198690476Y-70428571D01*
X198738095Y-70476190D01*
X198785714Y-70571428D01*
X198785714Y-70761904D01*
X198738095Y-70857142D01*
X198690476Y-70904761D01*
X198595238Y-70952380D01*
X198404761Y-70952380D01*
X198309523Y-70904761D01*
X198261904Y-70857142D01*
X198214285Y-70761904D01*
X198214285Y-70571428D01*
X198261904Y-70476190D01*
X198309523Y-70428571D01*
X198404761Y-70380952D01*
X82166666Y-101952380D02*
X82500000Y-101476190D01*
X82738095Y-101952380D02*
X82738095Y-100952380D01*
X82357142Y-100952380D01*
X82261904Y-101000000D01*
X82214285Y-101047619D01*
X82166666Y-101142857D01*
X82166666Y-101285714D01*
X82214285Y-101380952D01*
X82261904Y-101428571D01*
X82357142Y-101476190D01*
X82738095Y-101476190D01*
X81690476Y-101952380D02*
X81500000Y-101952380D01*
X81404761Y-101904761D01*
X81357142Y-101857142D01*
X81261904Y-101714285D01*
X81214285Y-101523809D01*
X81214285Y-101142857D01*
X81261904Y-101047619D01*
X81309523Y-101000000D01*
X81404761Y-100952380D01*
X81595238Y-100952380D01*
X81690476Y-101000000D01*
X81738095Y-101047619D01*
X81785714Y-101142857D01*
X81785714Y-101380952D01*
X81738095Y-101476190D01*
X81690476Y-101523809D01*
X81595238Y-101571428D01*
X81404761Y-101571428D01*
X81309523Y-101523809D01*
X81261904Y-101476190D01*
X81214285Y-101380952D01*
X83142857Y-98952380D02*
X83476190Y-98476190D01*
X83714285Y-98952380D02*
X83714285Y-97952380D01*
X83333333Y-97952380D01*
X83238095Y-98000000D01*
X83190476Y-98047619D01*
X83142857Y-98142857D01*
X83142857Y-98285714D01*
X83190476Y-98380952D01*
X83238095Y-98428571D01*
X83333333Y-98476190D01*
X83714285Y-98476190D01*
X82190476Y-98952380D02*
X82761904Y-98952380D01*
X82476190Y-98952380D02*
X82476190Y-97952380D01*
X82571428Y-98095238D01*
X82666666Y-98190476D01*
X82761904Y-98238095D01*
X81571428Y-97952380D02*
X81476190Y-97952380D01*
X81380952Y-98000000D01*
X81333333Y-98047619D01*
X81285714Y-98142857D01*
X81238095Y-98333333D01*
X81238095Y-98571428D01*
X81285714Y-98761904D01*
X81333333Y-98857142D01*
X81380952Y-98904761D01*
X81476190Y-98952380D01*
X81571428Y-98952380D01*
X81666666Y-98904761D01*
X81714285Y-98857142D01*
X81761904Y-98761904D01*
X81809523Y-98571428D01*
X81809523Y-98333333D01*
X81761904Y-98142857D01*
X81714285Y-98047619D01*
X81666666Y-98000000D01*
X81571428Y-97952380D01*
X122142857Y-101952380D02*
X122476190Y-101476190D01*
X122714285Y-101952380D02*
X122714285Y-100952380D01*
X122333333Y-100952380D01*
X122238095Y-101000000D01*
X122190476Y-101047619D01*
X122142857Y-101142857D01*
X122142857Y-101285714D01*
X122190476Y-101380952D01*
X122238095Y-101428571D01*
X122333333Y-101476190D01*
X122714285Y-101476190D01*
X121190476Y-101952380D02*
X121761904Y-101952380D01*
X121476190Y-101952380D02*
X121476190Y-100952380D01*
X121571428Y-101095238D01*
X121666666Y-101190476D01*
X121761904Y-101238095D01*
X120238095Y-101952380D02*
X120809523Y-101952380D01*
X120523809Y-101952380D02*
X120523809Y-100952380D01*
X120619047Y-101095238D01*
X120714285Y-101190476D01*
X120809523Y-101238095D01*
X122142857Y-98952380D02*
X122476190Y-98476190D01*
X122714285Y-98952380D02*
X122714285Y-97952380D01*
X122333333Y-97952380D01*
X122238095Y-98000000D01*
X122190476Y-98047619D01*
X122142857Y-98142857D01*
X122142857Y-98285714D01*
X122190476Y-98380952D01*
X122238095Y-98428571D01*
X122333333Y-98476190D01*
X122714285Y-98476190D01*
X121190476Y-98952380D02*
X121761904Y-98952380D01*
X121476190Y-98952380D02*
X121476190Y-97952380D01*
X121571428Y-98095238D01*
X121666666Y-98190476D01*
X121761904Y-98238095D01*
X120809523Y-98047619D02*
X120761904Y-98000000D01*
X120666666Y-97952380D01*
X120428571Y-97952380D01*
X120333333Y-98000000D01*
X120285714Y-98047619D01*
X120238095Y-98142857D01*
X120238095Y-98238095D01*
X120285714Y-98380952D01*
X120857142Y-98952380D01*
X120238095Y-98952380D01*
X161392857Y-101952380D02*
X161726190Y-101476190D01*
X161964285Y-101952380D02*
X161964285Y-100952380D01*
X161583333Y-100952380D01*
X161488095Y-101000000D01*
X161440476Y-101047619D01*
X161392857Y-101142857D01*
X161392857Y-101285714D01*
X161440476Y-101380952D01*
X161488095Y-101428571D01*
X161583333Y-101476190D01*
X161964285Y-101476190D01*
X160440476Y-101952380D02*
X161011904Y-101952380D01*
X160726190Y-101952380D02*
X160726190Y-100952380D01*
X160821428Y-101095238D01*
X160916666Y-101190476D01*
X161011904Y-101238095D01*
X160107142Y-100952380D02*
X159488095Y-100952380D01*
X159821428Y-101333333D01*
X159678571Y-101333333D01*
X159583333Y-101380952D01*
X159535714Y-101428571D01*
X159488095Y-101523809D01*
X159488095Y-101761904D01*
X159535714Y-101857142D01*
X159583333Y-101904761D01*
X159678571Y-101952380D01*
X159964285Y-101952380D01*
X160059523Y-101904761D01*
X160107142Y-101857142D01*
X161392857Y-98952380D02*
X161726190Y-98476190D01*
X161964285Y-98952380D02*
X161964285Y-97952380D01*
X161583333Y-97952380D01*
X161488095Y-98000000D01*
X161440476Y-98047619D01*
X161392857Y-98142857D01*
X161392857Y-98285714D01*
X161440476Y-98380952D01*
X161488095Y-98428571D01*
X161583333Y-98476190D01*
X161964285Y-98476190D01*
X160440476Y-98952380D02*
X161011904Y-98952380D01*
X160726190Y-98952380D02*
X160726190Y-97952380D01*
X160821428Y-98095238D01*
X160916666Y-98190476D01*
X161011904Y-98238095D01*
X159583333Y-98285714D02*
X159583333Y-98952380D01*
X159821428Y-97904761D02*
X160059523Y-98619047D01*
X159440476Y-98619047D01*
X200392857Y-101952380D02*
X200726190Y-101476190D01*
X200964285Y-101952380D02*
X200964285Y-100952380D01*
X200583333Y-100952380D01*
X200488095Y-101000000D01*
X200440476Y-101047619D01*
X200392857Y-101142857D01*
X200392857Y-101285714D01*
X200440476Y-101380952D01*
X200488095Y-101428571D01*
X200583333Y-101476190D01*
X200964285Y-101476190D01*
X199440476Y-101952380D02*
X200011904Y-101952380D01*
X199726190Y-101952380D02*
X199726190Y-100952380D01*
X199821428Y-101095238D01*
X199916666Y-101190476D01*
X200011904Y-101238095D01*
X198535714Y-100952380D02*
X199011904Y-100952380D01*
X199059523Y-101428571D01*
X199011904Y-101380952D01*
X198916666Y-101333333D01*
X198678571Y-101333333D01*
X198583333Y-101380952D01*
X198535714Y-101428571D01*
X198488095Y-101523809D01*
X198488095Y-101761904D01*
X198535714Y-101857142D01*
X198583333Y-101904761D01*
X198678571Y-101952380D01*
X198916666Y-101952380D01*
X199011904Y-101904761D01*
X199059523Y-101857142D01*
X200392857Y-98952380D02*
X200726190Y-98476190D01*
X200964285Y-98952380D02*
X200964285Y-97952380D01*
X200583333Y-97952380D01*
X200488095Y-98000000D01*
X200440476Y-98047619D01*
X200392857Y-98142857D01*
X200392857Y-98285714D01*
X200440476Y-98380952D01*
X200488095Y-98428571D01*
X200583333Y-98476190D01*
X200964285Y-98476190D01*
X199440476Y-98952380D02*
X200011904Y-98952380D01*
X199726190Y-98952380D02*
X199726190Y-97952380D01*
X199821428Y-98095238D01*
X199916666Y-98190476D01*
X200011904Y-98238095D01*
X198583333Y-97952380D02*
X198773809Y-97952380D01*
X198869047Y-98000000D01*
X198916666Y-98047619D01*
X199011904Y-98190476D01*
X199059523Y-98380952D01*
X199059523Y-98761904D01*
X199011904Y-98857142D01*
X198964285Y-98904761D01*
X198869047Y-98952380D01*
X198678571Y-98952380D01*
X198583333Y-98904761D01*
X198535714Y-98857142D01*
X198488095Y-98761904D01*
X198488095Y-98523809D01*
X198535714Y-98428571D01*
X198583333Y-98380952D01*
X198678571Y-98333333D01*
X198869047Y-98333333D01*
X198964285Y-98380952D01*
X199011904Y-98428571D01*
X199059523Y-98523809D01*
X239392857Y-101952380D02*
X239726190Y-101476190D01*
X239964285Y-101952380D02*
X239964285Y-100952380D01*
X239583333Y-100952380D01*
X239488095Y-101000000D01*
X239440476Y-101047619D01*
X239392857Y-101142857D01*
X239392857Y-101285714D01*
X239440476Y-101380952D01*
X239488095Y-101428571D01*
X239583333Y-101476190D01*
X239964285Y-101476190D01*
X238440476Y-101952380D02*
X239011904Y-101952380D01*
X238726190Y-101952380D02*
X238726190Y-100952380D01*
X238821428Y-101095238D01*
X238916666Y-101190476D01*
X239011904Y-101238095D01*
X237869047Y-101380952D02*
X237964285Y-101333333D01*
X238011904Y-101285714D01*
X238059523Y-101190476D01*
X238059523Y-101142857D01*
X238011904Y-101047619D01*
X237964285Y-101000000D01*
X237869047Y-100952380D01*
X237678571Y-100952380D01*
X237583333Y-101000000D01*
X237535714Y-101047619D01*
X237488095Y-101142857D01*
X237488095Y-101190476D01*
X237535714Y-101285714D01*
X237583333Y-101333333D01*
X237678571Y-101380952D01*
X237869047Y-101380952D01*
X237964285Y-101428571D01*
X238011904Y-101476190D01*
X238059523Y-101571428D01*
X238059523Y-101761904D01*
X238011904Y-101857142D01*
X237964285Y-101904761D01*
X237869047Y-101952380D01*
X237678571Y-101952380D01*
X237583333Y-101904761D01*
X237535714Y-101857142D01*
X237488095Y-101761904D01*
X237488095Y-101571428D01*
X237535714Y-101476190D01*
X237583333Y-101428571D01*
X237678571Y-101380952D01*
X239392857Y-98952380D02*
X239726190Y-98476190D01*
X239964285Y-98952380D02*
X239964285Y-97952380D01*
X239583333Y-97952380D01*
X239488095Y-98000000D01*
X239440476Y-98047619D01*
X239392857Y-98142857D01*
X239392857Y-98285714D01*
X239440476Y-98380952D01*
X239488095Y-98428571D01*
X239583333Y-98476190D01*
X239964285Y-98476190D01*
X238440476Y-98952380D02*
X239011904Y-98952380D01*
X238726190Y-98952380D02*
X238726190Y-97952380D01*
X238821428Y-98095238D01*
X238916666Y-98190476D01*
X239011904Y-98238095D01*
X237964285Y-98952380D02*
X237773809Y-98952380D01*
X237678571Y-98904761D01*
X237630952Y-98857142D01*
X237535714Y-98714285D01*
X237488095Y-98523809D01*
X237488095Y-98142857D01*
X237535714Y-98047619D01*
X237583333Y-98000000D01*
X237678571Y-97952380D01*
X237869047Y-97952380D01*
X237964285Y-98000000D01*
X238011904Y-98047619D01*
X238059523Y-98142857D01*
X238059523Y-98380952D01*
X238011904Y-98476190D01*
X237964285Y-98523809D01*
X237869047Y-98571428D01*
X237678571Y-98571428D01*
X237583333Y-98523809D01*
X237535714Y-98476190D01*
X237488095Y-98380952D01*
X67452380Y-63857142D02*
X66976190Y-63523809D01*
X67452380Y-63285714D02*
X66452380Y-63285714D01*
X66452380Y-63666666D01*
X66500000Y-63761904D01*
X66547619Y-63809523D01*
X66642857Y-63857142D01*
X66785714Y-63857142D01*
X66880952Y-63809523D01*
X66928571Y-63761904D01*
X66976190Y-63666666D01*
X66976190Y-63285714D01*
X66547619Y-64238095D02*
X66500000Y-64285714D01*
X66452380Y-64380952D01*
X66452380Y-64619047D01*
X66500000Y-64714285D01*
X66547619Y-64761904D01*
X66642857Y-64809523D01*
X66738095Y-64809523D01*
X66880952Y-64761904D01*
X67452380Y-64190476D01*
X67452380Y-64809523D01*
X66547619Y-65190476D02*
X66500000Y-65238095D01*
X66452380Y-65333333D01*
X66452380Y-65571428D01*
X66500000Y-65666666D01*
X66547619Y-65714285D01*
X66642857Y-65761904D01*
X66738095Y-65761904D01*
X66880952Y-65714285D01*
X67452380Y-65142857D01*
X67452380Y-65761904D01*
X80952380Y-63857142D02*
X80476190Y-63523809D01*
X80952380Y-63285714D02*
X79952380Y-63285714D01*
X79952380Y-63666666D01*
X80000000Y-63761904D01*
X80047619Y-63809523D01*
X80142857Y-63857142D01*
X80285714Y-63857142D01*
X80380952Y-63809523D01*
X80428571Y-63761904D01*
X80476190Y-63666666D01*
X80476190Y-63285714D01*
X80047619Y-64238095D02*
X80000000Y-64285714D01*
X79952380Y-64380952D01*
X79952380Y-64619047D01*
X80000000Y-64714285D01*
X80047619Y-64761904D01*
X80142857Y-64809523D01*
X80238095Y-64809523D01*
X80380952Y-64761904D01*
X80952380Y-64190476D01*
X80952380Y-64809523D01*
X79952380Y-65142857D02*
X79952380Y-65761904D01*
X80333333Y-65428571D01*
X80333333Y-65571428D01*
X80380952Y-65666666D01*
X80428571Y-65714285D01*
X80523809Y-65761904D01*
X80761904Y-65761904D01*
X80857142Y-65714285D01*
X80904761Y-65666666D01*
X80952380Y-65571428D01*
X80952380Y-65285714D01*
X80904761Y-65190476D01*
X80857142Y-65142857D01*
X70952380Y-60857142D02*
X70476190Y-60523809D01*
X70952380Y-60285714D02*
X69952380Y-60285714D01*
X69952380Y-60666666D01*
X70000000Y-60761904D01*
X70047619Y-60809523D01*
X70142857Y-60857142D01*
X70285714Y-60857142D01*
X70380952Y-60809523D01*
X70428571Y-60761904D01*
X70476190Y-60666666D01*
X70476190Y-60285714D01*
X70047619Y-61238095D02*
X70000000Y-61285714D01*
X69952380Y-61380952D01*
X69952380Y-61619047D01*
X70000000Y-61714285D01*
X70047619Y-61761904D01*
X70142857Y-61809523D01*
X70238095Y-61809523D01*
X70380952Y-61761904D01*
X70952380Y-61190476D01*
X70952380Y-61809523D01*
X69952380Y-62142857D02*
X69952380Y-62809523D01*
X70952380Y-62380952D01*
X77452380Y-60857142D02*
X76976190Y-60523809D01*
X77452380Y-60285714D02*
X76452380Y-60285714D01*
X76452380Y-60666666D01*
X76500000Y-60761904D01*
X76547619Y-60809523D01*
X76642857Y-60857142D01*
X76785714Y-60857142D01*
X76880952Y-60809523D01*
X76928571Y-60761904D01*
X76976190Y-60666666D01*
X76976190Y-60285714D01*
X76547619Y-61238095D02*
X76500000Y-61285714D01*
X76452380Y-61380952D01*
X76452380Y-61619047D01*
X76500000Y-61714285D01*
X76547619Y-61761904D01*
X76642857Y-61809523D01*
X76738095Y-61809523D01*
X76880952Y-61761904D01*
X77452380Y-61190476D01*
X77452380Y-61809523D01*
X77452380Y-62285714D02*
X77452380Y-62476190D01*
X77404761Y-62571428D01*
X77357142Y-62619047D01*
X77214285Y-62714285D01*
X77023809Y-62761904D01*
X76642857Y-62761904D01*
X76547619Y-62714285D01*
X76500000Y-62666666D01*
X76452380Y-62571428D01*
X76452380Y-62380952D01*
X76500000Y-62285714D01*
X76547619Y-62238095D01*
X76642857Y-62190476D01*
X76880952Y-62190476D01*
X76976190Y-62238095D01*
X77023809Y-62285714D01*
X77071428Y-62380952D01*
X77071428Y-62571428D01*
X77023809Y-62666666D01*
X76976190Y-62714285D01*
X76880952Y-62761904D01*
X98761904Y-64202380D02*
X98761904Y-65011904D01*
X98714285Y-65107142D01*
X98666666Y-65154761D01*
X98571428Y-65202380D01*
X98380952Y-65202380D01*
X98285714Y-65154761D01*
X98238095Y-65107142D01*
X98190476Y-65011904D01*
X98190476Y-64202380D01*
X97190476Y-65202380D02*
X97761904Y-65202380D01*
X97476190Y-65202380D02*
X97476190Y-64202380D01*
X97571428Y-64345238D01*
X97666666Y-64440476D01*
X97761904Y-64488095D01*
X177011904Y-64047380D02*
X177011904Y-64856904D01*
X176964285Y-64952142D01*
X176916666Y-64999761D01*
X176821428Y-65047380D01*
X176630952Y-65047380D01*
X176535714Y-64999761D01*
X176488095Y-64952142D01*
X176440476Y-64856904D01*
X176440476Y-64047380D01*
X176011904Y-64142619D02*
X175964285Y-64095000D01*
X175869047Y-64047380D01*
X175630952Y-64047380D01*
X175535714Y-64095000D01*
X175488095Y-64142619D01*
X175440476Y-64237857D01*
X175440476Y-64333095D01*
X175488095Y-64475952D01*
X176059523Y-65047380D01*
X175440476Y-65047380D01*
X254761904Y-74552380D02*
X254761904Y-75361904D01*
X254714285Y-75457142D01*
X254666666Y-75504761D01*
X254571428Y-75552380D01*
X254380952Y-75552380D01*
X254285714Y-75504761D01*
X254238095Y-75457142D01*
X254190476Y-75361904D01*
X254190476Y-74552380D01*
X253809523Y-74552380D02*
X253190476Y-74552380D01*
X253523809Y-74933333D01*
X253380952Y-74933333D01*
X253285714Y-74980952D01*
X253238095Y-75028571D01*
X253190476Y-75123809D01*
X253190476Y-75361904D01*
X253238095Y-75457142D01*
X253285714Y-75504761D01*
X253380952Y-75552380D01*
X253666666Y-75552380D01*
X253761904Y-75504761D01*
X253809523Y-75457142D01*
X204761904Y-52052380D02*
X204761904Y-52861904D01*
X204714285Y-52957142D01*
X204666666Y-53004761D01*
X204571428Y-53052380D01*
X204380952Y-53052380D01*
X204285714Y-53004761D01*
X204238095Y-52957142D01*
X204190476Y-52861904D01*
X204190476Y-52052380D01*
X203571428Y-52480952D02*
X203666666Y-52433333D01*
X203714285Y-52385714D01*
X203761904Y-52290476D01*
X203761904Y-52242857D01*
X203714285Y-52147619D01*
X203666666Y-52100000D01*
X203571428Y-52052380D01*
X203380952Y-52052380D01*
X203285714Y-52100000D01*
X203238095Y-52147619D01*
X203190476Y-52242857D01*
X203190476Y-52290476D01*
X203238095Y-52385714D01*
X203285714Y-52433333D01*
X203380952Y-52480952D01*
X203571428Y-52480952D01*
X203666666Y-52528571D01*
X203714285Y-52576190D01*
X203761904Y-52671428D01*
X203761904Y-52861904D01*
X203714285Y-52957142D01*
X203666666Y-53004761D01*
X203571428Y-53052380D01*
X203380952Y-53052380D01*
X203285714Y-53004761D01*
X203238095Y-52957142D01*
X203190476Y-52861904D01*
X203190476Y-52671428D01*
X203238095Y-52576190D01*
X203285714Y-52528571D01*
X203380952Y-52480952D01*
X69607142Y-55857142D02*
X69654761Y-55809523D01*
X69702380Y-55666666D01*
X69702380Y-55571428D01*
X69654761Y-55428571D01*
X69559523Y-55333333D01*
X69464285Y-55285714D01*
X69273809Y-55238095D01*
X69130952Y-55238095D01*
X68940476Y-55285714D01*
X68845238Y-55333333D01*
X68750000Y-55428571D01*
X68702380Y-55571428D01*
X68702380Y-55666666D01*
X68750000Y-55809523D01*
X68797619Y-55857142D01*
X69702380Y-56809523D02*
X69702380Y-56238095D01*
X69702380Y-56523809D02*
X68702380Y-56523809D01*
X68845238Y-56428571D01*
X68940476Y-56333333D01*
X68988095Y-56238095D01*
X69035714Y-57666666D02*
X69702380Y-57666666D01*
X68654761Y-57428571D02*
X69369047Y-57190476D01*
X69369047Y-57809523D01*
X108857142Y-83857142D02*
X108904761Y-83809523D01*
X108952380Y-83666666D01*
X108952380Y-83571428D01*
X108904761Y-83428571D01*
X108809523Y-83333333D01*
X108714285Y-83285714D01*
X108523809Y-83238095D01*
X108380952Y-83238095D01*
X108190476Y-83285714D01*
X108095238Y-83333333D01*
X108000000Y-83428571D01*
X107952380Y-83571428D01*
X107952380Y-83666666D01*
X108000000Y-83809523D01*
X108047619Y-83857142D01*
X108952380Y-84809523D02*
X108952380Y-84238095D01*
X108952380Y-84523809D02*
X107952380Y-84523809D01*
X108095238Y-84428571D01*
X108190476Y-84333333D01*
X108238095Y-84238095D01*
X107952380Y-85714285D02*
X107952380Y-85238095D01*
X108428571Y-85190476D01*
X108380952Y-85238095D01*
X108333333Y-85333333D01*
X108333333Y-85571428D01*
X108380952Y-85666666D01*
X108428571Y-85714285D01*
X108523809Y-85761904D01*
X108761904Y-85761904D01*
X108857142Y-85714285D01*
X108904761Y-85666666D01*
X108952380Y-85571428D01*
X108952380Y-85333333D01*
X108904761Y-85238095D01*
X108857142Y-85190476D01*
X111857142Y-88857142D02*
X111904761Y-88809523D01*
X111952380Y-88666666D01*
X111952380Y-88571428D01*
X111904761Y-88428571D01*
X111809523Y-88333333D01*
X111714285Y-88285714D01*
X111523809Y-88238095D01*
X111380952Y-88238095D01*
X111190476Y-88285714D01*
X111095238Y-88333333D01*
X111000000Y-88428571D01*
X110952380Y-88571428D01*
X110952380Y-88666666D01*
X111000000Y-88809523D01*
X111047619Y-88857142D01*
X111952380Y-89809523D02*
X111952380Y-89238095D01*
X111952380Y-89523809D02*
X110952380Y-89523809D01*
X111095238Y-89428571D01*
X111190476Y-89333333D01*
X111238095Y-89238095D01*
X110952380Y-90666666D02*
X110952380Y-90476190D01*
X111000000Y-90380952D01*
X111047619Y-90333333D01*
X111190476Y-90238095D01*
X111380952Y-90190476D01*
X111761904Y-90190476D01*
X111857142Y-90238095D01*
X111904761Y-90285714D01*
X111952380Y-90380952D01*
X111952380Y-90571428D01*
X111904761Y-90666666D01*
X111857142Y-90714285D01*
X111761904Y-90761904D01*
X111523809Y-90761904D01*
X111428571Y-90714285D01*
X111380952Y-90666666D01*
X111333333Y-90571428D01*
X111333333Y-90380952D01*
X111380952Y-90285714D01*
X111428571Y-90238095D01*
X111523809Y-90190476D01*
X113857142Y-88857142D02*
X113904761Y-88809523D01*
X113952380Y-88666666D01*
X113952380Y-88571428D01*
X113904761Y-88428571D01*
X113809523Y-88333333D01*
X113714285Y-88285714D01*
X113523809Y-88238095D01*
X113380952Y-88238095D01*
X113190476Y-88285714D01*
X113095238Y-88333333D01*
X113000000Y-88428571D01*
X112952380Y-88571428D01*
X112952380Y-88666666D01*
X113000000Y-88809523D01*
X113047619Y-88857142D01*
X113952380Y-89809523D02*
X113952380Y-89238095D01*
X113952380Y-89523809D02*
X112952380Y-89523809D01*
X113095238Y-89428571D01*
X113190476Y-89333333D01*
X113238095Y-89238095D01*
X112952380Y-90142857D02*
X112952380Y-90809523D01*
X113952380Y-90380952D01*
X108857142Y-55857142D02*
X108904761Y-55809523D01*
X108952380Y-55666666D01*
X108952380Y-55571428D01*
X108904761Y-55428571D01*
X108809523Y-55333333D01*
X108714285Y-55285714D01*
X108523809Y-55238095D01*
X108380952Y-55238095D01*
X108190476Y-55285714D01*
X108095238Y-55333333D01*
X108000000Y-55428571D01*
X107952380Y-55571428D01*
X107952380Y-55666666D01*
X108000000Y-55809523D01*
X108047619Y-55857142D01*
X108952380Y-56809523D02*
X108952380Y-56238095D01*
X108952380Y-56523809D02*
X107952380Y-56523809D01*
X108095238Y-56428571D01*
X108190476Y-56333333D01*
X108238095Y-56238095D01*
X108952380Y-57285714D02*
X108952380Y-57476190D01*
X108904761Y-57571428D01*
X108857142Y-57619047D01*
X108714285Y-57714285D01*
X108523809Y-57761904D01*
X108142857Y-57761904D01*
X108047619Y-57714285D01*
X108000000Y-57666666D01*
X107952380Y-57571428D01*
X107952380Y-57380952D01*
X108000000Y-57285714D01*
X108047619Y-57238095D01*
X108142857Y-57190476D01*
X108380952Y-57190476D01*
X108476190Y-57238095D01*
X108523809Y-57285714D01*
X108571428Y-57380952D01*
X108571428Y-57571428D01*
X108523809Y-57666666D01*
X108476190Y-57714285D01*
X108380952Y-57761904D01*
X147857142Y-83857142D02*
X147904761Y-83809523D01*
X147952380Y-83666666D01*
X147952380Y-83571428D01*
X147904761Y-83428571D01*
X147809523Y-83333333D01*
X147714285Y-83285714D01*
X147523809Y-83238095D01*
X147380952Y-83238095D01*
X147190476Y-83285714D01*
X147095238Y-83333333D01*
X147000000Y-83428571D01*
X146952380Y-83571428D01*
X146952380Y-83666666D01*
X147000000Y-83809523D01*
X147047619Y-83857142D01*
X147047619Y-84238095D02*
X147000000Y-84285714D01*
X146952380Y-84380952D01*
X146952380Y-84619047D01*
X147000000Y-84714285D01*
X147047619Y-84761904D01*
X147142857Y-84809523D01*
X147238095Y-84809523D01*
X147380952Y-84761904D01*
X147952380Y-84190476D01*
X147952380Y-84809523D01*
X146952380Y-85428571D02*
X146952380Y-85523809D01*
X147000000Y-85619047D01*
X147047619Y-85666666D01*
X147142857Y-85714285D01*
X147333333Y-85761904D01*
X147571428Y-85761904D01*
X147761904Y-85714285D01*
X147857142Y-85666666D01*
X147904761Y-85619047D01*
X147952380Y-85523809D01*
X147952380Y-85428571D01*
X147904761Y-85333333D01*
X147857142Y-85285714D01*
X147761904Y-85238095D01*
X147571428Y-85190476D01*
X147333333Y-85190476D01*
X147142857Y-85238095D01*
X147047619Y-85285714D01*
X147000000Y-85333333D01*
X146952380Y-85428571D01*
X111857142Y-60857142D02*
X111904761Y-60809523D01*
X111952380Y-60666666D01*
X111952380Y-60571428D01*
X111904761Y-60428571D01*
X111809523Y-60333333D01*
X111714285Y-60285714D01*
X111523809Y-60238095D01*
X111380952Y-60238095D01*
X111190476Y-60285714D01*
X111095238Y-60333333D01*
X111000000Y-60428571D01*
X110952380Y-60571428D01*
X110952380Y-60666666D01*
X111000000Y-60809523D01*
X111047619Y-60857142D01*
X111047619Y-61238095D02*
X111000000Y-61285714D01*
X110952380Y-61380952D01*
X110952380Y-61619047D01*
X111000000Y-61714285D01*
X111047619Y-61761904D01*
X111142857Y-61809523D01*
X111238095Y-61809523D01*
X111380952Y-61761904D01*
X111952380Y-61190476D01*
X111952380Y-61809523D01*
X111952380Y-62761904D02*
X111952380Y-62190476D01*
X111952380Y-62476190D02*
X110952380Y-62476190D01*
X111095238Y-62380952D01*
X111190476Y-62285714D01*
X111238095Y-62190476D01*
X113857142Y-60857142D02*
X113904761Y-60809523D01*
X113952380Y-60666666D01*
X113952380Y-60571428D01*
X113904761Y-60428571D01*
X113809523Y-60333333D01*
X113714285Y-60285714D01*
X113523809Y-60238095D01*
X113380952Y-60238095D01*
X113190476Y-60285714D01*
X113095238Y-60333333D01*
X113000000Y-60428571D01*
X112952380Y-60571428D01*
X112952380Y-60666666D01*
X113000000Y-60809523D01*
X113047619Y-60857142D01*
X113047619Y-61238095D02*
X113000000Y-61285714D01*
X112952380Y-61380952D01*
X112952380Y-61619047D01*
X113000000Y-61714285D01*
X113047619Y-61761904D01*
X113142857Y-61809523D01*
X113238095Y-61809523D01*
X113380952Y-61761904D01*
X113952380Y-61190476D01*
X113952380Y-61809523D01*
X113047619Y-62190476D02*
X113000000Y-62238095D01*
X112952380Y-62333333D01*
X112952380Y-62571428D01*
X113000000Y-62666666D01*
X113047619Y-62714285D01*
X113142857Y-62761904D01*
X113238095Y-62761904D01*
X113380952Y-62714285D01*
X113952380Y-62142857D01*
X113952380Y-62761904D01*
X150857142Y-88607142D02*
X150904761Y-88559523D01*
X150952380Y-88416666D01*
X150952380Y-88321428D01*
X150904761Y-88178571D01*
X150809523Y-88083333D01*
X150714285Y-88035714D01*
X150523809Y-87988095D01*
X150380952Y-87988095D01*
X150190476Y-88035714D01*
X150095238Y-88083333D01*
X150000000Y-88178571D01*
X149952380Y-88321428D01*
X149952380Y-88416666D01*
X150000000Y-88559523D01*
X150047619Y-88607142D01*
X150047619Y-88988095D02*
X150000000Y-89035714D01*
X149952380Y-89130952D01*
X149952380Y-89369047D01*
X150000000Y-89464285D01*
X150047619Y-89511904D01*
X150142857Y-89559523D01*
X150238095Y-89559523D01*
X150380952Y-89511904D01*
X150952380Y-88940476D01*
X150952380Y-89559523D01*
X149952380Y-89892857D02*
X149952380Y-90511904D01*
X150333333Y-90178571D01*
X150333333Y-90321428D01*
X150380952Y-90416666D01*
X150428571Y-90464285D01*
X150523809Y-90511904D01*
X150761904Y-90511904D01*
X150857142Y-90464285D01*
X150904761Y-90416666D01*
X150952380Y-90321428D01*
X150952380Y-90035714D01*
X150904761Y-89940476D01*
X150857142Y-89892857D01*
X152857142Y-88607142D02*
X152904761Y-88559523D01*
X152952380Y-88416666D01*
X152952380Y-88321428D01*
X152904761Y-88178571D01*
X152809523Y-88083333D01*
X152714285Y-88035714D01*
X152523809Y-87988095D01*
X152380952Y-87988095D01*
X152190476Y-88035714D01*
X152095238Y-88083333D01*
X152000000Y-88178571D01*
X151952380Y-88321428D01*
X151952380Y-88416666D01*
X152000000Y-88559523D01*
X152047619Y-88607142D01*
X152047619Y-88988095D02*
X152000000Y-89035714D01*
X151952380Y-89130952D01*
X151952380Y-89369047D01*
X152000000Y-89464285D01*
X152047619Y-89511904D01*
X152142857Y-89559523D01*
X152238095Y-89559523D01*
X152380952Y-89511904D01*
X152952380Y-88940476D01*
X152952380Y-89559523D01*
X152285714Y-90416666D02*
X152952380Y-90416666D01*
X151904761Y-90178571D02*
X152619047Y-89940476D01*
X152619047Y-90559523D01*
X147857142Y-55857142D02*
X147904761Y-55809523D01*
X147952380Y-55666666D01*
X147952380Y-55571428D01*
X147904761Y-55428571D01*
X147809523Y-55333333D01*
X147714285Y-55285714D01*
X147523809Y-55238095D01*
X147380952Y-55238095D01*
X147190476Y-55285714D01*
X147095238Y-55333333D01*
X147000000Y-55428571D01*
X146952380Y-55571428D01*
X146952380Y-55666666D01*
X147000000Y-55809523D01*
X147047619Y-55857142D01*
X147047619Y-56238095D02*
X147000000Y-56285714D01*
X146952380Y-56380952D01*
X146952380Y-56619047D01*
X147000000Y-56714285D01*
X147047619Y-56761904D01*
X147142857Y-56809523D01*
X147238095Y-56809523D01*
X147380952Y-56761904D01*
X147952380Y-56190476D01*
X147952380Y-56809523D01*
X146952380Y-57666666D02*
X146952380Y-57476190D01*
X147000000Y-57380952D01*
X147047619Y-57333333D01*
X147190476Y-57238095D01*
X147380952Y-57190476D01*
X147761904Y-57190476D01*
X147857142Y-57238095D01*
X147904761Y-57285714D01*
X147952380Y-57380952D01*
X147952380Y-57571428D01*
X147904761Y-57666666D01*
X147857142Y-57714285D01*
X147761904Y-57761904D01*
X147523809Y-57761904D01*
X147428571Y-57714285D01*
X147380952Y-57666666D01*
X147333333Y-57571428D01*
X147333333Y-57380952D01*
X147380952Y-57285714D01*
X147428571Y-57238095D01*
X147523809Y-57190476D01*
X186857142Y-83857142D02*
X186904761Y-83809523D01*
X186952380Y-83666666D01*
X186952380Y-83571428D01*
X186904761Y-83428571D01*
X186809523Y-83333333D01*
X186714285Y-83285714D01*
X186523809Y-83238095D01*
X186380952Y-83238095D01*
X186190476Y-83285714D01*
X186095238Y-83333333D01*
X186000000Y-83428571D01*
X185952380Y-83571428D01*
X185952380Y-83666666D01*
X186000000Y-83809523D01*
X186047619Y-83857142D01*
X186047619Y-84238095D02*
X186000000Y-84285714D01*
X185952380Y-84380952D01*
X185952380Y-84619047D01*
X186000000Y-84714285D01*
X186047619Y-84761904D01*
X186142857Y-84809523D01*
X186238095Y-84809523D01*
X186380952Y-84761904D01*
X186952380Y-84190476D01*
X186952380Y-84809523D01*
X185952380Y-85142857D02*
X185952380Y-85809523D01*
X186952380Y-85380952D01*
X150857142Y-61357142D02*
X150904761Y-61309523D01*
X150952380Y-61166666D01*
X150952380Y-61071428D01*
X150904761Y-60928571D01*
X150809523Y-60833333D01*
X150714285Y-60785714D01*
X150523809Y-60738095D01*
X150380952Y-60738095D01*
X150190476Y-60785714D01*
X150095238Y-60833333D01*
X150000000Y-60928571D01*
X149952380Y-61071428D01*
X149952380Y-61166666D01*
X150000000Y-61309523D01*
X150047619Y-61357142D01*
X150047619Y-61738095D02*
X150000000Y-61785714D01*
X149952380Y-61880952D01*
X149952380Y-62119047D01*
X150000000Y-62214285D01*
X150047619Y-62261904D01*
X150142857Y-62309523D01*
X150238095Y-62309523D01*
X150380952Y-62261904D01*
X150952380Y-61690476D01*
X150952380Y-62309523D01*
X150952380Y-62785714D02*
X150952380Y-62976190D01*
X150904761Y-63071428D01*
X150857142Y-63119047D01*
X150714285Y-63214285D01*
X150523809Y-63261904D01*
X150142857Y-63261904D01*
X150047619Y-63214285D01*
X150000000Y-63166666D01*
X149952380Y-63071428D01*
X149952380Y-62880952D01*
X150000000Y-62785714D01*
X150047619Y-62738095D01*
X150142857Y-62690476D01*
X150380952Y-62690476D01*
X150476190Y-62738095D01*
X150523809Y-62785714D01*
X150571428Y-62880952D01*
X150571428Y-63071428D01*
X150523809Y-63166666D01*
X150476190Y-63214285D01*
X150380952Y-63261904D01*
X152857142Y-61357142D02*
X152904761Y-61309523D01*
X152952380Y-61166666D01*
X152952380Y-61071428D01*
X152904761Y-60928571D01*
X152809523Y-60833333D01*
X152714285Y-60785714D01*
X152523809Y-60738095D01*
X152380952Y-60738095D01*
X152190476Y-60785714D01*
X152095238Y-60833333D01*
X152000000Y-60928571D01*
X151952380Y-61071428D01*
X151952380Y-61166666D01*
X152000000Y-61309523D01*
X152047619Y-61357142D01*
X152285714Y-62214285D02*
X152952380Y-62214285D01*
X151904761Y-61976190D02*
X152619047Y-61738095D01*
X152619047Y-62357142D01*
X152047619Y-62690476D02*
X152000000Y-62738095D01*
X151952380Y-62833333D01*
X151952380Y-63071428D01*
X152000000Y-63166666D01*
X152047619Y-63214285D01*
X152142857Y-63261904D01*
X152238095Y-63261904D01*
X152380952Y-63214285D01*
X152952380Y-62642857D01*
X152952380Y-63261904D01*
X189857142Y-88607142D02*
X189904761Y-88559523D01*
X189952380Y-88416666D01*
X189952380Y-88321428D01*
X189904761Y-88178571D01*
X189809523Y-88083333D01*
X189714285Y-88035714D01*
X189523809Y-87988095D01*
X189380952Y-87988095D01*
X189190476Y-88035714D01*
X189095238Y-88083333D01*
X189000000Y-88178571D01*
X188952380Y-88321428D01*
X188952380Y-88416666D01*
X189000000Y-88559523D01*
X189047619Y-88607142D01*
X189285714Y-89464285D02*
X189952380Y-89464285D01*
X188904761Y-89226190D02*
X189619047Y-88988095D01*
X189619047Y-89607142D01*
X188952380Y-89892857D02*
X188952380Y-90511904D01*
X189333333Y-90178571D01*
X189333333Y-90321428D01*
X189380952Y-90416666D01*
X189428571Y-90464285D01*
X189523809Y-90511904D01*
X189761904Y-90511904D01*
X189857142Y-90464285D01*
X189904761Y-90416666D01*
X189952380Y-90321428D01*
X189952380Y-90035714D01*
X189904761Y-89940476D01*
X189857142Y-89892857D01*
X191857142Y-88607142D02*
X191904761Y-88559523D01*
X191952380Y-88416666D01*
X191952380Y-88321428D01*
X191904761Y-88178571D01*
X191809523Y-88083333D01*
X191714285Y-88035714D01*
X191523809Y-87988095D01*
X191380952Y-87988095D01*
X191190476Y-88035714D01*
X191095238Y-88083333D01*
X191000000Y-88178571D01*
X190952380Y-88321428D01*
X190952380Y-88416666D01*
X191000000Y-88559523D01*
X191047619Y-88607142D01*
X191285714Y-89464285D02*
X191952380Y-89464285D01*
X190904761Y-89226190D02*
X191619047Y-88988095D01*
X191619047Y-89607142D01*
X191285714Y-90416666D02*
X191952380Y-90416666D01*
X190904761Y-90178571D02*
X191619047Y-89940476D01*
X191619047Y-90559523D01*
X186857142Y-55857142D02*
X186904761Y-55809523D01*
X186952380Y-55666666D01*
X186952380Y-55571428D01*
X186904761Y-55428571D01*
X186809523Y-55333333D01*
X186714285Y-55285714D01*
X186523809Y-55238095D01*
X186380952Y-55238095D01*
X186190476Y-55285714D01*
X186095238Y-55333333D01*
X186000000Y-55428571D01*
X185952380Y-55571428D01*
X185952380Y-55666666D01*
X186000000Y-55809523D01*
X186047619Y-55857142D01*
X186285714Y-56714285D02*
X186952380Y-56714285D01*
X185904761Y-56476190D02*
X186619047Y-56238095D01*
X186619047Y-56857142D01*
X185952380Y-57666666D02*
X185952380Y-57476190D01*
X186000000Y-57380952D01*
X186047619Y-57333333D01*
X186190476Y-57238095D01*
X186380952Y-57190476D01*
X186761904Y-57190476D01*
X186857142Y-57238095D01*
X186904761Y-57285714D01*
X186952380Y-57380952D01*
X186952380Y-57571428D01*
X186904761Y-57666666D01*
X186857142Y-57714285D01*
X186761904Y-57761904D01*
X186523809Y-57761904D01*
X186428571Y-57714285D01*
X186380952Y-57666666D01*
X186333333Y-57571428D01*
X186333333Y-57380952D01*
X186380952Y-57285714D01*
X186428571Y-57238095D01*
X186523809Y-57190476D01*
X225857142Y-84357142D02*
X225904761Y-84309523D01*
X225952380Y-84166666D01*
X225952380Y-84071428D01*
X225904761Y-83928571D01*
X225809523Y-83833333D01*
X225714285Y-83785714D01*
X225523809Y-83738095D01*
X225380952Y-83738095D01*
X225190476Y-83785714D01*
X225095238Y-83833333D01*
X225000000Y-83928571D01*
X224952380Y-84071428D01*
X224952380Y-84166666D01*
X225000000Y-84309523D01*
X225047619Y-84357142D01*
X225285714Y-85214285D02*
X225952380Y-85214285D01*
X224904761Y-84976190D02*
X225619047Y-84738095D01*
X225619047Y-85357142D01*
X224952380Y-85642857D02*
X224952380Y-86309523D01*
X225952380Y-85880952D01*
X189857142Y-60857142D02*
X189904761Y-60809523D01*
X189952380Y-60666666D01*
X189952380Y-60571428D01*
X189904761Y-60428571D01*
X189809523Y-60333333D01*
X189714285Y-60285714D01*
X189523809Y-60238095D01*
X189380952Y-60238095D01*
X189190476Y-60285714D01*
X189095238Y-60333333D01*
X189000000Y-60428571D01*
X188952380Y-60571428D01*
X188952380Y-60666666D01*
X189000000Y-60809523D01*
X189047619Y-60857142D01*
X189285714Y-61714285D02*
X189952380Y-61714285D01*
X188904761Y-61476190D02*
X189619047Y-61238095D01*
X189619047Y-61857142D01*
X189380952Y-62380952D02*
X189333333Y-62285714D01*
X189285714Y-62238095D01*
X189190476Y-62190476D01*
X189142857Y-62190476D01*
X189047619Y-62238095D01*
X189000000Y-62285714D01*
X188952380Y-62380952D01*
X188952380Y-62571428D01*
X189000000Y-62666666D01*
X189047619Y-62714285D01*
X189142857Y-62761904D01*
X189190476Y-62761904D01*
X189285714Y-62714285D01*
X189333333Y-62666666D01*
X189380952Y-62571428D01*
X189380952Y-62380952D01*
X189428571Y-62285714D01*
X189476190Y-62238095D01*
X189571428Y-62190476D01*
X189761904Y-62190476D01*
X189857142Y-62238095D01*
X189904761Y-62285714D01*
X189952380Y-62380952D01*
X189952380Y-62571428D01*
X189904761Y-62666666D01*
X189857142Y-62714285D01*
X189761904Y-62761904D01*
X189571428Y-62761904D01*
X189476190Y-62714285D01*
X189428571Y-62666666D01*
X189380952Y-62571428D01*
X191857142Y-60857142D02*
X191904761Y-60809523D01*
X191952380Y-60666666D01*
X191952380Y-60571428D01*
X191904761Y-60428571D01*
X191809523Y-60333333D01*
X191714285Y-60285714D01*
X191523809Y-60238095D01*
X191380952Y-60238095D01*
X191190476Y-60285714D01*
X191095238Y-60333333D01*
X191000000Y-60428571D01*
X190952380Y-60571428D01*
X190952380Y-60666666D01*
X191000000Y-60809523D01*
X191047619Y-60857142D01*
X191285714Y-61714285D02*
X191952380Y-61714285D01*
X190904761Y-61476190D02*
X191619047Y-61238095D01*
X191619047Y-61857142D01*
X191952380Y-62285714D02*
X191952380Y-62476190D01*
X191904761Y-62571428D01*
X191857142Y-62619047D01*
X191714285Y-62714285D01*
X191523809Y-62761904D01*
X191142857Y-62761904D01*
X191047619Y-62714285D01*
X191000000Y-62666666D01*
X190952380Y-62571428D01*
X190952380Y-62380952D01*
X191000000Y-62285714D01*
X191047619Y-62238095D01*
X191142857Y-62190476D01*
X191380952Y-62190476D01*
X191476190Y-62238095D01*
X191523809Y-62285714D01*
X191571428Y-62380952D01*
X191571428Y-62571428D01*
X191523809Y-62666666D01*
X191476190Y-62714285D01*
X191380952Y-62761904D01*
X226857142Y-88607142D02*
X226904761Y-88559523D01*
X226952380Y-88416666D01*
X226952380Y-88321428D01*
X226904761Y-88178571D01*
X226809523Y-88083333D01*
X226714285Y-88035714D01*
X226523809Y-87988095D01*
X226380952Y-87988095D01*
X226190476Y-88035714D01*
X226095238Y-88083333D01*
X226000000Y-88178571D01*
X225952380Y-88321428D01*
X225952380Y-88416666D01*
X226000000Y-88559523D01*
X226047619Y-88607142D01*
X225952380Y-89511904D02*
X225952380Y-89035714D01*
X226428571Y-88988095D01*
X226380952Y-89035714D01*
X226333333Y-89130952D01*
X226333333Y-89369047D01*
X226380952Y-89464285D01*
X226428571Y-89511904D01*
X226523809Y-89559523D01*
X226761904Y-89559523D01*
X226857142Y-89511904D01*
X226904761Y-89464285D01*
X226952380Y-89369047D01*
X226952380Y-89130952D01*
X226904761Y-89035714D01*
X226857142Y-88988095D01*
X225952380Y-90178571D02*
X225952380Y-90273809D01*
X226000000Y-90369047D01*
X226047619Y-90416666D01*
X226142857Y-90464285D01*
X226333333Y-90511904D01*
X226571428Y-90511904D01*
X226761904Y-90464285D01*
X226857142Y-90416666D01*
X226904761Y-90369047D01*
X226952380Y-90273809D01*
X226952380Y-90178571D01*
X226904761Y-90083333D01*
X226857142Y-90035714D01*
X226761904Y-89988095D01*
X226571428Y-89940476D01*
X226333333Y-89940476D01*
X226142857Y-89988095D01*
X226047619Y-90035714D01*
X226000000Y-90083333D01*
X225952380Y-90178571D01*
X230857142Y-88607142D02*
X230904761Y-88559523D01*
X230952380Y-88416666D01*
X230952380Y-88321428D01*
X230904761Y-88178571D01*
X230809523Y-88083333D01*
X230714285Y-88035714D01*
X230523809Y-87988095D01*
X230380952Y-87988095D01*
X230190476Y-88035714D01*
X230095238Y-88083333D01*
X230000000Y-88178571D01*
X229952380Y-88321428D01*
X229952380Y-88416666D01*
X230000000Y-88559523D01*
X230047619Y-88607142D01*
X229952380Y-89511904D02*
X229952380Y-89035714D01*
X230428571Y-88988095D01*
X230380952Y-89035714D01*
X230333333Y-89130952D01*
X230333333Y-89369047D01*
X230380952Y-89464285D01*
X230428571Y-89511904D01*
X230523809Y-89559523D01*
X230761904Y-89559523D01*
X230857142Y-89511904D01*
X230904761Y-89464285D01*
X230952380Y-89369047D01*
X230952380Y-89130952D01*
X230904761Y-89035714D01*
X230857142Y-88988095D01*
X230952380Y-90511904D02*
X230952380Y-89940476D01*
X230952380Y-90226190D02*
X229952380Y-90226190D01*
X230095238Y-90130952D01*
X230190476Y-90035714D01*
X230238095Y-89940476D01*
X69857142Y-83857142D02*
X69904761Y-83809523D01*
X69952380Y-83666666D01*
X69952380Y-83571428D01*
X69904761Y-83428571D01*
X69809523Y-83333333D01*
X69714285Y-83285714D01*
X69523809Y-83238095D01*
X69380952Y-83238095D01*
X69190476Y-83285714D01*
X69095238Y-83333333D01*
X69000000Y-83428571D01*
X68952380Y-83571428D01*
X68952380Y-83666666D01*
X69000000Y-83809523D01*
X69047619Y-83857142D01*
X68952380Y-84761904D02*
X68952380Y-84285714D01*
X69428571Y-84238095D01*
X69380952Y-84285714D01*
X69333333Y-84380952D01*
X69333333Y-84619047D01*
X69380952Y-84714285D01*
X69428571Y-84761904D01*
X69523809Y-84809523D01*
X69761904Y-84809523D01*
X69857142Y-84761904D01*
X69904761Y-84714285D01*
X69952380Y-84619047D01*
X69952380Y-84380952D01*
X69904761Y-84285714D01*
X69857142Y-84238095D01*
X68952380Y-85142857D02*
X68952380Y-85761904D01*
X69333333Y-85428571D01*
X69333333Y-85571428D01*
X69380952Y-85666666D01*
X69428571Y-85714285D01*
X69523809Y-85761904D01*
X69761904Y-85761904D01*
X69857142Y-85714285D01*
X69904761Y-85666666D01*
X69952380Y-85571428D01*
X69952380Y-85285714D01*
X69904761Y-85190476D01*
X69857142Y-85142857D01*
X72857142Y-88857142D02*
X72904761Y-88809523D01*
X72952380Y-88666666D01*
X72952380Y-88571428D01*
X72904761Y-88428571D01*
X72809523Y-88333333D01*
X72714285Y-88285714D01*
X72523809Y-88238095D01*
X72380952Y-88238095D01*
X72190476Y-88285714D01*
X72095238Y-88333333D01*
X72000000Y-88428571D01*
X71952380Y-88571428D01*
X71952380Y-88666666D01*
X72000000Y-88809523D01*
X72047619Y-88857142D01*
X71952380Y-89761904D02*
X71952380Y-89285714D01*
X72428571Y-89238095D01*
X72380952Y-89285714D01*
X72333333Y-89380952D01*
X72333333Y-89619047D01*
X72380952Y-89714285D01*
X72428571Y-89761904D01*
X72523809Y-89809523D01*
X72761904Y-89809523D01*
X72857142Y-89761904D01*
X72904761Y-89714285D01*
X72952380Y-89619047D01*
X72952380Y-89380952D01*
X72904761Y-89285714D01*
X72857142Y-89238095D01*
X71952380Y-90714285D02*
X71952380Y-90238095D01*
X72428571Y-90190476D01*
X72380952Y-90238095D01*
X72333333Y-90333333D01*
X72333333Y-90571428D01*
X72380952Y-90666666D01*
X72428571Y-90714285D01*
X72523809Y-90761904D01*
X72761904Y-90761904D01*
X72857142Y-90714285D01*
X72904761Y-90666666D01*
X72952380Y-90571428D01*
X72952380Y-90333333D01*
X72904761Y-90238095D01*
X72857142Y-90190476D01*
X74857142Y-88857142D02*
X74904761Y-88809523D01*
X74952380Y-88666666D01*
X74952380Y-88571428D01*
X74904761Y-88428571D01*
X74809523Y-88333333D01*
X74714285Y-88285714D01*
X74523809Y-88238095D01*
X74380952Y-88238095D01*
X74190476Y-88285714D01*
X74095238Y-88333333D01*
X74000000Y-88428571D01*
X73952380Y-88571428D01*
X73952380Y-88666666D01*
X74000000Y-88809523D01*
X74047619Y-88857142D01*
X73952380Y-89761904D02*
X73952380Y-89285714D01*
X74428571Y-89238095D01*
X74380952Y-89285714D01*
X74333333Y-89380952D01*
X74333333Y-89619047D01*
X74380952Y-89714285D01*
X74428571Y-89761904D01*
X74523809Y-89809523D01*
X74761904Y-89809523D01*
X74857142Y-89761904D01*
X74904761Y-89714285D01*
X74952380Y-89619047D01*
X74952380Y-89380952D01*
X74904761Y-89285714D01*
X74857142Y-89238095D01*
X73952380Y-90666666D02*
X73952380Y-90476190D01*
X74000000Y-90380952D01*
X74047619Y-90333333D01*
X74190476Y-90238095D01*
X74380952Y-90190476D01*
X74761904Y-90190476D01*
X74857142Y-90238095D01*
X74904761Y-90285714D01*
X74952380Y-90380952D01*
X74952380Y-90571428D01*
X74904761Y-90666666D01*
X74857142Y-90714285D01*
X74761904Y-90761904D01*
X74523809Y-90761904D01*
X74428571Y-90714285D01*
X74380952Y-90666666D01*
X74333333Y-90571428D01*
X74333333Y-90380952D01*
X74380952Y-90285714D01*
X74428571Y-90238095D01*
X74523809Y-90190476D01*
X92642857Y-52707142D02*
X92690476Y-52754761D01*
X92833333Y-52802380D01*
X92928571Y-52802380D01*
X93071428Y-52754761D01*
X93166666Y-52659523D01*
X93214285Y-52564285D01*
X93261904Y-52373809D01*
X93261904Y-52230952D01*
X93214285Y-52040476D01*
X93166666Y-51945238D01*
X93071428Y-51850000D01*
X92928571Y-51802380D01*
X92833333Y-51802380D01*
X92690476Y-51850000D01*
X92642857Y-51897619D01*
X91738095Y-51802380D02*
X92214285Y-51802380D01*
X92261904Y-52278571D01*
X92214285Y-52230952D01*
X92119047Y-52183333D01*
X91880952Y-52183333D01*
X91785714Y-52230952D01*
X91738095Y-52278571D01*
X91690476Y-52373809D01*
X91690476Y-52611904D01*
X91738095Y-52707142D01*
X91785714Y-52754761D01*
X91880952Y-52802380D01*
X92119047Y-52802380D01*
X92214285Y-52754761D01*
X92261904Y-52707142D01*
X91357142Y-51802380D02*
X90690476Y-51802380D01*
X91119047Y-52802380D01*
X170642857Y-52857142D02*
X170690476Y-52904761D01*
X170833333Y-52952380D01*
X170928571Y-52952380D01*
X171071428Y-52904761D01*
X171166666Y-52809523D01*
X171214285Y-52714285D01*
X171261904Y-52523809D01*
X171261904Y-52380952D01*
X171214285Y-52190476D01*
X171166666Y-52095238D01*
X171071428Y-52000000D01*
X170928571Y-51952380D01*
X170833333Y-51952380D01*
X170690476Y-52000000D01*
X170642857Y-52047619D01*
X169738095Y-51952380D02*
X170214285Y-51952380D01*
X170261904Y-52428571D01*
X170214285Y-52380952D01*
X170119047Y-52333333D01*
X169880952Y-52333333D01*
X169785714Y-52380952D01*
X169738095Y-52428571D01*
X169690476Y-52523809D01*
X169690476Y-52761904D01*
X169738095Y-52857142D01*
X169785714Y-52904761D01*
X169880952Y-52952380D01*
X170119047Y-52952380D01*
X170214285Y-52904761D01*
X170261904Y-52857142D01*
X169119047Y-52380952D02*
X169214285Y-52333333D01*
X169261904Y-52285714D01*
X169309523Y-52190476D01*
X169309523Y-52142857D01*
X169261904Y-52047619D01*
X169214285Y-52000000D01*
X169119047Y-51952380D01*
X168928571Y-51952380D01*
X168833333Y-52000000D01*
X168785714Y-52047619D01*
X168738095Y-52142857D01*
X168738095Y-52190476D01*
X168785714Y-52285714D01*
X168833333Y-52333333D01*
X168928571Y-52380952D01*
X169119047Y-52380952D01*
X169214285Y-52428571D01*
X169261904Y-52476190D01*
X169309523Y-52571428D01*
X169309523Y-52761904D01*
X169261904Y-52857142D01*
X169214285Y-52904761D01*
X169119047Y-52952380D01*
X168928571Y-52952380D01*
X168833333Y-52904761D01*
X168785714Y-52857142D01*
X168738095Y-52761904D01*
X168738095Y-52571428D01*
X168785714Y-52476190D01*
X168833333Y-52428571D01*
X168928571Y-52380952D01*
X87642857Y-84357142D02*
X87690476Y-84404761D01*
X87833333Y-84452380D01*
X87928571Y-84452380D01*
X88071428Y-84404761D01*
X88166666Y-84309523D01*
X88214285Y-84214285D01*
X88261904Y-84023809D01*
X88261904Y-83880952D01*
X88214285Y-83690476D01*
X88166666Y-83595238D01*
X88071428Y-83500000D01*
X87928571Y-83452380D01*
X87833333Y-83452380D01*
X87690476Y-83500000D01*
X87642857Y-83547619D01*
X86738095Y-83452380D02*
X87214285Y-83452380D01*
X87261904Y-83928571D01*
X87214285Y-83880952D01*
X87119047Y-83833333D01*
X86880952Y-83833333D01*
X86785714Y-83880952D01*
X86738095Y-83928571D01*
X86690476Y-84023809D01*
X86690476Y-84261904D01*
X86738095Y-84357142D01*
X86785714Y-84404761D01*
X86880952Y-84452380D01*
X87119047Y-84452380D01*
X87214285Y-84404761D01*
X87261904Y-84357142D01*
X86214285Y-84452380D02*
X86023809Y-84452380D01*
X85928571Y-84404761D01*
X85880952Y-84357142D01*
X85785714Y-84214285D01*
X85738095Y-84023809D01*
X85738095Y-83642857D01*
X85785714Y-83547619D01*
X85833333Y-83500000D01*
X85928571Y-83452380D01*
X86119047Y-83452380D01*
X86214285Y-83500000D01*
X86261904Y-83547619D01*
X86309523Y-83642857D01*
X86309523Y-83880952D01*
X86261904Y-83976190D01*
X86214285Y-84023809D01*
X86119047Y-84071428D01*
X85928571Y-84071428D01*
X85833333Y-84023809D01*
X85785714Y-83976190D01*
X85738095Y-83880952D01*
X165642857Y-85357142D02*
X165690476Y-85404761D01*
X165833333Y-85452380D01*
X165928571Y-85452380D01*
X166071428Y-85404761D01*
X166166666Y-85309523D01*
X166214285Y-85214285D01*
X166261904Y-85023809D01*
X166261904Y-84880952D01*
X166214285Y-84690476D01*
X166166666Y-84595238D01*
X166071428Y-84500000D01*
X165928571Y-84452380D01*
X165833333Y-84452380D01*
X165690476Y-84500000D01*
X165642857Y-84547619D01*
X164785714Y-84452380D02*
X164976190Y-84452380D01*
X165071428Y-84500000D01*
X165119047Y-84547619D01*
X165214285Y-84690476D01*
X165261904Y-84880952D01*
X165261904Y-85261904D01*
X165214285Y-85357142D01*
X165166666Y-85404761D01*
X165071428Y-85452380D01*
X164880952Y-85452380D01*
X164785714Y-85404761D01*
X164738095Y-85357142D01*
X164690476Y-85261904D01*
X164690476Y-85023809D01*
X164738095Y-84928571D01*
X164785714Y-84880952D01*
X164880952Y-84833333D01*
X165071428Y-84833333D01*
X165166666Y-84880952D01*
X165214285Y-84928571D01*
X165261904Y-85023809D01*
X164071428Y-84452380D02*
X163976190Y-84452380D01*
X163880952Y-84500000D01*
X163833333Y-84547619D01*
X163785714Y-84642857D01*
X163738095Y-84833333D01*
X163738095Y-85071428D01*
X163785714Y-85261904D01*
X163833333Y-85357142D01*
X163880952Y-85404761D01*
X163976190Y-85452380D01*
X164071428Y-85452380D01*
X164166666Y-85404761D01*
X164214285Y-85357142D01*
X164261904Y-85261904D01*
X164309523Y-85071428D01*
X164309523Y-84833333D01*
X164261904Y-84642857D01*
X164214285Y-84547619D01*
X164166666Y-84500000D01*
X164071428Y-84452380D01*
X241642857Y-81357142D02*
X241690476Y-81404761D01*
X241833333Y-81452380D01*
X241928571Y-81452380D01*
X242071428Y-81404761D01*
X242166666Y-81309523D01*
X242214285Y-81214285D01*
X242261904Y-81023809D01*
X242261904Y-80880952D01*
X242214285Y-80690476D01*
X242166666Y-80595238D01*
X242071428Y-80500000D01*
X241928571Y-80452380D01*
X241833333Y-80452380D01*
X241690476Y-80500000D01*
X241642857Y-80547619D01*
X240785714Y-80452380D02*
X240976190Y-80452380D01*
X241071428Y-80500000D01*
X241119047Y-80547619D01*
X241214285Y-80690476D01*
X241261904Y-80880952D01*
X241261904Y-81261904D01*
X241214285Y-81357142D01*
X241166666Y-81404761D01*
X241071428Y-81452380D01*
X240880952Y-81452380D01*
X240785714Y-81404761D01*
X240738095Y-81357142D01*
X240690476Y-81261904D01*
X240690476Y-81023809D01*
X240738095Y-80928571D01*
X240785714Y-80880952D01*
X240880952Y-80833333D01*
X241071428Y-80833333D01*
X241166666Y-80880952D01*
X241214285Y-80928571D01*
X241261904Y-81023809D01*
X239738095Y-81452380D02*
X240309523Y-81452380D01*
X240023809Y-81452380D02*
X240023809Y-80452380D01*
X240119047Y-80595238D01*
X240214285Y-80690476D01*
X240309523Y-80738095D01*
X249707142Y-97857142D02*
X249754761Y-97809523D01*
X249802380Y-97666666D01*
X249802380Y-97571428D01*
X249754761Y-97428571D01*
X249659523Y-97333333D01*
X249564285Y-97285714D01*
X249373809Y-97238095D01*
X249230952Y-97238095D01*
X249040476Y-97285714D01*
X248945238Y-97333333D01*
X248850000Y-97428571D01*
X248802380Y-97571428D01*
X248802380Y-97666666D01*
X248850000Y-97809523D01*
X248897619Y-97857142D01*
X248802380Y-98714285D02*
X248802380Y-98523809D01*
X248850000Y-98428571D01*
X248897619Y-98380952D01*
X249040476Y-98285714D01*
X249230952Y-98238095D01*
X249611904Y-98238095D01*
X249707142Y-98285714D01*
X249754761Y-98333333D01*
X249802380Y-98428571D01*
X249802380Y-98619047D01*
X249754761Y-98714285D01*
X249707142Y-98761904D01*
X249611904Y-98809523D01*
X249373809Y-98809523D01*
X249278571Y-98761904D01*
X249230952Y-98714285D01*
X249183333Y-98619047D01*
X249183333Y-98428571D01*
X249230952Y-98333333D01*
X249278571Y-98285714D01*
X249373809Y-98238095D01*
X248897619Y-99190476D02*
X248850000Y-99238095D01*
X248802380Y-99333333D01*
X248802380Y-99571428D01*
X248850000Y-99666666D01*
X248897619Y-99714285D01*
X248992857Y-99761904D01*
X249088095Y-99761904D01*
X249230952Y-99714285D01*
X249802380Y-99142857D01*
X249802380Y-99761904D01*
X109952380Y-88857142D02*
X109476190Y-88523809D01*
X109952380Y-88285714D02*
X108952380Y-88285714D01*
X108952380Y-88666666D01*
X109000000Y-88761904D01*
X109047619Y-88809523D01*
X109142857Y-88857142D01*
X109285714Y-88857142D01*
X109380952Y-88809523D01*
X109428571Y-88761904D01*
X109476190Y-88666666D01*
X109476190Y-88285714D01*
X109047619Y-89238095D02*
X109000000Y-89285714D01*
X108952380Y-89380952D01*
X108952380Y-89619047D01*
X109000000Y-89714285D01*
X109047619Y-89761904D01*
X109142857Y-89809523D01*
X109238095Y-89809523D01*
X109380952Y-89761904D01*
X109952380Y-89190476D01*
X109952380Y-89809523D01*
X109285714Y-90666666D02*
X109952380Y-90666666D01*
X108904761Y-90428571D02*
X109619047Y-90190476D01*
X109619047Y-90809523D01*
X106452380Y-91857142D02*
X105976190Y-91523809D01*
X106452380Y-91285714D02*
X105452380Y-91285714D01*
X105452380Y-91666666D01*
X105500000Y-91761904D01*
X105547619Y-91809523D01*
X105642857Y-91857142D01*
X105785714Y-91857142D01*
X105880952Y-91809523D01*
X105928571Y-91761904D01*
X105976190Y-91666666D01*
X105976190Y-91285714D01*
X105547619Y-92238095D02*
X105500000Y-92285714D01*
X105452380Y-92380952D01*
X105452380Y-92619047D01*
X105500000Y-92714285D01*
X105547619Y-92761904D01*
X105642857Y-92809523D01*
X105738095Y-92809523D01*
X105880952Y-92761904D01*
X106452380Y-92190476D01*
X106452380Y-92809523D01*
X105452380Y-93714285D02*
X105452380Y-93238095D01*
X105928571Y-93190476D01*
X105880952Y-93238095D01*
X105833333Y-93333333D01*
X105833333Y-93571428D01*
X105880952Y-93666666D01*
X105928571Y-93714285D01*
X106023809Y-93761904D01*
X106261904Y-93761904D01*
X106357142Y-93714285D01*
X106404761Y-93666666D01*
X106452380Y-93571428D01*
X106452380Y-93333333D01*
X106404761Y-93238095D01*
X106357142Y-93190476D01*
X119452380Y-91857142D02*
X118976190Y-91523809D01*
X119452380Y-91285714D02*
X118452380Y-91285714D01*
X118452380Y-91666666D01*
X118500000Y-91761904D01*
X118547619Y-91809523D01*
X118642857Y-91857142D01*
X118785714Y-91857142D01*
X118880952Y-91809523D01*
X118928571Y-91761904D01*
X118976190Y-91666666D01*
X118976190Y-91285714D01*
X118547619Y-92238095D02*
X118500000Y-92285714D01*
X118452380Y-92380952D01*
X118452380Y-92619047D01*
X118500000Y-92714285D01*
X118547619Y-92761904D01*
X118642857Y-92809523D01*
X118738095Y-92809523D01*
X118880952Y-92761904D01*
X119452380Y-92190476D01*
X119452380Y-92809523D01*
X118880952Y-93380952D02*
X118833333Y-93285714D01*
X118785714Y-93238095D01*
X118690476Y-93190476D01*
X118642857Y-93190476D01*
X118547619Y-93238095D01*
X118500000Y-93285714D01*
X118452380Y-93380952D01*
X118452380Y-93571428D01*
X118500000Y-93666666D01*
X118547619Y-93714285D01*
X118642857Y-93761904D01*
X118690476Y-93761904D01*
X118785714Y-93714285D01*
X118833333Y-93666666D01*
X118880952Y-93571428D01*
X118880952Y-93380952D01*
X118928571Y-93285714D01*
X118976190Y-93238095D01*
X119071428Y-93190476D01*
X119261904Y-93190476D01*
X119357142Y-93238095D01*
X119404761Y-93285714D01*
X119452380Y-93380952D01*
X119452380Y-93571428D01*
X119404761Y-93666666D01*
X119357142Y-93714285D01*
X119261904Y-93761904D01*
X119071428Y-93761904D01*
X118976190Y-93714285D01*
X118928571Y-93666666D01*
X118880952Y-93571428D01*
X78102380Y-55857142D02*
X77626190Y-55523809D01*
X78102380Y-55285714D02*
X77102380Y-55285714D01*
X77102380Y-55666666D01*
X77150000Y-55761904D01*
X77197619Y-55809523D01*
X77292857Y-55857142D01*
X77435714Y-55857142D01*
X77530952Y-55809523D01*
X77578571Y-55761904D01*
X77626190Y-55666666D01*
X77626190Y-55285714D01*
X77102380Y-56190476D02*
X77102380Y-56809523D01*
X77483333Y-56476190D01*
X77483333Y-56619047D01*
X77530952Y-56714285D01*
X77578571Y-56761904D01*
X77673809Y-56809523D01*
X77911904Y-56809523D01*
X78007142Y-56761904D01*
X78054761Y-56714285D01*
X78102380Y-56619047D01*
X78102380Y-56333333D01*
X78054761Y-56238095D01*
X78007142Y-56190476D01*
X77102380Y-57428571D02*
X77102380Y-57523809D01*
X77150000Y-57619047D01*
X77197619Y-57666666D01*
X77292857Y-57714285D01*
X77483333Y-57761904D01*
X77721428Y-57761904D01*
X77911904Y-57714285D01*
X78007142Y-57666666D01*
X78054761Y-57619047D01*
X78102380Y-57523809D01*
X78102380Y-57428571D01*
X78054761Y-57333333D01*
X78007142Y-57285714D01*
X77911904Y-57238095D01*
X77721428Y-57190476D01*
X77483333Y-57190476D01*
X77292857Y-57238095D01*
X77197619Y-57285714D01*
X77150000Y-57333333D01*
X77102380Y-57428571D01*
X117102380Y-83857142D02*
X116626190Y-83523809D01*
X117102380Y-83285714D02*
X116102380Y-83285714D01*
X116102380Y-83666666D01*
X116150000Y-83761904D01*
X116197619Y-83809523D01*
X116292857Y-83857142D01*
X116435714Y-83857142D01*
X116530952Y-83809523D01*
X116578571Y-83761904D01*
X116626190Y-83666666D01*
X116626190Y-83285714D01*
X116102380Y-84190476D02*
X116102380Y-84809523D01*
X116483333Y-84476190D01*
X116483333Y-84619047D01*
X116530952Y-84714285D01*
X116578571Y-84761904D01*
X116673809Y-84809523D01*
X116911904Y-84809523D01*
X117007142Y-84761904D01*
X117054761Y-84714285D01*
X117102380Y-84619047D01*
X117102380Y-84333333D01*
X117054761Y-84238095D01*
X117007142Y-84190476D01*
X116197619Y-85190476D02*
X116150000Y-85238095D01*
X116102380Y-85333333D01*
X116102380Y-85571428D01*
X116150000Y-85666666D01*
X116197619Y-85714285D01*
X116292857Y-85761904D01*
X116388095Y-85761904D01*
X116530952Y-85714285D01*
X117102380Y-85142857D01*
X117102380Y-85761904D01*
X73952380Y-52857142D02*
X73476190Y-52523809D01*
X73952380Y-52285714D02*
X72952380Y-52285714D01*
X72952380Y-52666666D01*
X73000000Y-52761904D01*
X73047619Y-52809523D01*
X73142857Y-52857142D01*
X73285714Y-52857142D01*
X73380952Y-52809523D01*
X73428571Y-52761904D01*
X73476190Y-52666666D01*
X73476190Y-52285714D01*
X72952380Y-53190476D02*
X72952380Y-53809523D01*
X73333333Y-53476190D01*
X73333333Y-53619047D01*
X73380952Y-53714285D01*
X73428571Y-53761904D01*
X73523809Y-53809523D01*
X73761904Y-53809523D01*
X73857142Y-53761904D01*
X73904761Y-53714285D01*
X73952380Y-53619047D01*
X73952380Y-53333333D01*
X73904761Y-53238095D01*
X73857142Y-53190476D01*
X72952380Y-54142857D02*
X72952380Y-54761904D01*
X73333333Y-54428571D01*
X73333333Y-54571428D01*
X73380952Y-54666666D01*
X73428571Y-54714285D01*
X73523809Y-54761904D01*
X73761904Y-54761904D01*
X73857142Y-54714285D01*
X73904761Y-54666666D01*
X73952380Y-54571428D01*
X73952380Y-54285714D01*
X73904761Y-54190476D01*
X73857142Y-54142857D01*
X112952380Y-80857142D02*
X112476190Y-80523809D01*
X112952380Y-80285714D02*
X111952380Y-80285714D01*
X111952380Y-80666666D01*
X112000000Y-80761904D01*
X112047619Y-80809523D01*
X112142857Y-80857142D01*
X112285714Y-80857142D01*
X112380952Y-80809523D01*
X112428571Y-80761904D01*
X112476190Y-80666666D01*
X112476190Y-80285714D01*
X111952380Y-81190476D02*
X111952380Y-81809523D01*
X112333333Y-81476190D01*
X112333333Y-81619047D01*
X112380952Y-81714285D01*
X112428571Y-81761904D01*
X112523809Y-81809523D01*
X112761904Y-81809523D01*
X112857142Y-81761904D01*
X112904761Y-81714285D01*
X112952380Y-81619047D01*
X112952380Y-81333333D01*
X112904761Y-81238095D01*
X112857142Y-81190476D01*
X112285714Y-82666666D02*
X112952380Y-82666666D01*
X111904761Y-82428571D02*
X112619047Y-82190476D01*
X112619047Y-82809523D01*
X115952380Y-88857142D02*
X115476190Y-88523809D01*
X115952380Y-88285714D02*
X114952380Y-88285714D01*
X114952380Y-88666666D01*
X115000000Y-88761904D01*
X115047619Y-88809523D01*
X115142857Y-88857142D01*
X115285714Y-88857142D01*
X115380952Y-88809523D01*
X115428571Y-88761904D01*
X115476190Y-88666666D01*
X115476190Y-88285714D01*
X114952380Y-89190476D02*
X114952380Y-89809523D01*
X115333333Y-89476190D01*
X115333333Y-89619047D01*
X115380952Y-89714285D01*
X115428571Y-89761904D01*
X115523809Y-89809523D01*
X115761904Y-89809523D01*
X115857142Y-89761904D01*
X115904761Y-89714285D01*
X115952380Y-89619047D01*
X115952380Y-89333333D01*
X115904761Y-89238095D01*
X115857142Y-89190476D01*
X114952380Y-90714285D02*
X114952380Y-90238095D01*
X115428571Y-90190476D01*
X115380952Y-90238095D01*
X115333333Y-90333333D01*
X115333333Y-90571428D01*
X115380952Y-90666666D01*
X115428571Y-90714285D01*
X115523809Y-90761904D01*
X115761904Y-90761904D01*
X115857142Y-90714285D01*
X115904761Y-90666666D01*
X115952380Y-90571428D01*
X115952380Y-90333333D01*
X115904761Y-90238095D01*
X115857142Y-90190476D01*
X109952380Y-60857142D02*
X109476190Y-60523809D01*
X109952380Y-60285714D02*
X108952380Y-60285714D01*
X108952380Y-60666666D01*
X109000000Y-60761904D01*
X109047619Y-60809523D01*
X109142857Y-60857142D01*
X109285714Y-60857142D01*
X109380952Y-60809523D01*
X109428571Y-60761904D01*
X109476190Y-60666666D01*
X109476190Y-60285714D01*
X108952380Y-61190476D02*
X108952380Y-61809523D01*
X109333333Y-61476190D01*
X109333333Y-61619047D01*
X109380952Y-61714285D01*
X109428571Y-61761904D01*
X109523809Y-61809523D01*
X109761904Y-61809523D01*
X109857142Y-61761904D01*
X109904761Y-61714285D01*
X109952380Y-61619047D01*
X109952380Y-61333333D01*
X109904761Y-61238095D01*
X109857142Y-61190476D01*
X108952380Y-62142857D02*
X108952380Y-62809523D01*
X109952380Y-62380952D01*
X106452380Y-63857142D02*
X105976190Y-63523809D01*
X106452380Y-63285714D02*
X105452380Y-63285714D01*
X105452380Y-63666666D01*
X105500000Y-63761904D01*
X105547619Y-63809523D01*
X105642857Y-63857142D01*
X105785714Y-63857142D01*
X105880952Y-63809523D01*
X105928571Y-63761904D01*
X105976190Y-63666666D01*
X105976190Y-63285714D01*
X105452380Y-64190476D02*
X105452380Y-64809523D01*
X105833333Y-64476190D01*
X105833333Y-64619047D01*
X105880952Y-64714285D01*
X105928571Y-64761904D01*
X106023809Y-64809523D01*
X106261904Y-64809523D01*
X106357142Y-64761904D01*
X106404761Y-64714285D01*
X106452380Y-64619047D01*
X106452380Y-64333333D01*
X106404761Y-64238095D01*
X106357142Y-64190476D01*
X106452380Y-65285714D02*
X106452380Y-65476190D01*
X106404761Y-65571428D01*
X106357142Y-65619047D01*
X106214285Y-65714285D01*
X106023809Y-65761904D01*
X105642857Y-65761904D01*
X105547619Y-65714285D01*
X105500000Y-65666666D01*
X105452380Y-65571428D01*
X105452380Y-65380952D01*
X105500000Y-65285714D01*
X105547619Y-65238095D01*
X105642857Y-65190476D01*
X105880952Y-65190476D01*
X105976190Y-65238095D01*
X106023809Y-65285714D01*
X106071428Y-65380952D01*
X106071428Y-65571428D01*
X106023809Y-65666666D01*
X105976190Y-65714285D01*
X105880952Y-65761904D01*
X119452380Y-63857142D02*
X118976190Y-63523809D01*
X119452380Y-63285714D02*
X118452380Y-63285714D01*
X118452380Y-63666666D01*
X118500000Y-63761904D01*
X118547619Y-63809523D01*
X118642857Y-63857142D01*
X118785714Y-63857142D01*
X118880952Y-63809523D01*
X118928571Y-63761904D01*
X118976190Y-63666666D01*
X118976190Y-63285714D01*
X118785714Y-64714285D02*
X119452380Y-64714285D01*
X118404761Y-64476190D02*
X119119047Y-64238095D01*
X119119047Y-64857142D01*
X118452380Y-65428571D02*
X118452380Y-65523809D01*
X118500000Y-65619047D01*
X118547619Y-65666666D01*
X118642857Y-65714285D01*
X118833333Y-65761904D01*
X119071428Y-65761904D01*
X119261904Y-65714285D01*
X119357142Y-65666666D01*
X119404761Y-65619047D01*
X119452380Y-65523809D01*
X119452380Y-65428571D01*
X119404761Y-65333333D01*
X119357142Y-65285714D01*
X119261904Y-65238095D01*
X119071428Y-65190476D01*
X118833333Y-65190476D01*
X118642857Y-65238095D01*
X118547619Y-65285714D01*
X118500000Y-65333333D01*
X118452380Y-65428571D01*
X148952380Y-88607142D02*
X148476190Y-88273809D01*
X148952380Y-88035714D02*
X147952380Y-88035714D01*
X147952380Y-88416666D01*
X148000000Y-88511904D01*
X148047619Y-88559523D01*
X148142857Y-88607142D01*
X148285714Y-88607142D01*
X148380952Y-88559523D01*
X148428571Y-88511904D01*
X148476190Y-88416666D01*
X148476190Y-88035714D01*
X148285714Y-89464285D02*
X148952380Y-89464285D01*
X147904761Y-89226190D02*
X148619047Y-88988095D01*
X148619047Y-89607142D01*
X148047619Y-89940476D02*
X148000000Y-89988095D01*
X147952380Y-90083333D01*
X147952380Y-90321428D01*
X148000000Y-90416666D01*
X148047619Y-90464285D01*
X148142857Y-90511904D01*
X148238095Y-90511904D01*
X148380952Y-90464285D01*
X148952380Y-89892857D01*
X148952380Y-90511904D01*
X145302380Y-91857142D02*
X144826190Y-91523809D01*
X145302380Y-91285714D02*
X144302380Y-91285714D01*
X144302380Y-91666666D01*
X144350000Y-91761904D01*
X144397619Y-91809523D01*
X144492857Y-91857142D01*
X144635714Y-91857142D01*
X144730952Y-91809523D01*
X144778571Y-91761904D01*
X144826190Y-91666666D01*
X144826190Y-91285714D01*
X144635714Y-92714285D02*
X145302380Y-92714285D01*
X144254761Y-92476190D02*
X144969047Y-92238095D01*
X144969047Y-92857142D01*
X144302380Y-93142857D02*
X144302380Y-93761904D01*
X144683333Y-93428571D01*
X144683333Y-93571428D01*
X144730952Y-93666666D01*
X144778571Y-93714285D01*
X144873809Y-93761904D01*
X145111904Y-93761904D01*
X145207142Y-93714285D01*
X145254761Y-93666666D01*
X145302380Y-93571428D01*
X145302380Y-93285714D01*
X145254761Y-93190476D01*
X145207142Y-93142857D01*
X158702380Y-91857142D02*
X158226190Y-91523809D01*
X158702380Y-91285714D02*
X157702380Y-91285714D01*
X157702380Y-91666666D01*
X157750000Y-91761904D01*
X157797619Y-91809523D01*
X157892857Y-91857142D01*
X158035714Y-91857142D01*
X158130952Y-91809523D01*
X158178571Y-91761904D01*
X158226190Y-91666666D01*
X158226190Y-91285714D01*
X158035714Y-92714285D02*
X158702380Y-92714285D01*
X157654761Y-92476190D02*
X158369047Y-92238095D01*
X158369047Y-92857142D01*
X158035714Y-93666666D02*
X158702380Y-93666666D01*
X157654761Y-93428571D02*
X158369047Y-93190476D01*
X158369047Y-93809523D01*
X117102380Y-55857142D02*
X116626190Y-55523809D01*
X117102380Y-55285714D02*
X116102380Y-55285714D01*
X116102380Y-55666666D01*
X116150000Y-55761904D01*
X116197619Y-55809523D01*
X116292857Y-55857142D01*
X116435714Y-55857142D01*
X116530952Y-55809523D01*
X116578571Y-55761904D01*
X116626190Y-55666666D01*
X116626190Y-55285714D01*
X116435714Y-56714285D02*
X117102380Y-56714285D01*
X116054761Y-56476190D02*
X116769047Y-56238095D01*
X116769047Y-56857142D01*
X116102380Y-57714285D02*
X116102380Y-57238095D01*
X116578571Y-57190476D01*
X116530952Y-57238095D01*
X116483333Y-57333333D01*
X116483333Y-57571428D01*
X116530952Y-57666666D01*
X116578571Y-57714285D01*
X116673809Y-57761904D01*
X116911904Y-57761904D01*
X117007142Y-57714285D01*
X117054761Y-57666666D01*
X117102380Y-57571428D01*
X117102380Y-57333333D01*
X117054761Y-57238095D01*
X117007142Y-57190476D01*
X156102380Y-83857142D02*
X155626190Y-83523809D01*
X156102380Y-83285714D02*
X155102380Y-83285714D01*
X155102380Y-83666666D01*
X155150000Y-83761904D01*
X155197619Y-83809523D01*
X155292857Y-83857142D01*
X155435714Y-83857142D01*
X155530952Y-83809523D01*
X155578571Y-83761904D01*
X155626190Y-83666666D01*
X155626190Y-83285714D01*
X155435714Y-84714285D02*
X156102380Y-84714285D01*
X155054761Y-84476190D02*
X155769047Y-84238095D01*
X155769047Y-84857142D01*
X155102380Y-85666666D02*
X155102380Y-85476190D01*
X155150000Y-85380952D01*
X155197619Y-85333333D01*
X155340476Y-85238095D01*
X155530952Y-85190476D01*
X155911904Y-85190476D01*
X156007142Y-85238095D01*
X156054761Y-85285714D01*
X156102380Y-85380952D01*
X156102380Y-85571428D01*
X156054761Y-85666666D01*
X156007142Y-85714285D01*
X155911904Y-85761904D01*
X155673809Y-85761904D01*
X155578571Y-85714285D01*
X155530952Y-85666666D01*
X155483333Y-85571428D01*
X155483333Y-85380952D01*
X155530952Y-85285714D01*
X155578571Y-85238095D01*
X155673809Y-85190476D01*
X112952380Y-52857142D02*
X112476190Y-52523809D01*
X112952380Y-52285714D02*
X111952380Y-52285714D01*
X111952380Y-52666666D01*
X112000000Y-52761904D01*
X112047619Y-52809523D01*
X112142857Y-52857142D01*
X112285714Y-52857142D01*
X112380952Y-52809523D01*
X112428571Y-52761904D01*
X112476190Y-52666666D01*
X112476190Y-52285714D01*
X112285714Y-53714285D02*
X112952380Y-53714285D01*
X111904761Y-53476190D02*
X112619047Y-53238095D01*
X112619047Y-53857142D01*
X111952380Y-54142857D02*
X111952380Y-54809523D01*
X112952380Y-54380952D01*
X151952380Y-80857142D02*
X151476190Y-80523809D01*
X151952380Y-80285714D02*
X150952380Y-80285714D01*
X150952380Y-80666666D01*
X151000000Y-80761904D01*
X151047619Y-80809523D01*
X151142857Y-80857142D01*
X151285714Y-80857142D01*
X151380952Y-80809523D01*
X151428571Y-80761904D01*
X151476190Y-80666666D01*
X151476190Y-80285714D01*
X151285714Y-81714285D02*
X151952380Y-81714285D01*
X150904761Y-81476190D02*
X151619047Y-81238095D01*
X151619047Y-81857142D01*
X151952380Y-82285714D02*
X151952380Y-82476190D01*
X151904761Y-82571428D01*
X151857142Y-82619047D01*
X151714285Y-82714285D01*
X151523809Y-82761904D01*
X151142857Y-82761904D01*
X151047619Y-82714285D01*
X151000000Y-82666666D01*
X150952380Y-82571428D01*
X150952380Y-82380952D01*
X151000000Y-82285714D01*
X151047619Y-82238095D01*
X151142857Y-82190476D01*
X151380952Y-82190476D01*
X151476190Y-82238095D01*
X151523809Y-82285714D01*
X151571428Y-82380952D01*
X151571428Y-82571428D01*
X151523809Y-82666666D01*
X151476190Y-82714285D01*
X151380952Y-82761904D01*
X115952380Y-60857142D02*
X115476190Y-60523809D01*
X115952380Y-60285714D02*
X114952380Y-60285714D01*
X114952380Y-60666666D01*
X115000000Y-60761904D01*
X115047619Y-60809523D01*
X115142857Y-60857142D01*
X115285714Y-60857142D01*
X115380952Y-60809523D01*
X115428571Y-60761904D01*
X115476190Y-60666666D01*
X115476190Y-60285714D01*
X114952380Y-61761904D02*
X114952380Y-61285714D01*
X115428571Y-61238095D01*
X115380952Y-61285714D01*
X115333333Y-61380952D01*
X115333333Y-61619047D01*
X115380952Y-61714285D01*
X115428571Y-61761904D01*
X115523809Y-61809523D01*
X115761904Y-61809523D01*
X115857142Y-61761904D01*
X115904761Y-61714285D01*
X115952380Y-61619047D01*
X115952380Y-61380952D01*
X115904761Y-61285714D01*
X115857142Y-61238095D01*
X114952380Y-62428571D02*
X114952380Y-62523809D01*
X115000000Y-62619047D01*
X115047619Y-62666666D01*
X115142857Y-62714285D01*
X115333333Y-62761904D01*
X115571428Y-62761904D01*
X115761904Y-62714285D01*
X115857142Y-62666666D01*
X115904761Y-62619047D01*
X115952380Y-62523809D01*
X115952380Y-62428571D01*
X115904761Y-62333333D01*
X115857142Y-62285714D01*
X115761904Y-62238095D01*
X115571428Y-62190476D01*
X115333333Y-62190476D01*
X115142857Y-62238095D01*
X115047619Y-62285714D01*
X115000000Y-62333333D01*
X114952380Y-62428571D01*
X154952380Y-88607142D02*
X154476190Y-88273809D01*
X154952380Y-88035714D02*
X153952380Y-88035714D01*
X153952380Y-88416666D01*
X154000000Y-88511904D01*
X154047619Y-88559523D01*
X154142857Y-88607142D01*
X154285714Y-88607142D01*
X154380952Y-88559523D01*
X154428571Y-88511904D01*
X154476190Y-88416666D01*
X154476190Y-88035714D01*
X153952380Y-89511904D02*
X153952380Y-89035714D01*
X154428571Y-88988095D01*
X154380952Y-89035714D01*
X154333333Y-89130952D01*
X154333333Y-89369047D01*
X154380952Y-89464285D01*
X154428571Y-89511904D01*
X154523809Y-89559523D01*
X154761904Y-89559523D01*
X154857142Y-89511904D01*
X154904761Y-89464285D01*
X154952380Y-89369047D01*
X154952380Y-89130952D01*
X154904761Y-89035714D01*
X154857142Y-88988095D01*
X154047619Y-89940476D02*
X154000000Y-89988095D01*
X153952380Y-90083333D01*
X153952380Y-90321428D01*
X154000000Y-90416666D01*
X154047619Y-90464285D01*
X154142857Y-90511904D01*
X154238095Y-90511904D01*
X154380952Y-90464285D01*
X154952380Y-89892857D01*
X154952380Y-90511904D01*
X148952380Y-61357142D02*
X148476190Y-61023809D01*
X148952380Y-60785714D02*
X147952380Y-60785714D01*
X147952380Y-61166666D01*
X148000000Y-61261904D01*
X148047619Y-61309523D01*
X148142857Y-61357142D01*
X148285714Y-61357142D01*
X148380952Y-61309523D01*
X148428571Y-61261904D01*
X148476190Y-61166666D01*
X148476190Y-60785714D01*
X147952380Y-62261904D02*
X147952380Y-61785714D01*
X148428571Y-61738095D01*
X148380952Y-61785714D01*
X148333333Y-61880952D01*
X148333333Y-62119047D01*
X148380952Y-62214285D01*
X148428571Y-62261904D01*
X148523809Y-62309523D01*
X148761904Y-62309523D01*
X148857142Y-62261904D01*
X148904761Y-62214285D01*
X148952380Y-62119047D01*
X148952380Y-61880952D01*
X148904761Y-61785714D01*
X148857142Y-61738095D01*
X148285714Y-63166666D02*
X148952380Y-63166666D01*
X147904761Y-62928571D02*
X148619047Y-62690476D01*
X148619047Y-63309523D01*
X145452380Y-64357142D02*
X144976190Y-64023809D01*
X145452380Y-63785714D02*
X144452380Y-63785714D01*
X144452380Y-64166666D01*
X144500000Y-64261904D01*
X144547619Y-64309523D01*
X144642857Y-64357142D01*
X144785714Y-64357142D01*
X144880952Y-64309523D01*
X144928571Y-64261904D01*
X144976190Y-64166666D01*
X144976190Y-63785714D01*
X144452380Y-65261904D02*
X144452380Y-64785714D01*
X144928571Y-64738095D01*
X144880952Y-64785714D01*
X144833333Y-64880952D01*
X144833333Y-65119047D01*
X144880952Y-65214285D01*
X144928571Y-65261904D01*
X145023809Y-65309523D01*
X145261904Y-65309523D01*
X145357142Y-65261904D01*
X145404761Y-65214285D01*
X145452380Y-65119047D01*
X145452380Y-64880952D01*
X145404761Y-64785714D01*
X145357142Y-64738095D01*
X144452380Y-66214285D02*
X144452380Y-65738095D01*
X144928571Y-65690476D01*
X144880952Y-65738095D01*
X144833333Y-65833333D01*
X144833333Y-66071428D01*
X144880952Y-66166666D01*
X144928571Y-66214285D01*
X145023809Y-66261904D01*
X145261904Y-66261904D01*
X145357142Y-66214285D01*
X145404761Y-66166666D01*
X145452380Y-66071428D01*
X145452380Y-65833333D01*
X145404761Y-65738095D01*
X145357142Y-65690476D01*
X158452380Y-64357142D02*
X157976190Y-64023809D01*
X158452380Y-63785714D02*
X157452380Y-63785714D01*
X157452380Y-64166666D01*
X157500000Y-64261904D01*
X157547619Y-64309523D01*
X157642857Y-64357142D01*
X157785714Y-64357142D01*
X157880952Y-64309523D01*
X157928571Y-64261904D01*
X157976190Y-64166666D01*
X157976190Y-63785714D01*
X157452380Y-65261904D02*
X157452380Y-64785714D01*
X157928571Y-64738095D01*
X157880952Y-64785714D01*
X157833333Y-64880952D01*
X157833333Y-65119047D01*
X157880952Y-65214285D01*
X157928571Y-65261904D01*
X158023809Y-65309523D01*
X158261904Y-65309523D01*
X158357142Y-65261904D01*
X158404761Y-65214285D01*
X158452380Y-65119047D01*
X158452380Y-64880952D01*
X158404761Y-64785714D01*
X158357142Y-64738095D01*
X157452380Y-66166666D02*
X157452380Y-65976190D01*
X157500000Y-65880952D01*
X157547619Y-65833333D01*
X157690476Y-65738095D01*
X157880952Y-65690476D01*
X158261904Y-65690476D01*
X158357142Y-65738095D01*
X158404761Y-65785714D01*
X158452380Y-65880952D01*
X158452380Y-66071428D01*
X158404761Y-66166666D01*
X158357142Y-66214285D01*
X158261904Y-66261904D01*
X158023809Y-66261904D01*
X157928571Y-66214285D01*
X157880952Y-66166666D01*
X157833333Y-66071428D01*
X157833333Y-65880952D01*
X157880952Y-65785714D01*
X157928571Y-65738095D01*
X158023809Y-65690476D01*
X187952380Y-88607142D02*
X187476190Y-88273809D01*
X187952380Y-88035714D02*
X186952380Y-88035714D01*
X186952380Y-88416666D01*
X187000000Y-88511904D01*
X187047619Y-88559523D01*
X187142857Y-88607142D01*
X187285714Y-88607142D01*
X187380952Y-88559523D01*
X187428571Y-88511904D01*
X187476190Y-88416666D01*
X187476190Y-88035714D01*
X186952380Y-89511904D02*
X186952380Y-89035714D01*
X187428571Y-88988095D01*
X187380952Y-89035714D01*
X187333333Y-89130952D01*
X187333333Y-89369047D01*
X187380952Y-89464285D01*
X187428571Y-89511904D01*
X187523809Y-89559523D01*
X187761904Y-89559523D01*
X187857142Y-89511904D01*
X187904761Y-89464285D01*
X187952380Y-89369047D01*
X187952380Y-89130952D01*
X187904761Y-89035714D01*
X187857142Y-88988095D01*
X186952380Y-89892857D02*
X186952380Y-90559523D01*
X187952380Y-90130952D01*
X184302380Y-91857142D02*
X183826190Y-91523809D01*
X184302380Y-91285714D02*
X183302380Y-91285714D01*
X183302380Y-91666666D01*
X183350000Y-91761904D01*
X183397619Y-91809523D01*
X183492857Y-91857142D01*
X183635714Y-91857142D01*
X183730952Y-91809523D01*
X183778571Y-91761904D01*
X183826190Y-91666666D01*
X183826190Y-91285714D01*
X183302380Y-92761904D02*
X183302380Y-92285714D01*
X183778571Y-92238095D01*
X183730952Y-92285714D01*
X183683333Y-92380952D01*
X183683333Y-92619047D01*
X183730952Y-92714285D01*
X183778571Y-92761904D01*
X183873809Y-92809523D01*
X184111904Y-92809523D01*
X184207142Y-92761904D01*
X184254761Y-92714285D01*
X184302380Y-92619047D01*
X184302380Y-92380952D01*
X184254761Y-92285714D01*
X184207142Y-92238095D01*
X183730952Y-93380952D02*
X183683333Y-93285714D01*
X183635714Y-93238095D01*
X183540476Y-93190476D01*
X183492857Y-93190476D01*
X183397619Y-93238095D01*
X183350000Y-93285714D01*
X183302380Y-93380952D01*
X183302380Y-93571428D01*
X183350000Y-93666666D01*
X183397619Y-93714285D01*
X183492857Y-93761904D01*
X183540476Y-93761904D01*
X183635714Y-93714285D01*
X183683333Y-93666666D01*
X183730952Y-93571428D01*
X183730952Y-93380952D01*
X183778571Y-93285714D01*
X183826190Y-93238095D01*
X183921428Y-93190476D01*
X184111904Y-93190476D01*
X184207142Y-93238095D01*
X184254761Y-93285714D01*
X184302380Y-93380952D01*
X184302380Y-93571428D01*
X184254761Y-93666666D01*
X184207142Y-93714285D01*
X184111904Y-93761904D01*
X183921428Y-93761904D01*
X183826190Y-93714285D01*
X183778571Y-93666666D01*
X183730952Y-93571428D01*
X197702380Y-91857142D02*
X197226190Y-91523809D01*
X197702380Y-91285714D02*
X196702380Y-91285714D01*
X196702380Y-91666666D01*
X196750000Y-91761904D01*
X196797619Y-91809523D01*
X196892857Y-91857142D01*
X197035714Y-91857142D01*
X197130952Y-91809523D01*
X197178571Y-91761904D01*
X197226190Y-91666666D01*
X197226190Y-91285714D01*
X196702380Y-92761904D02*
X196702380Y-92285714D01*
X197178571Y-92238095D01*
X197130952Y-92285714D01*
X197083333Y-92380952D01*
X197083333Y-92619047D01*
X197130952Y-92714285D01*
X197178571Y-92761904D01*
X197273809Y-92809523D01*
X197511904Y-92809523D01*
X197607142Y-92761904D01*
X197654761Y-92714285D01*
X197702380Y-92619047D01*
X197702380Y-92380952D01*
X197654761Y-92285714D01*
X197607142Y-92238095D01*
X197702380Y-93285714D02*
X197702380Y-93476190D01*
X197654761Y-93571428D01*
X197607142Y-93619047D01*
X197464285Y-93714285D01*
X197273809Y-93761904D01*
X196892857Y-93761904D01*
X196797619Y-93714285D01*
X196750000Y-93666666D01*
X196702380Y-93571428D01*
X196702380Y-93380952D01*
X196750000Y-93285714D01*
X196797619Y-93238095D01*
X196892857Y-93190476D01*
X197130952Y-93190476D01*
X197226190Y-93238095D01*
X197273809Y-93285714D01*
X197321428Y-93380952D01*
X197321428Y-93571428D01*
X197273809Y-93666666D01*
X197226190Y-93714285D01*
X197130952Y-93761904D01*
X156102380Y-55857142D02*
X155626190Y-55523809D01*
X156102380Y-55285714D02*
X155102380Y-55285714D01*
X155102380Y-55666666D01*
X155150000Y-55761904D01*
X155197619Y-55809523D01*
X155292857Y-55857142D01*
X155435714Y-55857142D01*
X155530952Y-55809523D01*
X155578571Y-55761904D01*
X155626190Y-55666666D01*
X155626190Y-55285714D01*
X155102380Y-56714285D02*
X155102380Y-56523809D01*
X155150000Y-56428571D01*
X155197619Y-56380952D01*
X155340476Y-56285714D01*
X155530952Y-56238095D01*
X155911904Y-56238095D01*
X156007142Y-56285714D01*
X156054761Y-56333333D01*
X156102380Y-56428571D01*
X156102380Y-56619047D01*
X156054761Y-56714285D01*
X156007142Y-56761904D01*
X155911904Y-56809523D01*
X155673809Y-56809523D01*
X155578571Y-56761904D01*
X155530952Y-56714285D01*
X155483333Y-56619047D01*
X155483333Y-56428571D01*
X155530952Y-56333333D01*
X155578571Y-56285714D01*
X155673809Y-56238095D01*
X155102380Y-57428571D02*
X155102380Y-57523809D01*
X155150000Y-57619047D01*
X155197619Y-57666666D01*
X155292857Y-57714285D01*
X155483333Y-57761904D01*
X155721428Y-57761904D01*
X155911904Y-57714285D01*
X156007142Y-57666666D01*
X156054761Y-57619047D01*
X156102380Y-57523809D01*
X156102380Y-57428571D01*
X156054761Y-57333333D01*
X156007142Y-57285714D01*
X155911904Y-57238095D01*
X155721428Y-57190476D01*
X155483333Y-57190476D01*
X155292857Y-57238095D01*
X155197619Y-57285714D01*
X155150000Y-57333333D01*
X155102380Y-57428571D01*
X195102380Y-83857142D02*
X194626190Y-83523809D01*
X195102380Y-83285714D02*
X194102380Y-83285714D01*
X194102380Y-83666666D01*
X194150000Y-83761904D01*
X194197619Y-83809523D01*
X194292857Y-83857142D01*
X194435714Y-83857142D01*
X194530952Y-83809523D01*
X194578571Y-83761904D01*
X194626190Y-83666666D01*
X194626190Y-83285714D01*
X194102380Y-84714285D02*
X194102380Y-84523809D01*
X194150000Y-84428571D01*
X194197619Y-84380952D01*
X194340476Y-84285714D01*
X194530952Y-84238095D01*
X194911904Y-84238095D01*
X195007142Y-84285714D01*
X195054761Y-84333333D01*
X195102380Y-84428571D01*
X195102380Y-84619047D01*
X195054761Y-84714285D01*
X195007142Y-84761904D01*
X194911904Y-84809523D01*
X194673809Y-84809523D01*
X194578571Y-84761904D01*
X194530952Y-84714285D01*
X194483333Y-84619047D01*
X194483333Y-84428571D01*
X194530952Y-84333333D01*
X194578571Y-84285714D01*
X194673809Y-84238095D01*
X195102380Y-85761904D02*
X195102380Y-85190476D01*
X195102380Y-85476190D02*
X194102380Y-85476190D01*
X194245238Y-85380952D01*
X194340476Y-85285714D01*
X194388095Y-85190476D01*
X151952380Y-52857142D02*
X151476190Y-52523809D01*
X151952380Y-52285714D02*
X150952380Y-52285714D01*
X150952380Y-52666666D01*
X151000000Y-52761904D01*
X151047619Y-52809523D01*
X151142857Y-52857142D01*
X151285714Y-52857142D01*
X151380952Y-52809523D01*
X151428571Y-52761904D01*
X151476190Y-52666666D01*
X151476190Y-52285714D01*
X150952380Y-53714285D02*
X150952380Y-53523809D01*
X151000000Y-53428571D01*
X151047619Y-53380952D01*
X151190476Y-53285714D01*
X151380952Y-53238095D01*
X151761904Y-53238095D01*
X151857142Y-53285714D01*
X151904761Y-53333333D01*
X151952380Y-53428571D01*
X151952380Y-53619047D01*
X151904761Y-53714285D01*
X151857142Y-53761904D01*
X151761904Y-53809523D01*
X151523809Y-53809523D01*
X151428571Y-53761904D01*
X151380952Y-53714285D01*
X151333333Y-53619047D01*
X151333333Y-53428571D01*
X151380952Y-53333333D01*
X151428571Y-53285714D01*
X151523809Y-53238095D01*
X151047619Y-54190476D02*
X151000000Y-54238095D01*
X150952380Y-54333333D01*
X150952380Y-54571428D01*
X151000000Y-54666666D01*
X151047619Y-54714285D01*
X151142857Y-54761904D01*
X151238095Y-54761904D01*
X151380952Y-54714285D01*
X151952380Y-54142857D01*
X151952380Y-54761904D01*
X190952380Y-80857142D02*
X190476190Y-80523809D01*
X190952380Y-80285714D02*
X189952380Y-80285714D01*
X189952380Y-80666666D01*
X190000000Y-80761904D01*
X190047619Y-80809523D01*
X190142857Y-80857142D01*
X190285714Y-80857142D01*
X190380952Y-80809523D01*
X190428571Y-80761904D01*
X190476190Y-80666666D01*
X190476190Y-80285714D01*
X189952380Y-81714285D02*
X189952380Y-81523809D01*
X190000000Y-81428571D01*
X190047619Y-81380952D01*
X190190476Y-81285714D01*
X190380952Y-81238095D01*
X190761904Y-81238095D01*
X190857142Y-81285714D01*
X190904761Y-81333333D01*
X190952380Y-81428571D01*
X190952380Y-81619047D01*
X190904761Y-81714285D01*
X190857142Y-81761904D01*
X190761904Y-81809523D01*
X190523809Y-81809523D01*
X190428571Y-81761904D01*
X190380952Y-81714285D01*
X190333333Y-81619047D01*
X190333333Y-81428571D01*
X190380952Y-81333333D01*
X190428571Y-81285714D01*
X190523809Y-81238095D01*
X189952380Y-82142857D02*
X189952380Y-82761904D01*
X190333333Y-82428571D01*
X190333333Y-82571428D01*
X190380952Y-82666666D01*
X190428571Y-82714285D01*
X190523809Y-82761904D01*
X190761904Y-82761904D01*
X190857142Y-82714285D01*
X190904761Y-82666666D01*
X190952380Y-82571428D01*
X190952380Y-82285714D01*
X190904761Y-82190476D01*
X190857142Y-82142857D01*
X154952380Y-61357142D02*
X154476190Y-61023809D01*
X154952380Y-60785714D02*
X153952380Y-60785714D01*
X153952380Y-61166666D01*
X154000000Y-61261904D01*
X154047619Y-61309523D01*
X154142857Y-61357142D01*
X154285714Y-61357142D01*
X154380952Y-61309523D01*
X154428571Y-61261904D01*
X154476190Y-61166666D01*
X154476190Y-60785714D01*
X153952380Y-62214285D02*
X153952380Y-62023809D01*
X154000000Y-61928571D01*
X154047619Y-61880952D01*
X154190476Y-61785714D01*
X154380952Y-61738095D01*
X154761904Y-61738095D01*
X154857142Y-61785714D01*
X154904761Y-61833333D01*
X154952380Y-61928571D01*
X154952380Y-62119047D01*
X154904761Y-62214285D01*
X154857142Y-62261904D01*
X154761904Y-62309523D01*
X154523809Y-62309523D01*
X154428571Y-62261904D01*
X154380952Y-62214285D01*
X154333333Y-62119047D01*
X154333333Y-61928571D01*
X154380952Y-61833333D01*
X154428571Y-61785714D01*
X154523809Y-61738095D01*
X153952380Y-63214285D02*
X153952380Y-62738095D01*
X154428571Y-62690476D01*
X154380952Y-62738095D01*
X154333333Y-62833333D01*
X154333333Y-63071428D01*
X154380952Y-63166666D01*
X154428571Y-63214285D01*
X154523809Y-63261904D01*
X154761904Y-63261904D01*
X154857142Y-63214285D01*
X154904761Y-63166666D01*
X154952380Y-63071428D01*
X154952380Y-62833333D01*
X154904761Y-62738095D01*
X154857142Y-62690476D01*
X193952380Y-88607142D02*
X193476190Y-88273809D01*
X193952380Y-88035714D02*
X192952380Y-88035714D01*
X192952380Y-88416666D01*
X193000000Y-88511904D01*
X193047619Y-88559523D01*
X193142857Y-88607142D01*
X193285714Y-88607142D01*
X193380952Y-88559523D01*
X193428571Y-88511904D01*
X193476190Y-88416666D01*
X193476190Y-88035714D01*
X192952380Y-89464285D02*
X192952380Y-89273809D01*
X193000000Y-89178571D01*
X193047619Y-89130952D01*
X193190476Y-89035714D01*
X193380952Y-88988095D01*
X193761904Y-88988095D01*
X193857142Y-89035714D01*
X193904761Y-89083333D01*
X193952380Y-89178571D01*
X193952380Y-89369047D01*
X193904761Y-89464285D01*
X193857142Y-89511904D01*
X193761904Y-89559523D01*
X193523809Y-89559523D01*
X193428571Y-89511904D01*
X193380952Y-89464285D01*
X193333333Y-89369047D01*
X193333333Y-89178571D01*
X193380952Y-89083333D01*
X193428571Y-89035714D01*
X193523809Y-88988095D01*
X192952380Y-90416666D02*
X192952380Y-90226190D01*
X193000000Y-90130952D01*
X193047619Y-90083333D01*
X193190476Y-89988095D01*
X193380952Y-89940476D01*
X193761904Y-89940476D01*
X193857142Y-89988095D01*
X193904761Y-90035714D01*
X193952380Y-90130952D01*
X193952380Y-90321428D01*
X193904761Y-90416666D01*
X193857142Y-90464285D01*
X193761904Y-90511904D01*
X193523809Y-90511904D01*
X193428571Y-90464285D01*
X193380952Y-90416666D01*
X193333333Y-90321428D01*
X193333333Y-90130952D01*
X193380952Y-90035714D01*
X193428571Y-89988095D01*
X193523809Y-89940476D01*
X187952380Y-60857142D02*
X187476190Y-60523809D01*
X187952380Y-60285714D02*
X186952380Y-60285714D01*
X186952380Y-60666666D01*
X187000000Y-60761904D01*
X187047619Y-60809523D01*
X187142857Y-60857142D01*
X187285714Y-60857142D01*
X187380952Y-60809523D01*
X187428571Y-60761904D01*
X187476190Y-60666666D01*
X187476190Y-60285714D01*
X186952380Y-61714285D02*
X186952380Y-61523809D01*
X187000000Y-61428571D01*
X187047619Y-61380952D01*
X187190476Y-61285714D01*
X187380952Y-61238095D01*
X187761904Y-61238095D01*
X187857142Y-61285714D01*
X187904761Y-61333333D01*
X187952380Y-61428571D01*
X187952380Y-61619047D01*
X187904761Y-61714285D01*
X187857142Y-61761904D01*
X187761904Y-61809523D01*
X187523809Y-61809523D01*
X187428571Y-61761904D01*
X187380952Y-61714285D01*
X187333333Y-61619047D01*
X187333333Y-61428571D01*
X187380952Y-61333333D01*
X187428571Y-61285714D01*
X187523809Y-61238095D01*
X187380952Y-62380952D02*
X187333333Y-62285714D01*
X187285714Y-62238095D01*
X187190476Y-62190476D01*
X187142857Y-62190476D01*
X187047619Y-62238095D01*
X187000000Y-62285714D01*
X186952380Y-62380952D01*
X186952380Y-62571428D01*
X187000000Y-62666666D01*
X187047619Y-62714285D01*
X187142857Y-62761904D01*
X187190476Y-62761904D01*
X187285714Y-62714285D01*
X187333333Y-62666666D01*
X187380952Y-62571428D01*
X187380952Y-62380952D01*
X187428571Y-62285714D01*
X187476190Y-62238095D01*
X187571428Y-62190476D01*
X187761904Y-62190476D01*
X187857142Y-62238095D01*
X187904761Y-62285714D01*
X187952380Y-62380952D01*
X187952380Y-62571428D01*
X187904761Y-62666666D01*
X187857142Y-62714285D01*
X187761904Y-62761904D01*
X187571428Y-62761904D01*
X187476190Y-62714285D01*
X187428571Y-62666666D01*
X187380952Y-62571428D01*
X184452380Y-63857142D02*
X183976190Y-63523809D01*
X184452380Y-63285714D02*
X183452380Y-63285714D01*
X183452380Y-63666666D01*
X183500000Y-63761904D01*
X183547619Y-63809523D01*
X183642857Y-63857142D01*
X183785714Y-63857142D01*
X183880952Y-63809523D01*
X183928571Y-63761904D01*
X183976190Y-63666666D01*
X183976190Y-63285714D01*
X183452380Y-64714285D02*
X183452380Y-64523809D01*
X183500000Y-64428571D01*
X183547619Y-64380952D01*
X183690476Y-64285714D01*
X183880952Y-64238095D01*
X184261904Y-64238095D01*
X184357142Y-64285714D01*
X184404761Y-64333333D01*
X184452380Y-64428571D01*
X184452380Y-64619047D01*
X184404761Y-64714285D01*
X184357142Y-64761904D01*
X184261904Y-64809523D01*
X184023809Y-64809523D01*
X183928571Y-64761904D01*
X183880952Y-64714285D01*
X183833333Y-64619047D01*
X183833333Y-64428571D01*
X183880952Y-64333333D01*
X183928571Y-64285714D01*
X184023809Y-64238095D01*
X184452380Y-65285714D02*
X184452380Y-65476190D01*
X184404761Y-65571428D01*
X184357142Y-65619047D01*
X184214285Y-65714285D01*
X184023809Y-65761904D01*
X183642857Y-65761904D01*
X183547619Y-65714285D01*
X183500000Y-65666666D01*
X183452380Y-65571428D01*
X183452380Y-65380952D01*
X183500000Y-65285714D01*
X183547619Y-65238095D01*
X183642857Y-65190476D01*
X183880952Y-65190476D01*
X183976190Y-65238095D01*
X184023809Y-65285714D01*
X184071428Y-65380952D01*
X184071428Y-65571428D01*
X184023809Y-65666666D01*
X183976190Y-65714285D01*
X183880952Y-65761904D01*
X197452380Y-63857142D02*
X196976190Y-63523809D01*
X197452380Y-63285714D02*
X196452380Y-63285714D01*
X196452380Y-63666666D01*
X196500000Y-63761904D01*
X196547619Y-63809523D01*
X196642857Y-63857142D01*
X196785714Y-63857142D01*
X196880952Y-63809523D01*
X196928571Y-63761904D01*
X196976190Y-63666666D01*
X196976190Y-63285714D01*
X196452380Y-64190476D02*
X196452380Y-64857142D01*
X197452380Y-64428571D01*
X196452380Y-65428571D02*
X196452380Y-65523809D01*
X196500000Y-65619047D01*
X196547619Y-65666666D01*
X196642857Y-65714285D01*
X196833333Y-65761904D01*
X197071428Y-65761904D01*
X197261904Y-65714285D01*
X197357142Y-65666666D01*
X197404761Y-65619047D01*
X197452380Y-65523809D01*
X197452380Y-65428571D01*
X197404761Y-65333333D01*
X197357142Y-65285714D01*
X197261904Y-65238095D01*
X197071428Y-65190476D01*
X196833333Y-65190476D01*
X196642857Y-65238095D01*
X196547619Y-65285714D01*
X196500000Y-65333333D01*
X196452380Y-65428571D01*
X195102380Y-55857142D02*
X194626190Y-55523809D01*
X195102380Y-55285714D02*
X194102380Y-55285714D01*
X194102380Y-55666666D01*
X194150000Y-55761904D01*
X194197619Y-55809523D01*
X194292857Y-55857142D01*
X194435714Y-55857142D01*
X194530952Y-55809523D01*
X194578571Y-55761904D01*
X194626190Y-55666666D01*
X194626190Y-55285714D01*
X194102380Y-56190476D02*
X194102380Y-56857142D01*
X195102380Y-56428571D01*
X195102380Y-57761904D02*
X195102380Y-57190476D01*
X195102380Y-57476190D02*
X194102380Y-57476190D01*
X194245238Y-57380952D01*
X194340476Y-57285714D01*
X194388095Y-57190476D01*
X228952380Y-88607142D02*
X228476190Y-88273809D01*
X228952380Y-88035714D02*
X227952380Y-88035714D01*
X227952380Y-88416666D01*
X228000000Y-88511904D01*
X228047619Y-88559523D01*
X228142857Y-88607142D01*
X228285714Y-88607142D01*
X228380952Y-88559523D01*
X228428571Y-88511904D01*
X228476190Y-88416666D01*
X228476190Y-88035714D01*
X227952380Y-88940476D02*
X227952380Y-89607142D01*
X228952380Y-89178571D01*
X228047619Y-89940476D02*
X228000000Y-89988095D01*
X227952380Y-90083333D01*
X227952380Y-90321428D01*
X228000000Y-90416666D01*
X228047619Y-90464285D01*
X228142857Y-90511904D01*
X228238095Y-90511904D01*
X228380952Y-90464285D01*
X228952380Y-89892857D01*
X228952380Y-90511904D01*
X223302380Y-91857142D02*
X222826190Y-91523809D01*
X223302380Y-91285714D02*
X222302380Y-91285714D01*
X222302380Y-91666666D01*
X222350000Y-91761904D01*
X222397619Y-91809523D01*
X222492857Y-91857142D01*
X222635714Y-91857142D01*
X222730952Y-91809523D01*
X222778571Y-91761904D01*
X222826190Y-91666666D01*
X222826190Y-91285714D01*
X222302380Y-92190476D02*
X222302380Y-92857142D01*
X223302380Y-92428571D01*
X222302380Y-93142857D02*
X222302380Y-93761904D01*
X222683333Y-93428571D01*
X222683333Y-93571428D01*
X222730952Y-93666666D01*
X222778571Y-93714285D01*
X222873809Y-93761904D01*
X223111904Y-93761904D01*
X223207142Y-93714285D01*
X223254761Y-93666666D01*
X223302380Y-93571428D01*
X223302380Y-93285714D01*
X223254761Y-93190476D01*
X223207142Y-93142857D01*
X236652380Y-91857142D02*
X236176190Y-91523809D01*
X236652380Y-91285714D02*
X235652380Y-91285714D01*
X235652380Y-91666666D01*
X235700000Y-91761904D01*
X235747619Y-91809523D01*
X235842857Y-91857142D01*
X235985714Y-91857142D01*
X236080952Y-91809523D01*
X236128571Y-91761904D01*
X236176190Y-91666666D01*
X236176190Y-91285714D01*
X235652380Y-92190476D02*
X235652380Y-92857142D01*
X236652380Y-92428571D01*
X235985714Y-93666666D02*
X236652380Y-93666666D01*
X235604761Y-93428571D02*
X236319047Y-93190476D01*
X236319047Y-93809523D01*
X234202380Y-84357142D02*
X233726190Y-84023809D01*
X234202380Y-83785714D02*
X233202380Y-83785714D01*
X233202380Y-84166666D01*
X233250000Y-84261904D01*
X233297619Y-84309523D01*
X233392857Y-84357142D01*
X233535714Y-84357142D01*
X233630952Y-84309523D01*
X233678571Y-84261904D01*
X233726190Y-84166666D01*
X233726190Y-83785714D01*
X233202380Y-84690476D02*
X233202380Y-85357142D01*
X234202380Y-84928571D01*
X233202380Y-86214285D02*
X233202380Y-85738095D01*
X233678571Y-85690476D01*
X233630952Y-85738095D01*
X233583333Y-85833333D01*
X233583333Y-86071428D01*
X233630952Y-86166666D01*
X233678571Y-86214285D01*
X233773809Y-86261904D01*
X234011904Y-86261904D01*
X234107142Y-86214285D01*
X234154761Y-86166666D01*
X234202380Y-86071428D01*
X234202380Y-85833333D01*
X234154761Y-85738095D01*
X234107142Y-85690476D01*
X190952380Y-52857142D02*
X190476190Y-52523809D01*
X190952380Y-52285714D02*
X189952380Y-52285714D01*
X189952380Y-52666666D01*
X190000000Y-52761904D01*
X190047619Y-52809523D01*
X190142857Y-52857142D01*
X190285714Y-52857142D01*
X190380952Y-52809523D01*
X190428571Y-52761904D01*
X190476190Y-52666666D01*
X190476190Y-52285714D01*
X189952380Y-53190476D02*
X189952380Y-53857142D01*
X190952380Y-53428571D01*
X189952380Y-54666666D02*
X189952380Y-54476190D01*
X190000000Y-54380952D01*
X190047619Y-54333333D01*
X190190476Y-54238095D01*
X190380952Y-54190476D01*
X190761904Y-54190476D01*
X190857142Y-54238095D01*
X190904761Y-54285714D01*
X190952380Y-54380952D01*
X190952380Y-54571428D01*
X190904761Y-54666666D01*
X190857142Y-54714285D01*
X190761904Y-54761904D01*
X190523809Y-54761904D01*
X190428571Y-54714285D01*
X190380952Y-54666666D01*
X190333333Y-54571428D01*
X190333333Y-54380952D01*
X190380952Y-54285714D01*
X190428571Y-54238095D01*
X190523809Y-54190476D01*
X229952380Y-81107142D02*
X229476190Y-80773809D01*
X229952380Y-80535714D02*
X228952380Y-80535714D01*
X228952380Y-80916666D01*
X229000000Y-81011904D01*
X229047619Y-81059523D01*
X229142857Y-81107142D01*
X229285714Y-81107142D01*
X229380952Y-81059523D01*
X229428571Y-81011904D01*
X229476190Y-80916666D01*
X229476190Y-80535714D01*
X228952380Y-81440476D02*
X228952380Y-82107142D01*
X229952380Y-81678571D01*
X228952380Y-82392857D02*
X228952380Y-83059523D01*
X229952380Y-82630952D01*
X193952380Y-60857142D02*
X193476190Y-60523809D01*
X193952380Y-60285714D02*
X192952380Y-60285714D01*
X192952380Y-60666666D01*
X193000000Y-60761904D01*
X193047619Y-60809523D01*
X193142857Y-60857142D01*
X193285714Y-60857142D01*
X193380952Y-60809523D01*
X193428571Y-60761904D01*
X193476190Y-60666666D01*
X193476190Y-60285714D01*
X192952380Y-61190476D02*
X192952380Y-61857142D01*
X193952380Y-61428571D01*
X193380952Y-62380952D02*
X193333333Y-62285714D01*
X193285714Y-62238095D01*
X193190476Y-62190476D01*
X193142857Y-62190476D01*
X193047619Y-62238095D01*
X193000000Y-62285714D01*
X192952380Y-62380952D01*
X192952380Y-62571428D01*
X193000000Y-62666666D01*
X193047619Y-62714285D01*
X193142857Y-62761904D01*
X193190476Y-62761904D01*
X193285714Y-62714285D01*
X193333333Y-62666666D01*
X193380952Y-62571428D01*
X193380952Y-62380952D01*
X193428571Y-62285714D01*
X193476190Y-62238095D01*
X193571428Y-62190476D01*
X193761904Y-62190476D01*
X193857142Y-62238095D01*
X193904761Y-62285714D01*
X193952380Y-62380952D01*
X193952380Y-62571428D01*
X193904761Y-62666666D01*
X193857142Y-62714285D01*
X193761904Y-62761904D01*
X193571428Y-62761904D01*
X193476190Y-62714285D01*
X193428571Y-62666666D01*
X193380952Y-62571428D01*
X232952380Y-88557142D02*
X232476190Y-88223809D01*
X232952380Y-87985714D02*
X231952380Y-87985714D01*
X231952380Y-88366666D01*
X232000000Y-88461904D01*
X232047619Y-88509523D01*
X232142857Y-88557142D01*
X232285714Y-88557142D01*
X232380952Y-88509523D01*
X232428571Y-88461904D01*
X232476190Y-88366666D01*
X232476190Y-87985714D01*
X231952380Y-88890476D02*
X231952380Y-89557142D01*
X232952380Y-89128571D01*
X232952380Y-89985714D02*
X232952380Y-90176190D01*
X232904761Y-90271428D01*
X232857142Y-90319047D01*
X232714285Y-90414285D01*
X232523809Y-90461904D01*
X232142857Y-90461904D01*
X232047619Y-90414285D01*
X232000000Y-90366666D01*
X231952380Y-90271428D01*
X231952380Y-90080952D01*
X232000000Y-89985714D01*
X232047619Y-89938095D01*
X232142857Y-89890476D01*
X232380952Y-89890476D01*
X232476190Y-89938095D01*
X232523809Y-89985714D01*
X232571428Y-90080952D01*
X232571428Y-90271428D01*
X232523809Y-90366666D01*
X232476190Y-90414285D01*
X232380952Y-90461904D01*
X70952380Y-88857142D02*
X70476190Y-88523809D01*
X70952380Y-88285714D02*
X69952380Y-88285714D01*
X69952380Y-88666666D01*
X70000000Y-88761904D01*
X70047619Y-88809523D01*
X70142857Y-88857142D01*
X70285714Y-88857142D01*
X70380952Y-88809523D01*
X70428571Y-88761904D01*
X70476190Y-88666666D01*
X70476190Y-88285714D01*
X70380952Y-89428571D02*
X70333333Y-89333333D01*
X70285714Y-89285714D01*
X70190476Y-89238095D01*
X70142857Y-89238095D01*
X70047619Y-89285714D01*
X70000000Y-89333333D01*
X69952380Y-89428571D01*
X69952380Y-89619047D01*
X70000000Y-89714285D01*
X70047619Y-89761904D01*
X70142857Y-89809523D01*
X70190476Y-89809523D01*
X70285714Y-89761904D01*
X70333333Y-89714285D01*
X70380952Y-89619047D01*
X70380952Y-89428571D01*
X70428571Y-89333333D01*
X70476190Y-89285714D01*
X70571428Y-89238095D01*
X70761904Y-89238095D01*
X70857142Y-89285714D01*
X70904761Y-89333333D01*
X70952380Y-89428571D01*
X70952380Y-89619047D01*
X70904761Y-89714285D01*
X70857142Y-89761904D01*
X70761904Y-89809523D01*
X70571428Y-89809523D01*
X70476190Y-89761904D01*
X70428571Y-89714285D01*
X70380952Y-89619047D01*
X70952380Y-90761904D02*
X70952380Y-90190476D01*
X70952380Y-90476190D02*
X69952380Y-90476190D01*
X70095238Y-90380952D01*
X70190476Y-90285714D01*
X70238095Y-90190476D01*
X67452380Y-91857142D02*
X66976190Y-91523809D01*
X67452380Y-91285714D02*
X66452380Y-91285714D01*
X66452380Y-91666666D01*
X66500000Y-91761904D01*
X66547619Y-91809523D01*
X66642857Y-91857142D01*
X66785714Y-91857142D01*
X66880952Y-91809523D01*
X66928571Y-91761904D01*
X66976190Y-91666666D01*
X66976190Y-91285714D01*
X66880952Y-92428571D02*
X66833333Y-92333333D01*
X66785714Y-92285714D01*
X66690476Y-92238095D01*
X66642857Y-92238095D01*
X66547619Y-92285714D01*
X66500000Y-92333333D01*
X66452380Y-92428571D01*
X66452380Y-92619047D01*
X66500000Y-92714285D01*
X66547619Y-92761904D01*
X66642857Y-92809523D01*
X66690476Y-92809523D01*
X66785714Y-92761904D01*
X66833333Y-92714285D01*
X66880952Y-92619047D01*
X66880952Y-92428571D01*
X66928571Y-92333333D01*
X66976190Y-92285714D01*
X67071428Y-92238095D01*
X67261904Y-92238095D01*
X67357142Y-92285714D01*
X67404761Y-92333333D01*
X67452380Y-92428571D01*
X67452380Y-92619047D01*
X67404761Y-92714285D01*
X67357142Y-92761904D01*
X67261904Y-92809523D01*
X67071428Y-92809523D01*
X66976190Y-92761904D01*
X66928571Y-92714285D01*
X66880952Y-92619047D01*
X66547619Y-93190476D02*
X66500000Y-93238095D01*
X66452380Y-93333333D01*
X66452380Y-93571428D01*
X66500000Y-93666666D01*
X66547619Y-93714285D01*
X66642857Y-93761904D01*
X66738095Y-93761904D01*
X66880952Y-93714285D01*
X67452380Y-93142857D01*
X67452380Y-93761904D01*
X80452380Y-91857142D02*
X79976190Y-91523809D01*
X80452380Y-91285714D02*
X79452380Y-91285714D01*
X79452380Y-91666666D01*
X79500000Y-91761904D01*
X79547619Y-91809523D01*
X79642857Y-91857142D01*
X79785714Y-91857142D01*
X79880952Y-91809523D01*
X79928571Y-91761904D01*
X79976190Y-91666666D01*
X79976190Y-91285714D01*
X79880952Y-92428571D02*
X79833333Y-92333333D01*
X79785714Y-92285714D01*
X79690476Y-92238095D01*
X79642857Y-92238095D01*
X79547619Y-92285714D01*
X79500000Y-92333333D01*
X79452380Y-92428571D01*
X79452380Y-92619047D01*
X79500000Y-92714285D01*
X79547619Y-92761904D01*
X79642857Y-92809523D01*
X79690476Y-92809523D01*
X79785714Y-92761904D01*
X79833333Y-92714285D01*
X79880952Y-92619047D01*
X79880952Y-92428571D01*
X79928571Y-92333333D01*
X79976190Y-92285714D01*
X80071428Y-92238095D01*
X80261904Y-92238095D01*
X80357142Y-92285714D01*
X80404761Y-92333333D01*
X80452380Y-92428571D01*
X80452380Y-92619047D01*
X80404761Y-92714285D01*
X80357142Y-92761904D01*
X80261904Y-92809523D01*
X80071428Y-92809523D01*
X79976190Y-92761904D01*
X79928571Y-92714285D01*
X79880952Y-92619047D01*
X79452380Y-93142857D02*
X79452380Y-93761904D01*
X79833333Y-93428571D01*
X79833333Y-93571428D01*
X79880952Y-93666666D01*
X79928571Y-93714285D01*
X80023809Y-93761904D01*
X80261904Y-93761904D01*
X80357142Y-93714285D01*
X80404761Y-93666666D01*
X80452380Y-93571428D01*
X80452380Y-93285714D01*
X80404761Y-93190476D01*
X80357142Y-93142857D01*
X78102380Y-83857142D02*
X77626190Y-83523809D01*
X78102380Y-83285714D02*
X77102380Y-83285714D01*
X77102380Y-83666666D01*
X77150000Y-83761904D01*
X77197619Y-83809523D01*
X77292857Y-83857142D01*
X77435714Y-83857142D01*
X77530952Y-83809523D01*
X77578571Y-83761904D01*
X77626190Y-83666666D01*
X77626190Y-83285714D01*
X77530952Y-84428571D02*
X77483333Y-84333333D01*
X77435714Y-84285714D01*
X77340476Y-84238095D01*
X77292857Y-84238095D01*
X77197619Y-84285714D01*
X77150000Y-84333333D01*
X77102380Y-84428571D01*
X77102380Y-84619047D01*
X77150000Y-84714285D01*
X77197619Y-84761904D01*
X77292857Y-84809523D01*
X77340476Y-84809523D01*
X77435714Y-84761904D01*
X77483333Y-84714285D01*
X77530952Y-84619047D01*
X77530952Y-84428571D01*
X77578571Y-84333333D01*
X77626190Y-84285714D01*
X77721428Y-84238095D01*
X77911904Y-84238095D01*
X78007142Y-84285714D01*
X78054761Y-84333333D01*
X78102380Y-84428571D01*
X78102380Y-84619047D01*
X78054761Y-84714285D01*
X78007142Y-84761904D01*
X77911904Y-84809523D01*
X77721428Y-84809523D01*
X77626190Y-84761904D01*
X77578571Y-84714285D01*
X77530952Y-84619047D01*
X77435714Y-85666666D02*
X78102380Y-85666666D01*
X77054761Y-85428571D02*
X77769047Y-85190476D01*
X77769047Y-85809523D01*
X73952380Y-80857142D02*
X73476190Y-80523809D01*
X73952380Y-80285714D02*
X72952380Y-80285714D01*
X72952380Y-80666666D01*
X73000000Y-80761904D01*
X73047619Y-80809523D01*
X73142857Y-80857142D01*
X73285714Y-80857142D01*
X73380952Y-80809523D01*
X73428571Y-80761904D01*
X73476190Y-80666666D01*
X73476190Y-80285714D01*
X73380952Y-81428571D02*
X73333333Y-81333333D01*
X73285714Y-81285714D01*
X73190476Y-81238095D01*
X73142857Y-81238095D01*
X73047619Y-81285714D01*
X73000000Y-81333333D01*
X72952380Y-81428571D01*
X72952380Y-81619047D01*
X73000000Y-81714285D01*
X73047619Y-81761904D01*
X73142857Y-81809523D01*
X73190476Y-81809523D01*
X73285714Y-81761904D01*
X73333333Y-81714285D01*
X73380952Y-81619047D01*
X73380952Y-81428571D01*
X73428571Y-81333333D01*
X73476190Y-81285714D01*
X73571428Y-81238095D01*
X73761904Y-81238095D01*
X73857142Y-81285714D01*
X73904761Y-81333333D01*
X73952380Y-81428571D01*
X73952380Y-81619047D01*
X73904761Y-81714285D01*
X73857142Y-81761904D01*
X73761904Y-81809523D01*
X73571428Y-81809523D01*
X73476190Y-81761904D01*
X73428571Y-81714285D01*
X73380952Y-81619047D01*
X72952380Y-82714285D02*
X72952380Y-82238095D01*
X73428571Y-82190476D01*
X73380952Y-82238095D01*
X73333333Y-82333333D01*
X73333333Y-82571428D01*
X73380952Y-82666666D01*
X73428571Y-82714285D01*
X73523809Y-82761904D01*
X73761904Y-82761904D01*
X73857142Y-82714285D01*
X73904761Y-82666666D01*
X73952380Y-82571428D01*
X73952380Y-82333333D01*
X73904761Y-82238095D01*
X73857142Y-82190476D01*
X76952380Y-88857142D02*
X76476190Y-88523809D01*
X76952380Y-88285714D02*
X75952380Y-88285714D01*
X75952380Y-88666666D01*
X76000000Y-88761904D01*
X76047619Y-88809523D01*
X76142857Y-88857142D01*
X76285714Y-88857142D01*
X76380952Y-88809523D01*
X76428571Y-88761904D01*
X76476190Y-88666666D01*
X76476190Y-88285714D01*
X76380952Y-89428571D02*
X76333333Y-89333333D01*
X76285714Y-89285714D01*
X76190476Y-89238095D01*
X76142857Y-89238095D01*
X76047619Y-89285714D01*
X76000000Y-89333333D01*
X75952380Y-89428571D01*
X75952380Y-89619047D01*
X76000000Y-89714285D01*
X76047619Y-89761904D01*
X76142857Y-89809523D01*
X76190476Y-89809523D01*
X76285714Y-89761904D01*
X76333333Y-89714285D01*
X76380952Y-89619047D01*
X76380952Y-89428571D01*
X76428571Y-89333333D01*
X76476190Y-89285714D01*
X76571428Y-89238095D01*
X76761904Y-89238095D01*
X76857142Y-89285714D01*
X76904761Y-89333333D01*
X76952380Y-89428571D01*
X76952380Y-89619047D01*
X76904761Y-89714285D01*
X76857142Y-89761904D01*
X76761904Y-89809523D01*
X76571428Y-89809523D01*
X76476190Y-89761904D01*
X76428571Y-89714285D01*
X76380952Y-89619047D01*
X75952380Y-90142857D02*
X75952380Y-90809523D01*
X76952380Y-90380952D01*
X96238095Y-54202380D02*
X96238095Y-55011904D01*
X96190476Y-55107142D01*
X96142857Y-55154761D01*
X96047619Y-55202380D01*
X95857142Y-55202380D01*
X95761904Y-55154761D01*
X95714285Y-55107142D01*
X95666666Y-55011904D01*
X95666666Y-54202380D01*
X94666666Y-55202380D02*
X95238095Y-55202380D01*
X94952380Y-55202380D02*
X94952380Y-54202380D01*
X95047619Y-54345238D01*
X95142857Y-54440476D01*
X95238095Y-54488095D01*
X94095238Y-54630952D02*
X94190476Y-54583333D01*
X94238095Y-54535714D01*
X94285714Y-54440476D01*
X94285714Y-54392857D01*
X94238095Y-54297619D01*
X94190476Y-54250000D01*
X94095238Y-54202380D01*
X93904761Y-54202380D01*
X93809523Y-54250000D01*
X93761904Y-54297619D01*
X93714285Y-54392857D01*
X93714285Y-54440476D01*
X93761904Y-54535714D01*
X93809523Y-54583333D01*
X93904761Y-54630952D01*
X94095238Y-54630952D01*
X94190476Y-54678571D01*
X94238095Y-54726190D01*
X94285714Y-54821428D01*
X94285714Y-55011904D01*
X94238095Y-55107142D01*
X94190476Y-55154761D01*
X94095238Y-55202380D01*
X93904761Y-55202380D01*
X93809523Y-55154761D01*
X93761904Y-55107142D01*
X93714285Y-55011904D01*
X93714285Y-54821428D01*
X93761904Y-54726190D01*
X93809523Y-54678571D01*
X93904761Y-54630952D01*
X174488095Y-54172380D02*
X174488095Y-54981904D01*
X174440476Y-55077142D01*
X174392857Y-55124761D01*
X174297619Y-55172380D01*
X174107142Y-55172380D01*
X174011904Y-55124761D01*
X173964285Y-55077142D01*
X173916666Y-54981904D01*
X173916666Y-54172380D01*
X172916666Y-55172380D02*
X173488095Y-55172380D01*
X173202380Y-55172380D02*
X173202380Y-54172380D01*
X173297619Y-54315238D01*
X173392857Y-54410476D01*
X173488095Y-54458095D01*
X172440476Y-55172380D02*
X172250000Y-55172380D01*
X172154761Y-55124761D01*
X172107142Y-55077142D01*
X172011904Y-54934285D01*
X171964285Y-54743809D01*
X171964285Y-54362857D01*
X172011904Y-54267619D01*
X172059523Y-54220000D01*
X172154761Y-54172380D01*
X172345238Y-54172380D01*
X172440476Y-54220000D01*
X172488095Y-54267619D01*
X172535714Y-54362857D01*
X172535714Y-54600952D01*
X172488095Y-54696190D01*
X172440476Y-54743809D01*
X172345238Y-54791428D01*
X172154761Y-54791428D01*
X172059523Y-54743809D01*
X172011904Y-54696190D01*
X171964285Y-54600952D01*
X94738095Y-85172380D02*
X94738095Y-85981904D01*
X94690476Y-86077142D01*
X94642857Y-86124761D01*
X94547619Y-86172380D01*
X94357142Y-86172380D01*
X94261904Y-86124761D01*
X94214285Y-86077142D01*
X94166666Y-85981904D01*
X94166666Y-85172380D01*
X93738095Y-85267619D02*
X93690476Y-85220000D01*
X93595238Y-85172380D01*
X93357142Y-85172380D01*
X93261904Y-85220000D01*
X93214285Y-85267619D01*
X93166666Y-85362857D01*
X93166666Y-85458095D01*
X93214285Y-85600952D01*
X93785714Y-86172380D01*
X93166666Y-86172380D01*
X92547619Y-85172380D02*
X92452380Y-85172380D01*
X92357142Y-85220000D01*
X92309523Y-85267619D01*
X92261904Y-85362857D01*
X92214285Y-85553333D01*
X92214285Y-85791428D01*
X92261904Y-85981904D01*
X92309523Y-86077142D01*
X92357142Y-86124761D01*
X92452380Y-86172380D01*
X92547619Y-86172380D01*
X92642857Y-86124761D01*
X92690476Y-86077142D01*
X92738095Y-85981904D01*
X92785714Y-85791428D01*
X92785714Y-85553333D01*
X92738095Y-85362857D01*
X92690476Y-85267619D01*
X92642857Y-85220000D01*
X92547619Y-85172380D01*
X172738095Y-85172380D02*
X172738095Y-85981904D01*
X172690476Y-86077142D01*
X172642857Y-86124761D01*
X172547619Y-86172380D01*
X172357142Y-86172380D01*
X172261904Y-86124761D01*
X172214285Y-86077142D01*
X172166666Y-85981904D01*
X172166666Y-85172380D01*
X171738095Y-85267619D02*
X171690476Y-85220000D01*
X171595238Y-85172380D01*
X171357142Y-85172380D01*
X171261904Y-85220000D01*
X171214285Y-85267619D01*
X171166666Y-85362857D01*
X171166666Y-85458095D01*
X171214285Y-85600952D01*
X171785714Y-86172380D01*
X171166666Y-86172380D01*
X170214285Y-86172380D02*
X170785714Y-86172380D01*
X170500000Y-86172380D02*
X170500000Y-85172380D01*
X170595238Y-85315238D01*
X170690476Y-85410476D01*
X170785714Y-85458095D01*
X245738095Y-82702380D02*
X245738095Y-83511904D01*
X245690476Y-83607142D01*
X245642857Y-83654761D01*
X245547619Y-83702380D01*
X245357142Y-83702380D01*
X245261904Y-83654761D01*
X245214285Y-83607142D01*
X245166666Y-83511904D01*
X245166666Y-82702380D01*
X244738095Y-82797619D02*
X244690476Y-82750000D01*
X244595238Y-82702380D01*
X244357142Y-82702380D01*
X244261904Y-82750000D01*
X244214285Y-82797619D01*
X244166666Y-82892857D01*
X244166666Y-82988095D01*
X244214285Y-83130952D01*
X244785714Y-83702380D01*
X244166666Y-83702380D01*
X243785714Y-82797619D02*
X243738095Y-82750000D01*
X243642857Y-82702380D01*
X243404761Y-82702380D01*
X243309523Y-82750000D01*
X243261904Y-82797619D01*
X243214285Y-82892857D01*
X243214285Y-82988095D01*
X243261904Y-83130952D01*
X243833333Y-83702380D01*
X243214285Y-83702380D01*
X257238095Y-95672380D02*
X257238095Y-96481904D01*
X257190476Y-96577142D01*
X257142857Y-96624761D01*
X257047619Y-96672380D01*
X256857142Y-96672380D01*
X256761904Y-96624761D01*
X256714285Y-96577142D01*
X256666666Y-96481904D01*
X256666666Y-95672380D01*
X256238095Y-95767619D02*
X256190476Y-95720000D01*
X256095238Y-95672380D01*
X255857142Y-95672380D01*
X255761904Y-95720000D01*
X255714285Y-95767619D01*
X255666666Y-95862857D01*
X255666666Y-95958095D01*
X255714285Y-96100952D01*
X256285714Y-96672380D01*
X255666666Y-96672380D01*
X255333333Y-95672380D02*
X254714285Y-95672380D01*
X255047619Y-96053333D01*
X254904761Y-96053333D01*
X254809523Y-96100952D01*
X254761904Y-96148571D01*
X254714285Y-96243809D01*
X254714285Y-96481904D01*
X254761904Y-96577142D01*
X254809523Y-96624761D01*
X254904761Y-96672380D01*
X255190476Y-96672380D01*
X255285714Y-96624761D01*
X255333333Y-96577142D01*
X216238095Y-59052380D02*
X216238095Y-59861904D01*
X216190476Y-59957142D01*
X216142857Y-60004761D01*
X216047619Y-60052380D01*
X215857142Y-60052380D01*
X215761904Y-60004761D01*
X215714285Y-59957142D01*
X215666666Y-59861904D01*
X215666666Y-59052380D01*
X215238095Y-59147619D02*
X215190476Y-59100000D01*
X215095238Y-59052380D01*
X214857142Y-59052380D01*
X214761904Y-59100000D01*
X214714285Y-59147619D01*
X214666666Y-59242857D01*
X214666666Y-59338095D01*
X214714285Y-59480952D01*
X215285714Y-60052380D01*
X214666666Y-60052380D01*
X213809523Y-59385714D02*
X213809523Y-60052380D01*
X214047619Y-59004761D02*
X214285714Y-59719047D01*
X213666666Y-59719047D01*
X216238095Y-66052380D02*
X216238095Y-66861904D01*
X216190476Y-66957142D01*
X216142857Y-67004761D01*
X216047619Y-67052380D01*
X215857142Y-67052380D01*
X215761904Y-67004761D01*
X215714285Y-66957142D01*
X215666666Y-66861904D01*
X215666666Y-66052380D01*
X215238095Y-66147619D02*
X215190476Y-66100000D01*
X215095238Y-66052380D01*
X214857142Y-66052380D01*
X214761904Y-66100000D01*
X214714285Y-66147619D01*
X214666666Y-66242857D01*
X214666666Y-66338095D01*
X214714285Y-66480952D01*
X215285714Y-67052380D01*
X214666666Y-67052380D01*
X213761904Y-66052380D02*
X214238095Y-66052380D01*
X214285714Y-66528571D01*
X214238095Y-66480952D01*
X214142857Y-66433333D01*
X213904761Y-66433333D01*
X213809523Y-66480952D01*
X213761904Y-66528571D01*
X213714285Y-66623809D01*
X213714285Y-66861904D01*
X213761904Y-66957142D01*
X213809523Y-67004761D01*
X213904761Y-67052380D01*
X214142857Y-67052380D01*
X214238095Y-67004761D01*
X214285714Y-66957142D01*
X216238095Y-73052380D02*
X216238095Y-73861904D01*
X216190476Y-73957142D01*
X216142857Y-74004761D01*
X216047619Y-74052380D01*
X215857142Y-74052380D01*
X215761904Y-74004761D01*
X215714285Y-73957142D01*
X215666666Y-73861904D01*
X215666666Y-73052380D01*
X215238095Y-73147619D02*
X215190476Y-73100000D01*
X215095238Y-73052380D01*
X214857142Y-73052380D01*
X214761904Y-73100000D01*
X214714285Y-73147619D01*
X214666666Y-73242857D01*
X214666666Y-73338095D01*
X214714285Y-73480952D01*
X215285714Y-74052380D01*
X214666666Y-74052380D01*
X213809523Y-73052380D02*
X214000000Y-73052380D01*
X214095238Y-73100000D01*
X214142857Y-73147619D01*
X214238095Y-73290476D01*
X214285714Y-73480952D01*
X214285714Y-73861904D01*
X214238095Y-73957142D01*
X214190476Y-74004761D01*
X214095238Y-74052380D01*
X213904761Y-74052380D01*
X213809523Y-74004761D01*
X213761904Y-73957142D01*
X213714285Y-73861904D01*
X213714285Y-73623809D01*
X213761904Y-73528571D01*
X213809523Y-73480952D01*
X213904761Y-73433333D01*
X214095238Y-73433333D01*
X214190476Y-73480952D01*
X214238095Y-73528571D01*
X214285714Y-73623809D01*
X80607142Y-76357142D02*
X80654761Y-76309523D01*
X80702380Y-76166666D01*
X80702380Y-76071428D01*
X80654761Y-75928571D01*
X80559523Y-75833333D01*
X80464285Y-75785714D01*
X80273809Y-75738095D01*
X80130952Y-75738095D01*
X79940476Y-75785714D01*
X79845238Y-75833333D01*
X79750000Y-75928571D01*
X79702380Y-76071428D01*
X79702380Y-76166666D01*
X79750000Y-76309523D01*
X79797619Y-76357142D01*
X79702380Y-77214285D02*
X79702380Y-77023809D01*
X79750000Y-76928571D01*
X79797619Y-76880952D01*
X79940476Y-76785714D01*
X80130952Y-76738095D01*
X80511904Y-76738095D01*
X80607142Y-76785714D01*
X80654761Y-76833333D01*
X80702380Y-76928571D01*
X80702380Y-77119047D01*
X80654761Y-77214285D01*
X80607142Y-77261904D01*
X80511904Y-77309523D01*
X80273809Y-77309523D01*
X80178571Y-77261904D01*
X80130952Y-77214285D01*
X80083333Y-77119047D01*
X80083333Y-76928571D01*
X80130952Y-76833333D01*
X80178571Y-76785714D01*
X80273809Y-76738095D01*
X79702380Y-77642857D02*
X79702380Y-78261904D01*
X80083333Y-77928571D01*
X80083333Y-78071428D01*
X80130952Y-78166666D01*
X80178571Y-78214285D01*
X80273809Y-78261904D01*
X80511904Y-78261904D01*
X80607142Y-78214285D01*
X80654761Y-78166666D01*
X80702380Y-78071428D01*
X80702380Y-77785714D01*
X80654761Y-77690476D01*
X80607142Y-77642857D01*
X119607142Y-76357142D02*
X119654761Y-76309523D01*
X119702380Y-76166666D01*
X119702380Y-76071428D01*
X119654761Y-75928571D01*
X119559523Y-75833333D01*
X119464285Y-75785714D01*
X119273809Y-75738095D01*
X119130952Y-75738095D01*
X118940476Y-75785714D01*
X118845238Y-75833333D01*
X118750000Y-75928571D01*
X118702380Y-76071428D01*
X118702380Y-76166666D01*
X118750000Y-76309523D01*
X118797619Y-76357142D01*
X118702380Y-77214285D02*
X118702380Y-77023809D01*
X118750000Y-76928571D01*
X118797619Y-76880952D01*
X118940476Y-76785714D01*
X119130952Y-76738095D01*
X119511904Y-76738095D01*
X119607142Y-76785714D01*
X119654761Y-76833333D01*
X119702380Y-76928571D01*
X119702380Y-77119047D01*
X119654761Y-77214285D01*
X119607142Y-77261904D01*
X119511904Y-77309523D01*
X119273809Y-77309523D01*
X119178571Y-77261904D01*
X119130952Y-77214285D01*
X119083333Y-77119047D01*
X119083333Y-76928571D01*
X119130952Y-76833333D01*
X119178571Y-76785714D01*
X119273809Y-76738095D01*
X119035714Y-78166666D02*
X119702380Y-78166666D01*
X118654761Y-77928571D02*
X119369047Y-77690476D01*
X119369047Y-78309523D01*
X158607142Y-76357142D02*
X158654761Y-76309523D01*
X158702380Y-76166666D01*
X158702380Y-76071428D01*
X158654761Y-75928571D01*
X158559523Y-75833333D01*
X158464285Y-75785714D01*
X158273809Y-75738095D01*
X158130952Y-75738095D01*
X157940476Y-75785714D01*
X157845238Y-75833333D01*
X157750000Y-75928571D01*
X157702380Y-76071428D01*
X157702380Y-76166666D01*
X157750000Y-76309523D01*
X157797619Y-76357142D01*
X157702380Y-77214285D02*
X157702380Y-77023809D01*
X157750000Y-76928571D01*
X157797619Y-76880952D01*
X157940476Y-76785714D01*
X158130952Y-76738095D01*
X158511904Y-76738095D01*
X158607142Y-76785714D01*
X158654761Y-76833333D01*
X158702380Y-76928571D01*
X158702380Y-77119047D01*
X158654761Y-77214285D01*
X158607142Y-77261904D01*
X158511904Y-77309523D01*
X158273809Y-77309523D01*
X158178571Y-77261904D01*
X158130952Y-77214285D01*
X158083333Y-77119047D01*
X158083333Y-76928571D01*
X158130952Y-76833333D01*
X158178571Y-76785714D01*
X158273809Y-76738095D01*
X157702380Y-78214285D02*
X157702380Y-77738095D01*
X158178571Y-77690476D01*
X158130952Y-77738095D01*
X158083333Y-77833333D01*
X158083333Y-78071428D01*
X158130952Y-78166666D01*
X158178571Y-78214285D01*
X158273809Y-78261904D01*
X158511904Y-78261904D01*
X158607142Y-78214285D01*
X158654761Y-78166666D01*
X158702380Y-78071428D01*
X158702380Y-77833333D01*
X158654761Y-77738095D01*
X158607142Y-77690476D01*
X197607142Y-76357142D02*
X197654761Y-76309523D01*
X197702380Y-76166666D01*
X197702380Y-76071428D01*
X197654761Y-75928571D01*
X197559523Y-75833333D01*
X197464285Y-75785714D01*
X197273809Y-75738095D01*
X197130952Y-75738095D01*
X196940476Y-75785714D01*
X196845238Y-75833333D01*
X196750000Y-75928571D01*
X196702380Y-76071428D01*
X196702380Y-76166666D01*
X196750000Y-76309523D01*
X196797619Y-76357142D01*
X196702380Y-77214285D02*
X196702380Y-77023809D01*
X196750000Y-76928571D01*
X196797619Y-76880952D01*
X196940476Y-76785714D01*
X197130952Y-76738095D01*
X197511904Y-76738095D01*
X197607142Y-76785714D01*
X197654761Y-76833333D01*
X197702380Y-76928571D01*
X197702380Y-77119047D01*
X197654761Y-77214285D01*
X197607142Y-77261904D01*
X197511904Y-77309523D01*
X197273809Y-77309523D01*
X197178571Y-77261904D01*
X197130952Y-77214285D01*
X197083333Y-77119047D01*
X197083333Y-76928571D01*
X197130952Y-76833333D01*
X197178571Y-76785714D01*
X197273809Y-76738095D01*
X196702380Y-78166666D02*
X196702380Y-77976190D01*
X196750000Y-77880952D01*
X196797619Y-77833333D01*
X196940476Y-77738095D01*
X197130952Y-77690476D01*
X197511904Y-77690476D01*
X197607142Y-77738095D01*
X197654761Y-77785714D01*
X197702380Y-77880952D01*
X197702380Y-78071428D01*
X197654761Y-78166666D01*
X197607142Y-78214285D01*
X197511904Y-78261904D01*
X197273809Y-78261904D01*
X197178571Y-78214285D01*
X197130952Y-78166666D01*
X197083333Y-78071428D01*
X197083333Y-77880952D01*
X197130952Y-77785714D01*
X197178571Y-77738095D01*
X197273809Y-77690476D01*
X80357142Y-104357142D02*
X80404761Y-104309523D01*
X80452380Y-104166666D01*
X80452380Y-104071428D01*
X80404761Y-103928571D01*
X80309523Y-103833333D01*
X80214285Y-103785714D01*
X80023809Y-103738095D01*
X79880952Y-103738095D01*
X79690476Y-103785714D01*
X79595238Y-103833333D01*
X79500000Y-103928571D01*
X79452380Y-104071428D01*
X79452380Y-104166666D01*
X79500000Y-104309523D01*
X79547619Y-104357142D01*
X79452380Y-105214285D02*
X79452380Y-105023809D01*
X79500000Y-104928571D01*
X79547619Y-104880952D01*
X79690476Y-104785714D01*
X79880952Y-104738095D01*
X80261904Y-104738095D01*
X80357142Y-104785714D01*
X80404761Y-104833333D01*
X80452380Y-104928571D01*
X80452380Y-105119047D01*
X80404761Y-105214285D01*
X80357142Y-105261904D01*
X80261904Y-105309523D01*
X80023809Y-105309523D01*
X79928571Y-105261904D01*
X79880952Y-105214285D01*
X79833333Y-105119047D01*
X79833333Y-104928571D01*
X79880952Y-104833333D01*
X79928571Y-104785714D01*
X80023809Y-104738095D01*
X79452380Y-105642857D02*
X79452380Y-106309523D01*
X80452380Y-105880952D01*
X119357142Y-104357142D02*
X119404761Y-104309523D01*
X119452380Y-104166666D01*
X119452380Y-104071428D01*
X119404761Y-103928571D01*
X119309523Y-103833333D01*
X119214285Y-103785714D01*
X119023809Y-103738095D01*
X118880952Y-103738095D01*
X118690476Y-103785714D01*
X118595238Y-103833333D01*
X118500000Y-103928571D01*
X118452380Y-104071428D01*
X118452380Y-104166666D01*
X118500000Y-104309523D01*
X118547619Y-104357142D01*
X118452380Y-105214285D02*
X118452380Y-105023809D01*
X118500000Y-104928571D01*
X118547619Y-104880952D01*
X118690476Y-104785714D01*
X118880952Y-104738095D01*
X119261904Y-104738095D01*
X119357142Y-104785714D01*
X119404761Y-104833333D01*
X119452380Y-104928571D01*
X119452380Y-105119047D01*
X119404761Y-105214285D01*
X119357142Y-105261904D01*
X119261904Y-105309523D01*
X119023809Y-105309523D01*
X118928571Y-105261904D01*
X118880952Y-105214285D01*
X118833333Y-105119047D01*
X118833333Y-104928571D01*
X118880952Y-104833333D01*
X118928571Y-104785714D01*
X119023809Y-104738095D01*
X118880952Y-105880952D02*
X118833333Y-105785714D01*
X118785714Y-105738095D01*
X118690476Y-105690476D01*
X118642857Y-105690476D01*
X118547619Y-105738095D01*
X118500000Y-105785714D01*
X118452380Y-105880952D01*
X118452380Y-106071428D01*
X118500000Y-106166666D01*
X118547619Y-106214285D01*
X118642857Y-106261904D01*
X118690476Y-106261904D01*
X118785714Y-106214285D01*
X118833333Y-106166666D01*
X118880952Y-106071428D01*
X118880952Y-105880952D01*
X118928571Y-105785714D01*
X118976190Y-105738095D01*
X119071428Y-105690476D01*
X119261904Y-105690476D01*
X119357142Y-105738095D01*
X119404761Y-105785714D01*
X119452380Y-105880952D01*
X119452380Y-106071428D01*
X119404761Y-106166666D01*
X119357142Y-106214285D01*
X119261904Y-106261904D01*
X119071428Y-106261904D01*
X118976190Y-106214285D01*
X118928571Y-106166666D01*
X118880952Y-106071428D01*
X158607142Y-104357142D02*
X158654761Y-104309523D01*
X158702380Y-104166666D01*
X158702380Y-104071428D01*
X158654761Y-103928571D01*
X158559523Y-103833333D01*
X158464285Y-103785714D01*
X158273809Y-103738095D01*
X158130952Y-103738095D01*
X157940476Y-103785714D01*
X157845238Y-103833333D01*
X157750000Y-103928571D01*
X157702380Y-104071428D01*
X157702380Y-104166666D01*
X157750000Y-104309523D01*
X157797619Y-104357142D01*
X157702380Y-105214285D02*
X157702380Y-105023809D01*
X157750000Y-104928571D01*
X157797619Y-104880952D01*
X157940476Y-104785714D01*
X158130952Y-104738095D01*
X158511904Y-104738095D01*
X158607142Y-104785714D01*
X158654761Y-104833333D01*
X158702380Y-104928571D01*
X158702380Y-105119047D01*
X158654761Y-105214285D01*
X158607142Y-105261904D01*
X158511904Y-105309523D01*
X158273809Y-105309523D01*
X158178571Y-105261904D01*
X158130952Y-105214285D01*
X158083333Y-105119047D01*
X158083333Y-104928571D01*
X158130952Y-104833333D01*
X158178571Y-104785714D01*
X158273809Y-104738095D01*
X158702380Y-105785714D02*
X158702380Y-105976190D01*
X158654761Y-106071428D01*
X158607142Y-106119047D01*
X158464285Y-106214285D01*
X158273809Y-106261904D01*
X157892857Y-106261904D01*
X157797619Y-106214285D01*
X157750000Y-106166666D01*
X157702380Y-106071428D01*
X157702380Y-105880952D01*
X157750000Y-105785714D01*
X157797619Y-105738095D01*
X157892857Y-105690476D01*
X158130952Y-105690476D01*
X158226190Y-105738095D01*
X158273809Y-105785714D01*
X158321428Y-105880952D01*
X158321428Y-106071428D01*
X158273809Y-106166666D01*
X158226190Y-106214285D01*
X158130952Y-106261904D01*
X197607142Y-104357142D02*
X197654761Y-104309523D01*
X197702380Y-104166666D01*
X197702380Y-104071428D01*
X197654761Y-103928571D01*
X197559523Y-103833333D01*
X197464285Y-103785714D01*
X197273809Y-103738095D01*
X197130952Y-103738095D01*
X196940476Y-103785714D01*
X196845238Y-103833333D01*
X196750000Y-103928571D01*
X196702380Y-104071428D01*
X196702380Y-104166666D01*
X196750000Y-104309523D01*
X196797619Y-104357142D01*
X196702380Y-104690476D02*
X196702380Y-105357142D01*
X197702380Y-104928571D01*
X196702380Y-105928571D02*
X196702380Y-106023809D01*
X196750000Y-106119047D01*
X196797619Y-106166666D01*
X196892857Y-106214285D01*
X197083333Y-106261904D01*
X197321428Y-106261904D01*
X197511904Y-106214285D01*
X197607142Y-106166666D01*
X197654761Y-106119047D01*
X197702380Y-106023809D01*
X197702380Y-105928571D01*
X197654761Y-105833333D01*
X197607142Y-105785714D01*
X197511904Y-105738095D01*
X197321428Y-105690476D01*
X197083333Y-105690476D01*
X196892857Y-105738095D01*
X196797619Y-105785714D01*
X196750000Y-105833333D01*
X196702380Y-105928571D01*
X236607142Y-104357142D02*
X236654761Y-104309523D01*
X236702380Y-104166666D01*
X236702380Y-104071428D01*
X236654761Y-103928571D01*
X236559523Y-103833333D01*
X236464285Y-103785714D01*
X236273809Y-103738095D01*
X236130952Y-103738095D01*
X235940476Y-103785714D01*
X235845238Y-103833333D01*
X235750000Y-103928571D01*
X235702380Y-104071428D01*
X235702380Y-104166666D01*
X235750000Y-104309523D01*
X235797619Y-104357142D01*
X235702380Y-104690476D02*
X235702380Y-105357142D01*
X236702380Y-104928571D01*
X236702380Y-106261904D02*
X236702380Y-105690476D01*
X236702380Y-105976190D02*
X235702380Y-105976190D01*
X235845238Y-105880952D01*
X235940476Y-105785714D01*
X235988095Y-105690476D01*
D15*
X211050142Y-54475142D02*
X211097761Y-54427523D01*
X211145380Y-54284666D01*
X211145380Y-54189428D01*
X211097761Y-54046571D01*
X211002523Y-53951333D01*
X210907285Y-53903714D01*
X210716809Y-53856095D01*
X210573952Y-53856095D01*
X210383476Y-53903714D01*
X210288238Y-53951333D01*
X210193000Y-54046571D01*
X210145380Y-54189428D01*
X210145380Y-54284666D01*
X210193000Y-54427523D01*
X210240619Y-54475142D01*
X210145380Y-54808476D02*
X210145380Y-55475142D01*
X211145380Y-55046571D01*
X210240619Y-55808476D02*
X210193000Y-55856095D01*
X210145380Y-55951333D01*
X210145380Y-56189428D01*
X210193000Y-56284666D01*
X210240619Y-56332285D01*
X210335857Y-56379904D01*
X210431095Y-56379904D01*
X210573952Y-56332285D01*
X211145380Y-55760857D01*
X211145380Y-56379904D01*
X222099142Y-64889142D02*
X222146761Y-64841523D01*
X222194380Y-64698666D01*
X222194380Y-64603428D01*
X222146761Y-64460571D01*
X222051523Y-64365333D01*
X221956285Y-64317714D01*
X221765809Y-64270095D01*
X221622952Y-64270095D01*
X221432476Y-64317714D01*
X221337238Y-64365333D01*
X221242000Y-64460571D01*
X221194380Y-64603428D01*
X221194380Y-64698666D01*
X221242000Y-64841523D01*
X221289619Y-64889142D01*
X221194380Y-65222476D02*
X221194380Y-65889142D01*
X222194380Y-65460571D01*
X221194380Y-66174857D02*
X221194380Y-66793904D01*
X221575333Y-66460571D01*
X221575333Y-66603428D01*
X221622952Y-66698666D01*
X221670571Y-66746285D01*
X221765809Y-66793904D01*
X222003904Y-66793904D01*
X222099142Y-66746285D01*
X222146761Y-66698666D01*
X222194380Y-66603428D01*
X222194380Y-66317714D01*
X222146761Y-66222476D01*
X222099142Y-66174857D01*
X208891142Y-67607142D02*
X208938761Y-67559523D01*
X208986380Y-67416666D01*
X208986380Y-67321428D01*
X208938761Y-67178571D01*
X208843523Y-67083333D01*
X208748285Y-67035714D01*
X208557809Y-66988095D01*
X208414952Y-66988095D01*
X208224476Y-67035714D01*
X208129238Y-67083333D01*
X208034000Y-67178571D01*
X207986380Y-67321428D01*
X207986380Y-67416666D01*
X208034000Y-67559523D01*
X208081619Y-67607142D01*
X207986380Y-67940476D02*
X207986380Y-68607142D01*
X208986380Y-68178571D01*
X208319714Y-69416666D02*
X208986380Y-69416666D01*
X207938761Y-69178571D02*
X208653047Y-68940476D01*
X208653047Y-69559523D01*
X221972142Y-77335142D02*
X222019761Y-77287523D01*
X222067380Y-77144666D01*
X222067380Y-77049428D01*
X222019761Y-76906571D01*
X221924523Y-76811333D01*
X221829285Y-76763714D01*
X221638809Y-76716095D01*
X221495952Y-76716095D01*
X221305476Y-76763714D01*
X221210238Y-76811333D01*
X221115000Y-76906571D01*
X221067380Y-77049428D01*
X221067380Y-77144666D01*
X221115000Y-77287523D01*
X221162619Y-77335142D01*
X221067380Y-77668476D02*
X221067380Y-78335142D01*
X222067380Y-77906571D01*
X221067380Y-79192285D02*
X221067380Y-78716095D01*
X221543571Y-78668476D01*
X221495952Y-78716095D01*
X221448333Y-78811333D01*
X221448333Y-79049428D01*
X221495952Y-79144666D01*
X221543571Y-79192285D01*
X221638809Y-79239904D01*
X221876904Y-79239904D01*
X221972142Y-79192285D01*
X222019761Y-79144666D01*
X222067380Y-79049428D01*
X222067380Y-78811333D01*
X222019761Y-78716095D01*
X221972142Y-78668476D01*
M02*
