M48
; DRILL file {KiCad (5.1.6)-1} date 09/10/20 04:38:35
; FORMAT={-:-/ absolute / metric / decimal}
; #@! TF.CreationDate,2020-09-10T04:38:35+10:00
; #@! TF.GenerationSoftware,Kicad,Pcbnew,(5.1.6)-1
FMAT,2
METRIC
T1C0.381
T2C0.500
T3C0.600
T4C0.800
T5C1.000
T6C1.100
T7C2.600
T8C3.200
%
G90
G05
T1
X462.25Y29.0
X462.25Y29.0
X462.25Y29.0
X462.25Y29.0
X462.25Y29.0
T2
X241.16Y-37.5
T3
X26.343Y-33.286
X26.4Y-46.4
X26.4Y-59.4
X26.497Y-72.792
X33.0Y-39.0
X33.0Y-52.0
X34.469Y-76.469
X35.4Y-78.7
X35.6Y-65.6
X47.8Y-33.0
X51.9Y-55.2
X51.9Y-58.695
X51.9Y-60.352
X51.9Y-66.2
X52.8Y-59.505
X58.9Y-65.0
X62.0Y-26.9
X63.854Y-28.854
X63.854Y-31.626
X65.2Y-56.2
X65.2Y-57.5
X65.2Y-60.0
X65.2Y-62.5
X65.4Y-24.5
X66.4Y-35.9
X66.741Y-51.567
X66.98Y-42.52
X67.0Y-45.06
X67.0Y-47.0
X67.062Y-48.7
X68.5Y-35.9
X71.2Y-48.7
X71.203Y-51.567
X73.8Y-25.7
X74.0Y-28.6
X74.6Y-26.879
X74.6Y-68.1
X74.7Y-31.6
X75.9Y-49.7
X75.9Y-51.3
X76.539Y-48.741
X76.8Y-37.0
X76.931Y-50.521
X86.794Y-32.794
X87.0Y-26.3
X87.0Y-25.1
X87.0Y-27.5
X89.6Y-65.0
X98.0Y-67.4
X101.294Y-32.794
X101.4Y-49.7
X101.4Y-51.4
X102.182Y-48.841
X102.2Y-46.5
X102.263Y-50.55
X104.1Y-68.6
X105.0Y-31.5
X105.8Y-60.1
X105.853Y-45.585
X106.666Y-50.492
X106.705Y-48.933
X106.8Y-77.772
X106.9Y-75.3
X107.6Y-51.238
X107.6Y-49.679
X108.3Y-60.0
X108.3Y-62.4
X109.022Y-75.2
X111.899Y-75.201
X113.3Y-32.2
X125.3Y-37.1
X125.4Y-32.7
X126.3Y-51.791
X126.3Y-47.9
X126.4Y-39.6
X128.6Y-66.3
X128.6Y-64.5
X128.9Y-59.5
X130.1Y-60.4
X130.1Y-58.7
X136.9Y-67.4
X139.9Y-27.2
X141.4Y-33.5
X142.367Y-45.833
X143.5Y-44.967
X143.5Y-47.4
X144.1Y-55.4
X144.1Y-58.1
X144.1Y-60.0
X144.1Y-62.6
X144.102Y-56.552
X146.0Y-65.7
X146.9Y-46.0
X146.998Y-44.852
X147.1Y-42.086
X147.694Y-36.583
X148.0Y-65.7
X149.026Y-26.485
X149.78Y-36.373
X150.5Y-54.8
X150.7Y-45.9
X152.7Y-65.6
X153.0Y-48.0
X153.0Y-45.4
X153.0Y-50.5
X153.007Y-49.247
X153.009Y-51.852
X154.2Y-25.7
X154.2Y-28.2
X154.3Y-32.467
X154.389Y-29.714
X155.73Y-33.26
X156.5Y-43.5
X158.329Y-33.189
X164.8Y-26.7
X164.8Y-24.3
X164.8Y-25.5
X164.9Y-36.8
X174.423Y-49.521
X176.0Y-67.4
X179.0Y-27.0
X180.2Y-51.0
X180.2Y-53.8
X181.4Y-51.0
X181.4Y-53.8
X181.7Y-30.4
X183.044Y-47.3
X183.5Y-40.5
X183.9Y-58.9
X184.6Y-61.4
X184.6Y-67.2
X184.609Y-69.3
X184.632Y-28.558
X185.009Y-47.491
X185.1Y-25.4
X185.101Y-40.499
X185.2Y-32.4
X185.35Y-50.65
X185.4Y-35.4
X185.595Y-27.8
X186.305Y-37.467
X186.5Y-44.2
X186.5Y-48.7
X187.1Y-36.6
X187.4Y-41.7
X187.401Y-62.601
X188.2Y-69.334
X189.911Y-53.0
X190.013Y-30.153
X190.315Y-48.302
X190.333Y-43.841
X190.621Y-49.414
X190.7Y-39.9
X190.7Y-46.9
X191.2Y-42.4
X191.2Y-44.6
X191.2Y-53.0
X192.1Y-27.5
X192.1Y-35.0
X192.559Y-52.559
X192.9Y-43.7
X193.9Y-44.5
X195.7Y-49.4
X195.8Y-32.8
X202.8Y-28.0
X202.801Y-36.501
X206.144Y-53.456
X206.239Y-79.139
X206.3Y-70.5
X206.475Y-66.319
X206.5Y-64.913
X207.322Y-39.105
X207.491Y-36.241
X207.5Y-37.8
X208.1Y-47.5
X208.1Y-50.7
X209.9Y-78.4
X210.0Y-72.7
X210.2Y-60.9
X210.7Y-75.9
X210.763Y-28.001
X211.223Y-59.008
X211.259Y-57.843
X211.292Y-55.422
X211.292Y-56.656
X211.44Y-51.997
X211.47Y-38.66
X211.474Y-35.917
X211.501Y-37.508
X211.6Y-34.3
X211.63Y-46.706
X212.152Y-51.091
X212.701Y-47.133
X214.0Y-52.8
X214.432Y-60.996
X214.7Y-67.9
X214.7Y-76.5
X214.901Y-74.001
X215.4Y-79.6
X216.215Y-80.415
X216.3Y-67.8
X217.159Y-79.561
X217.28Y-62.399
X217.954Y-61.463
X218.0Y-48.3
X218.864Y-62.17
X219.245Y-63.301
X220.9Y-48.3
X222.3Y-22.9
X223.084Y-58.584
X223.1Y-59.8
X223.4Y-62.9
X223.4Y-64.252
X223.4Y-65.5
X223.4Y-66.7
X226.967Y-27.041
X226.999Y-57.864
X227.0Y-59.016
X228.5Y-28.6
X228.6Y-24.1
X230.7Y-28.5
X231.0Y-24.6
X231.668Y-59.127
X235.067Y-27.133
X236.133Y-62.333
X236.289Y-63.475
X236.9Y-24.1
X238.923Y-63.0
X239.8Y-50.6
X240.2Y-55.5
X240.8Y-49.8
X242.495Y-63.028
X242.579Y-61.3
X242.833Y-27.133
X243.797Y-47.021
X244.9Y-47.7
X244.901Y-50.599
X246.0Y-49.8
T4
X206.0Y-25.5
X206.0Y-30.5
X28.5Y-56.5
X28.5Y-61.5
X243.0Y-53.0
X243.0Y-58.0
X28.5Y-43.5
X28.5Y-48.5
X28.5Y-69.5
X28.5Y-74.5
X28.5Y-30.5
X28.5Y-35.5
T5
X96.5Y-40.19
X96.5Y-42.73
X96.5Y-45.27
X96.5Y-47.81
X45.5Y-72.69
X45.5Y-75.23
X45.5Y-77.77
X45.5Y-80.31
X239.75Y-53.25
X239.75Y-57.75
X246.25Y-53.25
X246.25Y-57.75
X130.5Y-23.0
X130.5Y-37.5
X133.0Y-37.5
X135.5Y-23.0
X135.5Y-37.5
X25.25Y-43.75
X25.25Y-48.25
X31.75Y-43.75
X31.75Y-48.25
X25.25Y-69.75
X25.25Y-74.25
X31.75Y-69.75
X31.75Y-74.25
X157.5Y-55.5
X157.5Y-70.0
X160.0Y-70.0
X162.5Y-55.5
X162.5Y-70.0
X174.5Y-40.19
X174.5Y-42.73
X174.5Y-45.27
X174.5Y-47.81
X40.5Y-55.5
X40.5Y-70.0
X43.0Y-70.0
X45.5Y-55.5
X45.5Y-70.0
X91.5Y-23.0
X91.5Y-37.5
X94.0Y-37.5
X96.5Y-23.0
X96.5Y-37.5
X118.5Y-55.5
X118.5Y-70.0
X121.0Y-70.0
X123.5Y-55.5
X123.5Y-70.0
X84.5Y-72.69
X84.5Y-75.23
X84.5Y-77.77
X84.5Y-80.31
X79.5Y-55.5
X79.5Y-70.0
X82.0Y-70.0
X84.5Y-55.5
X84.5Y-70.0
X57.5Y-40.19
X57.5Y-42.73
X57.5Y-45.27
X57.5Y-47.81
X201.5Y-72.69
X201.5Y-75.23
X201.5Y-77.77
X201.5Y-80.31
X25.25Y-30.75
X25.25Y-35.25
X31.75Y-30.75
X31.75Y-35.25
X169.5Y-23.0
X169.5Y-37.5
X172.0Y-37.5
X174.5Y-23.0
X174.5Y-37.5
X162.5Y-72.69
X162.5Y-75.23
X162.5Y-77.77
X162.5Y-80.31
X135.5Y-40.19
X135.5Y-42.73
X135.5Y-45.27
X135.5Y-47.81
X52.5Y-23.0
X52.5Y-37.5
X55.0Y-37.5
X57.5Y-23.0
X57.5Y-37.5
X123.5Y-72.69
X123.5Y-75.23
X123.5Y-77.77
X123.5Y-80.31
X202.75Y-25.75
X202.75Y-30.25
X209.25Y-25.75
X209.25Y-30.25
X196.5Y-55.5
X196.5Y-70.0
X199.0Y-70.0
X201.5Y-55.5
X201.5Y-70.0
X25.25Y-56.75
X25.25Y-61.25
X31.75Y-56.75
X31.75Y-61.25
T6
X214.49Y-29.88
X214.49Y-32.42
X214.49Y-34.96
X214.49Y-37.5
X214.49Y-40.04
X214.49Y-42.58
X214.49Y-45.12
X217.03Y-29.88
X217.03Y-37.5
X217.03Y-40.04
X217.03Y-45.12
X219.57Y-29.88
X219.57Y-37.5
X219.57Y-40.04
X219.57Y-45.12
X222.11Y-29.88
X222.11Y-37.5
X222.11Y-40.04
X222.11Y-45.12
X224.65Y-29.88
X224.65Y-37.5
X224.65Y-40.04
X224.65Y-45.12
X227.19Y-29.88
X227.19Y-37.5
X227.19Y-40.04
X227.19Y-45.12
X229.73Y-29.88
X229.73Y-37.5
X229.73Y-40.04
X229.73Y-45.12
X232.27Y-29.88
X232.27Y-37.5
X232.27Y-40.04
X232.27Y-45.12
X234.81Y-29.88
X234.81Y-42.58
X234.81Y-45.12
X237.35Y-29.88
X237.35Y-42.58
X237.35Y-45.12
X239.89Y-29.88
X239.89Y-42.58
X239.89Y-45.12
X242.43Y-29.88
X242.43Y-45.12
X244.97Y-29.88
X244.97Y-42.58
X244.97Y-45.12
X246.24Y-37.5
X246.24Y-39.532
X247.51Y-29.88
X247.51Y-45.12
T7
X127.4Y-30.0
X138.6Y-30.0
X154.4Y-62.5
X165.6Y-62.5
X37.4Y-62.5
X48.6Y-62.5
X88.4Y-30.0
X99.6Y-30.0
X115.4Y-62.5
X126.6Y-62.5
X76.4Y-62.5
X87.6Y-62.5
X166.4Y-30.0
X177.6Y-30.0
X49.4Y-30.0
X60.6Y-30.0
X193.4Y-62.5
X204.6Y-62.5
T8
X142.0Y-66.5
X23.5Y-23.5
X143.0Y-23.5
X23.5Y-81.5
X248.0Y-23.5
X248.0Y-81.5
T0
M30
