G04 #@! TF.GenerationSoftware,KiCad,Pcbnew,(5.1.6)-1*
G04 #@! TF.CreationDate,2020-09-10T04:38:29+10:00*
G04 #@! TF.ProjectId,EncoderBoard,456e636f-6465-4724-926f-6172642e6b69,C*
G04 #@! TF.SameCoordinates,Original*
G04 #@! TF.FileFunction,Copper,L1,Top*
G04 #@! TF.FilePolarity,Positive*
%FSLAX46Y46*%
G04 Gerber Fmt 4.6, Leading zero omitted, Abs format (unit mm)*
G04 Created by KiCad (PCBNEW (5.1.6)-1) date 2020-09-10 04:38:29*
%MOMM*%
%LPD*%
G01*
G04 APERTURE LIST*
G04 #@! TA.AperFunction,ComponentPad*
%ADD10C,1.500000*%
G04 #@! TD*
G04 #@! TA.AperFunction,ComponentPad*
%ADD11C,1.900000*%
G04 #@! TD*
G04 #@! TA.AperFunction,SMDPad,CuDef*
%ADD12O,1.500000X0.900000*%
G04 #@! TD*
G04 #@! TA.AperFunction,SMDPad,CuDef*
%ADD13R,1.500000X0.900000*%
G04 #@! TD*
G04 #@! TA.AperFunction,ComponentPad*
%ADD14O,2.400000X1.500000*%
G04 #@! TD*
G04 #@! TA.AperFunction,ComponentPad*
%ADD15R,2.400000X1.500000*%
G04 #@! TD*
G04 #@! TA.AperFunction,ComponentPad*
%ADD16C,2.000000*%
G04 #@! TD*
G04 #@! TA.AperFunction,ComponentPad*
%ADD17C,3.200000*%
G04 #@! TD*
G04 #@! TA.AperFunction,ComponentPad*
%ADD18R,2.000000X2.000000*%
G04 #@! TD*
G04 #@! TA.AperFunction,ComponentPad*
%ADD19C,1.600000*%
G04 #@! TD*
G04 #@! TA.AperFunction,ComponentPad*
%ADD20R,1.600000X1.600000*%
G04 #@! TD*
G04 #@! TA.AperFunction,SMDPad,CuDef*
%ADD21R,1.500000X0.450000*%
G04 #@! TD*
G04 #@! TA.AperFunction,SMDPad,CuDef*
%ADD22O,1.500000X0.450000*%
G04 #@! TD*
G04 #@! TA.AperFunction,ViaPad*
%ADD23C,0.762000*%
G04 #@! TD*
G04 #@! TA.AperFunction,ViaPad*
%ADD24C,1.000000*%
G04 #@! TD*
G04 #@! TA.AperFunction,Conductor*
%ADD25C,0.762000*%
G04 #@! TD*
G04 #@! TA.AperFunction,Conductor*
%ADD26C,0.381000*%
G04 #@! TD*
G04 #@! TA.AperFunction,Conductor*
%ADD27C,0.508000*%
G04 #@! TD*
G04 #@! TA.AperFunction,Conductor*
%ADD28C,0.254000*%
G04 #@! TD*
G04 #@! TA.AperFunction,Conductor*
%ADD29C,0.304800*%
G04 #@! TD*
G04 APERTURE END LIST*
D10*
X243000000Y-53000000D03*
X243000000Y-58000000D03*
D11*
X246250000Y-57750000D03*
X239750000Y-57750000D03*
X246250000Y-53250000D03*
X239750000Y-53250000D03*
D10*
X206000000Y-25500000D03*
X206000000Y-30500000D03*
D11*
X209250000Y-30250000D03*
X202750000Y-30250000D03*
X209250000Y-25750000D03*
X202750000Y-25750000D03*
D10*
X28500000Y-30500000D03*
X28500000Y-35500000D03*
D11*
X31750000Y-35250000D03*
X25250000Y-35250000D03*
X31750000Y-30750000D03*
X25250000Y-30750000D03*
D10*
X28500000Y-43500000D03*
X28500000Y-48500000D03*
D11*
X31750000Y-48250000D03*
X25250000Y-48250000D03*
X31750000Y-43750000D03*
X25250000Y-43750000D03*
D10*
X28500000Y-56500000D03*
X28500000Y-61500000D03*
D11*
X31750000Y-61250000D03*
X25250000Y-61250000D03*
X31750000Y-56750000D03*
X25250000Y-56750000D03*
D10*
X28500000Y-69500000D03*
X28500000Y-74500000D03*
D11*
X31750000Y-74250000D03*
X25250000Y-74250000D03*
X31750000Y-69750000D03*
X25250000Y-69750000D03*
D12*
X214950000Y-66150000D03*
X214950000Y-62850000D03*
X210050000Y-66150000D03*
D13*
X210050000Y-62850000D03*
D14*
X174500000Y-47810000D03*
X174500000Y-45270000D03*
X174500000Y-42730000D03*
D15*
X174500000Y-40190000D03*
D16*
X45500000Y-55500000D03*
X40500000Y-55500000D03*
D17*
X48600000Y-62500000D03*
X37400000Y-62500000D03*
D16*
X45500000Y-70000000D03*
X43000000Y-70000000D03*
D18*
X40500000Y-70000000D03*
D16*
X57500000Y-23000000D03*
X52500000Y-23000000D03*
D17*
X60600000Y-30000000D03*
X49400000Y-30000000D03*
D16*
X57500000Y-37500000D03*
X55000000Y-37500000D03*
D18*
X52500000Y-37500000D03*
D16*
X96500000Y-23000000D03*
X91500000Y-23000000D03*
D17*
X99600000Y-30000000D03*
X88400000Y-30000000D03*
D16*
X96500000Y-37500000D03*
X94000000Y-37500000D03*
D18*
X91500000Y-37500000D03*
D16*
X135500000Y-23000000D03*
X130500000Y-23000000D03*
D17*
X138600000Y-30000000D03*
X127400000Y-30000000D03*
D16*
X135500000Y-37500000D03*
X133000000Y-37500000D03*
D18*
X130500000Y-37500000D03*
D16*
X174500000Y-23000000D03*
X169500000Y-23000000D03*
D17*
X177600000Y-30000000D03*
X166400000Y-30000000D03*
D16*
X174500000Y-37500000D03*
X172000000Y-37500000D03*
D18*
X169500000Y-37500000D03*
D16*
X84500000Y-55500000D03*
X79500000Y-55500000D03*
D17*
X87600000Y-62500000D03*
X76400000Y-62500000D03*
D16*
X84500000Y-70000000D03*
X82000000Y-70000000D03*
D18*
X79500000Y-70000000D03*
D16*
X123500000Y-55500000D03*
X118500000Y-55500000D03*
D17*
X126600000Y-62500000D03*
X115400000Y-62500000D03*
D16*
X123500000Y-70000000D03*
X121000000Y-70000000D03*
D18*
X118500000Y-70000000D03*
D16*
X162500000Y-55500000D03*
X157500000Y-55500000D03*
D17*
X165600000Y-62500000D03*
X154400000Y-62500000D03*
D16*
X162500000Y-70000000D03*
X160000000Y-70000000D03*
D18*
X157500000Y-70000000D03*
D16*
X201500000Y-55500000D03*
X196500000Y-55500000D03*
D17*
X204600000Y-62500000D03*
X193400000Y-62500000D03*
D16*
X201500000Y-70000000D03*
X199000000Y-70000000D03*
D18*
X196500000Y-70000000D03*
G04 #@! TA.AperFunction,SMDPad,CuDef*
G36*
G01*
X182043750Y-58450000D02*
X182956250Y-58450000D01*
G75*
G02*
X183200000Y-58693750I0J-243750D01*
G01*
X183200000Y-59181250D01*
G75*
G02*
X182956250Y-59425000I-243750J0D01*
G01*
X182043750Y-59425000D01*
G75*
G02*
X181800000Y-59181250I0J243750D01*
G01*
X181800000Y-58693750D01*
G75*
G02*
X182043750Y-58450000I243750J0D01*
G01*
G37*
G04 #@! TD.AperFunction*
G04 #@! TA.AperFunction,SMDPad,CuDef*
G36*
G01*
X182043750Y-56575000D02*
X182956250Y-56575000D01*
G75*
G02*
X183200000Y-56818750I0J-243750D01*
G01*
X183200000Y-57306250D01*
G75*
G02*
X182956250Y-57550000I-243750J0D01*
G01*
X182043750Y-57550000D01*
G75*
G02*
X181800000Y-57306250I0J243750D01*
G01*
X181800000Y-56818750D01*
G75*
G02*
X182043750Y-56575000I243750J0D01*
G01*
G37*
G04 #@! TD.AperFunction*
D13*
X187950000Y-33650000D03*
D12*
X187950000Y-30350000D03*
X183050000Y-33650000D03*
X183050000Y-30350000D03*
G04 #@! TA.AperFunction,SMDPad,CuDef*
G36*
G01*
X190456250Y-33925000D02*
X189543750Y-33925000D01*
G75*
G02*
X189300000Y-33681250I0J243750D01*
G01*
X189300000Y-33193750D01*
G75*
G02*
X189543750Y-32950000I243750J0D01*
G01*
X190456250Y-32950000D01*
G75*
G02*
X190700000Y-33193750I0J-243750D01*
G01*
X190700000Y-33681250D01*
G75*
G02*
X190456250Y-33925000I-243750J0D01*
G01*
G37*
G04 #@! TD.AperFunction*
G04 #@! TA.AperFunction,SMDPad,CuDef*
G36*
G01*
X190456250Y-32050000D02*
X189543750Y-32050000D01*
G75*
G02*
X189300000Y-31806250I0J243750D01*
G01*
X189300000Y-31318750D01*
G75*
G02*
X189543750Y-31075000I243750J0D01*
G01*
X190456250Y-31075000D01*
G75*
G02*
X190700000Y-31318750I0J-243750D01*
G01*
X190700000Y-31806250D01*
G75*
G02*
X190456250Y-32050000I-243750J0D01*
G01*
G37*
G04 #@! TD.AperFunction*
D14*
X84500000Y-80310000D03*
X84500000Y-77770000D03*
X84500000Y-75230000D03*
D15*
X84500000Y-72690000D03*
D19*
X246240000Y-39532000D03*
X246240000Y-37500000D03*
D11*
X241160000Y-37500000D03*
D19*
X232270000Y-40040000D03*
X229730000Y-40040000D03*
X227190000Y-40040000D03*
X224650000Y-40040000D03*
X222110000Y-40040000D03*
X219570000Y-40040000D03*
X217030000Y-40040000D03*
X217030000Y-37500000D03*
X219570000Y-37500000D03*
X222110000Y-37500000D03*
X224650000Y-37500000D03*
X227190000Y-37500000D03*
X229730000Y-37500000D03*
X232270000Y-37500000D03*
D20*
X247510000Y-29880000D03*
D19*
X244970000Y-29880000D03*
X242430000Y-29880000D03*
X239890000Y-29880000D03*
X237350000Y-29880000D03*
X234810000Y-29880000D03*
X232270000Y-29880000D03*
X229730000Y-29880000D03*
X227190000Y-29880000D03*
X224650000Y-29880000D03*
X222110000Y-29880000D03*
X219570000Y-29880000D03*
X217030000Y-29880000D03*
X234810000Y-42580000D03*
X237350000Y-42580000D03*
X239890000Y-42580000D03*
X244970000Y-42580000D03*
X247510000Y-45120000D03*
X244970000Y-45120000D03*
X242430000Y-45120000D03*
X239890000Y-45120000D03*
X237350000Y-45120000D03*
X234810000Y-45120000D03*
X232270000Y-45120000D03*
X229730000Y-45120000D03*
X227190000Y-45120000D03*
X224650000Y-45120000D03*
X222110000Y-45120000D03*
X219570000Y-45120000D03*
X217030000Y-45120000D03*
X214490000Y-29880000D03*
X214490000Y-32420000D03*
X214490000Y-34960000D03*
X214490000Y-45120000D03*
X214490000Y-42580000D03*
X214490000Y-40040000D03*
X214490000Y-37500000D03*
D12*
X220550000Y-22850000D03*
X220550000Y-26150000D03*
X225450000Y-22850000D03*
D13*
X225450000Y-26150000D03*
D12*
X228550000Y-22850000D03*
X228550000Y-26150000D03*
X233450000Y-22850000D03*
D13*
X233450000Y-26150000D03*
D12*
X236550000Y-22850000D03*
X236550000Y-26150000D03*
X241450000Y-22850000D03*
D13*
X241450000Y-26150000D03*
D12*
X175950000Y-66150000D03*
X175950000Y-62850000D03*
X171050000Y-66150000D03*
D13*
X171050000Y-62850000D03*
D12*
X136950000Y-66150000D03*
X136950000Y-62850000D03*
X132050000Y-66150000D03*
D13*
X132050000Y-62850000D03*
D12*
X97950000Y-66150000D03*
X97950000Y-62850000D03*
X93050000Y-66150000D03*
D13*
X93050000Y-62850000D03*
D12*
X58950000Y-66150000D03*
X58950000Y-62850000D03*
X54050000Y-66150000D03*
D13*
X54050000Y-62850000D03*
X70950000Y-33650000D03*
D12*
X70950000Y-30350000D03*
X66050000Y-33650000D03*
X66050000Y-30350000D03*
D13*
X109950000Y-33650000D03*
D12*
X109950000Y-30350000D03*
X105050000Y-33650000D03*
X105050000Y-30350000D03*
D13*
X148950000Y-33650000D03*
D12*
X148950000Y-30350000D03*
X144050000Y-33650000D03*
X144050000Y-30350000D03*
G04 #@! TA.AperFunction,SMDPad,CuDef*
G36*
G01*
X106550000Y-58043750D02*
X106550000Y-58956250D01*
G75*
G02*
X106306250Y-59200000I-243750J0D01*
G01*
X105818750Y-59200000D01*
G75*
G02*
X105575000Y-58956250I0J243750D01*
G01*
X105575000Y-58043750D01*
G75*
G02*
X105818750Y-57800000I243750J0D01*
G01*
X106306250Y-57800000D01*
G75*
G02*
X106550000Y-58043750I0J-243750D01*
G01*
G37*
G04 #@! TD.AperFunction*
G04 #@! TA.AperFunction,SMDPad,CuDef*
G36*
G01*
X108425000Y-58043750D02*
X108425000Y-58956250D01*
G75*
G02*
X108181250Y-59200000I-243750J0D01*
G01*
X107693750Y-59200000D01*
G75*
G02*
X107450000Y-58956250I0J243750D01*
G01*
X107450000Y-58043750D01*
G75*
G02*
X107693750Y-57800000I243750J0D01*
G01*
X108181250Y-57800000D01*
G75*
G02*
X108425000Y-58043750I0J-243750D01*
G01*
G37*
G04 #@! TD.AperFunction*
G04 #@! TA.AperFunction,SMDPad,CuDef*
G36*
G01*
X106225000Y-54425000D02*
X106225000Y-56575000D01*
G75*
G02*
X105975000Y-56825000I-250000J0D01*
G01*
X105225000Y-56825000D01*
G75*
G02*
X104975000Y-56575000I0J250000D01*
G01*
X104975000Y-54425000D01*
G75*
G02*
X105225000Y-54175000I250000J0D01*
G01*
X105975000Y-54175000D01*
G75*
G02*
X106225000Y-54425000I0J-250000D01*
G01*
G37*
G04 #@! TD.AperFunction*
G04 #@! TA.AperFunction,SMDPad,CuDef*
G36*
G01*
X109025000Y-54425000D02*
X109025000Y-56575000D01*
G75*
G02*
X108775000Y-56825000I-250000J0D01*
G01*
X108025000Y-56825000D01*
G75*
G02*
X107775000Y-56575000I0J250000D01*
G01*
X107775000Y-54425000D01*
G75*
G02*
X108025000Y-54175000I250000J0D01*
G01*
X108775000Y-54175000D01*
G75*
G02*
X109025000Y-54425000I0J-250000D01*
G01*
G37*
G04 #@! TD.AperFunction*
G04 #@! TA.AperFunction,SMDPad,CuDef*
G36*
G01*
X185550000Y-58043750D02*
X185550000Y-58956250D01*
G75*
G02*
X185306250Y-59200000I-243750J0D01*
G01*
X184818750Y-59200000D01*
G75*
G02*
X184575000Y-58956250I0J243750D01*
G01*
X184575000Y-58043750D01*
G75*
G02*
X184818750Y-57800000I243750J0D01*
G01*
X185306250Y-57800000D01*
G75*
G02*
X185550000Y-58043750I0J-243750D01*
G01*
G37*
G04 #@! TD.AperFunction*
G04 #@! TA.AperFunction,SMDPad,CuDef*
G36*
G01*
X187425000Y-58043750D02*
X187425000Y-58956250D01*
G75*
G02*
X187181250Y-59200000I-243750J0D01*
G01*
X186693750Y-59200000D01*
G75*
G02*
X186450000Y-58956250I0J243750D01*
G01*
X186450000Y-58043750D01*
G75*
G02*
X186693750Y-57800000I243750J0D01*
G01*
X187181250Y-57800000D01*
G75*
G02*
X187425000Y-58043750I0J-243750D01*
G01*
G37*
G04 #@! TD.AperFunction*
G04 #@! TA.AperFunction,SMDPad,CuDef*
G36*
G01*
X185225000Y-54425000D02*
X185225000Y-56575000D01*
G75*
G02*
X184975000Y-56825000I-250000J0D01*
G01*
X184225000Y-56825000D01*
G75*
G02*
X183975000Y-56575000I0J250000D01*
G01*
X183975000Y-54425000D01*
G75*
G02*
X184225000Y-54175000I250000J0D01*
G01*
X184975000Y-54175000D01*
G75*
G02*
X185225000Y-54425000I0J-250000D01*
G01*
G37*
G04 #@! TD.AperFunction*
G04 #@! TA.AperFunction,SMDPad,CuDef*
G36*
G01*
X188025000Y-54425000D02*
X188025000Y-56575000D01*
G75*
G02*
X187775000Y-56825000I-250000J0D01*
G01*
X187025000Y-56825000D01*
G75*
G02*
X186775000Y-56575000I0J250000D01*
G01*
X186775000Y-54425000D01*
G75*
G02*
X187025000Y-54175000I250000J0D01*
G01*
X187775000Y-54175000D01*
G75*
G02*
X188025000Y-54425000I0J-250000D01*
G01*
G37*
G04 #@! TD.AperFunction*
G04 #@! TA.AperFunction,SMDPad,CuDef*
G36*
G01*
X207543750Y-64450000D02*
X208456250Y-64450000D01*
G75*
G02*
X208700000Y-64693750I0J-243750D01*
G01*
X208700000Y-65181250D01*
G75*
G02*
X208456250Y-65425000I-243750J0D01*
G01*
X207543750Y-65425000D01*
G75*
G02*
X207300000Y-65181250I0J243750D01*
G01*
X207300000Y-64693750D01*
G75*
G02*
X207543750Y-64450000I243750J0D01*
G01*
G37*
G04 #@! TD.AperFunction*
G04 #@! TA.AperFunction,SMDPad,CuDef*
G36*
G01*
X207543750Y-62575000D02*
X208456250Y-62575000D01*
G75*
G02*
X208700000Y-62818750I0J-243750D01*
G01*
X208700000Y-63306250D01*
G75*
G02*
X208456250Y-63550000I-243750J0D01*
G01*
X207543750Y-63550000D01*
G75*
G02*
X207300000Y-63306250I0J243750D01*
G01*
X207300000Y-62818750D01*
G75*
G02*
X207543750Y-62575000I243750J0D01*
G01*
G37*
G04 #@! TD.AperFunction*
G04 #@! TA.AperFunction,SMDPad,CuDef*
G36*
G01*
X168543750Y-64450000D02*
X169456250Y-64450000D01*
G75*
G02*
X169700000Y-64693750I0J-243750D01*
G01*
X169700000Y-65181250D01*
G75*
G02*
X169456250Y-65425000I-243750J0D01*
G01*
X168543750Y-65425000D01*
G75*
G02*
X168300000Y-65181250I0J243750D01*
G01*
X168300000Y-64693750D01*
G75*
G02*
X168543750Y-64450000I243750J0D01*
G01*
G37*
G04 #@! TD.AperFunction*
G04 #@! TA.AperFunction,SMDPad,CuDef*
G36*
G01*
X168543750Y-62575000D02*
X169456250Y-62575000D01*
G75*
G02*
X169700000Y-62818750I0J-243750D01*
G01*
X169700000Y-63306250D01*
G75*
G02*
X169456250Y-63550000I-243750J0D01*
G01*
X168543750Y-63550000D01*
G75*
G02*
X168300000Y-63306250I0J243750D01*
G01*
X168300000Y-62818750D01*
G75*
G02*
X168543750Y-62575000I243750J0D01*
G01*
G37*
G04 #@! TD.AperFunction*
G04 #@! TA.AperFunction,SMDPad,CuDef*
G36*
G01*
X129543750Y-64450000D02*
X130456250Y-64450000D01*
G75*
G02*
X130700000Y-64693750I0J-243750D01*
G01*
X130700000Y-65181250D01*
G75*
G02*
X130456250Y-65425000I-243750J0D01*
G01*
X129543750Y-65425000D01*
G75*
G02*
X129300000Y-65181250I0J243750D01*
G01*
X129300000Y-64693750D01*
G75*
G02*
X129543750Y-64450000I243750J0D01*
G01*
G37*
G04 #@! TD.AperFunction*
G04 #@! TA.AperFunction,SMDPad,CuDef*
G36*
G01*
X129543750Y-62575000D02*
X130456250Y-62575000D01*
G75*
G02*
X130700000Y-62818750I0J-243750D01*
G01*
X130700000Y-63306250D01*
G75*
G02*
X130456250Y-63550000I-243750J0D01*
G01*
X129543750Y-63550000D01*
G75*
G02*
X129300000Y-63306250I0J243750D01*
G01*
X129300000Y-62818750D01*
G75*
G02*
X129543750Y-62575000I243750J0D01*
G01*
G37*
G04 #@! TD.AperFunction*
G04 #@! TA.AperFunction,SMDPad,CuDef*
G36*
G01*
X90543750Y-64450000D02*
X91456250Y-64450000D01*
G75*
G02*
X91700000Y-64693750I0J-243750D01*
G01*
X91700000Y-65181250D01*
G75*
G02*
X91456250Y-65425000I-243750J0D01*
G01*
X90543750Y-65425000D01*
G75*
G02*
X90300000Y-65181250I0J243750D01*
G01*
X90300000Y-64693750D01*
G75*
G02*
X90543750Y-64450000I243750J0D01*
G01*
G37*
G04 #@! TD.AperFunction*
G04 #@! TA.AperFunction,SMDPad,CuDef*
G36*
G01*
X90543750Y-62575000D02*
X91456250Y-62575000D01*
G75*
G02*
X91700000Y-62818750I0J-243750D01*
G01*
X91700000Y-63306250D01*
G75*
G02*
X91456250Y-63550000I-243750J0D01*
G01*
X90543750Y-63550000D01*
G75*
G02*
X90300000Y-63306250I0J243750D01*
G01*
X90300000Y-62818750D01*
G75*
G02*
X90543750Y-62575000I243750J0D01*
G01*
G37*
G04 #@! TD.AperFunction*
G04 #@! TA.AperFunction,SMDPad,CuDef*
G36*
G01*
X51543750Y-64450000D02*
X52456250Y-64450000D01*
G75*
G02*
X52700000Y-64693750I0J-243750D01*
G01*
X52700000Y-65181250D01*
G75*
G02*
X52456250Y-65425000I-243750J0D01*
G01*
X51543750Y-65425000D01*
G75*
G02*
X51300000Y-65181250I0J243750D01*
G01*
X51300000Y-64693750D01*
G75*
G02*
X51543750Y-64450000I243750J0D01*
G01*
G37*
G04 #@! TD.AperFunction*
G04 #@! TA.AperFunction,SMDPad,CuDef*
G36*
G01*
X51543750Y-62575000D02*
X52456250Y-62575000D01*
G75*
G02*
X52700000Y-62818750I0J-243750D01*
G01*
X52700000Y-63306250D01*
G75*
G02*
X52456250Y-63550000I-243750J0D01*
G01*
X51543750Y-63550000D01*
G75*
G02*
X51300000Y-63306250I0J243750D01*
G01*
X51300000Y-62818750D01*
G75*
G02*
X51543750Y-62575000I243750J0D01*
G01*
G37*
G04 #@! TD.AperFunction*
G04 #@! TA.AperFunction,SMDPad,CuDef*
G36*
G01*
X73456250Y-33925000D02*
X72543750Y-33925000D01*
G75*
G02*
X72300000Y-33681250I0J243750D01*
G01*
X72300000Y-33193750D01*
G75*
G02*
X72543750Y-32950000I243750J0D01*
G01*
X73456250Y-32950000D01*
G75*
G02*
X73700000Y-33193750I0J-243750D01*
G01*
X73700000Y-33681250D01*
G75*
G02*
X73456250Y-33925000I-243750J0D01*
G01*
G37*
G04 #@! TD.AperFunction*
G04 #@! TA.AperFunction,SMDPad,CuDef*
G36*
G01*
X73456250Y-32050000D02*
X72543750Y-32050000D01*
G75*
G02*
X72300000Y-31806250I0J243750D01*
G01*
X72300000Y-31318750D01*
G75*
G02*
X72543750Y-31075000I243750J0D01*
G01*
X73456250Y-31075000D01*
G75*
G02*
X73700000Y-31318750I0J-243750D01*
G01*
X73700000Y-31806250D01*
G75*
G02*
X73456250Y-32050000I-243750J0D01*
G01*
G37*
G04 #@! TD.AperFunction*
G04 #@! TA.AperFunction,SMDPad,CuDef*
G36*
G01*
X112456250Y-33925000D02*
X111543750Y-33925000D01*
G75*
G02*
X111300000Y-33681250I0J243750D01*
G01*
X111300000Y-33193750D01*
G75*
G02*
X111543750Y-32950000I243750J0D01*
G01*
X112456250Y-32950000D01*
G75*
G02*
X112700000Y-33193750I0J-243750D01*
G01*
X112700000Y-33681250D01*
G75*
G02*
X112456250Y-33925000I-243750J0D01*
G01*
G37*
G04 #@! TD.AperFunction*
G04 #@! TA.AperFunction,SMDPad,CuDef*
G36*
G01*
X112456250Y-32050000D02*
X111543750Y-32050000D01*
G75*
G02*
X111300000Y-31806250I0J243750D01*
G01*
X111300000Y-31318750D01*
G75*
G02*
X111543750Y-31075000I243750J0D01*
G01*
X112456250Y-31075000D01*
G75*
G02*
X112700000Y-31318750I0J-243750D01*
G01*
X112700000Y-31806250D01*
G75*
G02*
X112456250Y-32050000I-243750J0D01*
G01*
G37*
G04 #@! TD.AperFunction*
G04 #@! TA.AperFunction,SMDPad,CuDef*
G36*
G01*
X151456250Y-33925000D02*
X150543750Y-33925000D01*
G75*
G02*
X150300000Y-33681250I0J243750D01*
G01*
X150300000Y-33193750D01*
G75*
G02*
X150543750Y-32950000I243750J0D01*
G01*
X151456250Y-32950000D01*
G75*
G02*
X151700000Y-33193750I0J-243750D01*
G01*
X151700000Y-33681250D01*
G75*
G02*
X151456250Y-33925000I-243750J0D01*
G01*
G37*
G04 #@! TD.AperFunction*
G04 #@! TA.AperFunction,SMDPad,CuDef*
G36*
G01*
X151456250Y-32050000D02*
X150543750Y-32050000D01*
G75*
G02*
X150300000Y-31806250I0J243750D01*
G01*
X150300000Y-31318750D01*
G75*
G02*
X150543750Y-31075000I243750J0D01*
G01*
X151456250Y-31075000D01*
G75*
G02*
X151700000Y-31318750I0J-243750D01*
G01*
X151700000Y-31806250D01*
G75*
G02*
X151456250Y-32050000I-243750J0D01*
G01*
G37*
G04 #@! TD.AperFunction*
G04 #@! TA.AperFunction,SMDPad,CuDef*
G36*
G01*
X231550000Y-49043750D02*
X231550000Y-49956250D01*
G75*
G02*
X231306250Y-50200000I-243750J0D01*
G01*
X230818750Y-50200000D01*
G75*
G02*
X230575000Y-49956250I0J243750D01*
G01*
X230575000Y-49043750D01*
G75*
G02*
X230818750Y-48800000I243750J0D01*
G01*
X231306250Y-48800000D01*
G75*
G02*
X231550000Y-49043750I0J-243750D01*
G01*
G37*
G04 #@! TD.AperFunction*
G04 #@! TA.AperFunction,SMDPad,CuDef*
G36*
G01*
X233425000Y-49043750D02*
X233425000Y-49956250D01*
G75*
G02*
X233181250Y-50200000I-243750J0D01*
G01*
X232693750Y-50200000D01*
G75*
G02*
X232450000Y-49956250I0J243750D01*
G01*
X232450000Y-49043750D01*
G75*
G02*
X232693750Y-48800000I243750J0D01*
G01*
X233181250Y-48800000D01*
G75*
G02*
X233425000Y-49043750I0J-243750D01*
G01*
G37*
G04 #@! TD.AperFunction*
G04 #@! TA.AperFunction,SMDPad,CuDef*
G36*
G01*
X230550000Y-47043750D02*
X230550000Y-47956250D01*
G75*
G02*
X230306250Y-48200000I-243750J0D01*
G01*
X229818750Y-48200000D01*
G75*
G02*
X229575000Y-47956250I0J243750D01*
G01*
X229575000Y-47043750D01*
G75*
G02*
X229818750Y-46800000I243750J0D01*
G01*
X230306250Y-46800000D01*
G75*
G02*
X230550000Y-47043750I0J-243750D01*
G01*
G37*
G04 #@! TD.AperFunction*
G04 #@! TA.AperFunction,SMDPad,CuDef*
G36*
G01*
X232425000Y-47043750D02*
X232425000Y-47956250D01*
G75*
G02*
X232181250Y-48200000I-243750J0D01*
G01*
X231693750Y-48200000D01*
G75*
G02*
X231450000Y-47956250I0J243750D01*
G01*
X231450000Y-47043750D01*
G75*
G02*
X231693750Y-46800000I243750J0D01*
G01*
X232181250Y-46800000D01*
G75*
G02*
X232425000Y-47043750I0J-243750D01*
G01*
G37*
G04 #@! TD.AperFunction*
D21*
X104100000Y-60425000D03*
D22*
X104100000Y-61075000D03*
X104100000Y-61725000D03*
X104100000Y-62375000D03*
X104100000Y-63025000D03*
X104100000Y-63675000D03*
X104100000Y-64325000D03*
X104100000Y-64975000D03*
X104100000Y-65625000D03*
X104100000Y-66275000D03*
X104100000Y-66925000D03*
X104100000Y-67575000D03*
X109900000Y-67575000D03*
X109900000Y-66925000D03*
X109900000Y-66275000D03*
X109900000Y-65625000D03*
X109900000Y-64975000D03*
X109900000Y-64325000D03*
X109900000Y-63675000D03*
X109900000Y-63025000D03*
X109900000Y-62375000D03*
X109900000Y-61725000D03*
X109900000Y-61075000D03*
X109900000Y-60425000D03*
D21*
X183100000Y-60425000D03*
D22*
X183100000Y-61075000D03*
X183100000Y-61725000D03*
X183100000Y-62375000D03*
X183100000Y-63025000D03*
X183100000Y-63675000D03*
X183100000Y-64325000D03*
X183100000Y-64975000D03*
X183100000Y-65625000D03*
X183100000Y-66275000D03*
X183100000Y-66925000D03*
X183100000Y-67575000D03*
X188900000Y-67575000D03*
X188900000Y-66925000D03*
X188900000Y-66275000D03*
X188900000Y-65625000D03*
X188900000Y-64975000D03*
X188900000Y-64325000D03*
X188900000Y-63675000D03*
X188900000Y-63025000D03*
X188900000Y-62375000D03*
X188900000Y-61725000D03*
X188900000Y-61075000D03*
X188900000Y-60425000D03*
D14*
X57500000Y-47810000D03*
X57500000Y-45270000D03*
X57500000Y-42730000D03*
D15*
X57500000Y-40190000D03*
D14*
X96500000Y-47810000D03*
X96500000Y-45270000D03*
X96500000Y-42730000D03*
D15*
X96500000Y-40190000D03*
D14*
X135500000Y-47810000D03*
X135500000Y-45270000D03*
X135500000Y-42730000D03*
D15*
X135500000Y-40190000D03*
D14*
X45500000Y-80310000D03*
X45500000Y-77770000D03*
X45500000Y-75230000D03*
D15*
X45500000Y-72690000D03*
D14*
X123500000Y-80310000D03*
X123500000Y-77770000D03*
X123500000Y-75230000D03*
D15*
X123500000Y-72690000D03*
D14*
X162500000Y-80310000D03*
X162500000Y-77770000D03*
X162500000Y-75230000D03*
D15*
X162500000Y-72690000D03*
D14*
X201500000Y-80310000D03*
X201500000Y-77770000D03*
X201500000Y-75230000D03*
D15*
X201500000Y-72690000D03*
G04 #@! TA.AperFunction,SMDPad,CuDef*
G36*
G01*
X103043750Y-56575000D02*
X103956250Y-56575000D01*
G75*
G02*
X104200000Y-56818750I0J-243750D01*
G01*
X104200000Y-57306250D01*
G75*
G02*
X103956250Y-57550000I-243750J0D01*
G01*
X103043750Y-57550000D01*
G75*
G02*
X102800000Y-57306250I0J243750D01*
G01*
X102800000Y-56818750D01*
G75*
G02*
X103043750Y-56575000I243750J0D01*
G01*
G37*
G04 #@! TD.AperFunction*
G04 #@! TA.AperFunction,SMDPad,CuDef*
G36*
G01*
X103043750Y-58450000D02*
X103956250Y-58450000D01*
G75*
G02*
X104200000Y-58693750I0J-243750D01*
G01*
X104200000Y-59181250D01*
G75*
G02*
X103956250Y-59425000I-243750J0D01*
G01*
X103043750Y-59425000D01*
G75*
G02*
X102800000Y-59181250I0J243750D01*
G01*
X102800000Y-58693750D01*
G75*
G02*
X103043750Y-58450000I243750J0D01*
G01*
G37*
G04 #@! TD.AperFunction*
D23*
X462250000Y29000000D03*
X462250000Y29000000D03*
X462250000Y29000000D03*
X462250000Y29000000D03*
X462250000Y29000000D03*
D24*
X183900000Y-58900000D03*
X104100000Y-68600000D03*
X98000000Y-67400000D03*
X176000000Y-67400000D03*
X236900000Y-24100000D03*
X105800000Y-60100000D03*
X190012820Y-30152762D03*
X108300000Y-62400000D03*
X186500000Y-48700000D03*
X185350000Y-50650000D03*
X187400000Y-41700000D03*
X191200000Y-42400000D03*
X183500000Y-40500000D03*
X185101127Y-40498873D03*
X184600000Y-61400000D03*
X184600000Y-67200000D03*
X74700000Y-31600000D03*
X183043848Y-47300000D03*
X185009071Y-47490929D03*
X230700000Y-28500000D03*
X228500000Y-28600000D03*
X136900000Y-67400000D03*
X174422545Y-49520590D03*
X195700000Y-49399994D03*
X187401127Y-62601127D03*
X187100000Y-36600000D03*
X185400000Y-35400000D03*
X150500000Y-54800000D03*
X144100000Y-55400000D03*
X146900000Y-46000000D03*
X150700000Y-45900000D03*
X156500000Y-43500000D03*
X154300000Y-32466590D03*
X142366598Y-45833402D03*
X66740947Y-51566590D03*
X71202828Y-51566590D03*
X242579410Y-61300000D03*
X242494798Y-63028199D03*
X76800000Y-36999994D03*
X222300000Y-22900000D03*
X51900000Y-66200000D03*
X58900000Y-65000000D03*
X89599998Y-65000002D03*
X128600004Y-64500000D03*
X206499996Y-64912820D03*
X214700000Y-67900000D03*
X228600000Y-24100004D03*
X141400000Y-33500000D03*
X181700016Y-30400000D03*
X185200000Y-32400000D03*
X105000008Y-31500000D03*
X113299992Y-32200000D03*
X63854024Y-28854010D03*
X63854024Y-31625657D03*
X186500000Y-44200000D03*
X108300000Y-60000000D03*
X106800000Y-77771633D03*
X106900000Y-75300000D03*
X67062500Y-48699500D03*
X71200000Y-48700000D03*
X65400000Y-24500000D03*
X149025642Y-26485256D03*
X125400000Y-32700000D03*
X26342702Y-33285821D03*
X185100000Y-25400000D03*
X153000002Y-45400000D03*
X186305200Y-37466663D03*
X206143622Y-53456420D03*
X192558609Y-52558603D03*
X144102066Y-56552410D03*
X143500000Y-47400000D03*
X65200000Y-56200000D03*
X51900000Y-55200000D03*
X26400000Y-59400000D03*
X26400000Y-46400006D03*
X231667510Y-59127190D03*
X139900000Y-27200000D03*
X62000014Y-26900000D03*
X47800000Y-33000000D03*
X35600006Y-65600000D03*
X128600000Y-66300000D03*
X152699996Y-65600000D03*
X179000000Y-27000000D03*
X101293590Y-32793590D03*
X86793586Y-32793590D03*
X216300000Y-67800000D03*
X210000000Y-72700000D03*
X206300000Y-70500000D03*
X206474928Y-66319049D03*
X164900000Y-36800000D03*
X195800000Y-32800000D03*
X74600000Y-68100009D03*
X240200000Y-55500000D03*
X202800016Y-28000000D03*
X26496518Y-72792232D03*
X235066590Y-27133410D03*
X242833390Y-27133410D03*
X202801131Y-36501123D03*
X226966578Y-27041188D03*
X208100000Y-50700000D03*
X208100000Y-47500000D03*
X126399999Y-39600000D03*
X126300000Y-51790866D03*
X126300011Y-47900009D03*
X207322407Y-39104705D03*
X125300000Y-37100000D03*
X158328901Y-33188536D03*
X155729633Y-33260152D03*
X214000000Y-52800000D03*
X210200000Y-60900000D03*
X211600000Y-34300000D03*
X236288502Y-63475338D03*
X238923140Y-62999856D03*
X184609134Y-69300000D03*
X188200000Y-69334029D03*
X148000000Y-65700000D03*
X146000000Y-65700000D03*
X109021957Y-75200000D03*
X111898643Y-75201127D03*
X180200000Y-53800000D03*
X180200000Y-51000000D03*
X181400000Y-53800000D03*
X181400000Y-51000000D03*
X184632223Y-28558298D03*
X190620590Y-49413682D03*
X189910988Y-53000000D03*
X185594717Y-27799992D03*
X190315440Y-48302405D03*
X191200000Y-53000008D03*
X66400004Y-35899996D03*
X68500000Y-35900000D03*
X147100000Y-42085590D03*
X146997593Y-44851727D03*
X147693784Y-36583220D03*
X149779659Y-36372999D03*
X66979500Y-42520500D03*
X67000000Y-45060179D03*
X153000000Y-47999996D03*
X76539243Y-48741135D03*
X102182124Y-48841189D03*
X106704923Y-48932901D03*
X223400000Y-62900000D03*
X153006917Y-49247442D03*
X75900000Y-49700000D03*
X107600000Y-49679410D03*
X101400000Y-49700000D03*
X223084265Y-58584265D03*
X223400000Y-64252413D03*
X153000016Y-50500000D03*
X76930749Y-50520590D03*
X102262543Y-50549682D03*
X106666231Y-50491713D03*
X223400000Y-65500000D03*
X153008536Y-51852380D03*
X75900000Y-51300000D03*
X107599994Y-51238221D03*
X101400000Y-51400000D03*
X223400000Y-66700000D03*
X223100000Y-59800000D03*
X67000000Y-47000000D03*
X211474114Y-35917028D03*
X192900000Y-43700000D03*
X190332722Y-43841132D03*
X207491058Y-36241188D03*
X105853409Y-45585476D03*
X102200000Y-46500000D03*
X211501274Y-37508107D03*
X143500000Y-44966590D03*
X191200000Y-44600000D03*
X193900000Y-44500000D03*
X207500000Y-37800000D03*
X214431911Y-60996234D03*
X212700700Y-47133113D03*
X212152330Y-51090866D03*
X192100000Y-27500000D03*
X192100000Y-35000000D03*
X190699996Y-39900000D03*
X190700000Y-46899998D03*
X218000000Y-48300000D03*
X220900000Y-48300000D03*
X211292232Y-56655595D03*
X226998820Y-57863769D03*
X211223035Y-59007543D03*
X227000016Y-59016180D03*
X231000000Y-24600000D03*
X214900800Y-74001454D03*
X219245386Y-63301426D03*
X239800000Y-50600000D03*
X244901127Y-50598873D03*
X214700000Y-76500000D03*
X218863845Y-62169845D03*
X240800000Y-49800000D03*
X246000000Y-49800000D03*
X244900000Y-47699988D03*
X210700000Y-75900000D03*
X217953841Y-61462777D03*
X209900000Y-78400000D03*
X217280164Y-62398713D03*
X243796736Y-47020590D03*
X211470424Y-38660106D03*
X236133410Y-62333410D03*
X211292232Y-55421933D03*
X73800000Y-25700000D03*
X87000000Y-25100000D03*
X144100000Y-58100000D03*
X130100000Y-58700000D03*
X74000000Y-28600000D03*
X87000000Y-27500000D03*
X74600000Y-26879410D03*
X86999996Y-26300000D03*
X144100000Y-60000000D03*
X128900001Y-59500001D03*
X144100000Y-62600000D03*
X130099996Y-60400000D03*
X211258811Y-57842778D03*
X211630171Y-46706474D03*
X211440454Y-51997114D03*
X210762824Y-28001361D03*
X33000000Y-39000000D03*
X217158865Y-79560757D03*
X33000000Y-52000000D03*
X216214875Y-80414881D03*
X154200000Y-25700000D03*
X164800000Y-24300000D03*
X164799998Y-26700000D03*
X154388505Y-29714180D03*
X154200000Y-28200000D03*
X164800000Y-25500000D03*
X215400000Y-79600000D03*
X35400000Y-78700000D03*
X65200000Y-57500000D03*
X51900000Y-58695192D03*
X206238680Y-79138680D03*
X34469268Y-76469268D03*
X65200000Y-60000000D03*
X52800000Y-59504810D03*
X65200000Y-62500000D03*
X51900000Y-60352413D03*
D25*
X106062500Y-55962500D02*
X105600000Y-55500000D01*
X106062500Y-58500000D02*
X106062500Y-55962500D01*
X104100000Y-60425000D02*
X105475000Y-60425000D01*
X106062500Y-59837500D02*
X106062500Y-58500000D01*
X105475000Y-60425000D02*
X106062500Y-59837500D01*
X104100000Y-60425000D02*
X104100000Y-60966590D01*
X184600000Y-58037500D02*
X185062500Y-58500000D01*
X184600000Y-55500000D02*
X184600000Y-58037500D01*
X185062500Y-58500000D02*
X184300000Y-58500000D01*
X184300000Y-58500000D02*
X183900000Y-58900000D01*
X174737500Y-64937500D02*
X169000000Y-64937500D01*
X175950000Y-66150000D02*
X174737500Y-64937500D01*
X169000000Y-64937500D02*
X168037500Y-64937500D01*
X168037500Y-64937500D02*
X166750000Y-63650000D01*
X166350000Y-63650000D02*
X166750000Y-63650000D01*
X166750000Y-63650000D02*
X165600000Y-62500000D01*
D26*
X104100000Y-67575000D02*
X104100000Y-68600000D01*
X97950000Y-66150000D02*
X97950000Y-67350000D01*
X97950000Y-67350000D02*
X98000000Y-67400000D01*
X175950000Y-67350000D02*
X176000000Y-67400000D01*
X175950000Y-66150000D02*
X175950000Y-67350000D01*
D25*
X236550000Y-23750000D02*
X236900000Y-24100000D01*
X236550000Y-22850000D02*
X236550000Y-23750000D01*
X106062500Y-59837500D02*
X105800000Y-60100000D01*
X190000000Y-30165582D02*
X190012820Y-30152762D01*
X190000000Y-31562500D02*
X190000000Y-30165582D01*
D26*
X109900000Y-62375000D02*
X108325000Y-62375000D01*
X108325000Y-62375000D02*
X108300000Y-62400000D01*
D25*
X186500000Y-48700000D02*
X186500000Y-49500000D01*
X186500000Y-49500000D02*
X185350000Y-50650000D01*
X188100000Y-42400000D02*
X191200000Y-42400000D01*
X187400000Y-41700000D02*
X188100000Y-42400000D01*
X183500000Y-40500000D02*
X185100000Y-40500000D01*
X185100000Y-40500000D02*
X185101127Y-40498873D01*
X196500000Y-62400000D02*
X196400000Y-62500000D01*
X196500000Y-55500000D02*
X196500000Y-62400000D01*
X196400000Y-62500000D02*
X193400000Y-62500000D01*
D26*
X184275000Y-61075000D02*
X184600000Y-61400000D01*
X183100000Y-61075000D02*
X184275000Y-61075000D01*
D27*
X184225000Y-67575000D02*
X184600000Y-67200000D01*
X183100000Y-67575000D02*
X184225000Y-67575000D01*
D25*
X160000000Y-62600000D02*
X160100000Y-62500000D01*
X160000000Y-70000000D02*
X160000000Y-62600000D01*
X165600000Y-62500000D02*
X160100000Y-62500000D01*
X91500000Y-29900000D02*
X91600000Y-30000000D01*
X91500000Y-23000000D02*
X91500000Y-29900000D01*
X88400000Y-30000000D02*
X91600000Y-30000000D01*
X91600000Y-30000000D02*
X99600000Y-30000000D01*
X73000000Y-31562500D02*
X74662500Y-31562500D01*
X74662500Y-31562500D02*
X74700000Y-31600000D01*
X185009071Y-47490929D02*
X184090929Y-47490929D01*
X184090929Y-47490929D02*
X183234777Y-47490929D01*
X183234777Y-47490929D02*
X183043848Y-47300000D01*
X230700000Y-28500000D02*
X228600000Y-28500000D01*
X228600000Y-28500000D02*
X228500000Y-28600000D01*
X136900000Y-67400000D02*
X136900000Y-66200000D01*
X136900000Y-66200000D02*
X136950000Y-66150000D01*
D27*
X187627254Y-62375000D02*
X187401127Y-62601127D01*
X188900000Y-62375000D02*
X187627254Y-62375000D01*
D25*
X187100000Y-36600000D02*
X185900000Y-35400000D01*
X185900000Y-35400000D02*
X185400000Y-35400000D01*
X199000000Y-62600000D02*
X198900000Y-62500000D01*
X199000000Y-70000000D02*
X199000000Y-62600000D01*
X204600000Y-62500000D02*
X198900000Y-62500000D01*
X198900000Y-62500000D02*
X196400000Y-62500000D01*
X121000000Y-62700000D02*
X120800000Y-62500000D01*
X121000000Y-70000000D02*
X121000000Y-62700000D01*
X126600000Y-62500000D02*
X120800000Y-62500000D01*
X118500000Y-62300000D02*
X118700000Y-62500000D01*
X118500000Y-55500000D02*
X118500000Y-62300000D01*
X120800000Y-62500000D02*
X118700000Y-62500000D01*
X118700000Y-62500000D02*
X115400000Y-62500000D01*
X79500000Y-62100000D02*
X79900000Y-62500000D01*
X76400000Y-62500000D02*
X79900000Y-62500000D01*
X79500000Y-55500000D02*
X79500000Y-62100000D01*
X79900000Y-62500000D02*
X87600000Y-62500000D01*
X157500000Y-62400000D02*
X157600000Y-62500000D01*
X157500000Y-55500000D02*
X157500000Y-62400000D01*
X160100000Y-62500000D02*
X157600000Y-62500000D01*
X157600000Y-62500000D02*
X154400000Y-62500000D01*
X144700000Y-54800000D02*
X144100000Y-55400000D01*
X150500000Y-54800000D02*
X144700000Y-54800000D01*
X146900000Y-46000000D02*
X150600000Y-46000000D01*
X150600000Y-46000000D02*
X150700000Y-45900000D01*
X150700000Y-45900000D02*
X152800000Y-43800000D01*
X152800000Y-43800000D02*
X156200000Y-43800000D01*
X156200000Y-43800000D02*
X156500000Y-43500000D01*
X142533196Y-46000000D02*
X142366598Y-45833402D01*
X146900000Y-46000000D02*
X142533196Y-46000000D01*
X151200000Y-55500000D02*
X150500000Y-54800000D01*
X157500000Y-55500000D02*
X151200000Y-55500000D01*
D27*
X66740947Y-51566590D02*
X71202828Y-51566590D01*
D25*
X43000000Y-70000000D02*
X43000000Y-62600000D01*
X48600000Y-62500000D02*
X43100000Y-62500000D01*
X43000000Y-62600000D02*
X43100000Y-62500000D01*
X40500000Y-62400000D02*
X40400000Y-62500000D01*
X40500000Y-55500000D02*
X40500000Y-62400000D01*
X43100000Y-62500000D02*
X40400000Y-62500000D01*
X40400000Y-62500000D02*
X37400000Y-62500000D01*
X67262500Y-31562500D02*
X73000000Y-31562500D01*
X66050000Y-30350000D02*
X64350000Y-30350000D01*
X64000000Y-30000000D02*
X64350000Y-30350000D01*
X60600000Y-30000000D02*
X63500000Y-30000000D01*
X63500000Y-30000000D02*
X64000000Y-30000000D01*
X247510000Y-29880000D02*
X247200000Y-30190000D01*
X90037500Y-64937500D02*
X87600000Y-62500000D01*
X76400000Y-62500000D02*
X76400000Y-62600000D01*
X244689812Y-55944150D02*
X244689812Y-59189598D01*
X245560411Y-55073551D02*
X244689812Y-55944150D01*
X244689812Y-59189598D02*
X242579410Y-61300000D01*
X246250000Y-53250000D02*
X245560411Y-53939589D01*
X245560411Y-53939589D02*
X245560411Y-55073551D01*
X242579410Y-62943587D02*
X242494798Y-63028199D01*
X242579410Y-61300000D02*
X242579410Y-62943587D01*
X130500000Y-29900000D02*
X130600000Y-30000000D01*
X130500000Y-23000000D02*
X130500000Y-29900000D01*
X130600000Y-30000000D02*
X127400000Y-30000000D01*
X169500000Y-23000000D02*
X169500000Y-29800000D01*
X169500000Y-29800000D02*
X169700000Y-30000000D01*
X177600000Y-30000000D02*
X169700000Y-30000000D01*
X169700000Y-30000000D02*
X166400000Y-30000000D01*
X52500000Y-29900000D02*
X52600000Y-30000000D01*
X52500000Y-23000000D02*
X52500000Y-29900000D01*
X60600000Y-30000000D02*
X52600000Y-30000000D01*
X52600000Y-30000000D02*
X49400000Y-30000000D01*
X76092894Y-36999994D02*
X76800000Y-36999994D01*
X55000000Y-37000000D02*
X56300000Y-35700000D01*
X61800006Y-36999994D02*
X76092894Y-36999994D01*
X55000000Y-37500000D02*
X55000000Y-37000000D01*
X60500012Y-35700000D02*
X61800006Y-36999994D01*
X56300000Y-35700000D02*
X60500012Y-35700000D01*
X222250000Y-22850000D02*
X222300000Y-22900000D01*
X220550000Y-22850000D02*
X222250000Y-22850000D01*
D26*
X52000000Y-66100000D02*
X51900000Y-66200000D01*
X52000000Y-64937500D02*
X52000000Y-66100000D01*
X58950000Y-66150000D02*
X58950000Y-65050000D01*
X58950000Y-65050000D02*
X58900000Y-65000000D01*
X91000000Y-64937500D02*
X90037500Y-64937500D01*
X89662500Y-64937500D02*
X89599998Y-65000002D01*
X90037500Y-64937500D02*
X89662500Y-64937500D01*
D25*
X129037504Y-64937500D02*
X128600004Y-64500000D01*
X130000000Y-64937500D02*
X129037504Y-64937500D01*
X135112590Y-64312590D02*
X136950000Y-66150000D01*
X130562501Y-64937500D02*
X131187411Y-64312590D01*
X130000000Y-64937500D02*
X130562501Y-64937500D01*
X131187411Y-64312590D02*
X135112590Y-64312590D01*
X52000000Y-64937500D02*
X56837500Y-64937500D01*
X58050000Y-66150000D02*
X58950000Y-66150000D01*
X56837500Y-64937500D02*
X58050000Y-66150000D01*
X208000000Y-64937500D02*
X206524676Y-64937500D01*
X206524676Y-64937500D02*
X206499996Y-64912820D01*
X213737500Y-64937500D02*
X214950000Y-66150000D01*
X208000000Y-64937500D02*
X213737500Y-64937500D01*
X214950000Y-66150000D02*
X214950000Y-67650000D01*
X214950000Y-67650000D02*
X214700000Y-67900000D01*
X228550000Y-22850000D02*
X228550000Y-24050004D01*
X228550000Y-24050004D02*
X228600000Y-24100004D01*
X130600000Y-30000000D02*
X138600000Y-30000000D01*
X143700000Y-30000000D02*
X144050000Y-30350000D01*
X141500000Y-30000000D02*
X141500000Y-33400000D01*
X138600000Y-30000000D02*
X141500000Y-30000000D01*
X141500000Y-30000000D02*
X143700000Y-30000000D01*
X141500000Y-33400000D02*
X141400000Y-33500000D01*
X182385821Y-30400000D02*
X181700016Y-30400000D01*
X183050000Y-30350000D02*
X181750016Y-30350000D01*
X181750016Y-30350000D02*
X181700016Y-30400000D01*
X153592894Y-32466590D02*
X154300000Y-32466590D01*
X150514473Y-32048027D02*
X147188553Y-32048027D01*
X152604090Y-32466590D02*
X153592894Y-32466590D01*
X151000000Y-31562500D02*
X150514473Y-32048027D01*
X147188553Y-32048027D02*
X145490526Y-30350000D01*
X145490526Y-30350000D02*
X144050000Y-30350000D01*
X151000000Y-31562500D02*
X151700000Y-31562500D01*
X151700000Y-31562500D02*
X152604090Y-32466590D01*
X181300016Y-30000000D02*
X181700016Y-30400000D01*
X177600000Y-30000000D02*
X181300016Y-30000000D01*
X185200000Y-35200000D02*
X185400000Y-35400000D01*
X185200000Y-32400000D02*
X185200000Y-35200000D01*
X105050000Y-31450008D02*
X105000008Y-31500000D01*
X105050000Y-30350000D02*
X105050000Y-31450008D01*
X112637500Y-32200000D02*
X113299992Y-32200000D01*
X112000000Y-31562500D02*
X112637500Y-32200000D01*
X66050000Y-30350000D02*
X66050000Y-31550000D01*
X66062500Y-31562500D02*
X67262500Y-31562500D01*
X66050000Y-31550000D02*
X66062500Y-31562500D01*
X63917181Y-31562500D02*
X63854024Y-31625657D01*
X63854024Y-31625657D02*
X63854024Y-28854010D01*
X64350000Y-30350000D02*
X63854024Y-30845976D01*
X67262500Y-31562500D02*
X63917181Y-31562500D01*
X63500000Y-30000000D02*
X63500000Y-31271633D01*
X63500000Y-31271633D02*
X63854024Y-31625657D01*
X63854024Y-30845976D02*
X63854024Y-31625657D01*
D27*
X108400000Y-58037500D02*
X107937500Y-58500000D01*
X108400000Y-55500000D02*
X108400000Y-58037500D01*
X109900000Y-60425000D02*
X108725000Y-60425000D01*
X107937500Y-59637500D02*
X107937500Y-58500000D01*
X108725000Y-60425000D02*
X107937500Y-59637500D01*
X188900000Y-60425000D02*
X188862500Y-60425000D01*
X186937500Y-60412500D02*
X186925000Y-60425000D01*
X186937500Y-58500000D02*
X186937500Y-60412500D01*
X183100000Y-60425000D02*
X186925000Y-60425000D01*
X186925000Y-60425000D02*
X188900000Y-60425000D01*
X187400000Y-58037500D02*
X186937500Y-58500000D01*
X187400000Y-55500000D02*
X187400000Y-58037500D01*
X201500000Y-77770000D02*
X162500000Y-77770000D01*
X162500000Y-77770000D02*
X147270000Y-77770000D01*
X186500000Y-44200000D02*
X186066589Y-43766589D01*
X186066589Y-37733411D02*
X186500000Y-37300000D01*
X186066589Y-43766589D02*
X186066589Y-37733411D01*
X186333337Y-37466663D02*
X186305200Y-37466663D01*
X186500000Y-37300000D02*
X186333337Y-37466663D01*
X192066589Y-29066589D02*
X190600000Y-27600000D01*
X189100000Y-34900000D02*
X190800000Y-34900000D01*
X192066589Y-33633411D02*
X192066589Y-29066589D01*
X190800000Y-34900000D02*
X192066589Y-33633411D01*
X190600000Y-27200000D02*
X191500000Y-26300000D01*
X190600000Y-27600000D02*
X190600000Y-27200000D01*
X108725000Y-60425000D02*
X108300000Y-60000000D01*
X106900000Y-61400000D02*
X106900000Y-75300000D01*
X108300000Y-60000000D02*
X106900000Y-61400000D01*
X187400000Y-55500000D02*
X187400000Y-53800000D01*
X186606402Y-53606402D02*
X187206402Y-53606402D01*
X187206402Y-53606402D02*
X187400000Y-53800000D01*
X94933411Y-45966589D02*
X58196589Y-45966589D01*
X58196589Y-45966589D02*
X57500000Y-45270000D01*
X96500000Y-45270000D02*
X95630000Y-45270000D01*
X95630000Y-45270000D02*
X94933411Y-45966589D01*
X231937500Y-48500000D02*
X232937500Y-49500000D01*
X231937500Y-47500000D02*
X231937500Y-48500000D01*
X71199500Y-48699500D02*
X71200000Y-48700000D01*
X67062500Y-48699500D02*
X71199500Y-48699500D01*
X124506401Y-31806401D02*
X124506401Y-31306401D01*
X125400000Y-32700000D02*
X124506401Y-31806401D01*
X182500000Y-54400000D02*
X183293598Y-53606402D01*
X182500000Y-57062500D02*
X182500000Y-54400000D01*
X183293598Y-53606402D02*
X185393598Y-53606402D01*
X185393598Y-53606402D02*
X186606402Y-53606402D01*
X136170000Y-45270000D02*
X135500000Y-45270000D01*
X137839820Y-46939820D02*
X136170000Y-45270000D01*
X143460180Y-46939820D02*
X137839820Y-46939820D01*
X153000002Y-46939820D02*
X153000002Y-45400000D01*
X150260180Y-46939820D02*
X153000002Y-46939820D01*
X186400001Y-37200001D02*
X186400001Y-37371862D01*
X186400001Y-37371862D02*
X186305200Y-37466663D01*
X187133338Y-37966662D02*
X189100000Y-36000000D01*
X189100000Y-36000000D02*
X189100000Y-34900000D01*
X186305200Y-37466663D02*
X186805199Y-37966662D01*
X186805199Y-37966662D02*
X187133338Y-37966662D01*
X206143622Y-53456420D02*
X205256420Y-53456420D01*
X203893598Y-52093598D02*
X192606402Y-52093598D01*
X205256420Y-53456420D02*
X203893598Y-52093598D01*
X192558609Y-52141391D02*
X192558609Y-52558603D01*
X192606402Y-52093598D02*
X192558609Y-52141391D01*
X192606402Y-52093598D02*
X188185012Y-52093598D01*
X188185012Y-52093598D02*
X187589305Y-52689305D01*
X186725969Y-53552639D02*
X186660165Y-53552639D01*
X186660165Y-53552639D02*
X186606402Y-53606402D01*
X187589305Y-52689305D02*
X186725969Y-53552639D01*
X187400000Y-52878610D02*
X187589305Y-52689305D01*
X187400000Y-55500000D02*
X187400000Y-52878610D01*
X147000000Y-64300000D02*
X147000000Y-59450344D01*
X144602065Y-57052409D02*
X144102066Y-56552410D01*
X147000000Y-59450344D02*
X144602065Y-57052409D01*
X147270000Y-77770000D02*
X147000000Y-77500000D01*
X147000000Y-77500000D02*
X147000000Y-64300000D01*
X157518706Y-46939820D02*
X150260180Y-46939820D01*
X159188526Y-45270000D02*
X157518706Y-46939820D01*
X143500000Y-46979640D02*
X143460180Y-46939820D01*
X143500000Y-47400000D02*
X143500000Y-46979640D01*
X150260180Y-46939820D02*
X143460180Y-46939820D01*
X103500000Y-54600000D02*
X103500000Y-57062500D01*
X107442876Y-54875000D02*
X106336466Y-53768590D01*
X108400000Y-55500000D02*
X107775000Y-54875000D01*
X104331410Y-53768590D02*
X103500000Y-54600000D01*
X106336466Y-53768590D02*
X104331410Y-53768590D01*
X107775000Y-54875000D02*
X107442876Y-54875000D01*
X147270000Y-77770000D02*
X133570000Y-77770000D01*
X133570000Y-77770000D02*
X123500000Y-77770000D01*
X123500000Y-77770000D02*
X106801633Y-77770000D01*
X106801633Y-77770000D02*
X106800000Y-77771633D01*
X84500000Y-77770000D02*
X106798367Y-77770000D01*
X106798367Y-77770000D02*
X106800000Y-77771633D01*
X84500000Y-77770000D02*
X73770000Y-77770000D01*
X73770000Y-77770000D02*
X45500000Y-77770000D01*
X34800000Y-71700000D02*
X34700000Y-71800000D01*
X34800000Y-65500000D02*
X34800000Y-71700000D01*
X34800000Y-58500000D02*
X34800000Y-65500000D01*
X58900000Y-24500000D02*
X65400000Y-24500000D01*
X65200000Y-56200000D02*
X64200000Y-55200000D01*
X64200000Y-55200000D02*
X51900000Y-55200000D01*
X42270000Y-77770000D02*
X45500000Y-77770000D01*
X40670000Y-77770000D02*
X42270000Y-77770000D01*
X34700000Y-71800000D02*
X40670000Y-77770000D01*
X27300000Y-58500000D02*
X26400000Y-59400000D01*
X34800000Y-58500000D02*
X27300000Y-58500000D01*
X236500000Y-55400000D02*
X232772810Y-59127190D01*
X232772810Y-59127190D02*
X231667510Y-59127190D01*
X56700000Y-24500000D02*
X58900000Y-24500000D01*
X53793599Y-21593599D02*
X56700000Y-24500000D01*
X49706401Y-21593599D02*
X53793599Y-21593599D01*
X78293590Y-32793590D02*
X75100000Y-29600000D01*
X71600000Y-29100000D02*
X70000000Y-29100000D01*
X75100000Y-29600000D02*
X72100000Y-29600000D01*
X90006410Y-32793590D02*
X78293590Y-32793590D01*
X70000000Y-29100000D02*
X65400000Y-24500000D01*
X72100000Y-29600000D02*
X71600000Y-29100000D01*
X238007725Y-61425103D02*
X238007725Y-64238737D01*
X209136600Y-80119224D02*
X206787376Y-77770000D01*
X214874751Y-78654356D02*
X213409884Y-80119224D01*
X236500000Y-55400000D02*
X236500000Y-59917378D01*
X236500000Y-59917378D02*
X238007725Y-61425103D01*
X238007725Y-64238737D02*
X223592106Y-78654356D01*
X223592106Y-78654356D02*
X214874751Y-78654356D01*
X213409884Y-80119224D02*
X209136600Y-80119224D01*
X206787376Y-77770000D02*
X201500000Y-77770000D01*
X148310898Y-27200000D02*
X139900000Y-27200000D01*
X149025642Y-26485256D02*
X148310898Y-27200000D01*
X137700000Y-25000000D02*
X139900000Y-27200000D01*
X124506401Y-26912125D02*
X129824927Y-21593599D01*
X124506401Y-31306401D02*
X124506401Y-26912125D01*
X129824927Y-21593599D02*
X132036493Y-21593599D01*
X132036493Y-21593599D02*
X135442894Y-25000000D01*
X135442894Y-25000000D02*
X137700000Y-25000000D01*
X62000014Y-24500014D02*
X62000014Y-26900000D01*
X58900000Y-24500000D02*
X62000000Y-24500000D01*
X62000000Y-24500000D02*
X62000014Y-24500014D01*
X46600000Y-24700000D02*
X48500000Y-22800000D01*
X46600000Y-33300000D02*
X46600000Y-24700000D01*
X48500000Y-22800000D02*
X49706401Y-21593599D01*
X47500000Y-33300000D02*
X47800000Y-33000000D01*
X46600000Y-33300000D02*
X47500000Y-33300000D01*
X34900000Y-65600000D02*
X35600006Y-65600000D01*
X34800000Y-65500000D02*
X34900000Y-65600000D01*
X147000000Y-64300000D02*
X151399996Y-64300000D01*
X151399996Y-64300000D02*
X152699996Y-65600000D01*
X183500000Y-27000000D02*
X179000000Y-27000000D01*
X185100000Y-25400000D02*
X183500000Y-27000000D01*
X90006410Y-32793590D02*
X101293590Y-32793590D01*
X124506401Y-31306401D02*
X115106401Y-31306401D01*
X106606410Y-32793590D02*
X101293590Y-32793590D01*
X107600000Y-30700000D02*
X107600000Y-31800000D01*
X115106401Y-31306401D02*
X113293590Y-29493590D01*
X108806410Y-29493590D02*
X107600000Y-30700000D01*
X107600000Y-31800000D02*
X106606410Y-32793590D01*
X113293590Y-29493590D02*
X108806410Y-29493590D01*
X90006410Y-32793590D02*
X86793586Y-32793590D01*
X131513566Y-65100000D02*
X130313567Y-66300000D01*
X130313567Y-66300000D02*
X128600000Y-66300000D01*
X133570000Y-65970000D02*
X132700000Y-65100000D01*
X132700000Y-65100000D02*
X131513566Y-65100000D01*
X133570000Y-77770000D02*
X133570000Y-65970000D01*
X206300000Y-66493977D02*
X206474928Y-66319049D01*
X206300000Y-70500000D02*
X206300000Y-66493977D01*
X211400000Y-72700000D02*
X210000000Y-72700000D01*
X216300000Y-67800000D02*
X211400000Y-72700000D01*
X164900000Y-45240000D02*
X164870000Y-45270000D01*
X174500000Y-45270000D02*
X164870000Y-45270000D01*
X164900000Y-36800000D02*
X164900000Y-45240000D01*
X164870000Y-45270000D02*
X159188526Y-45270000D01*
X195100000Y-26300000D02*
X195100000Y-32100000D01*
X195100000Y-32100000D02*
X195800000Y-32800000D01*
X191500000Y-26300000D02*
X195100000Y-26300000D01*
X186501127Y-26801127D02*
X185100000Y-25400000D01*
X187000000Y-34900000D02*
X186500000Y-34400000D01*
X189100000Y-34900000D02*
X187000000Y-34900000D01*
X186500000Y-34400000D02*
X186500000Y-31109360D01*
X186500000Y-31109360D02*
X186501127Y-31108233D01*
X186501127Y-31108233D02*
X186501127Y-26801127D01*
X236500000Y-55400000D02*
X238300000Y-55400000D01*
X232937500Y-49500000D02*
X232937500Y-50737500D01*
X235600000Y-53400000D02*
X236500000Y-53400000D01*
X232937500Y-50737500D02*
X235600000Y-53400000D01*
X236500000Y-53400000D02*
X236500000Y-55400000D01*
X241706402Y-45843598D02*
X242430000Y-45120000D01*
X238300000Y-52100000D02*
X238700000Y-51700000D01*
X238300000Y-55400000D02*
X238300000Y-52100000D01*
X241706402Y-51093598D02*
X241706402Y-45843598D01*
X238700000Y-51700000D02*
X241100000Y-51700000D01*
X241100000Y-51700000D02*
X241706402Y-51093598D01*
X74600000Y-77700000D02*
X74600000Y-68100009D01*
X73770000Y-77770000D02*
X74530000Y-77770000D01*
X74530000Y-77770000D02*
X74600000Y-77700000D01*
X34800000Y-33520356D02*
X34800000Y-45200000D01*
X46600000Y-33300000D02*
X35020356Y-33300000D01*
X35020356Y-33300000D02*
X34800000Y-33520356D01*
X27049808Y-33285821D02*
X26342702Y-33285821D01*
X35020356Y-33300000D02*
X27063987Y-33300000D01*
X27063987Y-33300000D02*
X27049808Y-33285821D01*
X26400006Y-46400000D02*
X26400000Y-46400006D01*
X34700006Y-46400006D02*
X34800000Y-46500000D01*
X26400000Y-46400006D02*
X34700006Y-46400006D01*
X34800000Y-58500000D02*
X34800000Y-46500000D01*
X34800000Y-46500000D02*
X34800000Y-45340000D01*
X238300000Y-55400000D02*
X239899994Y-55400000D01*
X239899994Y-55400000D02*
X239999994Y-55500000D01*
X196800000Y-28000000D02*
X202800016Y-28000000D01*
X195100000Y-26300000D02*
X196800000Y-28000000D01*
X33807768Y-72692232D02*
X26596518Y-72692232D01*
X26596518Y-72692232D02*
X26496518Y-72792232D01*
X34700000Y-71800000D02*
X33807768Y-72692232D01*
D25*
X247510000Y-45120000D02*
X244970000Y-42580000D01*
X226433410Y-27133410D02*
X225450000Y-26150000D01*
X233450000Y-26150000D02*
X233450000Y-26950000D01*
X233450000Y-26950000D02*
X233266590Y-27133410D01*
X169212500Y-62850000D02*
X169000000Y-63062500D01*
X171050000Y-62850000D02*
X169212500Y-62850000D01*
X188162500Y-33437500D02*
X187950000Y-33650000D01*
X190000000Y-33437500D02*
X188162500Y-33437500D01*
X240466590Y-27133410D02*
X240166590Y-27133410D01*
X209837500Y-63062500D02*
X210050000Y-62850000D01*
X208000000Y-63062500D02*
X209837500Y-63062500D01*
X210050000Y-62850000D02*
X210850000Y-62850000D01*
X233266590Y-27133410D02*
X232633410Y-27133410D01*
X233450000Y-26316820D02*
X232633410Y-27133410D01*
X241450000Y-26150000D02*
X241450000Y-26316820D01*
X241450000Y-26316820D02*
X242266590Y-27133410D01*
X241450000Y-26350000D02*
X240666590Y-27133410D01*
X241450000Y-26150000D02*
X241450000Y-26350000D01*
X240666590Y-27133410D02*
X240166590Y-27133410D01*
X72787500Y-33650000D02*
X73000000Y-33437500D01*
X70950000Y-33650000D02*
X72787500Y-33650000D01*
X92837500Y-63062500D02*
X93050000Y-62850000D01*
X91000000Y-63062500D02*
X92837500Y-63062500D01*
X130212500Y-62850000D02*
X130000000Y-63062500D01*
X132050000Y-62850000D02*
X130212500Y-62850000D01*
X53837500Y-63062500D02*
X54050000Y-62850000D01*
X52000000Y-63062500D02*
X53837500Y-63062500D01*
X210050000Y-62850000D02*
X208538000Y-62850000D01*
X208538000Y-62850000D02*
X208300000Y-62612000D01*
X233450000Y-26150000D02*
X233450000Y-26316820D01*
X233633410Y-27133410D02*
X235066590Y-27133410D01*
X234266590Y-27133410D02*
X235066590Y-27133410D01*
X240166590Y-27133410D02*
X235066590Y-27133410D01*
X233450000Y-26316820D02*
X234266590Y-27133410D01*
X233450000Y-26950000D02*
X233633410Y-27133410D01*
X225750001Y-26450001D02*
X226433410Y-27133410D01*
X225450000Y-26150000D02*
X225750001Y-26450001D01*
X240666590Y-27133410D02*
X242266590Y-27133410D01*
X242233410Y-27133410D02*
X242833390Y-27133410D01*
X241450000Y-26350000D02*
X242233410Y-27133410D01*
X242266590Y-27133410D02*
X242833390Y-27133410D01*
X232633410Y-27133410D02*
X231767372Y-27133410D01*
X229347045Y-27060189D02*
X229273824Y-27133410D01*
X231694150Y-27060188D02*
X229347045Y-27060189D01*
X231767372Y-27133410D02*
X231694150Y-27060188D01*
X229273824Y-27133410D02*
X226433410Y-27133410D01*
X235066590Y-27133410D02*
X232633410Y-27133410D01*
X205028445Y-34273809D02*
X203301130Y-36001124D01*
X203301130Y-36001124D02*
X202801131Y-36501123D01*
X207426191Y-34273809D02*
X205028445Y-34273809D01*
X226874356Y-27133410D02*
X226966578Y-27041188D01*
X226433410Y-27133410D02*
X226874356Y-27133410D01*
X208000000Y-63062500D02*
X208000000Y-50800000D01*
X208000000Y-50800000D02*
X208100000Y-50700000D01*
X149000000Y-33700000D02*
X148950000Y-33650000D01*
X151000000Y-33437500D02*
X150737500Y-33700000D01*
X150737500Y-33700000D02*
X149000000Y-33700000D01*
X169000000Y-63062500D02*
X169000000Y-59700000D01*
X163066599Y-53766599D02*
X132233401Y-53766599D01*
X169000000Y-59700000D02*
X163066599Y-53766599D01*
X128275733Y-53766599D02*
X126300000Y-51790866D01*
X132233401Y-53766599D02*
X128275733Y-53766599D01*
X126399999Y-39600000D02*
X126300000Y-39699999D01*
X126300000Y-47899998D02*
X126300011Y-47900009D01*
X126300000Y-39699999D02*
X126300000Y-47899998D01*
X126300000Y-58100000D02*
X126300000Y-51790866D01*
X126300000Y-58875000D02*
X126300000Y-58100000D01*
X130000000Y-63062500D02*
X130000000Y-62575000D01*
X130000000Y-62575000D02*
X126300000Y-58875000D01*
X87100000Y-53400000D02*
X91000000Y-57300000D01*
X50900000Y-53400000D02*
X87100000Y-53400000D01*
X91000000Y-57300000D02*
X91000000Y-63062500D01*
X50800000Y-53300000D02*
X50900000Y-53400000D01*
X208600000Y-38200000D02*
X207695295Y-39104705D01*
X207695295Y-39104705D02*
X207322407Y-39104705D01*
X207426191Y-34273809D02*
X208600000Y-35447618D01*
X208600000Y-35447618D02*
X208600000Y-38200000D01*
X208100000Y-47500000D02*
X207400000Y-46800000D01*
X207400000Y-39182298D02*
X207322407Y-39104705D01*
X207400000Y-46800000D02*
X207400000Y-39182298D01*
X244906599Y-35259439D02*
X244906599Y-42516599D01*
X248843401Y-31322637D02*
X244906599Y-35259439D01*
X244906599Y-42516599D02*
X244970000Y-42580000D01*
X248843401Y-28801223D02*
X248843401Y-31322637D01*
X244060391Y-28360411D02*
X248402589Y-28360411D01*
X242833390Y-27133410D02*
X244060391Y-28360411D01*
X248402589Y-28360411D02*
X248843401Y-28801223D01*
X52000000Y-61981849D02*
X52000000Y-63062500D01*
X50800000Y-53300000D02*
X50800000Y-60781849D01*
X50800000Y-60781849D02*
X52000000Y-61981849D01*
X52406468Y-34633410D02*
X50800000Y-36239878D01*
X67166590Y-34633410D02*
X52406468Y-34633410D01*
X68150000Y-33650000D02*
X67166590Y-34633410D01*
X50800000Y-36239878D02*
X50800000Y-53300000D01*
X70950000Y-33650000D02*
X68150000Y-33650000D01*
X108800000Y-34800000D02*
X109950000Y-33650000D01*
X78400000Y-34800000D02*
X108800000Y-34800000D01*
X73000000Y-33437500D02*
X77037500Y-33437500D01*
X77037500Y-33437500D02*
X78400000Y-34800000D01*
X111787500Y-33650000D02*
X112000000Y-33437500D01*
X109950000Y-33650000D02*
X111787500Y-33650000D01*
X112000000Y-33437500D02*
X115662500Y-37100000D01*
X115662500Y-37100000D02*
X125300000Y-37100000D01*
X147350000Y-33650000D02*
X146060187Y-34939813D01*
X146060187Y-34939813D02*
X127460187Y-34939813D01*
X127460187Y-34939813D02*
X125300000Y-37100000D01*
X148950000Y-33650000D02*
X147350000Y-33650000D01*
X151485527Y-33923027D02*
X155066758Y-33923027D01*
X155066758Y-33923027D02*
X155729633Y-33260152D01*
X151000000Y-33437500D02*
X151485527Y-33923027D01*
X189400000Y-27900000D02*
X189400000Y-25300000D01*
X190000000Y-33437500D02*
X191233410Y-32204090D01*
X189400000Y-25300000D02*
X190700000Y-24000000D01*
X191233410Y-29733410D02*
X189400000Y-27900000D01*
X191233410Y-32204090D02*
X191233410Y-29733410D01*
X184200000Y-24000000D02*
X190700000Y-24000000D01*
X160111464Y-33188536D02*
X167300000Y-26000000D01*
X158328901Y-33188536D02*
X160111464Y-33188536D01*
X167300000Y-26000000D02*
X167300000Y-22800000D01*
X167300000Y-22800000D02*
X168633401Y-21466599D01*
X181666599Y-21466599D02*
X184200000Y-24000000D01*
X168633401Y-21466599D02*
X181666599Y-21466599D01*
X203195434Y-24000000D02*
X191300000Y-24000000D01*
X191300000Y-24000000D02*
X190700000Y-24000000D01*
X204500000Y-25304566D02*
X203195434Y-24000000D01*
X204500000Y-26966802D02*
X204500000Y-25304566D01*
X223300000Y-24000000D02*
X225750001Y-26450001D01*
X204500000Y-26966802D02*
X206433198Y-26966802D01*
X206433198Y-26966802D02*
X207400000Y-26000000D01*
X207400000Y-25000000D02*
X208400000Y-24000000D01*
X207400000Y-26000000D02*
X207400000Y-25000000D01*
X204500000Y-31347618D02*
X207426191Y-34273809D01*
X204500000Y-26966802D02*
X204500000Y-31347618D01*
X208400000Y-24000000D02*
X211100000Y-24000000D01*
X211100000Y-24000000D02*
X223300000Y-24000000D01*
D28*
X214000000Y-52800000D02*
X214000000Y-51418135D01*
X209700001Y-60400001D02*
X210200000Y-60900000D01*
X214000000Y-51418135D02*
X212893321Y-50311456D01*
X212893321Y-50311456D02*
X211319007Y-50311456D01*
X209700000Y-51930463D02*
X209700001Y-60400001D01*
X211319007Y-50311456D02*
X209700000Y-51930463D01*
X225450000Y-23554000D02*
X225450000Y-22850000D01*
X227546000Y-26150000D02*
X225450000Y-24054000D01*
X228550000Y-26150000D02*
X227546000Y-26150000D01*
X225450000Y-24054000D02*
X225450000Y-23554000D01*
X211600000Y-34300000D02*
X211980767Y-33919233D01*
X211980767Y-33919233D02*
X211980767Y-28694980D01*
X214525747Y-26150000D02*
X220550000Y-26150000D01*
X211980767Y-28694980D02*
X214525747Y-26150000D01*
X236550000Y-25950000D02*
X233450000Y-22850000D01*
X236550000Y-26150000D02*
X236550000Y-25950000D01*
X236288502Y-63475338D02*
X230551018Y-69212822D01*
X230551018Y-69212822D02*
X221612822Y-69212822D01*
X221612822Y-69212822D02*
X220024788Y-67624777D01*
X218783375Y-60683375D02*
X216412625Y-60683375D01*
X220024788Y-61924788D02*
X218783375Y-60683375D01*
X214950000Y-62146000D02*
X214950000Y-62850000D01*
X216412625Y-60683375D02*
X214950000Y-62146000D01*
X220024788Y-67624777D02*
X220024788Y-61924788D01*
X238923140Y-61076860D02*
X241157777Y-58842223D01*
X243887178Y-54012822D02*
X243887178Y-52436680D01*
X241157777Y-56742223D02*
X243887178Y-54012822D01*
X243887178Y-52436680D02*
X243017335Y-51566837D01*
X243443220Y-46220592D02*
X248379408Y-46220592D01*
X248379408Y-46220592D02*
X249600000Y-45000000D01*
X243850000Y-22850000D02*
X241450000Y-22850000D01*
X243017335Y-46646477D02*
X243443220Y-46220592D01*
X243017335Y-51566837D02*
X243017335Y-46646477D01*
X238923140Y-62999856D02*
X238923140Y-61076860D01*
X249600000Y-28600000D02*
X243850000Y-22850000D01*
X241157777Y-58842223D02*
X241157777Y-56742223D01*
X249600000Y-45000000D02*
X249600000Y-28600000D01*
X175950000Y-62850000D02*
X175950000Y-63554000D01*
X181696000Y-69300000D02*
X184609134Y-69300000D01*
X175950000Y-63554000D02*
X181696000Y-69300000D01*
X207520599Y-71279401D02*
X210050000Y-68750000D01*
X210050000Y-68750000D02*
X210050000Y-66150000D01*
X188200000Y-69334029D02*
X190145372Y-71279401D01*
X190145372Y-71279401D02*
X207520599Y-71279401D01*
X165920599Y-71279401D02*
X153479401Y-71279401D01*
X171050000Y-66150000D02*
X165920599Y-71279401D01*
X153479401Y-71279401D02*
X148000000Y-65800000D01*
X148000000Y-65800000D02*
X148000000Y-65700000D01*
X137000000Y-62800000D02*
X136950000Y-62850000D01*
X146000000Y-65700000D02*
X143100000Y-62800000D01*
X143100000Y-62800000D02*
X137000000Y-62800000D01*
X132050000Y-66150000D02*
X131850000Y-66150000D01*
X112398642Y-74701128D02*
X111898643Y-75201127D01*
X115699770Y-71400000D02*
X112398642Y-74701128D01*
X126600000Y-71400000D02*
X115699770Y-71400000D01*
X131850000Y-66150000D02*
X126600000Y-71400000D01*
X98954000Y-62850000D02*
X97950000Y-62850000D01*
X109000000Y-75200000D02*
X108020599Y-76179401D01*
X108020599Y-76179401D02*
X106579401Y-76179401D01*
X99460978Y-63356978D02*
X98954000Y-62850000D01*
X109021957Y-75200000D02*
X109000000Y-75200000D01*
X106579401Y-76179401D02*
X99460978Y-69060978D01*
X99460978Y-69060978D02*
X99460978Y-63356978D01*
X62850000Y-62850000D02*
X58950000Y-62850000D01*
X93050000Y-66150000D02*
X66150000Y-66150000D01*
X66150000Y-66150000D02*
X62850000Y-62850000D01*
X52450000Y-33650000D02*
X66050000Y-33650000D01*
X50100000Y-36000000D02*
X52450000Y-33650000D01*
X50100000Y-61218486D02*
X50100000Y-36000000D01*
X54050000Y-66150000D02*
X53350000Y-66150000D01*
X51400000Y-67100000D02*
X50900000Y-66600000D01*
X53350000Y-66150000D02*
X52400000Y-67100000D01*
X50900000Y-62018486D02*
X50100000Y-61218486D01*
X52400000Y-67100000D02*
X51400000Y-67100000D01*
X50900000Y-66600000D02*
X50900000Y-62018486D01*
X70950000Y-30350000D02*
X75095644Y-30350000D01*
X78425045Y-33679402D02*
X104016598Y-33679402D01*
X104046000Y-33650000D02*
X105050000Y-33650000D01*
X75095644Y-30350000D02*
X78425045Y-33679402D01*
X104016598Y-33679402D02*
X104046000Y-33650000D01*
X143420598Y-34279402D02*
X144050000Y-33650000D01*
X116532918Y-34279402D02*
X143420598Y-34279402D01*
X112603516Y-30350000D02*
X116532918Y-34279402D01*
X109950000Y-30350000D02*
X112603516Y-30350000D01*
X153149999Y-30350000D02*
X148950000Y-30350000D01*
X153700000Y-30900001D02*
X153149999Y-30350000D01*
X155046485Y-30900001D02*
X153700000Y-30900001D01*
X157020598Y-32874114D02*
X155046485Y-30900001D01*
X182046000Y-33650000D02*
X181696000Y-34000000D01*
X183050000Y-33650000D02*
X182046000Y-33650000D01*
X181696000Y-34000000D02*
X157446483Y-34000000D01*
X157446483Y-34000000D02*
X157020598Y-33574115D01*
X157020598Y-33574115D02*
X157020598Y-32874114D01*
X97470101Y-36220599D02*
X89754151Y-36220599D01*
X61084000Y-40600000D02*
X58954000Y-42730000D01*
X89754151Y-36220599D02*
X85374750Y-40600000D01*
X103854766Y-42605264D02*
X97470101Y-36220599D01*
X103854766Y-52694736D02*
X103854766Y-42605264D01*
X85374750Y-40600000D02*
X61084000Y-40600000D01*
X58954000Y-42730000D02*
X57500000Y-42730000D01*
X103096000Y-63025000D02*
X102092223Y-62021223D01*
X102092223Y-62021223D02*
X102092223Y-54457278D01*
X104100000Y-63025000D02*
X103096000Y-63025000D01*
X102092223Y-54457278D02*
X103854766Y-52694736D01*
X103096000Y-62375000D02*
X104100000Y-62375000D01*
X102498634Y-61777634D02*
X103096000Y-62375000D01*
X102498634Y-54625618D02*
X102498634Y-61777634D01*
X104261177Y-52863076D02*
X102498634Y-54625618D01*
X104261177Y-42436924D02*
X104261177Y-52863076D01*
X97638441Y-35814188D02*
X104261177Y-42436924D01*
X89585812Y-35814188D02*
X97638441Y-35814188D01*
X57500000Y-40190000D02*
X85210000Y-40190000D01*
X85210000Y-40190000D02*
X89585812Y-35814188D01*
X101279401Y-54120599D02*
X101279401Y-62529903D01*
X101279401Y-62529903D02*
X103074500Y-64325000D01*
X103041944Y-42941944D02*
X103041944Y-52358056D01*
X102830000Y-42730000D02*
X103041944Y-42941944D01*
X103041944Y-52358056D02*
X101279401Y-54120599D01*
X96500000Y-42730000D02*
X102830000Y-42730000D01*
X103074500Y-64325000D02*
X104100000Y-64325000D01*
X100864751Y-40190000D02*
X96500000Y-40190000D01*
X103448355Y-52526396D02*
X103448355Y-42773604D01*
X103448355Y-42773604D02*
X100864751Y-40190000D01*
X104100000Y-63675000D02*
X102999250Y-63675000D01*
X102999250Y-63675000D02*
X101685812Y-62361562D01*
X101685812Y-62361562D02*
X101685813Y-54288937D01*
X101685813Y-54288937D02*
X103448355Y-52526396D01*
X127796599Y-48979401D02*
X109279401Y-48979401D01*
X111793589Y-55543103D02*
X111793589Y-63435411D01*
X109279401Y-48979401D02*
X108000000Y-47700000D01*
X106260820Y-47700000D02*
X105480410Y-48480410D01*
X134046000Y-42730000D02*
X127796599Y-48979401D01*
X108000000Y-47700000D02*
X106260820Y-47700000D01*
X111793589Y-63435411D02*
X110904000Y-64325000D01*
X105480410Y-48480410D02*
X105480410Y-51008675D01*
X106958913Y-52487178D02*
X108737677Y-52487178D01*
X110904000Y-64325000D02*
X109900000Y-64325000D01*
X105480410Y-51008675D02*
X106958913Y-52487178D01*
X135500000Y-42730000D02*
X134046000Y-42730000D01*
X108737677Y-52487178D02*
X111793589Y-55543103D01*
X105886821Y-50840335D02*
X105886821Y-48648749D01*
X105886821Y-48648749D02*
X106429159Y-48106411D01*
X110904000Y-64975000D02*
X112200000Y-63679000D01*
X129388939Y-49385812D02*
X134774751Y-44000000D01*
X137200000Y-41890000D02*
X135500000Y-40190000D01*
X109111061Y-49385812D02*
X129388939Y-49385812D01*
X109900000Y-64975000D02*
X110904000Y-64975000D01*
X136400000Y-44000000D02*
X137200000Y-43200000D01*
X106429159Y-48106411D02*
X107831661Y-48106411D01*
X134774751Y-44000000D02*
X136400000Y-44000000D01*
X107831661Y-48106411D02*
X109111061Y-49385812D01*
X107127253Y-52080767D02*
X105886821Y-50840335D01*
X108906016Y-52080767D02*
X107127253Y-52080767D01*
X112200000Y-55374763D02*
X108906016Y-52080767D01*
X112200000Y-63679000D02*
X112200000Y-55374763D01*
X137200000Y-43200000D02*
X137200000Y-41890000D01*
X183100000Y-63025000D02*
X182125000Y-63025000D01*
X182125000Y-63025000D02*
X181000000Y-61900000D01*
X181000000Y-61900000D02*
X181000000Y-54600000D01*
X181000000Y-54600000D02*
X180200000Y-53800000D01*
X180200000Y-48430000D02*
X180135000Y-48365000D01*
X180200000Y-51000000D02*
X180200000Y-48430000D01*
X180135000Y-48365000D02*
X174500000Y-42730000D01*
X181406411Y-61685411D02*
X182096000Y-62375000D01*
X182096000Y-62375000D02*
X183100000Y-62375000D01*
X174500000Y-40190000D02*
X181406411Y-47096411D01*
X181406411Y-61685411D02*
X181406411Y-53806411D01*
X181406411Y-53806411D02*
X181400000Y-53800000D01*
X181406409Y-47096413D02*
X181406411Y-47096411D01*
X181406409Y-49398341D02*
X181406409Y-47096413D01*
X181400000Y-49404750D02*
X181406409Y-49398341D01*
X181400000Y-51000000D02*
X181400000Y-49404750D01*
X96500000Y-62968459D02*
X96500000Y-66274751D01*
X97347869Y-62120590D02*
X96500000Y-62968459D01*
X66116486Y-75230000D02*
X45500000Y-75230000D01*
X96500000Y-66274751D02*
X95454152Y-67320599D01*
X95454152Y-67320599D02*
X74025887Y-67320599D01*
X74025887Y-67320599D02*
X66116486Y-75230000D01*
X99591590Y-62120590D02*
X97347869Y-62120590D01*
X103096000Y-65625000D02*
X99591590Y-62120590D01*
X104100000Y-65625000D02*
X103096000Y-65625000D01*
X103149750Y-64975000D02*
X104100000Y-64975000D01*
X97179528Y-61714181D02*
X97285819Y-61714181D01*
X97179528Y-61714181D02*
X99885819Y-61714181D01*
X99885819Y-61714181D02*
X99887375Y-61712625D01*
X99887375Y-61712625D02*
X103149750Y-64975000D01*
X67710000Y-72690000D02*
X45500000Y-72690000D01*
X95285812Y-66914188D02*
X73485812Y-66914188D01*
X96000000Y-66200000D02*
X95285812Y-66914188D01*
X96000000Y-62893709D02*
X96000000Y-66200000D01*
X97179528Y-61714181D02*
X96000000Y-62893709D01*
X73485812Y-66914188D02*
X67710000Y-72690000D01*
X86262223Y-76992223D02*
X109636044Y-76992223D01*
X111000000Y-68250498D02*
X111000000Y-67300000D01*
X109636044Y-76992223D02*
X110306411Y-76321856D01*
X110625000Y-66925000D02*
X109900000Y-66925000D01*
X84500000Y-75230000D02*
X86262223Y-76992223D01*
X110306411Y-76321856D02*
X110306411Y-68944087D01*
X111000000Y-67300000D02*
X110625000Y-66925000D01*
X110306411Y-68944087D02*
X111000000Y-68250498D01*
X109467704Y-76585812D02*
X88395812Y-76585812D01*
X109900000Y-76153516D02*
X109467704Y-76585812D01*
X109900000Y-67575000D02*
X109900000Y-76153516D01*
X88395812Y-76585812D02*
X84500000Y-72690000D01*
X111119233Y-76119233D02*
X111700000Y-76700000D01*
X110904000Y-65625000D02*
X111820598Y-66541598D01*
X121525250Y-76700000D02*
X122995250Y-75230000D01*
X111820598Y-68579403D02*
X111119233Y-69280767D01*
X109900000Y-65625000D02*
X110904000Y-65625000D01*
X111820598Y-66541598D02*
X111820598Y-68579403D01*
X122995250Y-75230000D02*
X123500000Y-75230000D01*
X111700000Y-76700000D02*
X121525250Y-76700000D01*
X111119233Y-69280767D02*
X111119233Y-76119233D01*
X110904000Y-66275000D02*
X109900000Y-66275000D01*
X111414187Y-66785187D02*
X110904000Y-66275000D01*
X125100000Y-73900000D02*
X125100000Y-75800000D01*
X125100000Y-75800000D02*
X124400000Y-76500000D01*
X123500000Y-72690000D02*
X123890000Y-72690000D01*
X123890000Y-72690000D02*
X125100000Y-73900000D01*
X122450000Y-76500000D02*
X121843589Y-77106411D01*
X121843589Y-77106411D02*
X111531660Y-77106411D01*
X110712822Y-76287573D02*
X110712822Y-69112427D01*
X111531660Y-77106411D02*
X110712822Y-76287573D01*
X111414187Y-68411063D02*
X111414187Y-66785187D01*
X124400000Y-76500000D02*
X122450000Y-76500000D01*
X110712822Y-69112427D02*
X111414187Y-68411063D01*
X180498265Y-75230000D02*
X162500000Y-75230000D01*
X184104000Y-64325000D02*
X185794955Y-66015955D01*
X185794955Y-69933310D02*
X180498265Y-75230000D01*
X183100000Y-64325000D02*
X184104000Y-64325000D01*
X185794955Y-66015955D02*
X185794955Y-69933310D01*
X185388544Y-69764970D02*
X185388544Y-68835030D01*
X162500000Y-72690000D02*
X182463514Y-72690000D01*
X185388544Y-68835030D02*
X184840392Y-68286878D01*
X184840392Y-68286878D02*
X182313122Y-68286878D01*
X182096000Y-63675000D02*
X183100000Y-63675000D01*
X182000000Y-67973755D02*
X182000000Y-63771000D01*
X182313122Y-68286878D02*
X182000000Y-67973755D01*
X182000000Y-63771000D02*
X182096000Y-63675000D01*
X182463514Y-72690000D02*
X185388544Y-69764970D01*
X187571984Y-66925000D02*
X187014188Y-67482796D01*
X187014188Y-67482796D02*
X187014188Y-70064688D01*
X187014188Y-70064688D02*
X192179500Y-75230000D01*
X192179500Y-75230000D02*
X201500000Y-75230000D01*
X188900000Y-66925000D02*
X187571984Y-66925000D01*
X190214250Y-72690000D02*
X201500000Y-72690000D01*
X187420599Y-69896349D02*
X190214250Y-72690000D01*
X187420599Y-68050401D02*
X187420599Y-69896349D01*
X187896000Y-67575000D02*
X187420599Y-68050401D01*
X188900000Y-67575000D02*
X187896000Y-67575000D01*
X189812750Y-61075000D02*
X190393589Y-60494161D01*
X188900000Y-61075000D02*
X189812750Y-61075000D01*
X190393589Y-53482601D02*
X189910988Y-53000000D01*
X190393589Y-60494161D02*
X190393589Y-53482601D01*
X213188938Y-79585813D02*
X209357546Y-79585813D01*
X230600417Y-59162350D02*
X232152173Y-60714106D01*
X227190000Y-45120000D02*
X228310000Y-44000000D01*
X237474314Y-61646055D02*
X237474314Y-63978804D01*
X237474314Y-63978804D02*
X223332173Y-78120945D01*
X214653805Y-78120945D02*
X213188938Y-79585813D01*
X230303757Y-44000000D02*
X231000000Y-44696243D01*
X231000000Y-44696243D02*
X231000000Y-49900000D01*
X186201366Y-61923883D02*
X187050249Y-61075000D01*
X231000000Y-49900000D02*
X230600417Y-50299583D01*
X228310000Y-44000000D02*
X230303757Y-44000000D01*
X206478142Y-76706409D02*
X192506408Y-76706409D01*
X232152173Y-60714106D02*
X236542459Y-60714193D01*
X236542459Y-60714193D02*
X237474314Y-61646055D01*
X223332173Y-78120945D02*
X214653805Y-78120945D01*
X187050249Y-61075000D02*
X188900000Y-61075000D01*
X209357546Y-79585813D02*
X206478142Y-76706409D01*
X186201366Y-70401367D02*
X186201366Y-61923883D01*
X192506408Y-76706409D02*
X186201366Y-70401367D01*
X230600417Y-50299583D02*
X230600417Y-59162350D01*
X184632223Y-30393027D02*
X184632223Y-28558298D01*
X184114188Y-33142453D02*
X184014188Y-33042453D01*
X184114188Y-34011061D02*
X184114188Y-33142453D01*
X183344480Y-34780767D02*
X184114188Y-34011061D01*
X147153195Y-34780767D02*
X183344480Y-34780767D01*
X129353290Y-35600224D02*
X146333738Y-35600224D01*
X126958560Y-37994954D02*
X129353290Y-35600224D01*
X111605045Y-37994954D02*
X126958560Y-37994954D01*
X104667588Y-44932411D02*
X111605045Y-37994954D01*
X104667588Y-51345355D02*
X104667588Y-44932411D01*
X106622233Y-53300000D02*
X104667588Y-51345355D01*
X108400741Y-53300000D02*
X106622233Y-53300000D01*
X110929409Y-55828668D02*
X108400741Y-53300000D01*
X110929409Y-61049591D02*
X110929409Y-55828668D01*
X109900000Y-61075000D02*
X110904000Y-61075000D01*
X184014188Y-33042453D02*
X184014188Y-31011061D01*
X110904000Y-61075000D02*
X110929409Y-61049591D01*
X184014188Y-31011061D02*
X184632223Y-30393027D01*
X146333738Y-35600224D02*
X147153195Y-34780767D01*
X230000000Y-47500000D02*
X229730000Y-47230000D01*
X230062500Y-47500000D02*
X230000000Y-47500000D01*
X229730000Y-45120000D02*
X229730000Y-47230000D01*
X190800000Y-53400008D02*
X191200000Y-53000008D01*
X190800000Y-60662500D02*
X190800000Y-53400008D01*
X189737500Y-61725000D02*
X190800000Y-60662500D01*
X188900000Y-61725000D02*
X189737500Y-61725000D01*
X230156411Y-59293094D02*
X230156411Y-47656411D01*
X231983915Y-61120598D02*
X230156411Y-59293094D01*
X236374115Y-61120601D02*
X231983915Y-61120598D01*
X214485466Y-77714534D02*
X223163833Y-77714534D01*
X206646482Y-76299998D02*
X209525886Y-79179402D01*
X209525886Y-79179402D02*
X213020598Y-79179402D01*
X186607777Y-70233027D02*
X192674748Y-76299998D01*
X186607777Y-62292223D02*
X186607777Y-70233027D01*
X187175000Y-61725000D02*
X186607777Y-62292223D01*
X188900000Y-61725000D02*
X187175000Y-61725000D01*
X237067903Y-63810464D02*
X237067903Y-61814395D01*
X223163833Y-77714534D02*
X237067903Y-63810464D01*
X192674748Y-76299998D02*
X206646482Y-76299998D01*
X213020598Y-79179402D02*
X214485466Y-77714534D01*
X237067903Y-61814395D02*
X236374115Y-61120601D01*
X230156411Y-47656411D02*
X229730000Y-47230000D01*
X111773385Y-38401365D02*
X127173385Y-38401365D01*
X109900000Y-61725000D02*
X110904000Y-61725000D01*
X146593365Y-36006635D02*
X147412822Y-35187178D01*
X184520599Y-34454152D02*
X184520599Y-32974113D01*
X183787573Y-35187178D02*
X184520599Y-34454152D01*
X105073999Y-51177015D02*
X105073999Y-45100751D01*
X108569081Y-52893589D02*
X106790573Y-52893589D01*
X110904000Y-61725000D02*
X111335820Y-61293180D01*
X111335820Y-61293180D02*
X111335820Y-55660328D01*
X184520599Y-32974113D02*
X184420599Y-32874113D01*
X127173385Y-38401365D02*
X129568116Y-36006635D01*
X111335820Y-55660328D02*
X108569081Y-52893589D01*
X185594717Y-30005283D02*
X185594717Y-27799992D01*
X106790573Y-52893589D02*
X105073999Y-51177015D01*
X184420599Y-32874113D02*
X184420599Y-31179401D01*
X105073999Y-45100751D02*
X111773385Y-38401365D01*
X184420599Y-31179401D02*
X185594717Y-30005283D01*
X129568116Y-36006635D02*
X146593365Y-36006635D01*
X147412822Y-35187178D02*
X183787573Y-35187178D01*
X68499996Y-35899996D02*
X68500000Y-35900000D01*
X66400004Y-35899996D02*
X68499996Y-35899996D01*
X147100000Y-42085590D02*
X147100000Y-44749320D01*
X147100000Y-44749320D02*
X146997593Y-44851727D01*
X149569438Y-36583220D02*
X149779659Y-36372999D01*
X147693784Y-36583220D02*
X149569438Y-36583220D01*
X66979500Y-42520500D02*
X66979500Y-45039679D01*
X66979500Y-45039679D02*
X67000000Y-45060179D01*
X153000000Y-47999996D02*
X151207773Y-49792223D01*
X151207773Y-49792223D02*
X108942721Y-49792223D01*
X108046335Y-48895836D02*
X106741988Y-48895836D01*
X108942721Y-49792223D02*
X108046335Y-48895836D01*
X106741988Y-48895836D02*
X106704923Y-48932901D01*
X153000000Y-47999996D02*
X156800002Y-51799998D01*
X156800002Y-51799998D02*
X186000001Y-51799998D01*
X187459046Y-50340954D02*
X203459045Y-50340954D01*
X203459045Y-50340954D02*
X205114187Y-48685812D01*
X216600000Y-51719131D02*
X216600000Y-54476743D01*
X216600000Y-54476743D02*
X223400000Y-61276743D01*
X223400000Y-61276743D02*
X223400000Y-62192894D01*
X205114187Y-48685812D02*
X213566681Y-48685812D01*
X186000001Y-51799998D02*
X187459046Y-50340954D01*
X223400000Y-62192894D02*
X223400000Y-62900000D01*
X213566681Y-48685812D02*
X216600000Y-51719131D01*
X102123313Y-48900000D02*
X102182124Y-48841189D01*
X76539243Y-48741135D02*
X76698108Y-48900000D01*
X76698108Y-48900000D02*
X102123313Y-48900000D01*
X219570000Y-29880000D02*
X219570000Y-31770000D01*
X219570000Y-31770000D02*
X220800000Y-33000000D01*
X220800000Y-33000000D02*
X220800000Y-46125249D01*
X224274356Y-55599607D02*
X224274356Y-62025644D01*
X219693589Y-51018839D02*
X224274356Y-55599607D01*
X224274356Y-62025644D02*
X223400000Y-62900000D01*
X219693589Y-47231660D02*
X219693589Y-51018839D01*
X220800000Y-46125249D02*
X219693589Y-47231660D01*
X75900000Y-49700000D02*
X101400000Y-49700000D01*
X108255158Y-49679410D02*
X107600000Y-49679410D01*
X108774381Y-50198634D02*
X108255158Y-49679410D01*
X152055725Y-50198634D02*
X108774381Y-50198634D01*
X153006917Y-49247442D02*
X152055725Y-50198634D01*
X222463254Y-60914748D02*
X222463254Y-63315667D01*
X153006917Y-49247442D02*
X155965884Y-52206409D01*
X155965884Y-52206409D02*
X186168341Y-52206409D01*
X186168341Y-52206409D02*
X187627386Y-50747365D01*
X203627386Y-50747365D02*
X205282527Y-49092223D01*
X205282527Y-49092223D02*
X213398341Y-49092223D01*
X216193589Y-51887471D02*
X216193589Y-54645083D01*
X216193589Y-54645083D02*
X222463254Y-60914748D01*
X187627386Y-50747365D02*
X203627386Y-50747365D01*
X213398341Y-49092223D02*
X216193589Y-51887471D01*
X222463254Y-63315667D02*
X223400000Y-64252413D01*
X223084265Y-57877159D02*
X223084265Y-58584265D01*
X223084265Y-55559009D02*
X223084265Y-57877159D01*
X215685000Y-46315000D02*
X217915000Y-46315000D01*
X217915000Y-46315000D02*
X218800000Y-47200000D01*
X214490000Y-45120000D02*
X215685000Y-46315000D01*
X218800000Y-47200000D02*
X218800000Y-51274744D01*
X218800000Y-51274744D02*
X223084265Y-55559009D01*
X76930749Y-50520590D02*
X101526345Y-50520590D01*
X101555437Y-50549682D02*
X102262543Y-50549682D01*
X101526345Y-50520590D02*
X101555437Y-50549682D01*
X222056843Y-64156843D02*
X223400000Y-65500000D01*
X222056843Y-61083088D02*
X222056843Y-64156843D01*
X205450867Y-49498634D02*
X213230001Y-49498634D01*
X213230001Y-49498634D02*
X215787178Y-52055811D01*
X186336682Y-52612819D02*
X187795726Y-51153776D01*
X153000016Y-50500000D02*
X155112836Y-52612820D01*
X155112836Y-52612820D02*
X186336682Y-52612819D01*
X215787178Y-54813423D02*
X222056843Y-61083088D01*
X215787178Y-52055811D02*
X215787178Y-54813423D01*
X203795725Y-51153776D02*
X205450867Y-49498634D01*
X187795726Y-51153776D02*
X203795725Y-51153776D01*
X220000000Y-28600000D02*
X218310000Y-28600000D01*
X220900000Y-29500000D02*
X220000000Y-28600000D01*
X223220599Y-33420599D02*
X220900000Y-31100000D01*
X223220599Y-45679401D02*
X223220599Y-33420599D01*
X220900000Y-31100000D02*
X220900000Y-29500000D01*
X224680767Y-64219233D02*
X224680767Y-55431259D01*
X218310000Y-28600000D02*
X217030000Y-29880000D01*
X223400000Y-65500000D02*
X224680767Y-64219233D01*
X224680767Y-55431259D02*
X221700000Y-52450492D01*
X221700000Y-52450492D02*
X221700000Y-52400000D01*
X222150000Y-46750000D02*
X220750000Y-46750000D01*
X222150000Y-46750000D02*
X223220599Y-45679401D01*
X220750000Y-46750000D02*
X220100000Y-47400000D01*
X220100000Y-47400000D02*
X220100000Y-50800000D01*
X220100000Y-50800000D02*
X221700000Y-52400000D01*
X106699133Y-50458811D02*
X106666231Y-50491713D01*
X108446234Y-50605045D02*
X108300000Y-50458811D01*
X108300000Y-50458811D02*
X106699133Y-50458811D01*
X153000016Y-50500000D02*
X152894971Y-50605045D01*
X152894971Y-50605045D02*
X108446234Y-50605045D01*
X101300000Y-51300000D02*
X101400000Y-51400000D01*
X75900000Y-51300000D02*
X101300000Y-51300000D01*
X107826759Y-51011456D02*
X107599994Y-51238221D01*
X152167612Y-51011456D02*
X107826759Y-51011456D01*
X153008536Y-51852380D02*
X152167612Y-51011456D01*
X221650432Y-64950432D02*
X223400000Y-66700000D01*
X215380767Y-54981763D02*
X221650432Y-61251428D01*
X213061661Y-49905045D02*
X215380767Y-52224151D01*
X153008536Y-51852380D02*
X154175418Y-53019261D01*
X154175418Y-53019261D02*
X186505023Y-53019229D01*
X205619207Y-49905045D02*
X213061661Y-49905045D01*
X221650432Y-61251428D02*
X221650432Y-64950432D01*
X215380767Y-52224151D02*
X215380767Y-54981763D01*
X187964066Y-51560187D02*
X203964066Y-51560187D01*
X203964066Y-51560187D02*
X205619207Y-49905045D01*
X186505023Y-53019229D02*
X187964066Y-51560187D01*
X223867945Y-55767947D02*
X223867945Y-59032055D01*
X218300000Y-33690000D02*
X218300000Y-46100000D01*
X214490000Y-29880000D02*
X218300000Y-33690000D01*
X223867945Y-59032055D02*
X223100000Y-59800000D01*
X218300000Y-46100000D02*
X219249999Y-47049999D01*
X219249999Y-51150001D02*
X223867945Y-55767947D01*
X219249999Y-47049999D02*
X219249999Y-51150001D01*
X200032246Y-43700000D02*
X207491058Y-36241188D01*
X192900000Y-43700000D02*
X200032246Y-43700000D01*
X144366975Y-38807776D02*
X147581162Y-35593589D01*
X189080265Y-45093589D02*
X190332722Y-43841132D01*
X185821856Y-45093589D02*
X189080265Y-45093589D01*
X176321856Y-35593589D02*
X185821856Y-45093589D01*
X147581162Y-35593589D02*
X176321856Y-35593589D01*
X112631109Y-38807776D02*
X144366975Y-38807776D01*
X105853409Y-45585476D02*
X112631109Y-38807776D01*
X67000000Y-47000000D02*
X67500000Y-46500000D01*
X67500000Y-46500000D02*
X102200000Y-46500000D01*
X224597178Y-27287178D02*
X213963320Y-27287178D01*
X213963320Y-27287178D02*
X212387178Y-28863320D01*
X212387178Y-28863320D02*
X212387178Y-35003964D01*
X227190000Y-29880000D02*
X224597178Y-27287178D01*
X212387178Y-35003964D02*
X211474114Y-35917028D01*
X143500000Y-44259484D02*
X143500000Y-44966590D01*
X151759484Y-36000000D02*
X143500000Y-44259484D01*
X176153516Y-36000000D02*
X151759484Y-36000000D01*
X185653516Y-45500000D02*
X176153516Y-36000000D01*
X190300000Y-45500000D02*
X185653516Y-45500000D01*
X191200000Y-44600000D02*
X190300000Y-45500000D01*
X200800000Y-44500000D02*
X207500000Y-37800000D01*
X193900000Y-44500000D02*
X200800000Y-44500000D01*
X212793589Y-29031660D02*
X212793589Y-36215792D01*
X222463589Y-27693589D02*
X214131660Y-27693589D01*
X212793589Y-36215792D02*
X211501274Y-37508107D01*
X224650000Y-29880000D02*
X222463589Y-27693589D01*
X214131660Y-27693589D02*
X212793589Y-29031660D01*
X211896234Y-60996234D02*
X210106411Y-59206411D01*
X210106411Y-59206411D02*
X210106411Y-52150278D01*
X211165823Y-51090866D02*
X212152330Y-51090866D01*
X210106411Y-52150278D02*
X211165823Y-51090866D01*
X214431911Y-60996234D02*
X211896234Y-60996234D01*
X213200000Y-46633813D02*
X212700700Y-47133113D01*
X220330000Y-28100000D02*
X214300000Y-28100000D01*
X222110000Y-29880000D02*
X220330000Y-28100000D01*
X214300000Y-28100000D02*
X213200000Y-29200000D01*
X213200000Y-29200000D02*
X213200000Y-46633813D01*
X190699996Y-36400004D02*
X192100000Y-35000000D01*
X190699996Y-39900000D02*
X190699996Y-36400004D01*
X192000000Y-45599998D02*
X192000000Y-41200004D01*
X190700000Y-46899998D02*
X192000000Y-45599998D01*
X192000000Y-41200004D02*
X190699996Y-39900000D01*
X192600000Y-34500000D02*
X192100000Y-35000000D01*
X192100000Y-27500000D02*
X192600000Y-28000000D01*
X192600000Y-28000000D02*
X192600000Y-34500000D01*
X203699998Y-46899998D02*
X205079401Y-48279401D01*
X190700000Y-46899998D02*
X203699998Y-46899998D01*
X205079401Y-48279401D02*
X213020599Y-48279401D01*
X213020599Y-48279401D02*
X214702404Y-48279401D01*
X214702404Y-48279401D02*
X217979401Y-48279401D01*
X217979401Y-48279401D02*
X218000000Y-48300000D01*
X239900000Y-29890000D02*
X239890000Y-29880000D01*
X239900000Y-34600000D02*
X239900000Y-29890000D01*
X223800000Y-48300000D02*
X225900000Y-46200000D01*
X225900000Y-44000000D02*
X227900000Y-42000000D01*
X232500000Y-42000000D02*
X239900000Y-34600000D01*
X220900000Y-48300000D02*
X223800000Y-48300000D01*
X225900000Y-46200000D02*
X225900000Y-44000000D01*
X227900000Y-42000000D02*
X232500000Y-42000000D01*
X223942454Y-68385813D02*
X225493588Y-66834679D01*
X215905097Y-56655595D02*
X220837610Y-61588108D01*
X220837610Y-61588108D02*
X220837610Y-66365877D01*
X225493588Y-66834679D02*
X225493588Y-59369001D01*
X225493588Y-59369001D02*
X226998820Y-57863769D01*
X220837610Y-66365877D02*
X222857546Y-68385813D01*
X211292232Y-56655595D02*
X215905097Y-56655595D01*
X222857546Y-68385813D02*
X223942454Y-68385813D01*
X241100000Y-29200000D02*
X240400000Y-28500000D01*
X242400001Y-46689060D02*
X243514188Y-45574873D01*
X241100000Y-30398802D02*
X241100000Y-29200000D01*
X233650000Y-28500000D02*
X232270000Y-29880000D01*
X244246188Y-33544990D02*
X241100000Y-30398802D01*
X244246188Y-41733834D02*
X244246188Y-33544990D01*
X243514188Y-45574873D02*
X243514188Y-42465834D01*
X243000000Y-53000000D02*
X242400001Y-52400001D01*
X242400001Y-52400001D02*
X242400001Y-46689060D01*
X240400000Y-28500000D02*
X233650000Y-28500000D01*
X243514188Y-42465834D02*
X244246188Y-41733834D01*
X211223035Y-59007543D02*
X217682294Y-59007543D01*
X222689206Y-68792224D02*
X224110794Y-68792224D01*
X217682294Y-59007543D02*
X220431199Y-61756448D01*
X220431199Y-66534217D02*
X222689206Y-68792224D01*
X220431199Y-61756448D02*
X220431199Y-66534217D01*
X224110794Y-68792224D02*
X227000016Y-65903002D01*
X227000016Y-65903002D02*
X227000016Y-59723286D01*
X227000016Y-59723286D02*
X227000016Y-59016180D01*
X206000000Y-24400000D02*
X206000000Y-25500000D01*
X226227010Y-22027010D02*
X208372990Y-22027010D01*
X230500001Y-25099999D02*
X228146485Y-25099999D01*
X231000000Y-24600000D02*
X230500001Y-25099999D01*
X228146485Y-25099999D02*
X227300000Y-24253514D01*
X227300000Y-24253514D02*
X227300000Y-23100000D01*
X208372990Y-22027010D02*
X206000000Y-24400000D01*
X227300000Y-23100000D02*
X226227010Y-22027010D01*
X219245386Y-67854614D02*
X219245386Y-63301426D01*
X214900800Y-72199200D02*
X219245386Y-67854614D01*
X214900800Y-74001454D02*
X214900800Y-72199200D01*
X237750000Y-50600000D02*
X239800000Y-50600000D01*
X232270000Y-45120000D02*
X237750000Y-50600000D01*
X27500000Y-30500000D02*
X28500000Y-30500000D01*
X22300000Y-35700000D02*
X27500000Y-30500000D01*
X22300000Y-72000000D02*
X22300000Y-35700000D01*
X21900000Y-72400000D02*
X22300000Y-72000000D01*
X21900000Y-75600000D02*
X21900000Y-72400000D01*
X28084010Y-81784010D02*
X21900000Y-75600000D01*
X41984010Y-81784010D02*
X28084010Y-81784010D01*
X43600000Y-83400000D02*
X41984010Y-81784010D01*
X248206411Y-49906411D02*
X248206411Y-58993598D01*
X247320599Y-49020599D02*
X248206411Y-49906411D01*
X244901127Y-49745359D02*
X245625887Y-49020599D01*
X245625887Y-49020599D02*
X247320599Y-49020599D01*
X244901127Y-50598873D02*
X244901127Y-49745359D01*
X248206411Y-58993598D02*
X223800009Y-83400000D01*
X223800009Y-83400000D02*
X43600000Y-83400000D01*
X218465976Y-62567714D02*
X218863845Y-62169845D01*
X214100000Y-72425250D02*
X218465976Y-68059274D01*
X214700000Y-76500000D02*
X214100000Y-75900000D01*
X218465976Y-68059274D02*
X218465976Y-62567714D01*
X214100000Y-75900000D02*
X214100000Y-72425250D01*
X234810000Y-45120000D02*
X239490000Y-49800000D01*
X239490000Y-49800000D02*
X240800000Y-49800000D01*
X22706411Y-48113103D02*
X22706411Y-72168340D01*
X22706411Y-72168340D02*
X22306411Y-72568339D01*
X247800000Y-58825258D02*
X247800000Y-51600000D01*
X42152350Y-81377599D02*
X43768340Y-82993589D01*
X22306411Y-75431661D02*
X28252349Y-81377599D01*
X247800000Y-51600000D02*
X246000000Y-49800000D01*
X223631669Y-82993589D02*
X247800000Y-58825258D01*
X43768340Y-82993589D02*
X223631669Y-82993589D01*
X28500000Y-43500000D02*
X27319514Y-43500000D01*
X28252349Y-81377599D02*
X42152350Y-81377599D01*
X22306411Y-72568339D02*
X22306411Y-75431661D01*
X27319514Y-43500000D02*
X22706411Y-48113103D01*
X27520599Y-55520599D02*
X24579401Y-55520599D01*
X24579401Y-55520599D02*
X23112822Y-56987178D01*
X28500000Y-56500000D02*
X27520599Y-55520599D01*
X23112822Y-56987178D02*
X23112821Y-72336681D01*
X244120599Y-51520598D02*
X244120599Y-48479389D01*
X244700000Y-52099999D02*
X244120599Y-51520598D01*
X43936680Y-82587178D02*
X221012822Y-82587178D01*
X28420688Y-80971188D02*
X42320690Y-80971188D01*
X244120599Y-48479389D02*
X244900000Y-47699988D01*
X42320690Y-80971188D02*
X43936680Y-82587178D01*
X244029401Y-58494113D02*
X244029401Y-55447085D01*
X221012822Y-82587178D02*
X241800000Y-61800000D01*
X244700000Y-54776486D02*
X244700000Y-52099999D01*
X22712822Y-72736679D02*
X22712822Y-75263322D01*
X244029401Y-55447085D02*
X244700000Y-54776486D01*
X241800000Y-60723514D02*
X244029401Y-58494113D01*
X241800000Y-61800000D02*
X241800000Y-60723514D01*
X22712822Y-75263322D02*
X28420688Y-80971188D01*
X23112821Y-72336681D02*
X22712822Y-72736679D01*
X218059565Y-61568501D02*
X217953841Y-61462777D01*
X218059565Y-67890934D02*
X218059565Y-61568501D01*
X210700000Y-75900000D02*
X210700000Y-75250499D01*
X210700000Y-75250499D02*
X218059565Y-67890934D01*
X217280164Y-63105819D02*
X217280164Y-62398713D01*
X217280164Y-68093078D02*
X217280164Y-63105819D01*
X209900000Y-78400000D02*
X209900000Y-75473242D01*
X209900000Y-75473242D02*
X217280164Y-68093078D01*
X27114188Y-68114188D02*
X24491547Y-68114188D01*
X24491547Y-68114188D02*
X23519232Y-69086503D01*
X28589027Y-80564777D02*
X42489030Y-80564777D01*
X44105019Y-82180767D02*
X220844482Y-82180767D01*
X220844482Y-82180767D02*
X241306409Y-61718840D01*
X241306409Y-61718840D02*
X241306409Y-59968341D01*
X244293589Y-54608146D02*
X244293589Y-52268339D01*
X244293589Y-52268339D02*
X243714188Y-51688938D01*
X23119233Y-72905019D02*
X23119233Y-75094983D01*
X243714188Y-51688938D02*
X243714188Y-47103138D01*
X243714188Y-47103138D02*
X243796736Y-47020590D01*
X28500000Y-69500000D02*
X27114188Y-68114188D01*
X42489030Y-80564777D02*
X44105019Y-82180767D01*
X241564188Y-57337547D02*
X244293589Y-54608146D01*
X23519232Y-69086503D02*
X23519230Y-72505023D01*
X241306409Y-59968341D02*
X241564188Y-59710562D01*
X241564188Y-59710562D02*
X241564188Y-57337547D01*
X23119233Y-75094983D02*
X28589027Y-80564777D01*
X23519230Y-72505023D02*
X23119233Y-72905019D01*
X210687608Y-34087144D02*
X210687608Y-37877290D01*
X229620597Y-27720599D02*
X229520598Y-27820598D01*
X210687608Y-37877290D02*
X211470424Y-38660106D01*
X214680406Y-25420590D02*
X211574356Y-28526640D01*
X221920590Y-25420590D02*
X214680406Y-25420590D01*
X211574356Y-33200396D02*
X210687608Y-34087144D01*
X225080767Y-26880767D02*
X223380767Y-26880767D01*
X211574356Y-28526640D02*
X211574356Y-33200396D01*
X226020598Y-27820598D02*
X225080767Y-26880767D01*
X223380767Y-26880767D02*
X221920590Y-25420590D01*
X229520598Y-27820598D02*
X226020598Y-27820598D01*
X231420599Y-27720599D02*
X229620597Y-27720599D01*
X231700000Y-28000000D02*
X231420599Y-27720599D01*
X240550000Y-28000000D02*
X231700000Y-28000000D01*
X242430000Y-29880000D02*
X240550000Y-28000000D01*
X232621977Y-62333410D02*
X227372934Y-57084367D01*
X225087177Y-66666339D02*
X223774114Y-67979402D01*
X221244021Y-66197537D02*
X221244021Y-61419768D01*
X223774114Y-67979402D02*
X223025886Y-67979402D01*
X215246186Y-55421933D02*
X211292232Y-55421933D01*
X221244021Y-61419768D02*
X215246186Y-55421933D01*
X223025886Y-67979402D02*
X221244021Y-66197537D01*
X225087177Y-58621896D02*
X225087177Y-66666339D01*
X226624706Y-57084367D02*
X225087177Y-58621896D01*
X227372934Y-57084367D02*
X226624706Y-57084367D01*
X236133410Y-62333410D02*
X232621977Y-62333410D01*
X74400000Y-25100000D02*
X87000000Y-25100000D01*
X73800000Y-25700000D02*
X74400000Y-25100000D01*
X143500000Y-58700000D02*
X130100000Y-58700000D01*
X144100000Y-58100000D02*
X143500000Y-58700000D01*
X74000000Y-28600000D02*
X74400000Y-28600000D01*
X75500000Y-27500000D02*
X87000000Y-27500000D01*
X74400000Y-28600000D02*
X75500000Y-27500000D01*
X75179410Y-26300000D02*
X86999996Y-26300000D01*
X74600000Y-26879410D02*
X75179410Y-26300000D01*
X143600001Y-59500001D02*
X129607107Y-59500001D01*
X129607107Y-59500001D02*
X128900001Y-59500001D01*
X144100000Y-60000000D02*
X143600001Y-59500001D01*
X142800000Y-60400000D02*
X130099996Y-60400000D01*
X144100000Y-62600000D02*
X144100000Y-61700000D01*
X144100000Y-61700000D02*
X142800000Y-60400000D01*
X210512822Y-57096789D02*
X210512822Y-52924746D01*
X210512822Y-52924746D02*
X210940455Y-52497113D01*
X210940455Y-52497113D02*
X211440454Y-51997114D01*
X211258811Y-57842778D02*
X210512822Y-57096789D01*
X210762824Y-33408911D02*
X210762824Y-28708467D01*
X210281197Y-45357500D02*
X210281197Y-33890538D01*
X210281197Y-33890538D02*
X210762824Y-33408911D01*
X210762824Y-28708467D02*
X210762824Y-28001361D01*
X211630171Y-46706474D02*
X210281197Y-45357500D01*
X217158865Y-80594651D02*
X217158865Y-79560757D01*
X215979160Y-81774356D02*
X217158865Y-80594651D01*
X33000000Y-40301514D02*
X28701514Y-44600000D01*
X44273359Y-81774356D02*
X215979160Y-81774356D01*
X42657371Y-80158367D02*
X44273359Y-81774356D01*
X28757366Y-80158366D02*
X42657371Y-80158367D01*
X23525644Y-74926644D02*
X28757366Y-80158366D01*
X23525644Y-73073359D02*
X23525644Y-74926644D01*
X25399003Y-71200000D02*
X23525644Y-73073359D01*
X28500000Y-71200000D02*
X25399003Y-71200000D01*
X29600000Y-70100000D02*
X28500000Y-71200000D01*
X29600000Y-68674750D02*
X29600000Y-70100000D01*
X23606411Y-62681162D02*
X29600000Y-68674750D01*
X23606411Y-60213103D02*
X23606411Y-62681162D01*
X26319514Y-57500000D02*
X23606411Y-60213103D01*
X33000000Y-39000000D02*
X33000000Y-40301514D01*
X29300000Y-57500000D02*
X26319514Y-57500000D01*
X29800000Y-57000000D02*
X29300000Y-57500000D01*
X29800000Y-54900000D02*
X29800000Y-57000000D01*
X23800000Y-48900000D02*
X29800000Y-54900000D01*
X23800000Y-47594264D02*
X23800000Y-48900000D01*
X26794264Y-44600000D02*
X23800000Y-47594264D01*
X28701514Y-44600000D02*
X26794264Y-44600000D01*
X42825713Y-79751958D02*
X44441699Y-81367945D01*
X30206411Y-54793589D02*
X30206411Y-57168340D01*
X24012822Y-62512822D02*
X30006411Y-68506410D01*
X28668340Y-71606411D02*
X25567343Y-71606411D01*
X25567343Y-71606411D02*
X23932055Y-73241699D01*
X33000000Y-52000000D02*
X30206411Y-54793589D01*
X23932055Y-73241699D02*
X23932055Y-74758305D01*
X29468340Y-57906411D02*
X26540075Y-57906411D01*
X26540075Y-57906411D02*
X24012822Y-60433662D01*
X44441699Y-81367945D02*
X215261811Y-81367945D01*
X30006411Y-70268340D02*
X28668340Y-71606411D01*
X215261811Y-81367945D02*
X216214875Y-80414881D01*
X28925706Y-79751956D02*
X42825713Y-79751958D01*
X23932055Y-74758305D02*
X28925706Y-79751956D01*
X30006411Y-68506410D02*
X30006411Y-70268340D01*
X24012822Y-60433662D02*
X24012822Y-62512822D01*
X30206411Y-57168340D02*
X29468340Y-57906411D01*
X162600000Y-25700000D02*
X164000000Y-24300000D01*
X154200000Y-25700000D02*
X162600000Y-25700000D01*
X164000000Y-24300000D02*
X164800000Y-24300000D01*
X164799998Y-26700000D02*
X161785818Y-29714180D01*
X161785818Y-29714180D02*
X154388505Y-29714180D01*
X164100000Y-26200000D02*
X164300001Y-25999999D01*
X164300001Y-25999999D02*
X164800000Y-25500000D01*
X154200000Y-28200000D02*
X156200000Y-26200000D01*
X156200000Y-26200000D02*
X164100000Y-26200000D01*
X204580590Y-79280590D02*
X206100000Y-80800000D01*
X206100000Y-80800000D02*
X214200000Y-80800000D01*
X214200000Y-80800000D02*
X215400000Y-79600000D01*
X35980590Y-79280590D02*
X35400000Y-78700000D01*
X35980590Y-79280590D02*
X204580590Y-79280590D01*
D29*
X51904808Y-58700000D02*
X51900000Y-58695192D01*
X64000000Y-58700000D02*
X51904808Y-58700000D01*
X65200000Y-57500000D02*
X64000000Y-58700000D01*
D28*
X205974179Y-78874179D02*
X36874179Y-78874179D01*
X206238680Y-79138680D02*
X205974179Y-78874179D01*
X36874179Y-78874179D02*
X34469268Y-76469268D01*
D29*
X52895190Y-59600000D02*
X52800000Y-59504810D01*
X65200000Y-60000000D02*
X64800000Y-59600000D01*
X64800000Y-59600000D02*
X52895190Y-59600000D01*
X52047587Y-60500000D02*
X51900000Y-60352413D01*
X65200000Y-62500000D02*
X63200000Y-60500000D01*
X63200000Y-60500000D02*
X52047587Y-60500000D01*
D28*
X30970599Y-34470599D02*
X31750000Y-35250000D01*
X25250000Y-35250000D02*
X26029401Y-34470599D01*
X26029401Y-34470599D02*
X30970599Y-34470599D01*
X30800001Y-47300001D02*
X31750000Y-48250000D01*
X26199999Y-47300001D02*
X30800001Y-47300001D01*
X25250000Y-48250000D02*
X26199999Y-47300001D01*
X30970599Y-60470599D02*
X31750000Y-61250000D01*
X25250000Y-61250000D02*
X26029401Y-60470599D01*
X26029401Y-60470599D02*
X30970599Y-60470599D01*
X30800001Y-73300001D02*
X31750000Y-74250000D01*
X27142265Y-73300001D02*
X30800001Y-73300001D01*
X25928366Y-73571634D02*
X26870632Y-73571634D01*
X25250000Y-74250000D02*
X25928366Y-73571634D01*
X26870632Y-73571634D02*
X27142265Y-73300001D01*
X103014473Y-59423027D02*
X103500000Y-58937500D01*
X103014473Y-61314473D02*
X103014473Y-59423027D01*
X104100000Y-61725000D02*
X103425000Y-61725000D01*
X103425000Y-61725000D02*
X103014473Y-61314473D01*
X182000000Y-59437500D02*
X182500000Y-58937500D01*
X183100000Y-61725000D02*
X182125000Y-61725000D01*
X182000000Y-61600000D02*
X182000000Y-59437500D01*
X182125000Y-61725000D02*
X182000000Y-61600000D01*
M02*
