G04 #@! TF.GenerationSoftware,KiCad,Pcbnew,(5.1.6)-1*
G04 #@! TF.CreationDate,2020-09-10T04:38:29+10:00*
G04 #@! TF.ProjectId,EncoderBoard,456e636f-6465-4724-926f-6172642e6b69,C*
G04 #@! TF.SameCoordinates,Original*
G04 #@! TF.FileFunction,Paste,Top*
G04 #@! TF.FilePolarity,Positive*
%FSLAX46Y46*%
G04 Gerber Fmt 4.6, Leading zero omitted, Abs format (unit mm)*
G04 Created by KiCad (PCBNEW (5.1.6)-1) date 2020-09-10 04:38:29*
%MOMM*%
%LPD*%
G01*
G04 APERTURE LIST*
%ADD10O,1.500000X0.900000*%
%ADD11R,1.500000X0.900000*%
%ADD12R,1.500000X0.450000*%
%ADD13O,1.500000X0.450000*%
G04 APERTURE END LIST*
D10*
X214950000Y-66150000D03*
X214950000Y-62850000D03*
X210050000Y-66150000D03*
D11*
X210050000Y-62850000D03*
G36*
G01*
X182043750Y-58450000D02*
X182956250Y-58450000D01*
G75*
G02*
X183200000Y-58693750I0J-243750D01*
G01*
X183200000Y-59181250D01*
G75*
G02*
X182956250Y-59425000I-243750J0D01*
G01*
X182043750Y-59425000D01*
G75*
G02*
X181800000Y-59181250I0J243750D01*
G01*
X181800000Y-58693750D01*
G75*
G02*
X182043750Y-58450000I243750J0D01*
G01*
G37*
G36*
G01*
X182043750Y-56575000D02*
X182956250Y-56575000D01*
G75*
G02*
X183200000Y-56818750I0J-243750D01*
G01*
X183200000Y-57306250D01*
G75*
G02*
X182956250Y-57550000I-243750J0D01*
G01*
X182043750Y-57550000D01*
G75*
G02*
X181800000Y-57306250I0J243750D01*
G01*
X181800000Y-56818750D01*
G75*
G02*
X182043750Y-56575000I243750J0D01*
G01*
G37*
X187950000Y-33650000D03*
D10*
X187950000Y-30350000D03*
X183050000Y-33650000D03*
X183050000Y-30350000D03*
G36*
G01*
X190456250Y-33925000D02*
X189543750Y-33925000D01*
G75*
G02*
X189300000Y-33681250I0J243750D01*
G01*
X189300000Y-33193750D01*
G75*
G02*
X189543750Y-32950000I243750J0D01*
G01*
X190456250Y-32950000D01*
G75*
G02*
X190700000Y-33193750I0J-243750D01*
G01*
X190700000Y-33681250D01*
G75*
G02*
X190456250Y-33925000I-243750J0D01*
G01*
G37*
G36*
G01*
X190456250Y-32050000D02*
X189543750Y-32050000D01*
G75*
G02*
X189300000Y-31806250I0J243750D01*
G01*
X189300000Y-31318750D01*
G75*
G02*
X189543750Y-31075000I243750J0D01*
G01*
X190456250Y-31075000D01*
G75*
G02*
X190700000Y-31318750I0J-243750D01*
G01*
X190700000Y-31806250D01*
G75*
G02*
X190456250Y-32050000I-243750J0D01*
G01*
G37*
X220550000Y-22850000D03*
X220550000Y-26150000D03*
X225450000Y-22850000D03*
D11*
X225450000Y-26150000D03*
D10*
X228550000Y-22850000D03*
X228550000Y-26150000D03*
X233450000Y-22850000D03*
D11*
X233450000Y-26150000D03*
D10*
X236550000Y-22850000D03*
X236550000Y-26150000D03*
X241450000Y-22850000D03*
D11*
X241450000Y-26150000D03*
D10*
X175950000Y-66150000D03*
X175950000Y-62850000D03*
X171050000Y-66150000D03*
D11*
X171050000Y-62850000D03*
D10*
X136950000Y-66150000D03*
X136950000Y-62850000D03*
X132050000Y-66150000D03*
D11*
X132050000Y-62850000D03*
D10*
X97950000Y-66150000D03*
X97950000Y-62850000D03*
X93050000Y-66150000D03*
D11*
X93050000Y-62850000D03*
D10*
X58950000Y-66150000D03*
X58950000Y-62850000D03*
X54050000Y-66150000D03*
D11*
X54050000Y-62850000D03*
X70950000Y-33650000D03*
D10*
X70950000Y-30350000D03*
X66050000Y-33650000D03*
X66050000Y-30350000D03*
D11*
X109950000Y-33650000D03*
D10*
X109950000Y-30350000D03*
X105050000Y-33650000D03*
X105050000Y-30350000D03*
D11*
X148950000Y-33650000D03*
D10*
X148950000Y-30350000D03*
X144050000Y-33650000D03*
X144050000Y-30350000D03*
G36*
G01*
X106550000Y-58043750D02*
X106550000Y-58956250D01*
G75*
G02*
X106306250Y-59200000I-243750J0D01*
G01*
X105818750Y-59200000D01*
G75*
G02*
X105575000Y-58956250I0J243750D01*
G01*
X105575000Y-58043750D01*
G75*
G02*
X105818750Y-57800000I243750J0D01*
G01*
X106306250Y-57800000D01*
G75*
G02*
X106550000Y-58043750I0J-243750D01*
G01*
G37*
G36*
G01*
X108425000Y-58043750D02*
X108425000Y-58956250D01*
G75*
G02*
X108181250Y-59200000I-243750J0D01*
G01*
X107693750Y-59200000D01*
G75*
G02*
X107450000Y-58956250I0J243750D01*
G01*
X107450000Y-58043750D01*
G75*
G02*
X107693750Y-57800000I243750J0D01*
G01*
X108181250Y-57800000D01*
G75*
G02*
X108425000Y-58043750I0J-243750D01*
G01*
G37*
G36*
G01*
X106225000Y-54425000D02*
X106225000Y-56575000D01*
G75*
G02*
X105975000Y-56825000I-250000J0D01*
G01*
X105225000Y-56825000D01*
G75*
G02*
X104975000Y-56575000I0J250000D01*
G01*
X104975000Y-54425000D01*
G75*
G02*
X105225000Y-54175000I250000J0D01*
G01*
X105975000Y-54175000D01*
G75*
G02*
X106225000Y-54425000I0J-250000D01*
G01*
G37*
G36*
G01*
X109025000Y-54425000D02*
X109025000Y-56575000D01*
G75*
G02*
X108775000Y-56825000I-250000J0D01*
G01*
X108025000Y-56825000D01*
G75*
G02*
X107775000Y-56575000I0J250000D01*
G01*
X107775000Y-54425000D01*
G75*
G02*
X108025000Y-54175000I250000J0D01*
G01*
X108775000Y-54175000D01*
G75*
G02*
X109025000Y-54425000I0J-250000D01*
G01*
G37*
G36*
G01*
X185550000Y-58043750D02*
X185550000Y-58956250D01*
G75*
G02*
X185306250Y-59200000I-243750J0D01*
G01*
X184818750Y-59200000D01*
G75*
G02*
X184575000Y-58956250I0J243750D01*
G01*
X184575000Y-58043750D01*
G75*
G02*
X184818750Y-57800000I243750J0D01*
G01*
X185306250Y-57800000D01*
G75*
G02*
X185550000Y-58043750I0J-243750D01*
G01*
G37*
G36*
G01*
X187425000Y-58043750D02*
X187425000Y-58956250D01*
G75*
G02*
X187181250Y-59200000I-243750J0D01*
G01*
X186693750Y-59200000D01*
G75*
G02*
X186450000Y-58956250I0J243750D01*
G01*
X186450000Y-58043750D01*
G75*
G02*
X186693750Y-57800000I243750J0D01*
G01*
X187181250Y-57800000D01*
G75*
G02*
X187425000Y-58043750I0J-243750D01*
G01*
G37*
G36*
G01*
X185225000Y-54425000D02*
X185225000Y-56575000D01*
G75*
G02*
X184975000Y-56825000I-250000J0D01*
G01*
X184225000Y-56825000D01*
G75*
G02*
X183975000Y-56575000I0J250000D01*
G01*
X183975000Y-54425000D01*
G75*
G02*
X184225000Y-54175000I250000J0D01*
G01*
X184975000Y-54175000D01*
G75*
G02*
X185225000Y-54425000I0J-250000D01*
G01*
G37*
G36*
G01*
X188025000Y-54425000D02*
X188025000Y-56575000D01*
G75*
G02*
X187775000Y-56825000I-250000J0D01*
G01*
X187025000Y-56825000D01*
G75*
G02*
X186775000Y-56575000I0J250000D01*
G01*
X186775000Y-54425000D01*
G75*
G02*
X187025000Y-54175000I250000J0D01*
G01*
X187775000Y-54175000D01*
G75*
G02*
X188025000Y-54425000I0J-250000D01*
G01*
G37*
G36*
G01*
X207543750Y-64450000D02*
X208456250Y-64450000D01*
G75*
G02*
X208700000Y-64693750I0J-243750D01*
G01*
X208700000Y-65181250D01*
G75*
G02*
X208456250Y-65425000I-243750J0D01*
G01*
X207543750Y-65425000D01*
G75*
G02*
X207300000Y-65181250I0J243750D01*
G01*
X207300000Y-64693750D01*
G75*
G02*
X207543750Y-64450000I243750J0D01*
G01*
G37*
G36*
G01*
X207543750Y-62575000D02*
X208456250Y-62575000D01*
G75*
G02*
X208700000Y-62818750I0J-243750D01*
G01*
X208700000Y-63306250D01*
G75*
G02*
X208456250Y-63550000I-243750J0D01*
G01*
X207543750Y-63550000D01*
G75*
G02*
X207300000Y-63306250I0J243750D01*
G01*
X207300000Y-62818750D01*
G75*
G02*
X207543750Y-62575000I243750J0D01*
G01*
G37*
G36*
G01*
X168543750Y-64450000D02*
X169456250Y-64450000D01*
G75*
G02*
X169700000Y-64693750I0J-243750D01*
G01*
X169700000Y-65181250D01*
G75*
G02*
X169456250Y-65425000I-243750J0D01*
G01*
X168543750Y-65425000D01*
G75*
G02*
X168300000Y-65181250I0J243750D01*
G01*
X168300000Y-64693750D01*
G75*
G02*
X168543750Y-64450000I243750J0D01*
G01*
G37*
G36*
G01*
X168543750Y-62575000D02*
X169456250Y-62575000D01*
G75*
G02*
X169700000Y-62818750I0J-243750D01*
G01*
X169700000Y-63306250D01*
G75*
G02*
X169456250Y-63550000I-243750J0D01*
G01*
X168543750Y-63550000D01*
G75*
G02*
X168300000Y-63306250I0J243750D01*
G01*
X168300000Y-62818750D01*
G75*
G02*
X168543750Y-62575000I243750J0D01*
G01*
G37*
G36*
G01*
X129543750Y-64450000D02*
X130456250Y-64450000D01*
G75*
G02*
X130700000Y-64693750I0J-243750D01*
G01*
X130700000Y-65181250D01*
G75*
G02*
X130456250Y-65425000I-243750J0D01*
G01*
X129543750Y-65425000D01*
G75*
G02*
X129300000Y-65181250I0J243750D01*
G01*
X129300000Y-64693750D01*
G75*
G02*
X129543750Y-64450000I243750J0D01*
G01*
G37*
G36*
G01*
X129543750Y-62575000D02*
X130456250Y-62575000D01*
G75*
G02*
X130700000Y-62818750I0J-243750D01*
G01*
X130700000Y-63306250D01*
G75*
G02*
X130456250Y-63550000I-243750J0D01*
G01*
X129543750Y-63550000D01*
G75*
G02*
X129300000Y-63306250I0J243750D01*
G01*
X129300000Y-62818750D01*
G75*
G02*
X129543750Y-62575000I243750J0D01*
G01*
G37*
G36*
G01*
X90543750Y-64450000D02*
X91456250Y-64450000D01*
G75*
G02*
X91700000Y-64693750I0J-243750D01*
G01*
X91700000Y-65181250D01*
G75*
G02*
X91456250Y-65425000I-243750J0D01*
G01*
X90543750Y-65425000D01*
G75*
G02*
X90300000Y-65181250I0J243750D01*
G01*
X90300000Y-64693750D01*
G75*
G02*
X90543750Y-64450000I243750J0D01*
G01*
G37*
G36*
G01*
X90543750Y-62575000D02*
X91456250Y-62575000D01*
G75*
G02*
X91700000Y-62818750I0J-243750D01*
G01*
X91700000Y-63306250D01*
G75*
G02*
X91456250Y-63550000I-243750J0D01*
G01*
X90543750Y-63550000D01*
G75*
G02*
X90300000Y-63306250I0J243750D01*
G01*
X90300000Y-62818750D01*
G75*
G02*
X90543750Y-62575000I243750J0D01*
G01*
G37*
G36*
G01*
X51543750Y-64450000D02*
X52456250Y-64450000D01*
G75*
G02*
X52700000Y-64693750I0J-243750D01*
G01*
X52700000Y-65181250D01*
G75*
G02*
X52456250Y-65425000I-243750J0D01*
G01*
X51543750Y-65425000D01*
G75*
G02*
X51300000Y-65181250I0J243750D01*
G01*
X51300000Y-64693750D01*
G75*
G02*
X51543750Y-64450000I243750J0D01*
G01*
G37*
G36*
G01*
X51543750Y-62575000D02*
X52456250Y-62575000D01*
G75*
G02*
X52700000Y-62818750I0J-243750D01*
G01*
X52700000Y-63306250D01*
G75*
G02*
X52456250Y-63550000I-243750J0D01*
G01*
X51543750Y-63550000D01*
G75*
G02*
X51300000Y-63306250I0J243750D01*
G01*
X51300000Y-62818750D01*
G75*
G02*
X51543750Y-62575000I243750J0D01*
G01*
G37*
G36*
G01*
X73456250Y-33925000D02*
X72543750Y-33925000D01*
G75*
G02*
X72300000Y-33681250I0J243750D01*
G01*
X72300000Y-33193750D01*
G75*
G02*
X72543750Y-32950000I243750J0D01*
G01*
X73456250Y-32950000D01*
G75*
G02*
X73700000Y-33193750I0J-243750D01*
G01*
X73700000Y-33681250D01*
G75*
G02*
X73456250Y-33925000I-243750J0D01*
G01*
G37*
G36*
G01*
X73456250Y-32050000D02*
X72543750Y-32050000D01*
G75*
G02*
X72300000Y-31806250I0J243750D01*
G01*
X72300000Y-31318750D01*
G75*
G02*
X72543750Y-31075000I243750J0D01*
G01*
X73456250Y-31075000D01*
G75*
G02*
X73700000Y-31318750I0J-243750D01*
G01*
X73700000Y-31806250D01*
G75*
G02*
X73456250Y-32050000I-243750J0D01*
G01*
G37*
G36*
G01*
X112456250Y-33925000D02*
X111543750Y-33925000D01*
G75*
G02*
X111300000Y-33681250I0J243750D01*
G01*
X111300000Y-33193750D01*
G75*
G02*
X111543750Y-32950000I243750J0D01*
G01*
X112456250Y-32950000D01*
G75*
G02*
X112700000Y-33193750I0J-243750D01*
G01*
X112700000Y-33681250D01*
G75*
G02*
X112456250Y-33925000I-243750J0D01*
G01*
G37*
G36*
G01*
X112456250Y-32050000D02*
X111543750Y-32050000D01*
G75*
G02*
X111300000Y-31806250I0J243750D01*
G01*
X111300000Y-31318750D01*
G75*
G02*
X111543750Y-31075000I243750J0D01*
G01*
X112456250Y-31075000D01*
G75*
G02*
X112700000Y-31318750I0J-243750D01*
G01*
X112700000Y-31806250D01*
G75*
G02*
X112456250Y-32050000I-243750J0D01*
G01*
G37*
G36*
G01*
X151456250Y-33925000D02*
X150543750Y-33925000D01*
G75*
G02*
X150300000Y-33681250I0J243750D01*
G01*
X150300000Y-33193750D01*
G75*
G02*
X150543750Y-32950000I243750J0D01*
G01*
X151456250Y-32950000D01*
G75*
G02*
X151700000Y-33193750I0J-243750D01*
G01*
X151700000Y-33681250D01*
G75*
G02*
X151456250Y-33925000I-243750J0D01*
G01*
G37*
G36*
G01*
X151456250Y-32050000D02*
X150543750Y-32050000D01*
G75*
G02*
X150300000Y-31806250I0J243750D01*
G01*
X150300000Y-31318750D01*
G75*
G02*
X150543750Y-31075000I243750J0D01*
G01*
X151456250Y-31075000D01*
G75*
G02*
X151700000Y-31318750I0J-243750D01*
G01*
X151700000Y-31806250D01*
G75*
G02*
X151456250Y-32050000I-243750J0D01*
G01*
G37*
G36*
G01*
X231550000Y-49043750D02*
X231550000Y-49956250D01*
G75*
G02*
X231306250Y-50200000I-243750J0D01*
G01*
X230818750Y-50200000D01*
G75*
G02*
X230575000Y-49956250I0J243750D01*
G01*
X230575000Y-49043750D01*
G75*
G02*
X230818750Y-48800000I243750J0D01*
G01*
X231306250Y-48800000D01*
G75*
G02*
X231550000Y-49043750I0J-243750D01*
G01*
G37*
G36*
G01*
X233425000Y-49043750D02*
X233425000Y-49956250D01*
G75*
G02*
X233181250Y-50200000I-243750J0D01*
G01*
X232693750Y-50200000D01*
G75*
G02*
X232450000Y-49956250I0J243750D01*
G01*
X232450000Y-49043750D01*
G75*
G02*
X232693750Y-48800000I243750J0D01*
G01*
X233181250Y-48800000D01*
G75*
G02*
X233425000Y-49043750I0J-243750D01*
G01*
G37*
G36*
G01*
X230550000Y-47043750D02*
X230550000Y-47956250D01*
G75*
G02*
X230306250Y-48200000I-243750J0D01*
G01*
X229818750Y-48200000D01*
G75*
G02*
X229575000Y-47956250I0J243750D01*
G01*
X229575000Y-47043750D01*
G75*
G02*
X229818750Y-46800000I243750J0D01*
G01*
X230306250Y-46800000D01*
G75*
G02*
X230550000Y-47043750I0J-243750D01*
G01*
G37*
G36*
G01*
X232425000Y-47043750D02*
X232425000Y-47956250D01*
G75*
G02*
X232181250Y-48200000I-243750J0D01*
G01*
X231693750Y-48200000D01*
G75*
G02*
X231450000Y-47956250I0J243750D01*
G01*
X231450000Y-47043750D01*
G75*
G02*
X231693750Y-46800000I243750J0D01*
G01*
X232181250Y-46800000D01*
G75*
G02*
X232425000Y-47043750I0J-243750D01*
G01*
G37*
D12*
X104100000Y-60425000D03*
D13*
X104100000Y-61075000D03*
X104100000Y-61725000D03*
X104100000Y-62375000D03*
X104100000Y-63025000D03*
X104100000Y-63675000D03*
X104100000Y-64325000D03*
X104100000Y-64975000D03*
X104100000Y-65625000D03*
X104100000Y-66275000D03*
X104100000Y-66925000D03*
X104100000Y-67575000D03*
X109900000Y-67575000D03*
X109900000Y-66925000D03*
X109900000Y-66275000D03*
X109900000Y-65625000D03*
X109900000Y-64975000D03*
X109900000Y-64325000D03*
X109900000Y-63675000D03*
X109900000Y-63025000D03*
X109900000Y-62375000D03*
X109900000Y-61725000D03*
X109900000Y-61075000D03*
X109900000Y-60425000D03*
D12*
X183100000Y-60425000D03*
D13*
X183100000Y-61075000D03*
X183100000Y-61725000D03*
X183100000Y-62375000D03*
X183100000Y-63025000D03*
X183100000Y-63675000D03*
X183100000Y-64325000D03*
X183100000Y-64975000D03*
X183100000Y-65625000D03*
X183100000Y-66275000D03*
X183100000Y-66925000D03*
X183100000Y-67575000D03*
X188900000Y-67575000D03*
X188900000Y-66925000D03*
X188900000Y-66275000D03*
X188900000Y-65625000D03*
X188900000Y-64975000D03*
X188900000Y-64325000D03*
X188900000Y-63675000D03*
X188900000Y-63025000D03*
X188900000Y-62375000D03*
X188900000Y-61725000D03*
X188900000Y-61075000D03*
X188900000Y-60425000D03*
G36*
G01*
X103043750Y-56575000D02*
X103956250Y-56575000D01*
G75*
G02*
X104200000Y-56818750I0J-243750D01*
G01*
X104200000Y-57306250D01*
G75*
G02*
X103956250Y-57550000I-243750J0D01*
G01*
X103043750Y-57550000D01*
G75*
G02*
X102800000Y-57306250I0J243750D01*
G01*
X102800000Y-56818750D01*
G75*
G02*
X103043750Y-56575000I243750J0D01*
G01*
G37*
G36*
G01*
X103043750Y-58450000D02*
X103956250Y-58450000D01*
G75*
G02*
X104200000Y-58693750I0J-243750D01*
G01*
X104200000Y-59181250D01*
G75*
G02*
X103956250Y-59425000I-243750J0D01*
G01*
X103043750Y-59425000D01*
G75*
G02*
X102800000Y-59181250I0J243750D01*
G01*
X102800000Y-58693750D01*
G75*
G02*
X103043750Y-58450000I243750J0D01*
G01*
G37*
M02*
