M48
; DRILL file {KiCad (5.1.2)-1} date 2/06/2020 9:17:32 PM
; FORMAT={3:3/ absolute / metric / suppress leading zeros}
; #@! TF.CreationDate,2020-06-02T21:17:32+10:00
; #@! TF.GenerationSoftware,Kicad,Pcbnew,(5.1.2)-1
FMAT,2
METRIC,TZ
T1C0.381
T2C0.500
T3C0.508
T4C0.762
T5C1.000
T6C1.100
T7C2.600
T8C1.000
T9C3.200
%
G90
G05
T1
X86703Y-67653
X91791Y-73927
X92033Y-76264
X92650Y-68339
X95688Y-68339
X100038Y-80226
X100040Y-81480
X100165Y-79210
X100165Y-82893
X130277Y-81623
X130277Y-82800
X130277Y-83745
X130277Y-84842
X132296Y-95847
X141567Y-83452
X141821Y-81979
X142075Y-84595
X142367Y-82781
X142964Y-95847
X164427Y-74638
X168871Y-67704
X169716Y-74836
X169750Y-72750
X171000Y-68250
X174206Y-80353
X174333Y-78956
X174333Y-81496
X174333Y-82766
X196523Y-71779
X196939Y-77813
X197447Y-74808
X198590Y-69558
X199479Y-55334
X200952Y-75578
X208780Y-65672
X209639Y-96736
X210500Y-63500
X215564Y-87998
X216106Y-88735
X218910Y-96736
X225387Y-70447
X227584Y-65151
X228000Y-71250
X228689Y-54826
X230362Y-53070
X234023Y-60414
X243049Y-87006
X243250Y-85250
X243965Y-82754
X246500Y-73838
X246723Y-85052
X246973Y-86845
X247510Y-87585
X247810Y-86022
X251500Y-104122
X255250Y-84250
X255410Y-85615
X256132Y-102311
X256953Y-100483
X257010Y-98260
X260693Y-74638
X462250Y29000
X462250Y29000
X462250Y29000
X462250Y29000
X462250Y29000
T2
X262650Y-61795
T3
X61341Y-72136
X63119Y-91567
X64008Y-86106
X64135Y-58039
T4
X56350Y-106642
X62446Y-82131
X63462Y-68288
X64608Y-98650
X74765Y-59017
X87084Y-85052
X88608Y-94958
X89280Y-54851
X91021Y-79083
X93434Y-55969
X98387Y-94577
X98641Y-63716
X105594Y-69914
X125311Y-102451
X126073Y-81877
X129375Y-100546
X129375Y-105118
X135550Y-80455
X135979Y-94577
X136250Y-87750
X138265Y-79083
X142075Y-78956
X162903Y-83909
X164173Y-95085
X169253Y-77686
X169888Y-102324
X169888Y-105118
X172936Y-54064
X176365Y-94704
X176492Y-62192
X181064Y-73368
X183604Y-67958
X183702Y-77991
X195923Y-67907
X198463Y-75908
X205067Y-101562
X205067Y-105118
X208500Y-58000
X211477Y-85912
X212000Y-66750
X213830Y-94577
X214988Y-65723
X215100Y-77432
X215354Y-62573
X215481Y-73749
X215989Y-90259
X217250Y-66750
X223250Y-69250
X229578Y-58509
X233134Y-78067
X234150Y-85560
X234277Y-71209
X234707Y-75571
X236411Y-84671
X237833Y-82893
X240881Y-79972
X241770Y-95339
X250025Y-73241
X251147Y-89565
X256481Y-89675
X256883Y-73368
X262344Y-86652
X266154Y-81826
X267000Y-73500
T5
X154000Y-70690
X154000Y-73230
X154000Y-75770
X154000Y-78310
X149000Y-53500
X149000Y-68000
X151500Y-68000
X154000Y-53500
X154000Y-68000
X188000Y-81500
X188000Y-96000
X190500Y-96000
X193000Y-81500
X193000Y-96000
X76000Y-70690
X76000Y-73230
X76000Y-75770
X76000Y-78310
X110000Y-81500
X110000Y-96000
X112500Y-96000
X115000Y-81500
X115000Y-96000
X193000Y-70690
X193000Y-73230
X193000Y-75770
X193000Y-78310
X115000Y-98690
X115000Y-101230
X115000Y-103770
X115000Y-106310
X188000Y-53500
X188000Y-68000
X190500Y-68000
X193000Y-53500
X193000Y-68000
X154000Y-98690
X154000Y-101230
X154000Y-103770
X154000Y-106310
X227000Y-81500
X227000Y-96000
X229500Y-96000
X232000Y-81500
X232000Y-96000
X232000Y-98690
X232000Y-101230
X232000Y-103770
X232000Y-106310
X110000Y-53500
X110000Y-68000
X112500Y-68000
X115000Y-53500
X115000Y-68000
X115000Y-70690
X115000Y-73230
X115000Y-75770
X115000Y-78310
X71000Y-53500
X71000Y-68000
X73500Y-68000
X76000Y-53500
X76000Y-68000
X76000Y-98690
X76000Y-101230
X76000Y-103770
X76000Y-106310
X149000Y-81500
X149000Y-96000
X151500Y-96000
X154000Y-81500
X154000Y-96000
X193000Y-98690
X193000Y-101230
X193000Y-103770
X193000Y-106310
X71000Y-81500
X71000Y-96000
X73500Y-96000
X76000Y-81500
X76000Y-96000
T6
X235980Y-54175
X235980Y-56715
X235980Y-59255
X235980Y-61795
X235980Y-64335
X235980Y-66875
X235980Y-69415
X238520Y-54175
X238520Y-61795
X238520Y-64335
X238520Y-69415
X241060Y-54175
X241060Y-61795
X241060Y-64335
X241060Y-69415
X243600Y-54175
X243600Y-61795
X243600Y-64335
X243600Y-69415
X246140Y-54175
X246140Y-61795
X246140Y-64335
X246140Y-69415
X248680Y-54175
X248680Y-61795
X248680Y-64335
X248680Y-69415
X251220Y-54175
X251220Y-61795
X251220Y-64335
X251220Y-69415
X253760Y-54175
X253760Y-61795
X253760Y-64335
X253760Y-69415
X256300Y-54175
X256300Y-66875
X256300Y-69415
X258840Y-54175
X258840Y-66875
X258840Y-69415
X261380Y-54175
X261380Y-66875
X261380Y-69415
X263920Y-54175
X263920Y-69415
X266460Y-54175
X266460Y-66875
X266460Y-69415
X267730Y-61795
X267730Y-63827
X269000Y-54175
X269000Y-69415
T7
X67900Y-60500
X79100Y-60500
X145900Y-88500
X157100Y-88500
X67900Y-88500
X79100Y-88500
X145900Y-60500
X157100Y-60500
X184900Y-88500
X196100Y-88500
X106900Y-88500
X118100Y-88500
X184900Y-60500
X196100Y-60500
X223900Y-88500
X235100Y-88500
X106900Y-60500
X118100Y-60500
T8
X260900Y-79850
X265100Y-79850
X55900Y-60850
X60100Y-60850
X55900Y-102850
X60100Y-102850
X55900Y-74850
X60100Y-74850
X55900Y-88850
X60100Y-88850
X225400Y-60850
X229600Y-60850
T9
X216000Y-57000
X140000Y-57000
X100000Y-57000
X264000Y-93000
X68000Y-104000
T0
M30
