<?xml version="1.0" encoding="UTF-8" standalone="no"?>
<svg
   xmlns:dc="http://purl.org/dc/elements/1.1/"
   xmlns:cc="http://creativecommons.org/ns#"
   xmlns:rdf="http://www.w3.org/1999/02/22-rdf-syntax-ns#"
   xmlns:svg="http://www.w3.org/2000/svg"
   xmlns="http://www.w3.org/2000/svg"
   xmlns:sodipodi="http://sodipodi.sourceforge.net/DTD/sodipodi-0.dtd"
   xmlns:inkscape="http://www.inkscape.org/namespaces/inkscape"
   version="1.1"
   width="29.7002cm"
   height="21.0007cm"
   viewBox="0 0 116930 82680 "
   id="svg828"
   sodipodi:docname="EncoderBoard-Cmts_User.svg"
   inkscape:version="0.92.1 r15371">
  <metadata
     id="metadata834">
    <rdf:RDF>
      <cc:Work
         rdf:about="">
        <dc:format>image/svg+xml</dc:format>
        <dc:type
           rdf:resource="http://purl.org/dc/dcmitype/StillImage" />
        <dc:title>SVG Picture created as EncoderBoard-Cmts_User.svg date 2019/07/27 16:14:19 </dc:title>
      </cc:Work>
    </rdf:RDF>
  </metadata>
  <defs
     id="defs832" />
  <sodipodi:namedview
     pagecolor="#ffffff"
     bordercolor="#666666"
     borderopacity="1"
     objecttolerance="10"
     gridtolerance="10"
     guidetolerance="10"
     inkscape:pageopacity="0"
     inkscape:pageshadow="2"
     inkscape:window-width="2736"
     inkscape:window-height="1730"
     id="namedview830"
     showgrid="true"
     inkscape:document-units="mm"
     inkscape:zoom="2"
     inkscape:cx="504.10532"
     inkscape:cy="95.935219"
     inkscape:window-x="-11"
     inkscape:window-y="-11"
     inkscape:window-maximized="1"
     inkscape:current-layer="svg828">
    <inkscape:grid
       type="xygrid"
       id="grid836"
       units="mm"
       spacingx="39.370111"
       spacingy="39.370111" />
  </sodipodi:namedview>
  <title
     id="title2">SVG Picture created as EncoderBoard-Cmts_User.svg date 2019/07/27 16:14:19 </title>
  <desc
     id="desc4">Picture generated by PCBNEW </desc>
  <g
     style="fill:#000000; fill-opacity:1;stroke:#000000; stroke-opacity:1; stroke-linecap:round; stroke-linejoin:round; "
     transform="translate(0 0) scale(1 1)"
     id="g6" />
  <g
     style="fill:#000000; fill-opacity:0.0;  stroke:#000000; stroke-width:-0.000393701; stroke-opacity:1;  stroke-linecap:round; stroke-linejoin:round;"
     id="g8" />
  <g
     style="fill:#000000;fill-opacity:0;stroke:#000000;stroke-width:70.8660965;stroke-linecap:round;stroke-linejoin:round;stroke-opacity:1"
     id="g368"
     transform="translate(-19685,38979.19)">
    <path
       d="m 19881.9,19685 a 196.85,196.85 0 0 0 -196.9,196.9"
       id="path10"
       inkscape:connector-curvature="0" />
    <path
       d="m 19685,43503.9 a 196.85,196.85 0 0 0 196.9,196.9"
       id="path12"
       inkscape:connector-curvature="0" />
    <path
       d="m 106496,43700.8 a 196.85,196.85 0 0 0 197,-196.9"
       id="path14"
       inkscape:connector-curvature="0" />
    <path
       d="m 106693,19881.9 a 196.85,196.85 0 0 0 -197,-196.9"
       id="path16"
       inkscape:connector-curvature="0" />
    <path
       d="M 19685,43503 V 19881"
       id="path18"
       inkscape:connector-curvature="0" />
    <path
       d="M 106496,43700 H 19881"
       id="path20"
       inkscape:connector-curvature="0" />
    <path
       d="M 106692,19881 V 43503"
       id="path22"
       inkscape:connector-curvature="0" />
    <path
       d="m 19881,19685 h 86615"
       id="path24"
       inkscape:connector-curvature="0" />
    <path
       d="m 94015,32125 v 4489"
       id="path26"
       inkscape:connector-curvature="0" />
    <path
       d="M 95551,32125 H 94015"
       id="path28"
       inkscape:connector-curvature="0" />
    <path
       d="m 95551,33031 v -906"
       id="path30"
       inkscape:connector-curvature="0" />
    <path
       d="M 96929,33031 H 95551"
       id="path32"
       inkscape:connector-curvature="0" />
    <path
       d="M 96929,36614 V 33031"
       id="path34"
       inkscape:connector-curvature="0" />
    <path
       d="m 94015,36614 h 2914"
       id="path36"
       inkscape:connector-curvature="0" />
    <path
       d="m 99330,39409 v 2362"
       id="path38"
       inkscape:connector-curvature="0" />
    <path
       d="m 98425,39409 h 905"
       id="path40"
       inkscape:connector-curvature="0" />
    <path
       d="m 98425,38149 v 1260"
       id="path42"
       inkscape:connector-curvature="0" />
    <path
       d="M 102244,38149 H 98425"
       id="path44"
       inkscape:connector-curvature="0" />
    <path
       d="M 102244,41771 V 38149"
       id="path46"
       inkscape:connector-curvature="0" />
    <path
       d="m 99330,41771 h 2914"
       id="path48"
       inkscape:connector-curvature="0" />
    <path
       d="m 102322,35787 h 1300"
       id="path50"
       inkscape:connector-curvature="0" />
    <path
       d="M 102322,37086 V 35787"
       id="path52"
       inkscape:connector-curvature="0" />
    <path
       d="m 97677,37086 h 4645"
       id="path54"
       inkscape:connector-curvature="0" />
    <path
       d="m 97677,29842 v 7244"
       id="path56"
       inkscape:connector-curvature="0" />
    <path
       d="M 102322,29842 H 97677"
       id="path58"
       inkscape:connector-curvature="0" />
    <path
       d="M 102322,34094 V 29842"
       id="path60"
       inkscape:connector-curvature="0" />
    <path
       d="m 105826,34094 h -3504"
       id="path62"
       inkscape:connector-curvature="0" />
    <path
       d="M 105826,35275 V 34094"
       id="path64"
       inkscape:connector-curvature="0" />
    <path
       d="m 103622,35275 h 2204"
       id="path66"
       inkscape:connector-curvature="0" />
    <path
       d="m 103622,35787 v -512"
       id="path68"
       inkscape:connector-curvature="0" />
    <path
       d="m 106299,27716 v -787"
       id="path70"
       inkscape:connector-curvature="0" />
    <path
       d="m 106299,21732 v -788"
       id="path72"
       inkscape:connector-curvature="0" />
    <path
       d="m 105787,21732 h 512"
       id="path74"
       inkscape:connector-curvature="0" />
    <path
       d="M 105787,26929 V 21732"
       id="path76"
       inkscape:connector-curvature="0" />
    <path
       d="m 106299,26929 h -512"
       id="path78"
       inkscape:connector-curvature="0" />
    <path
       d="m 87401,33858 h 1457"
       id="path80"
       inkscape:connector-curvature="0" />
    <path
       d="M 88858,33858 V 31614"
       id="path82"
       inkscape:connector-curvature="0" />
    <path
       d="m 86929,30039 v 1338"
       id="path84"
       inkscape:connector-curvature="0" />
    <path
       d="m 86102,30039 h 827"
       id="path86"
       inkscape:connector-curvature="0" />
    <path
       d="m 86102,26456 v 3583"
       id="path88"
       inkscape:connector-curvature="0" />
    <path
       d="m 86850,26456 h -748"
       id="path90"
       inkscape:connector-curvature="0" />
    <path
       d="m 86850,25118 v 1338"
       id="path92"
       inkscape:connector-curvature="0" />
    <path
       d="m 86102,25118 h 748"
       id="path94"
       inkscape:connector-curvature="0" />
    <path
       d="m 86102,23740 v 1378"
       id="path96"
       inkscape:connector-curvature="0" />
    <path
       d="m 83188,23740 h 2914"
       id="path98"
       inkscape:connector-curvature="0" />
    <path
       d="M 83188,26181 V 23740"
       id="path100"
       inkscape:connector-curvature="0" />
    <path
       d="m 82401,26181 h 787"
       id="path102"
       inkscape:connector-curvature="0" />
    <path
       d="M 82401,27559 V 26181"
       id="path104"
       inkscape:connector-curvature="0" />
    <path
       d="m 83188,27559 h -787"
       id="path106"
       inkscape:connector-curvature="0" />
    <path
       d="M 83188,31377 V 27559"
       id="path108"
       inkscape:connector-curvature="0" />
    <path
       d="M 86929,31377 H 83188"
       id="path110"
       inkscape:connector-curvature="0" />
    <path
       d="M 78858,23110 V 20984"
       id="path112"
       inkscape:connector-curvature="0" />
    <path
       d="M 82559,23110 H 78858"
       id="path114"
       inkscape:connector-curvature="0" />
    <path
       d="m 82559,20984 v 2126"
       id="path116"
       inkscape:connector-curvature="0" />
    <path
       d="m 78858,20984 h 3701"
       id="path118"
       inkscape:connector-curvature="0" />
    <path
       d="M 39173,32992 V 31259"
       id="path120"
       inkscape:connector-curvature="0" />
    <path
       d="m 34488,25748 v 8149"
       id="path122"
       inkscape:connector-curvature="0" />
    <path
       d="m 39173,25748 h -906"
       id="path124"
       inkscape:connector-curvature="0" />
    <path
       d="m 35354,25748 h -866"
       id="path126"
       inkscape:connector-curvature="0" />
    <path
       d="M 38267,25748 V 21850"
       id="path128"
       inkscape:connector-curvature="0" />
    <path
       d="M 38267,21850 H 36889"
       id="path130"
       inkscape:connector-curvature="0" />
    <path
       d="m 34488,33897 h 866"
       id="path132"
       inkscape:connector-curvature="0" />
    <path
       d="m 39173,31259 h 2047"
       id="path134"
       inkscape:connector-curvature="0" />
    <path
       d="m 35354,20905 v 4843"
       id="path136"
       inkscape:connector-curvature="0" />
    <path
       d="m 35354,37677 h 2913"
       id="path138"
       inkscape:connector-curvature="0" />
    <path
       d="M 36889,20905 H 35354"
       id="path140"
       inkscape:connector-curvature="0" />
    <path
       d="M 38267,37677 V 32992"
       id="path142"
       inkscape:connector-curvature="0" />
    <path
       d="M 41220,31259 V 29448"
       id="path144"
       inkscape:connector-curvature="0" />
    <path
       d="M 39173,29448 V 25748"
       id="path146"
       inkscape:connector-curvature="0" />
    <path
       d="M 41220,29448 H 39173"
       id="path148"
       inkscape:connector-curvature="0" />
    <path
       d="m 36889,21850 v -945"
       id="path150"
       inkscape:connector-curvature="0" />
    <path
       d="m 38267,32992 h 906"
       id="path152"
       inkscape:connector-curvature="0" />
    <path
       d="m 35354,33897 v 3780"
       id="path154"
       inkscape:connector-curvature="0" />
    <path
       d="m 25984,22834 h 1456"
       id="path156"
       inkscape:connector-curvature="0" />
    <path
       d="M 27440,22834 V 20590"
       id="path158"
       inkscape:connector-curvature="0" />
    <path
       d="m 41338,22834 h 1457"
       id="path160"
       inkscape:connector-curvature="0" />
    <path
       d="M 42795,22834 V 20590"
       id="path162"
       inkscape:connector-curvature="0" />
    <path
       d="m 56692,22834 h 1457"
       id="path164"
       inkscape:connector-curvature="0" />
    <path
       d="M 58149,22834 V 20590"
       id="path166"
       inkscape:connector-curvature="0" />
    <path
       d="M 73503,33858 V 31614"
       id="path168"
       inkscape:connector-curvature="0" />
    <path
       d="m 72047,33858 h 1456"
       id="path170"
       inkscape:connector-curvature="0" />
    <path
       d="M 67598,20866 H 66062"
       id="path172"
       inkscape:connector-curvature="0" />
    <path
       d="m 67598,21811 v -945"
       id="path174"
       inkscape:connector-curvature="0" />
    <path
       d="M 68976,21811 H 67598"
       id="path176"
       inkscape:connector-curvature="0" />
    <path
       d="M 68976,25708 V 21811"
       id="path178"
       inkscape:connector-curvature="0" />
    <path
       d="m 69881,25708 h -905"
       id="path180"
       inkscape:connector-curvature="0" />
    <path
       d="M 69881,29409 V 25708"
       id="path182"
       inkscape:connector-curvature="0" />
    <path
       d="M 71929,29409 H 69881"
       id="path184"
       inkscape:connector-curvature="0" />
    <path
       d="M 71929,31220 V 29409"
       id="path186"
       inkscape:connector-curvature="0" />
    <path
       d="m 69881,31220 h 2048"
       id="path188"
       inkscape:connector-curvature="0" />
    <path
       d="M 69881,32952 V 31220"
       id="path190"
       inkscape:connector-curvature="0" />
    <path
       d="m 68976,32952 h 905"
       id="path192"
       inkscape:connector-curvature="0" />
    <path
       d="M 68976,37637 V 32952"
       id="path194"
       inkscape:connector-curvature="0" />
    <path
       d="m 66062,37637 h 2914"
       id="path196"
       inkscape:connector-curvature="0" />
    <path
       d="m 66062,33858 v 3779"
       id="path198"
       inkscape:connector-curvature="0" />
    <path
       d="m 65196,33858 h 866"
       id="path200"
       inkscape:connector-curvature="0" />
    <path
       d="m 65196,25708 v 8150"
       id="path202"
       inkscape:connector-curvature="0" />
    <path
       d="m 66062,25708 h -866"
       id="path204"
       inkscape:connector-curvature="0" />
    <path
       d="m 66062,20866 v 4842"
       id="path206"
       inkscape:connector-curvature="0" />
    <circle
       cx="26771.699"
       cy="40944.898"
       r="629.92102"
       id="circle208" />
    <circle
       cx="39370.102"
       cy="22440.9"
       r="629.92102"
       id="circle210" />
    <circle
       cx="55118.102"
       cy="22440.9"
       r="629.92102"
       id="circle212" />
    <circle
       cx="85039.398"
       cy="22440.9"
       r="629.92102"
       id="circle214" />
    <circle
       cx="103937"
       cy="36614.199"
       r="629.92102"
       id="circle216" />
    <path
       d="m 92519,20944 v 6772"
       id="path218"
       inkscape:connector-curvature="0" />
    <path
       d="M 106299,20944 H 92519"
       id="path220"
       inkscape:connector-curvature="0" />
    <path
       d="m 92519,27716 h 13780"
       id="path222"
       inkscape:connector-curvature="0" />
    <path
       d="m 75000,27244 v 3976"
       id="path224"
       inkscape:connector-curvature="0" />
    <path
       d="m 78149,27244 h -197"
       id="path226"
       inkscape:connector-curvature="0" />
    <path
       d="m 75000,31220 h 3149"
       id="path228"
       inkscape:connector-curvature="0" />
    <path
       d="M 78149,31220 V 27244"
       id="path230"
       inkscape:connector-curvature="0" />
    <path
       d="M 72047,27244 V 20590"
       id="path232"
       inkscape:connector-curvature="0" />
    <path
       d="M 75000,27244 H 72047"
       id="path234"
       inkscape:connector-curvature="0" />
    <path
       d="m 77952,20590 v 6654"
       id="path236"
       inkscape:connector-curvature="0" />
    <path
       d="m 72047,20590 h 5905"
       id="path238"
       inkscape:connector-curvature="0" />
    <path
       d="m 59645,27244 v 3937"
       id="path240"
       inkscape:connector-curvature="0" />
    <path
       d="m 62795,27244 h -197"
       id="path242"
       inkscape:connector-curvature="0" />
    <path
       d="m 59645,31181 h 3150"
       id="path244"
       inkscape:connector-curvature="0" />
    <path
       d="M 62795,31181 V 27244"
       id="path246"
       inkscape:connector-curvature="0" />
    <path
       d="M 56692,27244 V 22834"
       id="path248"
       inkscape:connector-curvature="0" />
    <path
       d="M 59645,27244 H 56692"
       id="path250"
       inkscape:connector-curvature="0" />
    <path
       d="m 62598,20590 v 6654"
       id="path252"
       inkscape:connector-curvature="0" />
    <path
       d="m 58149,20590 h 4449"
       id="path254"
       inkscape:connector-curvature="0" />
    <path
       d="m 44291,27244 v 3937"
       id="path256"
       inkscape:connector-curvature="0" />
    <path
       d="m 47440,27244 h -196"
       id="path258"
       inkscape:connector-curvature="0" />
    <path
       d="m 44291,31181 h 3149"
       id="path260"
       inkscape:connector-curvature="0" />
    <path
       d="M 47440,31181 V 27244"
       id="path262"
       inkscape:connector-curvature="0" />
    <path
       d="M 41338,27244 V 22834"
       id="path264"
       inkscape:connector-curvature="0" />
    <path
       d="M 44291,27244 H 41338"
       id="path266"
       inkscape:connector-curvature="0" />
    <path
       d="m 47244,20590 v 6654"
       id="path268"
       inkscape:connector-curvature="0" />
    <path
       d="m 42795,20590 h 4449"
       id="path270"
       inkscape:connector-curvature="0" />
    <path
       d="m 28937,27244 v 3937"
       id="path272"
       inkscape:connector-curvature="0" />
    <path
       d="m 32086,27244 h -197"
       id="path274"
       inkscape:connector-curvature="0" />
    <path
       d="m 28937,31181 h 3149"
       id="path276"
       inkscape:connector-curvature="0" />
    <path
       d="M 32086,31181 V 27244"
       id="path278"
       inkscape:connector-curvature="0" />
    <path
       d="M 25984,27244 V 22834"
       id="path280"
       inkscape:connector-curvature="0" />
    <path
       d="M 28937,27244 H 25984"
       id="path282"
       inkscape:connector-curvature="0" />
    <path
       d="m 31889,20590 v 6654"
       id="path284"
       inkscape:connector-curvature="0" />
    <path
       d="m 27440,20590 h 4449"
       id="path286"
       inkscape:connector-curvature="0" />
    <path
       d="m 28937,38267 v 4055"
       id="path288"
       inkscape:connector-curvature="0" />
    <path
       d="m 32086,38267 h -197"
       id="path290"
       inkscape:connector-curvature="0" />
    <path
       d="m 28937,42322 h 3149"
       id="path292"
       inkscape:connector-curvature="0" />
    <path
       d="M 32086,42322 V 38267"
       id="path294"
       inkscape:connector-curvature="0" />
    <path
       d="M 25984,38267 V 31614"
       id="path296"
       inkscape:connector-curvature="0" />
    <path
       d="M 28937,38267 H 25984"
       id="path298"
       inkscape:connector-curvature="0" />
    <path
       d="m 31889,31614 v 6653"
       id="path300"
       inkscape:connector-curvature="0" />
    <path
       d="m 25984,31614 h 5905"
       id="path302"
       inkscape:connector-curvature="0" />
    <path
       d="m 44291,38267 v 4055"
       id="path304"
       inkscape:connector-curvature="0" />
    <path
       d="m 47440,38267 h -196"
       id="path306"
       inkscape:connector-curvature="0" />
    <path
       d="m 44291,42322 h 3149"
       id="path308"
       inkscape:connector-curvature="0" />
    <path
       d="M 47440,42322 V 38267"
       id="path310"
       inkscape:connector-curvature="0" />
    <path
       d="M 41338,38267 V 31614"
       id="path312"
       inkscape:connector-curvature="0" />
    <path
       d="M 44291,38267 H 41338"
       id="path314"
       inkscape:connector-curvature="0" />
    <path
       d="m 47244,31614 v 6653"
       id="path316"
       inkscape:connector-curvature="0" />
    <path
       d="m 41338,31614 h 5906"
       id="path318"
       inkscape:connector-curvature="0" />
    <path
       d="m 59645,38267 v 4055"
       id="path320"
       inkscape:connector-curvature="0" />
    <path
       d="m 62795,38267 h -197"
       id="path322"
       inkscape:connector-curvature="0" />
    <path
       d="m 59645,42322 h 3150"
       id="path324"
       inkscape:connector-curvature="0" />
    <path
       d="M 62795,42322 V 38267"
       id="path326"
       inkscape:connector-curvature="0" />
    <path
       d="M 56692,38267 V 31614"
       id="path328"
       inkscape:connector-curvature="0" />
    <path
       d="M 59645,38267 H 56692"
       id="path330"
       inkscape:connector-curvature="0" />
    <path
       d="m 62598,31614 v 6653"
       id="path332"
       inkscape:connector-curvature="0" />
    <path
       d="m 56692,31614 h 5906"
       id="path334"
       inkscape:connector-curvature="0" />
    <path
       d="m 75000,38267 v 4055"
       id="path336"
       inkscape:connector-curvature="0" />
    <path
       d="m 78149,38267 h -197"
       id="path338"
       inkscape:connector-curvature="0" />
    <path
       d="m 75000,42322 h 3149"
       id="path340"
       inkscape:connector-curvature="0" />
    <path
       d="M 78149,42322 V 38267"
       id="path342"
       inkscape:connector-curvature="0" />
    <path
       d="M 72047,38267 V 33858"
       id="path344"
       inkscape:connector-curvature="0" />
    <path
       d="M 75000,38267 H 72047"
       id="path346"
       inkscape:connector-curvature="0" />
    <path
       d="m 77952,31614 v 6653"
       id="path348"
       inkscape:connector-curvature="0" />
    <path
       d="m 73503,31614 h 4449"
       id="path350"
       inkscape:connector-curvature="0" />
    <path
       d="m 93503,38267 h -196"
       id="path352"
       inkscape:connector-curvature="0" />
    <path
       d="M 93503,42322 V 38267"
       id="path354"
       inkscape:connector-curvature="0" />
    <path
       d="m 90354,42322 h 3149"
       id="path356"
       inkscape:connector-curvature="0" />
    <path
       d="m 90354,38267 v 4055"
       id="path358"
       inkscape:connector-curvature="0" />
    <path
       d="M 87401,38267 V 33858"
       id="path360"
       inkscape:connector-curvature="0" />
    <path
       d="M 90354,38267 H 87401"
       id="path362"
       inkscape:connector-curvature="0" />
    <path
       d="m 93307,31614 v 6653"
       id="path364"
       inkscape:connector-curvature="0" />
    <path
       d="m 88858,31614 h 4449"
       id="path366"
       inkscape:connector-curvature="0" />
  </g>
</svg>
