<?xml version="1.0" encoding="UTF-8" standalone="no"?>
<svg
   xmlns:dc="http://purl.org/dc/elements/1.1/"
   xmlns:cc="http://creativecommons.org/ns#"
   xmlns:rdf="http://www.w3.org/1999/02/22-rdf-syntax-ns#"
   xmlns:svg="http://www.w3.org/2000/svg"
   xmlns="http://www.w3.org/2000/svg"
   xmlns:sodipodi="http://sodipodi.sourceforge.net/DTD/sodipodi-0.dtd"
   xmlns:inkscape="http://www.inkscape.org/namespaces/inkscape"
   version="1.1"
   width="44.269660cm"
   height="11.447780cm"
   viewBox="0 0 174290 45070"
   id="svg3164"
   sodipodi:docname="EncoderBoard-Eco1_User.svg"
   inkscape:version="0.92.4 (5da689c313, 2019-01-14)">
  <metadata
     id="metadata3170">
    <rdf:RDF>
      <cc:Work
         rdf:about="">
        <dc:format>image/svg+xml</dc:format>
        <dc:type
           rdf:resource="http://purl.org/dc/dcmitype/StillImage" />
        <dc:title>SVG Picture created as EncoderBoard-Eco1_User.svg date 2020/06/12 06:57:51 </dc:title>
      </cc:Work>
    </rdf:RDF>
  </metadata>
  <defs
     id="defs3168" />
  <sodipodi:namedview
     pagecolor="#ffffff"
     bordercolor="#666666"
     borderopacity="1"
     objecttolerance="10"
     gridtolerance="10"
     guidetolerance="10"
     inkscape:pageopacity="0"
     inkscape:pageshadow="2"
     inkscape:window-width="2560"
     inkscape:window-height="1537"
     id="namedview3166"
     showgrid="false"
     inkscape:zoom="1.7149574"
     inkscape:cx="325.04314"
     inkscape:cy="340.17434"
     inkscape:window-x="2552"
     inkscape:window-y="-8"
     inkscape:window-maximized="1"
     inkscape:current-layer="g3162" />
  <title
     id="title2332">SVG Picture created as EncoderBoard-Eco1_User.svg date 2020/06/12 06:57:51 </title>
  <desc
     id="desc2334">Picture generated by PCBNEW </desc>
  <g
     style="fill:#000000; fill-opacity:1;stroke:#000000; stroke-opacity:1; stroke-linecap:round; stroke-linejoin:round;"
     transform="translate(0 0) scale(1 1)"
     id="g2336" />
  <g
     style="fill:#000000; fill-opacity:0.0;  stroke:#000000; stroke-width:-0.000393701; stroke-opacity:1;  stroke-linecap:round; stroke-linejoin:round;"
     id="g2338" />
  <g
     style="fill:#000000; fill-opacity:0.0;  stroke:#000000; stroke-width:70.8661; stroke-opacity:1;  stroke-linecap:round; stroke-linejoin:round;"
     id="g3162">
    <path
       d="M63460 32630 L63460 38535 "
       id="path2340" />
    <path
       d="M67003 32630 L63460 32630 "
       id="path2342" />
    <path
       d="M67003 38535 L67003 32630 "
       id="path2344" />
    <path
       d="M63460 38535 L67003 38535 "
       id="path2346" />
    <path
       d="M32358 32630 L32358 38535 "
       id="path2348" />
    <path
       d="M35862 32630 L32358 32630 "
       id="path2350" />
    <path
       d="M35862 38535 L35862 32630 "
       id="path2352" />
    <path
       d="M32358 38535 L35862 38535 "
       id="path2354" />
    <path
       d="M1216 42079 L1216 37748 "
       id="path2356" />
    <path
       d="M5547 42079 L1216 42079 "
       id="path2358" />
    <path
       d="M1216 37748 L5547 37748 "
       id="path2360" />
    <path
       d="M5547 37748 L5547 42079 "
       id="path2362" />
    <path
       d="M1216 36961 L1216 32630 "
       id="path2364" />
    <path
       d="M5547 36961 L1216 36961 "
       id="path2366" />
    <path
       d="M1216 32630 L5547 32630 "
       id="path2368" />
    <path
       d="M5547 32630 L5547 36961 "
       id="path2370" />
    <path
       d="M1216 31842 L1216 27512 "
       id="path2372" />
    <path
       d="M5547 31842 L1216 31842 "
       id="path2374" />
    <path
       d="M1216 27512 L5547 27512 "
       id="path2376" />
    <path
       d="M5547 27512 L5547 31842 "
       id="path2378" />
    <path
       d="M1216 26724 L1216 22394 "
       id="path2380" />
    <path
       d="M5547 26724 L1216 26724 "
       id="path2382" />
    <path
       d="M5547 22394 L5547 26724 "
       id="path2384" />
    <path
       d="M1216 22394 L5547 22394 "
       id="path2386" />
    <circle
       cx="87830.7"
       cy="33417.7"
       r="2165.35"
       id="circle2412" />
    <circle
       cx="73263.8"
       cy="22590.9"
       r="2165.35"
       id="circle2414" />
    <path
       d="M87712 22394 L84877 22394 "
       id="path2416" />
    <path
       d="M84877 22394 L84877 20031 "
       id="path2418" />
    <path
       d="M84877 20031 L87712 20031 "
       id="path2420" />
    <path
       d="M87712 20031 L87712 22394 "
       id="path2422" />
    <path
       d="M84484 20031 L84484 22394 "
       id="path2424" />
    <path
       d="M81728 20031 L84484 20031 "
       id="path2426" />
    <path
       d="M81728 22394 L81728 20031 "
       id="path2428" />
    <path
       d="M84484 22394 L81728 22394 "
       id="path2430" />
    <path
       d="M78500 22394 L78500 20031 "
       id="path2432" />
    <path
       d="M81334 20031 L81334 22394 "
       id="path2434" />
    <path
       d="M78500 20031 L81334 20031 "
       id="path2436" />
    <path
       d="M81334 22394 L78500 22394 "
       id="path2438" />
    <circle
       cx="48066.9"
       cy="37748.4"
       r="669.291"
       id="circle2444" />
    <path
       d="M75625 31646 L75625 26134 "
       id="path2446" />
    <path
       d="M6255 32787 L11925 32787 "
       id="path2448" />
    <path
       d="M73342 32787 L67673 32787 "
       id="path2450" />
    <path
       d="M21610 32787 L27279 32787 "
       id="path2452" />
    <path
       d="M36964 32787 L42633 32787 "
       id="path2454" />
    <path
       d="M57988 32787 L52318 32787 "
       id="path2456" />
    <path
       d="M86255 44441 L86255 38929 "
       id="path2464" />
    <path
       d="M26334 19992 L26334 26134 "
       id="path2466" />
    <path
       d="M9090 44441 L86255 44441 "
       id="path2468" />
    <circle
       cx="89799.2"
       cy="43653.9"
       r="669.291"
       id="circle2470" />
    <circle
       cx="89799.2"
       cy="20819.3"
       r="669.291"
       id="circle2472" />
    <circle
       cx="48460.6"
       cy="20819.3"
       r="669.291"
       id="circle2474" />
    <circle
       cx="1413.39"
       cy="20819.3"
       r="669.291"
       id="circle2476" />
    <path
       d="M67555 23693 L67555 25031 "
       id="path2478" />
    <path
       d="M66767 23693 L67555 23693 "
       id="path2480" />
    <path
       d="M63618 22984 L66767 22984 "
       id="path2482" />
    <path
       d="M63618 25346 L63618 22984 "
       id="path2484" />
    <path
       d="M66767 25346 L63618 25346 "
       id="path2486" />
    <path
       d="M66767 22984 L66767 23693 "
       id="path2488" />
    <path
       d="M67555 25031 L66767 25031 "
       id="path2490" />
    <path
       d="M66767 25031 L66767 25346 "
       id="path2492" />
    <path
       d="M52200 23693 L52200 25031 "
       id="path2494" />
    <path
       d="M51413 23693 L52200 23693 "
       id="path2496" />
    <path
       d="M48263 22984 L51413 22984 "
       id="path2498" />
    <path
       d="M48263 25346 L48263 22984 "
       id="path2500" />
    <path
       d="M51413 25346 L48263 25346 "
       id="path2502" />
    <path
       d="M51413 22984 L51413 23693 "
       id="path2504" />
    <path
       d="M52200 25031 L51413 25031 "
       id="path2506" />
    <path
       d="M51413 25031 L51413 25346 "
       id="path2508" />
    <path
       d="M36846 23693 L36846 25031 "
       id="path2510" />
    <path
       d="M36059 23693 L36846 23693 "
       id="path2512" />
    <path
       d="M32909 22984 L36059 22984 "
       id="path2514" />
    <path
       d="M32909 25346 L32909 22984 "
       id="path2516" />
    <path
       d="M36059 25346 L32909 25346 "
       id="path2518" />
    <path
       d="M36059 22984 L36059 23693 "
       id="path2520" />
    <path
       d="M36846 25031 L36059 25031 "
       id="path2522" />
    <path
       d="M36059 25031 L36059 25346 "
       id="path2524" />
    <path
       d="M20704 25031 L20704 25346 "
       id="path2526" />
    <path
       d="M21492 25031 L20704 25031 "
       id="path2528" />
    <path
       d="M21492 23693 L21492 25031 "
       id="path2530" />
    <path
       d="M20704 23693 L21492 23693 "
       id="path2532" />
    <path
       d="M20704 25346 L17555 25346 "
       id="path2534" />
    <path
       d="M20704 22984 L20704 23693 "
       id="path2536" />
    <path
       d="M17555 22984 L20704 22984 "
       id="path2538" />
    <path
       d="M17555 25346 L17555 22984 "
       id="path2540" />
    <path
       d="M77397 38142 L74444 38142 "
       id="path2542" />
    <path
       d="M77397 35779 L77397 38142 "
       id="path2544" />
    <path
       d="M74444 35779 L77397 35779 "
       id="path2546" />
    <path
       d="M74444 36094 L74444 35779 "
       id="path2548" />
    <path
       d="M73696 36094 L74444 36094 "
       id="path2550" />
    <path
       d="M74444 37433 L73696 37433 "
       id="path2552" />
    <path
       d="M73696 37433 L73696 36094 "
       id="path2554" />
    <path
       d="M74444 38142 L74444 37433 "
       id="path2556" />
    <path
       d="M62043 38142 L58893 38142 "
       id="path2558" />
    <path
       d="M62043 35779 L62043 38142 "
       id="path2560" />
    <path
       d="M58893 35779 L62043 35779 "
       id="path2562" />
    <path
       d="M58893 36094 L58893 35779 "
       id="path2564" />
    <path
       d="M58342 36094 L58893 36094 "
       id="path2566" />
    <path
       d="M58893 37433 L58342 37433 "
       id="path2568" />
    <path
       d="M58342 37433 L58342 36094 "
       id="path2570" />
    <path
       d="M58893 38142 L58893 37433 "
       id="path2572" />
    <path
       d="M46688 38142 L43539 38142 "
       id="path2574" />
    <path
       d="M46688 35779 L46688 38142 "
       id="path2576" />
    <path
       d="M43539 35779 L46688 35779 "
       id="path2578" />
    <path
       d="M43539 36094 L43539 35779 "
       id="path2580" />
    <path
       d="M42988 36094 L43539 36094 "
       id="path2582" />
    <path
       d="M43539 37433 L42988 37433 "
       id="path2584" />
    <path
       d="M42988 37433 L42988 36094 "
       id="path2586" />
    <path
       d="M43539 38142 L43539 37433 "
       id="path2588" />
    <path
       d="M31334 38142 L28185 38142 "
       id="path2590" />
    <path
       d="M31334 35779 L31334 38142 "
       id="path2592" />
    <path
       d="M28185 35779 L31334 35779 "
       id="path2594" />
    <path
       d="M28185 36094 L28185 35779 "
       id="path2596" />
    <path
       d="M27633 36094 L28185 36094 "
       id="path2598" />
    <path
       d="M28185 37433 L27633 37433 "
       id="path2600" />
    <path
       d="M27633 37433 L27633 36094 "
       id="path2602" />
    <path
       d="M28185 38142 L28185 37433 "
       id="path2604" />
    <path
       d="M12279 37433 L12279 36094 "
       id="path2606" />
    <path
       d="M12830 37433 L12279 37433 "
       id="path2608" />
    <path
       d="M12830 38142 L12830 37433 "
       id="path2610" />
    <path
       d="M15980 38142 L12830 38142 "
       id="path2612" />
    <path
       d="M15980 35779 L15980 38142 "
       id="path2614" />
    <path
       d="M12830 35779 L15980 35779 "
       id="path2616" />
    <path
       d="M12830 36094 L12830 35779 "
       id="path2618" />
    <path
       d="M12279 36094 L12830 36094 "
       id="path2620" />
    <path
       d="M10980 26842 L13814 26842 "
       id="path2622" />
    <path
       d="M13814 31646 L75625 31646 "
       id="path2624" />
    <path
       d="M16649 26134 L16649 19992 "
       id="path2626" />
    <path
       d="M13814 26842 L13814 31646 "
       id="path2628" />
    <path
       d="M26334 26134 L16649 26134 "
       id="path2630" />
    <path
       d="M10980 19992 L10980 26842 "
       id="path2632" />
    <path
       d="M16649 19992 L10980 19992 "
       id="path2634" />
    <path
       d="M32003 26134 L32003 19992 "
       id="path2636" />
    <path
       d="M41688 26134 L32003 26134 "
       id="path2638" />
    <path
       d="M32003 19992 L26334 19992 "
       id="path2640" />
    <path
       d="M47358 26134 L47358 19992 "
       id="path2642" />
    <path
       d="M57043 26134 L47358 26134 "
       id="path2644" />
    <path
       d="M41688 19992 L41688 26134 "
       id="path2646" />
    <path
       d="M47358 19992 L41688 19992 "
       id="path2648" />
    <path
       d="M62712 26134 L62712 19992 "
       id="path2650" />
    <path
       d="M75625 26134 L62712 26134 "
       id="path2652" />
    <path
       d="M57043 19992 L57043 26134 "
       id="path2654" />
    <path
       d="M62712 19992 L57043 19992 "
       id="path2656" />
    <path
       d="M73342 38929 L73342 32787 "
       id="path2658" />
    <path
       d="M86255 38929 L73342 38929 "
       id="path2660" />
    <path
       d="M67673 32787 L67673 38929 "
       id="path2662" />
    <path
       d="M57988 38929 L57988 32787 "
       id="path2664" />
    <path
       d="M67673 38929 L57988 38929 "
       id="path2666" />
    <path
       d="M52318 32787 L52318 38929 "
       id="path2668" />
    <path
       d="M42633 38929 L42633 32787 "
       id="path2670" />
    <path
       d="M52318 38929 L42633 38929 "
       id="path2672" />
    <path
       d="M36964 32787 L36964 38929 "
       id="path2674" />
    <path
       d="M27279 38929 L27279 32787 "
       id="path2676" />
    <path
       d="M36964 38929 L27279 38929 "
       id="path2678" />
    <path
       d="M21610 32787 L21610 38929 "
       id="path2680" />
    <path
       d="M9090 39638 L9090 44441 "
       id="path2682" />
    <path
       d="M6255 39638 L9090 39638 "
       id="path2684" />
    <path
       d="M6255 32787 L6255 39638 "
       id="path2686" />
    <path
       d="M11925 38929 L11925 32787 "
       id="path2688" />
    <path
       d="M21610 38929 L11925 38929 "
       id="path2690" />
    <circle
       cx="1413.39"
       cy="43653.9"
       r="669.291"
       id="circle2692" />
    <g
       id="g2700" />
    <g
       id="g2702" />
    <g
       id="g2704" />
    <g
       id="g2706" />
    <g
       id="g2708" />
    <g
       id="g2710" />
    <g
       id="g2712" />
    <g
       id="g2714" />
    <g
       id="g2716" />
    <g
       id="g2718" />
    <g
       id="g2720" />
    <g
       id="g2722" />
    <g
       id="g2724" />
    <g
       id="g2726" />
    <g
       id="g2728" />
    <g
       id="g2730" />
    <g
       id="g2732" />
    <g
       id="g2734" />
    <g
       id="g2736" />
    <g
       id="g2738" />
    <g
       id="g2740" />
    <g
       id="g2742" />
    <g
       id="g2744" />
    <g
       id="g2746" />
    <g
       id="g2748" />
    <g
       id="g2750" />
    <g
       id="g2752" />
    <g
       id="g2754" />
    <g
       id="g2756" />
    <g
       id="g2758" />
    <g
       id="g2760" />
    <g
       id="g2762" />
    <g
       id="g2764" />
    <g
       id="g2766" />
    <g
       id="g2768" />
    <g
       id="g2770" />
    <g
       id="g2772" />
    <g
       id="g2774" />
    <g
       id="g2776" />
    <g
       id="g2778" />
    <g
       id="g2780" />
    <g
       id="g2782" />
    <g
       id="g2784" />
    <g
       id="g2786" />
    <g
       id="g2788" />
    <g
       id="g2790" />
    <g
       id="g2792" />
    <g
       id="g2794" />
    <g
       id="g2796" />
    <g
       id="g2798" />
    <g
       id="g2800" />
    <g
       id="g2802" />
    <g
       id="g2804" />
    <g
       id="g2806" />
    <g
       id="g2808" />
    <g
       id="g2810" />
    <g
       id="g2812" />
    <g
       id="g2814" />
    <g
       id="g2816" />
    <g
       id="g2818" />
    <g
       id="g2820" />
    <g
       id="g2822" />
    <g
       id="g2824" />
    <g
       id="g2826" />
    <g
       id="g2828" />
    <g
       id="g2830" />
    <g
       id="g2832" />
    <g
       id="g2834" />
    <g
       id="g2836" />
    <g
       id="g2838" />
    <g
       id="g2840" />
    <g
       id="g2842" />
    <g
       id="g2844" />
    <g
       id="g2846" />
    <g
       id="g2848" />
    <g
       id="g2850" />
    <g
       id="g2852" />
    <g
       id="g2854" />
    <g
       id="g2856" />
    <g
       id="g2858" />
    <g
       id="g2860" />
    <g
       id="g2862" />
    <g
       id="g2864" />
    <g
       id="g2866" />
    <g
       id="g2868" />
    <g
       id="g2870" />
    <g
       id="g2872" />
    <g
       id="g2874" />
    <g
       id="g2876" />
    <g
       id="g2878" />
    <g
       id="g2880" />
    <g
       id="g2882" />
    <g
       id="g2884" />
    <g
       id="g2886" />
    <g
       id="g2888" />
    <g
       id="g2890" />
    <g
       id="g2892" />
    <g
       id="g2894" />
    <g
       id="g2896" />
    <g
       id="g2898" />
    <g
       id="g2900" />
    <g
       id="g2902" />
    <g
       id="g2904" />
    <g
       id="g2906" />
    <g
       id="g2908" />
    <g
       id="g2910" />
    <g
       id="g2912" />
    <g
       id="g2914" />
    <g
       id="g2916" />
    <g
       id="g2918" />
    <g
       id="g2920" />
    <g
       id="g2922" />
    <g
       id="g2924" />
    <g
       id="g2926" />
    <g
       id="g2928" />
    <g
       id="g2930" />
    <g
       id="g2932" />
    <g
       id="g2934" />
    <g
       id="g2936" />
    <g
       id="g2938" />
    <g
       id="g2940" />
    <g
       id="g2942" />
    <g
       id="g2944" />
    <g
       id="g2946" />
    <g
       id="g2948" />
    <g
       id="g2950" />
    <g
       id="g2952" />
    <g
       id="g2954" />
    <g
       id="g2956" />
    <g
       id="g2958" />
    <g
       id="g2960" />
    <g
       id="g2962" />
    <g
       id="g2964" />
    <g
       id="g2966" />
    <g
       id="g2968" />
    <g
       id="g2970" />
    <g
       id="g2972" />
    <g
       id="g2974" />
    <g
       id="g2976" />
    <g
       id="g2978" />
    <g
       id="g2980" />
    <g
       id="g2982" />
    <g
       id="g2984" />
    <g
       id="g2986" />
    <g
       id="g2988" />
    <g
       id="g2990" />
    <g
       id="g2992" />
    <g
       id="g2994" />
    <g
       id="g2996" />
    <g
       id="g2998" />
    <g
       id="g3000" />
    <g
       id="g3002" />
    <g
       id="g3004" />
    <g
       id="g3006" />
    <g
       id="g3008" />
    <g
       id="g3010" />
    <g
       id="g3012" />
    <g
       id="g3014" />
    <g
       id="g3016" />
    <g
       id="g3018" />
    <g
       id="g3020" />
    <g
       id="g3022" />
    <g
       id="g3024" />
    <g
       id="g3026" />
    <g
       id="g3028" />
    <g
       id="g3030" />
    <g
       id="g3032" />
    <g
       id="g3034" />
    <g
       id="g3036" />
    <g
       id="g3038" />
    <g
       id="g3040" />
    <g
       id="g3042" />
    <g
       id="g3044" />
    <g
       id="g3046" />
    <g
       id="g3048" />
    <g
       id="g3050" />
    <g
       id="g3052" />
    <g
       id="g3054" />
    <g
       id="g3056" />
    <g
       id="g3058" />
    <g
       id="g3060" />
    <g
       id="g3062" />
    <g
       id="g3064" />
    <g
       id="g3066" />
    <g
       id="g3068" />
    <g
       id="g3070" />
    <g
       id="g3072" />
    <g
       id="g3074" />
    <g
       id="g3076" />
    <g
       id="g3078" />
    <g
       id="g3080" />
    <g
       id="g3082" />
    <g
       id="g3084" />
    <g
       id="g3086" />
    <g
       id="g3088" />
    <g
       id="g3090" />
    <g
       id="g3092" />
    <g
       id="g3094" />
    <g
       id="g3096" />
    <g
       id="g3098" />
    <g
       id="g3100" />
    <g
       id="g3102" />
    <g
       id="g3104" />
    <g
       id="g3106" />
    <g
       id="g3108" />
    <g
       id="g3110" />
    <g
       id="g3112" />
    <g
       id="g3114" />
    <g
       id="g3116" />
    <g
       id="g3118" />
    <g
       id="g3120" />
    <g
       id="g3122" />
    <g
       id="g3124" />
    <g
       id="g3126" />
    <g
       id="g3128" />
    <g
       id="g3130" />
    <g
       id="g3132" />
    <g
       id="g3134" />
    <g
       id="g3136" />
    <g
       id="g3138" />
    <g
       id="g3140" />
    <g
       id="g3142" />
    <g
       id="g3144" />
    <g
       id="g3146" />
    <g
       id="g3148" />
    <g
       id="g3150" />
    <g
       id="g3152" />
    <g
       id="g3154" />
    <g
       id="g3156" />
    <g
       id="g3158" />
    <g
       id="g3160" />
  </g>
</svg>
