<?xml version="1.0" standalone="no"?>
 <!DOCTYPE svg PUBLIC "-//W3C//DTD SVG 1.1//EN" 
 "http://www.w3.org/Graphics/SVG/1.1/DTD/svg11.dtd"> 
<svg
  xmlns:svg="http://www.w3.org/2000/svg"
  xmlns="http://www.w3.org/2000/svg"
  xmlns:xlink="http://www.w3.org/1999/xlink"
  version="1.1"
  width="44.269660cm" height="11.447780cm" viewBox="0 0 174290 45070">
<title>SVG Picture created as EncoderBoard-Margin.svg date 2020/06/12 06:57:51 </title>
  <desc>Picture generated by PCBNEW </desc>
<g style="fill:#000000; fill-opacity:1;stroke:#000000; stroke-opacity:1;
stroke-linecap:round; stroke-linejoin:round;"
 transform="translate(0 0) scale(1 1)">
</g>
<g style="fill:#000000; fill-opacity:0.0; 
stroke:#000000; stroke-width:-0.000393701; stroke-opacity:1; 
stroke-linecap:round; stroke-linejoin:round;">
</g>
<g style="fill:#000000; fill-opacity:0.0; 
stroke:#000000; stroke-width:70.8661; stroke-opacity:1; 
stroke-linecap:round; stroke-linejoin:round;">
<text x="90389.8" y="23126.4"
textLength="5118.11" font-size="524.934" lengthAdjust="spacingAndGlyphs"
text-anchor="end" opacity="0">Encoders for Eos</text>
<path d="M85319 22901
L85450 22901
" />
<path d="M85506 23107
L85319 23107
L85319 22713
L85506 22713
" />
<path d="M85675 22845
L85675 23107
" />
<path d="M85675 22882
L85694 22863
L85731 22845
L85788 22845
L85825 22863
L85844 22901
L85844 23107
" />
<path d="M86200 23088
L86162 23107
L86087 23107
L86050 23088
L86031 23070
L86012 23032
L86012 22920
L86031 22882
L86050 22863
L86087 22845
L86162 22845
L86200 22863
" />
<path d="M86425 23107
L86387 23088
L86369 23070
L86350 23032
L86350 22920
L86369 22882
L86387 22863
L86425 22845
L86481 22845
L86519 22863
L86537 22882
L86556 22920
L86556 23032
L86537 23070
L86519 23088
L86481 23107
L86425 23107
" />
<path d="M86894 23107
L86894 22713
" />
<path d="M86894 23088
L86856 23107
L86781 23107
L86744 23088
L86725 23070
L86706 23032
L86706 22920
L86725 22882
L86744 22863
L86781 22845
L86856 22845
L86894 22863
" />
<path d="M87231 23088
L87194 23107
L87119 23107
L87081 23088
L87062 23051
L87062 22901
L87081 22863
L87119 22845
L87194 22845
L87231 22863
L87250 22901
L87250 22938
L87062 22976
" />
<path d="M87419 23107
L87419 22845
" />
<path d="M87419 22920
L87437 22882
L87456 22863
L87494 22845
L87531 22845
" />
<path d="M87644 23088
L87681 23107
L87756 23107
L87794 23088
L87812 23051
L87812 23032
L87794 22995
L87756 22976
L87700 22976
L87662 22957
L87644 22920
L87644 22901
L87662 22863
L87700 22845
L87756 22845
L87794 22863
" />
<path d="M88225 22845
L88375 22845
" />
<path d="M88281 23107
L88281 22770
L88300 22732
L88337 22713
L88375 22713
" />
<path d="M88562 23107
L88525 23088
L88506 23070
L88487 23032
L88487 22920
L88506 22882
L88525 22863
L88562 22845
L88618 22845
L88656 22863
L88675 22882
L88693 22920
L88693 23032
L88675 23070
L88656 23088
L88618 23107
L88562 23107
" />
<path d="M88862 23107
L88862 22845
" />
<path d="M88862 22920
L88881 22882
L88900 22863
L88937 22845
L88975 22845
" />
<path d="M89406 22901
L89537 22901
" />
<path d="M89593 23107
L89406 23107
L89406 22713
L89593 22713
" />
<path d="M89818 23107
L89781 23088
L89762 23070
L89743 23032
L89743 22920
L89762 22882
L89781 22863
L89818 22845
L89875 22845
L89912 22863
L89931 22882
L89950 22920
L89950 23032
L89931 23070
L89912 23088
L89875 23107
L89818 23107
" />
<path d="M90099 23088
L90137 23107
L90212 23107
L90249 23088
L90268 23051
L90268 23032
L90249 22995
L90212 22976
L90156 22976
L90118 22957
L90099 22920
L90099 22901
L90118 22863
L90156 22845
L90212 22845
L90249 22863
" />
<text x="90389.8" y="23787.8"
textLength="7834.91" font-size="524.934" lengthAdjust="spacingAndGlyphs"
text-anchor="end" opacity="0">Designed by Blake Garner</text>
<path d="M82694 23769
L82694 23375
L82788 23375
L82844 23394
L82882 23431
L82900 23469
L82919 23544
L82919 23600
L82900 23675
L82882 23712
L82844 23750
L82788 23769
L82694 23769
" />
<path d="M83238 23750
L83200 23769
L83125 23769
L83088 23750
L83069 23712
L83069 23562
L83088 23525
L83125 23506
L83200 23506
L83238 23525
L83257 23562
L83257 23600
L83069 23637
" />
<path d="M83407 23750
L83444 23769
L83519 23769
L83557 23750
L83575 23712
L83575 23694
L83557 23656
L83519 23637
L83463 23637
L83425 23619
L83407 23581
L83407 23562
L83425 23525
L83463 23506
L83519 23506
L83557 23525
" />
<path d="M83744 23769
L83744 23506
" />
<path d="M83744 23375
L83725 23394
L83744 23412
L83763 23394
L83744 23375
L83744 23412
" />
<path d="M84100 23506
L84100 23825
L84081 23862
L84063 23881
L84025 23900
L83969 23900
L83932 23881
" />
<path d="M84100 23750
L84063 23769
L83988 23769
L83950 23750
L83932 23731
L83913 23694
L83913 23581
L83932 23544
L83950 23525
L83988 23506
L84063 23506
L84100 23525
" />
<path d="M84288 23506
L84288 23769
" />
<path d="M84288 23544
L84306 23525
L84344 23506
L84400 23506
L84438 23525
L84456 23562
L84456 23769
" />
<path d="M84794 23750
L84756 23769
L84681 23769
L84644 23750
L84625 23712
L84625 23562
L84644 23525
L84681 23506
L84756 23506
L84794 23525
L84813 23562
L84813 23600
L84625 23637
" />
<path d="M85150 23769
L85150 23375
" />
<path d="M85150 23750
L85113 23769
L85038 23769
L85000 23750
L84981 23731
L84963 23694
L84963 23581
L84981 23544
L85000 23525
L85038 23506
L85113 23506
L85150 23525
" />
<path d="M85638 23769
L85638 23375
" />
<path d="M85638 23525
L85675 23506
L85750 23506
L85788 23525
L85806 23544
L85825 23581
L85825 23694
L85806 23731
L85788 23750
L85750 23769
L85675 23769
L85638 23750
" />
<path d="M85956 23506
L86050 23769
" />
<path d="M86144 23506
L86050 23769
L86012 23862
L85994 23881
L85956 23900
" />
<path d="M86725 23562
L86781 23581
L86800 23600
L86819 23637
L86819 23694
L86800 23731
L86781 23750
L86744 23769
L86594 23769
L86594 23375
L86725 23375
L86762 23394
L86781 23412
L86800 23450
L86800 23487
L86781 23525
L86762 23544
L86725 23562
L86594 23562
" />
<path d="M87044 23769
L87006 23750
L86987 23712
L86987 23375
" />
<path d="M87362 23769
L87362 23562
L87344 23525
L87306 23506
L87231 23506
L87194 23525
" />
<path d="M87362 23750
L87325 23769
L87231 23769
L87194 23750
L87175 23712
L87175 23675
L87194 23637
L87231 23619
L87325 23619
L87362 23600
" />
<path d="M87550 23769
L87550 23375
" />
<path d="M87587 23619
L87700 23769
" />
<path d="M87700 23506
L87550 23656
" />
<path d="M88018 23750
L87981 23769
L87906 23769
L87869 23750
L87850 23712
L87850 23562
L87869 23525
L87906 23506
L87981 23506
L88018 23525
L88037 23562
L88037 23600
L87850 23637
" />
<path d="M88712 23394
L88675 23375
L88618 23375
L88562 23394
L88525 23431
L88506 23469
L88487 23544
L88487 23600
L88506 23675
L88525 23712
L88562 23750
L88618 23769
L88656 23769
L88712 23750
L88731 23731
L88731 23600
L88656 23600
" />
<path d="M89068 23769
L89068 23562
L89050 23525
L89012 23506
L88937 23506
L88900 23525
" />
<path d="M89068 23750
L89031 23769
L88937 23769
L88900 23750
L88881 23712
L88881 23675
L88900 23637
L88937 23619
L89031 23619
L89068 23600
" />
<path d="M89256 23769
L89256 23506
" />
<path d="M89256 23581
L89275 23544
L89293 23525
L89331 23506
L89368 23506
" />
<path d="M89500 23506
L89500 23769
" />
<path d="M89500 23544
L89518 23525
L89556 23506
L89612 23506
L89650 23525
L89668 23562
L89668 23769
" />
<path d="M90006 23750
L89968 23769
L89893 23769
L89856 23750
L89837 23712
L89837 23562
L89856 23525
L89893 23506
L89968 23506
L90006 23525
L90024 23562
L90024 23600
L89837 23637
" />
<path d="M90193 23769
L90193 23506
" />
<path d="M90193 23581
L90212 23544
L90231 23525
L90268 23506
L90306 23506
" />
<circle cx="86255.9" cy="21213" r="787.402" /> 
<circle cx="83106.3" cy="21213" r="787.402" /> 
<circle cx="79956.7" cy="21213" r="787.402" /> 
<circle cx="14405.5" cy="36961" r="787.402" /> 
<circle cx="29759.8" cy="36961" r="787.402" /> 
<circle cx="60468.5" cy="36961" r="787.402" /> 
<circle cx="75822.8" cy="36961" r="787.402" /> 
<circle cx="65192.9" cy="24165.7" r="787.402" /> 
<circle cx="49838.6" cy="24165.7" r="787.402" /> 
<circle cx="34484.3" cy="24165.7" r="787.402" /> 
<circle cx="19129.9" cy="24165.7" r="787.402" /> 
<path d="M5468 37827
L5468 42000
" />
<path d="M1295 37827
L5468 37827
" />
<path d="M5468 42000
L1295 42000
" />
<path d="M1295 42000
L1295 37827
" />
<path d="M5468 32709
L5468 36882
" />
<path d="M1295 32709
L5468 32709
" />
<path d="M5468 36882
L1295 36882
" />
<path d="M1295 36882
L1295 32709
" />
<path d="M5468 27590
L5468 31764
" />
<path d="M1295 27590
L5468 27590
" />
<path d="M5468 31764
L1295 31764
" />
<path d="M1295 31764
L1295 27590
" />
<path d="M1413.39 19441.3 A1377.95 1377.95 0.0 0 0 35.9959 20858.6" />
<circle cx="48066.9" cy="37748.4" r="669.291" /> 
<path d="M89759.8 45031.9 A1378.51 1378.51 0.0 0 0 91177.7 43653.9" />
<path d="M91177.2 20858.7 A1378.51 1378.51 0.0 0 0 89799.2 19440.8" />
<path d="M35.4333 43732.7 A1380.2 1380.2 0.0 0 0 1413.39 45034.1" />
<path d="M35 43732
L35 20858
" />
<path d="M89759 45031
L1413 45034
" />
<path d="M91177 20858
L91177 43653
" />
<path d="M1413 19441
L89799 19441
" />
<circle cx="1413.39" cy="43653.9" r="669.291" /> 
<circle cx="1413.39" cy="20819.3" r="669.291" /> 
<circle cx="48460.6" cy="20819.3" r="669.291" /> 
<circle cx="89799.2" cy="20819.3" r="669.291" /> 
<circle cx="89799.2" cy="43653.9" r="669.291" /> 
<circle cx="77791.3" cy="26331.1" r="472.441" /> 
<path d="M1295 26646
L1295 22472
" />
<path d="M5468 26646
L1295 26646
" />
<path d="M5468 22472
L5468 26646
" />
<path d="M1295 22472
L5468 22472
" />
<circle cx="73263.8" cy="22590.9" r="2086.61" /> 
<circle cx="87830.7" cy="33417.7" r="2086.61" /> 
<circle cx="59878" cy="23378.3" r="1496.06" /> 
<circle cx="44523.6" cy="23378.3" r="1496.06" /> 
<circle cx="29169.3" cy="23378.3" r="1496.06" /> 
<circle cx="13815" cy="23378.3" r="1496.06" /> 
<circle cx="70507.9" cy="36173.6" r="1496.06" /> 
<circle cx="55153.5" cy="36173.6" r="1496.06" /> 
<circle cx="39799.2" cy="36173.6" r="1496.06" /> 
<circle cx="24444.9" cy="36173.6" r="1496.06" /> 
<circle cx="9090.55" cy="36173.6" r="1496.06" /> 
<g >
</g>
<g >
</g>
<g >
</g>
<g >
</g>
<g >
</g>
<g >
</g>
<g >
</g>
<g >
</g>
<g >
</g>
<g >
</g>
<g >
</g>
<g >
</g>
<g >
</g>
<g >
</g>
<g >
</g>
<g >
</g>
<g >
</g>
<g >
</g>
<g >
</g>
<g >
</g>
<g >
</g>
<g >
</g>
<g >
</g>
<g >
</g>
<g >
</g>
<g >
</g>
<g >
</g>
<g >
</g>
<g >
</g>
<g >
</g>
<g >
</g>
<g >
</g>
<g >
</g>
<g >
</g>
<g >
</g>
<g >
</g>
<g >
</g>
<g >
</g>
<g >
</g>
<g >
</g>
<g >
</g>
<g >
</g>
<g >
</g>
<g >
</g>
<g >
</g>
<g >
</g>
<g >
</g>
<g >
</g>
<g >
</g>
<g >
</g>
<g >
</g>
<g >
</g>
<g >
</g>
<g >
</g>
<g >
</g>
<g >
</g>
<g >
</g>
<g >
</g>
<g >
</g>
<g >
</g>
<g >
</g>
<g >
</g>
<g >
</g>
<g >
</g>
<g >
</g>
<g >
</g>
<g >
</g>
<g >
</g>
<g >
</g>
<g >
</g>
<g >
</g>
<g >
</g>
<g >
</g>
<g >
</g>
<g >
</g>
<g >
</g>
<g >
</g>
<g >
</g>
<g >
</g>
<g >
</g>
<g >
</g>
<g >
</g>
<g >
</g>
<g >
</g>
<g >
</g>
<g >
</g>
<g >
</g>
<g >
</g>
<g >
</g>
<g >
</g>
<g >
</g>
<g >
</g>
<g >
</g>
<g >
</g>
<g >
</g>
<g >
</g>
<g >
</g>
<g >
</g>
<g >
</g>
<g >
</g>
<g >
</g>
<g >
</g>
<g >
</g>
<g >
</g>
<g >
</g>
<g >
</g>
<g >
</g>
<g >
</g>
<g >
</g>
<g >
</g>
<g >
</g>
<g >
</g>
<g >
</g>
<g >
</g>
<g >
</g>
<g >
</g>
<g >
</g>
<g >
</g>
<g >
</g>
<g >
</g>
<g >
</g>
<g >
</g>
<g >
</g>
<g >
</g>
<g >
</g>
<g >
</g>
<g >
</g>
<g >
</g>
<g >
</g>
<g >
</g>
<g >
</g>
<g >
</g>
<g >
</g>
<g >
</g>
<g >
</g>
<g >
</g>
<g >
</g>
<g >
</g>
<g >
</g>
<g >
</g>
<g >
</g>
<g >
</g>
<g >
</g>
<g >
</g>
<g >
</g>
<g >
</g>
<g >
</g>
<g >
</g>
<g >
</g>
<g >
</g>
<g >
</g>
<g >
</g>
<g >
</g>
<g >
</g>
<g >
</g>
<g >
</g>
<g >
</g>
<g >
</g>
<g >
</g>
<g >
</g>
<g >
</g>
<g >
</g>
<g >
</g>
<g >
</g>
<g >
</g>
<g >
</g>
<g >
</g>
<g >
</g>
<g >
</g>
<g >
</g>
<g >
</g>
<g >
</g>
<g >
</g>
<g >
</g>
<g >
</g>
<g >
</g>
<g >
</g>
<g >
</g>
<g >
</g>
<g >
</g>
<g >
</g>
<g >
</g>
<g >
</g>
<g >
</g>
<g >
</g>
<g >
</g>
<g >
</g>
<g >
</g>
<g >
</g>
<g >
</g>
<g >
</g>
<g >
</g>
<g >
</g>
<g >
</g>
<g >
</g>
<g >
</g>
<g >
</g>
<g >
</g>
<g >
</g>
<g >
</g>
<g >
</g>
<g >
</g>
<g >
</g>
<g >
</g>
<g >
</g>
<g >
</g>
<g >
</g>
<g >
</g>
<g >
</g>
<g >
</g>
<g >
</g>
<g >
</g>
<g >
</g>
<g >
</g>
<g >
</g>
<g >
</g>
<g >
</g>
<g >
</g>
<g >
</g>
<g >
</g>
<g >
</g>
<g >
</g>
<g >
</g>
<g >
</g>
<g >
</g>
<g >
</g>
<g >
</g>
<g >
</g>
<g >
</g>
<g >
</g>
<g >
</g>
</g> 
</svg>
