<?xml version="1.0" standalone="no"?>
 <!DOCTYPE svg PUBLIC "-//W3C//DTD SVG 1.1//EN" 
 "http://www.w3.org/Graphics/SVG/1.1/DTD/svg11.dtd"> 
<svg
  xmlns:svg="http://www.w3.org/2000/svg"
  xmlns="http://www.w3.org/2000/svg"
  xmlns:xlink="http://www.w3.org/1999/xlink"
  version="1.1"
  width="44.269660cm" height="11.447780cm" viewBox="0 0 174290 45070">
<title>SVG Picture created as EncoderBoard-Eco1_User.svg date 2020/06/12 06:57:51 </title>
  <desc>Picture generated by PCBNEW </desc>
<g style="fill:#000000; fill-opacity:1;stroke:#000000; stroke-opacity:1;
stroke-linecap:round; stroke-linejoin:round;"
 transform="translate(0 0) scale(1 1)">
</g>
<g style="fill:#000000; fill-opacity:0.0; 
stroke:#000000; stroke-width:-0.000393701; stroke-opacity:1; 
stroke-linecap:round; stroke-linejoin:round;">
</g>
<g style="fill:#000000; fill-opacity:0.0; 
stroke:#000000; stroke-width:70.8661; stroke-opacity:1; 
stroke-linecap:round; stroke-linejoin:round;">
<path d="M63460 32630
L63460 38535
" />
<path d="M67003 32630
L63460 32630
" />
<path d="M67003 38535
L67003 32630
" />
<path d="M63460 38535
L67003 38535
" />
<path d="M32358 32630
L32358 38535
" />
<path d="M35862 32630
L32358 32630
" />
<path d="M35862 38535
L35862 32630
" />
<path d="M32358 38535
L35862 38535
" />
<path d="M1216 42079
L1216 37748
" />
<path d="M5547 42079
L1216 42079
" />
<path d="M1216 37748
L5547 37748
" />
<path d="M5547 37748
L5547 42079
" />
<path d="M1216 36961
L1216 32630
" />
<path d="M5547 36961
L1216 36961
" />
<path d="M1216 32630
L5547 32630
" />
<path d="M5547 32630
L5547 36961
" />
<path d="M1216 31842
L1216 27512
" />
<path d="M5547 31842
L1216 31842
" />
<path d="M1216 27512
L5547 27512
" />
<path d="M5547 27512
L5547 31842
" />
<path d="M1216 26724
L1216 22394
" />
<path d="M5547 26724
L1216 26724
" />
<path d="M5547 22394
L5547 26724
" />
<path d="M1216 22394
L5547 22394
" />
<path d="M91177 24638
L91177 20819
" />
<path d="M84287 29953
L90311 29953
" />
<path d="M84287 31527
L84287 29953
" />
<path d="M82318 31527
L84287 31527
" />
<path d="M82318 29953
L82318 31527
" />
<path d="M90311 28024
L91177 28024
" />
<path d="M90311 29953
L90311 28024
" />
<path d="M75980 29953
L82318 29953
" />
<path d="M75980 22709
L75980 29953
" />
<path d="M90311 24638
L91177 24638
" />
<path d="M90311 22709
L90311 24638
" />
<path d="M75980 22709
L90311 22709
" />
<circle cx="87830.7" cy="33417.7" r="2165.35" /> 
<circle cx="73263.8" cy="22590.9" r="2165.35" /> 
<path d="M87712 22394
L84877 22394
" />
<path d="M84877 22394
L84877 20031
" />
<path d="M84877 20031
L87712 20031
" />
<path d="M87712 20031
L87712 22394
" />
<path d="M84484 20031
L84484 22394
" />
<path d="M81728 20031
L84484 20031
" />
<path d="M81728 22394
L81728 20031
" />
<path d="M84484 22394
L81728 22394
" />
<path d="M78500 22394
L78500 20031
" />
<path d="M81334 20031
L81334 22394
" />
<path d="M78500 20031
L81334 20031
" />
<path d="M81334 22394
L78500 22394
" />
<path d="M89799 19441
L1413 19441
" />
<path d="M91177.2 20819.3 A1377.95 1377.95 0.0 0 0 89799.2 19441.3" />
<circle cx="48066.9" cy="37748.4" r="669.291" /> 
<path d="M75625 31646
L75625 26134
" />
<path d="M6255 32787
L11925 32787
" />
<path d="M73342 32787
L67673 32787
" />
<path d="M21610 32787
L27279 32787
" />
<path d="M36964 32787
L42633 32787
" />
<path d="M57988 32787
L52318 32787
" />
<path d="M1413.39 19441.3 A1377.95 1377.95 0.0 0 0 35.4335 20819.3" />
<path d="M35.4336 43693.3 A1378.51 1378.51 0.0 0 0 1413.39 45032.5" />
<path d="M35 43693
L35 20819
" />
<path d="M86255 44441
L86255 38929
" />
<path d="M26334 19992
L26334 26134
" />
<path d="M9090 44441
L86255 44441
" />
<circle cx="89799.2" cy="43653.9" r="669.291" /> 
<circle cx="89799.2" cy="20819.3" r="669.291" /> 
<circle cx="48460.6" cy="20819.3" r="669.291" /> 
<circle cx="1413.39" cy="20819.3" r="669.291" /> 
<path d="M67555 23693
L67555 25031
" />
<path d="M66767 23693
L67555 23693
" />
<path d="M63618 22984
L66767 22984
" />
<path d="M63618 25346
L63618 22984
" />
<path d="M66767 25346
L63618 25346
" />
<path d="M66767 22984
L66767 23693
" />
<path d="M67555 25031
L66767 25031
" />
<path d="M66767 25031
L66767 25346
" />
<path d="M52200 23693
L52200 25031
" />
<path d="M51413 23693
L52200 23693
" />
<path d="M48263 22984
L51413 22984
" />
<path d="M48263 25346
L48263 22984
" />
<path d="M51413 25346
L48263 25346
" />
<path d="M51413 22984
L51413 23693
" />
<path d="M52200 25031
L51413 25031
" />
<path d="M51413 25031
L51413 25346
" />
<path d="M36846 23693
L36846 25031
" />
<path d="M36059 23693
L36846 23693
" />
<path d="M32909 22984
L36059 22984
" />
<path d="M32909 25346
L32909 22984
" />
<path d="M36059 25346
L32909 25346
" />
<path d="M36059 22984
L36059 23693
" />
<path d="M36846 25031
L36059 25031
" />
<path d="M36059 25031
L36059 25346
" />
<path d="M20704 25031
L20704 25346
" />
<path d="M21492 25031
L20704 25031
" />
<path d="M21492 23693
L21492 25031
" />
<path d="M20704 23693
L21492 23693
" />
<path d="M20704 25346
L17555 25346
" />
<path d="M20704 22984
L20704 23693
" />
<path d="M17555 22984
L20704 22984
" />
<path d="M17555 25346
L17555 22984
" />
<path d="M77397 38142
L74444 38142
" />
<path d="M77397 35779
L77397 38142
" />
<path d="M74444 35779
L77397 35779
" />
<path d="M74444 36094
L74444 35779
" />
<path d="M73696 36094
L74444 36094
" />
<path d="M74444 37433
L73696 37433
" />
<path d="M73696 37433
L73696 36094
" />
<path d="M74444 38142
L74444 37433
" />
<path d="M62043 38142
L58893 38142
" />
<path d="M62043 35779
L62043 38142
" />
<path d="M58893 35779
L62043 35779
" />
<path d="M58893 36094
L58893 35779
" />
<path d="M58342 36094
L58893 36094
" />
<path d="M58893 37433
L58342 37433
" />
<path d="M58342 37433
L58342 36094
" />
<path d="M58893 38142
L58893 37433
" />
<path d="M46688 38142
L43539 38142
" />
<path d="M46688 35779
L46688 38142
" />
<path d="M43539 35779
L46688 35779
" />
<path d="M43539 36094
L43539 35779
" />
<path d="M42988 36094
L43539 36094
" />
<path d="M43539 37433
L42988 37433
" />
<path d="M42988 37433
L42988 36094
" />
<path d="M43539 38142
L43539 37433
" />
<path d="M31334 38142
L28185 38142
" />
<path d="M31334 35779
L31334 38142
" />
<path d="M28185 35779
L31334 35779
" />
<path d="M28185 36094
L28185 35779
" />
<path d="M27633 36094
L28185 36094
" />
<path d="M28185 37433
L27633 37433
" />
<path d="M27633 37433
L27633 36094
" />
<path d="M28185 38142
L28185 37433
" />
<path d="M12279 37433
L12279 36094
" />
<path d="M12830 37433
L12279 37433
" />
<path d="M12830 38142
L12830 37433
" />
<path d="M15980 38142
L12830 38142
" />
<path d="M15980 35779
L15980 38142
" />
<path d="M12830 35779
L15980 35779
" />
<path d="M12830 36094
L12830 35779
" />
<path d="M12279 36094
L12830 36094
" />
<path d="M10980 26842
L13814 26842
" />
<path d="M13814 31646
L75625 31646
" />
<path d="M16649 26134
L16649 19992
" />
<path d="M13814 26842
L13814 31646
" />
<path d="M26334 26134
L16649 26134
" />
<path d="M10980 19992
L10980 26842
" />
<path d="M16649 19992
L10980 19992
" />
<path d="M32003 26134
L32003 19992
" />
<path d="M41688 26134
L32003 26134
" />
<path d="M32003 19992
L26334 19992
" />
<path d="M47358 26134
L47358 19992
" />
<path d="M57043 26134
L47358 26134
" />
<path d="M41688 19992
L41688 26134
" />
<path d="M47358 19992
L41688 19992
" />
<path d="M62712 26134
L62712 19992
" />
<path d="M75625 26134
L62712 26134
" />
<path d="M57043 19992
L57043 26134
" />
<path d="M62712 19992
L57043 19992
" />
<path d="M73342 38929
L73342 32787
" />
<path d="M86255 38929
L73342 38929
" />
<path d="M67673 32787
L67673 38929
" />
<path d="M57988 38929
L57988 32787
" />
<path d="M67673 38929
L57988 38929
" />
<path d="M52318 32787
L52318 38929
" />
<path d="M42633 38929
L42633 32787
" />
<path d="M52318 38929
L42633 38929
" />
<path d="M36964 32787
L36964 38929
" />
<path d="M27279 38929
L27279 32787
" />
<path d="M36964 38929
L27279 38929
" />
<path d="M21610 32787
L21610 38929
" />
<path d="M9090 39638
L9090 44441
" />
<path d="M6255 39638
L9090 39638
" />
<path d="M6255 32787
L6255 39638
" />
<path d="M11925 38929
L11925 32787
" />
<path d="M21610 38929
L11925 38929
" />
<circle cx="1413.39" cy="43653.9" r="669.291" /> 
<path d="M89799.2 45031.9 A1377.95 1377.95 0.0 0 0 91177.2 43653.9" />
<path d="M89799 45031
L1413 45031
" />
<path d="M91177 28024
L91177 43653
" />
<g >
</g>
<g >
</g>
<g >
</g>
<g >
</g>
<g >
</g>
<g >
</g>
<g >
</g>
<g >
</g>
<g >
</g>
<g >
</g>
<g >
</g>
<g >
</g>
<g >
</g>
<g >
</g>
<g >
</g>
<g >
</g>
<g >
</g>
<g >
</g>
<g >
</g>
<g >
</g>
<g >
</g>
<g >
</g>
<g >
</g>
<g >
</g>
<g >
</g>
<g >
</g>
<g >
</g>
<g >
</g>
<g >
</g>
<g >
</g>
<g >
</g>
<g >
</g>
<g >
</g>
<g >
</g>
<g >
</g>
<g >
</g>
<g >
</g>
<g >
</g>
<g >
</g>
<g >
</g>
<g >
</g>
<g >
</g>
<g >
</g>
<g >
</g>
<g >
</g>
<g >
</g>
<g >
</g>
<g >
</g>
<g >
</g>
<g >
</g>
<g >
</g>
<g >
</g>
<g >
</g>
<g >
</g>
<g >
</g>
<g >
</g>
<g >
</g>
<g >
</g>
<g >
</g>
<g >
</g>
<g >
</g>
<g >
</g>
<g >
</g>
<g >
</g>
<g >
</g>
<g >
</g>
<g >
</g>
<g >
</g>
<g >
</g>
<g >
</g>
<g >
</g>
<g >
</g>
<g >
</g>
<g >
</g>
<g >
</g>
<g >
</g>
<g >
</g>
<g >
</g>
<g >
</g>
<g >
</g>
<g >
</g>
<g >
</g>
<g >
</g>
<g >
</g>
<g >
</g>
<g >
</g>
<g >
</g>
<g >
</g>
<g >
</g>
<g >
</g>
<g >
</g>
<g >
</g>
<g >
</g>
<g >
</g>
<g >
</g>
<g >
</g>
<g >
</g>
<g >
</g>
<g >
</g>
<g >
</g>
<g >
</g>
<g >
</g>
<g >
</g>
<g >
</g>
<g >
</g>
<g >
</g>
<g >
</g>
<g >
</g>
<g >
</g>
<g >
</g>
<g >
</g>
<g >
</g>
<g >
</g>
<g >
</g>
<g >
</g>
<g >
</g>
<g >
</g>
<g >
</g>
<g >
</g>
<g >
</g>
<g >
</g>
<g >
</g>
<g >
</g>
<g >
</g>
<g >
</g>
<g >
</g>
<g >
</g>
<g >
</g>
<g >
</g>
<g >
</g>
<g >
</g>
<g >
</g>
<g >
</g>
<g >
</g>
<g >
</g>
<g >
</g>
<g >
</g>
<g >
</g>
<g >
</g>
<g >
</g>
<g >
</g>
<g >
</g>
<g >
</g>
<g >
</g>
<g >
</g>
<g >
</g>
<g >
</g>
<g >
</g>
<g >
</g>
<g >
</g>
<g >
</g>
<g >
</g>
<g >
</g>
<g >
</g>
<g >
</g>
<g >
</g>
<g >
</g>
<g >
</g>
<g >
</g>
<g >
</g>
<g >
</g>
<g >
</g>
<g >
</g>
<g >
</g>
<g >
</g>
<g >
</g>
<g >
</g>
<g >
</g>
<g >
</g>
<g >
</g>
<g >
</g>
<g >
</g>
<g >
</g>
<g >
</g>
<g >
</g>
<g >
</g>
<g >
</g>
<g >
</g>
<g >
</g>
<g >
</g>
<g >
</g>
<g >
</g>
<g >
</g>
<g >
</g>
<g >
</g>
<g >
</g>
<g >
</g>
<g >
</g>
<g >
</g>
<g >
</g>
<g >
</g>
<g >
</g>
<g >
</g>
<g >
</g>
<g >
</g>
<g >
</g>
<g >
</g>
<g >
</g>
<g >
</g>
<g >
</g>
<g >
</g>
<g >
</g>
<g >
</g>
<g >
</g>
<g >
</g>
<g >
</g>
<g >
</g>
<g >
</g>
<g >
</g>
<g >
</g>
<g >
</g>
<g >
</g>
<g >
</g>
<g >
</g>
<g >
</g>
<g >
</g>
<g >
</g>
<g >
</g>
<g >
</g>
<g >
</g>
<g >
</g>
<g >
</g>
<g >
</g>
<g >
</g>
<g >
</g>
<g >
</g>
<g >
</g>
<g >
</g>
<g >
</g>
<g >
</g>
<g >
</g>
</g> 
</svg>
