<?xml version="1.0" standalone="no"?>
 <!DOCTYPE svg PUBLIC "-//W3C//DTD SVG 1.1//EN" 
 "http://www.w3.org/Graphics/SVG/1.1/DTD/svg11.dtd"> 
<svg
  xmlns:svg="http://www.w3.org/2000/svg"
  xmlns="http://www.w3.org/2000/svg"
  xmlns:xlink="http://www.w3.org/1999/xlink"
  version="1.1"
  width="44.269660cm" height="11.447780cm" viewBox="0 0 174290 45070">
<title>SVG Picture created as EncoderBoard-Eco2_User.svg date 2020/06/12 06:57:51 </title>
  <desc>Picture generated by PCBNEW </desc>
<g style="fill:#000000; fill-opacity:1;stroke:#000000; stroke-opacity:1;
stroke-linecap:round; stroke-linejoin:round;"
 transform="translate(0 0) scale(1 1)">
</g>
<g style="fill:#000000; fill-opacity:0.0; 
stroke:#000000; stroke-width:-0.000393701; stroke-opacity:1; 
stroke-linecap:round; stroke-linejoin:round;">
</g>
<g style="fill:#000000; fill-opacity:0.0; 
stroke:#000000; stroke-width:70.8661; stroke-opacity:1; 
stroke-linecap:round; stroke-linejoin:round;">
<circle cx="48066.9" cy="37748.4" r="669.291" /> 
<circle cx="48460.6" cy="20819.3" r="669.291" /> 
<path d="M1216 32630
L5547 32630
" />
<path d="M1216 36961
L5547 36961
" />
<path d="M1216 32630
L1216 36961
" />
<path d="M5547 32630
L5547 36961
" />
<path d="M1216 27512
L5547 27512
" />
<path d="M1216 31842
L5547 31842
" />
<path d="M1216 27512
L1216 31842
" />
<path d="M5547 27512
L5547 31842
" />
<path d="M1216 37748
L5547 37748
" />
<path d="M1216 42079
L5547 42079
" />
<path d="M1216 37748
L1216 42079
" />
<path d="M5547 37748
L5547 42079
" />
<circle cx="73263.8" cy="22590.9" r="2165.35" /> 
<circle cx="77791.3" cy="26331.1" r="474.078" /> 
<path d="M73224 38890
L67791 38890
" />
<path d="M67791 33299
L73224 33299
" />
<path d="M73224 33299
L73224 38890
" />
<path d="M67791 38890
L67791 33299
" />
<path d="M57870 38890
L52437 38890
" />
<path d="M52437 33299
L57870 33299
" />
<path d="M57870 33299
L57870 38890
" />
<path d="M52437 38890
L52437 33299
" />
<path d="M42515 38890
L37082 38890
" />
<path d="M37082 33299
L42515 33299
" />
<path d="M42515 33299
L42515 38890
" />
<path d="M37082 38890
L37082 33299
" />
<path d="M11807 38890
L6374 38890
" />
<path d="M6374 33299
L11807 33299
" />
<path d="M11807 33299
L11807 38890
" />
<path d="M6374 38890
L6374 33299
" />
<path d="M62594 26094
L57161 26094
" />
<path d="M57161 20504
L62594 20504
" />
<path d="M62594 20504
L62594 26094
" />
<path d="M57161 26094
L57161 20504
" />
<path d="M47240 26094
L41807 26094
" />
<path d="M41807 20504
L47240 20504
" />
<path d="M47240 20504
L47240 26094
" />
<path d="M41807 26094
L41807 20504
" />
<path d="M31885 26094
L26452 26094
" />
<path d="M26452 20504
L31885 20504
" />
<path d="M31885 20504
L31885 26094
" />
<path d="M26452 26094
L26452 20504
" />
<path d="M16531 26094
L11098 26094
" />
<path d="M11098 20504
L16531 20504
" />
<path d="M16531 20504
L16531 26094
" />
<path d="M11098 26094
L11098 20504
" />
<path d="M60153 31370
L60153 26449
" />
<path d="M75311 31370
L60153 31370
" />
<path d="M75311 26449
L75311 31370
" />
<path d="M60153 26449
L75311 26449
" />
<path d="M44799 31370
L44799 26449
" />
<path d="M59956 31370
L44799 31370
" />
<path d="M59956 26449
L59956 31370
" />
<path d="M44799 26449
L59956 26449
" />
<path d="M29444 31370
L29444 26449
" />
<path d="M44602 31370
L29444 31370
" />
<path d="M44602 26449
L44602 31370
" />
<path d="M29444 26449
L44602 26449
" />
<path d="M14090 31370
L14090 26449
" />
<path d="M29248 31370
L14090 31370
" />
<path d="M29248 26449
L29248 31370
" />
<path d="M14090 26449
L29248 26449
" />
<path d="M70783 44165
L70783 39244
" />
<path d="M85940 44165
L70783 44165
" />
<path d="M85940 39244
L85940 44165
" />
<path d="M70783 39244
L85940 39244
" />
<path d="M55429 44165
L55429 39244
" />
<path d="M70586 44165
L55429 44165
" />
<path d="M70586 39244
L70586 44165
" />
<path d="M55429 39244
L70586 39244
" />
<path d="M40074 44165
L40074 39244
" />
<path d="M55232 44165
L40074 44165
" />
<path d="M55232 39244
L55232 44165
" />
<path d="M40074 39244
L55232 39244
" />
<path d="M24720 44165
L24720 39244
" />
<path d="M39877 44165
L24720 44165
" />
<path d="M39877 39244
L39877 44165
" />
<path d="M24720 39244
L39877 39244
" />
<path d="M9366 44165
L9366 39244
" />
<path d="M24523 44165
L9366 44165
" />
<path d="M24523 39244
L24523 44165
" />
<path d="M9366 39244
L24523 39244
" />
<path d="M27161 38890
L21728 38890
" />
<path d="M21728 38890
L21728 33299
" />
<path d="M21728 33299
L27161 33299
" />
<path d="M27161 33299
L27161 38890
" />
<circle cx="87830.7" cy="33417.7" r="2165.35" /> 
<circle cx="86255.9" cy="21213" r="787.402" /> 
<circle cx="83106.3" cy="21213" r="787.402" /> 
<circle cx="79956.7" cy="21213" r="787.402" /> 
<path d="M1216 22394
L1216 26724
" />
<path d="M1216 26724
L5547 26724
" />
<path d="M5547 22394
L5547 26724
" />
<path d="M1216 22394
L5547 22394
" />
<path d="M1413.39 19441.3 A1377.95 1377.95 0.0 0 0 35.4335 20819.3" />
<path d="M91177.2 20819.3 A1377.95 1377.95 0.0 0 0 89799.2 19441.3" />
<path d="M89799.2 45031.9 A1377.95 1377.95 0.0 0 0 91177.2 43653.9" />
<path d="M35.4335 43653.9 A1377.95 1377.95 0.0 0 0 1413.39 45031.9" />
<path d="M35 20819
L35 43653
" />
<path d="M89799 19441
L1413 19441
" />
<path d="M91177 43653
L91177 20819
" />
<path d="M1413 45031
L89799 45031
" />
<circle cx="1413.39" cy="43653.9" r="669.291" /> 
<circle cx="89799.2" cy="20819.3" r="669.291" /> 
<circle cx="89799.2" cy="43653.9" r="669.291" /> 
<circle cx="1413.39" cy="20819.3" r="669.291" /> 
<circle cx="19129.9" cy="24165.7" r="787.402" /> 
<circle cx="34484.3" cy="24165.7" r="787.402" /> 
<circle cx="49838.6" cy="24165.7" r="787.402" /> 
<circle cx="65192.9" cy="24165.7" r="787.402" /> 
<circle cx="75822.8" cy="36961" r="787.402" /> 
<circle cx="60468.5" cy="36961" r="787.402" /> 
<circle cx="45114.2" cy="36961" r="787.402" /> 
<circle cx="29759.8" cy="36961" r="787.402" /> 
<circle cx="14405.5" cy="36961" r="787.402" /> 
<g >
</g>
<g >
</g>
<g >
</g>
<g >
</g>
<g >
</g>
<g >
</g>
<g >
</g>
<g >
</g>
<g >
</g>
<g >
</g>
<g >
</g>
<g >
</g>
<g >
</g>
<g >
</g>
<g >
</g>
<g >
</g>
<g >
</g>
<g >
</g>
<g >
</g>
<g >
</g>
<g >
</g>
<g >
</g>
<g >
</g>
<g >
</g>
<g >
</g>
<g >
</g>
<g >
</g>
<g >
</g>
<g >
</g>
<g >
</g>
<g >
</g>
<g >
</g>
<g >
</g>
<g >
</g>
<g >
</g>
<g >
</g>
<g >
</g>
<g >
</g>
<g >
</g>
<g >
</g>
<g >
</g>
<g >
</g>
<g >
</g>
<g >
</g>
<g >
</g>
<g >
</g>
<g >
</g>
<g >
</g>
<g >
</g>
<g >
</g>
<g >
</g>
<g >
</g>
<g >
</g>
<g >
</g>
<g >
</g>
<g >
</g>
<g >
</g>
<g >
</g>
<g >
</g>
<g >
</g>
<g >
</g>
<g >
</g>
<g >
</g>
<g >
</g>
<g >
</g>
<g >
</g>
<g >
</g>
<g >
</g>
<g >
</g>
<g >
</g>
<g >
</g>
<g >
</g>
<g >
</g>
<g >
</g>
<g >
</g>
<g >
</g>
<g >
</g>
<g >
</g>
<g >
</g>
<g >
</g>
<g >
</g>
<g >
</g>
<g >
</g>
<g >
</g>
<g >
</g>
<g >
</g>
<g >
</g>
<g >
</g>
<g >
</g>
<g >
</g>
<g >
</g>
<g >
</g>
<g >
</g>
<g >
</g>
<g >
</g>
<g >
</g>
<g >
</g>
<g >
</g>
<g >
</g>
<g >
</g>
<g >
</g>
<g >
</g>
<g >
</g>
<g >
</g>
<g >
</g>
<g >
</g>
<g >
</g>
<g >
</g>
<g >
</g>
<g >
</g>
<g >
</g>
<g >
</g>
<g >
</g>
<g >
</g>
<g >
</g>
<g >
</g>
<g >
</g>
<g >
</g>
<g >
</g>
<g >
</g>
<g >
</g>
<g >
</g>
<g >
</g>
<g >
</g>
<g >
</g>
<g >
</g>
<g >
</g>
<g >
</g>
<g >
</g>
<g >
</g>
<g >
</g>
<g >
</g>
<g >
</g>
<g >
</g>
<g >
</g>
<g >
</g>
<g >
</g>
<g >
</g>
<g >
</g>
<g >
</g>
<g >
</g>
<g >
</g>
<g >
</g>
<g >
</g>
<g >
</g>
<g >
</g>
<g >
</g>
<g >
</g>
<g >
</g>
<g >
</g>
<g >
</g>
<g >
</g>
<g >
</g>
<g >
</g>
<g >
</g>
<g >
</g>
<g >
</g>
<g >
</g>
<g >
</g>
<g >
</g>
<g >
</g>
<g >
</g>
<g >
</g>
<g >
</g>
<g >
</g>
<g >
</g>
<g >
</g>
<g >
</g>
<g >
</g>
<g >
</g>
<g >
</g>
<g >
</g>
<g >
</g>
<g >
</g>
<g >
</g>
<g >
</g>
<g >
</g>
<g >
</g>
<g >
</g>
<g >
</g>
<g >
</g>
<g >
</g>
<g >
</g>
<g >
</g>
<g >
</g>
<g >
</g>
<g >
</g>
<g >
</g>
<g >
</g>
<g >
</g>
<g >
</g>
<g >
</g>
<g >
</g>
<g >
</g>
<g >
</g>
<g >
</g>
<g >
</g>
<g >
</g>
<g >
</g>
<g >
</g>
<g >
</g>
<g >
</g>
<g >
</g>
<g >
</g>
<g >
</g>
<g >
</g>
<g >
</g>
<g >
</g>
<g >
</g>
<g >
</g>
<g >
</g>
<g >
</g>
<g >
</g>
<g >
</g>
<g >
</g>
<g >
</g>
<g >
</g>
<g >
</g>
<g >
</g>
<g >
</g>
<g >
</g>
<g >
</g>
<g >
</g>
<g >
</g>
<g >
</g>
<g >
</g>
<g >
</g>
<g >
</g>
<g >
</g>
<g >
</g>
<g >
</g>
</g> 
</svg>
