<?xml version="1.0" standalone="no"?>
 <!DOCTYPE svg PUBLIC "-//W3C//DTD SVG 1.1//EN" 
 "http://www.w3.org/Graphics/SVG/1.1/DTD/svg11.dtd"> 
<svg
  xmlns:svg="http://www.w3.org/2000/svg"
  xmlns="http://www.w3.org/2000/svg"
  xmlns:xlink="http://www.w3.org/1999/xlink"
  version="1.1"
  width="44.269660cm" height="11.447780cm" viewBox="0 0 174290 45070">
<title>SVG Picture created as EncoderBoard-Cmts_User.svg date 2020/06/12 06:57:51 </title>
  <desc>Picture generated by PCBNEW </desc>
<g style="fill:#000000; fill-opacity:1;stroke:#000000; stroke-opacity:1;
stroke-linecap:round; stroke-linejoin:round;"
 transform="translate(0 0) scale(1 1)">
</g>
<g style="fill:#000000; fill-opacity:0.0; 
stroke:#000000; stroke-width:-0.000393701; stroke-opacity:1; 
stroke-linecap:round; stroke-linejoin:round;">
</g>
<g style="fill:#000000; fill-opacity:0.0; 
stroke:#000000; stroke-width:70.8661; stroke-opacity:1; 
stroke-linecap:round; stroke-linejoin:round;">
<path d="M1413 22984
L5547 22984
" />
<path d="M1413 26134
L1413 22984
" />
<path d="M2594 26134
L1413 26134
" />
<path d="M2594 26921
L2594 26134
" />
<path d="M5547 26921
L2594 26921
" />
<path d="M5547 22984
L5547 26921
" />
<path d="M2594 32039
L5547 32039
" />
<path d="M2594 31252
L2594 32039
" />
<path d="M1413 31252
L2594 31252
" />
<path d="M1413 28102
L1413 31252
" />
<path d="M5547 28102
L1413 28102
" />
<path d="M5547 32039
L5547 28102
" />
<path d="M2594 37157
L5547 37157
" />
<path d="M2594 36370
L2594 37157
" />
<path d="M1413 36370
L2594 36370
" />
<path d="M1413 33220
L1413 36370
" />
<path d="M5547 33220
L1413 33220
" />
<path d="M5547 37157
L5547 33220
" />
<path d="M5547 42275
L5547 38338
" />
<path d="M2594 42275
L5547 42275
" />
<path d="M2594 41291
L2594 42275
" />
<path d="M1413 41291
L2594 41291
" />
<path d="M1413 38338
L1413 41291
" />
<path d="M5547 38338
L1413 38338
" />
<path d="M46098 22590
L46098 20031
" />
<path d="M49641 22590
L46098 22590
" />
<path d="M49641 21606
L49641 22590
" />
<path d="M50035 21212
L49641 21606
" />
<path d="M50035 20228
L50035 21212
" />
<path d="M51610 20228
L50035 20228
" />
<path d="M51610 21212
L51610 20228
" />
<path d="M53578 21212
L51610 21212
" />
<path d="M53578 28496
L53578 21212
" />
<path d="M55940 28496
L53578 28496
" />
<path d="M55940 32827
L55940 28496
" />
<path d="M49051 33417
L47673 33417
" />
<path d="M49051 37157
L49051 33417
" />
<path d="M52003 37157
L49051 37157
" />
<path d="M47673 30858
L47673 33417
" />
<path d="M44720 30858
L47673 30858
" />
<path d="M41374 20031
L41374 26921
" />
<path d="M44720 26921
L44720 30858
" />
<path d="M46098 20031
L41374 20031
" />
<path d="M41374 26921
L44720 26921
" />
<path d="M16964 37157
L16964 30858
" />
<path d="M21295 37157
L16964 37157
" />
<path d="M24248 29087
L24248 32827
" />
<path d="M22082 29087
L24248 29087
" />
<path d="M22082 20031
L22082 29087
" />
<path d="M14011 30858
L16964 30858
" />
<path d="M10665 20031
L10665 26921
" />
<path d="M14011 26921
L14011 30858
" />
<path d="M22082 20031
L10665 20031
" />
<path d="M10665 26921
L14011 26921
" />
<path d="M58303 43653
L58303 32827
" />
<path d="M55350 43653
L58303 43653
" />
<path d="M52003 37157
L52003 39716
" />
<path d="M55350 39716
L55350 43653
" />
<path d="M58303 32827
L55940 32827
" />
<path d="M52003 39716
L55350 39716
" />
<path d="M27594 43653
L27594 32827
" />
<path d="M24641 43653
L27594 43653
" />
<path d="M21295 37157
L21295 39716
" />
<path d="M24641 39716
L24641 43653
" />
<path d="M27594 32827
L24248 32827
" />
<path d="M21295 39716
L24641 39716
" />
<path d="M12240 43653
L12240 32827
" />
<path d="M9287 43653
L12240 43653
" />
<path d="M5940 32827
L5940 39716
" />
<path d="M9287 39716
L9287 43653
" />
<path d="M12240 32827
L5940 32827
" />
<path d="M5940 39716
L9287 39716
" />
<path d="M32318 30858
L32318 20031
" />
<path d="M29366 30858
L32318 30858
" />
<path d="M26019 20031
L26019 26921
" />
<path d="M29366 26921
L29366 30858
" />
<path d="M32318 20031
L26019 20031
" />
<path d="M26019 26921
L29366 26921
" />
<path d="M42948 43653
L42948 32827
" />
<path d="M39996 43653
L42948 43653
" />
<path d="M36649 32827
L36649 39716
" />
<path d="M39996 39716
L39996 43653
" />
<path d="M42948 32827
L36649 32827
" />
<path d="M36649 39716
L39996 39716
" />
<path d="M60074 26921
L60074 30858
" />
<path d="M56728 26921
L60074 26921
" />
<path d="M56728 20031
L56728 26921
" />
<path d="M63027 20031
L56728 20031
" />
<path d="M63027 30858
L63027 20031
" />
<path d="M60074 30858
L63027 30858
" />
<path d="M64996 31449
L69129 31449
" />
<path d="M64996 20819
L64996 31449
" />
<path d="M69129 20819
L64996 20819
" />
<path d="M69129 31449
L69129 20819
" />
<path d="M71295 29283
L75232 29283
" />
<path d="M71295 21016
L71295 29283
" />
<path d="M75232 21016
L71295 21016
" />
<path d="M75232 29283
L75232 21016
" />
<path d="M88027 22787
L90192 22787
" />
<path d="M88027 21212
L88027 22787
" />
<path d="M79759 21212
L88027 21212
" />
<path d="M79759 22787
L79759 21212
" />
<path d="M76019 22787
L79759 22787
" />
<path d="M76019 29874
L76019 22787
" />
<path d="M90192 29874
L76019 29874
" />
<path d="M90192 22787
L90192 29874
" />
<path d="M89799 35779
L89799 31842
" />
<path d="M86059 35779
L89799 35779
" />
<path d="M86059 31842
L86059 35779
" />
<path d="M89799 31842
L86059 31842
" />
<path d="M76610 38338
L76610 43653
" />
<path d="M81334 38338
L76610 38338
" />
<path d="M81334 36961
L81334 38338
" />
<path d="M83696 36961
L81334 36961
" />
<path d="M83696 34992
L83696 36961
" />
<path d="M81334 34992
L83696 34992
" />
<path d="M81334 30858
L81334 34992
" />
<path d="M76610 30858
L81334 30858
" />
<path d="M76610 32039
L76610 30858
" />
<path d="M73460 32039
L76610 32039
" />
<path d="M73460 32827
L73460 32039
" />
<path d="M68933 32827
L73460 32827
" />
<path d="M68933 35189
L68933 32827
" />
<path d="M67555 35189
L68933 35189
" />
<path d="M67555 36961
L67555 35189
" />
<path d="M67948 36961
L67555 36961
" />
<path d="M67948 38535
L67948 36961
" />
<path d="M68933 38535
L67948 38535
" />
<path d="M68933 39716
L68933 38535
" />
<path d="M70901 39716
L68933 39716
" />
<path d="M70901 43653
L70901 39716
" />
<path d="M76610 43653
L70901 43653
" />
<path d="M35.4335 43653.9 A1377.95 1377.95 0.0 0 0 1413.39 45031.9" />
<path d="M89799.2 45031.9 A1377.95 1377.95 0.0 0 0 91177.2 43653.9" />
<path d="M91177.2 20819.3 A1377.95 1377.95 0.0 0 0 89799.2 19441.3" />
<path d="M1413.39 19441.3 A1377.95 1377.95 0.0 0 0 35.4335 20819.3" />
<path d="M35 43653
L35 20819
" />
<path d="M89799 45031
L1413 45031
" />
<path d="M91177 20819
L91177 43653
" />
<path d="M1413 19441
L89799 19441
" />
<circle cx="48066.9" cy="37748.4" r="669.291" /> 
<circle cx="89799.2" cy="43653.9" r="669.291" /> 
<circle cx="89799.2" cy="20819.3" r="669.291" /> 
<circle cx="48460.6" cy="20819.3" r="669.291" /> 
<circle cx="1413.39" cy="43653.9" r="669.291" /> 
<circle cx="1413.39" cy="20819.3" r="669.291" /> 
</g>
<g style="fill:#000000; fill-opacity:0.0; 
stroke:#000000; stroke-width:59.0551; stroke-opacity:1; 
stroke-linecap:round; stroke-linejoin:round;">
<circle cx="48066.9" cy="37748.4" r="1259.84" /> 
<circle cx="1413.39" cy="20819.3" r="1259.84" /> 
<circle cx="89799.2" cy="20819.3" r="1259.84" /> 
<circle cx="89799.2" cy="43653.9" r="1259.84" /> 
<circle cx="48460.6" cy="20819.3" r="1259.84" /> 
<circle cx="1413.39" cy="43653.9" r="1259.84" /> 
<g >
</g>
<g >
</g>
<g >
</g>
<g >
</g>
<g >
</g>
<g >
</g>
<g >
</g>
<g >
</g>
<g >
</g>
<g >
</g>
<g >
</g>
<g >
</g>
<g >
</g>
<g >
</g>
<g >
</g>
<g >
</g>
<g >
</g>
<g >
</g>
<g >
</g>
<g >
</g>
<g >
</g>
<g >
</g>
<g >
</g>
<g >
</g>
<g >
</g>
<g >
</g>
<g >
</g>
<g >
</g>
<g >
</g>
<g >
</g>
<g >
</g>
<g >
</g>
<g >
</g>
<g >
</g>
<g >
</g>
<g >
</g>
<g >
</g>
<g >
</g>
<g >
</g>
<g >
</g>
<g >
</g>
<g >
</g>
<g >
</g>
<g >
</g>
<g >
</g>
<g >
</g>
<g >
</g>
<g >
</g>
<g >
</g>
<g >
</g>
<g >
</g>
<g >
</g>
<g >
</g>
<g >
</g>
<g >
</g>
<g >
</g>
<g >
</g>
<g >
</g>
<g >
</g>
<g >
</g>
<g >
</g>
<g >
</g>
<g >
</g>
<g >
</g>
<g >
</g>
<g >
</g>
<g >
</g>
<g >
</g>
<g >
</g>
<g >
</g>
<g >
</g>
<g >
</g>
<g >
</g>
<g >
</g>
<g >
</g>
<g >
</g>
<g >
</g>
<g >
</g>
<g >
</g>
<g >
</g>
<g >
</g>
<g >
</g>
<g >
</g>
<g >
</g>
<g >
</g>
<g >
</g>
<g >
</g>
<g >
</g>
<g >
</g>
<g >
</g>
<g >
</g>
<g >
</g>
<g >
</g>
<g >
</g>
<g >
</g>
<g >
</g>
<g >
</g>
<g >
</g>
<g >
</g>
<g >
</g>
<g >
</g>
<g >
</g>
<g >
</g>
<g >
</g>
<g >
</g>
<g >
</g>
<g >
</g>
<g >
</g>
<g >
</g>
<g >
</g>
<g >
</g>
<g >
</g>
<g >
</g>
<g >
</g>
<g >
</g>
<g >
</g>
<g >
</g>
<g >
</g>
<g >
</g>
<g >
</g>
<g >
</g>
<g >
</g>
<g >
</g>
<g >
</g>
<g >
</g>
<g >
</g>
<g >
</g>
<g >
</g>
<g >
</g>
<g >
</g>
<g >
</g>
<g >
</g>
<g >
</g>
<g >
</g>
<g >
</g>
<g >
</g>
<g >
</g>
<g >
</g>
<g >
</g>
<g >
</g>
<g >
</g>
<g >
</g>
<g >
</g>
<g >
</g>
<g >
</g>
<g >
</g>
<g >
</g>
<g >
</g>
<g >
</g>
<g >
</g>
<g >
</g>
<g >
</g>
<g >
</g>
<g >
</g>
<g >
</g>
<g >
</g>
<g >
</g>
<g >
</g>
<g >
</g>
<g >
</g>
<g >
</g>
<g >
</g>
<g >
</g>
<g >
</g>
<g >
</g>
<g >
</g>
<g >
</g>
<g >
</g>
<g >
</g>
<g >
</g>
<g >
</g>
<g >
</g>
<g >
</g>
<g >
</g>
<g >
</g>
<g >
</g>
<g >
</g>
<g >
</g>
<g >
</g>
<g >
</g>
<g >
</g>
<g >
</g>
<g >
</g>
<g >
</g>
<g >
</g>
<g >
</g>
<g >
</g>
<g >
</g>
<g >
</g>
<g >
</g>
<g >
</g>
<g >
</g>
<g >
</g>
<g >
</g>
<g >
</g>
<g >
</g>
<g >
</g>
<g >
</g>
<g >
</g>
<g >
</g>
<g >
</g>
<g >
</g>
<g >
</g>
<g >
</g>
<g >
</g>
<g >
</g>
<g >
</g>
<g >
</g>
<g >
</g>
<g >
</g>
<g >
</g>
<g >
</g>
<g >
</g>
<g >
</g>
<g >
</g>
<g >
</g>
<g >
</g>
<g >
</g>
<g >
</g>
<g >
</g>
<g >
</g>
<g >
</g>
<g >
</g>
<g >
</g>
<g >
</g>
<g >
</g>
<g >
</g>
<g >
</g>
<g >
</g>
<g >
</g>
<g >
</g>
</g> 
</svg>
